G04 #@! TF.GenerationSoftware,KiCad,Pcbnew,8.0.6*
G04 #@! TF.CreationDate,2026-01-15T10:53:25-08:00*
G04 #@! TF.ProjectId,USBPD_Board,55534250-445f-4426-9f61-72642e6b6963,A*
G04 #@! TF.SameCoordinates,Original*
G04 #@! TF.FileFunction,Copper,L3,Inr*
G04 #@! TF.FilePolarity,Positive*
%FSLAX46Y46*%
G04 Gerber Fmt 4.6, Leading zero omitted, Abs format (unit mm)*
G04 Created by KiCad (PCBNEW 8.0.6) date 2026-01-15 10:53:25*
%MOMM*%
%LPD*%
G01*
G04 APERTURE LIST*
G04 #@! TA.AperFunction,ComponentPad*
%ADD10R,1.200000X1.200000*%
G04 #@! TD*
G04 #@! TA.AperFunction,ComponentPad*
%ADD11C,1.200000*%
G04 #@! TD*
G04 #@! TA.AperFunction,ComponentPad*
%ADD12R,1.650000X1.650000*%
G04 #@! TD*
G04 #@! TA.AperFunction,ComponentPad*
%ADD13C,1.650000*%
G04 #@! TD*
G04 #@! TA.AperFunction,ComponentPad*
%ADD14R,1.700000X1.700000*%
G04 #@! TD*
G04 #@! TA.AperFunction,ComponentPad*
%ADD15O,1.700000X1.700000*%
G04 #@! TD*
G04 #@! TA.AperFunction,ComponentPad*
%ADD16C,6.400000*%
G04 #@! TD*
G04 #@! TA.AperFunction,ComponentPad*
%ADD17O,3.600000X1.400000*%
G04 #@! TD*
G04 #@! TA.AperFunction,ComponentPad*
%ADD18O,1.400000X3.600000*%
G04 #@! TD*
G04 #@! TA.AperFunction,ComponentPad*
%ADD19O,2.100000X1.000000*%
G04 #@! TD*
G04 #@! TA.AperFunction,ComponentPad*
%ADD20O,1.600000X1.000000*%
G04 #@! TD*
G04 #@! TA.AperFunction,ViaPad*
%ADD21C,0.700000*%
G04 #@! TD*
G04 #@! TA.AperFunction,ViaPad*
%ADD22C,0.800000*%
G04 #@! TD*
G04 #@! TA.AperFunction,ViaPad*
%ADD23C,0.900000*%
G04 #@! TD*
G04 #@! TA.AperFunction,Conductor*
%ADD24C,1.000000*%
G04 #@! TD*
G04 #@! TA.AperFunction,Conductor*
%ADD25C,0.500000*%
G04 #@! TD*
G04 #@! TA.AperFunction,Conductor*
%ADD26C,0.150000*%
G04 #@! TD*
G04 #@! TA.AperFunction,Profile*
%ADD27C,0.050000*%
G04 #@! TD*
G04 APERTURE END LIST*
D10*
X190987500Y-87762500D03*
D11*
X194487500Y-87762500D03*
D12*
X165400000Y-77350000D03*
D13*
X162900000Y-77350000D03*
X160400000Y-77350000D03*
D10*
X190887500Y-96800000D03*
D11*
X194387500Y-96800000D03*
D12*
X153950000Y-77350000D03*
D13*
X151450000Y-77350000D03*
X148950000Y-77350000D03*
D14*
X129325000Y-87100000D03*
D15*
X131865000Y-87100000D03*
X129325000Y-89640000D03*
X131865000Y-89640000D03*
X129325000Y-92180000D03*
X131865000Y-92180000D03*
X129325000Y-94720000D03*
X131865000Y-94720000D03*
D12*
X107350000Y-81700000D03*
D13*
X107350000Y-84200000D03*
X107350000Y-86700000D03*
D16*
X196000000Y-74000000D03*
X104000000Y-74000000D03*
D12*
X176850000Y-77350000D03*
D13*
X174350000Y-77350000D03*
X171850000Y-77350000D03*
D14*
X125040000Y-112360000D03*
D15*
X125040000Y-114900000D03*
X122500000Y-112360000D03*
X122500000Y-114900000D03*
X119960000Y-112360000D03*
X119960000Y-114900000D03*
X117420000Y-112360000D03*
X117420000Y-114900000D03*
D12*
X188300000Y-77350000D03*
D13*
X185800000Y-77350000D03*
X183300000Y-77350000D03*
D16*
X104000000Y-116000000D03*
D10*
X143200000Y-95000000D03*
D11*
X146700000Y-95000000D03*
D16*
X196000000Y-116000000D03*
D17*
X118400000Y-81812500D03*
X118400000Y-75562500D03*
D18*
X113600000Y-78812500D03*
D17*
X130600000Y-81912500D03*
X130600000Y-75662500D03*
D18*
X125800000Y-78912500D03*
D19*
X106780000Y-101390000D03*
D20*
X102600000Y-101390000D03*
D19*
X106780000Y-110030000D03*
D20*
X102600000Y-110030000D03*
D14*
X135725000Y-112450000D03*
D15*
X135725000Y-114990000D03*
X133185000Y-112450000D03*
X133185000Y-114990000D03*
X130645000Y-112450000D03*
X130645000Y-114990000D03*
D21*
X153400000Y-99100000D03*
X105200000Y-103600000D03*
X178300000Y-88400000D03*
X161200000Y-117800000D03*
X176600000Y-108100000D03*
X182400000Y-107400000D03*
D22*
X164100000Y-101700000D03*
X198000000Y-79000000D03*
D21*
X189300000Y-115900000D03*
D22*
X186500000Y-100500000D03*
D21*
X103900000Y-107300000D03*
D22*
X186500000Y-96500000D03*
D21*
X114400000Y-86900000D03*
X149400000Y-118100000D03*
X161700000Y-100100000D03*
X116000000Y-110300000D03*
D22*
X116800000Y-86400000D03*
X144600000Y-71700000D03*
D21*
X147200000Y-118900000D03*
D22*
X198000000Y-109000000D03*
D21*
X132400000Y-109000000D03*
X178900000Y-90700000D03*
X133700000Y-103800000D03*
X101600000Y-78000000D03*
D22*
X135800000Y-95900000D03*
D21*
X172700000Y-95700000D03*
D22*
X198000000Y-84000000D03*
D21*
X186800000Y-116500000D03*
X104400000Y-108700000D03*
X110900000Y-110700000D03*
D22*
X134400000Y-93800000D03*
X196500000Y-103000000D03*
D21*
X179400000Y-96000000D03*
X135200000Y-103600000D03*
D22*
X145000000Y-77600000D03*
D21*
X165200000Y-93600000D03*
X125700000Y-109900000D03*
D22*
X139600000Y-77400000D03*
D21*
X169200000Y-96700000D03*
D22*
X198000000Y-106500000D03*
D21*
X102900000Y-98000000D03*
X182400000Y-106000000D03*
X147400000Y-85400000D03*
D22*
X151800000Y-94300000D03*
D21*
X175900000Y-90700000D03*
X156600000Y-117800000D03*
X182400000Y-104700000D03*
X183800000Y-114800000D03*
D22*
X121700000Y-102600000D03*
D21*
X139600000Y-74300000D03*
D22*
X160100000Y-100500000D03*
X174700000Y-100800000D03*
D21*
X179400000Y-117700000D03*
D22*
X186500000Y-98500000D03*
D21*
X151100000Y-117900000D03*
D22*
X196500000Y-110500000D03*
D21*
X173900000Y-88000000D03*
D22*
X106900000Y-112100000D03*
D21*
X133800000Y-110100000D03*
D22*
X114400000Y-83500000D03*
X198000000Y-99000000D03*
X186500000Y-94500000D03*
D21*
X180900000Y-108100000D03*
D22*
X154600000Y-94300000D03*
D21*
X191200000Y-117700000D03*
D22*
X186500000Y-92500000D03*
D21*
X185200000Y-117700000D03*
D22*
X196500000Y-93000000D03*
D21*
X158900000Y-117800000D03*
X177200000Y-99500000D03*
D22*
X108000000Y-113700000D03*
D21*
X138100000Y-111400000D03*
X186400000Y-114300000D03*
X154100000Y-117800000D03*
D22*
X141900000Y-71700000D03*
D21*
X165700000Y-117800000D03*
X150900000Y-82700000D03*
D22*
X108400000Y-99700000D03*
D21*
X151800000Y-97300000D03*
D22*
X198000000Y-101500000D03*
X182000000Y-89500000D03*
X198000000Y-96500000D03*
X109700000Y-110100000D03*
X167000000Y-100200000D03*
D21*
X194000000Y-112100000D03*
X174300000Y-97700000D03*
X140000000Y-118700000D03*
D22*
X109000000Y-72500000D03*
D21*
X183500000Y-106800000D03*
D22*
X196000000Y-82500000D03*
D21*
X163500000Y-117800000D03*
X178200000Y-118400000D03*
X170400000Y-117700000D03*
D22*
X159500000Y-98900000D03*
D21*
X152700000Y-117000000D03*
D22*
X131100000Y-71200000D03*
X196000000Y-80000000D03*
X137900000Y-96100000D03*
D21*
X188400000Y-117700000D03*
X160000000Y-92900000D03*
X142100000Y-118700000D03*
X174200000Y-90700000D03*
D22*
X141300000Y-75800000D03*
D21*
X177400000Y-90700000D03*
D22*
X170700000Y-100200000D03*
X137000000Y-74500000D03*
D21*
X139500000Y-114100000D03*
X113400000Y-118900000D03*
D22*
X196500000Y-108000000D03*
D21*
X183500000Y-105500000D03*
X172900000Y-117700000D03*
D22*
X134300000Y-71300000D03*
X198000000Y-91500000D03*
X114400000Y-85200000D03*
D21*
X136600000Y-109500000D03*
D22*
X134500000Y-90300000D03*
D23*
X134500000Y-91900000D03*
D21*
X145000000Y-117000000D03*
X149100000Y-102900000D03*
X140200000Y-116400000D03*
X145500000Y-83000000D03*
D22*
X121500000Y-100800000D03*
D21*
X117500000Y-110000000D03*
D22*
X196500000Y-100500000D03*
D21*
X175400000Y-87900000D03*
X177500000Y-109100000D03*
X167350000Y-91450000D03*
X149600000Y-87600000D03*
X149300000Y-101700000D03*
D22*
X139300000Y-71700000D03*
X182800000Y-87700000D03*
D21*
X171200000Y-92000000D03*
X153500000Y-109600000D03*
D22*
X198000000Y-89000000D03*
D21*
X191500000Y-114400000D03*
D22*
X196500000Y-105500000D03*
D21*
X183500000Y-108100000D03*
X178200000Y-93600000D03*
D22*
X198000000Y-81500000D03*
X147100000Y-99700000D03*
D21*
X165150000Y-91450000D03*
X102900000Y-95000000D03*
X104000000Y-102800000D03*
X111800000Y-115700000D03*
X112100000Y-96500000D03*
X146500000Y-100900000D03*
X180400000Y-94700000D03*
D22*
X198000000Y-104000000D03*
D21*
X149500000Y-96800000D03*
X115200000Y-118900000D03*
D22*
X198000000Y-94000000D03*
D21*
X151200000Y-84800000D03*
X130800000Y-109700000D03*
X123000000Y-105000000D03*
X182300000Y-108800000D03*
X124500000Y-102700000D03*
X168000000Y-117800000D03*
D22*
X149400000Y-98700000D03*
X198000000Y-86500000D03*
X145000000Y-75700000D03*
D21*
X154200000Y-97000000D03*
D22*
X198000000Y-111500000D03*
X118400000Y-86600000D03*
D21*
X163200000Y-100500000D03*
D22*
X141700000Y-98800000D03*
X134700000Y-105000000D03*
D21*
X172600000Y-87500000D03*
D22*
X110200000Y-111800000D03*
X130900000Y-107700000D03*
X114400000Y-117900000D03*
D21*
X178300000Y-95200000D03*
X171700000Y-95000000D03*
X115900000Y-109000000D03*
D22*
X188900000Y-84300000D03*
X187300000Y-85800000D03*
X190600000Y-82800000D03*
X188900000Y-82800000D03*
X187300000Y-84300000D03*
X187300000Y-82800000D03*
D21*
X137700000Y-108600000D03*
D22*
X141200000Y-117600000D03*
D21*
X123700000Y-104100000D03*
X172200000Y-90700000D03*
X147900000Y-103800000D03*
X122600000Y-106100000D03*
X135050000Y-109550000D03*
X172300000Y-92400000D03*
X105300000Y-105800000D03*
X105300000Y-107500000D03*
D22*
X109600000Y-108600000D03*
X110200000Y-101100000D03*
D21*
X150600000Y-97700000D03*
X145900000Y-118100000D03*
X150000000Y-116800000D03*
X153100000Y-97800000D03*
X170300000Y-96200000D03*
X191700000Y-113000000D03*
X185200000Y-115200000D03*
X172900000Y-98200000D03*
X152800000Y-108300000D03*
X161700000Y-92800000D03*
X165500000Y-96500000D03*
X178900000Y-116400000D03*
X176500000Y-100500000D03*
X161700000Y-96500000D03*
X178200000Y-89700000D03*
X176900000Y-88300000D03*
D22*
X132900000Y-72200000D03*
X138400000Y-75000000D03*
X138000000Y-94700000D03*
X134500000Y-88200000D03*
X134500000Y-86800000D03*
D24*
X144200000Y-84800000D02*
X149500000Y-90100000D01*
X156100000Y-91600000D02*
X156100000Y-99900000D01*
X154600000Y-90100000D02*
X156100000Y-91600000D01*
X156100000Y-99900000D02*
X158300000Y-102100000D01*
X161600000Y-102100000D02*
X163200000Y-100500000D01*
X158300000Y-102100000D02*
X161600000Y-102100000D01*
X120200000Y-84800000D02*
X144200000Y-84800000D01*
X149500000Y-90100000D02*
X154600000Y-90100000D01*
X118400000Y-86600000D02*
X120200000Y-84800000D01*
D25*
X141700000Y-101600000D02*
X141700000Y-98800000D01*
X134700000Y-105000000D02*
X138300000Y-105000000D01*
X138300000Y-105000000D02*
X141700000Y-101600000D01*
D26*
X168300000Y-88800000D02*
X170000000Y-90500000D01*
X170000000Y-93300000D02*
X171700000Y-95000000D01*
X152300000Y-88100000D02*
X156300000Y-88100000D01*
X148950000Y-77350000D02*
X148950000Y-84750000D01*
X156300000Y-88100000D02*
X157000000Y-88800000D01*
X157000000Y-88800000D02*
X168300000Y-88800000D01*
X148950000Y-84750000D02*
X152300000Y-88100000D01*
X170000000Y-90500000D02*
X170000000Y-93300000D01*
X140800000Y-105500000D02*
X137700000Y-108600000D01*
X138200000Y-116800000D02*
X138200000Y-113300000D01*
X183600000Y-93100000D02*
X183600000Y-101500000D01*
X139000000Y-117600000D02*
X138200000Y-116800000D01*
X182100000Y-91600000D02*
X183600000Y-93100000D01*
X123700000Y-104100000D02*
X131400000Y-104100000D01*
X183600000Y-101500000D02*
X179600000Y-105500000D01*
X137350000Y-112450000D02*
X135725000Y-112450000D01*
X172200000Y-90700000D02*
X173100000Y-91600000D01*
X179600000Y-105500000D02*
X140800000Y-105500000D01*
X173100000Y-91600000D02*
X182100000Y-91600000D01*
X138200000Y-113300000D02*
X137350000Y-112450000D01*
X141200000Y-117600000D02*
X139000000Y-117600000D01*
X131400000Y-104100000D02*
X135900000Y-108600000D01*
X135900000Y-108600000D02*
X137700000Y-108600000D01*
X147900000Y-103800000D02*
X148600000Y-103800000D01*
X149300000Y-104500000D02*
X179700000Y-104500000D01*
X122600000Y-106100000D02*
X123300000Y-106100000D01*
X179700000Y-104500000D02*
X182700000Y-101500000D01*
X181500000Y-92400000D02*
X172300000Y-92400000D01*
X182700000Y-101500000D02*
X182700000Y-93600000D01*
X148600000Y-103800000D02*
X149300000Y-104500000D01*
X124500000Y-104900000D02*
X130400000Y-104900000D01*
X123300000Y-106100000D02*
X124500000Y-104900000D01*
X182700000Y-93600000D02*
X181500000Y-92400000D01*
X130400000Y-104900000D02*
X135050000Y-109550000D01*
X175600000Y-99600000D02*
X176500000Y-100500000D01*
X161700000Y-97600000D02*
X162400000Y-98300000D01*
X171258058Y-98300000D02*
X172558058Y-99600000D01*
X172558058Y-99600000D02*
X175600000Y-99600000D01*
X162400000Y-98300000D02*
X171258058Y-98300000D01*
X161700000Y-96500000D02*
X161700000Y-97600000D01*
X180600000Y-75300000D02*
X178700000Y-73400000D01*
X114000000Y-97000000D02*
X116000000Y-97000000D01*
X112400000Y-72100000D02*
X110100000Y-74400000D01*
X180600000Y-88400000D02*
X180600000Y-75300000D01*
X178700000Y-73400000D02*
X129900000Y-73400000D01*
X123700000Y-113560000D02*
X125040000Y-114900000D01*
X122700000Y-108700000D02*
X123700000Y-109700000D01*
X117000000Y-106000000D02*
X119700000Y-108700000D01*
X110100000Y-74400000D02*
X110100000Y-93100000D01*
X119700000Y-108700000D02*
X122700000Y-108700000D01*
X128600000Y-72100000D02*
X112400000Y-72100000D01*
X117000000Y-98000000D02*
X117000000Y-106000000D01*
X179300000Y-89700000D02*
X180600000Y-88400000D01*
X178200000Y-89700000D02*
X179300000Y-89700000D01*
X129900000Y-73400000D02*
X128600000Y-72100000D01*
X116000000Y-97000000D02*
X117000000Y-98000000D01*
X110100000Y-93100000D02*
X114000000Y-97000000D01*
X123700000Y-109700000D02*
X123700000Y-113560000D01*
X179400000Y-81700000D02*
X179400000Y-76400000D01*
X127900000Y-110300000D02*
X127900000Y-116700000D01*
X124900000Y-107300000D02*
X127900000Y-110300000D01*
X122500000Y-116600000D02*
X122500000Y-114900000D01*
X111500000Y-92200000D02*
X114900000Y-95600000D01*
X140800000Y-74500000D02*
X136300000Y-79000000D01*
X118400000Y-96900000D02*
X118400000Y-105100000D01*
X118400000Y-105100000D02*
X120600000Y-107300000D01*
X117100000Y-95600000D02*
X118400000Y-96900000D01*
X120600000Y-107300000D02*
X124900000Y-107300000D01*
X130100000Y-79000000D02*
X124500000Y-73400000D01*
X177500000Y-74500000D02*
X140800000Y-74500000D01*
X176900000Y-88300000D02*
X176900000Y-84200000D01*
X136300000Y-79000000D02*
X130100000Y-79000000D01*
X124500000Y-73400000D02*
X113700000Y-73400000D01*
X114900000Y-95600000D02*
X117100000Y-95600000D01*
X127900000Y-116700000D02*
X126700000Y-117900000D01*
X176900000Y-84200000D02*
X179400000Y-81700000D01*
X126700000Y-117900000D02*
X123800000Y-117900000D01*
X111500000Y-75600000D02*
X111500000Y-92200000D01*
X123800000Y-117900000D02*
X122500000Y-116600000D01*
X113700000Y-73400000D02*
X111500000Y-75600000D01*
X179400000Y-76400000D02*
X177500000Y-74500000D01*
G04 #@! TA.AperFunction,Conductor*
G36*
X132719075Y-114797007D02*
G01*
X132685000Y-114924174D01*
X132685000Y-115055826D01*
X132719075Y-115182993D01*
X132751988Y-115240000D01*
X131078012Y-115240000D01*
X131110925Y-115182993D01*
X131145000Y-115055826D01*
X131145000Y-114924174D01*
X131110925Y-114797007D01*
X131078012Y-114740000D01*
X132751988Y-114740000D01*
X132719075Y-114797007D01*
G37*
G04 #@! TD.AperFunction*
G04 #@! TA.AperFunction,Conductor*
G36*
X135259075Y-114797007D02*
G01*
X135225000Y-114924174D01*
X135225000Y-115055826D01*
X135259075Y-115182993D01*
X135291988Y-115240000D01*
X133618012Y-115240000D01*
X133650925Y-115182993D01*
X133685000Y-115055826D01*
X133685000Y-114924174D01*
X133650925Y-114797007D01*
X133618012Y-114740000D01*
X135291988Y-114740000D01*
X135259075Y-114797007D01*
G37*
G04 #@! TD.AperFunction*
G04 #@! TA.AperFunction,Conductor*
G36*
X133435000Y-114556988D02*
G01*
X133377993Y-114524075D01*
X133250826Y-114490000D01*
X133119174Y-114490000D01*
X132992007Y-114524075D01*
X132935000Y-114556988D01*
X132935000Y-112883012D01*
X132992007Y-112915925D01*
X133119174Y-112950000D01*
X133250826Y-112950000D01*
X133377993Y-112915925D01*
X133435000Y-112883012D01*
X133435000Y-114556988D01*
G37*
G04 #@! TD.AperFunction*
G04 #@! TA.AperFunction,Conductor*
G36*
X119494075Y-112167007D02*
G01*
X119460000Y-112294174D01*
X119460000Y-112425826D01*
X119494075Y-112552993D01*
X119526988Y-112610000D01*
X117853012Y-112610000D01*
X117885925Y-112552993D01*
X117920000Y-112425826D01*
X117920000Y-112294174D01*
X117885925Y-112167007D01*
X117853012Y-112110000D01*
X119526988Y-112110000D01*
X119494075Y-112167007D01*
G37*
G04 #@! TD.AperFunction*
G04 #@! TA.AperFunction,Conductor*
G36*
X122034075Y-112167007D02*
G01*
X122000000Y-112294174D01*
X122000000Y-112425826D01*
X122034075Y-112552993D01*
X122066988Y-112610000D01*
X120393012Y-112610000D01*
X120425925Y-112552993D01*
X120460000Y-112425826D01*
X120460000Y-112294174D01*
X120425925Y-112167007D01*
X120393012Y-112110000D01*
X122066988Y-112110000D01*
X122034075Y-112167007D01*
G37*
G04 #@! TD.AperFunction*
G04 #@! TA.AperFunction,Conductor*
G36*
X194268745Y-70520185D02*
G01*
X194314500Y-70572989D01*
X194324444Y-70642147D01*
X194295419Y-70705703D01*
X194258001Y-70734985D01*
X194147456Y-70791310D01*
X193822206Y-71002531D01*
X193564648Y-71211095D01*
X193564648Y-71211096D01*
X195059301Y-72705748D01*
X194957670Y-72779588D01*
X194779588Y-72957670D01*
X194705748Y-73059300D01*
X193211096Y-71564648D01*
X193211095Y-71564648D01*
X193002531Y-71822206D01*
X192791310Y-72147456D01*
X192615244Y-72493005D01*
X192476262Y-72855063D01*
X192375887Y-73229669D01*
X192375886Y-73229676D01*
X192315219Y-73612712D01*
X192294922Y-73999999D01*
X192294922Y-74000000D01*
X192315219Y-74387287D01*
X192375886Y-74770323D01*
X192375887Y-74770330D01*
X192476262Y-75144936D01*
X192615244Y-75506994D01*
X192791310Y-75852543D01*
X193002531Y-76177793D01*
X193211095Y-76435350D01*
X193211096Y-76435350D01*
X194705748Y-74940698D01*
X194779588Y-75042330D01*
X194957670Y-75220412D01*
X195059300Y-75294251D01*
X193564648Y-76788903D01*
X193564649Y-76788904D01*
X193822206Y-76997468D01*
X194147456Y-77208689D01*
X194493005Y-77384755D01*
X194855063Y-77523737D01*
X195229669Y-77624112D01*
X195229676Y-77624113D01*
X195612712Y-77684780D01*
X195999999Y-77705078D01*
X196000001Y-77705078D01*
X196387287Y-77684780D01*
X196770323Y-77624113D01*
X196770330Y-77624112D01*
X197144936Y-77523737D01*
X197506994Y-77384755D01*
X197852543Y-77208689D01*
X198177783Y-76997476D01*
X198177785Y-76997475D01*
X198435349Y-76788902D01*
X196940698Y-75294251D01*
X197042330Y-75220412D01*
X197220412Y-75042330D01*
X197294251Y-74940698D01*
X198788902Y-76435349D01*
X198997475Y-76177785D01*
X198997476Y-76177783D01*
X199208691Y-75852541D01*
X199208692Y-75852538D01*
X199265015Y-75741999D01*
X199312989Y-75691202D01*
X199380810Y-75674407D01*
X199446945Y-75696944D01*
X199490397Y-75751659D01*
X199499500Y-75798293D01*
X199499500Y-114201706D01*
X199479815Y-114268745D01*
X199427011Y-114314500D01*
X199357853Y-114324444D01*
X199294297Y-114295419D01*
X199265015Y-114258001D01*
X199208689Y-114147456D01*
X198997468Y-113822206D01*
X198788904Y-113564649D01*
X198788903Y-113564648D01*
X197294251Y-115059300D01*
X197220412Y-114957670D01*
X197042330Y-114779588D01*
X196940698Y-114705748D01*
X198435350Y-113211096D01*
X198435350Y-113211095D01*
X198177793Y-113002531D01*
X197852543Y-112791310D01*
X197506994Y-112615244D01*
X197144936Y-112476262D01*
X196770330Y-112375887D01*
X196770323Y-112375886D01*
X196387287Y-112315219D01*
X196000001Y-112294922D01*
X195999999Y-112294922D01*
X195612712Y-112315219D01*
X195229676Y-112375886D01*
X195229669Y-112375887D01*
X194855063Y-112476262D01*
X194493005Y-112615244D01*
X194147456Y-112791310D01*
X193822206Y-113002531D01*
X193564648Y-113211095D01*
X193564648Y-113211096D01*
X195059301Y-114705748D01*
X194957670Y-114779588D01*
X194779588Y-114957670D01*
X194705748Y-115059300D01*
X193211096Y-113564648D01*
X193211095Y-113564648D01*
X193002531Y-113822206D01*
X192791310Y-114147456D01*
X192615244Y-114493005D01*
X192476262Y-114855063D01*
X192375887Y-115229669D01*
X192375886Y-115229676D01*
X192315219Y-115612712D01*
X192294922Y-115999999D01*
X192294922Y-116000000D01*
X192315219Y-116387287D01*
X192375886Y-116770323D01*
X192375887Y-116770330D01*
X192476262Y-117144936D01*
X192615244Y-117506994D01*
X192791310Y-117852543D01*
X193002531Y-118177793D01*
X193211095Y-118435350D01*
X193211096Y-118435350D01*
X194705748Y-116940698D01*
X194779588Y-117042330D01*
X194957670Y-117220412D01*
X195059300Y-117294251D01*
X193564648Y-118788903D01*
X193564649Y-118788904D01*
X193822206Y-118997468D01*
X194147456Y-119208689D01*
X194258001Y-119265015D01*
X194308797Y-119312990D01*
X194325592Y-119380811D01*
X194303055Y-119446945D01*
X194248340Y-119490397D01*
X194201706Y-119499500D01*
X105798294Y-119499500D01*
X105731255Y-119479815D01*
X105685500Y-119427011D01*
X105675556Y-119357853D01*
X105704581Y-119294297D01*
X105741999Y-119265015D01*
X105852543Y-119208689D01*
X106177783Y-118997476D01*
X106177785Y-118997475D01*
X106435349Y-118788902D01*
X104940698Y-117294251D01*
X105042330Y-117220412D01*
X105220412Y-117042330D01*
X105294251Y-116940698D01*
X106788902Y-118435349D01*
X106997475Y-118177785D01*
X106997476Y-118177783D01*
X107177872Y-117899997D01*
X113644751Y-117899997D01*
X113644751Y-117900002D01*
X113663685Y-118068056D01*
X113719545Y-118227694D01*
X113719547Y-118227697D01*
X113809518Y-118370884D01*
X113809523Y-118370890D01*
X113929109Y-118490476D01*
X113929115Y-118490481D01*
X114072302Y-118580452D01*
X114072305Y-118580454D01*
X114072309Y-118580455D01*
X114072310Y-118580456D01*
X114144913Y-118605860D01*
X114231943Y-118636314D01*
X114399997Y-118655249D01*
X114400000Y-118655249D01*
X114400003Y-118655249D01*
X114568056Y-118636314D01*
X114568059Y-118636313D01*
X114727690Y-118580456D01*
X114727692Y-118580454D01*
X114727694Y-118580454D01*
X114727697Y-118580452D01*
X114870884Y-118490481D01*
X114870885Y-118490480D01*
X114870890Y-118490477D01*
X114990477Y-118370890D01*
X115012203Y-118336314D01*
X115080452Y-118227697D01*
X115080454Y-118227694D01*
X115080454Y-118227692D01*
X115080456Y-118227690D01*
X115136313Y-118068059D01*
X115136313Y-118068058D01*
X115136314Y-118068056D01*
X115155249Y-117900002D01*
X115155249Y-117899997D01*
X115136314Y-117731943D01*
X115105860Y-117644913D01*
X115080456Y-117572310D01*
X115080455Y-117572309D01*
X115080454Y-117572305D01*
X115080452Y-117572302D01*
X114990481Y-117429115D01*
X114990476Y-117429109D01*
X114870890Y-117309523D01*
X114870884Y-117309518D01*
X114727697Y-117219547D01*
X114727694Y-117219545D01*
X114568056Y-117163685D01*
X114400003Y-117144751D01*
X114399997Y-117144751D01*
X114231943Y-117163685D01*
X114072305Y-117219545D01*
X114072302Y-117219547D01*
X113929115Y-117309518D01*
X113929109Y-117309523D01*
X113809523Y-117429109D01*
X113809518Y-117429115D01*
X113719547Y-117572302D01*
X113719545Y-117572305D01*
X113663685Y-117731943D01*
X113644751Y-117899997D01*
X107177872Y-117899997D01*
X107208689Y-117852543D01*
X107384755Y-117506994D01*
X107523737Y-117144936D01*
X107624112Y-116770330D01*
X107624113Y-116770323D01*
X107684780Y-116387287D01*
X107705078Y-116000000D01*
X107705078Y-115999999D01*
X107684780Y-115612712D01*
X107624113Y-115229676D01*
X107624112Y-115229669D01*
X107523737Y-114855063D01*
X107384755Y-114493005D01*
X107208689Y-114147456D01*
X106997468Y-113822206D01*
X106788904Y-113564649D01*
X106788903Y-113564648D01*
X105294251Y-115059300D01*
X105220412Y-114957670D01*
X105042330Y-114779588D01*
X104940698Y-114705748D01*
X106435350Y-113211096D01*
X106435350Y-113211095D01*
X106177793Y-113002531D01*
X105852543Y-112791310D01*
X105506994Y-112615244D01*
X105144936Y-112476262D01*
X104770330Y-112375887D01*
X104770323Y-112375886D01*
X104387287Y-112315219D01*
X104000001Y-112294922D01*
X103999999Y-112294922D01*
X103612712Y-112315219D01*
X103229676Y-112375886D01*
X103229669Y-112375887D01*
X102855063Y-112476262D01*
X102493005Y-112615244D01*
X102147456Y-112791310D01*
X101822206Y-113002531D01*
X101564648Y-113211095D01*
X101564648Y-113211096D01*
X103059301Y-114705748D01*
X102957670Y-114779588D01*
X102779588Y-114957670D01*
X102705748Y-115059301D01*
X101211096Y-113564648D01*
X101211095Y-113564648D01*
X101002531Y-113822206D01*
X100791310Y-114147456D01*
X100734985Y-114258001D01*
X100687010Y-114308797D01*
X100619189Y-114325592D01*
X100553055Y-114303055D01*
X100509603Y-114248340D01*
X100500500Y-114201706D01*
X100500500Y-111799997D01*
X109444751Y-111799997D01*
X109444751Y-111800002D01*
X109463685Y-111968056D01*
X109519545Y-112127694D01*
X109519547Y-112127697D01*
X109609518Y-112270884D01*
X109609523Y-112270890D01*
X109729109Y-112390476D01*
X109729115Y-112390481D01*
X109872302Y-112480452D01*
X109872305Y-112480454D01*
X109872309Y-112480455D01*
X109872310Y-112480456D01*
X109888154Y-112486000D01*
X110031943Y-112536314D01*
X110199997Y-112555249D01*
X110200000Y-112555249D01*
X110200003Y-112555249D01*
X110368056Y-112536314D01*
X110380182Y-112532071D01*
X110527690Y-112480456D01*
X110527692Y-112480454D01*
X110527694Y-112480454D01*
X110527697Y-112480452D01*
X110670884Y-112390481D01*
X110670885Y-112390480D01*
X110670890Y-112390477D01*
X110790477Y-112270890D01*
X110790481Y-112270884D01*
X110880452Y-112127697D01*
X110880454Y-112127694D01*
X110880454Y-112127692D01*
X110880456Y-112127690D01*
X110936313Y-111968059D01*
X110936313Y-111968058D01*
X110936314Y-111968056D01*
X110955249Y-111800002D01*
X110955249Y-111799997D01*
X110936314Y-111631943D01*
X110880454Y-111472305D01*
X110880452Y-111472302D01*
X110790481Y-111329115D01*
X110790476Y-111329109D01*
X110670890Y-111209523D01*
X110670884Y-111209518D01*
X110527697Y-111119547D01*
X110527694Y-111119545D01*
X110368056Y-111063685D01*
X110200003Y-111044751D01*
X110199997Y-111044751D01*
X110031943Y-111063685D01*
X109872305Y-111119545D01*
X109872302Y-111119547D01*
X109729115Y-111209518D01*
X109729109Y-111209523D01*
X109609523Y-111329109D01*
X109609518Y-111329115D01*
X109519547Y-111472302D01*
X109519545Y-111472305D01*
X109463685Y-111631943D01*
X109444751Y-111799997D01*
X100500500Y-111799997D01*
X100500500Y-109946228D01*
X101449500Y-109946228D01*
X101449500Y-110113771D01*
X101482182Y-110278074D01*
X101482184Y-110278082D01*
X101546295Y-110432860D01*
X101639373Y-110572162D01*
X101757837Y-110690626D01*
X101850494Y-110752537D01*
X101897137Y-110783703D01*
X102051918Y-110847816D01*
X102216228Y-110880499D01*
X102216232Y-110880500D01*
X102216233Y-110880500D01*
X102983768Y-110880500D01*
X102983769Y-110880499D01*
X103148082Y-110847816D01*
X103302863Y-110783703D01*
X103442162Y-110690626D01*
X103560626Y-110572162D01*
X103653703Y-110432863D01*
X103717816Y-110278082D01*
X103750500Y-110113767D01*
X103750500Y-109946233D01*
X103717816Y-109781918D01*
X103660681Y-109643984D01*
X103653704Y-109627139D01*
X103560626Y-109487837D01*
X103442162Y-109369373D01*
X103302860Y-109276295D01*
X103148082Y-109212184D01*
X103148074Y-109212182D01*
X102983771Y-109179500D01*
X102983767Y-109179500D01*
X102216233Y-109179500D01*
X102216228Y-109179500D01*
X102051925Y-109212182D01*
X102051917Y-109212184D01*
X101897139Y-109276295D01*
X101757837Y-109369373D01*
X101639373Y-109487837D01*
X101546295Y-109627139D01*
X101482184Y-109781917D01*
X101482182Y-109781925D01*
X101449500Y-109946228D01*
X100500500Y-109946228D01*
X100500500Y-107500000D01*
X104594355Y-107500000D01*
X104614859Y-107668869D01*
X104614860Y-107668874D01*
X104675182Y-107827931D01*
X104699862Y-107863685D01*
X104771817Y-107967929D01*
X104877505Y-108061560D01*
X104899150Y-108080736D01*
X105040296Y-108154815D01*
X105049775Y-108159790D01*
X105214944Y-108200500D01*
X105385056Y-108200500D01*
X105550225Y-108159790D01*
X105586381Y-108140813D01*
X105654887Y-108127088D01*
X105719940Y-108152579D01*
X105760885Y-108209195D01*
X105764722Y-108278959D01*
X105751393Y-108312610D01*
X105713720Y-108377861D01*
X105713720Y-108377862D01*
X105713720Y-108377863D01*
X105713719Y-108377865D01*
X105674500Y-108524234D01*
X105674500Y-108675765D01*
X105713719Y-108822136D01*
X105737847Y-108863926D01*
X105789485Y-108953365D01*
X105789487Y-108953367D01*
X105897636Y-109061516D01*
X105931121Y-109122839D01*
X105926137Y-109192531D01*
X105884265Y-109248464D01*
X105857408Y-109263758D01*
X105827139Y-109276295D01*
X105687837Y-109369373D01*
X105569373Y-109487837D01*
X105476295Y-109627139D01*
X105412184Y-109781917D01*
X105412182Y-109781925D01*
X105379500Y-109946228D01*
X105379500Y-110113771D01*
X105412182Y-110278074D01*
X105412184Y-110278082D01*
X105476295Y-110432860D01*
X105569373Y-110572162D01*
X105687837Y-110690626D01*
X105780494Y-110752537D01*
X105827137Y-110783703D01*
X105981918Y-110847816D01*
X106146228Y-110880499D01*
X106146232Y-110880500D01*
X106146233Y-110880500D01*
X107413768Y-110880500D01*
X107413769Y-110880499D01*
X107578082Y-110847816D01*
X107732863Y-110783703D01*
X107872162Y-110690626D01*
X107990626Y-110572162D01*
X108083703Y-110432863D01*
X108147816Y-110278082D01*
X108180500Y-110113767D01*
X108180500Y-109946233D01*
X108147816Y-109781918D01*
X108090681Y-109643984D01*
X108083704Y-109627139D01*
X107990626Y-109487837D01*
X107872162Y-109369373D01*
X107732860Y-109276295D01*
X107578082Y-109212184D01*
X107578074Y-109212182D01*
X107413771Y-109179500D01*
X107413767Y-109179500D01*
X106783742Y-109179500D01*
X106716703Y-109159815D01*
X106670948Y-109107011D01*
X106661004Y-109037853D01*
X106690029Y-108974297D01*
X106696061Y-108967819D01*
X106702617Y-108961263D01*
X106710515Y-108953365D01*
X106786281Y-108822135D01*
X106825500Y-108675766D01*
X106825500Y-108599997D01*
X108844751Y-108599997D01*
X108844751Y-108600002D01*
X108863685Y-108768056D01*
X108919545Y-108927694D01*
X108919547Y-108927697D01*
X109009518Y-109070884D01*
X109009523Y-109070890D01*
X109129109Y-109190476D01*
X109129115Y-109190481D01*
X109272302Y-109280452D01*
X109272305Y-109280454D01*
X109272309Y-109280455D01*
X109272310Y-109280456D01*
X109329593Y-109300500D01*
X109431943Y-109336314D01*
X109599997Y-109355249D01*
X109600000Y-109355249D01*
X109600003Y-109355249D01*
X109768056Y-109336314D01*
X109768059Y-109336313D01*
X109927690Y-109280456D01*
X109927692Y-109280454D01*
X109927694Y-109280454D01*
X109927697Y-109280452D01*
X110070884Y-109190481D01*
X110070885Y-109190480D01*
X110070890Y-109190477D01*
X110190477Y-109070890D01*
X110221647Y-109021284D01*
X110235021Y-109000000D01*
X115194355Y-109000000D01*
X115214859Y-109168869D01*
X115214860Y-109168874D01*
X115275182Y-109327931D01*
X115337475Y-109418177D01*
X115371817Y-109467929D01*
X115477505Y-109561560D01*
X115499150Y-109580736D01*
X115649773Y-109659789D01*
X115649775Y-109659790D01*
X115814944Y-109700500D01*
X115985056Y-109700500D01*
X116150225Y-109659790D01*
X116229692Y-109618081D01*
X116300849Y-109580736D01*
X116300850Y-109580734D01*
X116300852Y-109580734D01*
X116428183Y-109467929D01*
X116524818Y-109327930D01*
X116585140Y-109168872D01*
X116605645Y-109000000D01*
X116585140Y-108831128D01*
X116581729Y-108822135D01*
X116532897Y-108693374D01*
X116524818Y-108672070D01*
X116428183Y-108532071D01*
X116320094Y-108436313D01*
X116300849Y-108419263D01*
X116150226Y-108340210D01*
X115985056Y-108299500D01*
X115814944Y-108299500D01*
X115649773Y-108340210D01*
X115499150Y-108419263D01*
X115371816Y-108532072D01*
X115275182Y-108672068D01*
X115214860Y-108831125D01*
X115214859Y-108831130D01*
X115194355Y-109000000D01*
X110235021Y-109000000D01*
X110280452Y-108927697D01*
X110280454Y-108927694D01*
X110280454Y-108927692D01*
X110280456Y-108927690D01*
X110336313Y-108768059D01*
X110336313Y-108768058D01*
X110336314Y-108768056D01*
X110355249Y-108600002D01*
X110355249Y-108599997D01*
X110336314Y-108431943D01*
X110299500Y-108326734D01*
X110280456Y-108272310D01*
X110280455Y-108272309D01*
X110280454Y-108272305D01*
X110280452Y-108272302D01*
X110190481Y-108129115D01*
X110190476Y-108129109D01*
X110070890Y-108009523D01*
X110070884Y-108009518D01*
X109927697Y-107919547D01*
X109927694Y-107919545D01*
X109768056Y-107863685D01*
X109600003Y-107844751D01*
X109599997Y-107844751D01*
X109431943Y-107863685D01*
X109272305Y-107919545D01*
X109272302Y-107919547D01*
X109129115Y-108009518D01*
X109129109Y-108009523D01*
X109009523Y-108129109D01*
X109009518Y-108129115D01*
X108919547Y-108272302D01*
X108919545Y-108272305D01*
X108863685Y-108431943D01*
X108844751Y-108599997D01*
X106825500Y-108599997D01*
X106825500Y-108524234D01*
X106786281Y-108377865D01*
X106710515Y-108246635D01*
X106603365Y-108139485D01*
X106537750Y-108101602D01*
X106472136Y-108063719D01*
X106398950Y-108044109D01*
X106325766Y-108024500D01*
X106174234Y-108024500D01*
X106027420Y-108063838D01*
X105957570Y-108062175D01*
X105899708Y-108023012D01*
X105872204Y-107958783D01*
X105883791Y-107889881D01*
X105893269Y-107873635D01*
X105924818Y-107827930D01*
X105985140Y-107668872D01*
X106005645Y-107500000D01*
X105985140Y-107331128D01*
X105924818Y-107172070D01*
X105828183Y-107032071D01*
X105700852Y-106919266D01*
X105700849Y-106919263D01*
X105550226Y-106840210D01*
X105385056Y-106799500D01*
X105214944Y-106799500D01*
X105049773Y-106840210D01*
X104899150Y-106919263D01*
X104771816Y-107032072D01*
X104675182Y-107172068D01*
X104614860Y-107331125D01*
X104614859Y-107331130D01*
X104594355Y-107500000D01*
X100500500Y-107500000D01*
X100500500Y-105800000D01*
X104594355Y-105800000D01*
X104614859Y-105968869D01*
X104614860Y-105968874D01*
X104675182Y-106127931D01*
X104700242Y-106164236D01*
X104771817Y-106267929D01*
X104877505Y-106361560D01*
X104899150Y-106380736D01*
X105049773Y-106459789D01*
X105049775Y-106459790D01*
X105214944Y-106500500D01*
X105385056Y-106500500D01*
X105550225Y-106459790D01*
X105629692Y-106418081D01*
X105700849Y-106380736D01*
X105700850Y-106380734D01*
X105700852Y-106380734D01*
X105828183Y-106267929D01*
X105924818Y-106127930D01*
X105985140Y-105968872D01*
X106005645Y-105800000D01*
X105985140Y-105631128D01*
X105973524Y-105600500D01*
X105942716Y-105519263D01*
X105924818Y-105472070D01*
X105924003Y-105470890D01*
X105853475Y-105368713D01*
X105828183Y-105332071D01*
X105700852Y-105219266D01*
X105700849Y-105219263D01*
X105550226Y-105140210D01*
X105385056Y-105099500D01*
X105214944Y-105099500D01*
X105049773Y-105140210D01*
X104899150Y-105219263D01*
X104771816Y-105332072D01*
X104675182Y-105472068D01*
X104614860Y-105631125D01*
X104614859Y-105631130D01*
X104594355Y-105800000D01*
X100500500Y-105800000D01*
X100500500Y-101306228D01*
X101449500Y-101306228D01*
X101449500Y-101473771D01*
X101482182Y-101638074D01*
X101482184Y-101638082D01*
X101546295Y-101792860D01*
X101639373Y-101932162D01*
X101757837Y-102050626D01*
X101850494Y-102112537D01*
X101897137Y-102143703D01*
X102051918Y-102207816D01*
X102216228Y-102240499D01*
X102216232Y-102240500D01*
X102216233Y-102240500D01*
X102983768Y-102240500D01*
X102983769Y-102240499D01*
X103148082Y-102207816D01*
X103302863Y-102143703D01*
X103442162Y-102050626D01*
X103560626Y-101932162D01*
X103653703Y-101792863D01*
X103717816Y-101638082D01*
X103750500Y-101473767D01*
X103750500Y-101306233D01*
X103750499Y-101306228D01*
X105379500Y-101306228D01*
X105379500Y-101473771D01*
X105412182Y-101638074D01*
X105412184Y-101638082D01*
X105476295Y-101792860D01*
X105569373Y-101932162D01*
X105687837Y-102050626D01*
X105780494Y-102112537D01*
X105827137Y-102143703D01*
X105857406Y-102156241D01*
X105911810Y-102200080D01*
X105933876Y-102266374D01*
X105916598Y-102334073D01*
X105897637Y-102358483D01*
X105789485Y-102466635D01*
X105713719Y-102597863D01*
X105674500Y-102744234D01*
X105674500Y-102895766D01*
X105689166Y-102950500D01*
X105713719Y-103042136D01*
X105746839Y-103099500D01*
X105789485Y-103173365D01*
X105896635Y-103280515D01*
X106027865Y-103356281D01*
X106174234Y-103395500D01*
X106174236Y-103395500D01*
X106325764Y-103395500D01*
X106325766Y-103395500D01*
X106472135Y-103356281D01*
X106603365Y-103280515D01*
X106710515Y-103173365D01*
X106786281Y-103042135D01*
X106825500Y-102895766D01*
X106825500Y-102744234D01*
X106786281Y-102597865D01*
X106710515Y-102466635D01*
X106696061Y-102452181D01*
X106662576Y-102390858D01*
X106667560Y-102321166D01*
X106709432Y-102265233D01*
X106774896Y-102240816D01*
X106783742Y-102240500D01*
X107413768Y-102240500D01*
X107413769Y-102240499D01*
X107578082Y-102207816D01*
X107732863Y-102143703D01*
X107872162Y-102050626D01*
X107990626Y-101932162D01*
X108083703Y-101792863D01*
X108147816Y-101638082D01*
X108180500Y-101473767D01*
X108180500Y-101306233D01*
X108147816Y-101141918D01*
X108130452Y-101099997D01*
X109444751Y-101099997D01*
X109444751Y-101100002D01*
X109463685Y-101268056D01*
X109519545Y-101427694D01*
X109519547Y-101427697D01*
X109609518Y-101570884D01*
X109609523Y-101570890D01*
X109729109Y-101690476D01*
X109729115Y-101690481D01*
X109872302Y-101780452D01*
X109872305Y-101780454D01*
X109872309Y-101780455D01*
X109872310Y-101780456D01*
X109944913Y-101805860D01*
X110031943Y-101836314D01*
X110199997Y-101855249D01*
X110200000Y-101855249D01*
X110200003Y-101855249D01*
X110368056Y-101836314D01*
X110368059Y-101836313D01*
X110527690Y-101780456D01*
X110527692Y-101780454D01*
X110527694Y-101780454D01*
X110527697Y-101780452D01*
X110670884Y-101690481D01*
X110670885Y-101690480D01*
X110670890Y-101690477D01*
X110790477Y-101570890D01*
X110790481Y-101570884D01*
X110880452Y-101427697D01*
X110880454Y-101427694D01*
X110880454Y-101427692D01*
X110880456Y-101427690D01*
X110936313Y-101268059D01*
X110936313Y-101268058D01*
X110936314Y-101268056D01*
X110955249Y-101100002D01*
X110955249Y-101099997D01*
X110936314Y-100931943D01*
X110905860Y-100844913D01*
X110880456Y-100772310D01*
X110880455Y-100772309D01*
X110880454Y-100772305D01*
X110880452Y-100772302D01*
X110790481Y-100629115D01*
X110790476Y-100629109D01*
X110670890Y-100509523D01*
X110670884Y-100509518D01*
X110527697Y-100419547D01*
X110527694Y-100419545D01*
X110368056Y-100363685D01*
X110200003Y-100344751D01*
X110199997Y-100344751D01*
X110031943Y-100363685D01*
X109872305Y-100419545D01*
X109872302Y-100419547D01*
X109729115Y-100509518D01*
X109729109Y-100509523D01*
X109609523Y-100629109D01*
X109609518Y-100629115D01*
X109519547Y-100772302D01*
X109519545Y-100772305D01*
X109463685Y-100931943D01*
X109444751Y-101099997D01*
X108130452Y-101099997D01*
X108083703Y-100987137D01*
X108027393Y-100902863D01*
X107990626Y-100847837D01*
X107872162Y-100729373D01*
X107732860Y-100636295D01*
X107578082Y-100572184D01*
X107578074Y-100572182D01*
X107413771Y-100539500D01*
X107413767Y-100539500D01*
X106146233Y-100539500D01*
X106146228Y-100539500D01*
X105981925Y-100572182D01*
X105981917Y-100572184D01*
X105827139Y-100636295D01*
X105687837Y-100729373D01*
X105569373Y-100847837D01*
X105476295Y-100987139D01*
X105412184Y-101141917D01*
X105412182Y-101141925D01*
X105379500Y-101306228D01*
X103750499Y-101306228D01*
X103717816Y-101141918D01*
X103653703Y-100987137D01*
X103597393Y-100902863D01*
X103560626Y-100847837D01*
X103442162Y-100729373D01*
X103302860Y-100636295D01*
X103148082Y-100572184D01*
X103148074Y-100572182D01*
X102983771Y-100539500D01*
X102983767Y-100539500D01*
X102216233Y-100539500D01*
X102216228Y-100539500D01*
X102051925Y-100572182D01*
X102051917Y-100572184D01*
X101897139Y-100636295D01*
X101757837Y-100729373D01*
X101639373Y-100847837D01*
X101546295Y-100987139D01*
X101482184Y-101141917D01*
X101482182Y-101141925D01*
X101449500Y-101306228D01*
X100500500Y-101306228D01*
X100500500Y-96668995D01*
X102199499Y-96668995D01*
X102226418Y-96804322D01*
X102226421Y-96804332D01*
X102279221Y-96931804D01*
X102279228Y-96931817D01*
X102355885Y-97046541D01*
X102355888Y-97046545D01*
X102453454Y-97144111D01*
X102453458Y-97144114D01*
X102568182Y-97220771D01*
X102568195Y-97220778D01*
X102695667Y-97273578D01*
X102695672Y-97273580D01*
X102695676Y-97273580D01*
X102695677Y-97273581D01*
X102831004Y-97300500D01*
X102831007Y-97300500D01*
X102968995Y-97300500D01*
X103060041Y-97282389D01*
X103104328Y-97273580D01*
X103231811Y-97220775D01*
X103346542Y-97144114D01*
X103444114Y-97046542D01*
X103520775Y-96931811D01*
X103573580Y-96804328D01*
X103600500Y-96668993D01*
X103600500Y-96531007D01*
X103600500Y-96531004D01*
X103573581Y-96395677D01*
X103573580Y-96395676D01*
X103573580Y-96395672D01*
X103573578Y-96395667D01*
X103520778Y-96268195D01*
X103520771Y-96268182D01*
X103444114Y-96153458D01*
X103444111Y-96153454D01*
X103346545Y-96055888D01*
X103346541Y-96055885D01*
X103231817Y-95979228D01*
X103231804Y-95979221D01*
X103104332Y-95926421D01*
X103104322Y-95926418D01*
X102968995Y-95899500D01*
X102968993Y-95899500D01*
X102831007Y-95899500D01*
X102831005Y-95899500D01*
X102695677Y-95926418D01*
X102695667Y-95926421D01*
X102568195Y-95979221D01*
X102568182Y-95979228D01*
X102453458Y-96055885D01*
X102453454Y-96055888D01*
X102355888Y-96153454D01*
X102355885Y-96153458D01*
X102279228Y-96268182D01*
X102279221Y-96268195D01*
X102226421Y-96395667D01*
X102226418Y-96395677D01*
X102199500Y-96531004D01*
X102199500Y-96531007D01*
X102199500Y-96668993D01*
X102199500Y-96668995D01*
X102199499Y-96668995D01*
X100500500Y-96668995D01*
X100500500Y-93668995D01*
X102199499Y-93668995D01*
X102226418Y-93804322D01*
X102226421Y-93804332D01*
X102279221Y-93931804D01*
X102279228Y-93931817D01*
X102355885Y-94046541D01*
X102355888Y-94046545D01*
X102453454Y-94144111D01*
X102453458Y-94144114D01*
X102568182Y-94220771D01*
X102568195Y-94220778D01*
X102695667Y-94273578D01*
X102695672Y-94273580D01*
X102695676Y-94273580D01*
X102695677Y-94273581D01*
X102831004Y-94300500D01*
X102831007Y-94300500D01*
X102968995Y-94300500D01*
X103060041Y-94282389D01*
X103104328Y-94273580D01*
X103211676Y-94229115D01*
X103231804Y-94220778D01*
X103231804Y-94220777D01*
X103231811Y-94220775D01*
X103346542Y-94144114D01*
X103444114Y-94046542D01*
X103520775Y-93931811D01*
X103573580Y-93804328D01*
X103600500Y-93668993D01*
X103600500Y-93531007D01*
X103600500Y-93531004D01*
X103573581Y-93395677D01*
X103573580Y-93395676D01*
X103573580Y-93395672D01*
X103567393Y-93380736D01*
X103520778Y-93268195D01*
X103520771Y-93268182D01*
X103444114Y-93153458D01*
X103444111Y-93153454D01*
X103346545Y-93055888D01*
X103346541Y-93055885D01*
X103231817Y-92979228D01*
X103231804Y-92979221D01*
X103104332Y-92926421D01*
X103104322Y-92926418D01*
X102968995Y-92899500D01*
X102968993Y-92899500D01*
X102831007Y-92899500D01*
X102831005Y-92899500D01*
X102695677Y-92926418D01*
X102695667Y-92926421D01*
X102568195Y-92979221D01*
X102568182Y-92979228D01*
X102453458Y-93055885D01*
X102453454Y-93055888D01*
X102355888Y-93153454D01*
X102355885Y-93153458D01*
X102279228Y-93268182D01*
X102279221Y-93268195D01*
X102226421Y-93395667D01*
X102226418Y-93395677D01*
X102199500Y-93531004D01*
X102199500Y-93531007D01*
X102199500Y-93668993D01*
X102199500Y-93668995D01*
X102199499Y-93668995D01*
X100500500Y-93668995D01*
X100500500Y-84199999D01*
X106019939Y-84199999D01*
X106019939Y-84200000D01*
X106040145Y-84430958D01*
X106040147Y-84430968D01*
X106100148Y-84654900D01*
X106100152Y-84654909D01*
X106198133Y-84865030D01*
X106253023Y-84943422D01*
X106826212Y-84370233D01*
X106837482Y-84412292D01*
X106909890Y-84537708D01*
X107012292Y-84640110D01*
X107137708Y-84712518D01*
X107179765Y-84723787D01*
X106606576Y-85296975D01*
X106680054Y-85348425D01*
X106723679Y-85403002D01*
X106730871Y-85472501D01*
X106699349Y-85534855D01*
X106680052Y-85551576D01*
X106606576Y-85603022D01*
X107179766Y-86176212D01*
X107137708Y-86187482D01*
X107012292Y-86259890D01*
X106909890Y-86362292D01*
X106837482Y-86487708D01*
X106826212Y-86529766D01*
X106253022Y-85956576D01*
X106198134Y-86034967D01*
X106100152Y-86245090D01*
X106100148Y-86245099D01*
X106040147Y-86469031D01*
X106040145Y-86469041D01*
X106019939Y-86699999D01*
X106019939Y-86700000D01*
X106040145Y-86930958D01*
X106040147Y-86930968D01*
X106100148Y-87154900D01*
X106100152Y-87154909D01*
X106198133Y-87365030D01*
X106253023Y-87443422D01*
X106826212Y-86870233D01*
X106837482Y-86912292D01*
X106909890Y-87037708D01*
X107012292Y-87140110D01*
X107137708Y-87212518D01*
X107179765Y-87223787D01*
X106606576Y-87796975D01*
X106684969Y-87851867D01*
X106895090Y-87949847D01*
X106895099Y-87949851D01*
X107119031Y-88009852D01*
X107119041Y-88009854D01*
X107349999Y-88030061D01*
X107350001Y-88030061D01*
X107580958Y-88009854D01*
X107580968Y-88009852D01*
X107804900Y-87949851D01*
X107804909Y-87949847D01*
X108015030Y-87851867D01*
X108015034Y-87851865D01*
X108093422Y-87796976D01*
X108093422Y-87796975D01*
X107520235Y-87223787D01*
X107562292Y-87212518D01*
X107687708Y-87140110D01*
X107790110Y-87037708D01*
X107862518Y-86912292D01*
X107873787Y-86870234D01*
X108446975Y-87443422D01*
X108446976Y-87443422D01*
X108501865Y-87365034D01*
X108501867Y-87365030D01*
X108599847Y-87154909D01*
X108599851Y-87154900D01*
X108659852Y-86930968D01*
X108659854Y-86930958D01*
X108680061Y-86700000D01*
X108680061Y-86699999D01*
X108659854Y-86469041D01*
X108659852Y-86469031D01*
X108599851Y-86245099D01*
X108599847Y-86245090D01*
X108501867Y-86034971D01*
X108501866Y-86034969D01*
X108446975Y-85956577D01*
X108446975Y-85956576D01*
X107873787Y-86529764D01*
X107862518Y-86487708D01*
X107790110Y-86362292D01*
X107687708Y-86259890D01*
X107562292Y-86187482D01*
X107520234Y-86176212D01*
X108093422Y-85603023D01*
X108093422Y-85603022D01*
X108019946Y-85551573D01*
X107976321Y-85496996D01*
X107969129Y-85427498D01*
X108000652Y-85365143D01*
X108019946Y-85348424D01*
X108093422Y-85296975D01*
X107520235Y-84723787D01*
X107562292Y-84712518D01*
X107687708Y-84640110D01*
X107790110Y-84537708D01*
X107862518Y-84412292D01*
X107873787Y-84370234D01*
X108446975Y-84943422D01*
X108446976Y-84943422D01*
X108501865Y-84865034D01*
X108501867Y-84865030D01*
X108599847Y-84654909D01*
X108599851Y-84654900D01*
X108659852Y-84430968D01*
X108659854Y-84430958D01*
X108680061Y-84200000D01*
X108680061Y-84199999D01*
X108659854Y-83969041D01*
X108659852Y-83969031D01*
X108599851Y-83745099D01*
X108599847Y-83745090D01*
X108501867Y-83534971D01*
X108501866Y-83534969D01*
X108446975Y-83456577D01*
X108446975Y-83456576D01*
X107873787Y-84029764D01*
X107862518Y-83987708D01*
X107790110Y-83862292D01*
X107687708Y-83759890D01*
X107562292Y-83687482D01*
X107520234Y-83676212D01*
X108093422Y-83103023D01*
X108090640Y-83101075D01*
X108047015Y-83046498D01*
X108039822Y-82977000D01*
X108071344Y-82914645D01*
X108131574Y-82879231D01*
X108161763Y-82875500D01*
X108208261Y-82875500D01*
X108230971Y-82872191D01*
X108276393Y-82865573D01*
X108381483Y-82814198D01*
X108464198Y-82731483D01*
X108515573Y-82626393D01*
X108525500Y-82558260D01*
X108525500Y-80841740D01*
X108515573Y-80773607D01*
X108464198Y-80668517D01*
X108464196Y-80668515D01*
X108464196Y-80668514D01*
X108381485Y-80585803D01*
X108276391Y-80534426D01*
X108208261Y-80524500D01*
X108208260Y-80524500D01*
X106491740Y-80524500D01*
X106491739Y-80524500D01*
X106423608Y-80534426D01*
X106318514Y-80585803D01*
X106235803Y-80668514D01*
X106184426Y-80773608D01*
X106174500Y-80841739D01*
X106174500Y-82558260D01*
X106184426Y-82626391D01*
X106184427Y-82626393D01*
X106234331Y-82728475D01*
X106235803Y-82731485D01*
X106318514Y-82814196D01*
X106318515Y-82814196D01*
X106318517Y-82814198D01*
X106423607Y-82865573D01*
X106457673Y-82870536D01*
X106491739Y-82875500D01*
X106538235Y-82875500D01*
X106605274Y-82895185D01*
X106651029Y-82947989D01*
X106660973Y-83017147D01*
X106631948Y-83080703D01*
X106609358Y-83101075D01*
X106606577Y-83103022D01*
X106606576Y-83103022D01*
X107179766Y-83676212D01*
X107137708Y-83687482D01*
X107012292Y-83759890D01*
X106909890Y-83862292D01*
X106837482Y-83987708D01*
X106826212Y-84029766D01*
X106253022Y-83456576D01*
X106198134Y-83534967D01*
X106100152Y-83745090D01*
X106100148Y-83745099D01*
X106040147Y-83969031D01*
X106040145Y-83969041D01*
X106019939Y-84199999D01*
X100500500Y-84199999D01*
X100500500Y-75798293D01*
X100520185Y-75731254D01*
X100572989Y-75685499D01*
X100642147Y-75675555D01*
X100705703Y-75704580D01*
X100734985Y-75741999D01*
X100791307Y-75852538D01*
X100791308Y-75852541D01*
X101002531Y-76177793D01*
X101211095Y-76435350D01*
X101211096Y-76435350D01*
X102705747Y-74940698D01*
X102779588Y-75042330D01*
X102957670Y-75220412D01*
X103059300Y-75294251D01*
X101564648Y-76788903D01*
X101564649Y-76788904D01*
X101822206Y-76997468D01*
X102147456Y-77208689D01*
X102493005Y-77384755D01*
X102855063Y-77523737D01*
X103229669Y-77624112D01*
X103229676Y-77624113D01*
X103612712Y-77684780D01*
X103999999Y-77705078D01*
X104000001Y-77705078D01*
X104387287Y-77684780D01*
X104770323Y-77624113D01*
X104770330Y-77624112D01*
X105144936Y-77523737D01*
X105506994Y-77384755D01*
X105852543Y-77208689D01*
X106177783Y-76997476D01*
X106177785Y-76997475D01*
X106435349Y-76788902D01*
X104940698Y-75294251D01*
X105042330Y-75220412D01*
X105220412Y-75042330D01*
X105294251Y-74940698D01*
X106788902Y-76435349D01*
X106997475Y-76177785D01*
X106997476Y-76177783D01*
X107208689Y-75852543D01*
X107384755Y-75506994D01*
X107523737Y-75144936D01*
X107624112Y-74770330D01*
X107624113Y-74770323D01*
X107684780Y-74387287D01*
X107687050Y-74343982D01*
X109674500Y-74343982D01*
X109674500Y-93043981D01*
X109674500Y-93043982D01*
X109674500Y-93156018D01*
X109702161Y-93259249D01*
X109703497Y-93264236D01*
X109703498Y-93264239D01*
X109705775Y-93268182D01*
X109759515Y-93361263D01*
X113738737Y-97340485D01*
X113835763Y-97396503D01*
X113943982Y-97425500D01*
X114056018Y-97425500D01*
X115772390Y-97425500D01*
X115839429Y-97445185D01*
X115860071Y-97461819D01*
X116538181Y-98139929D01*
X116571666Y-98201252D01*
X116574500Y-98227610D01*
X116574500Y-105943982D01*
X116574500Y-106056018D01*
X116603497Y-106164237D01*
X116659515Y-106261263D01*
X119359515Y-108961263D01*
X119438737Y-109040485D01*
X119535763Y-109096503D01*
X119643982Y-109125500D01*
X122472390Y-109125500D01*
X122539429Y-109145185D01*
X122560071Y-109161819D01*
X123238181Y-109839929D01*
X123271666Y-109901252D01*
X123274500Y-109927610D01*
X123274500Y-111036954D01*
X123254815Y-111103993D01*
X123202011Y-111149748D01*
X123132853Y-111159692D01*
X123098095Y-111149336D01*
X122963492Y-111086570D01*
X122963486Y-111086567D01*
X122750000Y-111029364D01*
X122750000Y-111926988D01*
X122692993Y-111894075D01*
X122565826Y-111860000D01*
X122434174Y-111860000D01*
X122307007Y-111894075D01*
X122250000Y-111926988D01*
X122250000Y-111029364D01*
X122249999Y-111029364D01*
X122036513Y-111086567D01*
X122036507Y-111086570D01*
X121822422Y-111186399D01*
X121822420Y-111186400D01*
X121628926Y-111321886D01*
X121628920Y-111321891D01*
X121461891Y-111488920D01*
X121461890Y-111488922D01*
X121331575Y-111675031D01*
X121276998Y-111718655D01*
X121207499Y-111725848D01*
X121145145Y-111694326D01*
X121128425Y-111675031D01*
X120998109Y-111488922D01*
X120998108Y-111488920D01*
X120831082Y-111321894D01*
X120637578Y-111186399D01*
X120423492Y-111086570D01*
X120423486Y-111086567D01*
X120210000Y-111029364D01*
X120210000Y-111926988D01*
X120152993Y-111894075D01*
X120025826Y-111860000D01*
X119894174Y-111860000D01*
X119767007Y-111894075D01*
X119710000Y-111926988D01*
X119710000Y-111029364D01*
X119709999Y-111029364D01*
X119496513Y-111086567D01*
X119496507Y-111086570D01*
X119282422Y-111186399D01*
X119282420Y-111186400D01*
X119088926Y-111321886D01*
X119088920Y-111321891D01*
X118921891Y-111488920D01*
X118921890Y-111488922D01*
X118791575Y-111675031D01*
X118736998Y-111718655D01*
X118667499Y-111725848D01*
X118605145Y-111694326D01*
X118588425Y-111675031D01*
X118458109Y-111488922D01*
X118458108Y-111488920D01*
X118291082Y-111321894D01*
X118097578Y-111186399D01*
X117883492Y-111086570D01*
X117883486Y-111086567D01*
X117670000Y-111029364D01*
X117670000Y-111926988D01*
X117612993Y-111894075D01*
X117485826Y-111860000D01*
X117354174Y-111860000D01*
X117227007Y-111894075D01*
X117170000Y-111926988D01*
X117170000Y-111029364D01*
X117169999Y-111029364D01*
X116956513Y-111086567D01*
X116956507Y-111086570D01*
X116742422Y-111186399D01*
X116742420Y-111186400D01*
X116548926Y-111321886D01*
X116548920Y-111321891D01*
X116381891Y-111488920D01*
X116381886Y-111488926D01*
X116246400Y-111682420D01*
X116246399Y-111682422D01*
X116146570Y-111896507D01*
X116146567Y-111896513D01*
X116089364Y-112109999D01*
X116089364Y-112110000D01*
X116986988Y-112110000D01*
X116954075Y-112167007D01*
X116920000Y-112294174D01*
X116920000Y-112425826D01*
X116954075Y-112552993D01*
X116986988Y-112610000D01*
X116089364Y-112610000D01*
X116146567Y-112823486D01*
X116146570Y-112823492D01*
X116246399Y-113037578D01*
X116381894Y-113231082D01*
X116548917Y-113398105D01*
X116742421Y-113533600D01*
X116879464Y-113597504D01*
X116931903Y-113643676D01*
X116951055Y-113710870D01*
X116930839Y-113777751D01*
X116886906Y-113816820D01*
X116887473Y-113817735D01*
X116693439Y-113937874D01*
X116693437Y-113937876D01*
X116529020Y-114087761D01*
X116394943Y-114265308D01*
X116394938Y-114265316D01*
X116295775Y-114464461D01*
X116295769Y-114464476D01*
X116234885Y-114678462D01*
X116234884Y-114678464D01*
X116214357Y-114899999D01*
X116214357Y-114900000D01*
X116234884Y-115121535D01*
X116234885Y-115121537D01*
X116295769Y-115335523D01*
X116295775Y-115335538D01*
X116394938Y-115534683D01*
X116394943Y-115534691D01*
X116529020Y-115712238D01*
X116693437Y-115862123D01*
X116693439Y-115862125D01*
X116882595Y-115979245D01*
X116882596Y-115979245D01*
X116882599Y-115979247D01*
X117090060Y-116059618D01*
X117308757Y-116100500D01*
X117308759Y-116100500D01*
X117531241Y-116100500D01*
X117531243Y-116100500D01*
X117749940Y-116059618D01*
X117957401Y-115979247D01*
X118146562Y-115862124D01*
X118310981Y-115712236D01*
X118445058Y-115534689D01*
X118544229Y-115335528D01*
X118570734Y-115242371D01*
X118608013Y-115183278D01*
X118671323Y-115153721D01*
X118740562Y-115163083D01*
X118793749Y-115208393D01*
X118809266Y-115242372D01*
X118835769Y-115335523D01*
X118835775Y-115335538D01*
X118934938Y-115534683D01*
X118934943Y-115534691D01*
X119069020Y-115712238D01*
X119233437Y-115862123D01*
X119233439Y-115862125D01*
X119422595Y-115979245D01*
X119422596Y-115979245D01*
X119422599Y-115979247D01*
X119630060Y-116059618D01*
X119848757Y-116100500D01*
X119848759Y-116100500D01*
X120071241Y-116100500D01*
X120071243Y-116100500D01*
X120289940Y-116059618D01*
X120497401Y-115979247D01*
X120686562Y-115862124D01*
X120850981Y-115712236D01*
X120985058Y-115534689D01*
X121084229Y-115335528D01*
X121110735Y-115242367D01*
X121148011Y-115183279D01*
X121211320Y-115153721D01*
X121280560Y-115163082D01*
X121333747Y-115208392D01*
X121349265Y-115242371D01*
X121375770Y-115335526D01*
X121375772Y-115335531D01*
X121394955Y-115374056D01*
X121401981Y-115391306D01*
X121404703Y-115399757D01*
X121404704Y-115399760D01*
X122090658Y-116727363D01*
X122100269Y-116752189D01*
X122103497Y-116764239D01*
X122103498Y-116764240D01*
X122159512Y-116861259D01*
X122159514Y-116861261D01*
X122159515Y-116861263D01*
X123538737Y-118240485D01*
X123635763Y-118296503D01*
X123743982Y-118325500D01*
X123743984Y-118325500D01*
X126756016Y-118325500D01*
X126756018Y-118325500D01*
X126864237Y-118296503D01*
X126961263Y-118240485D01*
X128151053Y-117050692D01*
X128151058Y-117050689D01*
X128161261Y-117040485D01*
X128161263Y-117040485D01*
X128240485Y-116961263D01*
X128296503Y-116864237D01*
X128325500Y-116756018D01*
X128325500Y-114739999D01*
X129314364Y-114739999D01*
X129314364Y-114740000D01*
X130211988Y-114740000D01*
X130179075Y-114797007D01*
X130145000Y-114924174D01*
X130145000Y-115055826D01*
X130179075Y-115182993D01*
X130211988Y-115240000D01*
X129314364Y-115240000D01*
X129371567Y-115453486D01*
X129371570Y-115453492D01*
X129471399Y-115667578D01*
X129606894Y-115861082D01*
X129773917Y-116028105D01*
X129967421Y-116163600D01*
X130181507Y-116263429D01*
X130181516Y-116263433D01*
X130395000Y-116320634D01*
X130395000Y-115423012D01*
X130452007Y-115455925D01*
X130579174Y-115490000D01*
X130710826Y-115490000D01*
X130837993Y-115455925D01*
X130895000Y-115423012D01*
X130895000Y-116320633D01*
X131108483Y-116263433D01*
X131108492Y-116263429D01*
X131322578Y-116163600D01*
X131516082Y-116028105D01*
X131683105Y-115861082D01*
X131813425Y-115674968D01*
X131868002Y-115631344D01*
X131937501Y-115624151D01*
X131999855Y-115655673D01*
X132016575Y-115674968D01*
X132146894Y-115861082D01*
X132313917Y-116028105D01*
X132507421Y-116163600D01*
X132721507Y-116263429D01*
X132721516Y-116263433D01*
X132935000Y-116320634D01*
X132935000Y-115423012D01*
X132992007Y-115455925D01*
X133119174Y-115490000D01*
X133250826Y-115490000D01*
X133377993Y-115455925D01*
X133435000Y-115423012D01*
X133435000Y-116320633D01*
X133648483Y-116263433D01*
X133648492Y-116263429D01*
X133862578Y-116163600D01*
X134056082Y-116028105D01*
X134223105Y-115861082D01*
X134353425Y-115674968D01*
X134408002Y-115631344D01*
X134477501Y-115624151D01*
X134539855Y-115655673D01*
X134556575Y-115674968D01*
X134686894Y-115861082D01*
X134853917Y-116028105D01*
X135047421Y-116163600D01*
X135261507Y-116263429D01*
X135261516Y-116263433D01*
X135475000Y-116320634D01*
X135475000Y-115423012D01*
X135532007Y-115455925D01*
X135659174Y-115490000D01*
X135790826Y-115490000D01*
X135917993Y-115455925D01*
X135975000Y-115423012D01*
X135975000Y-116320633D01*
X136188483Y-116263433D01*
X136188492Y-116263429D01*
X136402578Y-116163600D01*
X136596082Y-116028105D01*
X136763105Y-115861082D01*
X136898600Y-115667578D01*
X136998429Y-115453492D01*
X136998432Y-115453486D01*
X137055636Y-115240000D01*
X136158012Y-115240000D01*
X136190925Y-115182993D01*
X136225000Y-115055826D01*
X136225000Y-114924174D01*
X136190925Y-114797007D01*
X136158012Y-114740000D01*
X137055636Y-114740000D01*
X137055635Y-114739999D01*
X136998432Y-114526513D01*
X136998429Y-114526507D01*
X136898600Y-114312422D01*
X136898599Y-114312420D01*
X136763113Y-114118926D01*
X136763108Y-114118920D01*
X136596082Y-113951894D01*
X136487802Y-113876075D01*
X136444177Y-113821498D01*
X136436985Y-113751999D01*
X136468507Y-113689645D01*
X136528737Y-113654231D01*
X136558926Y-113650500D01*
X136581892Y-113650500D01*
X136585130Y-113650701D01*
X136587409Y-113650607D01*
X136592562Y-113650500D01*
X136608255Y-113650500D01*
X136608260Y-113650500D01*
X136676393Y-113640573D01*
X136704670Y-113626748D01*
X136710834Y-113624051D01*
X136710799Y-113623969D01*
X136712576Y-113623211D01*
X136732840Y-113614566D01*
X136733568Y-113614067D01*
X136749073Y-113605041D01*
X136781483Y-113589198D01*
X136798226Y-113572453D01*
X136815924Y-113557772D01*
X136829453Y-113548526D01*
X137260875Y-113134395D01*
X137322868Y-113102173D01*
X137392443Y-113108581D01*
X137434424Y-113136172D01*
X137738181Y-113439929D01*
X137771666Y-113501252D01*
X137774500Y-113527610D01*
X137774500Y-116743982D01*
X137774500Y-116856018D01*
X137791523Y-116919547D01*
X137803497Y-116964236D01*
X137803498Y-116964239D01*
X137822169Y-116996579D01*
X137859515Y-117061263D01*
X138659515Y-117861263D01*
X138738737Y-117940485D01*
X138835763Y-117996503D01*
X138943982Y-118025500D01*
X140284997Y-118025500D01*
X140336380Y-118036647D01*
X140888675Y-118288113D01*
X140893712Y-118290358D01*
X140894069Y-118290514D01*
X140901198Y-118293297D01*
X140920056Y-118300661D01*
X140929072Y-118302187D01*
X140949329Y-118307405D01*
X141031941Y-118336313D01*
X141031944Y-118336314D01*
X141199997Y-118355249D01*
X141200000Y-118355249D01*
X141200003Y-118355249D01*
X141368056Y-118336314D01*
X141368059Y-118336313D01*
X141527690Y-118280456D01*
X141527692Y-118280454D01*
X141527694Y-118280454D01*
X141527697Y-118280452D01*
X141670884Y-118190481D01*
X141670885Y-118190480D01*
X141670890Y-118190477D01*
X141761367Y-118100000D01*
X145194355Y-118100000D01*
X145214859Y-118268869D01*
X145214860Y-118268874D01*
X145275182Y-118427931D01*
X145318355Y-118490477D01*
X145371817Y-118567929D01*
X145449007Y-118636313D01*
X145499150Y-118680736D01*
X145649773Y-118759789D01*
X145649775Y-118759790D01*
X145814944Y-118800500D01*
X145985056Y-118800500D01*
X146150225Y-118759790D01*
X146255128Y-118704732D01*
X146300849Y-118680736D01*
X146300850Y-118680734D01*
X146300852Y-118680734D01*
X146428183Y-118567929D01*
X146524818Y-118427930D01*
X146585140Y-118268872D01*
X146605645Y-118100000D01*
X146585140Y-117931128D01*
X146524818Y-117772070D01*
X146522049Y-117768059D01*
X146469265Y-117691588D01*
X146428183Y-117632071D01*
X146300852Y-117519266D01*
X146300849Y-117519263D01*
X146150226Y-117440210D01*
X145985056Y-117399500D01*
X145814944Y-117399500D01*
X145649773Y-117440210D01*
X145499150Y-117519263D01*
X145371816Y-117632072D01*
X145275182Y-117772068D01*
X145214860Y-117931125D01*
X145214859Y-117931130D01*
X145194355Y-118100000D01*
X141761367Y-118100000D01*
X141790477Y-118070890D01*
X141804757Y-118048164D01*
X141880452Y-117927697D01*
X141880454Y-117927694D01*
X141880454Y-117927692D01*
X141880456Y-117927690D01*
X141936313Y-117768059D01*
X141936313Y-117768058D01*
X141936314Y-117768056D01*
X141955249Y-117600002D01*
X141955249Y-117599997D01*
X141936314Y-117431943D01*
X141893477Y-117309523D01*
X141880456Y-117272310D01*
X141880455Y-117272309D01*
X141880454Y-117272305D01*
X141880452Y-117272302D01*
X141790481Y-117129115D01*
X141790476Y-117129109D01*
X141670890Y-117009523D01*
X141670884Y-117009518D01*
X141527697Y-116919547D01*
X141527694Y-116919545D01*
X141368056Y-116863685D01*
X141200003Y-116844751D01*
X141199997Y-116844751D01*
X141031941Y-116863686D01*
X140916510Y-116904076D01*
X140907668Y-116906804D01*
X140888622Y-116911910D01*
X140888619Y-116911911D01*
X140336377Y-117163353D01*
X140284994Y-117174500D01*
X139227610Y-117174500D01*
X139160571Y-117154815D01*
X139139929Y-117138181D01*
X138801748Y-116800000D01*
X149294355Y-116800000D01*
X149314859Y-116968869D01*
X149314860Y-116968874D01*
X149375182Y-117127931D01*
X149399862Y-117163685D01*
X149471817Y-117267929D01*
X149557267Y-117343631D01*
X149599150Y-117380736D01*
X149740296Y-117454815D01*
X149749775Y-117459790D01*
X149914944Y-117500500D01*
X150085056Y-117500500D01*
X150250225Y-117459790D01*
X150365097Y-117399500D01*
X150400849Y-117380736D01*
X150400850Y-117380734D01*
X150400852Y-117380734D01*
X150528183Y-117267929D01*
X150624818Y-117127930D01*
X150685140Y-116968872D01*
X150705645Y-116800000D01*
X150685140Y-116631128D01*
X150624818Y-116472070D01*
X150575071Y-116400000D01*
X178194355Y-116400000D01*
X178214859Y-116568869D01*
X178214860Y-116568874D01*
X178275182Y-116727931D01*
X178324929Y-116800000D01*
X178371817Y-116867929D01*
X178421463Y-116911911D01*
X178499150Y-116980736D01*
X178632450Y-117050697D01*
X178649775Y-117059790D01*
X178814944Y-117100500D01*
X178985056Y-117100500D01*
X179150225Y-117059790D01*
X179246009Y-117009518D01*
X179300849Y-116980736D01*
X179300850Y-116980734D01*
X179300852Y-116980734D01*
X179428183Y-116867929D01*
X179524818Y-116727930D01*
X179585140Y-116568872D01*
X179605645Y-116400000D01*
X179585140Y-116231128D01*
X179580641Y-116219266D01*
X179524817Y-116072068D01*
X179475071Y-116000000D01*
X179428183Y-115932071D01*
X179300852Y-115819266D01*
X179300849Y-115819263D01*
X179150226Y-115740210D01*
X178985056Y-115699500D01*
X178814944Y-115699500D01*
X178649773Y-115740210D01*
X178499150Y-115819263D01*
X178371816Y-115932072D01*
X178275182Y-116072068D01*
X178214860Y-116231125D01*
X178214859Y-116231130D01*
X178194355Y-116400000D01*
X150575071Y-116400000D01*
X150528183Y-116332071D01*
X150414244Y-116231130D01*
X150400849Y-116219263D01*
X150250226Y-116140210D01*
X150085056Y-116099500D01*
X149914944Y-116099500D01*
X149749773Y-116140210D01*
X149599150Y-116219263D01*
X149471816Y-116332072D01*
X149375182Y-116472068D01*
X149314860Y-116631125D01*
X149314859Y-116631130D01*
X149294355Y-116800000D01*
X138801748Y-116800000D01*
X138661819Y-116660071D01*
X138628334Y-116598748D01*
X138625500Y-116572390D01*
X138625500Y-115200000D01*
X184494355Y-115200000D01*
X184514859Y-115368869D01*
X184514860Y-115368874D01*
X184575182Y-115527931D01*
X184633703Y-115612712D01*
X184671817Y-115667929D01*
X184721832Y-115712238D01*
X184799150Y-115780736D01*
X184949773Y-115859789D01*
X184949775Y-115859790D01*
X185114944Y-115900500D01*
X185285056Y-115900500D01*
X185450225Y-115859790D01*
X185529692Y-115818081D01*
X185600849Y-115780736D01*
X185600850Y-115780734D01*
X185600852Y-115780734D01*
X185728183Y-115667929D01*
X185824818Y-115527930D01*
X185885140Y-115368872D01*
X185905645Y-115200000D01*
X185885140Y-115031128D01*
X185824818Y-114872070D01*
X185728183Y-114732071D01*
X185600852Y-114619266D01*
X185600849Y-114619263D01*
X185450226Y-114540210D01*
X185285056Y-114499500D01*
X185114944Y-114499500D01*
X184949773Y-114540210D01*
X184799150Y-114619263D01*
X184671816Y-114732072D01*
X184575182Y-114872068D01*
X184514860Y-115031125D01*
X184514859Y-115031130D01*
X184494355Y-115200000D01*
X138625500Y-115200000D01*
X138625500Y-113243984D01*
X138625500Y-113243982D01*
X138596503Y-113135763D01*
X138540485Y-113038737D01*
X138501748Y-113000000D01*
X190994355Y-113000000D01*
X191014859Y-113168869D01*
X191014860Y-113168874D01*
X191075182Y-113327931D01*
X191125889Y-113401391D01*
X191171817Y-113467929D01*
X191241031Y-113529247D01*
X191299150Y-113580736D01*
X191439183Y-113654231D01*
X191449775Y-113659790D01*
X191614944Y-113700500D01*
X191785056Y-113700500D01*
X191950225Y-113659790D01*
X192068900Y-113597504D01*
X192100849Y-113580736D01*
X192100850Y-113580734D01*
X192100852Y-113580734D01*
X192228183Y-113467929D01*
X192324818Y-113327930D01*
X192385140Y-113168872D01*
X192405645Y-113000000D01*
X192385140Y-112831128D01*
X192324818Y-112672070D01*
X192324449Y-112671536D01*
X192274239Y-112598794D01*
X192228183Y-112532071D01*
X192100852Y-112419266D01*
X192100849Y-112419263D01*
X191950226Y-112340210D01*
X191785056Y-112299500D01*
X191614944Y-112299500D01*
X191449773Y-112340210D01*
X191299150Y-112419263D01*
X191171816Y-112532072D01*
X191075182Y-112672068D01*
X191014860Y-112831125D01*
X191014859Y-112831130D01*
X190994355Y-113000000D01*
X138501748Y-113000000D01*
X138461263Y-112959515D01*
X137716155Y-112214407D01*
X137705390Y-112202121D01*
X137690041Y-112182079D01*
X137673923Y-112167007D01*
X136895547Y-111439124D01*
X136868841Y-111403015D01*
X136864198Y-111393517D01*
X136864195Y-111393514D01*
X136864195Y-111393513D01*
X136781485Y-111310803D01*
X136676391Y-111259426D01*
X136608261Y-111249500D01*
X136608260Y-111249500D01*
X134841740Y-111249500D01*
X134841739Y-111249500D01*
X134773608Y-111259426D01*
X134668514Y-111310803D01*
X134585803Y-111393514D01*
X134534426Y-111498608D01*
X134524500Y-111566739D01*
X134524500Y-111616073D01*
X134504815Y-111683112D01*
X134452011Y-111728867D01*
X134382853Y-111738811D01*
X134319297Y-111709786D01*
X134298925Y-111687197D01*
X134223109Y-111578922D01*
X134223108Y-111578920D01*
X134056082Y-111411894D01*
X133862578Y-111276399D01*
X133648492Y-111176570D01*
X133648486Y-111176567D01*
X133435000Y-111119364D01*
X133435000Y-112016988D01*
X133377993Y-111984075D01*
X133250826Y-111950000D01*
X133119174Y-111950000D01*
X132992007Y-111984075D01*
X132935000Y-112016988D01*
X132935000Y-111119364D01*
X132934999Y-111119364D01*
X132721513Y-111176567D01*
X132721507Y-111176570D01*
X132507422Y-111276399D01*
X132507420Y-111276400D01*
X132313926Y-111411886D01*
X132313920Y-111411891D01*
X132146891Y-111578920D01*
X132146886Y-111578926D01*
X132011400Y-111772420D01*
X132011399Y-111772422D01*
X131944717Y-111915421D01*
X131898544Y-111967860D01*
X131831350Y-111987012D01*
X131764469Y-111966796D01*
X131721335Y-111918288D01*
X131670061Y-111815316D01*
X131670056Y-111815308D01*
X131535979Y-111637761D01*
X131371562Y-111487876D01*
X131371560Y-111487874D01*
X131182404Y-111370754D01*
X131182398Y-111370752D01*
X130974940Y-111290382D01*
X130756243Y-111249500D01*
X130533757Y-111249500D01*
X130315060Y-111290382D01*
X130215092Y-111329110D01*
X130107601Y-111370752D01*
X130107595Y-111370754D01*
X129918439Y-111487874D01*
X129918437Y-111487876D01*
X129754020Y-111637761D01*
X129619943Y-111815308D01*
X129619938Y-111815316D01*
X129520775Y-112014461D01*
X129520769Y-112014476D01*
X129459885Y-112228462D01*
X129459884Y-112228464D01*
X129439357Y-112449999D01*
X129439357Y-112450000D01*
X129459884Y-112671535D01*
X129459885Y-112671537D01*
X129520769Y-112885523D01*
X129520775Y-112885538D01*
X129619938Y-113084683D01*
X129619943Y-113084691D01*
X129754020Y-113262238D01*
X129918437Y-113412123D01*
X129918439Y-113412125D01*
X130112473Y-113532265D01*
X130111836Y-113533292D01*
X130158563Y-113576607D01*
X130175989Y-113644269D01*
X130154069Y-113710611D01*
X130104464Y-113752495D01*
X129967422Y-113816399D01*
X129967420Y-113816400D01*
X129773926Y-113951886D01*
X129773920Y-113951891D01*
X129606891Y-114118920D01*
X129606886Y-114118926D01*
X129471400Y-114312420D01*
X129471399Y-114312422D01*
X129371570Y-114526507D01*
X129371567Y-114526513D01*
X129314364Y-114739999D01*
X128325500Y-114739999D01*
X128325500Y-110243982D01*
X128296503Y-110135763D01*
X128240485Y-110038737D01*
X128161263Y-109959515D01*
X125901745Y-107699997D01*
X130144751Y-107699997D01*
X130144751Y-107700002D01*
X130163685Y-107868056D01*
X130219545Y-108027694D01*
X130219547Y-108027697D01*
X130309518Y-108170884D01*
X130309523Y-108170890D01*
X130429109Y-108290476D01*
X130429115Y-108290481D01*
X130572302Y-108380452D01*
X130572305Y-108380454D01*
X130572309Y-108380455D01*
X130572310Y-108380456D01*
X130644913Y-108405860D01*
X130731943Y-108436314D01*
X130899997Y-108455249D01*
X130900000Y-108455249D01*
X130900003Y-108455249D01*
X131068056Y-108436314D01*
X131080548Y-108431943D01*
X131227690Y-108380456D01*
X131227692Y-108380454D01*
X131227694Y-108380454D01*
X131227697Y-108380452D01*
X131370884Y-108290481D01*
X131370885Y-108290480D01*
X131370890Y-108290477D01*
X131490477Y-108170890D01*
X131497452Y-108159790D01*
X131580452Y-108027697D01*
X131580454Y-108027694D01*
X131580454Y-108027692D01*
X131580456Y-108027690D01*
X131636313Y-107868059D01*
X131636313Y-107868058D01*
X131636314Y-107868056D01*
X131655249Y-107700002D01*
X131655249Y-107699997D01*
X131636314Y-107531943D01*
X131580454Y-107372305D01*
X131580452Y-107372302D01*
X131490481Y-107229115D01*
X131490476Y-107229109D01*
X131370890Y-107109523D01*
X131370884Y-107109518D01*
X131227697Y-107019547D01*
X131227694Y-107019545D01*
X131068056Y-106963685D01*
X130900003Y-106944751D01*
X130899997Y-106944751D01*
X130731943Y-106963685D01*
X130572305Y-107019545D01*
X130572302Y-107019547D01*
X130429115Y-107109518D01*
X130429109Y-107109523D01*
X130309523Y-107229109D01*
X130309518Y-107229115D01*
X130219547Y-107372302D01*
X130219545Y-107372305D01*
X130163685Y-107531943D01*
X130144751Y-107699997D01*
X125901745Y-107699997D01*
X125161263Y-106959515D01*
X125064237Y-106903497D01*
X124956018Y-106874500D01*
X124956017Y-106874500D01*
X123181756Y-106874500D01*
X123114717Y-106854815D01*
X123068962Y-106802011D01*
X123059018Y-106732853D01*
X123088043Y-106669297D01*
X123131935Y-106636949D01*
X123424294Y-106508676D01*
X123442010Y-106502458D01*
X123454965Y-106498987D01*
X123464234Y-106496504D01*
X123464234Y-106496503D01*
X123464237Y-106496503D01*
X123561263Y-106440485D01*
X124639928Y-105361818D01*
X124701251Y-105328334D01*
X124727609Y-105325500D01*
X130172390Y-105325500D01*
X130239429Y-105345185D01*
X130260071Y-105361819D01*
X134174984Y-109276732D01*
X134202823Y-109319345D01*
X134217788Y-109357707D01*
X134217789Y-109357708D01*
X134222339Y-109369373D01*
X134222463Y-109369689D01*
X134222463Y-109369690D01*
X134391105Y-109801998D01*
X134392364Y-109805185D01*
X134392419Y-109805321D01*
X134392427Y-109805339D01*
X134392433Y-109805354D01*
X134402595Y-109828312D01*
X134402597Y-109828314D01*
X134402598Y-109828317D01*
X134405674Y-109833727D01*
X134405316Y-109833930D01*
X134416319Y-109854561D01*
X134425182Y-109877930D01*
X134521817Y-110017929D01*
X134623072Y-110107633D01*
X134649150Y-110130736D01*
X134799773Y-110209789D01*
X134799775Y-110209790D01*
X134964944Y-110250500D01*
X135135056Y-110250500D01*
X135300225Y-110209790D01*
X135379692Y-110168081D01*
X135450849Y-110130736D01*
X135450850Y-110130734D01*
X135450852Y-110130734D01*
X135578183Y-110017929D01*
X135674818Y-109877930D01*
X135735140Y-109718872D01*
X135755645Y-109550000D01*
X135735140Y-109381128D01*
X135674818Y-109222070D01*
X135661488Y-109202758D01*
X135639605Y-109136407D01*
X135657069Y-109068755D01*
X135708336Y-109021284D01*
X135777129Y-109009066D01*
X135795622Y-109012542D01*
X135843982Y-109025500D01*
X136888043Y-109025500D01*
X136937863Y-109035948D01*
X137412318Y-109244115D01*
X137414506Y-109245066D01*
X137414701Y-109245150D01*
X137435651Y-109253275D01*
X137448434Y-109259086D01*
X137449775Y-109259790D01*
X137449776Y-109259790D01*
X137449778Y-109259791D01*
X137614944Y-109300500D01*
X137785056Y-109300500D01*
X137950225Y-109259790D01*
X138040930Y-109212184D01*
X138100849Y-109180736D01*
X138100850Y-109180734D01*
X138100852Y-109180734D01*
X138228183Y-109067929D01*
X138324818Y-108927930D01*
X138340504Y-108886565D01*
X138349914Y-108867082D01*
X138358879Y-108852036D01*
X138547173Y-108369348D01*
X138575010Y-108326736D01*
X138601746Y-108300000D01*
X152094355Y-108300000D01*
X152114859Y-108468869D01*
X152114860Y-108468874D01*
X152175182Y-108627931D01*
X152208200Y-108675765D01*
X152271817Y-108767929D01*
X152357425Y-108843771D01*
X152399150Y-108880736D01*
X152537531Y-108953364D01*
X152549775Y-108959790D01*
X152714944Y-109000500D01*
X152885056Y-109000500D01*
X153050225Y-108959790D01*
X153180408Y-108891464D01*
X153200849Y-108880736D01*
X153200850Y-108880734D01*
X153200852Y-108880734D01*
X153328183Y-108767929D01*
X153424818Y-108627930D01*
X153485140Y-108468872D01*
X153505645Y-108300000D01*
X153485140Y-108131128D01*
X153424818Y-107972070D01*
X153421958Y-107967927D01*
X153388562Y-107919544D01*
X153328183Y-107832071D01*
X153207888Y-107725499D01*
X153200849Y-107719263D01*
X153050226Y-107640210D01*
X152885056Y-107599500D01*
X152714944Y-107599500D01*
X152549773Y-107640210D01*
X152399150Y-107719263D01*
X152271816Y-107832072D01*
X152175182Y-107972068D01*
X152114860Y-108131125D01*
X152114859Y-108131130D01*
X152094355Y-108300000D01*
X138601746Y-108300000D01*
X140939929Y-105961819D01*
X141001252Y-105928334D01*
X141027610Y-105925500D01*
X179656016Y-105925500D01*
X179656018Y-105925500D01*
X179764237Y-105896503D01*
X179861263Y-105840485D01*
X183851053Y-101850692D01*
X183851058Y-101850689D01*
X183861261Y-101840485D01*
X183861263Y-101840485D01*
X183940485Y-101761263D01*
X183996503Y-101664237D01*
X184003981Y-101636330D01*
X184025500Y-101556019D01*
X184025500Y-101443982D01*
X184025500Y-101443981D01*
X184025500Y-96166739D01*
X189937000Y-96166739D01*
X189937000Y-97433260D01*
X189946926Y-97501391D01*
X189998303Y-97606485D01*
X190081014Y-97689196D01*
X190081015Y-97689196D01*
X190081017Y-97689198D01*
X190186107Y-97740573D01*
X190220173Y-97745536D01*
X190254239Y-97750500D01*
X190254240Y-97750500D01*
X191520761Y-97750500D01*
X191543471Y-97747191D01*
X191588893Y-97740573D01*
X191693983Y-97689198D01*
X191776698Y-97606483D01*
X191828073Y-97501393D01*
X191838000Y-97433260D01*
X191838000Y-96799999D01*
X193282787Y-96799999D01*
X193282787Y-96800000D01*
X193301596Y-97002989D01*
X193301597Y-97002992D01*
X193357383Y-97199063D01*
X193357386Y-97199069D01*
X193448251Y-97381551D01*
X193450033Y-97383911D01*
X193965774Y-96868171D01*
X193991463Y-96964044D01*
X194047416Y-97060956D01*
X194126544Y-97140084D01*
X194223456Y-97196037D01*
X194319327Y-97221725D01*
X193806811Y-97734240D01*
X193895085Y-97788897D01*
X194085178Y-97862539D01*
X194285572Y-97900000D01*
X194489428Y-97900000D01*
X194689822Y-97862539D01*
X194879912Y-97788899D01*
X194879916Y-97788897D01*
X194968186Y-97734241D01*
X194968186Y-97734240D01*
X194455673Y-97221725D01*
X194551544Y-97196037D01*
X194648456Y-97140084D01*
X194727584Y-97060956D01*
X194783537Y-96964044D01*
X194809225Y-96868172D01*
X195324965Y-97383912D01*
X195326747Y-97381553D01*
X195326748Y-97381551D01*
X195417613Y-97199069D01*
X195417616Y-97199063D01*
X195473402Y-97002992D01*
X195473403Y-97002989D01*
X195492213Y-96800000D01*
X195492213Y-96799999D01*
X195473403Y-96597010D01*
X195473402Y-96597007D01*
X195417616Y-96400936D01*
X195417613Y-96400930D01*
X195326749Y-96218449D01*
X195326747Y-96218447D01*
X195324965Y-96216087D01*
X194809225Y-96731827D01*
X194783537Y-96635956D01*
X194727584Y-96539044D01*
X194648456Y-96459916D01*
X194551544Y-96403963D01*
X194455672Y-96378274D01*
X194968187Y-95865758D01*
X194879913Y-95811101D01*
X194879911Y-95811100D01*
X194689821Y-95737460D01*
X194489428Y-95700000D01*
X194285572Y-95700000D01*
X194085178Y-95737460D01*
X193895088Y-95811100D01*
X193895081Y-95811104D01*
X193806812Y-95865757D01*
X193806811Y-95865758D01*
X194319328Y-96378274D01*
X194223456Y-96403963D01*
X194126544Y-96459916D01*
X194047416Y-96539044D01*
X193991463Y-96635956D01*
X193965774Y-96731828D01*
X193450033Y-96216087D01*
X193448255Y-96218442D01*
X193448254Y-96218443D01*
X193357386Y-96400930D01*
X193357383Y-96400936D01*
X193301597Y-96597007D01*
X193301596Y-96597010D01*
X193282787Y-96799999D01*
X191838000Y-96799999D01*
X191838000Y-96166740D01*
X191828073Y-96098607D01*
X191776698Y-95993517D01*
X191776696Y-95993515D01*
X191776696Y-95993514D01*
X191693985Y-95910803D01*
X191588891Y-95859426D01*
X191520761Y-95849500D01*
X191520760Y-95849500D01*
X190254240Y-95849500D01*
X190254239Y-95849500D01*
X190186108Y-95859426D01*
X190081014Y-95910803D01*
X189998303Y-95993514D01*
X189946926Y-96098608D01*
X189937000Y-96166739D01*
X184025500Y-96166739D01*
X184025500Y-93043982D01*
X184005374Y-92968872D01*
X183996503Y-92935763D01*
X183976144Y-92900500D01*
X183940485Y-92838737D01*
X183861263Y-92759515D01*
X183861262Y-92759514D01*
X183856932Y-92755184D01*
X183856921Y-92755174D01*
X182361265Y-91259517D01*
X182361264Y-91259516D01*
X182361263Y-91259515D01*
X182264237Y-91203497D01*
X182156018Y-91174500D01*
X182156017Y-91174500D01*
X173327609Y-91174500D01*
X173260570Y-91154815D01*
X173239928Y-91138181D01*
X173075014Y-90973267D01*
X173047174Y-90930651D01*
X172858879Y-90447963D01*
X172857645Y-90444842D01*
X172857634Y-90444813D01*
X172857575Y-90444668D01*
X172857566Y-90444645D01*
X172847404Y-90421687D01*
X172847401Y-90421682D01*
X172844329Y-90416280D01*
X172844687Y-90416076D01*
X172833678Y-90395433D01*
X172824818Y-90372070D01*
X172728183Y-90232071D01*
X172600852Y-90119266D01*
X172600849Y-90119263D01*
X172450226Y-90040210D01*
X172285056Y-89999500D01*
X172114944Y-89999500D01*
X171949773Y-90040210D01*
X171799150Y-90119263D01*
X171671816Y-90232072D01*
X171575182Y-90372068D01*
X171514860Y-90531125D01*
X171514859Y-90531130D01*
X171494355Y-90700000D01*
X171514859Y-90868869D01*
X171514860Y-90868874D01*
X171575182Y-91027931D01*
X171625446Y-91100750D01*
X171671817Y-91167929D01*
X171799148Y-91280734D01*
X171944427Y-91356982D01*
X171946780Y-91358301D01*
X171947342Y-91358575D01*
X171949632Y-91359735D01*
X171949769Y-91359787D01*
X171949775Y-91359790D01*
X171949780Y-91359791D01*
X171956806Y-91362457D01*
X171956801Y-91362469D01*
X171958741Y-91363083D01*
X172221773Y-91465691D01*
X172277075Y-91508393D01*
X172300511Y-91574215D01*
X172284641Y-91642258D01*
X172234503Y-91690920D01*
X172206384Y-91701609D01*
X172049773Y-91740210D01*
X171899150Y-91819263D01*
X171771816Y-91932072D01*
X171675182Y-92072068D01*
X171614860Y-92231125D01*
X171614859Y-92231130D01*
X171594355Y-92400000D01*
X171614859Y-92568869D01*
X171614860Y-92568874D01*
X171675182Y-92727931D01*
X171724929Y-92800000D01*
X171771817Y-92867929D01*
X171848386Y-92935763D01*
X171899150Y-92980736D01*
X172042340Y-93055888D01*
X172049775Y-93059790D01*
X172214944Y-93100500D01*
X172385056Y-93100500D01*
X172550225Y-93059790D01*
X172560031Y-93054642D01*
X172582870Y-93045897D01*
X172582830Y-93045781D01*
X172586172Y-93044633D01*
X172587223Y-93044230D01*
X172587681Y-93044115D01*
X173041086Y-92845185D01*
X173062137Y-92835949D01*
X173111957Y-92825500D01*
X181272390Y-92825500D01*
X181339429Y-92845185D01*
X181360071Y-92861819D01*
X182238181Y-93739928D01*
X182271666Y-93801251D01*
X182274500Y-93827609D01*
X182274500Y-101272390D01*
X182254815Y-101339429D01*
X182238181Y-101360071D01*
X179560071Y-104038181D01*
X179498748Y-104071666D01*
X179472390Y-104074500D01*
X149527610Y-104074500D01*
X149460571Y-104054815D01*
X149439929Y-104038181D01*
X148861265Y-103459517D01*
X148861259Y-103459512D01*
X148764240Y-103403498D01*
X148764235Y-103403496D01*
X148742011Y-103397541D01*
X148724288Y-103391319D01*
X148589250Y-103332071D01*
X148187775Y-103155924D01*
X148185668Y-103155009D01*
X148185648Y-103155000D01*
X148185493Y-103154933D01*
X148185298Y-103154849D01*
X148185289Y-103154845D01*
X148185274Y-103154839D01*
X148164346Y-103146722D01*
X148151563Y-103140912D01*
X148150226Y-103140210D01*
X147985056Y-103099500D01*
X147814944Y-103099500D01*
X147649773Y-103140210D01*
X147499150Y-103219263D01*
X147371816Y-103332072D01*
X147275182Y-103472068D01*
X147214860Y-103631125D01*
X147214859Y-103631130D01*
X147194355Y-103800000D01*
X147214859Y-103968869D01*
X147214860Y-103968874D01*
X147275182Y-104127931D01*
X147337475Y-104218177D01*
X147371817Y-104267929D01*
X147476378Y-104360562D01*
X147499150Y-104380736D01*
X147589071Y-104427930D01*
X147649775Y-104459790D01*
X147814944Y-104500500D01*
X147985056Y-104500500D01*
X148150225Y-104459790D01*
X148160031Y-104454642D01*
X148182870Y-104445897D01*
X148182830Y-104445781D01*
X148186172Y-104444633D01*
X148187223Y-104444230D01*
X148187681Y-104444115D01*
X148426121Y-104339499D01*
X148495420Y-104330590D01*
X148558535Y-104360562D01*
X148563622Y-104365370D01*
X149038737Y-104840485D01*
X149043289Y-104843113D01*
X149091504Y-104893681D01*
X149104726Y-104962288D01*
X149078758Y-105027152D01*
X149021844Y-105067680D01*
X148981288Y-105074500D01*
X140743982Y-105074500D01*
X140635763Y-105103497D01*
X140635760Y-105103498D01*
X140538740Y-105159513D01*
X140538734Y-105159517D01*
X137973265Y-107724985D01*
X137930648Y-107752825D01*
X137458687Y-107936935D01*
X137456754Y-107937548D01*
X137456759Y-107937560D01*
X137446712Y-107941372D01*
X137445465Y-107941949D01*
X137445493Y-107942011D01*
X137425944Y-107950702D01*
X137415851Y-107954670D01*
X137412317Y-107955883D01*
X136998010Y-108137660D01*
X136947573Y-108159790D01*
X136937861Y-108164051D01*
X136888040Y-108174500D01*
X136127610Y-108174500D01*
X136060571Y-108154815D01*
X136039929Y-108138181D01*
X132901745Y-104999997D01*
X133944751Y-104999997D01*
X133944751Y-105000002D01*
X133963685Y-105168056D01*
X134019545Y-105327694D01*
X134019547Y-105327697D01*
X134109518Y-105470884D01*
X134109523Y-105470890D01*
X134229109Y-105590476D01*
X134229115Y-105590481D01*
X134372302Y-105680452D01*
X134372305Y-105680454D01*
X134372309Y-105680455D01*
X134372310Y-105680456D01*
X134531938Y-105736312D01*
X134531944Y-105736314D01*
X134699997Y-105755249D01*
X134700000Y-105755249D01*
X134768150Y-105747569D01*
X134779050Y-105746848D01*
X134779327Y-105746819D01*
X134779334Y-105746819D01*
X134781679Y-105746378D01*
X134790636Y-105745035D01*
X134868059Y-105736313D01*
X134896941Y-105726206D01*
X134915030Y-105721375D01*
X135548376Y-105602623D01*
X135571226Y-105600500D01*
X138213331Y-105600500D01*
X138213347Y-105600501D01*
X138220943Y-105600501D01*
X138379054Y-105600501D01*
X138379057Y-105600501D01*
X138531785Y-105559577D01*
X138531787Y-105559575D01*
X138531789Y-105559575D01*
X138531790Y-105559574D01*
X138584308Y-105529253D01*
X138584309Y-105529252D01*
X138668716Y-105480520D01*
X138780520Y-105368716D01*
X138780520Y-105368714D01*
X138790724Y-105358511D01*
X138790728Y-105358506D01*
X142058506Y-102090728D01*
X142058511Y-102090724D01*
X142068714Y-102080520D01*
X142068716Y-102080520D01*
X142180520Y-101968716D01*
X142246030Y-101855249D01*
X142259577Y-101831785D01*
X142300500Y-101679057D01*
X142300500Y-101520943D01*
X142300500Y-99671230D01*
X142302624Y-99648383D01*
X142375535Y-99259515D01*
X142421375Y-99015030D01*
X142426209Y-98996932D01*
X142436313Y-98968059D01*
X142445036Y-98890628D01*
X142446381Y-98881666D01*
X142446819Y-98879332D01*
X142449564Y-98859790D01*
X142451347Y-98847101D01*
X142451547Y-98844974D01*
X142451690Y-98836580D01*
X142452452Y-98824817D01*
X142455249Y-98799999D01*
X142455249Y-98799997D01*
X142436314Y-98631944D01*
X142411582Y-98561263D01*
X142380456Y-98472310D01*
X142380455Y-98472309D01*
X142380454Y-98472305D01*
X142380452Y-98472302D01*
X142290481Y-98329115D01*
X142290476Y-98329109D01*
X142170890Y-98209523D01*
X142170884Y-98209518D01*
X142027697Y-98119547D01*
X142027694Y-98119545D01*
X141868056Y-98063685D01*
X141700003Y-98044751D01*
X141699997Y-98044751D01*
X141531943Y-98063685D01*
X141372305Y-98119545D01*
X141372302Y-98119547D01*
X141229115Y-98209518D01*
X141229109Y-98209523D01*
X141109523Y-98329109D01*
X141109518Y-98329115D01*
X141019547Y-98472302D01*
X141019545Y-98472305D01*
X140963685Y-98631943D01*
X140944751Y-98799996D01*
X140944751Y-98800000D01*
X140949818Y-98844974D01*
X140952429Y-98868149D01*
X140953153Y-98879083D01*
X140953179Y-98879337D01*
X140953625Y-98881715D01*
X140954964Y-98890653D01*
X140963687Y-98968060D01*
X140973789Y-98996931D01*
X140978622Y-99015031D01*
X141024464Y-99259517D01*
X141097376Y-99648383D01*
X141099500Y-99671230D01*
X141099500Y-101299903D01*
X141079815Y-101366942D01*
X141063181Y-101387584D01*
X138087584Y-104363181D01*
X138026261Y-104396666D01*
X137999903Y-104399500D01*
X135571237Y-104399500D01*
X135548385Y-104397376D01*
X134915028Y-104278622D01*
X134896927Y-104273788D01*
X134868059Y-104263687D01*
X134790656Y-104254965D01*
X134781710Y-104253624D01*
X134780440Y-104253386D01*
X134779334Y-104253179D01*
X134779321Y-104253177D01*
X134752985Y-104249482D01*
X134746979Y-104248640D01*
X134746976Y-104248639D01*
X134746964Y-104248638D01*
X134744849Y-104248440D01*
X134744854Y-104248440D01*
X134736507Y-104248299D01*
X134724730Y-104247537D01*
X134700003Y-104244751D01*
X134699997Y-104244751D01*
X134531943Y-104263685D01*
X134372305Y-104319545D01*
X134372302Y-104319547D01*
X134229115Y-104409518D01*
X134229109Y-104409523D01*
X134109523Y-104529109D01*
X134109518Y-104529115D01*
X134019547Y-104672302D01*
X134019545Y-104672305D01*
X133963685Y-104831943D01*
X133944751Y-104999997D01*
X132901745Y-104999997D01*
X131661265Y-103759517D01*
X131661263Y-103759515D01*
X131564237Y-103703497D01*
X131456018Y-103674500D01*
X131456017Y-103674500D01*
X124511959Y-103674500D01*
X124462139Y-103664051D01*
X123987775Y-103455924D01*
X123985668Y-103455009D01*
X123985648Y-103455000D01*
X123985493Y-103454933D01*
X123985298Y-103454849D01*
X123985289Y-103454845D01*
X123985274Y-103454839D01*
X123964346Y-103446722D01*
X123951563Y-103440912D01*
X123950226Y-103440210D01*
X123785056Y-103399500D01*
X123614944Y-103399500D01*
X123449773Y-103440210D01*
X123299150Y-103519263D01*
X123182638Y-103622484D01*
X123172882Y-103631128D01*
X123171816Y-103632072D01*
X123075182Y-103772068D01*
X123014860Y-103931125D01*
X123014859Y-103931130D01*
X122994355Y-104100000D01*
X123014859Y-104268869D01*
X123014860Y-104268874D01*
X123075182Y-104427931D01*
X123125274Y-104500500D01*
X123171817Y-104567929D01*
X123277505Y-104661560D01*
X123299150Y-104680736D01*
X123419909Y-104744115D01*
X123449775Y-104759790D01*
X123614944Y-104800500D01*
X123698390Y-104800500D01*
X123765429Y-104820185D01*
X123811184Y-104872989D01*
X123821128Y-104942147D01*
X123792103Y-105005703D01*
X123786071Y-105012181D01*
X123263622Y-105534629D01*
X123202299Y-105568114D01*
X123132607Y-105563130D01*
X123126143Y-105560508D01*
X122943827Y-105480518D01*
X122887668Y-105455878D01*
X122885668Y-105455009D01*
X122885648Y-105455000D01*
X122885493Y-105454933D01*
X122885298Y-105454849D01*
X122885289Y-105454845D01*
X122885274Y-105454839D01*
X122864346Y-105446722D01*
X122851563Y-105440912D01*
X122850226Y-105440210D01*
X122685056Y-105399500D01*
X122514944Y-105399500D01*
X122349773Y-105440210D01*
X122199150Y-105519263D01*
X122107453Y-105600500D01*
X122072882Y-105631128D01*
X122071816Y-105632072D01*
X121975182Y-105772068D01*
X121914860Y-105931125D01*
X121914859Y-105931130D01*
X121894355Y-106100000D01*
X121914859Y-106268869D01*
X121914860Y-106268874D01*
X121975182Y-106427931D01*
X122071818Y-106567930D01*
X122173130Y-106657685D01*
X122210257Y-106716874D01*
X122209489Y-106786740D01*
X122171071Y-106845099D01*
X122107201Y-106873424D01*
X122090903Y-106874500D01*
X120827610Y-106874500D01*
X120760571Y-106854815D01*
X120739929Y-106838181D01*
X118861819Y-104960071D01*
X118828334Y-104898748D01*
X118825500Y-104872390D01*
X118825500Y-97700000D01*
X149894355Y-97700000D01*
X149914859Y-97868869D01*
X149914860Y-97868874D01*
X149975182Y-98027931D01*
X149999862Y-98063685D01*
X150071817Y-98167929D01*
X150177505Y-98261560D01*
X150199150Y-98280736D01*
X150349773Y-98359789D01*
X150349775Y-98359790D01*
X150514944Y-98400500D01*
X150685056Y-98400500D01*
X150850225Y-98359790D01*
X150929692Y-98318081D01*
X151000849Y-98280736D01*
X151000850Y-98280734D01*
X151000852Y-98280734D01*
X151128183Y-98167929D01*
X151224818Y-98027930D01*
X151285140Y-97868872D01*
X151293503Y-97800000D01*
X152394355Y-97800000D01*
X152414859Y-97968869D01*
X152414860Y-97968874D01*
X152475182Y-98127931D01*
X152531502Y-98209523D01*
X152571817Y-98267929D01*
X152640882Y-98329115D01*
X152699150Y-98380736D01*
X152813048Y-98440514D01*
X152849775Y-98459790D01*
X153014944Y-98500500D01*
X153185056Y-98500500D01*
X153350225Y-98459790D01*
X153451169Y-98406810D01*
X153500849Y-98380736D01*
X153500850Y-98380734D01*
X153500852Y-98380734D01*
X153628183Y-98267929D01*
X153724818Y-98127930D01*
X153785140Y-97968872D01*
X153805645Y-97800000D01*
X153785140Y-97631128D01*
X153780641Y-97619266D01*
X153747214Y-97531125D01*
X153724818Y-97472070D01*
X153706260Y-97445185D01*
X153674207Y-97398748D01*
X153628183Y-97332071D01*
X153515306Y-97232071D01*
X153500849Y-97219263D01*
X153350226Y-97140210D01*
X153185056Y-97099500D01*
X153014944Y-97099500D01*
X152849773Y-97140210D01*
X152699150Y-97219263D01*
X152571816Y-97332072D01*
X152475182Y-97472068D01*
X152414860Y-97631125D01*
X152414859Y-97631130D01*
X152394355Y-97800000D01*
X151293503Y-97800000D01*
X151305645Y-97700000D01*
X151285140Y-97531128D01*
X151224818Y-97372070D01*
X151197208Y-97332071D01*
X151156835Y-97273581D01*
X151128183Y-97232071D01*
X151024351Y-97140084D01*
X151000849Y-97119263D01*
X150850226Y-97040210D01*
X150685056Y-96999500D01*
X150514944Y-96999500D01*
X150349773Y-97040210D01*
X150199150Y-97119263D01*
X150071816Y-97232072D01*
X149975182Y-97372068D01*
X149914860Y-97531125D01*
X149914859Y-97531130D01*
X149894355Y-97700000D01*
X118825500Y-97700000D01*
X118825500Y-96843984D01*
X118825500Y-96843982D01*
X118796503Y-96735763D01*
X118740485Y-96638737D01*
X118661263Y-96559515D01*
X117361263Y-95259515D01*
X117264237Y-95203497D01*
X117156018Y-95174500D01*
X117156017Y-95174500D01*
X115127610Y-95174500D01*
X115060571Y-95154815D01*
X115039929Y-95138181D01*
X111961819Y-92060071D01*
X111928334Y-91998748D01*
X111925500Y-91972390D01*
X111925500Y-89639999D01*
X128119357Y-89639999D01*
X128119357Y-89640000D01*
X128139884Y-89861535D01*
X128139885Y-89861537D01*
X128200769Y-90075523D01*
X128200775Y-90075538D01*
X128299938Y-90274683D01*
X128299943Y-90274691D01*
X128434020Y-90452238D01*
X128598437Y-90602123D01*
X128598439Y-90602125D01*
X128787595Y-90719245D01*
X128787596Y-90719245D01*
X128787599Y-90719247D01*
X128981524Y-90794374D01*
X129036924Y-90836946D01*
X129060515Y-90902713D01*
X129044804Y-90970793D01*
X128994780Y-91019572D01*
X128981533Y-91025622D01*
X128898373Y-91057839D01*
X128787601Y-91100752D01*
X128787595Y-91100754D01*
X128598439Y-91217874D01*
X128598437Y-91217876D01*
X128434020Y-91367761D01*
X128299943Y-91545308D01*
X128299938Y-91545316D01*
X128200775Y-91744461D01*
X128200769Y-91744476D01*
X128139885Y-91958462D01*
X128139884Y-91958464D01*
X128119357Y-92179999D01*
X128119357Y-92180000D01*
X128139884Y-92401535D01*
X128139885Y-92401537D01*
X128200769Y-92615523D01*
X128200775Y-92615538D01*
X128299938Y-92814683D01*
X128299943Y-92814691D01*
X128434020Y-92992238D01*
X128598437Y-93142123D01*
X128598439Y-93142125D01*
X128787595Y-93259245D01*
X128787596Y-93259245D01*
X128787599Y-93259247D01*
X128981524Y-93334374D01*
X129036924Y-93376946D01*
X129060515Y-93442713D01*
X129044804Y-93510793D01*
X128994780Y-93559572D01*
X128981533Y-93565622D01*
X128833488Y-93622975D01*
X128787601Y-93640752D01*
X128787595Y-93640754D01*
X128598439Y-93757874D01*
X128598437Y-93757876D01*
X128434020Y-93907761D01*
X128299943Y-94085308D01*
X128299938Y-94085316D01*
X128200775Y-94284461D01*
X128200769Y-94284476D01*
X128139885Y-94498462D01*
X128139884Y-94498464D01*
X128119357Y-94719999D01*
X128119357Y-94720000D01*
X128139884Y-94941535D01*
X128139885Y-94941537D01*
X128200769Y-95155523D01*
X128200775Y-95155538D01*
X128299938Y-95354683D01*
X128299943Y-95354691D01*
X128434020Y-95532238D01*
X128598437Y-95682123D01*
X128598439Y-95682125D01*
X128787595Y-95799245D01*
X128787596Y-95799245D01*
X128787599Y-95799247D01*
X128995060Y-95879618D01*
X129213757Y-95920500D01*
X129213759Y-95920500D01*
X129436241Y-95920500D01*
X129436243Y-95920500D01*
X129654940Y-95879618D01*
X129862401Y-95799247D01*
X130051562Y-95682124D01*
X130215981Y-95532236D01*
X130350058Y-95354689D01*
X130449229Y-95155528D01*
X130475734Y-95062371D01*
X130513013Y-95003278D01*
X130576323Y-94973721D01*
X130645562Y-94983083D01*
X130698749Y-95028393D01*
X130714266Y-95062372D01*
X130740769Y-95155523D01*
X130740775Y-95155538D01*
X130839938Y-95354683D01*
X130839943Y-95354691D01*
X130974020Y-95532238D01*
X131138437Y-95682123D01*
X131138439Y-95682125D01*
X131327595Y-95799245D01*
X131327596Y-95799245D01*
X131327599Y-95799247D01*
X131535060Y-95879618D01*
X131753757Y-95920500D01*
X131753759Y-95920500D01*
X131976241Y-95920500D01*
X131976243Y-95920500D01*
X132194940Y-95879618D01*
X132402401Y-95799247D01*
X132591562Y-95682124D01*
X132755981Y-95532236D01*
X132890058Y-95354689D01*
X132989229Y-95155528D01*
X133050115Y-94941536D01*
X133070643Y-94720000D01*
X133068789Y-94699997D01*
X137244751Y-94699997D01*
X137244751Y-94700002D01*
X137263685Y-94868056D01*
X137319545Y-95027694D01*
X137319547Y-95027697D01*
X137409518Y-95170884D01*
X137409523Y-95170890D01*
X137529109Y-95290476D01*
X137529115Y-95290481D01*
X137672302Y-95380452D01*
X137672305Y-95380454D01*
X137672309Y-95380455D01*
X137672310Y-95380456D01*
X137716838Y-95396037D01*
X137831943Y-95436314D01*
X137999997Y-95455249D01*
X138000000Y-95455249D01*
X138000003Y-95455249D01*
X138168056Y-95436314D01*
X138168059Y-95436313D01*
X138327690Y-95380456D01*
X138327692Y-95380454D01*
X138327694Y-95380454D01*
X138327697Y-95380452D01*
X138470884Y-95290481D01*
X138470885Y-95290480D01*
X138470890Y-95290477D01*
X138590477Y-95170890D01*
X138594779Y-95164044D01*
X138680452Y-95027697D01*
X138680454Y-95027694D01*
X138680454Y-95027692D01*
X138680456Y-95027690D01*
X138736313Y-94868059D01*
X138736313Y-94868058D01*
X138736314Y-94868056D01*
X138755249Y-94700002D01*
X138755249Y-94699997D01*
X138736314Y-94531943D01*
X138702994Y-94436721D01*
X138680456Y-94372310D01*
X138680455Y-94372309D01*
X138680454Y-94372305D01*
X138680452Y-94372302D01*
X138676957Y-94366739D01*
X142249500Y-94366739D01*
X142249500Y-95633260D01*
X142259426Y-95701391D01*
X142310803Y-95806485D01*
X142393514Y-95889196D01*
X142393515Y-95889196D01*
X142393517Y-95889198D01*
X142498607Y-95940573D01*
X142532673Y-95945536D01*
X142566739Y-95950500D01*
X142566740Y-95950500D01*
X143833261Y-95950500D01*
X143855971Y-95947191D01*
X143901393Y-95940573D01*
X144006483Y-95889198D01*
X144089198Y-95806483D01*
X144140573Y-95701393D01*
X144150500Y-95633260D01*
X144150500Y-94999999D01*
X145595287Y-94999999D01*
X145595287Y-95000000D01*
X145614096Y-95202989D01*
X145614097Y-95202992D01*
X145669883Y-95399063D01*
X145669886Y-95399069D01*
X145760751Y-95581551D01*
X145762533Y-95583911D01*
X146278274Y-95068171D01*
X146303963Y-95164044D01*
X146359916Y-95260956D01*
X146439044Y-95340084D01*
X146535956Y-95396037D01*
X146631827Y-95421725D01*
X146119311Y-95934240D01*
X146207585Y-95988897D01*
X146397678Y-96062539D01*
X146598072Y-96100000D01*
X146801928Y-96100000D01*
X147002322Y-96062539D01*
X147192412Y-95988899D01*
X147192416Y-95988897D01*
X147280686Y-95934241D01*
X147280686Y-95934240D01*
X146768173Y-95421725D01*
X146864044Y-95396037D01*
X146960956Y-95340084D01*
X147040084Y-95260956D01*
X147096037Y-95164044D01*
X147121725Y-95068172D01*
X147637465Y-95583912D01*
X147639247Y-95581553D01*
X147639248Y-95581551D01*
X147730113Y-95399069D01*
X147730116Y-95399063D01*
X147785902Y-95202992D01*
X147785903Y-95202989D01*
X147804713Y-95000000D01*
X147804713Y-94999999D01*
X147785903Y-94797010D01*
X147785902Y-94797007D01*
X147730116Y-94600936D01*
X147730113Y-94600930D01*
X147639249Y-94418449D01*
X147639247Y-94418447D01*
X147637465Y-94416087D01*
X147121725Y-94931827D01*
X147096037Y-94835956D01*
X147040084Y-94739044D01*
X146960956Y-94659916D01*
X146864044Y-94603963D01*
X146768172Y-94578274D01*
X147280687Y-94065758D01*
X147192413Y-94011101D01*
X147192411Y-94011100D01*
X147002321Y-93937460D01*
X146801928Y-93900000D01*
X146598072Y-93900000D01*
X146397678Y-93937460D01*
X146207588Y-94011100D01*
X146207581Y-94011104D01*
X146119312Y-94065757D01*
X146119311Y-94065758D01*
X146631828Y-94578274D01*
X146535956Y-94603963D01*
X146439044Y-94659916D01*
X146359916Y-94739044D01*
X146303963Y-94835956D01*
X146278274Y-94931828D01*
X145762533Y-94416087D01*
X145760755Y-94418442D01*
X145760754Y-94418443D01*
X145669886Y-94600930D01*
X145669883Y-94600936D01*
X145614097Y-94797007D01*
X145614096Y-94797010D01*
X145595287Y-94999999D01*
X144150500Y-94999999D01*
X144150500Y-94366740D01*
X144140573Y-94298607D01*
X144089198Y-94193517D01*
X144089196Y-94193515D01*
X144089196Y-94193514D01*
X144006485Y-94110803D01*
X144003856Y-94109518D01*
X143901393Y-94059427D01*
X143901391Y-94059426D01*
X143833261Y-94049500D01*
X143833260Y-94049500D01*
X142566740Y-94049500D01*
X142566739Y-94049500D01*
X142498608Y-94059426D01*
X142393514Y-94110803D01*
X142310803Y-94193514D01*
X142259426Y-94298608D01*
X142249500Y-94366739D01*
X138676957Y-94366739D01*
X138590481Y-94229115D01*
X138590476Y-94229109D01*
X138470890Y-94109523D01*
X138470884Y-94109518D01*
X138327697Y-94019547D01*
X138327694Y-94019545D01*
X138168056Y-93963685D01*
X138000003Y-93944751D01*
X137999997Y-93944751D01*
X137831943Y-93963685D01*
X137672305Y-94019545D01*
X137672302Y-94019547D01*
X137529115Y-94109518D01*
X137529109Y-94109523D01*
X137409523Y-94229109D01*
X137409518Y-94229115D01*
X137319547Y-94372302D01*
X137319545Y-94372305D01*
X137263685Y-94531943D01*
X137244751Y-94699997D01*
X133068789Y-94699997D01*
X133050115Y-94498464D01*
X133050114Y-94498462D01*
X133038293Y-94456916D01*
X132989229Y-94284472D01*
X132983806Y-94273581D01*
X132890061Y-94085316D01*
X132890056Y-94085308D01*
X132755979Y-93907761D01*
X132591562Y-93757876D01*
X132591560Y-93757874D01*
X132402404Y-93640754D01*
X132402395Y-93640750D01*
X132308956Y-93604552D01*
X132208475Y-93565625D01*
X132153075Y-93523054D01*
X132129484Y-93457288D01*
X132145195Y-93389207D01*
X132195219Y-93340428D01*
X132208466Y-93334377D01*
X132402401Y-93259247D01*
X132591562Y-93142124D01*
X132755981Y-92992236D01*
X132890058Y-92814689D01*
X132989229Y-92615528D01*
X133050115Y-92401536D01*
X133070643Y-92180000D01*
X133067305Y-92143982D01*
X133050115Y-91958464D01*
X133050114Y-91958462D01*
X133048357Y-91952288D01*
X132989229Y-91744472D01*
X132967886Y-91701609D01*
X132890061Y-91545316D01*
X132890056Y-91545308D01*
X132755979Y-91367761D01*
X132591562Y-91217876D01*
X132591560Y-91217874D01*
X132402404Y-91100754D01*
X132402395Y-91100750D01*
X132291625Y-91057838D01*
X132208475Y-91025625D01*
X132153075Y-90983054D01*
X132129484Y-90917288D01*
X132145195Y-90849207D01*
X132195219Y-90800428D01*
X132208466Y-90794377D01*
X132402401Y-90719247D01*
X132591562Y-90602124D01*
X132755981Y-90452236D01*
X132890058Y-90274689D01*
X132989229Y-90075528D01*
X133050115Y-89861536D01*
X133070643Y-89640000D01*
X133050115Y-89418464D01*
X132989229Y-89204472D01*
X132957368Y-89140486D01*
X132890061Y-89005316D01*
X132890056Y-89005308D01*
X132755979Y-88827761D01*
X132591562Y-88677876D01*
X132591560Y-88677874D01*
X132402404Y-88560754D01*
X132402395Y-88560750D01*
X132308956Y-88524552D01*
X132208475Y-88485625D01*
X132153075Y-88443054D01*
X132129484Y-88377288D01*
X132145195Y-88309207D01*
X132195219Y-88260428D01*
X132208466Y-88254377D01*
X132402401Y-88179247D01*
X132591562Y-88062124D01*
X132755981Y-87912236D01*
X132890058Y-87734689D01*
X132989229Y-87535528D01*
X133050115Y-87321536D01*
X133070643Y-87100000D01*
X133050115Y-86878464D01*
X133027789Y-86799997D01*
X133744751Y-86799997D01*
X133744751Y-86800002D01*
X133763685Y-86968056D01*
X133819545Y-87127694D01*
X133819547Y-87127697D01*
X133909518Y-87270884D01*
X133909523Y-87270890D01*
X134029109Y-87390476D01*
X134029112Y-87390478D01*
X134036319Y-87395007D01*
X134082610Y-87447342D01*
X134093257Y-87516396D01*
X134064881Y-87580244D01*
X134036319Y-87604993D01*
X134029112Y-87609521D01*
X134029109Y-87609523D01*
X133909523Y-87729109D01*
X133909518Y-87729115D01*
X133819547Y-87872302D01*
X133819545Y-87872305D01*
X133763685Y-88031943D01*
X133744751Y-88199997D01*
X133744751Y-88200002D01*
X133763685Y-88368056D01*
X133819545Y-88527694D01*
X133819547Y-88527697D01*
X133909518Y-88670884D01*
X133909523Y-88670890D01*
X134029109Y-88790476D01*
X134029115Y-88790481D01*
X134172302Y-88880452D01*
X134172305Y-88880454D01*
X134172309Y-88880455D01*
X134172310Y-88880456D01*
X134244913Y-88905860D01*
X134331943Y-88936314D01*
X134499997Y-88955249D01*
X134500000Y-88955249D01*
X134500003Y-88955249D01*
X134668056Y-88936314D01*
X134668059Y-88936313D01*
X134827690Y-88880456D01*
X134827692Y-88880454D01*
X134827694Y-88880454D01*
X134827697Y-88880452D01*
X134970884Y-88790481D01*
X134970885Y-88790480D01*
X134970890Y-88790477D01*
X135090477Y-88670890D01*
X135102536Y-88651698D01*
X135180452Y-88527697D01*
X135180454Y-88527694D01*
X135180454Y-88527692D01*
X135180456Y-88527690D01*
X135236313Y-88368059D01*
X135236313Y-88368058D01*
X135236314Y-88368056D01*
X135255249Y-88200002D01*
X135255249Y-88199997D01*
X135236314Y-88031943D01*
X135180454Y-87872305D01*
X135180452Y-87872302D01*
X135090481Y-87729115D01*
X135090476Y-87729109D01*
X134970890Y-87609523D01*
X134970887Y-87609521D01*
X134963682Y-87604993D01*
X134917391Y-87552662D01*
X134906741Y-87483609D01*
X134935115Y-87419760D01*
X134963680Y-87395006D01*
X134970890Y-87390477D01*
X135090477Y-87270890D01*
X135146991Y-87180949D01*
X135180452Y-87127697D01*
X135180454Y-87127694D01*
X135180454Y-87127692D01*
X135180456Y-87127690D01*
X135236313Y-86968059D01*
X135236313Y-86968058D01*
X135236314Y-86968056D01*
X135255249Y-86800002D01*
X135255249Y-86799997D01*
X135236314Y-86631943D01*
X135183306Y-86480456D01*
X135180456Y-86472310D01*
X135180455Y-86472309D01*
X135180454Y-86472305D01*
X135180452Y-86472302D01*
X135090481Y-86329115D01*
X135090476Y-86329109D01*
X134970890Y-86209523D01*
X134970884Y-86209518D01*
X134827697Y-86119547D01*
X134827694Y-86119545D01*
X134668056Y-86063685D01*
X134500003Y-86044751D01*
X134499997Y-86044751D01*
X134331943Y-86063685D01*
X134172305Y-86119545D01*
X134172302Y-86119547D01*
X134029115Y-86209518D01*
X134029109Y-86209523D01*
X133909523Y-86329109D01*
X133909518Y-86329115D01*
X133819547Y-86472302D01*
X133819545Y-86472305D01*
X133763685Y-86631943D01*
X133744751Y-86799997D01*
X133027789Y-86799997D01*
X132989229Y-86664472D01*
X132989224Y-86664461D01*
X132890061Y-86465316D01*
X132890056Y-86465308D01*
X132755979Y-86287761D01*
X132591562Y-86137876D01*
X132591560Y-86137874D01*
X132402404Y-86020754D01*
X132402398Y-86020752D01*
X132194940Y-85940382D01*
X131976243Y-85899500D01*
X131753757Y-85899500D01*
X131535060Y-85940382D01*
X131463618Y-85968059D01*
X131327601Y-86020752D01*
X131327595Y-86020754D01*
X131138439Y-86137874D01*
X131138437Y-86137876D01*
X130974020Y-86287761D01*
X130839943Y-86465308D01*
X130839938Y-86465316D01*
X130760500Y-86624850D01*
X130712997Y-86676087D01*
X130645334Y-86693508D01*
X130578994Y-86671582D01*
X130535039Y-86617271D01*
X130525500Y-86569578D01*
X130525500Y-86216739D01*
X130515573Y-86148608D01*
X130515573Y-86148607D01*
X130464198Y-86043517D01*
X130464196Y-86043515D01*
X130464196Y-86043514D01*
X130381485Y-85960803D01*
X130372838Y-85956576D01*
X130276393Y-85909427D01*
X130276391Y-85909426D01*
X130208261Y-85899500D01*
X130208260Y-85899500D01*
X128441740Y-85899500D01*
X128441739Y-85899500D01*
X128373608Y-85909426D01*
X128268514Y-85960803D01*
X128185803Y-86043514D01*
X128134426Y-86148608D01*
X128124500Y-86216739D01*
X128124500Y-87983260D01*
X128134426Y-88051391D01*
X128185803Y-88156485D01*
X128268514Y-88239196D01*
X128268515Y-88239196D01*
X128268517Y-88239198D01*
X128373607Y-88290573D01*
X128407673Y-88295536D01*
X128441739Y-88300500D01*
X128796047Y-88300500D01*
X128863086Y-88320185D01*
X128908841Y-88372989D01*
X128918785Y-88442147D01*
X128889760Y-88505703D01*
X128840841Y-88540127D01*
X128787601Y-88560751D01*
X128787595Y-88560754D01*
X128598439Y-88677874D01*
X128598437Y-88677876D01*
X128434020Y-88827761D01*
X128299943Y-89005308D01*
X128299938Y-89005316D01*
X128200775Y-89204461D01*
X128200769Y-89204476D01*
X128139885Y-89418462D01*
X128139884Y-89418464D01*
X128119357Y-89639999D01*
X111925500Y-89639999D01*
X111925500Y-86516228D01*
X117549500Y-86516228D01*
X117549500Y-86683771D01*
X117582181Y-86848073D01*
X117582184Y-86848082D01*
X117646296Y-87002863D01*
X117646297Y-87002866D01*
X117739372Y-87142161D01*
X117739375Y-87142165D01*
X117857834Y-87260624D01*
X117857838Y-87260627D01*
X117997133Y-87353702D01*
X117997135Y-87353702D01*
X117997137Y-87353704D01*
X118151919Y-87417816D01*
X118151921Y-87417816D01*
X118151926Y-87417818D01*
X118316228Y-87450499D01*
X118316232Y-87450500D01*
X118316233Y-87450500D01*
X118483768Y-87450500D01*
X118483769Y-87450499D01*
X118538538Y-87439605D01*
X118648073Y-87417818D01*
X118648076Y-87417816D01*
X118648081Y-87417816D01*
X118802863Y-87353704D01*
X118942162Y-87260627D01*
X120515969Y-85686818D01*
X120577292Y-85653334D01*
X120603650Y-85650500D01*
X143796349Y-85650500D01*
X143863388Y-85670185D01*
X143884030Y-85686819D01*
X148957834Y-90760624D01*
X148957838Y-90760627D01*
X149097130Y-90853700D01*
X149097137Y-90853704D01*
X149200464Y-90896503D01*
X149251918Y-90917816D01*
X149416228Y-90950499D01*
X149416232Y-90950500D01*
X149416233Y-90950500D01*
X154196349Y-90950500D01*
X154263388Y-90970185D01*
X154284030Y-90986819D01*
X155213181Y-91915969D01*
X155246666Y-91977292D01*
X155249500Y-92003650D01*
X155249500Y-99983771D01*
X155272050Y-100097138D01*
X155282181Y-100148074D01*
X155282184Y-100148083D01*
X155346296Y-100302863D01*
X155346297Y-100302866D01*
X155439372Y-100442161D01*
X155439375Y-100442165D01*
X157757834Y-102760624D01*
X157757838Y-102760627D01*
X157897130Y-102853700D01*
X157897132Y-102853701D01*
X157897137Y-102853704D01*
X157998685Y-102895766D01*
X158051918Y-102917816D01*
X158216228Y-102950499D01*
X158216232Y-102950500D01*
X158216233Y-102950500D01*
X161683768Y-102950500D01*
X161683769Y-102950499D01*
X161848082Y-102917816D01*
X161901315Y-102895766D01*
X162002863Y-102853704D01*
X162142162Y-102760627D01*
X163860627Y-101042162D01*
X163953704Y-100902863D01*
X164017816Y-100748081D01*
X164021538Y-100729373D01*
X164050499Y-100583770D01*
X164050500Y-100583767D01*
X164050500Y-100416232D01*
X164050499Y-100416228D01*
X164017818Y-100251925D01*
X164017815Y-100251916D01*
X164015000Y-100245121D01*
X163984741Y-100172068D01*
X163953707Y-100097143D01*
X163953700Y-100097130D01*
X163860627Y-99957838D01*
X163860624Y-99957834D01*
X163742165Y-99839375D01*
X163742161Y-99839372D01*
X163602869Y-99746299D01*
X163602856Y-99746292D01*
X163448083Y-99682184D01*
X163448074Y-99682181D01*
X163283771Y-99649500D01*
X163283767Y-99649500D01*
X163116234Y-99649500D01*
X163116229Y-99649500D01*
X162951926Y-99682181D01*
X162951917Y-99682184D01*
X162797136Y-99746296D01*
X162797133Y-99746297D01*
X162657838Y-99839372D01*
X162657834Y-99839375D01*
X161284030Y-101213181D01*
X161222707Y-101246666D01*
X161196349Y-101249500D01*
X158703651Y-101249500D01*
X158636612Y-101229815D01*
X158615970Y-101213181D01*
X156986819Y-99584030D01*
X156953334Y-99522707D01*
X156950500Y-99496349D01*
X156950500Y-96500000D01*
X160994355Y-96500000D01*
X161014859Y-96668869D01*
X161014859Y-96668870D01*
X161026631Y-96699912D01*
X161041870Y-96740095D01*
X161045251Y-96749008D01*
X161049510Y-96762524D01*
X161055882Y-96787677D01*
X161055885Y-96787684D01*
X161105383Y-96900500D01*
X161264051Y-97262139D01*
X161274500Y-97311958D01*
X161274500Y-97543982D01*
X161274500Y-97656018D01*
X161303497Y-97764237D01*
X161359515Y-97861263D01*
X162059515Y-98561263D01*
X162138737Y-98640485D01*
X162186715Y-98668185D01*
X162235763Y-98696503D01*
X162343981Y-98725500D01*
X162343982Y-98725500D01*
X171030448Y-98725500D01*
X171097487Y-98745185D01*
X171118129Y-98761819D01*
X172217573Y-99861263D01*
X172296795Y-99940485D01*
X172393821Y-99996503D01*
X172502040Y-100025500D01*
X175372390Y-100025500D01*
X175439429Y-100045185D01*
X175460071Y-100061819D01*
X175624984Y-100226732D01*
X175652823Y-100269345D01*
X175667788Y-100307707D01*
X175667789Y-100307708D01*
X175672463Y-100319689D01*
X175672463Y-100319690D01*
X175841105Y-100751998D01*
X175842364Y-100755185D01*
X175842419Y-100755321D01*
X175842427Y-100755339D01*
X175842433Y-100755354D01*
X175852595Y-100778312D01*
X175852597Y-100778314D01*
X175852598Y-100778317D01*
X175855674Y-100783727D01*
X175855316Y-100783930D01*
X175866319Y-100804561D01*
X175875182Y-100827930D01*
X175971817Y-100967929D01*
X176073072Y-101057633D01*
X176099150Y-101080736D01*
X176215721Y-101141917D01*
X176249775Y-101159790D01*
X176414944Y-101200500D01*
X176585056Y-101200500D01*
X176750225Y-101159790D01*
X176829692Y-101118081D01*
X176900849Y-101080736D01*
X176900850Y-101080734D01*
X176900852Y-101080734D01*
X177028183Y-100967929D01*
X177124818Y-100827930D01*
X177185140Y-100668872D01*
X177205645Y-100500000D01*
X177185140Y-100331128D01*
X177124818Y-100172070D01*
X177108259Y-100148081D01*
X177073090Y-100097130D01*
X177028183Y-100032071D01*
X176900852Y-99919266D01*
X176900850Y-99919265D01*
X176900849Y-99919264D01*
X176900845Y-99919261D01*
X176755560Y-99843009D01*
X176753179Y-99841677D01*
X176752521Y-99841356D01*
X176750349Y-99840256D01*
X176743215Y-99837550D01*
X176743219Y-99837538D01*
X176741281Y-99836923D01*
X176666773Y-99807858D01*
X176666760Y-99807854D01*
X176269347Y-99652823D01*
X176226731Y-99624983D01*
X175861265Y-99259517D01*
X175861263Y-99259515D01*
X175764237Y-99203497D01*
X175656018Y-99174500D01*
X175656017Y-99174500D01*
X172785668Y-99174500D01*
X172718629Y-99154815D01*
X172697987Y-99138181D01*
X172658831Y-99099025D01*
X172625346Y-99037702D01*
X172630330Y-98968010D01*
X172672202Y-98912077D01*
X172737666Y-98887660D01*
X172776184Y-98890946D01*
X172814944Y-98900500D01*
X172814946Y-98900500D01*
X172985056Y-98900500D01*
X173150225Y-98859790D01*
X173264152Y-98799996D01*
X173300849Y-98780736D01*
X173300850Y-98780734D01*
X173300852Y-98780734D01*
X173428183Y-98667929D01*
X173524818Y-98527930D01*
X173585140Y-98368872D01*
X173605645Y-98200000D01*
X173585140Y-98031128D01*
X173524818Y-97872070D01*
X173522608Y-97868869D01*
X173450387Y-97764239D01*
X173428183Y-97732071D01*
X173314244Y-97631130D01*
X173300849Y-97619263D01*
X173150226Y-97540210D01*
X172985056Y-97499500D01*
X172814944Y-97499500D01*
X172649773Y-97540210D01*
X172499150Y-97619263D01*
X172371816Y-97732072D01*
X172275182Y-97872068D01*
X172214860Y-98031125D01*
X172214859Y-98031130D01*
X172194355Y-98200000D01*
X172211097Y-98337887D01*
X172199636Y-98406810D01*
X172152732Y-98458596D01*
X172085277Y-98476803D01*
X172018686Y-98455650D01*
X172000320Y-98440514D01*
X171519323Y-97959517D01*
X171519321Y-97959515D01*
X171422295Y-97903497D01*
X171314076Y-97874500D01*
X171314075Y-97874500D01*
X162627610Y-97874500D01*
X162560571Y-97854815D01*
X162539929Y-97838181D01*
X162161819Y-97460071D01*
X162128334Y-97398748D01*
X162125500Y-97372390D01*
X162125500Y-97311959D01*
X162135948Y-97262139D01*
X162154095Y-97220778D01*
X162344115Y-96787680D01*
X162345066Y-96785493D01*
X162345150Y-96785298D01*
X162346920Y-96780736D01*
X162348562Y-96776499D01*
X162354594Y-96760948D01*
X162356105Y-96752029D01*
X162362421Y-96728778D01*
X162385139Y-96668877D01*
X162385139Y-96668875D01*
X162385139Y-96668874D01*
X162385140Y-96668872D01*
X162405645Y-96500000D01*
X164794355Y-96500000D01*
X164814859Y-96668869D01*
X164814860Y-96668874D01*
X164875182Y-96827931D01*
X164925274Y-96900500D01*
X164971817Y-96967929D01*
X165076823Y-97060956D01*
X165099150Y-97080736D01*
X165249773Y-97159789D01*
X165249775Y-97159790D01*
X165414944Y-97200500D01*
X165585056Y-97200500D01*
X165750225Y-97159790D01*
X165865097Y-97099500D01*
X165900849Y-97080736D01*
X165900850Y-97080734D01*
X165900852Y-97080734D01*
X166028183Y-96967929D01*
X166124818Y-96827930D01*
X166185140Y-96668872D01*
X166205645Y-96500000D01*
X166185140Y-96331128D01*
X166135410Y-96200000D01*
X169594355Y-96200000D01*
X169614859Y-96368869D01*
X169614860Y-96368874D01*
X169675182Y-96527931D01*
X169707327Y-96574500D01*
X169771817Y-96667929D01*
X169840502Y-96728778D01*
X169899150Y-96780736D01*
X170042462Y-96855952D01*
X170049775Y-96859790D01*
X170214944Y-96900500D01*
X170385056Y-96900500D01*
X170550225Y-96859790D01*
X170629692Y-96818081D01*
X170700849Y-96780736D01*
X170700850Y-96780734D01*
X170700852Y-96780734D01*
X170828183Y-96667929D01*
X170924818Y-96527930D01*
X170985140Y-96368872D01*
X171005645Y-96200000D01*
X170985140Y-96031128D01*
X170924818Y-95872070D01*
X170920460Y-95865757D01*
X170874726Y-95799500D01*
X170828183Y-95732071D01*
X170700852Y-95619266D01*
X170700849Y-95619263D01*
X170550226Y-95540210D01*
X170385056Y-95499500D01*
X170214944Y-95499500D01*
X170049773Y-95540210D01*
X169899150Y-95619263D01*
X169771816Y-95732072D01*
X169675182Y-95872068D01*
X169614860Y-96031125D01*
X169614859Y-96031130D01*
X169594355Y-96200000D01*
X166135410Y-96200000D01*
X166124818Y-96172070D01*
X166121138Y-96166739D01*
X166074110Y-96098607D01*
X166028183Y-96032071D01*
X165924800Y-95940482D01*
X165900849Y-95919263D01*
X165750226Y-95840210D01*
X165585056Y-95799500D01*
X165414944Y-95799500D01*
X165249773Y-95840210D01*
X165099150Y-95919263D01*
X165011967Y-95996501D01*
X164972882Y-96031128D01*
X164971816Y-96032072D01*
X164875182Y-96172068D01*
X164814860Y-96331125D01*
X164814859Y-96331130D01*
X164794355Y-96500000D01*
X162405645Y-96500000D01*
X162385140Y-96331128D01*
X162324818Y-96172070D01*
X162321138Y-96166739D01*
X162274110Y-96098607D01*
X162228183Y-96032071D01*
X162124800Y-95940482D01*
X162100849Y-95919263D01*
X161950226Y-95840210D01*
X161785056Y-95799500D01*
X161614944Y-95799500D01*
X161449773Y-95840210D01*
X161299150Y-95919263D01*
X161211967Y-95996501D01*
X161172882Y-96031128D01*
X161171816Y-96032072D01*
X161075182Y-96172068D01*
X161014860Y-96331125D01*
X161014859Y-96331130D01*
X160994355Y-96500000D01*
X156950500Y-96500000D01*
X156950500Y-92800000D01*
X160994355Y-92800000D01*
X161010839Y-92935763D01*
X161014860Y-92968872D01*
X161043345Y-93043981D01*
X161075182Y-93127931D01*
X161097367Y-93160071D01*
X161171817Y-93267929D01*
X161253652Y-93340428D01*
X161299150Y-93380736D01*
X161445008Y-93457288D01*
X161449775Y-93459790D01*
X161614944Y-93500500D01*
X161785056Y-93500500D01*
X161950225Y-93459790D01*
X162072381Y-93395677D01*
X162100849Y-93380736D01*
X162100850Y-93380734D01*
X162100852Y-93380734D01*
X162228183Y-93267929D01*
X162324818Y-93127930D01*
X162385140Y-92968872D01*
X162405645Y-92800000D01*
X162385140Y-92631128D01*
X162324818Y-92472070D01*
X162318749Y-92463278D01*
X162276132Y-92401537D01*
X162228183Y-92332071D01*
X162114244Y-92231130D01*
X162100849Y-92219263D01*
X161950226Y-92140210D01*
X161785056Y-92099500D01*
X161614944Y-92099500D01*
X161449773Y-92140210D01*
X161299150Y-92219263D01*
X161171816Y-92332072D01*
X161075182Y-92472068D01*
X161014860Y-92631125D01*
X161014859Y-92631130D01*
X160994355Y-92800000D01*
X156950500Y-92800000D01*
X156950500Y-91516232D01*
X156950499Y-91516228D01*
X156920967Y-91367761D01*
X156917816Y-91351918D01*
X156868227Y-91232201D01*
X156853704Y-91197139D01*
X156760627Y-91057839D01*
X156722360Y-91019572D01*
X156642162Y-90939374D01*
X156304911Y-90602123D01*
X155142165Y-89439375D01*
X155142161Y-89439372D01*
X155002866Y-89346297D01*
X155002863Y-89346296D01*
X154893416Y-89300962D01*
X154893414Y-89300961D01*
X154848086Y-89282185D01*
X154848074Y-89282182D01*
X154683771Y-89249500D01*
X154683767Y-89249500D01*
X149903651Y-89249500D01*
X149836612Y-89229815D01*
X149815970Y-89213181D01*
X144742165Y-84139375D01*
X144742161Y-84139372D01*
X144602866Y-84046297D01*
X144602863Y-84046296D01*
X144493416Y-84000962D01*
X144493414Y-84000961D01*
X144448086Y-83982185D01*
X144448074Y-83982182D01*
X144283771Y-83949500D01*
X144283767Y-83949500D01*
X120116233Y-83949500D01*
X120116228Y-83949500D01*
X119951925Y-83982182D01*
X119951917Y-83982184D01*
X119822568Y-84035763D01*
X119797138Y-84046296D01*
X119657837Y-84139373D01*
X119657834Y-84139376D01*
X117739375Y-86057834D01*
X117739372Y-86057838D01*
X117646297Y-86197133D01*
X117646296Y-86197136D01*
X117582184Y-86351917D01*
X117582181Y-86351926D01*
X117549500Y-86516228D01*
X111925500Y-86516228D01*
X111925500Y-81709030D01*
X116249500Y-81709030D01*
X116249500Y-81915969D01*
X116289868Y-82118912D01*
X116289870Y-82118920D01*
X116369059Y-82310098D01*
X116381766Y-82329115D01*
X116484024Y-82482157D01*
X116630342Y-82628475D01*
X116630345Y-82628477D01*
X116802402Y-82743441D01*
X116993580Y-82822630D01*
X117196530Y-82862999D01*
X117196534Y-82863000D01*
X117196535Y-82863000D01*
X119603466Y-82863000D01*
X119603467Y-82862999D01*
X119806420Y-82822630D01*
X119997598Y-82743441D01*
X120169655Y-82628477D01*
X120315977Y-82482155D01*
X120430941Y-82310098D01*
X120510130Y-82118920D01*
X120550500Y-81915965D01*
X120550500Y-81809030D01*
X128449500Y-81809030D01*
X128449500Y-82015969D01*
X128489868Y-82218912D01*
X128489870Y-82218920D01*
X128535514Y-82329115D01*
X128569059Y-82410098D01*
X128615406Y-82479461D01*
X128684024Y-82582157D01*
X128830342Y-82728475D01*
X128830345Y-82728477D01*
X129002402Y-82843441D01*
X129193580Y-82922630D01*
X129366205Y-82956967D01*
X129396530Y-82962999D01*
X129396534Y-82963000D01*
X129396535Y-82963000D01*
X131803466Y-82963000D01*
X131803467Y-82962999D01*
X132006420Y-82922630D01*
X132197598Y-82843441D01*
X132369655Y-82728477D01*
X132515977Y-82582155D01*
X132630941Y-82410098D01*
X132710130Y-82218920D01*
X132750500Y-82015965D01*
X132750500Y-81809035D01*
X132710130Y-81606080D01*
X132630941Y-81414902D01*
X132515977Y-81242845D01*
X132515975Y-81242842D01*
X132369657Y-81096524D01*
X132261991Y-81024585D01*
X132197598Y-80981559D01*
X132006420Y-80902370D01*
X132006412Y-80902368D01*
X131803469Y-80862000D01*
X131803465Y-80862000D01*
X129396535Y-80862000D01*
X129396530Y-80862000D01*
X129193587Y-80902368D01*
X129193579Y-80902370D01*
X129002403Y-80981558D01*
X128830342Y-81096524D01*
X128684024Y-81242842D01*
X128569058Y-81414903D01*
X128489870Y-81606079D01*
X128489868Y-81606087D01*
X128449500Y-81809030D01*
X120550500Y-81809030D01*
X120550500Y-81709035D01*
X120510130Y-81506080D01*
X120430941Y-81314902D01*
X120315977Y-81142845D01*
X120315975Y-81142842D01*
X120169657Y-80996524D01*
X120028741Y-80902368D01*
X119997598Y-80881559D01*
X119806420Y-80802370D01*
X119806412Y-80802368D01*
X119603469Y-80762000D01*
X119603465Y-80762000D01*
X117196535Y-80762000D01*
X117196530Y-80762000D01*
X116993587Y-80802368D01*
X116993579Y-80802370D01*
X116802403Y-80881558D01*
X116630342Y-80996524D01*
X116484024Y-81142842D01*
X116369058Y-81314903D01*
X116289870Y-81506079D01*
X116289868Y-81506087D01*
X116249500Y-81709030D01*
X111925500Y-81709030D01*
X111925500Y-77618052D01*
X112400000Y-77618052D01*
X112400000Y-78562500D01*
X113200000Y-78562500D01*
X113200000Y-79062500D01*
X112400000Y-79062500D01*
X112400000Y-80006947D01*
X112429548Y-80193502D01*
X112487914Y-80373137D01*
X112573670Y-80541440D01*
X112684685Y-80694241D01*
X112684689Y-80694246D01*
X112818253Y-80827810D01*
X112818258Y-80827814D01*
X112971059Y-80938829D01*
X113139362Y-81024585D01*
X113318997Y-81082951D01*
X113350000Y-81087862D01*
X113350000Y-80228186D01*
X113354394Y-80232580D01*
X113445606Y-80285241D01*
X113547339Y-80312500D01*
X113652661Y-80312500D01*
X113754394Y-80285241D01*
X113845606Y-80232580D01*
X113850000Y-80228186D01*
X113850000Y-81087861D01*
X113881002Y-81082951D01*
X114060637Y-81024585D01*
X114228940Y-80938829D01*
X114381741Y-80827814D01*
X114381746Y-80827810D01*
X114515310Y-80694246D01*
X114515314Y-80694241D01*
X114626329Y-80541440D01*
X114712085Y-80373137D01*
X114770451Y-80193502D01*
X114800000Y-80006947D01*
X114800000Y-79062500D01*
X114000000Y-79062500D01*
X114000000Y-78562500D01*
X114800000Y-78562500D01*
X114800000Y-77718052D01*
X124600000Y-77718052D01*
X124600000Y-78662500D01*
X125400000Y-78662500D01*
X125400000Y-79162500D01*
X124600000Y-79162500D01*
X124600000Y-80106947D01*
X124629548Y-80293502D01*
X124687914Y-80473137D01*
X124773670Y-80641440D01*
X124884685Y-80794241D01*
X124884689Y-80794246D01*
X125018253Y-80927810D01*
X125018258Y-80927814D01*
X125171059Y-81038829D01*
X125339362Y-81124585D01*
X125518997Y-81182951D01*
X125550000Y-81187862D01*
X125550000Y-80328186D01*
X125554394Y-80332580D01*
X125645606Y-80385241D01*
X125747339Y-80412500D01*
X125852661Y-80412500D01*
X125954394Y-80385241D01*
X126045606Y-80332580D01*
X126050000Y-80328186D01*
X126050000Y-81187861D01*
X126081002Y-81182951D01*
X126260637Y-81124585D01*
X126428940Y-81038829D01*
X126581741Y-80927814D01*
X126581746Y-80927810D01*
X126715310Y-80794246D01*
X126715314Y-80794241D01*
X126826329Y-80641440D01*
X126912085Y-80473137D01*
X126970451Y-80293502D01*
X127000000Y-80106947D01*
X127000000Y-79162500D01*
X126200000Y-79162500D01*
X126200000Y-78662500D01*
X127000000Y-78662500D01*
X127000000Y-77718052D01*
X126970451Y-77531497D01*
X126912085Y-77351862D01*
X126826329Y-77183559D01*
X126715314Y-77030758D01*
X126715310Y-77030753D01*
X126581746Y-76897189D01*
X126581741Y-76897185D01*
X126428940Y-76786170D01*
X126260635Y-76700413D01*
X126081004Y-76642049D01*
X126080995Y-76642047D01*
X126050000Y-76637137D01*
X126050000Y-77496814D01*
X126045606Y-77492420D01*
X125954394Y-77439759D01*
X125852661Y-77412500D01*
X125747339Y-77412500D01*
X125645606Y-77439759D01*
X125554394Y-77492420D01*
X125550000Y-77496814D01*
X125550000Y-76637137D01*
X125549999Y-76637137D01*
X125519004Y-76642047D01*
X125518995Y-76642049D01*
X125339364Y-76700413D01*
X125171059Y-76786170D01*
X125018258Y-76897185D01*
X125018253Y-76897189D01*
X124884689Y-77030753D01*
X124884685Y-77030758D01*
X124773670Y-77183559D01*
X124687914Y-77351862D01*
X124629548Y-77531497D01*
X124600000Y-77718052D01*
X114800000Y-77718052D01*
X114800000Y-77618052D01*
X114770451Y-77431497D01*
X114712085Y-77251862D01*
X114626329Y-77083559D01*
X114515314Y-76930758D01*
X114515310Y-76930753D01*
X114381746Y-76797189D01*
X114381741Y-76797185D01*
X114228940Y-76686170D01*
X114060635Y-76600413D01*
X113881004Y-76542049D01*
X113880995Y-76542047D01*
X113850000Y-76537137D01*
X113850000Y-77396814D01*
X113845606Y-77392420D01*
X113754394Y-77339759D01*
X113652661Y-77312500D01*
X113547339Y-77312500D01*
X113445606Y-77339759D01*
X113354394Y-77392420D01*
X113350000Y-77396814D01*
X113350000Y-76537137D01*
X113349999Y-76537137D01*
X113319004Y-76542047D01*
X113318995Y-76542049D01*
X113139364Y-76600413D01*
X112971059Y-76686170D01*
X112818258Y-76797185D01*
X112818253Y-76797189D01*
X112684689Y-76930753D01*
X112684685Y-76930758D01*
X112573670Y-77083559D01*
X112487914Y-77251862D01*
X112429548Y-77431497D01*
X112400000Y-77618052D01*
X111925500Y-77618052D01*
X111925500Y-75827610D01*
X111945185Y-75760571D01*
X111961819Y-75739929D01*
X112389248Y-75312500D01*
X116124638Y-75312500D01*
X116984314Y-75312500D01*
X116979920Y-75316894D01*
X116927259Y-75408106D01*
X116900000Y-75509839D01*
X116900000Y-75615161D01*
X116927259Y-75716894D01*
X116979920Y-75808106D01*
X116984314Y-75812500D01*
X116124638Y-75812500D01*
X116129548Y-75843502D01*
X116187914Y-76023137D01*
X116273670Y-76191440D01*
X116384685Y-76344241D01*
X116384689Y-76344246D01*
X116518253Y-76477810D01*
X116518258Y-76477814D01*
X116671059Y-76588829D01*
X116839362Y-76674585D01*
X117018997Y-76732951D01*
X117205553Y-76762500D01*
X118150000Y-76762500D01*
X118150000Y-75962500D01*
X118650000Y-75962500D01*
X118650000Y-76762500D01*
X119594447Y-76762500D01*
X119781002Y-76732951D01*
X119960637Y-76674585D01*
X120128940Y-76588829D01*
X120281741Y-76477814D01*
X120281746Y-76477810D01*
X120415310Y-76344246D01*
X120415314Y-76344241D01*
X120526329Y-76191440D01*
X120612085Y-76023137D01*
X120670451Y-75843502D01*
X120675362Y-75812500D01*
X119815686Y-75812500D01*
X119820080Y-75808106D01*
X119872741Y-75716894D01*
X119900000Y-75615161D01*
X119900000Y-75509839D01*
X119872741Y-75408106D01*
X119820080Y-75316894D01*
X119815686Y-75312500D01*
X120675362Y-75312500D01*
X120670451Y-75281497D01*
X120612085Y-75101862D01*
X120526329Y-74933559D01*
X120415314Y-74780758D01*
X120415310Y-74780753D01*
X120281746Y-74647189D01*
X120281741Y-74647185D01*
X120128940Y-74536170D01*
X119960637Y-74450414D01*
X119781002Y-74392048D01*
X119594447Y-74362500D01*
X118650000Y-74362500D01*
X118650000Y-75162500D01*
X118150000Y-75162500D01*
X118150000Y-74362500D01*
X117205553Y-74362500D01*
X117018997Y-74392048D01*
X116839362Y-74450414D01*
X116671059Y-74536170D01*
X116518258Y-74647185D01*
X116518253Y-74647189D01*
X116384689Y-74780753D01*
X116384685Y-74780758D01*
X116273670Y-74933559D01*
X116187914Y-75101862D01*
X116129548Y-75281497D01*
X116124638Y-75312500D01*
X112389248Y-75312500D01*
X113839929Y-73861819D01*
X113901252Y-73828334D01*
X113927610Y-73825500D01*
X124272390Y-73825500D01*
X124339429Y-73845185D01*
X124360071Y-73861819D01*
X129759515Y-79261263D01*
X129838737Y-79340485D01*
X129935763Y-79396503D01*
X130043982Y-79425500D01*
X130043984Y-79425500D01*
X136356016Y-79425500D01*
X136356018Y-79425500D01*
X136464237Y-79396503D01*
X136561263Y-79340485D01*
X138551749Y-77349999D01*
X147769464Y-77349999D01*
X147769464Y-77350000D01*
X147789564Y-77566918D01*
X147789564Y-77566920D01*
X147789565Y-77566923D01*
X147805837Y-77624112D01*
X147828439Y-77703553D01*
X147849183Y-77776459D01*
X147867680Y-77813607D01*
X147874756Y-77831013D01*
X147877565Y-77839776D01*
X148510738Y-79069156D01*
X148524500Y-79125932D01*
X148524500Y-84693982D01*
X148524500Y-84806018D01*
X148553497Y-84914237D01*
X148609515Y-85011263D01*
X151959515Y-88361263D01*
X152038737Y-88440485D01*
X152107841Y-88480382D01*
X152135763Y-88496503D01*
X152243981Y-88525500D01*
X152243982Y-88525500D01*
X156072390Y-88525500D01*
X156139429Y-88545185D01*
X156160071Y-88561819D01*
X156659515Y-89061263D01*
X156738737Y-89140485D01*
X156835763Y-89196503D01*
X156943981Y-89225500D01*
X156943982Y-89225500D01*
X168072390Y-89225500D01*
X168139429Y-89245185D01*
X168160071Y-89261819D01*
X169538181Y-90639929D01*
X169571666Y-90701252D01*
X169574500Y-90727610D01*
X169574500Y-93243982D01*
X169574500Y-93356018D01*
X169603497Y-93464237D01*
X169659515Y-93561263D01*
X169659517Y-93561265D01*
X170824984Y-94726732D01*
X170852823Y-94769346D01*
X170867788Y-94807707D01*
X170867789Y-94807708D01*
X171041105Y-95251998D01*
X171042364Y-95255185D01*
X171042419Y-95255321D01*
X171042427Y-95255339D01*
X171042433Y-95255354D01*
X171052595Y-95278312D01*
X171052597Y-95278314D01*
X171052598Y-95278317D01*
X171055674Y-95283727D01*
X171055316Y-95283930D01*
X171066319Y-95304561D01*
X171075182Y-95327930D01*
X171171817Y-95467929D01*
X171239546Y-95527931D01*
X171299150Y-95580736D01*
X171449773Y-95659789D01*
X171449775Y-95659790D01*
X171614944Y-95700500D01*
X171785056Y-95700500D01*
X171950225Y-95659790D01*
X172029692Y-95618081D01*
X172100849Y-95580736D01*
X172100850Y-95580734D01*
X172100852Y-95580734D01*
X172228183Y-95467929D01*
X172324818Y-95327930D01*
X172373335Y-95200000D01*
X177594355Y-95200000D01*
X177614859Y-95368869D01*
X177614860Y-95368874D01*
X177675182Y-95527931D01*
X177713823Y-95583911D01*
X177771817Y-95667929D01*
X177844219Y-95732071D01*
X177899150Y-95780736D01*
X178030169Y-95849500D01*
X178049775Y-95859790D01*
X178214944Y-95900500D01*
X178385056Y-95900500D01*
X178550225Y-95859790D01*
X178629692Y-95818081D01*
X178700849Y-95780736D01*
X178700850Y-95780734D01*
X178700852Y-95780734D01*
X178828183Y-95667929D01*
X178924818Y-95527930D01*
X178985140Y-95368872D01*
X179005645Y-95200000D01*
X178985140Y-95031128D01*
X178973334Y-94999999D01*
X178924817Y-94872068D01*
X178853912Y-94769346D01*
X178828183Y-94732071D01*
X178700852Y-94619266D01*
X178700849Y-94619263D01*
X178550226Y-94540210D01*
X178385056Y-94499500D01*
X178214944Y-94499500D01*
X178049773Y-94540210D01*
X177899150Y-94619263D01*
X177771816Y-94732072D01*
X177675182Y-94872068D01*
X177614860Y-95031125D01*
X177614859Y-95031130D01*
X177594355Y-95200000D01*
X172373335Y-95200000D01*
X172385140Y-95168872D01*
X172405645Y-95000000D01*
X172385140Y-94831128D01*
X172324818Y-94672070D01*
X172228183Y-94532071D01*
X172100852Y-94419266D01*
X172100850Y-94419265D01*
X172100849Y-94419264D01*
X172100845Y-94419261D01*
X171955560Y-94343009D01*
X171953179Y-94341677D01*
X171952521Y-94341356D01*
X171950349Y-94340256D01*
X171943215Y-94337550D01*
X171943219Y-94337538D01*
X171941281Y-94336923D01*
X171866773Y-94307858D01*
X171866760Y-94307854D01*
X171847908Y-94300500D01*
X171664916Y-94229115D01*
X171469348Y-94152824D01*
X171426732Y-94124984D01*
X170461819Y-93160071D01*
X170428334Y-93098748D01*
X170425500Y-93072390D01*
X170425500Y-90443984D01*
X170425500Y-90443982D01*
X170396503Y-90335763D01*
X170340485Y-90238737D01*
X170261263Y-90159515D01*
X168561263Y-88459515D01*
X168464237Y-88403497D01*
X168356018Y-88374500D01*
X168356017Y-88374500D01*
X157227610Y-88374500D01*
X157160571Y-88354815D01*
X157139929Y-88338181D01*
X156561265Y-87759517D01*
X156561263Y-87759515D01*
X156496579Y-87722169D01*
X156464239Y-87703498D01*
X156464238Y-87703497D01*
X156464237Y-87703497D01*
X156356018Y-87674500D01*
X156356017Y-87674500D01*
X152527610Y-87674500D01*
X152460571Y-87654815D01*
X152439929Y-87638181D01*
X152301748Y-87500000D01*
X171894355Y-87500000D01*
X171914859Y-87668869D01*
X171914860Y-87668874D01*
X171975182Y-87827931D01*
X172033375Y-87912236D01*
X172071817Y-87967929D01*
X172166029Y-88051393D01*
X172199150Y-88080736D01*
X172343474Y-88156483D01*
X172349775Y-88159790D01*
X172514944Y-88200500D01*
X172685056Y-88200500D01*
X172850225Y-88159790D01*
X172959221Y-88102584D01*
X173000849Y-88080736D01*
X173000850Y-88080734D01*
X173000852Y-88080734D01*
X173128183Y-87967929D01*
X173224818Y-87827930D01*
X173285140Y-87668872D01*
X173305645Y-87500000D01*
X173285140Y-87331128D01*
X173224818Y-87172070D01*
X173212966Y-87154900D01*
X173175071Y-87100000D01*
X173128183Y-87032071D01*
X173000852Y-86919266D01*
X173000849Y-86919263D01*
X172850226Y-86840210D01*
X172685056Y-86799500D01*
X172514944Y-86799500D01*
X172349773Y-86840210D01*
X172199150Y-86919263D01*
X172071816Y-87032072D01*
X171975182Y-87172068D01*
X171914860Y-87331125D01*
X171914859Y-87331130D01*
X171894355Y-87500000D01*
X152301748Y-87500000D01*
X149411819Y-84610071D01*
X149378334Y-84548748D01*
X149375500Y-84522390D01*
X149375500Y-79125932D01*
X149389262Y-79069156D01*
X149600067Y-78659852D01*
X150008471Y-77866884D01*
X150056665Y-77816300D01*
X150124559Y-77799800D01*
X150190595Y-77822626D01*
X150231090Y-77871257D01*
X150298132Y-78015030D01*
X150353023Y-78093422D01*
X150926212Y-77520233D01*
X150937482Y-77562292D01*
X151009890Y-77687708D01*
X151112292Y-77790110D01*
X151237708Y-77862518D01*
X151279765Y-77873787D01*
X150706576Y-78446975D01*
X150784969Y-78501867D01*
X150995090Y-78599847D01*
X150995099Y-78599851D01*
X151219031Y-78659852D01*
X151219041Y-78659854D01*
X151449999Y-78680061D01*
X151450001Y-78680061D01*
X151680958Y-78659854D01*
X151680968Y-78659852D01*
X151904900Y-78599851D01*
X151904909Y-78599847D01*
X152115030Y-78501867D01*
X152115034Y-78501865D01*
X152193422Y-78446976D01*
X152193422Y-78446975D01*
X151620235Y-77873787D01*
X151662292Y-77862518D01*
X151787708Y-77790110D01*
X151890110Y-77687708D01*
X151962518Y-77562292D01*
X151973787Y-77520234D01*
X152546975Y-78093421D01*
X152548925Y-78090638D01*
X152603502Y-78047013D01*
X152673001Y-78039821D01*
X152735356Y-78071343D01*
X152770769Y-78131573D01*
X152774500Y-78161762D01*
X152774500Y-78208260D01*
X152784426Y-78276391D01*
X152835803Y-78381485D01*
X152918514Y-78464196D01*
X152918515Y-78464196D01*
X152918517Y-78464198D01*
X153023607Y-78515573D01*
X153057673Y-78520536D01*
X153091739Y-78525500D01*
X153091740Y-78525500D01*
X154808261Y-78525500D01*
X154830971Y-78522191D01*
X154876393Y-78515573D01*
X154981483Y-78464198D01*
X155064198Y-78381483D01*
X155115573Y-78276393D01*
X155125500Y-78208260D01*
X155125500Y-77349999D01*
X159219464Y-77349999D01*
X159219464Y-77350000D01*
X159239564Y-77566918D01*
X159239564Y-77566920D01*
X159239565Y-77566923D01*
X159299183Y-77776458D01*
X159299184Y-77776462D01*
X159330710Y-77839774D01*
X159396288Y-77971472D01*
X159527573Y-78145322D01*
X159688568Y-78292088D01*
X159688575Y-78292092D01*
X159688576Y-78292093D01*
X159873786Y-78406770D01*
X159873792Y-78406773D01*
X159896664Y-78415633D01*
X160076931Y-78485470D01*
X160291074Y-78525500D01*
X160291076Y-78525500D01*
X160508924Y-78525500D01*
X160508926Y-78525500D01*
X160723069Y-78485470D01*
X160926210Y-78406772D01*
X161111432Y-78292088D01*
X161272427Y-78145322D01*
X161403712Y-77971472D01*
X161456418Y-77865623D01*
X161503920Y-77814387D01*
X161571583Y-77796965D01*
X161637924Y-77818890D01*
X161679800Y-77868490D01*
X161748133Y-78015030D01*
X161803023Y-78093422D01*
X162376212Y-77520233D01*
X162387482Y-77562292D01*
X162459890Y-77687708D01*
X162562292Y-77790110D01*
X162687708Y-77862518D01*
X162729765Y-77873787D01*
X162156576Y-78446975D01*
X162234969Y-78501867D01*
X162445090Y-78599847D01*
X162445099Y-78599851D01*
X162669031Y-78659852D01*
X162669041Y-78659854D01*
X162899999Y-78680061D01*
X162900001Y-78680061D01*
X163130958Y-78659854D01*
X163130968Y-78659852D01*
X163354900Y-78599851D01*
X163354909Y-78599847D01*
X163565030Y-78501867D01*
X163565034Y-78501865D01*
X163643422Y-78446976D01*
X163643422Y-78446975D01*
X163070235Y-77873787D01*
X163112292Y-77862518D01*
X163237708Y-77790110D01*
X163340110Y-77687708D01*
X163412518Y-77562292D01*
X163423787Y-77520234D01*
X163996975Y-78093421D01*
X163998925Y-78090638D01*
X164053502Y-78047013D01*
X164123001Y-78039821D01*
X164185356Y-78071343D01*
X164220769Y-78131573D01*
X164224500Y-78161762D01*
X164224500Y-78208260D01*
X164234426Y-78276391D01*
X164285803Y-78381485D01*
X164368514Y-78464196D01*
X164368515Y-78464196D01*
X164368517Y-78464198D01*
X164473607Y-78515573D01*
X164507673Y-78520536D01*
X164541739Y-78525500D01*
X164541740Y-78525500D01*
X166258261Y-78525500D01*
X166280971Y-78522191D01*
X166326393Y-78515573D01*
X166431483Y-78464198D01*
X166514198Y-78381483D01*
X166565573Y-78276393D01*
X166575500Y-78208260D01*
X166575500Y-77349999D01*
X170669464Y-77349999D01*
X170669464Y-77350000D01*
X170689564Y-77566918D01*
X170689564Y-77566920D01*
X170689565Y-77566923D01*
X170749183Y-77776458D01*
X170749184Y-77776462D01*
X170780710Y-77839774D01*
X170846288Y-77971472D01*
X170977573Y-78145322D01*
X171138568Y-78292088D01*
X171138575Y-78292092D01*
X171138576Y-78292093D01*
X171323786Y-78406770D01*
X171323792Y-78406773D01*
X171346664Y-78415633D01*
X171526931Y-78485470D01*
X171741074Y-78525500D01*
X171741076Y-78525500D01*
X171958924Y-78525500D01*
X171958926Y-78525500D01*
X172173069Y-78485470D01*
X172376210Y-78406772D01*
X172561432Y-78292088D01*
X172722427Y-78145322D01*
X172853712Y-77971472D01*
X172906418Y-77865623D01*
X172953920Y-77814387D01*
X173021583Y-77796965D01*
X173087924Y-77818890D01*
X173129800Y-77868490D01*
X173198133Y-78015030D01*
X173253023Y-78093422D01*
X173826212Y-77520233D01*
X173837482Y-77562292D01*
X173909890Y-77687708D01*
X174012292Y-77790110D01*
X174137708Y-77862518D01*
X174179765Y-77873787D01*
X173606576Y-78446975D01*
X173684969Y-78501867D01*
X173895090Y-78599847D01*
X173895099Y-78599851D01*
X174119031Y-78659852D01*
X174119041Y-78659854D01*
X174349999Y-78680061D01*
X174350001Y-78680061D01*
X174580958Y-78659854D01*
X174580968Y-78659852D01*
X174804900Y-78599851D01*
X174804909Y-78599847D01*
X175015030Y-78501867D01*
X175015034Y-78501865D01*
X175093422Y-78446976D01*
X175093422Y-78446975D01*
X174520235Y-77873787D01*
X174562292Y-77862518D01*
X174687708Y-77790110D01*
X174790110Y-77687708D01*
X174862518Y-77562292D01*
X174873787Y-77520234D01*
X175446975Y-78093421D01*
X175448925Y-78090638D01*
X175503502Y-78047013D01*
X175573001Y-78039821D01*
X175635356Y-78071343D01*
X175670769Y-78131573D01*
X175674500Y-78161762D01*
X175674500Y-78208260D01*
X175684426Y-78276391D01*
X175735803Y-78381485D01*
X175818514Y-78464196D01*
X175818515Y-78464196D01*
X175818517Y-78464198D01*
X175923607Y-78515573D01*
X175957673Y-78520536D01*
X175991739Y-78525500D01*
X175991740Y-78525500D01*
X177708261Y-78525500D01*
X177730971Y-78522191D01*
X177776393Y-78515573D01*
X177881483Y-78464198D01*
X177964198Y-78381483D01*
X178015573Y-78276393D01*
X178025500Y-78208260D01*
X178025500Y-76491740D01*
X178015573Y-76423607D01*
X177964198Y-76318517D01*
X177964196Y-76318515D01*
X177964196Y-76318514D01*
X177881485Y-76235803D01*
X177776391Y-76184426D01*
X177708261Y-76174500D01*
X177708260Y-76174500D01*
X175991740Y-76174500D01*
X175991739Y-76174500D01*
X175923608Y-76184426D01*
X175818514Y-76235803D01*
X175735803Y-76318514D01*
X175684426Y-76423608D01*
X175674500Y-76491739D01*
X175674500Y-76538237D01*
X175654815Y-76605276D01*
X175602011Y-76651031D01*
X175532853Y-76660975D01*
X175469297Y-76631950D01*
X175448925Y-76609360D01*
X175446976Y-76606577D01*
X175446975Y-76606576D01*
X174873787Y-77179764D01*
X174862518Y-77137708D01*
X174790110Y-77012292D01*
X174687708Y-76909890D01*
X174562292Y-76837482D01*
X174520234Y-76826212D01*
X175093422Y-76253023D01*
X175015030Y-76198133D01*
X174804909Y-76100152D01*
X174804900Y-76100148D01*
X174580968Y-76040147D01*
X174580958Y-76040145D01*
X174350001Y-76019939D01*
X174349999Y-76019939D01*
X174119041Y-76040145D01*
X174119031Y-76040147D01*
X173895099Y-76100148D01*
X173895090Y-76100152D01*
X173684967Y-76198134D01*
X173606576Y-76253022D01*
X174179766Y-76826212D01*
X174137708Y-76837482D01*
X174012292Y-76909890D01*
X173909890Y-77012292D01*
X173837482Y-77137708D01*
X173826212Y-77179765D01*
X173253023Y-76606576D01*
X173253022Y-76606576D01*
X173198134Y-76684967D01*
X173129800Y-76831509D01*
X173083627Y-76883948D01*
X173016434Y-76903100D01*
X172949553Y-76882884D01*
X172906418Y-76834376D01*
X172853712Y-76728528D01*
X172722427Y-76554678D01*
X172708571Y-76542047D01*
X172561433Y-76407913D01*
X172561423Y-76407906D01*
X172376213Y-76293229D01*
X172376207Y-76293226D01*
X172291113Y-76260260D01*
X172173069Y-76214530D01*
X171958926Y-76174500D01*
X171741074Y-76174500D01*
X171526931Y-76214530D01*
X171478130Y-76233435D01*
X171323792Y-76293226D01*
X171323786Y-76293229D01*
X171138576Y-76407906D01*
X171138566Y-76407913D01*
X170977574Y-76554676D01*
X170846288Y-76728527D01*
X170749184Y-76923537D01*
X170689564Y-77133081D01*
X170669464Y-77349999D01*
X166575500Y-77349999D01*
X166575500Y-76491740D01*
X166565573Y-76423607D01*
X166514198Y-76318517D01*
X166514196Y-76318515D01*
X166514196Y-76318514D01*
X166431485Y-76235803D01*
X166326391Y-76184426D01*
X166258261Y-76174500D01*
X166258260Y-76174500D01*
X164541740Y-76174500D01*
X164541739Y-76174500D01*
X164473608Y-76184426D01*
X164368514Y-76235803D01*
X164285803Y-76318514D01*
X164234426Y-76423608D01*
X164224500Y-76491739D01*
X164224500Y-76538237D01*
X164204815Y-76605276D01*
X164152011Y-76651031D01*
X164082853Y-76660975D01*
X164019297Y-76631950D01*
X163998925Y-76609360D01*
X163996976Y-76606577D01*
X163996975Y-76606576D01*
X163423787Y-77179764D01*
X163412518Y-77137708D01*
X163340110Y-77012292D01*
X163237708Y-76909890D01*
X163112292Y-76837482D01*
X163070234Y-76826212D01*
X163643422Y-76253023D01*
X163565030Y-76198133D01*
X163354909Y-76100152D01*
X163354900Y-76100148D01*
X163130968Y-76040147D01*
X163130958Y-76040145D01*
X162900001Y-76019939D01*
X162899999Y-76019939D01*
X162669041Y-76040145D01*
X162669031Y-76040147D01*
X162445099Y-76100148D01*
X162445090Y-76100152D01*
X162234967Y-76198134D01*
X162156576Y-76253022D01*
X162729766Y-76826212D01*
X162687708Y-76837482D01*
X162562292Y-76909890D01*
X162459890Y-77012292D01*
X162387482Y-77137708D01*
X162376212Y-77179766D01*
X161803022Y-76606576D01*
X161748134Y-76684967D01*
X161679800Y-76831509D01*
X161633627Y-76883948D01*
X161566434Y-76903100D01*
X161499553Y-76882884D01*
X161456418Y-76834376D01*
X161403712Y-76728528D01*
X161272427Y-76554678D01*
X161258571Y-76542047D01*
X161111433Y-76407913D01*
X161111423Y-76407906D01*
X160926213Y-76293229D01*
X160926207Y-76293226D01*
X160841113Y-76260260D01*
X160723069Y-76214530D01*
X160508926Y-76174500D01*
X160291074Y-76174500D01*
X160076931Y-76214530D01*
X160028130Y-76233435D01*
X159873792Y-76293226D01*
X159873786Y-76293229D01*
X159688576Y-76407906D01*
X159688566Y-76407913D01*
X159527574Y-76554676D01*
X159396288Y-76728527D01*
X159299184Y-76923537D01*
X159239564Y-77133081D01*
X159219464Y-77349999D01*
X155125500Y-77349999D01*
X155125500Y-76491740D01*
X155115573Y-76423607D01*
X155064198Y-76318517D01*
X155064196Y-76318515D01*
X155064196Y-76318514D01*
X154981485Y-76235803D01*
X154876391Y-76184426D01*
X154808261Y-76174500D01*
X154808260Y-76174500D01*
X153091740Y-76174500D01*
X153091739Y-76174500D01*
X153023608Y-76184426D01*
X152918514Y-76235803D01*
X152835803Y-76318514D01*
X152784426Y-76423608D01*
X152774500Y-76491739D01*
X152774500Y-76538237D01*
X152754815Y-76605276D01*
X152702011Y-76651031D01*
X152632853Y-76660975D01*
X152569297Y-76631950D01*
X152548925Y-76609360D01*
X152546976Y-76606577D01*
X152546975Y-76606576D01*
X151973787Y-77179764D01*
X151962518Y-77137708D01*
X151890110Y-77012292D01*
X151787708Y-76909890D01*
X151662292Y-76837482D01*
X151620234Y-76826212D01*
X152193422Y-76253023D01*
X152115030Y-76198133D01*
X151904909Y-76100152D01*
X151904900Y-76100148D01*
X151680968Y-76040147D01*
X151680958Y-76040145D01*
X151450001Y-76019939D01*
X151449999Y-76019939D01*
X151219041Y-76040145D01*
X151219031Y-76040147D01*
X150995099Y-76100148D01*
X150995090Y-76100152D01*
X150784967Y-76198134D01*
X150706576Y-76253022D01*
X151279766Y-76826212D01*
X151237708Y-76837482D01*
X151112292Y-76909890D01*
X151009890Y-77012292D01*
X150937482Y-77137708D01*
X150926212Y-77179766D01*
X150353022Y-76606576D01*
X150298134Y-76684967D01*
X150229800Y-76831509D01*
X150183627Y-76883948D01*
X150116434Y-76903100D01*
X150049553Y-76882884D01*
X150006418Y-76834376D01*
X149953712Y-76728528D01*
X149822427Y-76554678D01*
X149808571Y-76542047D01*
X149661433Y-76407913D01*
X149661423Y-76407906D01*
X149476213Y-76293229D01*
X149476207Y-76293226D01*
X149391113Y-76260260D01*
X149273069Y-76214530D01*
X149058926Y-76174500D01*
X148841074Y-76174500D01*
X148626931Y-76214530D01*
X148578130Y-76233435D01*
X148423792Y-76293226D01*
X148423786Y-76293229D01*
X148238576Y-76407906D01*
X148238566Y-76407913D01*
X148077574Y-76554676D01*
X147946288Y-76728527D01*
X147849184Y-76923537D01*
X147789564Y-77133081D01*
X147769464Y-77349999D01*
X138551749Y-77349999D01*
X140939929Y-74961819D01*
X141001252Y-74928334D01*
X141027610Y-74925500D01*
X177272390Y-74925500D01*
X177339429Y-74945185D01*
X177360071Y-74961819D01*
X178938181Y-76539929D01*
X178971666Y-76601252D01*
X178974500Y-76627610D01*
X178974500Y-81472390D01*
X178954815Y-81539429D01*
X178938181Y-81560071D01*
X176559517Y-83938734D01*
X176559513Y-83938740D01*
X176503498Y-84035760D01*
X176503497Y-84035763D01*
X176474500Y-84143982D01*
X176474500Y-87488040D01*
X176464051Y-87537860D01*
X176255970Y-88012120D01*
X176255009Y-88014331D01*
X176254844Y-88014712D01*
X176245404Y-88039053D01*
X176245403Y-88039057D01*
X176243890Y-88047984D01*
X176237577Y-88071226D01*
X176214861Y-88131122D01*
X176214859Y-88131130D01*
X176194355Y-88300000D01*
X176214859Y-88468869D01*
X176214860Y-88468874D01*
X176275182Y-88627931D01*
X176304831Y-88670884D01*
X176371817Y-88767929D01*
X176439354Y-88827761D01*
X176499150Y-88880736D01*
X176641123Y-88955249D01*
X176649775Y-88959790D01*
X176814944Y-89000500D01*
X176985056Y-89000500D01*
X177150225Y-88959790D01*
X177229692Y-88918081D01*
X177300849Y-88880736D01*
X177300850Y-88880734D01*
X177300852Y-88880734D01*
X177428183Y-88767929D01*
X177524818Y-88627930D01*
X177585140Y-88468872D01*
X177605645Y-88300000D01*
X177585140Y-88131128D01*
X177554743Y-88050977D01*
X177550487Y-88037472D01*
X177544115Y-88012319D01*
X177367389Y-87609521D01*
X177335948Y-87537859D01*
X177325500Y-87488039D01*
X177325500Y-84427610D01*
X177345185Y-84360571D01*
X177361819Y-84339929D01*
X178430864Y-83270884D01*
X179740485Y-81961263D01*
X179796503Y-81864237D01*
X179825500Y-81756018D01*
X179825500Y-81643982D01*
X179825500Y-76343982D01*
X179796503Y-76235763D01*
X179740485Y-76138737D01*
X179661263Y-76059515D01*
X177761263Y-74159515D01*
X177664237Y-74103497D01*
X177556018Y-74074500D01*
X140856018Y-74074500D01*
X140743982Y-74074500D01*
X140635763Y-74103497D01*
X140635760Y-74103498D01*
X140538740Y-74159513D01*
X140538734Y-74159517D01*
X139308459Y-75389792D01*
X139247136Y-75423277D01*
X139177444Y-75418293D01*
X139121511Y-75376421D01*
X139097094Y-75310957D01*
X139103737Y-75261155D01*
X139109746Y-75243984D01*
X139136313Y-75168059D01*
X139143772Y-75101862D01*
X139155249Y-75000002D01*
X139155249Y-74999997D01*
X139136314Y-74831943D01*
X139080454Y-74672305D01*
X139080452Y-74672302D01*
X138990481Y-74529115D01*
X138990476Y-74529109D01*
X138870890Y-74409523D01*
X138870884Y-74409518D01*
X138727697Y-74319547D01*
X138727694Y-74319545D01*
X138568056Y-74263685D01*
X138400003Y-74244751D01*
X138399997Y-74244751D01*
X138231943Y-74263685D01*
X138072305Y-74319545D01*
X138072302Y-74319547D01*
X137929115Y-74409518D01*
X137929109Y-74409523D01*
X137809523Y-74529109D01*
X137809518Y-74529115D01*
X137719547Y-74672302D01*
X137719545Y-74672305D01*
X137663685Y-74831943D01*
X137644751Y-74999997D01*
X137644751Y-75000002D01*
X137663685Y-75168056D01*
X137719545Y-75327694D01*
X137719547Y-75327697D01*
X137809518Y-75470884D01*
X137809523Y-75470890D01*
X137929109Y-75590476D01*
X137929115Y-75590481D01*
X138072302Y-75680452D01*
X138072305Y-75680454D01*
X138072309Y-75680455D01*
X138072310Y-75680456D01*
X138128661Y-75700174D01*
X138231943Y-75736314D01*
X138399997Y-75755249D01*
X138400000Y-75755249D01*
X138400003Y-75755249D01*
X138526044Y-75741047D01*
X138568059Y-75736313D01*
X138661156Y-75703736D01*
X138730934Y-75700174D01*
X138791562Y-75734903D01*
X138823789Y-75796896D01*
X138817385Y-75866471D01*
X138789792Y-75908459D01*
X136160071Y-78538181D01*
X136098748Y-78571666D01*
X136072390Y-78574500D01*
X130327610Y-78574500D01*
X130260571Y-78554815D01*
X130239929Y-78538181D01*
X127114248Y-75412500D01*
X128324638Y-75412500D01*
X129184314Y-75412500D01*
X129179920Y-75416894D01*
X129127259Y-75508106D01*
X129100000Y-75609839D01*
X129100000Y-75715161D01*
X129127259Y-75816894D01*
X129179920Y-75908106D01*
X129184314Y-75912500D01*
X128324638Y-75912500D01*
X128329548Y-75943502D01*
X128387914Y-76123137D01*
X128473670Y-76291440D01*
X128584685Y-76444241D01*
X128584689Y-76444246D01*
X128718253Y-76577810D01*
X128718258Y-76577814D01*
X128871059Y-76688829D01*
X129039362Y-76774585D01*
X129218997Y-76832951D01*
X129405553Y-76862500D01*
X130350000Y-76862500D01*
X130350000Y-76062500D01*
X130850000Y-76062500D01*
X130850000Y-76862500D01*
X131794447Y-76862500D01*
X131981002Y-76832951D01*
X132160637Y-76774585D01*
X132328940Y-76688829D01*
X132481741Y-76577814D01*
X132481746Y-76577810D01*
X132615310Y-76444246D01*
X132615314Y-76444241D01*
X132726329Y-76291440D01*
X132812085Y-76123137D01*
X132870451Y-75943502D01*
X132875362Y-75912500D01*
X132015686Y-75912500D01*
X132020080Y-75908106D01*
X132072741Y-75816894D01*
X132100000Y-75715161D01*
X132100000Y-75609839D01*
X132072741Y-75508106D01*
X132020080Y-75416894D01*
X132015686Y-75412500D01*
X132875362Y-75412500D01*
X132870451Y-75381497D01*
X132812085Y-75201862D01*
X132726329Y-75033559D01*
X132615314Y-74880758D01*
X132615310Y-74880753D01*
X132481746Y-74747189D01*
X132481741Y-74747185D01*
X132328940Y-74636170D01*
X132160637Y-74550414D01*
X131981002Y-74492048D01*
X131794447Y-74462500D01*
X130850000Y-74462500D01*
X130850000Y-75262500D01*
X130350000Y-75262500D01*
X130350000Y-74462500D01*
X129405553Y-74462500D01*
X129218997Y-74492048D01*
X129039362Y-74550414D01*
X128871059Y-74636170D01*
X128718258Y-74747185D01*
X128718253Y-74747189D01*
X128584689Y-74880753D01*
X128584685Y-74880758D01*
X128473670Y-75033559D01*
X128387914Y-75201862D01*
X128329548Y-75381497D01*
X128324638Y-75412500D01*
X127114248Y-75412500D01*
X124761265Y-73059517D01*
X124761263Y-73059515D01*
X124664237Y-73003497D01*
X124556018Y-72974500D01*
X113756019Y-72974500D01*
X113643982Y-72974500D01*
X113535763Y-73003497D01*
X113535760Y-73003498D01*
X113438740Y-73059513D01*
X113438734Y-73059517D01*
X111159517Y-75338734D01*
X111159513Y-75338740D01*
X111103498Y-75435760D01*
X111103497Y-75435763D01*
X111074500Y-75543982D01*
X111074500Y-92143982D01*
X111074500Y-92256018D01*
X111103497Y-92364237D01*
X111159515Y-92461263D01*
X114559515Y-95861263D01*
X114638737Y-95940485D01*
X114735763Y-95996503D01*
X114843982Y-96025500D01*
X116872390Y-96025500D01*
X116939429Y-96045185D01*
X116960071Y-96061819D01*
X117938181Y-97039929D01*
X117971666Y-97101252D01*
X117974500Y-97127610D01*
X117974500Y-105043982D01*
X117974500Y-105156018D01*
X118003497Y-105264237D01*
X118059515Y-105361263D01*
X120259515Y-107561263D01*
X120338737Y-107640485D01*
X120435763Y-107696503D01*
X120543982Y-107725500D01*
X124672390Y-107725500D01*
X124739429Y-107745185D01*
X124760071Y-107761819D01*
X127438181Y-110439929D01*
X127471666Y-110501252D01*
X127474500Y-110527610D01*
X127474500Y-116472390D01*
X127454815Y-116539429D01*
X127438181Y-116560071D01*
X126560071Y-117438181D01*
X126498748Y-117471666D01*
X126472390Y-117474500D01*
X124027610Y-117474500D01*
X123960571Y-117454815D01*
X123939929Y-117438181D01*
X123082361Y-116580613D01*
X123048876Y-116519290D01*
X123053860Y-116449598D01*
X123059872Y-116436025D01*
X123595294Y-115399763D01*
X123601833Y-115386432D01*
X123602243Y-115385550D01*
X123612885Y-115359165D01*
X123616888Y-115350268D01*
X123624229Y-115335528D01*
X123649651Y-115246176D01*
X123686929Y-115187085D01*
X123750239Y-115157527D01*
X123819478Y-115166889D01*
X123872665Y-115212198D01*
X123887063Y-115242463D01*
X123907270Y-115305875D01*
X123908389Y-115309583D01*
X123915771Y-115335528D01*
X123922724Y-115349491D01*
X123925830Y-115356230D01*
X123931623Y-115369858D01*
X123934914Y-115375734D01*
X123934909Y-115375736D01*
X123940094Y-115384376D01*
X124014938Y-115534683D01*
X124014943Y-115534691D01*
X124149020Y-115712238D01*
X124313437Y-115862123D01*
X124313439Y-115862125D01*
X124502595Y-115979245D01*
X124502596Y-115979245D01*
X124502599Y-115979247D01*
X124710060Y-116059618D01*
X124928757Y-116100500D01*
X124928759Y-116100500D01*
X125151241Y-116100500D01*
X125151243Y-116100500D01*
X125369940Y-116059618D01*
X125577401Y-115979247D01*
X125766562Y-115862124D01*
X125930981Y-115712236D01*
X126065058Y-115534689D01*
X126164229Y-115335528D01*
X126225115Y-115121536D01*
X126245643Y-114900000D01*
X126225115Y-114678464D01*
X126164229Y-114464472D01*
X126164224Y-114464461D01*
X126065061Y-114265316D01*
X126065056Y-114265308D01*
X125930979Y-114087761D01*
X125766562Y-113937876D01*
X125766560Y-113937874D01*
X125607213Y-113839212D01*
X125577401Y-113820753D01*
X125524156Y-113800125D01*
X125468756Y-113757553D01*
X125445166Y-113691786D01*
X125460878Y-113623706D01*
X125510902Y-113574927D01*
X125568952Y-113560500D01*
X125923261Y-113560500D01*
X125945971Y-113557191D01*
X125991393Y-113550573D01*
X126096483Y-113499198D01*
X126179198Y-113416483D01*
X126230573Y-113311393D01*
X126240500Y-113243260D01*
X126240500Y-111476740D01*
X126239853Y-111472302D01*
X126230573Y-111408608D01*
X126230573Y-111408607D01*
X126179198Y-111303517D01*
X126179196Y-111303515D01*
X126179196Y-111303514D01*
X126096485Y-111220803D01*
X125991391Y-111169426D01*
X125923261Y-111159500D01*
X125923260Y-111159500D01*
X124249500Y-111159500D01*
X124182461Y-111139815D01*
X124136706Y-111087011D01*
X124125500Y-111035500D01*
X124125500Y-109643984D01*
X124125500Y-109643982D01*
X124096503Y-109535763D01*
X124040485Y-109438737D01*
X123961263Y-109359515D01*
X122961263Y-108359515D01*
X122864237Y-108303497D01*
X122756018Y-108274500D01*
X122756017Y-108274500D01*
X119927610Y-108274500D01*
X119860571Y-108254815D01*
X119839929Y-108238181D01*
X117461819Y-105860071D01*
X117428334Y-105798748D01*
X117425500Y-105772390D01*
X117425500Y-97943984D01*
X117425500Y-97943982D01*
X117396503Y-97835763D01*
X117340485Y-97738737D01*
X117261263Y-97659515D01*
X116261263Y-96659515D01*
X116164237Y-96603497D01*
X116056018Y-96574500D01*
X116056017Y-96574500D01*
X114227610Y-96574500D01*
X114160571Y-96554815D01*
X114139929Y-96538181D01*
X110561819Y-92960071D01*
X110528334Y-92898748D01*
X110525500Y-92872390D01*
X110525500Y-74627610D01*
X110545185Y-74560571D01*
X110561819Y-74539929D01*
X112539929Y-72561819D01*
X112601252Y-72528334D01*
X112627610Y-72525500D01*
X128372390Y-72525500D01*
X128439429Y-72545185D01*
X128460071Y-72561819D01*
X129638737Y-73740485D01*
X129735763Y-73796503D01*
X129843982Y-73825500D01*
X129956019Y-73825500D01*
X178472390Y-73825500D01*
X178539429Y-73845185D01*
X178560071Y-73861819D01*
X180138181Y-75439929D01*
X180171666Y-75501252D01*
X180174500Y-75527610D01*
X180174500Y-88172390D01*
X180154815Y-88239429D01*
X180138181Y-88260071D01*
X179160071Y-89238181D01*
X179098748Y-89271666D01*
X179072390Y-89274500D01*
X179011959Y-89274500D01*
X178962139Y-89264051D01*
X178487775Y-89055924D01*
X178485668Y-89055009D01*
X178485648Y-89055000D01*
X178485493Y-89054933D01*
X178485298Y-89054849D01*
X178485289Y-89054845D01*
X178485274Y-89054839D01*
X178464346Y-89046722D01*
X178451563Y-89040912D01*
X178450226Y-89040210D01*
X178285056Y-88999500D01*
X178114944Y-88999500D01*
X177949773Y-89040210D01*
X177799150Y-89119263D01*
X177671816Y-89232072D01*
X177575182Y-89372068D01*
X177514860Y-89531125D01*
X177514859Y-89531130D01*
X177494355Y-89700000D01*
X177514859Y-89868869D01*
X177514860Y-89868874D01*
X177575182Y-90027931D01*
X177622513Y-90096501D01*
X177671817Y-90167929D01*
X177777505Y-90261560D01*
X177799150Y-90280736D01*
X177919901Y-90344111D01*
X177949775Y-90359790D01*
X178114944Y-90400500D01*
X178285056Y-90400500D01*
X178450225Y-90359790D01*
X178460031Y-90354642D01*
X178482870Y-90345897D01*
X178482830Y-90345781D01*
X178486172Y-90344633D01*
X178487223Y-90344230D01*
X178487681Y-90344115D01*
X178889252Y-90167927D01*
X178962137Y-90135949D01*
X179011957Y-90125500D01*
X179356016Y-90125500D01*
X179356018Y-90125500D01*
X179464237Y-90096503D01*
X179561263Y-90040485D01*
X180940485Y-88661263D01*
X180996503Y-88564237D01*
X181025500Y-88456018D01*
X181025500Y-88343981D01*
X181025500Y-87129239D01*
X190037000Y-87129239D01*
X190037000Y-88395760D01*
X190046926Y-88463891D01*
X190098303Y-88568985D01*
X190181014Y-88651696D01*
X190181015Y-88651696D01*
X190181017Y-88651698D01*
X190286107Y-88703073D01*
X190320173Y-88708036D01*
X190354239Y-88713000D01*
X190354240Y-88713000D01*
X191620761Y-88713000D01*
X191643471Y-88709691D01*
X191688893Y-88703073D01*
X191793983Y-88651698D01*
X191876698Y-88568983D01*
X191928073Y-88463893D01*
X191938000Y-88395760D01*
X191938000Y-87762499D01*
X193382787Y-87762499D01*
X193382787Y-87762500D01*
X193401596Y-87965489D01*
X193401597Y-87965492D01*
X193457383Y-88161563D01*
X193457386Y-88161569D01*
X193548251Y-88344051D01*
X193550033Y-88346411D01*
X194065774Y-87830671D01*
X194091463Y-87926544D01*
X194147416Y-88023456D01*
X194226544Y-88102584D01*
X194323456Y-88158537D01*
X194419327Y-88184225D01*
X193906811Y-88696740D01*
X193995085Y-88751397D01*
X194185178Y-88825039D01*
X194385572Y-88862500D01*
X194589428Y-88862500D01*
X194789822Y-88825039D01*
X194979912Y-88751399D01*
X194979916Y-88751397D01*
X195068186Y-88696741D01*
X195068186Y-88696740D01*
X194555673Y-88184225D01*
X194651544Y-88158537D01*
X194748456Y-88102584D01*
X194827584Y-88023456D01*
X194883537Y-87926544D01*
X194909225Y-87830672D01*
X195424965Y-88346412D01*
X195426747Y-88344053D01*
X195426748Y-88344051D01*
X195517613Y-88161569D01*
X195517616Y-88161563D01*
X195573402Y-87965492D01*
X195573403Y-87965489D01*
X195592213Y-87762500D01*
X195592213Y-87762499D01*
X195573403Y-87559510D01*
X195573402Y-87559507D01*
X195517616Y-87363436D01*
X195517613Y-87363430D01*
X195426749Y-87180949D01*
X195426747Y-87180947D01*
X195424965Y-87178587D01*
X194909225Y-87694327D01*
X194883537Y-87598456D01*
X194827584Y-87501544D01*
X194748456Y-87422416D01*
X194651544Y-87366463D01*
X194555672Y-87340774D01*
X195068187Y-86828258D01*
X194979913Y-86773601D01*
X194979911Y-86773600D01*
X194789821Y-86699960D01*
X194589428Y-86662500D01*
X194385572Y-86662500D01*
X194185178Y-86699960D01*
X193995088Y-86773600D01*
X193995081Y-86773604D01*
X193906812Y-86828257D01*
X193906811Y-86828258D01*
X194419328Y-87340774D01*
X194323456Y-87366463D01*
X194226544Y-87422416D01*
X194147416Y-87501544D01*
X194091463Y-87598456D01*
X194065774Y-87694328D01*
X193550033Y-87178587D01*
X193548255Y-87180942D01*
X193548254Y-87180943D01*
X193457386Y-87363430D01*
X193457383Y-87363436D01*
X193401597Y-87559507D01*
X193401596Y-87559510D01*
X193382787Y-87762499D01*
X191938000Y-87762499D01*
X191938000Y-87129240D01*
X191928073Y-87061107D01*
X191876698Y-86956017D01*
X191876696Y-86956015D01*
X191876696Y-86956014D01*
X191793985Y-86873303D01*
X191688891Y-86821926D01*
X191620761Y-86812000D01*
X191620760Y-86812000D01*
X190354240Y-86812000D01*
X190354239Y-86812000D01*
X190286108Y-86821926D01*
X190181014Y-86873303D01*
X190098303Y-86956014D01*
X190046926Y-87061108D01*
X190037000Y-87129239D01*
X181025500Y-87129239D01*
X181025500Y-82799997D01*
X186544751Y-82799997D01*
X186544751Y-82800002D01*
X186563685Y-82968056D01*
X186619545Y-83127694D01*
X186619547Y-83127697D01*
X186709518Y-83270884D01*
X186709523Y-83270890D01*
X186829110Y-83390477D01*
X186847321Y-83401919D01*
X186915892Y-83445007D01*
X186962183Y-83497342D01*
X186972830Y-83566395D01*
X186944455Y-83630244D01*
X186915892Y-83654993D01*
X186829112Y-83709521D01*
X186829109Y-83709523D01*
X186709523Y-83829109D01*
X186709518Y-83829115D01*
X186619547Y-83972302D01*
X186619545Y-83972305D01*
X186563685Y-84131943D01*
X186544751Y-84299997D01*
X186544751Y-84300002D01*
X186563685Y-84468056D01*
X186619545Y-84627694D01*
X186619547Y-84627697D01*
X186709518Y-84770884D01*
X186709523Y-84770890D01*
X186829110Y-84890477D01*
X186847321Y-84901919D01*
X186915892Y-84945007D01*
X186962183Y-84997342D01*
X186972830Y-85066395D01*
X186944455Y-85130244D01*
X186915892Y-85154993D01*
X186829112Y-85209521D01*
X186829109Y-85209523D01*
X186709523Y-85329109D01*
X186709518Y-85329115D01*
X186619547Y-85472302D01*
X186619545Y-85472305D01*
X186563685Y-85631943D01*
X186544751Y-85799997D01*
X186544751Y-85800002D01*
X186563685Y-85968056D01*
X186619545Y-86127694D01*
X186619547Y-86127697D01*
X186709518Y-86270884D01*
X186709523Y-86270890D01*
X186829109Y-86390476D01*
X186829115Y-86390481D01*
X186972302Y-86480452D01*
X186972305Y-86480454D01*
X186972309Y-86480455D01*
X186972310Y-86480456D01*
X187044913Y-86505860D01*
X187131943Y-86536314D01*
X187299997Y-86555249D01*
X187300000Y-86555249D01*
X187300003Y-86555249D01*
X187468056Y-86536314D01*
X187468059Y-86536313D01*
X187627690Y-86480456D01*
X187627692Y-86480454D01*
X187627694Y-86480454D01*
X187627697Y-86480452D01*
X187770884Y-86390481D01*
X187770885Y-86390480D01*
X187770890Y-86390477D01*
X187890477Y-86270890D01*
X187906683Y-86245099D01*
X187980452Y-86127697D01*
X187980454Y-86127694D01*
X187980454Y-86127692D01*
X187980456Y-86127690D01*
X188036313Y-85968059D01*
X188036313Y-85968058D01*
X188036314Y-85968056D01*
X188055249Y-85800002D01*
X188055249Y-85799997D01*
X188036314Y-85631943D01*
X187980454Y-85472305D01*
X187980452Y-85472302D01*
X187890481Y-85329115D01*
X187890476Y-85329109D01*
X187770890Y-85209523D01*
X187684108Y-85154994D01*
X187637817Y-85102659D01*
X187627169Y-85033605D01*
X187655544Y-84969757D01*
X187684108Y-84945006D01*
X187686629Y-84943422D01*
X187770890Y-84890477D01*
X187890477Y-84770890D01*
X187980454Y-84627694D01*
X187980456Y-84627689D01*
X187982958Y-84620540D01*
X188023679Y-84563764D01*
X188088631Y-84538015D01*
X188157193Y-84551470D01*
X188207596Y-84599857D01*
X188217042Y-84620540D01*
X188219543Y-84627689D01*
X188219547Y-84627697D01*
X188309518Y-84770884D01*
X188309523Y-84770890D01*
X188429109Y-84890476D01*
X188429115Y-84890481D01*
X188572302Y-84980452D01*
X188572305Y-84980454D01*
X188572309Y-84980455D01*
X188572310Y-84980456D01*
X188620568Y-84997342D01*
X188731943Y-85036314D01*
X188899997Y-85055249D01*
X188900000Y-85055249D01*
X188900003Y-85055249D01*
X189068056Y-85036314D01*
X189139642Y-85011265D01*
X189227690Y-84980456D01*
X189227692Y-84980454D01*
X189227694Y-84980454D01*
X189227697Y-84980452D01*
X189370884Y-84890481D01*
X189370888Y-84890478D01*
X189370890Y-84890477D01*
X189490477Y-84770890D01*
X189580452Y-84627697D01*
X189580454Y-84627694D01*
X189580454Y-84627692D01*
X189580456Y-84627690D01*
X189636313Y-84468059D01*
X189636313Y-84468058D01*
X189636314Y-84468056D01*
X189655249Y-84300002D01*
X189655249Y-84299997D01*
X189636314Y-84131943D01*
X189580454Y-83972305D01*
X189580452Y-83972302D01*
X189490481Y-83829115D01*
X189490476Y-83829109D01*
X189370890Y-83709523D01*
X189284108Y-83654994D01*
X189237817Y-83602659D01*
X189227169Y-83533605D01*
X189255544Y-83469757D01*
X189284108Y-83445006D01*
X189370890Y-83390477D01*
X189490477Y-83270890D01*
X189580452Y-83127697D01*
X189580454Y-83127694D01*
X189580454Y-83127692D01*
X189580456Y-83127690D01*
X189632958Y-82977646D01*
X189673680Y-82920871D01*
X189738633Y-82895124D01*
X189807195Y-82908580D01*
X189857597Y-82956967D01*
X189867042Y-82977647D01*
X189919545Y-83127694D01*
X189919547Y-83127697D01*
X190009518Y-83270884D01*
X190009523Y-83270890D01*
X190129109Y-83390476D01*
X190129115Y-83390481D01*
X190272302Y-83480452D01*
X190272305Y-83480454D01*
X190272309Y-83480455D01*
X190272310Y-83480456D01*
X190320568Y-83497342D01*
X190431943Y-83536314D01*
X190599997Y-83555249D01*
X190600000Y-83555249D01*
X190600003Y-83555249D01*
X190768056Y-83536314D01*
X190771900Y-83534969D01*
X190927690Y-83480456D01*
X190927692Y-83480454D01*
X190927694Y-83480454D01*
X190927697Y-83480452D01*
X191070884Y-83390481D01*
X191070888Y-83390478D01*
X191070890Y-83390477D01*
X191190477Y-83270890D01*
X191280452Y-83127697D01*
X191280454Y-83127694D01*
X191280454Y-83127692D01*
X191280456Y-83127690D01*
X191336313Y-82968059D01*
X191336313Y-82968058D01*
X191336314Y-82968056D01*
X191355249Y-82800002D01*
X191355249Y-82799997D01*
X191336314Y-82631943D01*
X191290194Y-82500140D01*
X191280456Y-82472310D01*
X191280455Y-82472309D01*
X191280454Y-82472305D01*
X191280452Y-82472302D01*
X191190481Y-82329115D01*
X191190476Y-82329109D01*
X191070890Y-82209523D01*
X191070884Y-82209518D01*
X190927697Y-82119547D01*
X190927694Y-82119545D01*
X190768056Y-82063685D01*
X190600003Y-82044751D01*
X190599997Y-82044751D01*
X190431943Y-82063685D01*
X190272305Y-82119545D01*
X190272302Y-82119547D01*
X190129115Y-82209518D01*
X190129109Y-82209523D01*
X190009523Y-82329109D01*
X190009518Y-82329115D01*
X189919547Y-82472302D01*
X189919542Y-82472313D01*
X189867041Y-82622352D01*
X189826320Y-82679128D01*
X189761367Y-82704875D01*
X189692805Y-82691419D01*
X189642403Y-82643031D01*
X189632959Y-82622352D01*
X189580457Y-82472313D01*
X189580452Y-82472302D01*
X189490481Y-82329115D01*
X189490476Y-82329109D01*
X189370890Y-82209523D01*
X189370884Y-82209518D01*
X189227697Y-82119547D01*
X189227694Y-82119545D01*
X189068056Y-82063685D01*
X188900003Y-82044751D01*
X188899997Y-82044751D01*
X188731943Y-82063685D01*
X188572305Y-82119545D01*
X188572302Y-82119547D01*
X188429115Y-82209518D01*
X188429109Y-82209523D01*
X188309523Y-82329109D01*
X188309518Y-82329115D01*
X188219547Y-82472302D01*
X188219542Y-82472313D01*
X188217041Y-82479461D01*
X188176319Y-82536237D01*
X188111366Y-82561984D01*
X188042805Y-82548527D01*
X187992402Y-82500140D01*
X187982959Y-82479461D01*
X187980457Y-82472313D01*
X187980452Y-82472302D01*
X187890481Y-82329115D01*
X187890476Y-82329109D01*
X187770890Y-82209523D01*
X187770884Y-82209518D01*
X187627697Y-82119547D01*
X187627694Y-82119545D01*
X187468056Y-82063685D01*
X187300003Y-82044751D01*
X187299997Y-82044751D01*
X187131943Y-82063685D01*
X186972305Y-82119545D01*
X186972302Y-82119547D01*
X186829115Y-82209518D01*
X186829109Y-82209523D01*
X186709523Y-82329109D01*
X186709518Y-82329115D01*
X186619547Y-82472302D01*
X186619545Y-82472305D01*
X186563685Y-82631943D01*
X186544751Y-82799997D01*
X181025500Y-82799997D01*
X181025500Y-77349999D01*
X182119464Y-77349999D01*
X182119464Y-77350000D01*
X182139564Y-77566918D01*
X182139564Y-77566920D01*
X182139565Y-77566923D01*
X182199183Y-77776458D01*
X182199184Y-77776462D01*
X182230710Y-77839774D01*
X182296288Y-77971472D01*
X182427573Y-78145322D01*
X182588568Y-78292088D01*
X182588575Y-78292092D01*
X182588576Y-78292093D01*
X182773786Y-78406770D01*
X182773792Y-78406773D01*
X182796664Y-78415633D01*
X182976931Y-78485470D01*
X183191074Y-78525500D01*
X183191076Y-78525500D01*
X183408924Y-78525500D01*
X183408926Y-78525500D01*
X183623069Y-78485470D01*
X183826210Y-78406772D01*
X184011432Y-78292088D01*
X184172427Y-78145322D01*
X184303712Y-77971472D01*
X184356418Y-77865623D01*
X184403920Y-77814387D01*
X184471583Y-77796965D01*
X184537924Y-77818890D01*
X184579800Y-77868490D01*
X184648133Y-78015030D01*
X184703023Y-78093422D01*
X185276212Y-77520233D01*
X185287482Y-77562292D01*
X185359890Y-77687708D01*
X185462292Y-77790110D01*
X185587708Y-77862518D01*
X185629765Y-77873787D01*
X185056576Y-78446975D01*
X185134969Y-78501867D01*
X185345090Y-78599847D01*
X185345099Y-78599851D01*
X185569031Y-78659852D01*
X185569041Y-78659854D01*
X185799999Y-78680061D01*
X185800001Y-78680061D01*
X186030958Y-78659854D01*
X186030968Y-78659852D01*
X186254900Y-78599851D01*
X186254909Y-78599847D01*
X186465030Y-78501867D01*
X186465034Y-78501865D01*
X186543422Y-78446976D01*
X186543422Y-78446975D01*
X185970235Y-77873787D01*
X186012292Y-77862518D01*
X186137708Y-77790110D01*
X186240110Y-77687708D01*
X186312518Y-77562292D01*
X186323787Y-77520234D01*
X186896975Y-78093421D01*
X186898925Y-78090638D01*
X186953502Y-78047013D01*
X187023001Y-78039821D01*
X187085356Y-78071343D01*
X187120769Y-78131573D01*
X187124500Y-78161762D01*
X187124500Y-78208260D01*
X187134426Y-78276391D01*
X187185803Y-78381485D01*
X187268514Y-78464196D01*
X187268515Y-78464196D01*
X187268517Y-78464198D01*
X187373607Y-78515573D01*
X187407673Y-78520536D01*
X187441739Y-78525500D01*
X187441740Y-78525500D01*
X189158261Y-78525500D01*
X189180971Y-78522191D01*
X189226393Y-78515573D01*
X189331483Y-78464198D01*
X189414198Y-78381483D01*
X189465573Y-78276393D01*
X189475500Y-78208260D01*
X189475500Y-76491740D01*
X189465573Y-76423607D01*
X189414198Y-76318517D01*
X189414196Y-76318515D01*
X189414196Y-76318514D01*
X189331485Y-76235803D01*
X189226391Y-76184426D01*
X189158261Y-76174500D01*
X189158260Y-76174500D01*
X187441740Y-76174500D01*
X187441739Y-76174500D01*
X187373608Y-76184426D01*
X187268514Y-76235803D01*
X187185803Y-76318514D01*
X187134426Y-76423608D01*
X187124500Y-76491739D01*
X187124500Y-76538237D01*
X187104815Y-76605276D01*
X187052011Y-76651031D01*
X186982853Y-76660975D01*
X186919297Y-76631950D01*
X186898925Y-76609360D01*
X186896976Y-76606577D01*
X186896975Y-76606576D01*
X186323787Y-77179764D01*
X186312518Y-77137708D01*
X186240110Y-77012292D01*
X186137708Y-76909890D01*
X186012292Y-76837482D01*
X185970234Y-76826212D01*
X186543422Y-76253023D01*
X186465030Y-76198133D01*
X186254909Y-76100152D01*
X186254900Y-76100148D01*
X186030968Y-76040147D01*
X186030958Y-76040145D01*
X185800001Y-76019939D01*
X185799999Y-76019939D01*
X185569041Y-76040145D01*
X185569031Y-76040147D01*
X185345099Y-76100148D01*
X185345090Y-76100152D01*
X185134967Y-76198134D01*
X185056576Y-76253022D01*
X185629766Y-76826212D01*
X185587708Y-76837482D01*
X185462292Y-76909890D01*
X185359890Y-77012292D01*
X185287482Y-77137708D01*
X185276212Y-77179765D01*
X184703023Y-76606576D01*
X184703022Y-76606576D01*
X184648134Y-76684967D01*
X184579800Y-76831509D01*
X184533627Y-76883948D01*
X184466434Y-76903100D01*
X184399553Y-76882884D01*
X184356418Y-76834376D01*
X184303712Y-76728528D01*
X184172427Y-76554678D01*
X184158571Y-76542047D01*
X184011433Y-76407913D01*
X184011423Y-76407906D01*
X183826213Y-76293229D01*
X183826207Y-76293226D01*
X183741113Y-76260260D01*
X183623069Y-76214530D01*
X183408926Y-76174500D01*
X183191074Y-76174500D01*
X182976931Y-76214530D01*
X182928130Y-76233435D01*
X182773792Y-76293226D01*
X182773786Y-76293229D01*
X182588576Y-76407906D01*
X182588566Y-76407913D01*
X182427574Y-76554676D01*
X182296288Y-76728527D01*
X182199184Y-76923537D01*
X182139564Y-77133081D01*
X182119464Y-77349999D01*
X181025500Y-77349999D01*
X181025500Y-75243982D01*
X180996503Y-75135763D01*
X180940485Y-75038737D01*
X180861263Y-74959515D01*
X178961263Y-73059515D01*
X178864237Y-73003497D01*
X178756018Y-72974500D01*
X178756017Y-72974500D01*
X133486229Y-72974500D01*
X133419190Y-72954815D01*
X133373435Y-72902011D01*
X133363491Y-72832853D01*
X133392516Y-72769297D01*
X133398548Y-72762819D01*
X133490477Y-72670890D01*
X133535457Y-72599305D01*
X133580452Y-72527697D01*
X133580454Y-72527694D01*
X133580454Y-72527692D01*
X133580456Y-72527690D01*
X133636313Y-72368059D01*
X133636313Y-72368058D01*
X133636314Y-72368056D01*
X133655249Y-72200002D01*
X133655249Y-72199997D01*
X133636314Y-72031943D01*
X133580454Y-71872305D01*
X133580452Y-71872302D01*
X133490481Y-71729115D01*
X133490476Y-71729109D01*
X133370890Y-71609523D01*
X133370884Y-71609518D01*
X133227697Y-71519547D01*
X133227694Y-71519545D01*
X133068056Y-71463685D01*
X132900003Y-71444751D01*
X132899997Y-71444751D01*
X132731943Y-71463685D01*
X132572305Y-71519545D01*
X132572302Y-71519547D01*
X132429115Y-71609518D01*
X132429109Y-71609523D01*
X132309523Y-71729109D01*
X132309518Y-71729115D01*
X132219547Y-71872302D01*
X132219545Y-71872305D01*
X132163685Y-72031943D01*
X132144751Y-72199997D01*
X132144751Y-72200002D01*
X132163685Y-72368056D01*
X132219545Y-72527694D01*
X132219547Y-72527697D01*
X132309518Y-72670884D01*
X132309523Y-72670890D01*
X132401452Y-72762819D01*
X132434937Y-72824142D01*
X132429953Y-72893834D01*
X132388081Y-72949767D01*
X132322617Y-72974184D01*
X132313771Y-72974500D01*
X130127610Y-72974500D01*
X130060571Y-72954815D01*
X130039929Y-72938181D01*
X128861265Y-71759517D01*
X128861263Y-71759515D01*
X128764237Y-71703497D01*
X128656018Y-71674500D01*
X112456018Y-71674500D01*
X112343981Y-71674500D01*
X112235763Y-71703497D01*
X112235761Y-71703498D01*
X112235760Y-71703498D01*
X112138740Y-71759513D01*
X112138734Y-71759517D01*
X109759517Y-74138734D01*
X109759513Y-74138740D01*
X109703498Y-74235760D01*
X109703497Y-74235763D01*
X109674500Y-74343982D01*
X107687050Y-74343982D01*
X107705078Y-74000000D01*
X107705078Y-73999999D01*
X107684780Y-73612712D01*
X107624113Y-73229676D01*
X107624112Y-73229669D01*
X107523737Y-72855063D01*
X107384755Y-72493005D01*
X107208689Y-72147456D01*
X106997468Y-71822206D01*
X106788904Y-71564649D01*
X106788903Y-71564648D01*
X105294251Y-73059300D01*
X105220412Y-72957670D01*
X105042330Y-72779588D01*
X104940698Y-72705747D01*
X106435350Y-71211096D01*
X106435350Y-71211095D01*
X106177793Y-71002531D01*
X105852543Y-70791310D01*
X105741999Y-70734985D01*
X105691203Y-70687010D01*
X105674408Y-70619189D01*
X105696945Y-70553055D01*
X105751660Y-70509603D01*
X105798294Y-70500500D01*
X194201706Y-70500500D01*
X194268745Y-70520185D01*
G37*
G04 #@! TD.AperFunction*
G04 #@! TA.AperFunction,Conductor*
G36*
X123844654Y-103781345D02*
G01*
X123844849Y-103781429D01*
X124393001Y-104021929D01*
X124399200Y-104028391D01*
X124400000Y-104032643D01*
X124400000Y-104167356D01*
X124396573Y-104175629D01*
X124393001Y-104178070D01*
X123844849Y-104418570D01*
X123835896Y-104418756D01*
X123829434Y-104412557D01*
X123829350Y-104412362D01*
X123700880Y-104104506D01*
X123700857Y-104095551D01*
X123700880Y-104095494D01*
X123727108Y-104032643D01*
X123829351Y-103787635D01*
X123835699Y-103781322D01*
X123844654Y-103781345D01*
G37*
G04 #@! TD.AperFunction*
G04 #@! TA.AperFunction,Conductor*
G36*
X176065176Y-99954769D02*
G01*
X176548340Y-100143250D01*
X176622839Y-100172312D01*
X176629301Y-100178511D01*
X176629487Y-100187464D01*
X176629408Y-100187661D01*
X176502563Y-100496191D01*
X176496248Y-100502540D01*
X176496191Y-100502563D01*
X176187661Y-100629408D01*
X176178706Y-100629385D01*
X176172391Y-100623036D01*
X176172312Y-100622839D01*
X175998981Y-100178511D01*
X175954770Y-100065177D01*
X175954956Y-100056226D01*
X175957394Y-100052657D01*
X176052655Y-99957396D01*
X176060927Y-99953970D01*
X176065176Y-99954769D01*
G37*
G04 #@! TD.AperFunction*
G04 #@! TA.AperFunction,Conductor*
G36*
X123897734Y-113647047D02*
G01*
X125353165Y-114110841D01*
X125360008Y-114116618D01*
X125360761Y-114125541D01*
X125360427Y-114126455D01*
X125042562Y-114896214D01*
X125036237Y-114902553D01*
X125036214Y-114902562D01*
X124266455Y-115220427D01*
X124257500Y-115220418D01*
X124251175Y-115214079D01*
X124250841Y-115213165D01*
X123904254Y-114125541D01*
X123787048Y-113757737D01*
X123787801Y-113748816D01*
X123789920Y-113745917D01*
X123885915Y-113649922D01*
X123894187Y-113646496D01*
X123897734Y-113647047D01*
G37*
G04 #@! TD.AperFunction*
G04 #@! TA.AperFunction,Conductor*
G36*
X134615176Y-109004769D02*
G01*
X135098340Y-109193250D01*
X135172839Y-109222312D01*
X135179301Y-109228511D01*
X135179487Y-109237464D01*
X135179408Y-109237661D01*
X135052563Y-109546191D01*
X135046248Y-109552540D01*
X135046191Y-109552563D01*
X134737661Y-109679408D01*
X134728706Y-109679385D01*
X134722391Y-109673036D01*
X134722312Y-109672839D01*
X134548981Y-109228511D01*
X134504770Y-109115177D01*
X134504956Y-109106226D01*
X134507394Y-109102657D01*
X134602655Y-109007396D01*
X134610927Y-109003970D01*
X134615176Y-109004769D01*
G37*
G04 #@! TD.AperFunction*
G04 #@! TA.AperFunction,Conductor*
G36*
X148044654Y-103481345D02*
G01*
X148044849Y-103481429D01*
X148593001Y-103721929D01*
X148599200Y-103728391D01*
X148600000Y-103732643D01*
X148600000Y-103867356D01*
X148596573Y-103875629D01*
X148593001Y-103878070D01*
X148044849Y-104118570D01*
X148035896Y-104118756D01*
X148029434Y-104112557D01*
X148029350Y-104112362D01*
X147900880Y-103804506D01*
X147900857Y-103795551D01*
X147900880Y-103795494D01*
X147927108Y-103732643D01*
X148029351Y-103487635D01*
X148035699Y-103481322D01*
X148044654Y-103481345D01*
G37*
G04 #@! TD.AperFunction*
G04 #@! TA.AperFunction,Conductor*
G36*
X122504484Y-114900863D02*
G01*
X123273556Y-115220402D01*
X123279880Y-115226740D01*
X123279871Y-115235695D01*
X123279461Y-115236577D01*
X122578270Y-116593671D01*
X122571427Y-116599448D01*
X122567875Y-116600000D01*
X122432125Y-116600000D01*
X122423852Y-116596573D01*
X122421731Y-116593671D01*
X121720539Y-115236577D01*
X121719785Y-115227654D01*
X121725562Y-115220812D01*
X121726417Y-115220413D01*
X122495511Y-114900864D01*
X122504466Y-114900856D01*
X122504484Y-114900863D01*
G37*
G04 #@! TD.AperFunction*
G04 #@! TA.AperFunction,Conductor*
G36*
X172444654Y-92081345D02*
G01*
X172444849Y-92081429D01*
X172993001Y-92321929D01*
X172999200Y-92328391D01*
X173000000Y-92332643D01*
X173000000Y-92467356D01*
X172996573Y-92475629D01*
X172993001Y-92478070D01*
X172444849Y-92718570D01*
X172435896Y-92718756D01*
X172429434Y-92712557D01*
X172429350Y-92712362D01*
X172300880Y-92404506D01*
X172300857Y-92395551D01*
X172300880Y-92395494D01*
X172327108Y-92332643D01*
X172429351Y-92087635D01*
X172435699Y-92081322D01*
X172444654Y-92081345D01*
G37*
G04 #@! TD.AperFunction*
G04 #@! TA.AperFunction,Conductor*
G36*
X172521293Y-90570614D02*
G01*
X172527608Y-90576963D01*
X172527687Y-90577160D01*
X172745229Y-91134820D01*
X172745043Y-91143773D01*
X172742602Y-91147345D01*
X172647345Y-91242602D01*
X172639072Y-91246029D01*
X172634820Y-91245229D01*
X172077160Y-91027687D01*
X172070698Y-91021488D01*
X172070512Y-91012535D01*
X172070566Y-91012399D01*
X172197437Y-90703806D01*
X172203748Y-90697461D01*
X172512339Y-90570591D01*
X172521293Y-90570614D01*
G37*
G04 #@! TD.AperFunction*
G04 #@! TA.AperFunction,Conductor*
G36*
X176975630Y-87603427D02*
G01*
X176978071Y-87606999D01*
X177218570Y-88155150D01*
X177218756Y-88164103D01*
X177212557Y-88170565D01*
X177212362Y-88170649D01*
X176904506Y-88299119D01*
X176895551Y-88299142D01*
X176895494Y-88299119D01*
X176587637Y-88170649D01*
X176581322Y-88164300D01*
X176581345Y-88155345D01*
X176581429Y-88155150D01*
X176821929Y-87606999D01*
X176828391Y-87600800D01*
X176832643Y-87600000D01*
X176967357Y-87600000D01*
X176975630Y-87603427D01*
G37*
G04 #@! TD.AperFunction*
G04 #@! TA.AperFunction,Conductor*
G36*
X161704478Y-96500868D02*
G01*
X162012362Y-96629350D01*
X162018677Y-96635699D01*
X162018654Y-96644654D01*
X162018570Y-96644849D01*
X161778071Y-97193001D01*
X161771609Y-97199200D01*
X161767357Y-97200000D01*
X161632643Y-97200000D01*
X161624370Y-97196573D01*
X161621929Y-97193001D01*
X161381429Y-96644849D01*
X161381243Y-96635896D01*
X161387442Y-96629434D01*
X161387582Y-96629373D01*
X161695494Y-96500879D01*
X161704449Y-96500857D01*
X161704478Y-96500868D01*
G37*
G04 #@! TD.AperFunction*
G04 #@! TA.AperFunction,Conductor*
G36*
X142085939Y-98799964D02*
G01*
X142094202Y-98803412D01*
X142097608Y-98811693D01*
X142097408Y-98813820D01*
X141951790Y-99590456D01*
X141946897Y-99597956D01*
X141940290Y-99600000D01*
X141459710Y-99600000D01*
X141451437Y-99596573D01*
X141448210Y-99590456D01*
X141302591Y-98813820D01*
X141304435Y-98805057D01*
X141311935Y-98800164D01*
X141314052Y-98799964D01*
X141700000Y-98799000D01*
X142085939Y-98799964D01*
G37*
G04 #@! TD.AperFunction*
G04 #@! TA.AperFunction,Conductor*
G36*
X141051425Y-117241255D02*
G01*
X141051576Y-117241601D01*
X141199123Y-117595498D01*
X141199144Y-117604452D01*
X141199123Y-117604502D01*
X141051576Y-117958398D01*
X141045229Y-117964716D01*
X141036275Y-117964695D01*
X141035929Y-117964544D01*
X140406852Y-117678119D01*
X140400742Y-117671572D01*
X140400000Y-117667471D01*
X140400000Y-117532528D01*
X140403427Y-117524255D01*
X140406852Y-117521880D01*
X141035930Y-117235454D01*
X141044878Y-117235145D01*
X141051425Y-117241255D01*
G37*
G04 #@! TD.AperFunction*
G04 #@! TA.AperFunction,Conductor*
G36*
X149700474Y-77660841D02*
G01*
X149706799Y-77667180D01*
X149706789Y-77676134D01*
X149706387Y-77677002D01*
X149028267Y-78993657D01*
X149021432Y-78999443D01*
X149017865Y-79000000D01*
X148882135Y-79000000D01*
X148873862Y-78996573D01*
X148871733Y-78993657D01*
X148193611Y-77677000D01*
X148192871Y-77668078D01*
X148198657Y-77661243D01*
X148199513Y-77660846D01*
X148945511Y-77350864D01*
X148954464Y-77350855D01*
X149700474Y-77660841D01*
G37*
G04 #@! TD.AperFunction*
G04 #@! TA.AperFunction,Conductor*
G36*
X171265176Y-94454769D02*
G01*
X171748340Y-94643250D01*
X171822839Y-94672312D01*
X171829301Y-94678511D01*
X171829487Y-94687464D01*
X171829408Y-94687661D01*
X171702563Y-94996191D01*
X171696248Y-95002540D01*
X171696191Y-95002563D01*
X171387661Y-95129408D01*
X171378706Y-95129385D01*
X171372391Y-95123036D01*
X171372312Y-95122839D01*
X171198981Y-94678511D01*
X171154770Y-94565177D01*
X171154956Y-94556226D01*
X171157394Y-94552657D01*
X171252655Y-94457396D01*
X171260927Y-94453970D01*
X171265176Y-94454769D01*
G37*
G04 #@! TD.AperFunction*
G04 #@! TA.AperFunction,Conductor*
G36*
X138143773Y-108054956D02*
G01*
X138147345Y-108057397D01*
X138242602Y-108152654D01*
X138246029Y-108160927D01*
X138245229Y-108165179D01*
X138027687Y-108722839D01*
X138021488Y-108729301D01*
X138012535Y-108729487D01*
X138012338Y-108729408D01*
X137703808Y-108602563D01*
X137697460Y-108596249D01*
X137570591Y-108287660D01*
X137570614Y-108278706D01*
X137576963Y-108272391D01*
X137577131Y-108272323D01*
X138134822Y-108054770D01*
X138143773Y-108054956D01*
G37*
G04 #@! TD.AperFunction*
G04 #@! TA.AperFunction,Conductor*
G36*
X134713817Y-104602590D02*
G01*
X135490457Y-104748210D01*
X135497956Y-104753103D01*
X135500000Y-104759710D01*
X135500000Y-105240289D01*
X135496573Y-105248562D01*
X135490456Y-105251789D01*
X134713820Y-105397408D01*
X134705057Y-105395564D01*
X134700164Y-105388064D01*
X134699964Y-105385946D01*
X134699000Y-105000000D01*
X134699964Y-104614059D01*
X134703412Y-104605797D01*
X134711693Y-104602391D01*
X134713817Y-104602590D01*
G37*
G04 #@! TD.AperFunction*
G04 #@! TA.AperFunction,Conductor*
G36*
X137570565Y-108287442D02*
G01*
X137570649Y-108287637D01*
X137699119Y-108595494D01*
X137699142Y-108604449D01*
X137699119Y-108604506D01*
X137570649Y-108912362D01*
X137564300Y-108918677D01*
X137555345Y-108918654D01*
X137555150Y-108918570D01*
X137006999Y-108678070D01*
X137000800Y-108671608D01*
X137000000Y-108667356D01*
X137000000Y-108532643D01*
X137003427Y-108524370D01*
X137006999Y-108521929D01*
X137555150Y-108281429D01*
X137564103Y-108281243D01*
X137570565Y-108287442D01*
G37*
G04 #@! TD.AperFunction*
G04 #@! TA.AperFunction,Conductor*
G36*
X122744654Y-105781345D02*
G01*
X122744849Y-105781429D01*
X123293001Y-106021929D01*
X123299200Y-106028391D01*
X123300000Y-106032643D01*
X123300000Y-106167356D01*
X123296573Y-106175629D01*
X123293001Y-106178070D01*
X122744849Y-106418570D01*
X122735896Y-106418756D01*
X122729434Y-106412557D01*
X122729350Y-106412362D01*
X122600880Y-106104506D01*
X122600857Y-106095551D01*
X122600880Y-106095494D01*
X122627108Y-106032643D01*
X122729351Y-105787635D01*
X122735699Y-105781322D01*
X122744654Y-105781345D01*
G37*
G04 #@! TD.AperFunction*
G04 #@! TA.AperFunction,Conductor*
G36*
X178344654Y-89381345D02*
G01*
X178344849Y-89381429D01*
X178893001Y-89621929D01*
X178899200Y-89628391D01*
X178900000Y-89632643D01*
X178900000Y-89767356D01*
X178896573Y-89775629D01*
X178893001Y-89778070D01*
X178344849Y-90018570D01*
X178335896Y-90018756D01*
X178329434Y-90012557D01*
X178329350Y-90012362D01*
X178200880Y-89704506D01*
X178200857Y-89695551D01*
X178200880Y-89695494D01*
X178227108Y-89632643D01*
X178329351Y-89387635D01*
X178335699Y-89381322D01*
X178344654Y-89381345D01*
G37*
G04 #@! TD.AperFunction*
G04 #@! TA.AperFunction,Conductor*
G36*
X136583128Y-111633691D02*
G01*
X137447228Y-112441736D01*
X137450930Y-112449890D01*
X137447783Y-112458273D01*
X137447510Y-112458555D01*
X137350096Y-112555969D01*
X137349925Y-112556137D01*
X136583269Y-113292062D01*
X136574928Y-113295319D01*
X136566894Y-113291894D01*
X135732703Y-112457703D01*
X135729276Y-112449430D01*
X135732703Y-112441157D01*
X135732840Y-112441022D01*
X136567003Y-111633828D01*
X136575329Y-111630539D01*
X136583128Y-111633691D01*
G37*
G04 #@! TD.AperFunction*
D27*
X200000000Y-73200000D02*
X200000000Y-116800000D01*
X100000000Y-73200000D02*
X100000000Y-116800000D01*
X196800000Y-70000000D02*
X103200000Y-70000000D01*
X196800000Y-70000000D02*
G75*
G02*
X200000000Y-73200000I-100J-3200100D01*
G01*
X200000000Y-116800000D02*
G75*
G02*
X196800000Y-120000000I-3200000J0D01*
G01*
X100000000Y-73200000D02*
G75*
G02*
X103200000Y-70000000I3200000J0D01*
G01*
X103200000Y-120000000D02*
G75*
G02*
X100000000Y-116800000I0J3200000D01*
G01*
X103200000Y-120000000D02*
X196800000Y-120000000D01*
M02*
