M48
; DRILL file {KiCad 8.0.6} date 2026-01-15T10:53:33-0800
; FORMAT={-:-/ absolute / metric / decimal}
; #@! TF.CreationDate,2026-01-15T10:53:33-08:00
; #@! TF.GenerationSoftware,Kicad,Pcbnew,8.0.6
; #@! TF.FileFunction,Plated,1,4,PTH
FMAT,2
METRIC
; #@! TA.AperFunction,Plated,PTH,ViaDrill
T1C0.300
; #@! TA.AperFunction,Plated,PTH,ViaDrill
T2C0.400
; #@! TA.AperFunction,Plated,PTH,ComponentDrill
T3C0.600
; #@! TA.AperFunction,Plated,PTH,ComponentDrill
T4C0.800
; #@! TA.AperFunction,Plated,PTH,ComponentDrill
T5C0.850
; #@! TA.AperFunction,Plated,PTH,ComponentDrill
T6C1.000
; #@! TA.AperFunction,Plated,PTH,ComponentDrill
T7C1.100
; #@! TA.AperFunction,Plated,PTH,ComponentDrill
T8C3.200
%
G90
G05
T1
X101.6Y-78.0
X102.9Y-95.0
X102.9Y-98.0
X103.9Y-107.3
X104.0Y-102.8
X104.4Y-108.7
X105.2Y-103.6
X105.3Y-105.8
X105.3Y-107.5
X110.9Y-110.7
X111.8Y-115.7
X112.1Y-96.5
X113.4Y-118.9
X114.4Y-86.9
X115.2Y-118.9
X115.9Y-109.0
X116.0Y-110.3
X117.5Y-110.0
X122.6Y-106.1
X123.0Y-105.0
X123.7Y-104.1
X124.5Y-102.7
X125.7Y-109.9
X130.8Y-109.7
X132.4Y-109.0
X133.7Y-103.8
X133.8Y-110.1
X135.05Y-109.55
X135.2Y-103.6
X136.6Y-109.5
X137.7Y-108.6
X138.1Y-111.4
X139.5Y-114.1
X139.6Y-74.3
X140.0Y-118.7
X140.2Y-116.4
X142.1Y-118.7
X145.0Y-117.0
X145.5Y-83.0
X145.9Y-118.1
X146.5Y-100.9
X147.2Y-118.9
X147.4Y-85.4
X147.9Y-103.8
X149.1Y-102.9
X149.3Y-101.7
X149.4Y-118.1
X149.5Y-96.8
X149.6Y-87.6
X150.0Y-116.8
X150.6Y-97.7
X150.9Y-82.7
X151.1Y-117.9
X151.2Y-84.8
X151.8Y-97.3
X152.7Y-117.0
X152.8Y-108.3
X153.1Y-97.8
X153.4Y-99.1
X153.5Y-109.6
X154.1Y-117.8
X154.2Y-97.0
X156.6Y-117.8
X158.9Y-117.8
X160.0Y-92.9
X161.2Y-117.8
X161.7Y-92.8
X161.7Y-96.5
X161.7Y-100.1
X163.2Y-100.5
X163.5Y-117.8
X165.15Y-91.45
X165.2Y-93.6
X165.5Y-96.5
X165.7Y-117.8
X167.35Y-91.45
X168.0Y-117.8
X169.2Y-96.7
X170.3Y-96.2
X170.4Y-117.7
X171.2Y-92.0
X171.7Y-95.0
X172.2Y-90.7
X172.3Y-92.4
X172.6Y-87.5
X172.7Y-95.7
X172.9Y-98.2
X172.9Y-117.7
X173.9Y-88.0
X174.2Y-90.7
X174.3Y-97.7
X175.4Y-87.9
X175.9Y-90.7
X176.5Y-100.5
X176.6Y-108.1
X176.9Y-88.3
X177.2Y-99.5
X177.4Y-90.7
X177.5Y-109.1
X178.2Y-89.7
X178.2Y-93.6
X178.2Y-118.4
X178.3Y-88.4
X178.3Y-95.2
X178.9Y-90.7
X178.9Y-116.4
X179.4Y-96.0
X179.4Y-117.7
X180.4Y-94.7
X180.9Y-108.1
X182.3Y-108.8
X182.4Y-104.7
X182.4Y-106.0
X182.4Y-107.4
X183.5Y-105.5
X183.5Y-106.8
X183.5Y-108.1
X183.8Y-114.8
X185.2Y-115.2
X185.2Y-117.7
X186.4Y-114.3
X186.8Y-116.5
X188.4Y-117.7
X189.3Y-115.9
X191.2Y-117.7
X191.5Y-114.4
X191.7Y-113.0
X194.0Y-112.1
T2
X106.9Y-112.1
X108.0Y-113.7
X108.4Y-99.7
X109.0Y-72.5
X109.6Y-108.6
X109.7Y-110.1
X110.2Y-101.1
X110.2Y-111.8
X114.4Y-83.5
X114.4Y-85.2
X114.4Y-117.9
X116.8Y-86.4
X118.4Y-86.6
X121.5Y-100.8
X121.7Y-102.6
X130.9Y-107.7
X131.1Y-71.2
X132.9Y-72.2
X134.3Y-71.3
X134.4Y-93.8
X134.5Y-86.8
X134.5Y-88.2
X134.5Y-90.3
X134.5Y-91.9
X134.7Y-105.0
X135.8Y-95.9
X137.0Y-74.5
X137.9Y-96.1
X138.0Y-94.7
X138.4Y-75.0
X139.3Y-71.7
X139.6Y-77.4
X141.2Y-117.6
X141.3Y-75.8
X141.7Y-98.8
X141.9Y-71.7
X144.6Y-71.7
X145.0Y-75.7
X145.0Y-77.6
X147.1Y-99.7
X149.4Y-98.7
X151.8Y-94.3
X154.6Y-94.3
X159.5Y-98.9
X160.1Y-100.5
X164.1Y-101.7
X167.0Y-100.2
X170.7Y-100.2
X174.7Y-100.8
X182.0Y-89.5
X182.8Y-87.7
X186.5Y-92.5
X186.5Y-94.5
X186.5Y-96.5
X186.5Y-98.5
X186.5Y-100.5
X187.3Y-82.8
X187.3Y-84.3
X187.3Y-85.8
X188.9Y-82.8
X188.9Y-84.3
X190.6Y-82.8
X196.0Y-80.0
X196.0Y-82.5
X196.5Y-93.0
X196.5Y-100.5
X196.5Y-103.0
X196.5Y-105.5
X196.5Y-108.0
X196.5Y-110.5
X198.0Y-79.0
X198.0Y-81.5
X198.0Y-84.0
X198.0Y-86.5
X198.0Y-89.0
X198.0Y-91.5
X198.0Y-94.0
X198.0Y-96.5
X198.0Y-99.0
X198.0Y-101.5
X198.0Y-104.0
X198.0Y-106.5
X198.0Y-109.0
X198.0Y-111.5
T5
X143.2Y-95.0
X146.7Y-95.0
X190.887Y-96.8
X190.987Y-87.763
X194.387Y-96.8
X194.487Y-87.763
T6
X117.42Y-112.36
X117.42Y-114.9
X119.96Y-112.36
X119.96Y-114.9
X122.5Y-112.36
X122.5Y-114.9
X125.04Y-112.36
X125.04Y-114.9
X129.325Y-87.1
X129.325Y-89.64
X129.325Y-92.18
X129.325Y-94.72
X130.645Y-112.45
X130.645Y-114.99
X131.865Y-87.1
X131.865Y-89.64
X131.865Y-92.18
X131.865Y-94.72
X133.185Y-112.45
X133.185Y-114.99
X135.725Y-112.45
X135.725Y-114.99
T7
X107.35Y-81.7
X107.35Y-84.2
X107.35Y-86.7
X148.95Y-77.35
X151.45Y-77.35
X153.95Y-77.35
X160.4Y-77.35
X162.9Y-77.35
X165.4Y-77.35
X171.85Y-77.35
X174.35Y-77.35
X176.85Y-77.35
X183.3Y-77.35
X185.8Y-77.35
X188.3Y-77.35
T8
X104.0Y-74.0
X104.0Y-116.0
X196.0Y-74.0
X196.0Y-116.0
T3
X102.9Y-101.39G85X102.3Y-101.39
G05
X102.9Y-110.03G85X102.3Y-110.03
G05
X107.33Y-101.39G85X106.23Y-101.39
G05
X107.33Y-110.03G85X106.23Y-110.03
G05
T4
X113.6Y-79.912G85X113.6Y-77.712
G05
X119.5Y-75.562G85X117.3Y-75.562
G05
X119.5Y-81.812G85X117.3Y-81.812
G05
X125.8Y-80.013G85X125.8Y-77.812
G05
X131.7Y-75.662G85X129.5Y-75.662
G05
X131.7Y-81.912G85X129.5Y-81.912
G05
M30
