G04 #@! TF.GenerationSoftware,KiCad,Pcbnew,8.0.6*
G04 #@! TF.CreationDate,2026-01-05T17:20:55-08:00*
G04 #@! TF.ProjectId,USBPD_Board,55534250-445f-4426-9f61-72642e6b6963,A*
G04 #@! TF.SameCoordinates,Original*
G04 #@! TF.FileFunction,Legend,Bot*
G04 #@! TF.FilePolarity,Positive*
%FSLAX46Y46*%
G04 Gerber Fmt 4.6, Leading zero omitted, Abs format (unit mm)*
G04 Created by KiCad (PCBNEW 8.0.6) date 2026-01-05 17:20:55*
%MOMM*%
%LPD*%
G01*
G04 APERTURE LIST*
G04 Aperture macros list*
%AMRoundRect*
0 Rectangle with rounded corners*
0 $1 Rounding radius*
0 $2 $3 $4 $5 $6 $7 $8 $9 X,Y pos of 4 corners*
0 Add a 4 corners polygon primitive as box body*
4,1,4,$2,$3,$4,$5,$6,$7,$8,$9,$2,$3,0*
0 Add four circle primitives for the rounded corners*
1,1,$1+$1,$2,$3*
1,1,$1+$1,$4,$5*
1,1,$1+$1,$6,$7*
1,1,$1+$1,$8,$9*
0 Add four rect primitives between the rounded corners*
20,1,$1+$1,$2,$3,$4,$5,0*
20,1,$1+$1,$4,$5,$6,$7,0*
20,1,$1+$1,$6,$7,$8,$9,0*
20,1,$1+$1,$8,$9,$2,$3,0*%
G04 Aperture macros list end*
%ADD10C,0.100000*%
%ADD11C,0.150000*%
%ADD12C,0.153000*%
%ADD13C,0.120000*%
%ADD14C,0.200000*%
%ADD15C,0.000000*%
%ADD16RoundRect,0.102000X-0.600000X-0.600000X0.600000X-0.600000X0.600000X0.600000X-0.600000X0.600000X0*%
%ADD17C,1.404000*%
%ADD18R,1.650000X1.650000*%
%ADD19C,1.650000*%
%ADD20R,1.700000X1.700000*%
%ADD21O,1.700000X1.700000*%
%ADD22C,6.400000*%
%ADD23O,3.804000X1.604000*%
%ADD24O,1.604000X3.804000*%
%ADD25C,0.650000*%
%ADD26O,2.100000X1.000000*%
%ADD27O,1.600000X1.000000*%
%ADD28RoundRect,0.250000X0.262500X0.450000X-0.262500X0.450000X-0.262500X-0.450000X0.262500X-0.450000X0*%
%ADD29RoundRect,0.250000X0.475000X-0.250000X0.475000X0.250000X-0.475000X0.250000X-0.475000X-0.250000X0*%
%ADD30RoundRect,0.250000X-0.250000X-0.475000X0.250000X-0.475000X0.250000X0.475000X-0.250000X0.475000X0*%
%ADD31RoundRect,0.250000X-0.312500X-0.625000X0.312500X-0.625000X0.312500X0.625000X-0.312500X0.625000X0*%
%ADD32RoundRect,0.225000X-0.225000X-0.375000X0.225000X-0.375000X0.225000X0.375000X-0.225000X0.375000X0*%
%ADD33RoundRect,0.250000X-0.475000X0.250000X-0.475000X-0.250000X0.475000X-0.250000X0.475000X0.250000X0*%
%ADD34RoundRect,0.250000X0.625000X-0.312500X0.625000X0.312500X-0.625000X0.312500X-0.625000X-0.312500X0*%
%ADD35C,0.900000*%
%ADD36R,1.000000X0.700000*%
%ADD37R,0.800000X1.000000*%
%ADD38RoundRect,0.250000X0.250000X0.475000X-0.250000X0.475000X-0.250000X-0.475000X0.250000X-0.475000X0*%
%ADD39RoundRect,0.225000X0.375000X-0.225000X0.375000X0.225000X-0.375000X0.225000X-0.375000X-0.225000X0*%
%ADD40RoundRect,0.150000X0.150000X-0.587500X0.150000X0.587500X-0.150000X0.587500X-0.150000X-0.587500X0*%
%ADD41R,1.200000X1.200000*%
%ADD42R,4.200000X1.400000*%
%ADD43RoundRect,0.075000X0.325000X0.075000X-0.325000X0.075000X-0.325000X-0.075000X0.325000X-0.075000X0*%
%ADD44R,1.700000X2.050000*%
%ADD45RoundRect,0.150000X0.512500X0.150000X-0.512500X0.150000X-0.512500X-0.150000X0.512500X-0.150000X0*%
%ADD46R,1.300000X0.600000*%
G04 #@! TA.AperFunction,Profile*
%ADD47C,0.050000*%
G04 #@! TD*
G04 APERTURE END LIST*
D10*
X126250000Y-104000000D02*
X126250000Y-104600000D01*
X116100000Y-106500000D02*
X121000000Y-106500000D01*
X123700000Y-110900000D02*
X116100000Y-110900000D01*
X116100000Y-110900000D02*
X116100000Y-113700000D01*
X123700000Y-113700000D02*
X123700000Y-110900000D01*
X121350000Y-104000000D02*
X126250000Y-104000000D01*
X121000000Y-106500000D02*
X121000000Y-107100000D01*
X121350000Y-104000000D02*
X121350000Y-104700000D01*
X116100000Y-113700000D02*
X123700000Y-113700000D01*
X116100000Y-106500000D02*
X116100000Y-107200000D01*
D11*
X134114285Y-105354819D02*
X134114285Y-104354819D01*
X134114285Y-104354819D02*
X133780952Y-105069104D01*
X133780952Y-105069104D02*
X133447619Y-104354819D01*
X133447619Y-104354819D02*
X133447619Y-105354819D01*
X132400000Y-105259580D02*
X132447619Y-105307200D01*
X132447619Y-105307200D02*
X132590476Y-105354819D01*
X132590476Y-105354819D02*
X132685714Y-105354819D01*
X132685714Y-105354819D02*
X132828571Y-105307200D01*
X132828571Y-105307200D02*
X132923809Y-105211961D01*
X132923809Y-105211961D02*
X132971428Y-105116723D01*
X132971428Y-105116723D02*
X133019047Y-104926247D01*
X133019047Y-104926247D02*
X133019047Y-104783390D01*
X133019047Y-104783390D02*
X132971428Y-104592914D01*
X132971428Y-104592914D02*
X132923809Y-104497676D01*
X132923809Y-104497676D02*
X132828571Y-104402438D01*
X132828571Y-104402438D02*
X132685714Y-104354819D01*
X132685714Y-104354819D02*
X132590476Y-104354819D01*
X132590476Y-104354819D02*
X132447619Y-104402438D01*
X132447619Y-104402438D02*
X132400000Y-104450057D01*
X131971428Y-105354819D02*
X131971428Y-104354819D01*
X131971428Y-104354819D02*
X131590476Y-104354819D01*
X131590476Y-104354819D02*
X131495238Y-104402438D01*
X131495238Y-104402438D02*
X131447619Y-104450057D01*
X131447619Y-104450057D02*
X131400000Y-104545295D01*
X131400000Y-104545295D02*
X131400000Y-104688152D01*
X131400000Y-104688152D02*
X131447619Y-104783390D01*
X131447619Y-104783390D02*
X131495238Y-104831009D01*
X131495238Y-104831009D02*
X131590476Y-104878628D01*
X131590476Y-104878628D02*
X131971428Y-104878628D01*
X130447619Y-105354819D02*
X131019047Y-105354819D01*
X130733333Y-105354819D02*
X130733333Y-104354819D01*
X130733333Y-104354819D02*
X130828571Y-104497676D01*
X130828571Y-104497676D02*
X130923809Y-104592914D01*
X130923809Y-104592914D02*
X131019047Y-104640533D01*
X129971428Y-105354819D02*
X129780952Y-105354819D01*
X129780952Y-105354819D02*
X129685714Y-105307200D01*
X129685714Y-105307200D02*
X129638095Y-105259580D01*
X129638095Y-105259580D02*
X129542857Y-105116723D01*
X129542857Y-105116723D02*
X129495238Y-104926247D01*
X129495238Y-104926247D02*
X129495238Y-104545295D01*
X129495238Y-104545295D02*
X129542857Y-104450057D01*
X129542857Y-104450057D02*
X129590476Y-104402438D01*
X129590476Y-104402438D02*
X129685714Y-104354819D01*
X129685714Y-104354819D02*
X129876190Y-104354819D01*
X129876190Y-104354819D02*
X129971428Y-104402438D01*
X129971428Y-104402438D02*
X130019047Y-104450057D01*
X130019047Y-104450057D02*
X130066666Y-104545295D01*
X130066666Y-104545295D02*
X130066666Y-104783390D01*
X130066666Y-104783390D02*
X130019047Y-104878628D01*
X130019047Y-104878628D02*
X129971428Y-104926247D01*
X129971428Y-104926247D02*
X129876190Y-104973866D01*
X129876190Y-104973866D02*
X129685714Y-104973866D01*
X129685714Y-104973866D02*
X129590476Y-104926247D01*
X129590476Y-104926247D02*
X129542857Y-104878628D01*
X129542857Y-104878628D02*
X129495238Y-104783390D01*
X128876190Y-104354819D02*
X128780952Y-104354819D01*
X128780952Y-104354819D02*
X128685714Y-104402438D01*
X128685714Y-104402438D02*
X128638095Y-104450057D01*
X128638095Y-104450057D02*
X128590476Y-104545295D01*
X128590476Y-104545295D02*
X128542857Y-104735771D01*
X128542857Y-104735771D02*
X128542857Y-104973866D01*
X128542857Y-104973866D02*
X128590476Y-105164342D01*
X128590476Y-105164342D02*
X128638095Y-105259580D01*
X128638095Y-105259580D02*
X128685714Y-105307200D01*
X128685714Y-105307200D02*
X128780952Y-105354819D01*
X128780952Y-105354819D02*
X128876190Y-105354819D01*
X128876190Y-105354819D02*
X128971428Y-105307200D01*
X128971428Y-105307200D02*
X129019047Y-105259580D01*
X129019047Y-105259580D02*
X129066666Y-105164342D01*
X129066666Y-105164342D02*
X129114285Y-104973866D01*
X129114285Y-104973866D02*
X129114285Y-104735771D01*
X129114285Y-104735771D02*
X129066666Y-104545295D01*
X129066666Y-104545295D02*
X129019047Y-104450057D01*
X129019047Y-104450057D02*
X128971428Y-104402438D01*
X128971428Y-104402438D02*
X128876190Y-104354819D01*
X127685714Y-104354819D02*
X127876190Y-104354819D01*
X127876190Y-104354819D02*
X127971428Y-104402438D01*
X127971428Y-104402438D02*
X128019047Y-104450057D01*
X128019047Y-104450057D02*
X128114285Y-104592914D01*
X128114285Y-104592914D02*
X128161904Y-104783390D01*
X128161904Y-104783390D02*
X128161904Y-105164342D01*
X128161904Y-105164342D02*
X128114285Y-105259580D01*
X128114285Y-105259580D02*
X128066666Y-105307200D01*
X128066666Y-105307200D02*
X127971428Y-105354819D01*
X127971428Y-105354819D02*
X127780952Y-105354819D01*
X127780952Y-105354819D02*
X127685714Y-105307200D01*
X127685714Y-105307200D02*
X127638095Y-105259580D01*
X127638095Y-105259580D02*
X127590476Y-105164342D01*
X127590476Y-105164342D02*
X127590476Y-104926247D01*
X127590476Y-104926247D02*
X127638095Y-104831009D01*
X127638095Y-104831009D02*
X127685714Y-104783390D01*
X127685714Y-104783390D02*
X127780952Y-104735771D01*
X127780952Y-104735771D02*
X127971428Y-104735771D01*
X127971428Y-104735771D02*
X128066666Y-104783390D01*
X128066666Y-104783390D02*
X128114285Y-104831009D01*
X128114285Y-104831009D02*
X128161904Y-104926247D01*
X126638095Y-105354819D02*
X127209523Y-105354819D01*
X126923809Y-105354819D02*
X126923809Y-104354819D01*
X126923809Y-104354819D02*
X127019047Y-104497676D01*
X127019047Y-104497676D02*
X127114285Y-104592914D01*
X127114285Y-104592914D02*
X127209523Y-104640533D01*
X117797561Y-109114285D02*
X117845180Y-109209523D01*
X117845180Y-109209523D02*
X117845180Y-109352380D01*
X117845180Y-109352380D02*
X117797561Y-109495237D01*
X117797561Y-109495237D02*
X117702323Y-109590475D01*
X117702323Y-109590475D02*
X117607085Y-109638094D01*
X117607085Y-109638094D02*
X117416609Y-109685713D01*
X117416609Y-109685713D02*
X117273752Y-109685713D01*
X117273752Y-109685713D02*
X117083276Y-109638094D01*
X117083276Y-109638094D02*
X116988038Y-109590475D01*
X116988038Y-109590475D02*
X116892800Y-109495237D01*
X116892800Y-109495237D02*
X116845180Y-109352380D01*
X116845180Y-109352380D02*
X116845180Y-109257142D01*
X116845180Y-109257142D02*
X116892800Y-109114285D01*
X116892800Y-109114285D02*
X116940419Y-109066666D01*
X116940419Y-109066666D02*
X117273752Y-109066666D01*
X117273752Y-109066666D02*
X117273752Y-109257142D01*
X116845180Y-108638094D02*
X117845180Y-108638094D01*
X117845180Y-108638094D02*
X117845180Y-108257142D01*
X117845180Y-108257142D02*
X117797561Y-108161904D01*
X117797561Y-108161904D02*
X117749942Y-108114285D01*
X117749942Y-108114285D02*
X117654704Y-108066666D01*
X117654704Y-108066666D02*
X117511847Y-108066666D01*
X117511847Y-108066666D02*
X117416609Y-108114285D01*
X117416609Y-108114285D02*
X117368990Y-108161904D01*
X117368990Y-108161904D02*
X117321371Y-108257142D01*
X117321371Y-108257142D02*
X117321371Y-108638094D01*
X116845180Y-107114285D02*
X116845180Y-107685713D01*
X116845180Y-107399999D02*
X117845180Y-107399999D01*
X117845180Y-107399999D02*
X117702323Y-107495237D01*
X117702323Y-107495237D02*
X117607085Y-107590475D01*
X117607085Y-107590475D02*
X117559466Y-107685713D01*
D12*
X148445336Y-74047619D02*
X148921527Y-74380952D01*
X148445336Y-74619047D02*
X149445336Y-74619047D01*
X149445336Y-74619047D02*
X149445336Y-74238095D01*
X149445336Y-74238095D02*
X149397717Y-74142857D01*
X149397717Y-74142857D02*
X149350098Y-74095238D01*
X149350098Y-74095238D02*
X149254860Y-74047619D01*
X149254860Y-74047619D02*
X149112003Y-74047619D01*
X149112003Y-74047619D02*
X149016765Y-74095238D01*
X149016765Y-74095238D02*
X148969146Y-74142857D01*
X148969146Y-74142857D02*
X148921527Y-74238095D01*
X148921527Y-74238095D02*
X148921527Y-74619047D01*
X148492956Y-73666666D02*
X148445336Y-73523809D01*
X148445336Y-73523809D02*
X148445336Y-73285714D01*
X148445336Y-73285714D02*
X148492956Y-73190476D01*
X148492956Y-73190476D02*
X148540575Y-73142857D01*
X148540575Y-73142857D02*
X148635813Y-73095238D01*
X148635813Y-73095238D02*
X148731051Y-73095238D01*
X148731051Y-73095238D02*
X148826289Y-73142857D01*
X148826289Y-73142857D02*
X148873908Y-73190476D01*
X148873908Y-73190476D02*
X148921527Y-73285714D01*
X148921527Y-73285714D02*
X148969146Y-73476190D01*
X148969146Y-73476190D02*
X149016765Y-73571428D01*
X149016765Y-73571428D02*
X149064384Y-73619047D01*
X149064384Y-73619047D02*
X149159622Y-73666666D01*
X149159622Y-73666666D02*
X149254860Y-73666666D01*
X149254860Y-73666666D02*
X149350098Y-73619047D01*
X149350098Y-73619047D02*
X149397717Y-73571428D01*
X149397717Y-73571428D02*
X149445336Y-73476190D01*
X149445336Y-73476190D02*
X149445336Y-73238095D01*
X149445336Y-73238095D02*
X149397717Y-73095238D01*
X149445336Y-72809523D02*
X149445336Y-72238095D01*
X148445336Y-72523809D02*
X149445336Y-72523809D01*
X151997717Y-74161904D02*
X152045336Y-74257142D01*
X152045336Y-74257142D02*
X152045336Y-74399999D01*
X152045336Y-74399999D02*
X151997717Y-74542856D01*
X151997717Y-74542856D02*
X151902479Y-74638094D01*
X151902479Y-74638094D02*
X151807241Y-74685713D01*
X151807241Y-74685713D02*
X151616765Y-74733332D01*
X151616765Y-74733332D02*
X151473908Y-74733332D01*
X151473908Y-74733332D02*
X151283432Y-74685713D01*
X151283432Y-74685713D02*
X151188194Y-74638094D01*
X151188194Y-74638094D02*
X151092956Y-74542856D01*
X151092956Y-74542856D02*
X151045336Y-74399999D01*
X151045336Y-74399999D02*
X151045336Y-74304761D01*
X151045336Y-74304761D02*
X151092956Y-74161904D01*
X151092956Y-74161904D02*
X151140575Y-74114285D01*
X151140575Y-74114285D02*
X151473908Y-74114285D01*
X151473908Y-74114285D02*
X151473908Y-74304761D01*
X151045336Y-73685713D02*
X152045336Y-73685713D01*
X152045336Y-73685713D02*
X151045336Y-73114285D01*
X151045336Y-73114285D02*
X152045336Y-73114285D01*
X151045336Y-72638094D02*
X152045336Y-72638094D01*
X152045336Y-72638094D02*
X152045336Y-72399999D01*
X152045336Y-72399999D02*
X151997717Y-72257142D01*
X151997717Y-72257142D02*
X151902479Y-72161904D01*
X151902479Y-72161904D02*
X151807241Y-72114285D01*
X151807241Y-72114285D02*
X151616765Y-72066666D01*
X151616765Y-72066666D02*
X151473908Y-72066666D01*
X151473908Y-72066666D02*
X151283432Y-72114285D01*
X151283432Y-72114285D02*
X151188194Y-72161904D01*
X151188194Y-72161904D02*
X151092956Y-72257142D01*
X151092956Y-72257142D02*
X151045336Y-72399999D01*
X151045336Y-72399999D02*
X151045336Y-72638094D01*
X160045336Y-74147619D02*
X160521527Y-74480952D01*
X160045336Y-74719047D02*
X161045336Y-74719047D01*
X161045336Y-74719047D02*
X161045336Y-74338095D01*
X161045336Y-74338095D02*
X160997717Y-74242857D01*
X160997717Y-74242857D02*
X160950098Y-74195238D01*
X160950098Y-74195238D02*
X160854860Y-74147619D01*
X160854860Y-74147619D02*
X160712003Y-74147619D01*
X160712003Y-74147619D02*
X160616765Y-74195238D01*
X160616765Y-74195238D02*
X160569146Y-74242857D01*
X160569146Y-74242857D02*
X160521527Y-74338095D01*
X160521527Y-74338095D02*
X160521527Y-74719047D01*
X160092956Y-73766666D02*
X160045336Y-73623809D01*
X160045336Y-73623809D02*
X160045336Y-73385714D01*
X160045336Y-73385714D02*
X160092956Y-73290476D01*
X160092956Y-73290476D02*
X160140575Y-73242857D01*
X160140575Y-73242857D02*
X160235813Y-73195238D01*
X160235813Y-73195238D02*
X160331051Y-73195238D01*
X160331051Y-73195238D02*
X160426289Y-73242857D01*
X160426289Y-73242857D02*
X160473908Y-73290476D01*
X160473908Y-73290476D02*
X160521527Y-73385714D01*
X160521527Y-73385714D02*
X160569146Y-73576190D01*
X160569146Y-73576190D02*
X160616765Y-73671428D01*
X160616765Y-73671428D02*
X160664384Y-73719047D01*
X160664384Y-73719047D02*
X160759622Y-73766666D01*
X160759622Y-73766666D02*
X160854860Y-73766666D01*
X160854860Y-73766666D02*
X160950098Y-73719047D01*
X160950098Y-73719047D02*
X160997717Y-73671428D01*
X160997717Y-73671428D02*
X161045336Y-73576190D01*
X161045336Y-73576190D02*
X161045336Y-73338095D01*
X161045336Y-73338095D02*
X160997717Y-73195238D01*
X161045336Y-72909523D02*
X161045336Y-72338095D01*
X160045336Y-72623809D02*
X161045336Y-72623809D01*
D11*
X115366666Y-107654819D02*
X115366666Y-106654819D01*
X115366666Y-106654819D02*
X115033333Y-107369104D01*
X115033333Y-107369104D02*
X114700000Y-106654819D01*
X114700000Y-106654819D02*
X114700000Y-107654819D01*
X113652381Y-107559580D02*
X113700000Y-107607200D01*
X113700000Y-107607200D02*
X113842857Y-107654819D01*
X113842857Y-107654819D02*
X113938095Y-107654819D01*
X113938095Y-107654819D02*
X114080952Y-107607200D01*
X114080952Y-107607200D02*
X114176190Y-107511961D01*
X114176190Y-107511961D02*
X114223809Y-107416723D01*
X114223809Y-107416723D02*
X114271428Y-107226247D01*
X114271428Y-107226247D02*
X114271428Y-107083390D01*
X114271428Y-107083390D02*
X114223809Y-106892914D01*
X114223809Y-106892914D02*
X114176190Y-106797676D01*
X114176190Y-106797676D02*
X114080952Y-106702438D01*
X114080952Y-106702438D02*
X113938095Y-106654819D01*
X113938095Y-106654819D02*
X113842857Y-106654819D01*
X113842857Y-106654819D02*
X113700000Y-106702438D01*
X113700000Y-106702438D02*
X113652381Y-106750057D01*
X113223809Y-107654819D02*
X113223809Y-106654819D01*
X113223809Y-106654819D02*
X112842857Y-106654819D01*
X112842857Y-106654819D02*
X112747619Y-106702438D01*
X112747619Y-106702438D02*
X112700000Y-106750057D01*
X112700000Y-106750057D02*
X112652381Y-106845295D01*
X112652381Y-106845295D02*
X112652381Y-106988152D01*
X112652381Y-106988152D02*
X112700000Y-107083390D01*
X112700000Y-107083390D02*
X112747619Y-107131009D01*
X112747619Y-107131009D02*
X112842857Y-107178628D01*
X112842857Y-107178628D02*
X113223809Y-107178628D01*
X112271428Y-106750057D02*
X112223809Y-106702438D01*
X112223809Y-106702438D02*
X112128571Y-106654819D01*
X112128571Y-106654819D02*
X111890476Y-106654819D01*
X111890476Y-106654819D02*
X111795238Y-106702438D01*
X111795238Y-106702438D02*
X111747619Y-106750057D01*
X111747619Y-106750057D02*
X111700000Y-106845295D01*
X111700000Y-106845295D02*
X111700000Y-106940533D01*
X111700000Y-106940533D02*
X111747619Y-107083390D01*
X111747619Y-107083390D02*
X112319047Y-107654819D01*
X112319047Y-107654819D02*
X111700000Y-107654819D01*
X111319047Y-106750057D02*
X111271428Y-106702438D01*
X111271428Y-106702438D02*
X111176190Y-106654819D01*
X111176190Y-106654819D02*
X110938095Y-106654819D01*
X110938095Y-106654819D02*
X110842857Y-106702438D01*
X110842857Y-106702438D02*
X110795238Y-106750057D01*
X110795238Y-106750057D02*
X110747619Y-106845295D01*
X110747619Y-106845295D02*
X110747619Y-106940533D01*
X110747619Y-106940533D02*
X110795238Y-107083390D01*
X110795238Y-107083390D02*
X111366666Y-107654819D01*
X111366666Y-107654819D02*
X110747619Y-107654819D01*
X110366666Y-106750057D02*
X110319047Y-106702438D01*
X110319047Y-106702438D02*
X110223809Y-106654819D01*
X110223809Y-106654819D02*
X109985714Y-106654819D01*
X109985714Y-106654819D02*
X109890476Y-106702438D01*
X109890476Y-106702438D02*
X109842857Y-106750057D01*
X109842857Y-106750057D02*
X109795238Y-106845295D01*
X109795238Y-106845295D02*
X109795238Y-106940533D01*
X109795238Y-106940533D02*
X109842857Y-107083390D01*
X109842857Y-107083390D02*
X110414285Y-107654819D01*
X110414285Y-107654819D02*
X109795238Y-107654819D01*
X108842857Y-107654819D02*
X109414285Y-107654819D01*
X109128571Y-107654819D02*
X109128571Y-106654819D01*
X109128571Y-106654819D02*
X109223809Y-106797676D01*
X109223809Y-106797676D02*
X109319047Y-106892914D01*
X109319047Y-106892914D02*
X109414285Y-106940533D01*
X108461904Y-107369104D02*
X107985714Y-107369104D01*
X108557142Y-107654819D02*
X108223809Y-106654819D01*
X108223809Y-106654819D02*
X107890476Y-107654819D01*
D12*
X174797717Y-74461904D02*
X174845336Y-74557142D01*
X174845336Y-74557142D02*
X174845336Y-74699999D01*
X174845336Y-74699999D02*
X174797717Y-74842856D01*
X174797717Y-74842856D02*
X174702479Y-74938094D01*
X174702479Y-74938094D02*
X174607241Y-74985713D01*
X174607241Y-74985713D02*
X174416765Y-75033332D01*
X174416765Y-75033332D02*
X174273908Y-75033332D01*
X174273908Y-75033332D02*
X174083432Y-74985713D01*
X174083432Y-74985713D02*
X173988194Y-74938094D01*
X173988194Y-74938094D02*
X173892956Y-74842856D01*
X173892956Y-74842856D02*
X173845336Y-74699999D01*
X173845336Y-74699999D02*
X173845336Y-74604761D01*
X173845336Y-74604761D02*
X173892956Y-74461904D01*
X173892956Y-74461904D02*
X173940575Y-74414285D01*
X173940575Y-74414285D02*
X174273908Y-74414285D01*
X174273908Y-74414285D02*
X174273908Y-74604761D01*
X173845336Y-73985713D02*
X174845336Y-73985713D01*
X174845336Y-73985713D02*
X173845336Y-73414285D01*
X173845336Y-73414285D02*
X174845336Y-73414285D01*
X173845336Y-72938094D02*
X174845336Y-72938094D01*
X174845336Y-72938094D02*
X174845336Y-72699999D01*
X174845336Y-72699999D02*
X174797717Y-72557142D01*
X174797717Y-72557142D02*
X174702479Y-72461904D01*
X174702479Y-72461904D02*
X174607241Y-72414285D01*
X174607241Y-72414285D02*
X174416765Y-72366666D01*
X174416765Y-72366666D02*
X174273908Y-72366666D01*
X174273908Y-72366666D02*
X174083432Y-72414285D01*
X174083432Y-72414285D02*
X173988194Y-72461904D01*
X173988194Y-72461904D02*
X173892956Y-72557142D01*
X173892956Y-72557142D02*
X173845336Y-72699999D01*
X173845336Y-72699999D02*
X173845336Y-72938094D01*
X163597717Y-74261904D02*
X163645336Y-74357142D01*
X163645336Y-74357142D02*
X163645336Y-74499999D01*
X163645336Y-74499999D02*
X163597717Y-74642856D01*
X163597717Y-74642856D02*
X163502479Y-74738094D01*
X163502479Y-74738094D02*
X163407241Y-74785713D01*
X163407241Y-74785713D02*
X163216765Y-74833332D01*
X163216765Y-74833332D02*
X163073908Y-74833332D01*
X163073908Y-74833332D02*
X162883432Y-74785713D01*
X162883432Y-74785713D02*
X162788194Y-74738094D01*
X162788194Y-74738094D02*
X162692956Y-74642856D01*
X162692956Y-74642856D02*
X162645336Y-74499999D01*
X162645336Y-74499999D02*
X162645336Y-74404761D01*
X162645336Y-74404761D02*
X162692956Y-74261904D01*
X162692956Y-74261904D02*
X162740575Y-74214285D01*
X162740575Y-74214285D02*
X163073908Y-74214285D01*
X163073908Y-74214285D02*
X163073908Y-74404761D01*
X162645336Y-73785713D02*
X163645336Y-73785713D01*
X163645336Y-73785713D02*
X162645336Y-73214285D01*
X162645336Y-73214285D02*
X163645336Y-73214285D01*
X162645336Y-72738094D02*
X163645336Y-72738094D01*
X163645336Y-72738094D02*
X163645336Y-72499999D01*
X163645336Y-72499999D02*
X163597717Y-72357142D01*
X163597717Y-72357142D02*
X163502479Y-72261904D01*
X163502479Y-72261904D02*
X163407241Y-72214285D01*
X163407241Y-72214285D02*
X163216765Y-72166666D01*
X163216765Y-72166666D02*
X163073908Y-72166666D01*
X163073908Y-72166666D02*
X162883432Y-72214285D01*
X162883432Y-72214285D02*
X162788194Y-72261904D01*
X162788194Y-72261904D02*
X162692956Y-72357142D01*
X162692956Y-72357142D02*
X162645336Y-72499999D01*
X162645336Y-72499999D02*
X162645336Y-72738094D01*
X154545336Y-74761904D02*
X153545336Y-74428571D01*
X153545336Y-74428571D02*
X154545336Y-74095238D01*
X154545336Y-73571428D02*
X154545336Y-73380952D01*
X154545336Y-73380952D02*
X154497717Y-73285714D01*
X154497717Y-73285714D02*
X154402479Y-73190476D01*
X154402479Y-73190476D02*
X154212003Y-73142857D01*
X154212003Y-73142857D02*
X153878670Y-73142857D01*
X153878670Y-73142857D02*
X153688194Y-73190476D01*
X153688194Y-73190476D02*
X153592956Y-73285714D01*
X153592956Y-73285714D02*
X153545336Y-73380952D01*
X153545336Y-73380952D02*
X153545336Y-73571428D01*
X153545336Y-73571428D02*
X153592956Y-73666666D01*
X153592956Y-73666666D02*
X153688194Y-73761904D01*
X153688194Y-73761904D02*
X153878670Y-73809523D01*
X153878670Y-73809523D02*
X154212003Y-73809523D01*
X154212003Y-73809523D02*
X154402479Y-73761904D01*
X154402479Y-73761904D02*
X154497717Y-73666666D01*
X154497717Y-73666666D02*
X154545336Y-73571428D01*
X154545336Y-72714285D02*
X153735813Y-72714285D01*
X153735813Y-72714285D02*
X153640575Y-72666666D01*
X153640575Y-72666666D02*
X153592956Y-72619047D01*
X153592956Y-72619047D02*
X153545336Y-72523809D01*
X153545336Y-72523809D02*
X153545336Y-72333333D01*
X153545336Y-72333333D02*
X153592956Y-72238095D01*
X153592956Y-72238095D02*
X153640575Y-72190476D01*
X153640575Y-72190476D02*
X153735813Y-72142857D01*
X153735813Y-72142857D02*
X154545336Y-72142857D01*
X154545336Y-71809523D02*
X154545336Y-71238095D01*
X153545336Y-71523809D02*
X154545336Y-71523809D01*
X188845336Y-75161904D02*
X187845336Y-74828571D01*
X187845336Y-74828571D02*
X188845336Y-74495238D01*
X188845336Y-73971428D02*
X188845336Y-73780952D01*
X188845336Y-73780952D02*
X188797717Y-73685714D01*
X188797717Y-73685714D02*
X188702479Y-73590476D01*
X188702479Y-73590476D02*
X188512003Y-73542857D01*
X188512003Y-73542857D02*
X188178670Y-73542857D01*
X188178670Y-73542857D02*
X187988194Y-73590476D01*
X187988194Y-73590476D02*
X187892956Y-73685714D01*
X187892956Y-73685714D02*
X187845336Y-73780952D01*
X187845336Y-73780952D02*
X187845336Y-73971428D01*
X187845336Y-73971428D02*
X187892956Y-74066666D01*
X187892956Y-74066666D02*
X187988194Y-74161904D01*
X187988194Y-74161904D02*
X188178670Y-74209523D01*
X188178670Y-74209523D02*
X188512003Y-74209523D01*
X188512003Y-74209523D02*
X188702479Y-74161904D01*
X188702479Y-74161904D02*
X188797717Y-74066666D01*
X188797717Y-74066666D02*
X188845336Y-73971428D01*
X188845336Y-73114285D02*
X188035813Y-73114285D01*
X188035813Y-73114285D02*
X187940575Y-73066666D01*
X187940575Y-73066666D02*
X187892956Y-73019047D01*
X187892956Y-73019047D02*
X187845336Y-72923809D01*
X187845336Y-72923809D02*
X187845336Y-72733333D01*
X187845336Y-72733333D02*
X187892956Y-72638095D01*
X187892956Y-72638095D02*
X187940575Y-72590476D01*
X187940575Y-72590476D02*
X188035813Y-72542857D01*
X188035813Y-72542857D02*
X188845336Y-72542857D01*
X188845336Y-72209523D02*
X188845336Y-71638095D01*
X187845336Y-71923809D02*
X188845336Y-71923809D01*
X173161247Y-103029803D02*
X173161247Y-103839326D01*
X173161247Y-103839326D02*
X173113628Y-103934564D01*
X173113628Y-103934564D02*
X173066009Y-103982184D01*
X173066009Y-103982184D02*
X172970771Y-104029803D01*
X172970771Y-104029803D02*
X172780295Y-104029803D01*
X172780295Y-104029803D02*
X172685057Y-103982184D01*
X172685057Y-103982184D02*
X172637438Y-103934564D01*
X172637438Y-103934564D02*
X172589819Y-103839326D01*
X172589819Y-103839326D02*
X172589819Y-103029803D01*
X172161247Y-103982184D02*
X172018390Y-104029803D01*
X172018390Y-104029803D02*
X171780295Y-104029803D01*
X171780295Y-104029803D02*
X171685057Y-103982184D01*
X171685057Y-103982184D02*
X171637438Y-103934564D01*
X171637438Y-103934564D02*
X171589819Y-103839326D01*
X171589819Y-103839326D02*
X171589819Y-103744088D01*
X171589819Y-103744088D02*
X171637438Y-103648850D01*
X171637438Y-103648850D02*
X171685057Y-103601231D01*
X171685057Y-103601231D02*
X171780295Y-103553612D01*
X171780295Y-103553612D02*
X171970771Y-103505993D01*
X171970771Y-103505993D02*
X172066009Y-103458374D01*
X172066009Y-103458374D02*
X172113628Y-103410755D01*
X172113628Y-103410755D02*
X172161247Y-103315517D01*
X172161247Y-103315517D02*
X172161247Y-103220279D01*
X172161247Y-103220279D02*
X172113628Y-103125041D01*
X172113628Y-103125041D02*
X172066009Y-103077422D01*
X172066009Y-103077422D02*
X171970771Y-103029803D01*
X171970771Y-103029803D02*
X171732676Y-103029803D01*
X171732676Y-103029803D02*
X171589819Y-103077422D01*
X170827914Y-103505993D02*
X170685057Y-103553612D01*
X170685057Y-103553612D02*
X170637438Y-103601231D01*
X170637438Y-103601231D02*
X170589819Y-103696469D01*
X170589819Y-103696469D02*
X170589819Y-103839326D01*
X170589819Y-103839326D02*
X170637438Y-103934564D01*
X170637438Y-103934564D02*
X170685057Y-103982184D01*
X170685057Y-103982184D02*
X170780295Y-104029803D01*
X170780295Y-104029803D02*
X171161247Y-104029803D01*
X171161247Y-104029803D02*
X171161247Y-103029803D01*
X171161247Y-103029803D02*
X170827914Y-103029803D01*
X170827914Y-103029803D02*
X170732676Y-103077422D01*
X170732676Y-103077422D02*
X170685057Y-103125041D01*
X170685057Y-103125041D02*
X170637438Y-103220279D01*
X170637438Y-103220279D02*
X170637438Y-103315517D01*
X170637438Y-103315517D02*
X170685057Y-103410755D01*
X170685057Y-103410755D02*
X170732676Y-103458374D01*
X170732676Y-103458374D02*
X170827914Y-103505993D01*
X170827914Y-103505993D02*
X171161247Y-103505993D01*
X170161247Y-103648850D02*
X169399343Y-103648850D01*
X168923152Y-104029803D02*
X168923152Y-103029803D01*
X168923152Y-103029803D02*
X168542200Y-103029803D01*
X168542200Y-103029803D02*
X168446962Y-103077422D01*
X168446962Y-103077422D02*
X168399343Y-103125041D01*
X168399343Y-103125041D02*
X168351724Y-103220279D01*
X168351724Y-103220279D02*
X168351724Y-103363136D01*
X168351724Y-103363136D02*
X168399343Y-103458374D01*
X168399343Y-103458374D02*
X168446962Y-103505993D01*
X168446962Y-103505993D02*
X168542200Y-103553612D01*
X168542200Y-103553612D02*
X168923152Y-103553612D01*
X167923152Y-104029803D02*
X167923152Y-103029803D01*
X167923152Y-103029803D02*
X167685057Y-103029803D01*
X167685057Y-103029803D02*
X167542200Y-103077422D01*
X167542200Y-103077422D02*
X167446962Y-103172660D01*
X167446962Y-103172660D02*
X167399343Y-103267898D01*
X167399343Y-103267898D02*
X167351724Y-103458374D01*
X167351724Y-103458374D02*
X167351724Y-103601231D01*
X167351724Y-103601231D02*
X167399343Y-103791707D01*
X167399343Y-103791707D02*
X167446962Y-103886945D01*
X167446962Y-103886945D02*
X167542200Y-103982184D01*
X167542200Y-103982184D02*
X167685057Y-104029803D01*
X167685057Y-104029803D02*
X167923152Y-104029803D01*
X165827914Y-103505993D02*
X165685057Y-103553612D01*
X165685057Y-103553612D02*
X165637438Y-103601231D01*
X165637438Y-103601231D02*
X165589819Y-103696469D01*
X165589819Y-103696469D02*
X165589819Y-103839326D01*
X165589819Y-103839326D02*
X165637438Y-103934564D01*
X165637438Y-103934564D02*
X165685057Y-103982184D01*
X165685057Y-103982184D02*
X165780295Y-104029803D01*
X165780295Y-104029803D02*
X166161247Y-104029803D01*
X166161247Y-104029803D02*
X166161247Y-103029803D01*
X166161247Y-103029803D02*
X165827914Y-103029803D01*
X165827914Y-103029803D02*
X165732676Y-103077422D01*
X165732676Y-103077422D02*
X165685057Y-103125041D01*
X165685057Y-103125041D02*
X165637438Y-103220279D01*
X165637438Y-103220279D02*
X165637438Y-103315517D01*
X165637438Y-103315517D02*
X165685057Y-103410755D01*
X165685057Y-103410755D02*
X165732676Y-103458374D01*
X165732676Y-103458374D02*
X165827914Y-103505993D01*
X165827914Y-103505993D02*
X166161247Y-103505993D01*
X165018390Y-104029803D02*
X165113628Y-103982184D01*
X165113628Y-103982184D02*
X165161247Y-103934564D01*
X165161247Y-103934564D02*
X165208866Y-103839326D01*
X165208866Y-103839326D02*
X165208866Y-103553612D01*
X165208866Y-103553612D02*
X165161247Y-103458374D01*
X165161247Y-103458374D02*
X165113628Y-103410755D01*
X165113628Y-103410755D02*
X165018390Y-103363136D01*
X165018390Y-103363136D02*
X164875533Y-103363136D01*
X164875533Y-103363136D02*
X164780295Y-103410755D01*
X164780295Y-103410755D02*
X164732676Y-103458374D01*
X164732676Y-103458374D02*
X164685057Y-103553612D01*
X164685057Y-103553612D02*
X164685057Y-103839326D01*
X164685057Y-103839326D02*
X164732676Y-103934564D01*
X164732676Y-103934564D02*
X164780295Y-103982184D01*
X164780295Y-103982184D02*
X164875533Y-104029803D01*
X164875533Y-104029803D02*
X165018390Y-104029803D01*
X163827914Y-104029803D02*
X163827914Y-103505993D01*
X163827914Y-103505993D02*
X163875533Y-103410755D01*
X163875533Y-103410755D02*
X163970771Y-103363136D01*
X163970771Y-103363136D02*
X164161247Y-103363136D01*
X164161247Y-103363136D02*
X164256485Y-103410755D01*
X163827914Y-103982184D02*
X163923152Y-104029803D01*
X163923152Y-104029803D02*
X164161247Y-104029803D01*
X164161247Y-104029803D02*
X164256485Y-103982184D01*
X164256485Y-103982184D02*
X164304104Y-103886945D01*
X164304104Y-103886945D02*
X164304104Y-103791707D01*
X164304104Y-103791707D02*
X164256485Y-103696469D01*
X164256485Y-103696469D02*
X164161247Y-103648850D01*
X164161247Y-103648850D02*
X163923152Y-103648850D01*
X163923152Y-103648850D02*
X163827914Y-103601231D01*
X163351723Y-104029803D02*
X163351723Y-103363136D01*
X163351723Y-103553612D02*
X163304104Y-103458374D01*
X163304104Y-103458374D02*
X163256485Y-103410755D01*
X163256485Y-103410755D02*
X163161247Y-103363136D01*
X163161247Y-103363136D02*
X163066009Y-103363136D01*
X162304104Y-104029803D02*
X162304104Y-103029803D01*
X162304104Y-103982184D02*
X162399342Y-104029803D01*
X162399342Y-104029803D02*
X162589818Y-104029803D01*
X162589818Y-104029803D02*
X162685056Y-103982184D01*
X162685056Y-103982184D02*
X162732675Y-103934564D01*
X162732675Y-103934564D02*
X162780294Y-103839326D01*
X162780294Y-103839326D02*
X162780294Y-103553612D01*
X162780294Y-103553612D02*
X162732675Y-103458374D01*
X162732675Y-103458374D02*
X162685056Y-103410755D01*
X162685056Y-103410755D02*
X162589818Y-103363136D01*
X162589818Y-103363136D02*
X162399342Y-103363136D01*
X162399342Y-103363136D02*
X162304104Y-103410755D01*
X172589819Y-105639747D02*
X172923152Y-105163556D01*
X173161247Y-105639747D02*
X173161247Y-104639747D01*
X173161247Y-104639747D02*
X172780295Y-104639747D01*
X172780295Y-104639747D02*
X172685057Y-104687366D01*
X172685057Y-104687366D02*
X172637438Y-104734985D01*
X172637438Y-104734985D02*
X172589819Y-104830223D01*
X172589819Y-104830223D02*
X172589819Y-104973080D01*
X172589819Y-104973080D02*
X172637438Y-105068318D01*
X172637438Y-105068318D02*
X172685057Y-105115937D01*
X172685057Y-105115937D02*
X172780295Y-105163556D01*
X172780295Y-105163556D02*
X173161247Y-105163556D01*
X171780295Y-105592128D02*
X171875533Y-105639747D01*
X171875533Y-105639747D02*
X172066009Y-105639747D01*
X172066009Y-105639747D02*
X172161247Y-105592128D01*
X172161247Y-105592128D02*
X172208866Y-105496889D01*
X172208866Y-105496889D02*
X172208866Y-105115937D01*
X172208866Y-105115937D02*
X172161247Y-105020699D01*
X172161247Y-105020699D02*
X172066009Y-104973080D01*
X172066009Y-104973080D02*
X171875533Y-104973080D01*
X171875533Y-104973080D02*
X171780295Y-105020699D01*
X171780295Y-105020699D02*
X171732676Y-105115937D01*
X171732676Y-105115937D02*
X171732676Y-105211175D01*
X171732676Y-105211175D02*
X172208866Y-105306413D01*
X171399342Y-104973080D02*
X171161247Y-105639747D01*
X171161247Y-105639747D02*
X170923152Y-104973080D01*
X170542199Y-105639747D02*
X170542199Y-104973080D01*
X170542199Y-104639747D02*
X170589818Y-104687366D01*
X170589818Y-104687366D02*
X170542199Y-104734985D01*
X170542199Y-104734985D02*
X170494580Y-104687366D01*
X170494580Y-104687366D02*
X170542199Y-104639747D01*
X170542199Y-104639747D02*
X170542199Y-104734985D01*
X170113628Y-105592128D02*
X170018390Y-105639747D01*
X170018390Y-105639747D02*
X169827914Y-105639747D01*
X169827914Y-105639747D02*
X169732676Y-105592128D01*
X169732676Y-105592128D02*
X169685057Y-105496889D01*
X169685057Y-105496889D02*
X169685057Y-105449270D01*
X169685057Y-105449270D02*
X169732676Y-105354032D01*
X169732676Y-105354032D02*
X169827914Y-105306413D01*
X169827914Y-105306413D02*
X169970771Y-105306413D01*
X169970771Y-105306413D02*
X170066009Y-105258794D01*
X170066009Y-105258794D02*
X170113628Y-105163556D01*
X170113628Y-105163556D02*
X170113628Y-105115937D01*
X170113628Y-105115937D02*
X170066009Y-105020699D01*
X170066009Y-105020699D02*
X169970771Y-104973080D01*
X169970771Y-104973080D02*
X169827914Y-104973080D01*
X169827914Y-104973080D02*
X169732676Y-105020699D01*
X169256485Y-105639747D02*
X169256485Y-104973080D01*
X169256485Y-104639747D02*
X169304104Y-104687366D01*
X169304104Y-104687366D02*
X169256485Y-104734985D01*
X169256485Y-104734985D02*
X169208866Y-104687366D01*
X169208866Y-104687366D02*
X169256485Y-104639747D01*
X169256485Y-104639747D02*
X169256485Y-104734985D01*
X168637438Y-105639747D02*
X168732676Y-105592128D01*
X168732676Y-105592128D02*
X168780295Y-105544508D01*
X168780295Y-105544508D02*
X168827914Y-105449270D01*
X168827914Y-105449270D02*
X168827914Y-105163556D01*
X168827914Y-105163556D02*
X168780295Y-105068318D01*
X168780295Y-105068318D02*
X168732676Y-105020699D01*
X168732676Y-105020699D02*
X168637438Y-104973080D01*
X168637438Y-104973080D02*
X168494581Y-104973080D01*
X168494581Y-104973080D02*
X168399343Y-105020699D01*
X168399343Y-105020699D02*
X168351724Y-105068318D01*
X168351724Y-105068318D02*
X168304105Y-105163556D01*
X168304105Y-105163556D02*
X168304105Y-105449270D01*
X168304105Y-105449270D02*
X168351724Y-105544508D01*
X168351724Y-105544508D02*
X168399343Y-105592128D01*
X168399343Y-105592128D02*
X168494581Y-105639747D01*
X168494581Y-105639747D02*
X168637438Y-105639747D01*
X167875533Y-104973080D02*
X167875533Y-105639747D01*
X167875533Y-105068318D02*
X167827914Y-105020699D01*
X167827914Y-105020699D02*
X167732676Y-104973080D01*
X167732676Y-104973080D02*
X167589819Y-104973080D01*
X167589819Y-104973080D02*
X167494581Y-105020699D01*
X167494581Y-105020699D02*
X167446962Y-105115937D01*
X167446962Y-105115937D02*
X167446962Y-105639747D01*
X166970771Y-105544508D02*
X166923152Y-105592128D01*
X166923152Y-105592128D02*
X166970771Y-105639747D01*
X166970771Y-105639747D02*
X167018390Y-105592128D01*
X167018390Y-105592128D02*
X166970771Y-105544508D01*
X166970771Y-105544508D02*
X166970771Y-105639747D01*
X166970771Y-105020699D02*
X166923152Y-105068318D01*
X166923152Y-105068318D02*
X166970771Y-105115937D01*
X166970771Y-105115937D02*
X167018390Y-105068318D01*
X167018390Y-105068318D02*
X166970771Y-105020699D01*
X166970771Y-105020699D02*
X166970771Y-105115937D01*
X165161248Y-105639747D02*
X165494581Y-105163556D01*
X165732676Y-105639747D02*
X165732676Y-104639747D01*
X165732676Y-104639747D02*
X165351724Y-104639747D01*
X165351724Y-104639747D02*
X165256486Y-104687366D01*
X165256486Y-104687366D02*
X165208867Y-104734985D01*
X165208867Y-104734985D02*
X165161248Y-104830223D01*
X165161248Y-104830223D02*
X165161248Y-104973080D01*
X165161248Y-104973080D02*
X165208867Y-105068318D01*
X165208867Y-105068318D02*
X165256486Y-105115937D01*
X165256486Y-105115937D02*
X165351724Y-105163556D01*
X165351724Y-105163556D02*
X165732676Y-105163556D01*
X164732676Y-105115937D02*
X164399343Y-105115937D01*
X164256486Y-105639747D02*
X164732676Y-105639747D01*
X164732676Y-105639747D02*
X164732676Y-104639747D01*
X164732676Y-104639747D02*
X164256486Y-104639747D01*
X163970771Y-104639747D02*
X163637438Y-105639747D01*
X163637438Y-105639747D02*
X163304105Y-104639747D01*
X161875533Y-105115937D02*
X161732676Y-105163556D01*
X161732676Y-105163556D02*
X161685057Y-105211175D01*
X161685057Y-105211175D02*
X161637438Y-105306413D01*
X161637438Y-105306413D02*
X161637438Y-105449270D01*
X161637438Y-105449270D02*
X161685057Y-105544508D01*
X161685057Y-105544508D02*
X161732676Y-105592128D01*
X161732676Y-105592128D02*
X161827914Y-105639747D01*
X161827914Y-105639747D02*
X162208866Y-105639747D01*
X162208866Y-105639747D02*
X162208866Y-104639747D01*
X162208866Y-104639747D02*
X161875533Y-104639747D01*
X161875533Y-104639747D02*
X161780295Y-104687366D01*
X161780295Y-104687366D02*
X161732676Y-104734985D01*
X161732676Y-104734985D02*
X161685057Y-104830223D01*
X161685057Y-104830223D02*
X161685057Y-104925461D01*
X161685057Y-104925461D02*
X161732676Y-105020699D01*
X161732676Y-105020699D02*
X161780295Y-105068318D01*
X161780295Y-105068318D02*
X161875533Y-105115937D01*
X161875533Y-105115937D02*
X162208866Y-105115937D01*
X173161247Y-107249691D02*
X173161247Y-106249691D01*
X173161247Y-106249691D02*
X172923152Y-106249691D01*
X172923152Y-106249691D02*
X172780295Y-106297310D01*
X172780295Y-106297310D02*
X172685057Y-106392548D01*
X172685057Y-106392548D02*
X172637438Y-106487786D01*
X172637438Y-106487786D02*
X172589819Y-106678262D01*
X172589819Y-106678262D02*
X172589819Y-106821119D01*
X172589819Y-106821119D02*
X172637438Y-107011595D01*
X172637438Y-107011595D02*
X172685057Y-107106833D01*
X172685057Y-107106833D02*
X172780295Y-107202072D01*
X172780295Y-107202072D02*
X172923152Y-107249691D01*
X172923152Y-107249691D02*
X173161247Y-107249691D01*
X171780295Y-107202072D02*
X171875533Y-107249691D01*
X171875533Y-107249691D02*
X172066009Y-107249691D01*
X172066009Y-107249691D02*
X172161247Y-107202072D01*
X172161247Y-107202072D02*
X172208866Y-107106833D01*
X172208866Y-107106833D02*
X172208866Y-106725881D01*
X172208866Y-106725881D02*
X172161247Y-106630643D01*
X172161247Y-106630643D02*
X172066009Y-106583024D01*
X172066009Y-106583024D02*
X171875533Y-106583024D01*
X171875533Y-106583024D02*
X171780295Y-106630643D01*
X171780295Y-106630643D02*
X171732676Y-106725881D01*
X171732676Y-106725881D02*
X171732676Y-106821119D01*
X171732676Y-106821119D02*
X172208866Y-106916357D01*
X171351723Y-107202072D02*
X171256485Y-107249691D01*
X171256485Y-107249691D02*
X171066009Y-107249691D01*
X171066009Y-107249691D02*
X170970771Y-107202072D01*
X170970771Y-107202072D02*
X170923152Y-107106833D01*
X170923152Y-107106833D02*
X170923152Y-107059214D01*
X170923152Y-107059214D02*
X170970771Y-106963976D01*
X170970771Y-106963976D02*
X171066009Y-106916357D01*
X171066009Y-106916357D02*
X171208866Y-106916357D01*
X171208866Y-106916357D02*
X171304104Y-106868738D01*
X171304104Y-106868738D02*
X171351723Y-106773500D01*
X171351723Y-106773500D02*
X171351723Y-106725881D01*
X171351723Y-106725881D02*
X171304104Y-106630643D01*
X171304104Y-106630643D02*
X171208866Y-106583024D01*
X171208866Y-106583024D02*
X171066009Y-106583024D01*
X171066009Y-106583024D02*
X170970771Y-106630643D01*
X170494580Y-107249691D02*
X170494580Y-106583024D01*
X170494580Y-106249691D02*
X170542199Y-106297310D01*
X170542199Y-106297310D02*
X170494580Y-106344929D01*
X170494580Y-106344929D02*
X170446961Y-106297310D01*
X170446961Y-106297310D02*
X170494580Y-106249691D01*
X170494580Y-106249691D02*
X170494580Y-106344929D01*
X169589819Y-106583024D02*
X169589819Y-107392548D01*
X169589819Y-107392548D02*
X169637438Y-107487786D01*
X169637438Y-107487786D02*
X169685057Y-107535405D01*
X169685057Y-107535405D02*
X169780295Y-107583024D01*
X169780295Y-107583024D02*
X169923152Y-107583024D01*
X169923152Y-107583024D02*
X170018390Y-107535405D01*
X169589819Y-107202072D02*
X169685057Y-107249691D01*
X169685057Y-107249691D02*
X169875533Y-107249691D01*
X169875533Y-107249691D02*
X169970771Y-107202072D01*
X169970771Y-107202072D02*
X170018390Y-107154452D01*
X170018390Y-107154452D02*
X170066009Y-107059214D01*
X170066009Y-107059214D02*
X170066009Y-106773500D01*
X170066009Y-106773500D02*
X170018390Y-106678262D01*
X170018390Y-106678262D02*
X169970771Y-106630643D01*
X169970771Y-106630643D02*
X169875533Y-106583024D01*
X169875533Y-106583024D02*
X169685057Y-106583024D01*
X169685057Y-106583024D02*
X169589819Y-106630643D01*
X169113628Y-106583024D02*
X169113628Y-107249691D01*
X169113628Y-106678262D02*
X169066009Y-106630643D01*
X169066009Y-106630643D02*
X168970771Y-106583024D01*
X168970771Y-106583024D02*
X168827914Y-106583024D01*
X168827914Y-106583024D02*
X168732676Y-106630643D01*
X168732676Y-106630643D02*
X168685057Y-106725881D01*
X168685057Y-106725881D02*
X168685057Y-107249691D01*
X167827914Y-107202072D02*
X167923152Y-107249691D01*
X167923152Y-107249691D02*
X168113628Y-107249691D01*
X168113628Y-107249691D02*
X168208866Y-107202072D01*
X168208866Y-107202072D02*
X168256485Y-107106833D01*
X168256485Y-107106833D02*
X168256485Y-106725881D01*
X168256485Y-106725881D02*
X168208866Y-106630643D01*
X168208866Y-106630643D02*
X168113628Y-106583024D01*
X168113628Y-106583024D02*
X167923152Y-106583024D01*
X167923152Y-106583024D02*
X167827914Y-106630643D01*
X167827914Y-106630643D02*
X167780295Y-106725881D01*
X167780295Y-106725881D02*
X167780295Y-106821119D01*
X167780295Y-106821119D02*
X168256485Y-106916357D01*
X167351723Y-107249691D02*
X167351723Y-106583024D01*
X167351723Y-106773500D02*
X167304104Y-106678262D01*
X167304104Y-106678262D02*
X167256485Y-106630643D01*
X167256485Y-106630643D02*
X167161247Y-106583024D01*
X167161247Y-106583024D02*
X167066009Y-106583024D01*
X166732675Y-107154452D02*
X166685056Y-107202072D01*
X166685056Y-107202072D02*
X166732675Y-107249691D01*
X166732675Y-107249691D02*
X166780294Y-107202072D01*
X166780294Y-107202072D02*
X166732675Y-107154452D01*
X166732675Y-107154452D02*
X166732675Y-107249691D01*
X166732675Y-106630643D02*
X166685056Y-106678262D01*
X166685056Y-106678262D02*
X166732675Y-106725881D01*
X166732675Y-106725881D02*
X166780294Y-106678262D01*
X166780294Y-106678262D02*
X166732675Y-106630643D01*
X166732675Y-106630643D02*
X166732675Y-106725881D01*
X165494580Y-107249691D02*
X165494580Y-106249691D01*
X165494580Y-106249691D02*
X165113628Y-106249691D01*
X165113628Y-106249691D02*
X165018390Y-106297310D01*
X165018390Y-106297310D02*
X164970771Y-106344929D01*
X164970771Y-106344929D02*
X164923152Y-106440167D01*
X164923152Y-106440167D02*
X164923152Y-106583024D01*
X164923152Y-106583024D02*
X164970771Y-106678262D01*
X164970771Y-106678262D02*
X165018390Y-106725881D01*
X165018390Y-106725881D02*
X165113628Y-106773500D01*
X165113628Y-106773500D02*
X165494580Y-106773500D01*
X164113628Y-107202072D02*
X164208866Y-107249691D01*
X164208866Y-107249691D02*
X164399342Y-107249691D01*
X164399342Y-107249691D02*
X164494580Y-107202072D01*
X164494580Y-107202072D02*
X164542199Y-107106833D01*
X164542199Y-107106833D02*
X164542199Y-106725881D01*
X164542199Y-106725881D02*
X164494580Y-106630643D01*
X164494580Y-106630643D02*
X164399342Y-106583024D01*
X164399342Y-106583024D02*
X164208866Y-106583024D01*
X164208866Y-106583024D02*
X164113628Y-106630643D01*
X164113628Y-106630643D02*
X164066009Y-106725881D01*
X164066009Y-106725881D02*
X164066009Y-106821119D01*
X164066009Y-106821119D02*
X164542199Y-106916357D01*
X163780294Y-106583024D02*
X163399342Y-106583024D01*
X163637437Y-106249691D02*
X163637437Y-107106833D01*
X163637437Y-107106833D02*
X163589818Y-107202072D01*
X163589818Y-107202072D02*
X163494580Y-107249691D01*
X163494580Y-107249691D02*
X163399342Y-107249691D01*
X162685056Y-107202072D02*
X162780294Y-107249691D01*
X162780294Y-107249691D02*
X162970770Y-107249691D01*
X162970770Y-107249691D02*
X163066008Y-107202072D01*
X163066008Y-107202072D02*
X163113627Y-107106833D01*
X163113627Y-107106833D02*
X163113627Y-106725881D01*
X163113627Y-106725881D02*
X163066008Y-106630643D01*
X163066008Y-106630643D02*
X162970770Y-106583024D01*
X162970770Y-106583024D02*
X162780294Y-106583024D01*
X162780294Y-106583024D02*
X162685056Y-106630643D01*
X162685056Y-106630643D02*
X162637437Y-106725881D01*
X162637437Y-106725881D02*
X162637437Y-106821119D01*
X162637437Y-106821119D02*
X163113627Y-106916357D01*
X162208865Y-107249691D02*
X162208865Y-106583024D01*
X162208865Y-106773500D02*
X162161246Y-106678262D01*
X162161246Y-106678262D02*
X162113627Y-106630643D01*
X162113627Y-106630643D02*
X162018389Y-106583024D01*
X162018389Y-106583024D02*
X161923151Y-106583024D01*
X160827912Y-107249691D02*
X160827912Y-106249691D01*
X160827912Y-106725881D02*
X160256484Y-106725881D01*
X160256484Y-107249691D02*
X160256484Y-106249691D01*
X159351722Y-107249691D02*
X159351722Y-106725881D01*
X159351722Y-106725881D02*
X159399341Y-106630643D01*
X159399341Y-106630643D02*
X159494579Y-106583024D01*
X159494579Y-106583024D02*
X159685055Y-106583024D01*
X159685055Y-106583024D02*
X159780293Y-106630643D01*
X159351722Y-107202072D02*
X159446960Y-107249691D01*
X159446960Y-107249691D02*
X159685055Y-107249691D01*
X159685055Y-107249691D02*
X159780293Y-107202072D01*
X159780293Y-107202072D02*
X159827912Y-107106833D01*
X159827912Y-107106833D02*
X159827912Y-107011595D01*
X159827912Y-107011595D02*
X159780293Y-106916357D01*
X159780293Y-106916357D02*
X159685055Y-106868738D01*
X159685055Y-106868738D02*
X159446960Y-106868738D01*
X159446960Y-106868738D02*
X159351722Y-106821119D01*
X158875531Y-106583024D02*
X158875531Y-107249691D01*
X158875531Y-106678262D02*
X158827912Y-106630643D01*
X158827912Y-106630643D02*
X158732674Y-106583024D01*
X158732674Y-106583024D02*
X158589817Y-106583024D01*
X158589817Y-106583024D02*
X158494579Y-106630643D01*
X158494579Y-106630643D02*
X158446960Y-106725881D01*
X158446960Y-106725881D02*
X158446960Y-107249691D01*
X157542198Y-107202072D02*
X157637436Y-107249691D01*
X157637436Y-107249691D02*
X157827912Y-107249691D01*
X157827912Y-107249691D02*
X157923150Y-107202072D01*
X157923150Y-107202072D02*
X157970769Y-107154452D01*
X157970769Y-107154452D02*
X158018388Y-107059214D01*
X158018388Y-107059214D02*
X158018388Y-106773500D01*
X158018388Y-106773500D02*
X157970769Y-106678262D01*
X157970769Y-106678262D02*
X157923150Y-106630643D01*
X157923150Y-106630643D02*
X157827912Y-106583024D01*
X157827912Y-106583024D02*
X157637436Y-106583024D01*
X157637436Y-106583024D02*
X157542198Y-106630643D01*
X156685055Y-107249691D02*
X156685055Y-106725881D01*
X156685055Y-106725881D02*
X156732674Y-106630643D01*
X156732674Y-106630643D02*
X156827912Y-106583024D01*
X156827912Y-106583024D02*
X157018388Y-106583024D01*
X157018388Y-106583024D02*
X157113626Y-106630643D01*
X156685055Y-107202072D02*
X156780293Y-107249691D01*
X156780293Y-107249691D02*
X157018388Y-107249691D01*
X157018388Y-107249691D02*
X157113626Y-107202072D01*
X157113626Y-107202072D02*
X157161245Y-107106833D01*
X157161245Y-107106833D02*
X157161245Y-107011595D01*
X157161245Y-107011595D02*
X157113626Y-106916357D01*
X157113626Y-106916357D02*
X157018388Y-106868738D01*
X157018388Y-106868738D02*
X156780293Y-106868738D01*
X156780293Y-106868738D02*
X156685055Y-106821119D01*
X156208864Y-107249691D02*
X156208864Y-106249691D01*
X156113626Y-106868738D02*
X155827912Y-107249691D01*
X155827912Y-106583024D02*
X156208864Y-106963976D01*
X173208866Y-108812016D02*
X173066009Y-108859635D01*
X173066009Y-108859635D02*
X172827914Y-108859635D01*
X172827914Y-108859635D02*
X172732676Y-108812016D01*
X172732676Y-108812016D02*
X172685057Y-108764396D01*
X172685057Y-108764396D02*
X172637438Y-108669158D01*
X172637438Y-108669158D02*
X172637438Y-108573920D01*
X172637438Y-108573920D02*
X172685057Y-108478682D01*
X172685057Y-108478682D02*
X172732676Y-108431063D01*
X172732676Y-108431063D02*
X172827914Y-108383444D01*
X172827914Y-108383444D02*
X173018390Y-108335825D01*
X173018390Y-108335825D02*
X173113628Y-108288206D01*
X173113628Y-108288206D02*
X173161247Y-108240587D01*
X173161247Y-108240587D02*
X173208866Y-108145349D01*
X173208866Y-108145349D02*
X173208866Y-108050111D01*
X173208866Y-108050111D02*
X173161247Y-107954873D01*
X173161247Y-107954873D02*
X173113628Y-107907254D01*
X173113628Y-107907254D02*
X173018390Y-107859635D01*
X173018390Y-107859635D02*
X172780295Y-107859635D01*
X172780295Y-107859635D02*
X172637438Y-107907254D01*
X172208866Y-108859635D02*
X172208866Y-107859635D01*
X172208866Y-107859635D02*
X171875533Y-108573920D01*
X171875533Y-108573920D02*
X171542200Y-107859635D01*
X171542200Y-107859635D02*
X171542200Y-108859635D01*
X171066009Y-108859635D02*
X171066009Y-107859635D01*
X171066009Y-107859635D02*
X170685057Y-107859635D01*
X170685057Y-107859635D02*
X170589819Y-107907254D01*
X170589819Y-107907254D02*
X170542200Y-107954873D01*
X170542200Y-107954873D02*
X170494581Y-108050111D01*
X170494581Y-108050111D02*
X170494581Y-108192968D01*
X170494581Y-108192968D02*
X170542200Y-108288206D01*
X170542200Y-108288206D02*
X170589819Y-108335825D01*
X170589819Y-108335825D02*
X170685057Y-108383444D01*
X170685057Y-108383444D02*
X171066009Y-108383444D01*
X170113628Y-108812016D02*
X169970771Y-108859635D01*
X169970771Y-108859635D02*
X169732676Y-108859635D01*
X169732676Y-108859635D02*
X169637438Y-108812016D01*
X169637438Y-108812016D02*
X169589819Y-108764396D01*
X169589819Y-108764396D02*
X169542200Y-108669158D01*
X169542200Y-108669158D02*
X169542200Y-108573920D01*
X169542200Y-108573920D02*
X169589819Y-108478682D01*
X169589819Y-108478682D02*
X169637438Y-108431063D01*
X169637438Y-108431063D02*
X169732676Y-108383444D01*
X169732676Y-108383444D02*
X169923152Y-108335825D01*
X169923152Y-108335825D02*
X170018390Y-108288206D01*
X170018390Y-108288206D02*
X170066009Y-108240587D01*
X170066009Y-108240587D02*
X170113628Y-108145349D01*
X170113628Y-108145349D02*
X170113628Y-108050111D01*
X170113628Y-108050111D02*
X170066009Y-107954873D01*
X170066009Y-107954873D02*
X170018390Y-107907254D01*
X170018390Y-107907254D02*
X169923152Y-107859635D01*
X169923152Y-107859635D02*
X169685057Y-107859635D01*
X169685057Y-107859635D02*
X169542200Y-107907254D01*
X169113628Y-108764396D02*
X169066009Y-108812016D01*
X169066009Y-108812016D02*
X169113628Y-108859635D01*
X169113628Y-108859635D02*
X169161247Y-108812016D01*
X169161247Y-108812016D02*
X169113628Y-108764396D01*
X169113628Y-108764396D02*
X169113628Y-108859635D01*
X169113628Y-108240587D02*
X169066009Y-108288206D01*
X169066009Y-108288206D02*
X169113628Y-108335825D01*
X169113628Y-108335825D02*
X169161247Y-108288206D01*
X169161247Y-108288206D02*
X169113628Y-108240587D01*
X169113628Y-108240587D02*
X169113628Y-108335825D01*
X167875533Y-108859635D02*
X167875533Y-107859635D01*
X167875533Y-107859635D02*
X167542200Y-108573920D01*
X167542200Y-108573920D02*
X167208867Y-107859635D01*
X167208867Y-107859635D02*
X167208867Y-108859635D01*
X166161248Y-108764396D02*
X166208867Y-108812016D01*
X166208867Y-108812016D02*
X166351724Y-108859635D01*
X166351724Y-108859635D02*
X166446962Y-108859635D01*
X166446962Y-108859635D02*
X166589819Y-108812016D01*
X166589819Y-108812016D02*
X166685057Y-108716777D01*
X166685057Y-108716777D02*
X166732676Y-108621539D01*
X166732676Y-108621539D02*
X166780295Y-108431063D01*
X166780295Y-108431063D02*
X166780295Y-108288206D01*
X166780295Y-108288206D02*
X166732676Y-108097730D01*
X166732676Y-108097730D02*
X166685057Y-108002492D01*
X166685057Y-108002492D02*
X166589819Y-107907254D01*
X166589819Y-107907254D02*
X166446962Y-107859635D01*
X166446962Y-107859635D02*
X166351724Y-107859635D01*
X166351724Y-107859635D02*
X166208867Y-107907254D01*
X166208867Y-107907254D02*
X166161248Y-107954873D01*
X165732676Y-108859635D02*
X165732676Y-107859635D01*
X165732676Y-107859635D02*
X165351724Y-107859635D01*
X165351724Y-107859635D02*
X165256486Y-107907254D01*
X165256486Y-107907254D02*
X165208867Y-107954873D01*
X165208867Y-107954873D02*
X165161248Y-108050111D01*
X165161248Y-108050111D02*
X165161248Y-108192968D01*
X165161248Y-108192968D02*
X165208867Y-108288206D01*
X165208867Y-108288206D02*
X165256486Y-108335825D01*
X165256486Y-108335825D02*
X165351724Y-108383444D01*
X165351724Y-108383444D02*
X165732676Y-108383444D01*
X164208867Y-108859635D02*
X164780295Y-108859635D01*
X164494581Y-108859635D02*
X164494581Y-107859635D01*
X164494581Y-107859635D02*
X164589819Y-108002492D01*
X164589819Y-108002492D02*
X164685057Y-108097730D01*
X164685057Y-108097730D02*
X164780295Y-108145349D01*
X163732676Y-108859635D02*
X163542200Y-108859635D01*
X163542200Y-108859635D02*
X163446962Y-108812016D01*
X163446962Y-108812016D02*
X163399343Y-108764396D01*
X163399343Y-108764396D02*
X163304105Y-108621539D01*
X163304105Y-108621539D02*
X163256486Y-108431063D01*
X163256486Y-108431063D02*
X163256486Y-108050111D01*
X163256486Y-108050111D02*
X163304105Y-107954873D01*
X163304105Y-107954873D02*
X163351724Y-107907254D01*
X163351724Y-107907254D02*
X163446962Y-107859635D01*
X163446962Y-107859635D02*
X163637438Y-107859635D01*
X163637438Y-107859635D02*
X163732676Y-107907254D01*
X163732676Y-107907254D02*
X163780295Y-107954873D01*
X163780295Y-107954873D02*
X163827914Y-108050111D01*
X163827914Y-108050111D02*
X163827914Y-108288206D01*
X163827914Y-108288206D02*
X163780295Y-108383444D01*
X163780295Y-108383444D02*
X163732676Y-108431063D01*
X163732676Y-108431063D02*
X163637438Y-108478682D01*
X163637438Y-108478682D02*
X163446962Y-108478682D01*
X163446962Y-108478682D02*
X163351724Y-108431063D01*
X163351724Y-108431063D02*
X163304105Y-108383444D01*
X163304105Y-108383444D02*
X163256486Y-108288206D01*
X162637438Y-107859635D02*
X162542200Y-107859635D01*
X162542200Y-107859635D02*
X162446962Y-107907254D01*
X162446962Y-107907254D02*
X162399343Y-107954873D01*
X162399343Y-107954873D02*
X162351724Y-108050111D01*
X162351724Y-108050111D02*
X162304105Y-108240587D01*
X162304105Y-108240587D02*
X162304105Y-108478682D01*
X162304105Y-108478682D02*
X162351724Y-108669158D01*
X162351724Y-108669158D02*
X162399343Y-108764396D01*
X162399343Y-108764396D02*
X162446962Y-108812016D01*
X162446962Y-108812016D02*
X162542200Y-108859635D01*
X162542200Y-108859635D02*
X162637438Y-108859635D01*
X162637438Y-108859635D02*
X162732676Y-108812016D01*
X162732676Y-108812016D02*
X162780295Y-108764396D01*
X162780295Y-108764396D02*
X162827914Y-108669158D01*
X162827914Y-108669158D02*
X162875533Y-108478682D01*
X162875533Y-108478682D02*
X162875533Y-108240587D01*
X162875533Y-108240587D02*
X162827914Y-108050111D01*
X162827914Y-108050111D02*
X162780295Y-107954873D01*
X162780295Y-107954873D02*
X162732676Y-107907254D01*
X162732676Y-107907254D02*
X162637438Y-107859635D01*
X161446962Y-107859635D02*
X161637438Y-107859635D01*
X161637438Y-107859635D02*
X161732676Y-107907254D01*
X161732676Y-107907254D02*
X161780295Y-107954873D01*
X161780295Y-107954873D02*
X161875533Y-108097730D01*
X161875533Y-108097730D02*
X161923152Y-108288206D01*
X161923152Y-108288206D02*
X161923152Y-108669158D01*
X161923152Y-108669158D02*
X161875533Y-108764396D01*
X161875533Y-108764396D02*
X161827914Y-108812016D01*
X161827914Y-108812016D02*
X161732676Y-108859635D01*
X161732676Y-108859635D02*
X161542200Y-108859635D01*
X161542200Y-108859635D02*
X161446962Y-108812016D01*
X161446962Y-108812016D02*
X161399343Y-108764396D01*
X161399343Y-108764396D02*
X161351724Y-108669158D01*
X161351724Y-108669158D02*
X161351724Y-108431063D01*
X161351724Y-108431063D02*
X161399343Y-108335825D01*
X161399343Y-108335825D02*
X161446962Y-108288206D01*
X161446962Y-108288206D02*
X161542200Y-108240587D01*
X161542200Y-108240587D02*
X161732676Y-108240587D01*
X161732676Y-108240587D02*
X161827914Y-108288206D01*
X161827914Y-108288206D02*
X161875533Y-108335825D01*
X161875533Y-108335825D02*
X161923152Y-108431063D01*
X160399343Y-108859635D02*
X160970771Y-108859635D01*
X160685057Y-108859635D02*
X160685057Y-107859635D01*
X160685057Y-107859635D02*
X160780295Y-108002492D01*
X160780295Y-108002492D02*
X160875533Y-108097730D01*
X160875533Y-108097730D02*
X160970771Y-108145349D01*
X159970771Y-108478682D02*
X159208867Y-108478682D01*
X158732676Y-108335825D02*
X158399343Y-108335825D01*
X158256486Y-108859635D02*
X158732676Y-108859635D01*
X158732676Y-108859635D02*
X158732676Y-107859635D01*
X158732676Y-107859635D02*
X158256486Y-107859635D01*
X158066010Y-108954873D02*
X157304105Y-108954873D01*
X156494581Y-108859635D02*
X156827914Y-108383444D01*
X157066009Y-108859635D02*
X157066009Y-107859635D01*
X157066009Y-107859635D02*
X156685057Y-107859635D01*
X156685057Y-107859635D02*
X156589819Y-107907254D01*
X156589819Y-107907254D02*
X156542200Y-107954873D01*
X156542200Y-107954873D02*
X156494581Y-108050111D01*
X156494581Y-108050111D02*
X156494581Y-108192968D01*
X156494581Y-108192968D02*
X156542200Y-108288206D01*
X156542200Y-108288206D02*
X156589819Y-108335825D01*
X156589819Y-108335825D02*
X156685057Y-108383444D01*
X156685057Y-108383444D02*
X157066009Y-108383444D01*
X156208866Y-107859635D02*
X155637438Y-107859635D01*
X155923152Y-108859635D02*
X155923152Y-107859635D01*
X154970771Y-108335825D02*
X154827914Y-108383444D01*
X154827914Y-108383444D02*
X154780295Y-108431063D01*
X154780295Y-108431063D02*
X154732676Y-108526301D01*
X154732676Y-108526301D02*
X154732676Y-108669158D01*
X154732676Y-108669158D02*
X154780295Y-108764396D01*
X154780295Y-108764396D02*
X154827914Y-108812016D01*
X154827914Y-108812016D02*
X154923152Y-108859635D01*
X154923152Y-108859635D02*
X155304104Y-108859635D01*
X155304104Y-108859635D02*
X155304104Y-107859635D01*
X155304104Y-107859635D02*
X154970771Y-107859635D01*
X154970771Y-107859635D02*
X154875533Y-107907254D01*
X154875533Y-107907254D02*
X154827914Y-107954873D01*
X154827914Y-107954873D02*
X154780295Y-108050111D01*
X154780295Y-108050111D02*
X154780295Y-108145349D01*
X154780295Y-108145349D02*
X154827914Y-108240587D01*
X154827914Y-108240587D02*
X154875533Y-108288206D01*
X154875533Y-108288206D02*
X154970771Y-108335825D01*
X154970771Y-108335825D02*
X155304104Y-108335825D01*
X153542199Y-108859635D02*
X153542199Y-107859635D01*
X153113628Y-107954873D02*
X153066009Y-107907254D01*
X153066009Y-107907254D02*
X152970771Y-107859635D01*
X152970771Y-107859635D02*
X152732676Y-107859635D01*
X152732676Y-107859635D02*
X152637438Y-107907254D01*
X152637438Y-107907254D02*
X152589819Y-107954873D01*
X152589819Y-107954873D02*
X152542200Y-108050111D01*
X152542200Y-108050111D02*
X152542200Y-108145349D01*
X152542200Y-108145349D02*
X152589819Y-108288206D01*
X152589819Y-108288206D02*
X153161247Y-108859635D01*
X153161247Y-108859635D02*
X152542200Y-108859635D01*
X151542200Y-108764396D02*
X151589819Y-108812016D01*
X151589819Y-108812016D02*
X151732676Y-108859635D01*
X151732676Y-108859635D02*
X151827914Y-108859635D01*
X151827914Y-108859635D02*
X151970771Y-108812016D01*
X151970771Y-108812016D02*
X152066009Y-108716777D01*
X152066009Y-108716777D02*
X152113628Y-108621539D01*
X152113628Y-108621539D02*
X152161247Y-108431063D01*
X152161247Y-108431063D02*
X152161247Y-108288206D01*
X152161247Y-108288206D02*
X152113628Y-108097730D01*
X152113628Y-108097730D02*
X152066009Y-108002492D01*
X152066009Y-108002492D02*
X151970771Y-107907254D01*
X151970771Y-107907254D02*
X151827914Y-107859635D01*
X151827914Y-107859635D02*
X151732676Y-107859635D01*
X151732676Y-107859635D02*
X151589819Y-107907254D01*
X151589819Y-107907254D02*
X151542200Y-107954873D01*
X151113628Y-108764396D02*
X151066009Y-108812016D01*
X151066009Y-108812016D02*
X151113628Y-108859635D01*
X151113628Y-108859635D02*
X151161247Y-108812016D01*
X151161247Y-108812016D02*
X151113628Y-108764396D01*
X151113628Y-108764396D02*
X151113628Y-108859635D01*
X151113628Y-108240587D02*
X151066009Y-108288206D01*
X151066009Y-108288206D02*
X151113628Y-108335825D01*
X151113628Y-108335825D02*
X151161247Y-108288206D01*
X151161247Y-108288206D02*
X151113628Y-108240587D01*
X151113628Y-108240587D02*
X151113628Y-108335825D01*
X149685057Y-107859635D02*
X149589819Y-107859635D01*
X149589819Y-107859635D02*
X149494581Y-107907254D01*
X149494581Y-107907254D02*
X149446962Y-107954873D01*
X149446962Y-107954873D02*
X149399343Y-108050111D01*
X149399343Y-108050111D02*
X149351724Y-108240587D01*
X149351724Y-108240587D02*
X149351724Y-108478682D01*
X149351724Y-108478682D02*
X149399343Y-108669158D01*
X149399343Y-108669158D02*
X149446962Y-108764396D01*
X149446962Y-108764396D02*
X149494581Y-108812016D01*
X149494581Y-108812016D02*
X149589819Y-108859635D01*
X149589819Y-108859635D02*
X149685057Y-108859635D01*
X149685057Y-108859635D02*
X149780295Y-108812016D01*
X149780295Y-108812016D02*
X149827914Y-108764396D01*
X149827914Y-108764396D02*
X149875533Y-108669158D01*
X149875533Y-108669158D02*
X149923152Y-108478682D01*
X149923152Y-108478682D02*
X149923152Y-108240587D01*
X149923152Y-108240587D02*
X149875533Y-108050111D01*
X149875533Y-108050111D02*
X149827914Y-107954873D01*
X149827914Y-107954873D02*
X149780295Y-107907254D01*
X149780295Y-107907254D02*
X149685057Y-107859635D01*
X149018390Y-108859635D02*
X148494581Y-108192968D01*
X149018390Y-108192968D02*
X148494581Y-108859635D01*
X147637438Y-107859635D02*
X148113628Y-107859635D01*
X148113628Y-107859635D02*
X148161247Y-108335825D01*
X148161247Y-108335825D02*
X148113628Y-108288206D01*
X148113628Y-108288206D02*
X148018390Y-108240587D01*
X148018390Y-108240587D02*
X147780295Y-108240587D01*
X147780295Y-108240587D02*
X147685057Y-108288206D01*
X147685057Y-108288206D02*
X147637438Y-108335825D01*
X147637438Y-108335825D02*
X147589819Y-108431063D01*
X147589819Y-108431063D02*
X147589819Y-108669158D01*
X147589819Y-108669158D02*
X147637438Y-108764396D01*
X147637438Y-108764396D02*
X147685057Y-108812016D01*
X147685057Y-108812016D02*
X147780295Y-108859635D01*
X147780295Y-108859635D02*
X148018390Y-108859635D01*
X148018390Y-108859635D02*
X148113628Y-108812016D01*
X148113628Y-108812016D02*
X148161247Y-108764396D01*
X147256485Y-107859635D02*
X146637438Y-107859635D01*
X146637438Y-107859635D02*
X146970771Y-108240587D01*
X146970771Y-108240587D02*
X146827914Y-108240587D01*
X146827914Y-108240587D02*
X146732676Y-108288206D01*
X146732676Y-108288206D02*
X146685057Y-108335825D01*
X146685057Y-108335825D02*
X146637438Y-108431063D01*
X146637438Y-108431063D02*
X146637438Y-108669158D01*
X146637438Y-108669158D02*
X146685057Y-108764396D01*
X146685057Y-108764396D02*
X146732676Y-108812016D01*
X146732676Y-108812016D02*
X146827914Y-108859635D01*
X146827914Y-108859635D02*
X147113628Y-108859635D01*
X147113628Y-108859635D02*
X147208866Y-108812016D01*
X147208866Y-108812016D02*
X147256485Y-108764396D01*
X145161247Y-109240587D02*
X145208866Y-109192968D01*
X145208866Y-109192968D02*
X145304104Y-109050111D01*
X145304104Y-109050111D02*
X145351723Y-108954873D01*
X145351723Y-108954873D02*
X145399342Y-108812016D01*
X145399342Y-108812016D02*
X145446961Y-108573920D01*
X145446961Y-108573920D02*
X145446961Y-108383444D01*
X145446961Y-108383444D02*
X145399342Y-108145349D01*
X145399342Y-108145349D02*
X145351723Y-108002492D01*
X145351723Y-108002492D02*
X145304104Y-107907254D01*
X145304104Y-107907254D02*
X145208866Y-107764396D01*
X145208866Y-107764396D02*
X145161247Y-107716777D01*
X144256485Y-108859635D02*
X144827913Y-108859635D01*
X144542199Y-108859635D02*
X144542199Y-107859635D01*
X144542199Y-107859635D02*
X144637437Y-108002492D01*
X144637437Y-108002492D02*
X144732675Y-108097730D01*
X144732675Y-108097730D02*
X144827913Y-108145349D01*
X143637437Y-107859635D02*
X143542199Y-107859635D01*
X143542199Y-107859635D02*
X143446961Y-107907254D01*
X143446961Y-107907254D02*
X143399342Y-107954873D01*
X143399342Y-107954873D02*
X143351723Y-108050111D01*
X143351723Y-108050111D02*
X143304104Y-108240587D01*
X143304104Y-108240587D02*
X143304104Y-108478682D01*
X143304104Y-108478682D02*
X143351723Y-108669158D01*
X143351723Y-108669158D02*
X143399342Y-108764396D01*
X143399342Y-108764396D02*
X143446961Y-108812016D01*
X143446961Y-108812016D02*
X143542199Y-108859635D01*
X143542199Y-108859635D02*
X143637437Y-108859635D01*
X143637437Y-108859635D02*
X143732675Y-108812016D01*
X143732675Y-108812016D02*
X143780294Y-108764396D01*
X143780294Y-108764396D02*
X143827913Y-108669158D01*
X143827913Y-108669158D02*
X143875532Y-108478682D01*
X143875532Y-108478682D02*
X143875532Y-108240587D01*
X143875532Y-108240587D02*
X143827913Y-108050111D01*
X143827913Y-108050111D02*
X143780294Y-107954873D01*
X143780294Y-107954873D02*
X143732675Y-107907254D01*
X143732675Y-107907254D02*
X143637437Y-107859635D01*
X142875532Y-108859635D02*
X142875532Y-107859635D01*
X142780294Y-108478682D02*
X142494580Y-108859635D01*
X142494580Y-108192968D02*
X142875532Y-108573920D01*
X141161246Y-108859635D02*
X141256484Y-108812016D01*
X141256484Y-108812016D02*
X141304103Y-108764396D01*
X141304103Y-108764396D02*
X141351722Y-108669158D01*
X141351722Y-108669158D02*
X141351722Y-108383444D01*
X141351722Y-108383444D02*
X141304103Y-108288206D01*
X141304103Y-108288206D02*
X141256484Y-108240587D01*
X141256484Y-108240587D02*
X141161246Y-108192968D01*
X141161246Y-108192968D02*
X141018389Y-108192968D01*
X141018389Y-108192968D02*
X140923151Y-108240587D01*
X140923151Y-108240587D02*
X140875532Y-108288206D01*
X140875532Y-108288206D02*
X140827913Y-108383444D01*
X140827913Y-108383444D02*
X140827913Y-108669158D01*
X140827913Y-108669158D02*
X140875532Y-108764396D01*
X140875532Y-108764396D02*
X140923151Y-108812016D01*
X140923151Y-108812016D02*
X141018389Y-108859635D01*
X141018389Y-108859635D02*
X141161246Y-108859635D01*
X140399341Y-108192968D02*
X140399341Y-108859635D01*
X140399341Y-108288206D02*
X140351722Y-108240587D01*
X140351722Y-108240587D02*
X140256484Y-108192968D01*
X140256484Y-108192968D02*
X140113627Y-108192968D01*
X140113627Y-108192968D02*
X140018389Y-108240587D01*
X140018389Y-108240587D02*
X139970770Y-108335825D01*
X139970770Y-108335825D02*
X139970770Y-108859635D01*
X138780293Y-108573920D02*
X138304103Y-108573920D01*
X138875531Y-108859635D02*
X138542198Y-107859635D01*
X138542198Y-107859635D02*
X138208865Y-108859635D01*
X137875531Y-108859635D02*
X137875531Y-107859635D01*
X137875531Y-107859635D02*
X137637436Y-107859635D01*
X137637436Y-107859635D02*
X137494579Y-107907254D01*
X137494579Y-107907254D02*
X137399341Y-108002492D01*
X137399341Y-108002492D02*
X137351722Y-108097730D01*
X137351722Y-108097730D02*
X137304103Y-108288206D01*
X137304103Y-108288206D02*
X137304103Y-108431063D01*
X137304103Y-108431063D02*
X137351722Y-108621539D01*
X137351722Y-108621539D02*
X137399341Y-108716777D01*
X137399341Y-108716777D02*
X137494579Y-108812016D01*
X137494579Y-108812016D02*
X137637436Y-108859635D01*
X137637436Y-108859635D02*
X137875531Y-108859635D01*
X136304103Y-108859635D02*
X136637436Y-108383444D01*
X136875531Y-108859635D02*
X136875531Y-107859635D01*
X136875531Y-107859635D02*
X136494579Y-107859635D01*
X136494579Y-107859635D02*
X136399341Y-107907254D01*
X136399341Y-107907254D02*
X136351722Y-107954873D01*
X136351722Y-107954873D02*
X136304103Y-108050111D01*
X136304103Y-108050111D02*
X136304103Y-108192968D01*
X136304103Y-108192968D02*
X136351722Y-108288206D01*
X136351722Y-108288206D02*
X136399341Y-108335825D01*
X136399341Y-108335825D02*
X136494579Y-108383444D01*
X136494579Y-108383444D02*
X136875531Y-108383444D01*
X135685055Y-107859635D02*
X135589817Y-107859635D01*
X135589817Y-107859635D02*
X135494579Y-107907254D01*
X135494579Y-107907254D02*
X135446960Y-107954873D01*
X135446960Y-107954873D02*
X135399341Y-108050111D01*
X135399341Y-108050111D02*
X135351722Y-108240587D01*
X135351722Y-108240587D02*
X135351722Y-108478682D01*
X135351722Y-108478682D02*
X135399341Y-108669158D01*
X135399341Y-108669158D02*
X135446960Y-108764396D01*
X135446960Y-108764396D02*
X135494579Y-108812016D01*
X135494579Y-108812016D02*
X135589817Y-108859635D01*
X135589817Y-108859635D02*
X135685055Y-108859635D01*
X135685055Y-108859635D02*
X135780293Y-108812016D01*
X135780293Y-108812016D02*
X135827912Y-108764396D01*
X135827912Y-108764396D02*
X135875531Y-108669158D01*
X135875531Y-108669158D02*
X135923150Y-108478682D01*
X135923150Y-108478682D02*
X135923150Y-108240587D01*
X135923150Y-108240587D02*
X135875531Y-108050111D01*
X135875531Y-108050111D02*
X135827912Y-107954873D01*
X135827912Y-107954873D02*
X135780293Y-107907254D01*
X135780293Y-107907254D02*
X135685055Y-107859635D01*
X135018388Y-109240587D02*
X134970769Y-109192968D01*
X134970769Y-109192968D02*
X134875531Y-109050111D01*
X134875531Y-109050111D02*
X134827912Y-108954873D01*
X134827912Y-108954873D02*
X134780293Y-108812016D01*
X134780293Y-108812016D02*
X134732674Y-108573920D01*
X134732674Y-108573920D02*
X134732674Y-108383444D01*
X134732674Y-108383444D02*
X134780293Y-108145349D01*
X134780293Y-108145349D02*
X134827912Y-108002492D01*
X134827912Y-108002492D02*
X134875531Y-107907254D01*
X134875531Y-107907254D02*
X134970769Y-107764396D01*
X134970769Y-107764396D02*
X135018388Y-107716777D01*
X173161247Y-109469579D02*
X173161247Y-110279102D01*
X173161247Y-110279102D02*
X173113628Y-110374340D01*
X173113628Y-110374340D02*
X173066009Y-110421960D01*
X173066009Y-110421960D02*
X172970771Y-110469579D01*
X172970771Y-110469579D02*
X172780295Y-110469579D01*
X172780295Y-110469579D02*
X172685057Y-110421960D01*
X172685057Y-110421960D02*
X172637438Y-110374340D01*
X172637438Y-110374340D02*
X172589819Y-110279102D01*
X172589819Y-110279102D02*
X172589819Y-109469579D01*
X172161247Y-110421960D02*
X172018390Y-110469579D01*
X172018390Y-110469579D02*
X171780295Y-110469579D01*
X171780295Y-110469579D02*
X171685057Y-110421960D01*
X171685057Y-110421960D02*
X171637438Y-110374340D01*
X171637438Y-110374340D02*
X171589819Y-110279102D01*
X171589819Y-110279102D02*
X171589819Y-110183864D01*
X171589819Y-110183864D02*
X171637438Y-110088626D01*
X171637438Y-110088626D02*
X171685057Y-110041007D01*
X171685057Y-110041007D02*
X171780295Y-109993388D01*
X171780295Y-109993388D02*
X171970771Y-109945769D01*
X171970771Y-109945769D02*
X172066009Y-109898150D01*
X172066009Y-109898150D02*
X172113628Y-109850531D01*
X172113628Y-109850531D02*
X172161247Y-109755293D01*
X172161247Y-109755293D02*
X172161247Y-109660055D01*
X172161247Y-109660055D02*
X172113628Y-109564817D01*
X172113628Y-109564817D02*
X172066009Y-109517198D01*
X172066009Y-109517198D02*
X171970771Y-109469579D01*
X171970771Y-109469579D02*
X171732676Y-109469579D01*
X171732676Y-109469579D02*
X171589819Y-109517198D01*
X170827914Y-109945769D02*
X170685057Y-109993388D01*
X170685057Y-109993388D02*
X170637438Y-110041007D01*
X170637438Y-110041007D02*
X170589819Y-110136245D01*
X170589819Y-110136245D02*
X170589819Y-110279102D01*
X170589819Y-110279102D02*
X170637438Y-110374340D01*
X170637438Y-110374340D02*
X170685057Y-110421960D01*
X170685057Y-110421960D02*
X170780295Y-110469579D01*
X170780295Y-110469579D02*
X171161247Y-110469579D01*
X171161247Y-110469579D02*
X171161247Y-109469579D01*
X171161247Y-109469579D02*
X170827914Y-109469579D01*
X170827914Y-109469579D02*
X170732676Y-109517198D01*
X170732676Y-109517198D02*
X170685057Y-109564817D01*
X170685057Y-109564817D02*
X170637438Y-109660055D01*
X170637438Y-109660055D02*
X170637438Y-109755293D01*
X170637438Y-109755293D02*
X170685057Y-109850531D01*
X170685057Y-109850531D02*
X170732676Y-109898150D01*
X170732676Y-109898150D02*
X170827914Y-109945769D01*
X170827914Y-109945769D02*
X171161247Y-109945769D01*
X169542199Y-109469579D02*
X168970771Y-109469579D01*
X169256485Y-110469579D02*
X169256485Y-109469579D01*
X168446961Y-109469579D02*
X168256485Y-109469579D01*
X168256485Y-109469579D02*
X168161247Y-109517198D01*
X168161247Y-109517198D02*
X168066009Y-109612436D01*
X168066009Y-109612436D02*
X168018390Y-109802912D01*
X168018390Y-109802912D02*
X168018390Y-110136245D01*
X168018390Y-110136245D02*
X168066009Y-110326721D01*
X168066009Y-110326721D02*
X168161247Y-110421960D01*
X168161247Y-110421960D02*
X168256485Y-110469579D01*
X168256485Y-110469579D02*
X168446961Y-110469579D01*
X168446961Y-110469579D02*
X168542199Y-110421960D01*
X168542199Y-110421960D02*
X168637437Y-110326721D01*
X168637437Y-110326721D02*
X168685056Y-110136245D01*
X168685056Y-110136245D02*
X168685056Y-109802912D01*
X168685056Y-109802912D02*
X168637437Y-109612436D01*
X168637437Y-109612436D02*
X168542199Y-109517198D01*
X168542199Y-109517198D02*
X168446961Y-109469579D01*
X166827913Y-110469579D02*
X166827913Y-109469579D01*
X166399342Y-109564817D02*
X166351723Y-109517198D01*
X166351723Y-109517198D02*
X166256485Y-109469579D01*
X166256485Y-109469579D02*
X166018390Y-109469579D01*
X166018390Y-109469579D02*
X165923152Y-109517198D01*
X165923152Y-109517198D02*
X165875533Y-109564817D01*
X165875533Y-109564817D02*
X165827914Y-109660055D01*
X165827914Y-109660055D02*
X165827914Y-109755293D01*
X165827914Y-109755293D02*
X165875533Y-109898150D01*
X165875533Y-109898150D02*
X166446961Y-110469579D01*
X166446961Y-110469579D02*
X165827914Y-110469579D01*
X164827914Y-110374340D02*
X164875533Y-110421960D01*
X164875533Y-110421960D02*
X165018390Y-110469579D01*
X165018390Y-110469579D02*
X165113628Y-110469579D01*
X165113628Y-110469579D02*
X165256485Y-110421960D01*
X165256485Y-110421960D02*
X165351723Y-110326721D01*
X165351723Y-110326721D02*
X165399342Y-110231483D01*
X165399342Y-110231483D02*
X165446961Y-110041007D01*
X165446961Y-110041007D02*
X165446961Y-109898150D01*
X165446961Y-109898150D02*
X165399342Y-109707674D01*
X165399342Y-109707674D02*
X165351723Y-109612436D01*
X165351723Y-109612436D02*
X165256485Y-109517198D01*
X165256485Y-109517198D02*
X165113628Y-109469579D01*
X165113628Y-109469579D02*
X165018390Y-109469579D01*
X165018390Y-109469579D02*
X164875533Y-109517198D01*
X164875533Y-109517198D02*
X164827914Y-109564817D01*
X164399342Y-110374340D02*
X164351723Y-110421960D01*
X164351723Y-110421960D02*
X164399342Y-110469579D01*
X164399342Y-110469579D02*
X164446961Y-110421960D01*
X164446961Y-110421960D02*
X164399342Y-110374340D01*
X164399342Y-110374340D02*
X164399342Y-110469579D01*
X164399342Y-109850531D02*
X164351723Y-109898150D01*
X164351723Y-109898150D02*
X164399342Y-109945769D01*
X164399342Y-109945769D02*
X164446961Y-109898150D01*
X164446961Y-109898150D02*
X164399342Y-109850531D01*
X164399342Y-109850531D02*
X164399342Y-109945769D01*
X163161247Y-110469579D02*
X163161247Y-109469579D01*
X163161247Y-109469579D02*
X162827914Y-110183864D01*
X162827914Y-110183864D02*
X162494581Y-109469579D01*
X162494581Y-109469579D02*
X162494581Y-110469579D01*
X161446962Y-110374340D02*
X161494581Y-110421960D01*
X161494581Y-110421960D02*
X161637438Y-110469579D01*
X161637438Y-110469579D02*
X161732676Y-110469579D01*
X161732676Y-110469579D02*
X161875533Y-110421960D01*
X161875533Y-110421960D02*
X161970771Y-110326721D01*
X161970771Y-110326721D02*
X162018390Y-110231483D01*
X162018390Y-110231483D02*
X162066009Y-110041007D01*
X162066009Y-110041007D02*
X162066009Y-109898150D01*
X162066009Y-109898150D02*
X162018390Y-109707674D01*
X162018390Y-109707674D02*
X161970771Y-109612436D01*
X161970771Y-109612436D02*
X161875533Y-109517198D01*
X161875533Y-109517198D02*
X161732676Y-109469579D01*
X161732676Y-109469579D02*
X161637438Y-109469579D01*
X161637438Y-109469579D02*
X161494581Y-109517198D01*
X161494581Y-109517198D02*
X161446962Y-109564817D01*
X161018390Y-110469579D02*
X161018390Y-109469579D01*
X161018390Y-109469579D02*
X160637438Y-109469579D01*
X160637438Y-109469579D02*
X160542200Y-109517198D01*
X160542200Y-109517198D02*
X160494581Y-109564817D01*
X160494581Y-109564817D02*
X160446962Y-109660055D01*
X160446962Y-109660055D02*
X160446962Y-109802912D01*
X160446962Y-109802912D02*
X160494581Y-109898150D01*
X160494581Y-109898150D02*
X160542200Y-109945769D01*
X160542200Y-109945769D02*
X160637438Y-109993388D01*
X160637438Y-109993388D02*
X161018390Y-109993388D01*
X160066009Y-109564817D02*
X160018390Y-109517198D01*
X160018390Y-109517198D02*
X159923152Y-109469579D01*
X159923152Y-109469579D02*
X159685057Y-109469579D01*
X159685057Y-109469579D02*
X159589819Y-109517198D01*
X159589819Y-109517198D02*
X159542200Y-109564817D01*
X159542200Y-109564817D02*
X159494581Y-109660055D01*
X159494581Y-109660055D02*
X159494581Y-109755293D01*
X159494581Y-109755293D02*
X159542200Y-109898150D01*
X159542200Y-109898150D02*
X160113628Y-110469579D01*
X160113628Y-110469579D02*
X159494581Y-110469579D01*
X159113628Y-109564817D02*
X159066009Y-109517198D01*
X159066009Y-109517198D02*
X158970771Y-109469579D01*
X158970771Y-109469579D02*
X158732676Y-109469579D01*
X158732676Y-109469579D02*
X158637438Y-109517198D01*
X158637438Y-109517198D02*
X158589819Y-109564817D01*
X158589819Y-109564817D02*
X158542200Y-109660055D01*
X158542200Y-109660055D02*
X158542200Y-109755293D01*
X158542200Y-109755293D02*
X158589819Y-109898150D01*
X158589819Y-109898150D02*
X159161247Y-110469579D01*
X159161247Y-110469579D02*
X158542200Y-110469579D01*
X158161247Y-109564817D02*
X158113628Y-109517198D01*
X158113628Y-109517198D02*
X158018390Y-109469579D01*
X158018390Y-109469579D02*
X157780295Y-109469579D01*
X157780295Y-109469579D02*
X157685057Y-109517198D01*
X157685057Y-109517198D02*
X157637438Y-109564817D01*
X157637438Y-109564817D02*
X157589819Y-109660055D01*
X157589819Y-109660055D02*
X157589819Y-109755293D01*
X157589819Y-109755293D02*
X157637438Y-109898150D01*
X157637438Y-109898150D02*
X158208866Y-110469579D01*
X158208866Y-110469579D02*
X157589819Y-110469579D01*
X156637438Y-110469579D02*
X157208866Y-110469579D01*
X156923152Y-110469579D02*
X156923152Y-109469579D01*
X156923152Y-109469579D02*
X157018390Y-109612436D01*
X157018390Y-109612436D02*
X157113628Y-109707674D01*
X157113628Y-109707674D02*
X157208866Y-109755293D01*
X156256485Y-110183864D02*
X155780295Y-110183864D01*
X156351723Y-110469579D02*
X156018390Y-109469579D01*
X156018390Y-109469579D02*
X155685057Y-110469579D01*
X173304104Y-111079523D02*
X172970771Y-112079523D01*
X172970771Y-112079523D02*
X172637438Y-111079523D01*
X172304104Y-112079523D02*
X172304104Y-111079523D01*
X171827914Y-112079523D02*
X171827914Y-111079523D01*
X171827914Y-111079523D02*
X171256486Y-112079523D01*
X171256486Y-112079523D02*
X171256486Y-111079523D01*
X170780295Y-111984284D02*
X170732676Y-112031904D01*
X170732676Y-112031904D02*
X170780295Y-112079523D01*
X170780295Y-112079523D02*
X170827914Y-112031904D01*
X170827914Y-112031904D02*
X170780295Y-111984284D01*
X170780295Y-111984284D02*
X170780295Y-112079523D01*
X170780295Y-111460475D02*
X170732676Y-111508094D01*
X170732676Y-111508094D02*
X170780295Y-111555713D01*
X170780295Y-111555713D02*
X170827914Y-111508094D01*
X170827914Y-111508094D02*
X170780295Y-111460475D01*
X170780295Y-111460475D02*
X170780295Y-111555713D01*
X169637438Y-111079523D02*
X169018391Y-111079523D01*
X169018391Y-111079523D02*
X169351724Y-111460475D01*
X169351724Y-111460475D02*
X169208867Y-111460475D01*
X169208867Y-111460475D02*
X169113629Y-111508094D01*
X169113629Y-111508094D02*
X169066010Y-111555713D01*
X169066010Y-111555713D02*
X169018391Y-111650951D01*
X169018391Y-111650951D02*
X169018391Y-111889046D01*
X169018391Y-111889046D02*
X169066010Y-111984284D01*
X169066010Y-111984284D02*
X169113629Y-112031904D01*
X169113629Y-112031904D02*
X169208867Y-112079523D01*
X169208867Y-112079523D02*
X169494581Y-112079523D01*
X169494581Y-112079523D02*
X169589819Y-112031904D01*
X169589819Y-112031904D02*
X169637438Y-111984284D01*
X168113629Y-111079523D02*
X168589819Y-111079523D01*
X168589819Y-111079523D02*
X168637438Y-111555713D01*
X168637438Y-111555713D02*
X168589819Y-111508094D01*
X168589819Y-111508094D02*
X168494581Y-111460475D01*
X168494581Y-111460475D02*
X168256486Y-111460475D01*
X168256486Y-111460475D02*
X168161248Y-111508094D01*
X168161248Y-111508094D02*
X168113629Y-111555713D01*
X168113629Y-111555713D02*
X168066010Y-111650951D01*
X168066010Y-111650951D02*
X168066010Y-111889046D01*
X168066010Y-111889046D02*
X168113629Y-111984284D01*
X168113629Y-111984284D02*
X168161248Y-112031904D01*
X168161248Y-112031904D02*
X168256486Y-112079523D01*
X168256486Y-112079523D02*
X168494581Y-112079523D01*
X168494581Y-112079523D02*
X168589819Y-112031904D01*
X168589819Y-112031904D02*
X168637438Y-111984284D01*
X167780295Y-111079523D02*
X167446962Y-112079523D01*
X167446962Y-112079523D02*
X167113629Y-111079523D01*
X165732676Y-112460475D02*
X165780295Y-112412856D01*
X165780295Y-112412856D02*
X165875533Y-112269999D01*
X165875533Y-112269999D02*
X165923152Y-112174761D01*
X165923152Y-112174761D02*
X165970771Y-112031904D01*
X165970771Y-112031904D02*
X166018390Y-111793808D01*
X166018390Y-111793808D02*
X166018390Y-111603332D01*
X166018390Y-111603332D02*
X165970771Y-111365237D01*
X165970771Y-111365237D02*
X165923152Y-111222380D01*
X165923152Y-111222380D02*
X165875533Y-111127142D01*
X165875533Y-111127142D02*
X165780295Y-110984284D01*
X165780295Y-110984284D02*
X165732676Y-110936665D01*
X165351723Y-112079523D02*
X165351723Y-111079523D01*
X165351723Y-111079523D02*
X165018390Y-111793808D01*
X165018390Y-111793808D02*
X164685057Y-111079523D01*
X164685057Y-111079523D02*
X164685057Y-112079523D01*
X164256485Y-111793808D02*
X163780295Y-111793808D01*
X164351723Y-112079523D02*
X164018390Y-111079523D01*
X164018390Y-111079523D02*
X163685057Y-112079523D01*
X163446961Y-111079523D02*
X162780295Y-112079523D01*
X162780295Y-111079523D02*
X163446961Y-112079523D01*
X162494580Y-112460475D02*
X162446961Y-112412856D01*
X162446961Y-112412856D02*
X162351723Y-112269999D01*
X162351723Y-112269999D02*
X162304104Y-112174761D01*
X162304104Y-112174761D02*
X162256485Y-112031904D01*
X162256485Y-112031904D02*
X162208866Y-111793808D01*
X162208866Y-111793808D02*
X162208866Y-111603332D01*
X162208866Y-111603332D02*
X162256485Y-111365237D01*
X162256485Y-111365237D02*
X162304104Y-111222380D01*
X162304104Y-111222380D02*
X162351723Y-111127142D01*
X162351723Y-111127142D02*
X162446961Y-110984284D01*
X162446961Y-110984284D02*
X162494580Y-110936665D01*
X127254663Y-111161905D02*
X127254663Y-111780952D01*
X127254663Y-111780952D02*
X127635615Y-111447619D01*
X127635615Y-111447619D02*
X127635615Y-111590476D01*
X127635615Y-111590476D02*
X127683234Y-111685714D01*
X127683234Y-111685714D02*
X127730853Y-111733333D01*
X127730853Y-111733333D02*
X127826091Y-111780952D01*
X127826091Y-111780952D02*
X128064186Y-111780952D01*
X128064186Y-111780952D02*
X128159424Y-111733333D01*
X128159424Y-111733333D02*
X128207044Y-111685714D01*
X128207044Y-111685714D02*
X128254663Y-111590476D01*
X128254663Y-111590476D02*
X128254663Y-111304762D01*
X128254663Y-111304762D02*
X128207044Y-111209524D01*
X128207044Y-111209524D02*
X128159424Y-111161905D01*
X127254663Y-112066667D02*
X128254663Y-112400000D01*
X128254663Y-112400000D02*
X127254663Y-112733333D01*
X127254663Y-112971429D02*
X127254663Y-113590476D01*
X127254663Y-113590476D02*
X127635615Y-113257143D01*
X127635615Y-113257143D02*
X127635615Y-113400000D01*
X127635615Y-113400000D02*
X127683234Y-113495238D01*
X127683234Y-113495238D02*
X127730853Y-113542857D01*
X127730853Y-113542857D02*
X127826091Y-113590476D01*
X127826091Y-113590476D02*
X128064186Y-113590476D01*
X128064186Y-113590476D02*
X128159424Y-113542857D01*
X128159424Y-113542857D02*
X128207044Y-113495238D01*
X128207044Y-113495238D02*
X128254663Y-113400000D01*
X128254663Y-113400000D02*
X128254663Y-113114286D01*
X128254663Y-113114286D02*
X128207044Y-113019048D01*
X128207044Y-113019048D02*
X128159424Y-112971429D01*
X114861904Y-111902282D02*
X114957142Y-111854663D01*
X114957142Y-111854663D02*
X115099999Y-111854663D01*
X115099999Y-111854663D02*
X115242856Y-111902282D01*
X115242856Y-111902282D02*
X115338094Y-111997520D01*
X115338094Y-111997520D02*
X115385713Y-112092758D01*
X115385713Y-112092758D02*
X115433332Y-112283234D01*
X115433332Y-112283234D02*
X115433332Y-112426091D01*
X115433332Y-112426091D02*
X115385713Y-112616567D01*
X115385713Y-112616567D02*
X115338094Y-112711805D01*
X115338094Y-112711805D02*
X115242856Y-112807044D01*
X115242856Y-112807044D02*
X115099999Y-112854663D01*
X115099999Y-112854663D02*
X115004761Y-112854663D01*
X115004761Y-112854663D02*
X114861904Y-112807044D01*
X114861904Y-112807044D02*
X114814285Y-112759424D01*
X114814285Y-112759424D02*
X114814285Y-112426091D01*
X114814285Y-112426091D02*
X115004761Y-112426091D01*
X114385713Y-112854663D02*
X114385713Y-111854663D01*
X114385713Y-111854663D02*
X113814285Y-112854663D01*
X113814285Y-112854663D02*
X113814285Y-111854663D01*
X113338094Y-112854663D02*
X113338094Y-111854663D01*
X113338094Y-111854663D02*
X113099999Y-111854663D01*
X113099999Y-111854663D02*
X112957142Y-111902282D01*
X112957142Y-111902282D02*
X112861904Y-111997520D01*
X112861904Y-111997520D02*
X112814285Y-112092758D01*
X112814285Y-112092758D02*
X112766666Y-112283234D01*
X112766666Y-112283234D02*
X112766666Y-112426091D01*
X112766666Y-112426091D02*
X112814285Y-112616567D01*
X112814285Y-112616567D02*
X112861904Y-112711805D01*
X112861904Y-112711805D02*
X112957142Y-112807044D01*
X112957142Y-112807044D02*
X113099999Y-112854663D01*
X113099999Y-112854663D02*
X113338094Y-112854663D01*
X182745336Y-74447619D02*
X183221527Y-74780952D01*
X182745336Y-75019047D02*
X183745336Y-75019047D01*
X183745336Y-75019047D02*
X183745336Y-74638095D01*
X183745336Y-74638095D02*
X183697717Y-74542857D01*
X183697717Y-74542857D02*
X183650098Y-74495238D01*
X183650098Y-74495238D02*
X183554860Y-74447619D01*
X183554860Y-74447619D02*
X183412003Y-74447619D01*
X183412003Y-74447619D02*
X183316765Y-74495238D01*
X183316765Y-74495238D02*
X183269146Y-74542857D01*
X183269146Y-74542857D02*
X183221527Y-74638095D01*
X183221527Y-74638095D02*
X183221527Y-75019047D01*
X182792956Y-74066666D02*
X182745336Y-73923809D01*
X182745336Y-73923809D02*
X182745336Y-73685714D01*
X182745336Y-73685714D02*
X182792956Y-73590476D01*
X182792956Y-73590476D02*
X182840575Y-73542857D01*
X182840575Y-73542857D02*
X182935813Y-73495238D01*
X182935813Y-73495238D02*
X183031051Y-73495238D01*
X183031051Y-73495238D02*
X183126289Y-73542857D01*
X183126289Y-73542857D02*
X183173908Y-73590476D01*
X183173908Y-73590476D02*
X183221527Y-73685714D01*
X183221527Y-73685714D02*
X183269146Y-73876190D01*
X183269146Y-73876190D02*
X183316765Y-73971428D01*
X183316765Y-73971428D02*
X183364384Y-74019047D01*
X183364384Y-74019047D02*
X183459622Y-74066666D01*
X183459622Y-74066666D02*
X183554860Y-74066666D01*
X183554860Y-74066666D02*
X183650098Y-74019047D01*
X183650098Y-74019047D02*
X183697717Y-73971428D01*
X183697717Y-73971428D02*
X183745336Y-73876190D01*
X183745336Y-73876190D02*
X183745336Y-73638095D01*
X183745336Y-73638095D02*
X183697717Y-73495238D01*
X183745336Y-73209523D02*
X183745336Y-72638095D01*
X182745336Y-72923809D02*
X183745336Y-72923809D01*
D11*
X124745180Y-109552380D02*
X125745180Y-109552380D01*
X125745180Y-109552380D02*
X124745180Y-108980952D01*
X124745180Y-108980952D02*
X125745180Y-108980952D01*
X125030895Y-108552380D02*
X125030895Y-108076190D01*
X124745180Y-108647618D02*
X125745180Y-108314285D01*
X125745180Y-108314285D02*
X124745180Y-107980952D01*
X124745180Y-107171428D02*
X124745180Y-107647618D01*
X124745180Y-107647618D02*
X125745180Y-107647618D01*
X125268990Y-106838094D02*
X125268990Y-106504761D01*
X124745180Y-106361904D02*
X124745180Y-106838094D01*
X124745180Y-106838094D02*
X125745180Y-106838094D01*
X125745180Y-106838094D02*
X125745180Y-106361904D01*
X124745180Y-105361904D02*
X125221371Y-105695237D01*
X124745180Y-105933332D02*
X125745180Y-105933332D01*
X125745180Y-105933332D02*
X125745180Y-105552380D01*
X125745180Y-105552380D02*
X125697561Y-105457142D01*
X125697561Y-105457142D02*
X125649942Y-105409523D01*
X125649942Y-105409523D02*
X125554704Y-105361904D01*
X125554704Y-105361904D02*
X125411847Y-105361904D01*
X125411847Y-105361904D02*
X125316609Y-105409523D01*
X125316609Y-105409523D02*
X125268990Y-105457142D01*
X125268990Y-105457142D02*
X125221371Y-105552380D01*
X125221371Y-105552380D02*
X125221371Y-105933332D01*
X125745180Y-105076189D02*
X125745180Y-104504761D01*
X124745180Y-104790475D02*
X125745180Y-104790475D01*
X120497561Y-109214285D02*
X120545180Y-109309523D01*
X120545180Y-109309523D02*
X120545180Y-109452380D01*
X120545180Y-109452380D02*
X120497561Y-109595237D01*
X120497561Y-109595237D02*
X120402323Y-109690475D01*
X120402323Y-109690475D02*
X120307085Y-109738094D01*
X120307085Y-109738094D02*
X120116609Y-109785713D01*
X120116609Y-109785713D02*
X119973752Y-109785713D01*
X119973752Y-109785713D02*
X119783276Y-109738094D01*
X119783276Y-109738094D02*
X119688038Y-109690475D01*
X119688038Y-109690475D02*
X119592800Y-109595237D01*
X119592800Y-109595237D02*
X119545180Y-109452380D01*
X119545180Y-109452380D02*
X119545180Y-109357142D01*
X119545180Y-109357142D02*
X119592800Y-109214285D01*
X119592800Y-109214285D02*
X119640419Y-109166666D01*
X119640419Y-109166666D02*
X119973752Y-109166666D01*
X119973752Y-109166666D02*
X119973752Y-109357142D01*
X119545180Y-108738094D02*
X120545180Y-108738094D01*
X120545180Y-108738094D02*
X120545180Y-108357142D01*
X120545180Y-108357142D02*
X120497561Y-108261904D01*
X120497561Y-108261904D02*
X120449942Y-108214285D01*
X120449942Y-108214285D02*
X120354704Y-108166666D01*
X120354704Y-108166666D02*
X120211847Y-108166666D01*
X120211847Y-108166666D02*
X120116609Y-108214285D01*
X120116609Y-108214285D02*
X120068990Y-108261904D01*
X120068990Y-108261904D02*
X120021371Y-108357142D01*
X120021371Y-108357142D02*
X120021371Y-108738094D01*
X120545180Y-107547618D02*
X120545180Y-107452380D01*
X120545180Y-107452380D02*
X120497561Y-107357142D01*
X120497561Y-107357142D02*
X120449942Y-107309523D01*
X120449942Y-107309523D02*
X120354704Y-107261904D01*
X120354704Y-107261904D02*
X120164228Y-107214285D01*
X120164228Y-107214285D02*
X119926133Y-107214285D01*
X119926133Y-107214285D02*
X119735657Y-107261904D01*
X119735657Y-107261904D02*
X119640419Y-107309523D01*
X119640419Y-107309523D02*
X119592800Y-107357142D01*
X119592800Y-107357142D02*
X119545180Y-107452380D01*
X119545180Y-107452380D02*
X119545180Y-107547618D01*
X119545180Y-107547618D02*
X119592800Y-107642856D01*
X119592800Y-107642856D02*
X119640419Y-107690475D01*
X119640419Y-107690475D02*
X119735657Y-107738094D01*
X119735657Y-107738094D02*
X119926133Y-107785713D01*
X119926133Y-107785713D02*
X120164228Y-107785713D01*
X120164228Y-107785713D02*
X120354704Y-107738094D01*
X120354704Y-107738094D02*
X120449942Y-107690475D01*
X120449942Y-107690475D02*
X120497561Y-107642856D01*
X120497561Y-107642856D02*
X120545180Y-107547618D01*
D12*
X171245336Y-74347619D02*
X171721527Y-74680952D01*
X171245336Y-74919047D02*
X172245336Y-74919047D01*
X172245336Y-74919047D02*
X172245336Y-74538095D01*
X172245336Y-74538095D02*
X172197717Y-74442857D01*
X172197717Y-74442857D02*
X172150098Y-74395238D01*
X172150098Y-74395238D02*
X172054860Y-74347619D01*
X172054860Y-74347619D02*
X171912003Y-74347619D01*
X171912003Y-74347619D02*
X171816765Y-74395238D01*
X171816765Y-74395238D02*
X171769146Y-74442857D01*
X171769146Y-74442857D02*
X171721527Y-74538095D01*
X171721527Y-74538095D02*
X171721527Y-74919047D01*
X171292956Y-73966666D02*
X171245336Y-73823809D01*
X171245336Y-73823809D02*
X171245336Y-73585714D01*
X171245336Y-73585714D02*
X171292956Y-73490476D01*
X171292956Y-73490476D02*
X171340575Y-73442857D01*
X171340575Y-73442857D02*
X171435813Y-73395238D01*
X171435813Y-73395238D02*
X171531051Y-73395238D01*
X171531051Y-73395238D02*
X171626289Y-73442857D01*
X171626289Y-73442857D02*
X171673908Y-73490476D01*
X171673908Y-73490476D02*
X171721527Y-73585714D01*
X171721527Y-73585714D02*
X171769146Y-73776190D01*
X171769146Y-73776190D02*
X171816765Y-73871428D01*
X171816765Y-73871428D02*
X171864384Y-73919047D01*
X171864384Y-73919047D02*
X171959622Y-73966666D01*
X171959622Y-73966666D02*
X172054860Y-73966666D01*
X172054860Y-73966666D02*
X172150098Y-73919047D01*
X172150098Y-73919047D02*
X172197717Y-73871428D01*
X172197717Y-73871428D02*
X172245336Y-73776190D01*
X172245336Y-73776190D02*
X172245336Y-73538095D01*
X172245336Y-73538095D02*
X172197717Y-73395238D01*
X172245336Y-73109523D02*
X172245336Y-72538095D01*
X171245336Y-72823809D02*
X172245336Y-72823809D01*
X166145336Y-74861904D02*
X165145336Y-74528571D01*
X165145336Y-74528571D02*
X166145336Y-74195238D01*
X166145336Y-73671428D02*
X166145336Y-73480952D01*
X166145336Y-73480952D02*
X166097717Y-73385714D01*
X166097717Y-73385714D02*
X166002479Y-73290476D01*
X166002479Y-73290476D02*
X165812003Y-73242857D01*
X165812003Y-73242857D02*
X165478670Y-73242857D01*
X165478670Y-73242857D02*
X165288194Y-73290476D01*
X165288194Y-73290476D02*
X165192956Y-73385714D01*
X165192956Y-73385714D02*
X165145336Y-73480952D01*
X165145336Y-73480952D02*
X165145336Y-73671428D01*
X165145336Y-73671428D02*
X165192956Y-73766666D01*
X165192956Y-73766666D02*
X165288194Y-73861904D01*
X165288194Y-73861904D02*
X165478670Y-73909523D01*
X165478670Y-73909523D02*
X165812003Y-73909523D01*
X165812003Y-73909523D02*
X166002479Y-73861904D01*
X166002479Y-73861904D02*
X166097717Y-73766666D01*
X166097717Y-73766666D02*
X166145336Y-73671428D01*
X166145336Y-72814285D02*
X165335813Y-72814285D01*
X165335813Y-72814285D02*
X165240575Y-72766666D01*
X165240575Y-72766666D02*
X165192956Y-72719047D01*
X165192956Y-72719047D02*
X165145336Y-72623809D01*
X165145336Y-72623809D02*
X165145336Y-72433333D01*
X165145336Y-72433333D02*
X165192956Y-72338095D01*
X165192956Y-72338095D02*
X165240575Y-72290476D01*
X165240575Y-72290476D02*
X165335813Y-72242857D01*
X165335813Y-72242857D02*
X166145336Y-72242857D01*
X166145336Y-71909523D02*
X166145336Y-71338095D01*
X165145336Y-71623809D02*
X166145336Y-71623809D01*
D11*
X122192800Y-109638094D02*
X122145180Y-109495237D01*
X122145180Y-109495237D02*
X122145180Y-109257142D01*
X122145180Y-109257142D02*
X122192800Y-109161904D01*
X122192800Y-109161904D02*
X122240419Y-109114285D01*
X122240419Y-109114285D02*
X122335657Y-109066666D01*
X122335657Y-109066666D02*
X122430895Y-109066666D01*
X122430895Y-109066666D02*
X122526133Y-109114285D01*
X122526133Y-109114285D02*
X122573752Y-109161904D01*
X122573752Y-109161904D02*
X122621371Y-109257142D01*
X122621371Y-109257142D02*
X122668990Y-109447618D01*
X122668990Y-109447618D02*
X122716609Y-109542856D01*
X122716609Y-109542856D02*
X122764228Y-109590475D01*
X122764228Y-109590475D02*
X122859466Y-109638094D01*
X122859466Y-109638094D02*
X122954704Y-109638094D01*
X122954704Y-109638094D02*
X123049942Y-109590475D01*
X123049942Y-109590475D02*
X123097561Y-109542856D01*
X123097561Y-109542856D02*
X123145180Y-109447618D01*
X123145180Y-109447618D02*
X123145180Y-109209523D01*
X123145180Y-109209523D02*
X123097561Y-109066666D01*
X122621371Y-108447618D02*
X122145180Y-108447618D01*
X123145180Y-108780951D02*
X122621371Y-108447618D01*
X122621371Y-108447618D02*
X123145180Y-108114285D01*
X122145180Y-107780951D02*
X123145180Y-107780951D01*
X123145180Y-107780951D02*
X122145180Y-107209523D01*
X122145180Y-107209523D02*
X123145180Y-107209523D01*
X122240419Y-106161904D02*
X122192800Y-106209523D01*
X122192800Y-106209523D02*
X122145180Y-106352380D01*
X122145180Y-106352380D02*
X122145180Y-106447618D01*
X122145180Y-106447618D02*
X122192800Y-106590475D01*
X122192800Y-106590475D02*
X122288038Y-106685713D01*
X122288038Y-106685713D02*
X122383276Y-106733332D01*
X122383276Y-106733332D02*
X122573752Y-106780951D01*
X122573752Y-106780951D02*
X122716609Y-106780951D01*
X122716609Y-106780951D02*
X122907085Y-106733332D01*
X122907085Y-106733332D02*
X123002323Y-106685713D01*
X123002323Y-106685713D02*
X123097561Y-106590475D01*
X123097561Y-106590475D02*
X123145180Y-106447618D01*
X123145180Y-106447618D02*
X123145180Y-106352380D01*
X123145180Y-106352380D02*
X123097561Y-106209523D01*
X123097561Y-106209523D02*
X123049942Y-106161904D01*
D12*
X186297717Y-74561904D02*
X186345336Y-74657142D01*
X186345336Y-74657142D02*
X186345336Y-74799999D01*
X186345336Y-74799999D02*
X186297717Y-74942856D01*
X186297717Y-74942856D02*
X186202479Y-75038094D01*
X186202479Y-75038094D02*
X186107241Y-75085713D01*
X186107241Y-75085713D02*
X185916765Y-75133332D01*
X185916765Y-75133332D02*
X185773908Y-75133332D01*
X185773908Y-75133332D02*
X185583432Y-75085713D01*
X185583432Y-75085713D02*
X185488194Y-75038094D01*
X185488194Y-75038094D02*
X185392956Y-74942856D01*
X185392956Y-74942856D02*
X185345336Y-74799999D01*
X185345336Y-74799999D02*
X185345336Y-74704761D01*
X185345336Y-74704761D02*
X185392956Y-74561904D01*
X185392956Y-74561904D02*
X185440575Y-74514285D01*
X185440575Y-74514285D02*
X185773908Y-74514285D01*
X185773908Y-74514285D02*
X185773908Y-74704761D01*
X185345336Y-74085713D02*
X186345336Y-74085713D01*
X186345336Y-74085713D02*
X185345336Y-73514285D01*
X185345336Y-73514285D02*
X186345336Y-73514285D01*
X185345336Y-73038094D02*
X186345336Y-73038094D01*
X186345336Y-73038094D02*
X186345336Y-72799999D01*
X186345336Y-72799999D02*
X186297717Y-72657142D01*
X186297717Y-72657142D02*
X186202479Y-72561904D01*
X186202479Y-72561904D02*
X186107241Y-72514285D01*
X186107241Y-72514285D02*
X185916765Y-72466666D01*
X185916765Y-72466666D02*
X185773908Y-72466666D01*
X185773908Y-72466666D02*
X185583432Y-72514285D01*
X185583432Y-72514285D02*
X185488194Y-72561904D01*
X185488194Y-72561904D02*
X185392956Y-72657142D01*
X185392956Y-72657142D02*
X185345336Y-72799999D01*
X185345336Y-72799999D02*
X185345336Y-73038094D01*
X177345336Y-75061904D02*
X176345336Y-74728571D01*
X176345336Y-74728571D02*
X177345336Y-74395238D01*
X177345336Y-73871428D02*
X177345336Y-73680952D01*
X177345336Y-73680952D02*
X177297717Y-73585714D01*
X177297717Y-73585714D02*
X177202479Y-73490476D01*
X177202479Y-73490476D02*
X177012003Y-73442857D01*
X177012003Y-73442857D02*
X176678670Y-73442857D01*
X176678670Y-73442857D02*
X176488194Y-73490476D01*
X176488194Y-73490476D02*
X176392956Y-73585714D01*
X176392956Y-73585714D02*
X176345336Y-73680952D01*
X176345336Y-73680952D02*
X176345336Y-73871428D01*
X176345336Y-73871428D02*
X176392956Y-73966666D01*
X176392956Y-73966666D02*
X176488194Y-74061904D01*
X176488194Y-74061904D02*
X176678670Y-74109523D01*
X176678670Y-74109523D02*
X177012003Y-74109523D01*
X177012003Y-74109523D02*
X177202479Y-74061904D01*
X177202479Y-74061904D02*
X177297717Y-73966666D01*
X177297717Y-73966666D02*
X177345336Y-73871428D01*
X177345336Y-73014285D02*
X176535813Y-73014285D01*
X176535813Y-73014285D02*
X176440575Y-72966666D01*
X176440575Y-72966666D02*
X176392956Y-72919047D01*
X176392956Y-72919047D02*
X176345336Y-72823809D01*
X176345336Y-72823809D02*
X176345336Y-72633333D01*
X176345336Y-72633333D02*
X176392956Y-72538095D01*
X176392956Y-72538095D02*
X176440575Y-72490476D01*
X176440575Y-72490476D02*
X176535813Y-72442857D01*
X176535813Y-72442857D02*
X177345336Y-72442857D01*
X177345336Y-72109523D02*
X177345336Y-71538095D01*
X176345336Y-71823809D02*
X177345336Y-71823809D01*
D11*
X139954819Y-82833333D02*
X139478628Y-82500000D01*
X139954819Y-82261905D02*
X138954819Y-82261905D01*
X138954819Y-82261905D02*
X138954819Y-82642857D01*
X138954819Y-82642857D02*
X139002438Y-82738095D01*
X139002438Y-82738095D02*
X139050057Y-82785714D01*
X139050057Y-82785714D02*
X139145295Y-82833333D01*
X139145295Y-82833333D02*
X139288152Y-82833333D01*
X139288152Y-82833333D02*
X139383390Y-82785714D01*
X139383390Y-82785714D02*
X139431009Y-82738095D01*
X139431009Y-82738095D02*
X139478628Y-82642857D01*
X139478628Y-82642857D02*
X139478628Y-82261905D01*
X139954819Y-83785714D02*
X139954819Y-83214286D01*
X139954819Y-83500000D02*
X138954819Y-83500000D01*
X138954819Y-83500000D02*
X139097676Y-83404762D01*
X139097676Y-83404762D02*
X139192914Y-83309524D01*
X139192914Y-83309524D02*
X139240533Y-83214286D01*
X114059580Y-102257142D02*
X114107200Y-102209523D01*
X114107200Y-102209523D02*
X114154819Y-102066666D01*
X114154819Y-102066666D02*
X114154819Y-101971428D01*
X114154819Y-101971428D02*
X114107200Y-101828571D01*
X114107200Y-101828571D02*
X114011961Y-101733333D01*
X114011961Y-101733333D02*
X113916723Y-101685714D01*
X113916723Y-101685714D02*
X113726247Y-101638095D01*
X113726247Y-101638095D02*
X113583390Y-101638095D01*
X113583390Y-101638095D02*
X113392914Y-101685714D01*
X113392914Y-101685714D02*
X113297676Y-101733333D01*
X113297676Y-101733333D02*
X113202438Y-101828571D01*
X113202438Y-101828571D02*
X113154819Y-101971428D01*
X113154819Y-101971428D02*
X113154819Y-102066666D01*
X113154819Y-102066666D02*
X113202438Y-102209523D01*
X113202438Y-102209523D02*
X113250057Y-102257142D01*
X114154819Y-103209523D02*
X114154819Y-102638095D01*
X114154819Y-102923809D02*
X113154819Y-102923809D01*
X113154819Y-102923809D02*
X113297676Y-102828571D01*
X113297676Y-102828571D02*
X113392914Y-102733333D01*
X113392914Y-102733333D02*
X113440533Y-102638095D01*
X113154819Y-103828571D02*
X113154819Y-103923809D01*
X113154819Y-103923809D02*
X113202438Y-104019047D01*
X113202438Y-104019047D02*
X113250057Y-104066666D01*
X113250057Y-104066666D02*
X113345295Y-104114285D01*
X113345295Y-104114285D02*
X113535771Y-104161904D01*
X113535771Y-104161904D02*
X113773866Y-104161904D01*
X113773866Y-104161904D02*
X113964342Y-104114285D01*
X113964342Y-104114285D02*
X114059580Y-104066666D01*
X114059580Y-104066666D02*
X114107200Y-104019047D01*
X114107200Y-104019047D02*
X114154819Y-103923809D01*
X114154819Y-103923809D02*
X114154819Y-103828571D01*
X114154819Y-103828571D02*
X114107200Y-103733333D01*
X114107200Y-103733333D02*
X114059580Y-103685714D01*
X114059580Y-103685714D02*
X113964342Y-103638095D01*
X113964342Y-103638095D02*
X113773866Y-103590476D01*
X113773866Y-103590476D02*
X113535771Y-103590476D01*
X113535771Y-103590476D02*
X113345295Y-103638095D01*
X113345295Y-103638095D02*
X113250057Y-103685714D01*
X113250057Y-103685714D02*
X113202438Y-103733333D01*
X113202438Y-103733333D02*
X113154819Y-103828571D01*
X137742857Y-102159580D02*
X137790476Y-102207200D01*
X137790476Y-102207200D02*
X137933333Y-102254819D01*
X137933333Y-102254819D02*
X138028571Y-102254819D01*
X138028571Y-102254819D02*
X138171428Y-102207200D01*
X138171428Y-102207200D02*
X138266666Y-102111961D01*
X138266666Y-102111961D02*
X138314285Y-102016723D01*
X138314285Y-102016723D02*
X138361904Y-101826247D01*
X138361904Y-101826247D02*
X138361904Y-101683390D01*
X138361904Y-101683390D02*
X138314285Y-101492914D01*
X138314285Y-101492914D02*
X138266666Y-101397676D01*
X138266666Y-101397676D02*
X138171428Y-101302438D01*
X138171428Y-101302438D02*
X138028571Y-101254819D01*
X138028571Y-101254819D02*
X137933333Y-101254819D01*
X137933333Y-101254819D02*
X137790476Y-101302438D01*
X137790476Y-101302438D02*
X137742857Y-101350057D01*
X136790476Y-102254819D02*
X137361904Y-102254819D01*
X137076190Y-102254819D02*
X137076190Y-101254819D01*
X137076190Y-101254819D02*
X137171428Y-101397676D01*
X137171428Y-101397676D02*
X137266666Y-101492914D01*
X137266666Y-101492914D02*
X137361904Y-101540533D01*
X135885714Y-101254819D02*
X136361904Y-101254819D01*
X136361904Y-101254819D02*
X136409523Y-101731009D01*
X136409523Y-101731009D02*
X136361904Y-101683390D01*
X136361904Y-101683390D02*
X136266666Y-101635771D01*
X136266666Y-101635771D02*
X136028571Y-101635771D01*
X136028571Y-101635771D02*
X135933333Y-101683390D01*
X135933333Y-101683390D02*
X135885714Y-101731009D01*
X135885714Y-101731009D02*
X135838095Y-101826247D01*
X135838095Y-101826247D02*
X135838095Y-102064342D01*
X135838095Y-102064342D02*
X135885714Y-102159580D01*
X135885714Y-102159580D02*
X135933333Y-102207200D01*
X135933333Y-102207200D02*
X136028571Y-102254819D01*
X136028571Y-102254819D02*
X136266666Y-102254819D01*
X136266666Y-102254819D02*
X136361904Y-102207200D01*
X136361904Y-102207200D02*
X136409523Y-102159580D01*
X118754819Y-88057142D02*
X118278628Y-87723809D01*
X118754819Y-87485714D02*
X117754819Y-87485714D01*
X117754819Y-87485714D02*
X117754819Y-87866666D01*
X117754819Y-87866666D02*
X117802438Y-87961904D01*
X117802438Y-87961904D02*
X117850057Y-88009523D01*
X117850057Y-88009523D02*
X117945295Y-88057142D01*
X117945295Y-88057142D02*
X118088152Y-88057142D01*
X118088152Y-88057142D02*
X118183390Y-88009523D01*
X118183390Y-88009523D02*
X118231009Y-87961904D01*
X118231009Y-87961904D02*
X118278628Y-87866666D01*
X118278628Y-87866666D02*
X118278628Y-87485714D01*
X117850057Y-88438095D02*
X117802438Y-88485714D01*
X117802438Y-88485714D02*
X117754819Y-88580952D01*
X117754819Y-88580952D02*
X117754819Y-88819047D01*
X117754819Y-88819047D02*
X117802438Y-88914285D01*
X117802438Y-88914285D02*
X117850057Y-88961904D01*
X117850057Y-88961904D02*
X117945295Y-89009523D01*
X117945295Y-89009523D02*
X118040533Y-89009523D01*
X118040533Y-89009523D02*
X118183390Y-88961904D01*
X118183390Y-88961904D02*
X118754819Y-88390476D01*
X118754819Y-88390476D02*
X118754819Y-89009523D01*
X117754819Y-89628571D02*
X117754819Y-89723809D01*
X117754819Y-89723809D02*
X117802438Y-89819047D01*
X117802438Y-89819047D02*
X117850057Y-89866666D01*
X117850057Y-89866666D02*
X117945295Y-89914285D01*
X117945295Y-89914285D02*
X118135771Y-89961904D01*
X118135771Y-89961904D02*
X118373866Y-89961904D01*
X118373866Y-89961904D02*
X118564342Y-89914285D01*
X118564342Y-89914285D02*
X118659580Y-89866666D01*
X118659580Y-89866666D02*
X118707200Y-89819047D01*
X118707200Y-89819047D02*
X118754819Y-89723809D01*
X118754819Y-89723809D02*
X118754819Y-89628571D01*
X118754819Y-89628571D02*
X118707200Y-89533333D01*
X118707200Y-89533333D02*
X118659580Y-89485714D01*
X118659580Y-89485714D02*
X118564342Y-89438095D01*
X118564342Y-89438095D02*
X118373866Y-89390476D01*
X118373866Y-89390476D02*
X118135771Y-89390476D01*
X118135771Y-89390476D02*
X117945295Y-89438095D01*
X117945295Y-89438095D02*
X117850057Y-89485714D01*
X117850057Y-89485714D02*
X117802438Y-89533333D01*
X117802438Y-89533333D02*
X117754819Y-89628571D01*
X138438094Y-86254819D02*
X138438094Y-85254819D01*
X138438094Y-85254819D02*
X138199999Y-85254819D01*
X138199999Y-85254819D02*
X138057142Y-85302438D01*
X138057142Y-85302438D02*
X137961904Y-85397676D01*
X137961904Y-85397676D02*
X137914285Y-85492914D01*
X137914285Y-85492914D02*
X137866666Y-85683390D01*
X137866666Y-85683390D02*
X137866666Y-85826247D01*
X137866666Y-85826247D02*
X137914285Y-86016723D01*
X137914285Y-86016723D02*
X137961904Y-86111961D01*
X137961904Y-86111961D02*
X138057142Y-86207200D01*
X138057142Y-86207200D02*
X138199999Y-86254819D01*
X138199999Y-86254819D02*
X138438094Y-86254819D01*
X137009523Y-85254819D02*
X137199999Y-85254819D01*
X137199999Y-85254819D02*
X137295237Y-85302438D01*
X137295237Y-85302438D02*
X137342856Y-85350057D01*
X137342856Y-85350057D02*
X137438094Y-85492914D01*
X137438094Y-85492914D02*
X137485713Y-85683390D01*
X137485713Y-85683390D02*
X137485713Y-86064342D01*
X137485713Y-86064342D02*
X137438094Y-86159580D01*
X137438094Y-86159580D02*
X137390475Y-86207200D01*
X137390475Y-86207200D02*
X137295237Y-86254819D01*
X137295237Y-86254819D02*
X137104761Y-86254819D01*
X137104761Y-86254819D02*
X137009523Y-86207200D01*
X137009523Y-86207200D02*
X136961904Y-86159580D01*
X136961904Y-86159580D02*
X136914285Y-86064342D01*
X136914285Y-86064342D02*
X136914285Y-85826247D01*
X136914285Y-85826247D02*
X136961904Y-85731009D01*
X136961904Y-85731009D02*
X137009523Y-85683390D01*
X137009523Y-85683390D02*
X137104761Y-85635771D01*
X137104761Y-85635771D02*
X137295237Y-85635771D01*
X137295237Y-85635771D02*
X137390475Y-85683390D01*
X137390475Y-85683390D02*
X137438094Y-85731009D01*
X137438094Y-85731009D02*
X137485713Y-85826247D01*
X125959580Y-96457142D02*
X126007200Y-96409523D01*
X126007200Y-96409523D02*
X126054819Y-96266666D01*
X126054819Y-96266666D02*
X126054819Y-96171428D01*
X126054819Y-96171428D02*
X126007200Y-96028571D01*
X126007200Y-96028571D02*
X125911961Y-95933333D01*
X125911961Y-95933333D02*
X125816723Y-95885714D01*
X125816723Y-95885714D02*
X125626247Y-95838095D01*
X125626247Y-95838095D02*
X125483390Y-95838095D01*
X125483390Y-95838095D02*
X125292914Y-95885714D01*
X125292914Y-95885714D02*
X125197676Y-95933333D01*
X125197676Y-95933333D02*
X125102438Y-96028571D01*
X125102438Y-96028571D02*
X125054819Y-96171428D01*
X125054819Y-96171428D02*
X125054819Y-96266666D01*
X125054819Y-96266666D02*
X125102438Y-96409523D01*
X125102438Y-96409523D02*
X125150057Y-96457142D01*
X126054819Y-97409523D02*
X126054819Y-96838095D01*
X126054819Y-97123809D02*
X125054819Y-97123809D01*
X125054819Y-97123809D02*
X125197676Y-97028571D01*
X125197676Y-97028571D02*
X125292914Y-96933333D01*
X125292914Y-96933333D02*
X125340533Y-96838095D01*
X125388152Y-98266666D02*
X126054819Y-98266666D01*
X125007200Y-98028571D02*
X125721485Y-97790476D01*
X125721485Y-97790476D02*
X125721485Y-98409523D01*
X121054819Y-85557142D02*
X120578628Y-85223809D01*
X121054819Y-84985714D02*
X120054819Y-84985714D01*
X120054819Y-84985714D02*
X120054819Y-85366666D01*
X120054819Y-85366666D02*
X120102438Y-85461904D01*
X120102438Y-85461904D02*
X120150057Y-85509523D01*
X120150057Y-85509523D02*
X120245295Y-85557142D01*
X120245295Y-85557142D02*
X120388152Y-85557142D01*
X120388152Y-85557142D02*
X120483390Y-85509523D01*
X120483390Y-85509523D02*
X120531009Y-85461904D01*
X120531009Y-85461904D02*
X120578628Y-85366666D01*
X120578628Y-85366666D02*
X120578628Y-84985714D01*
X120150057Y-85938095D02*
X120102438Y-85985714D01*
X120102438Y-85985714D02*
X120054819Y-86080952D01*
X120054819Y-86080952D02*
X120054819Y-86319047D01*
X120054819Y-86319047D02*
X120102438Y-86414285D01*
X120102438Y-86414285D02*
X120150057Y-86461904D01*
X120150057Y-86461904D02*
X120245295Y-86509523D01*
X120245295Y-86509523D02*
X120340533Y-86509523D01*
X120340533Y-86509523D02*
X120483390Y-86461904D01*
X120483390Y-86461904D02*
X121054819Y-85890476D01*
X121054819Y-85890476D02*
X121054819Y-86509523D01*
X121054819Y-87461904D02*
X121054819Y-86890476D01*
X121054819Y-87176190D02*
X120054819Y-87176190D01*
X120054819Y-87176190D02*
X120197676Y-87080952D01*
X120197676Y-87080952D02*
X120292914Y-86985714D01*
X120292914Y-86985714D02*
X120340533Y-86890476D01*
D12*
X102861904Y-90007044D02*
X102719047Y-90054663D01*
X102719047Y-90054663D02*
X102480952Y-90054663D01*
X102480952Y-90054663D02*
X102385714Y-90007044D01*
X102385714Y-90007044D02*
X102338095Y-89959424D01*
X102338095Y-89959424D02*
X102290476Y-89864186D01*
X102290476Y-89864186D02*
X102290476Y-89768948D01*
X102290476Y-89768948D02*
X102338095Y-89673710D01*
X102338095Y-89673710D02*
X102385714Y-89626091D01*
X102385714Y-89626091D02*
X102480952Y-89578472D01*
X102480952Y-89578472D02*
X102671428Y-89530853D01*
X102671428Y-89530853D02*
X102766666Y-89483234D01*
X102766666Y-89483234D02*
X102814285Y-89435615D01*
X102814285Y-89435615D02*
X102861904Y-89340377D01*
X102861904Y-89340377D02*
X102861904Y-89245139D01*
X102861904Y-89245139D02*
X102814285Y-89149901D01*
X102814285Y-89149901D02*
X102766666Y-89102282D01*
X102766666Y-89102282D02*
X102671428Y-89054663D01*
X102671428Y-89054663D02*
X102433333Y-89054663D01*
X102433333Y-89054663D02*
X102290476Y-89102282D01*
X101909523Y-89149901D02*
X101861904Y-89102282D01*
X101861904Y-89102282D02*
X101766666Y-89054663D01*
X101766666Y-89054663D02*
X101528571Y-89054663D01*
X101528571Y-89054663D02*
X101433333Y-89102282D01*
X101433333Y-89102282D02*
X101385714Y-89149901D01*
X101385714Y-89149901D02*
X101338095Y-89245139D01*
X101338095Y-89245139D02*
X101338095Y-89340377D01*
X101338095Y-89340377D02*
X101385714Y-89483234D01*
X101385714Y-89483234D02*
X101957142Y-90054663D01*
X101957142Y-90054663D02*
X101338095Y-90054663D01*
D11*
X108842857Y-91859580D02*
X108890476Y-91907200D01*
X108890476Y-91907200D02*
X109033333Y-91954819D01*
X109033333Y-91954819D02*
X109128571Y-91954819D01*
X109128571Y-91954819D02*
X109271428Y-91907200D01*
X109271428Y-91907200D02*
X109366666Y-91811961D01*
X109366666Y-91811961D02*
X109414285Y-91716723D01*
X109414285Y-91716723D02*
X109461904Y-91526247D01*
X109461904Y-91526247D02*
X109461904Y-91383390D01*
X109461904Y-91383390D02*
X109414285Y-91192914D01*
X109414285Y-91192914D02*
X109366666Y-91097676D01*
X109366666Y-91097676D02*
X109271428Y-91002438D01*
X109271428Y-91002438D02*
X109128571Y-90954819D01*
X109128571Y-90954819D02*
X109033333Y-90954819D01*
X109033333Y-90954819D02*
X108890476Y-91002438D01*
X108890476Y-91002438D02*
X108842857Y-91050057D01*
X107890476Y-91954819D02*
X108461904Y-91954819D01*
X108176190Y-91954819D02*
X108176190Y-90954819D01*
X108176190Y-90954819D02*
X108271428Y-91097676D01*
X108271428Y-91097676D02*
X108366666Y-91192914D01*
X108366666Y-91192914D02*
X108461904Y-91240533D01*
X107509523Y-91050057D02*
X107461904Y-91002438D01*
X107461904Y-91002438D02*
X107366666Y-90954819D01*
X107366666Y-90954819D02*
X107128571Y-90954819D01*
X107128571Y-90954819D02*
X107033333Y-91002438D01*
X107033333Y-91002438D02*
X106985714Y-91050057D01*
X106985714Y-91050057D02*
X106938095Y-91145295D01*
X106938095Y-91145295D02*
X106938095Y-91240533D01*
X106938095Y-91240533D02*
X106985714Y-91383390D01*
X106985714Y-91383390D02*
X107557142Y-91954819D01*
X107557142Y-91954819D02*
X106938095Y-91954819D01*
X108892857Y-89259580D02*
X108940476Y-89307200D01*
X108940476Y-89307200D02*
X109083333Y-89354819D01*
X109083333Y-89354819D02*
X109178571Y-89354819D01*
X109178571Y-89354819D02*
X109321428Y-89307200D01*
X109321428Y-89307200D02*
X109416666Y-89211961D01*
X109416666Y-89211961D02*
X109464285Y-89116723D01*
X109464285Y-89116723D02*
X109511904Y-88926247D01*
X109511904Y-88926247D02*
X109511904Y-88783390D01*
X109511904Y-88783390D02*
X109464285Y-88592914D01*
X109464285Y-88592914D02*
X109416666Y-88497676D01*
X109416666Y-88497676D02*
X109321428Y-88402438D01*
X109321428Y-88402438D02*
X109178571Y-88354819D01*
X109178571Y-88354819D02*
X109083333Y-88354819D01*
X109083333Y-88354819D02*
X108940476Y-88402438D01*
X108940476Y-88402438D02*
X108892857Y-88450057D01*
X107940476Y-89354819D02*
X108511904Y-89354819D01*
X108226190Y-89354819D02*
X108226190Y-88354819D01*
X108226190Y-88354819D02*
X108321428Y-88497676D01*
X108321428Y-88497676D02*
X108416666Y-88592914D01*
X108416666Y-88592914D02*
X108511904Y-88640533D01*
X107607142Y-88354819D02*
X106988095Y-88354819D01*
X106988095Y-88354819D02*
X107321428Y-88735771D01*
X107321428Y-88735771D02*
X107178571Y-88735771D01*
X107178571Y-88735771D02*
X107083333Y-88783390D01*
X107083333Y-88783390D02*
X107035714Y-88831009D01*
X107035714Y-88831009D02*
X106988095Y-88926247D01*
X106988095Y-88926247D02*
X106988095Y-89164342D01*
X106988095Y-89164342D02*
X107035714Y-89259580D01*
X107035714Y-89259580D02*
X107083333Y-89307200D01*
X107083333Y-89307200D02*
X107178571Y-89354819D01*
X107178571Y-89354819D02*
X107464285Y-89354819D01*
X107464285Y-89354819D02*
X107559523Y-89307200D01*
X107559523Y-89307200D02*
X107607142Y-89259580D01*
X136359580Y-94657142D02*
X136407200Y-94609523D01*
X136407200Y-94609523D02*
X136454819Y-94466666D01*
X136454819Y-94466666D02*
X136454819Y-94371428D01*
X136454819Y-94371428D02*
X136407200Y-94228571D01*
X136407200Y-94228571D02*
X136311961Y-94133333D01*
X136311961Y-94133333D02*
X136216723Y-94085714D01*
X136216723Y-94085714D02*
X136026247Y-94038095D01*
X136026247Y-94038095D02*
X135883390Y-94038095D01*
X135883390Y-94038095D02*
X135692914Y-94085714D01*
X135692914Y-94085714D02*
X135597676Y-94133333D01*
X135597676Y-94133333D02*
X135502438Y-94228571D01*
X135502438Y-94228571D02*
X135454819Y-94371428D01*
X135454819Y-94371428D02*
X135454819Y-94466666D01*
X135454819Y-94466666D02*
X135502438Y-94609523D01*
X135502438Y-94609523D02*
X135550057Y-94657142D01*
X136454819Y-95609523D02*
X136454819Y-95038095D01*
X136454819Y-95323809D02*
X135454819Y-95323809D01*
X135454819Y-95323809D02*
X135597676Y-95228571D01*
X135597676Y-95228571D02*
X135692914Y-95133333D01*
X135692914Y-95133333D02*
X135740533Y-95038095D01*
X135454819Y-96466666D02*
X135454819Y-96276190D01*
X135454819Y-96276190D02*
X135502438Y-96180952D01*
X135502438Y-96180952D02*
X135550057Y-96133333D01*
X135550057Y-96133333D02*
X135692914Y-96038095D01*
X135692914Y-96038095D02*
X135883390Y-95990476D01*
X135883390Y-95990476D02*
X136264342Y-95990476D01*
X136264342Y-95990476D02*
X136359580Y-96038095D01*
X136359580Y-96038095D02*
X136407200Y-96085714D01*
X136407200Y-96085714D02*
X136454819Y-96180952D01*
X136454819Y-96180952D02*
X136454819Y-96371428D01*
X136454819Y-96371428D02*
X136407200Y-96466666D01*
X136407200Y-96466666D02*
X136359580Y-96514285D01*
X136359580Y-96514285D02*
X136264342Y-96561904D01*
X136264342Y-96561904D02*
X136026247Y-96561904D01*
X136026247Y-96561904D02*
X135931009Y-96514285D01*
X135931009Y-96514285D02*
X135883390Y-96466666D01*
X135883390Y-96466666D02*
X135835771Y-96371428D01*
X135835771Y-96371428D02*
X135835771Y-96180952D01*
X135835771Y-96180952D02*
X135883390Y-96085714D01*
X135883390Y-96085714D02*
X135931009Y-96038095D01*
X135931009Y-96038095D02*
X136026247Y-95990476D01*
X123154819Y-93661905D02*
X122154819Y-93661905D01*
X122154819Y-93661905D02*
X122154819Y-93900000D01*
X122154819Y-93900000D02*
X122202438Y-94042857D01*
X122202438Y-94042857D02*
X122297676Y-94138095D01*
X122297676Y-94138095D02*
X122392914Y-94185714D01*
X122392914Y-94185714D02*
X122583390Y-94233333D01*
X122583390Y-94233333D02*
X122726247Y-94233333D01*
X122726247Y-94233333D02*
X122916723Y-94185714D01*
X122916723Y-94185714D02*
X123011961Y-94138095D01*
X123011961Y-94138095D02*
X123107200Y-94042857D01*
X123107200Y-94042857D02*
X123154819Y-93900000D01*
X123154819Y-93900000D02*
X123154819Y-93661905D01*
X122154819Y-95138095D02*
X122154819Y-94661905D01*
X122154819Y-94661905D02*
X122631009Y-94614286D01*
X122631009Y-94614286D02*
X122583390Y-94661905D01*
X122583390Y-94661905D02*
X122535771Y-94757143D01*
X122535771Y-94757143D02*
X122535771Y-94995238D01*
X122535771Y-94995238D02*
X122583390Y-95090476D01*
X122583390Y-95090476D02*
X122631009Y-95138095D01*
X122631009Y-95138095D02*
X122726247Y-95185714D01*
X122726247Y-95185714D02*
X122964342Y-95185714D01*
X122964342Y-95185714D02*
X123059580Y-95138095D01*
X123059580Y-95138095D02*
X123107200Y-95090476D01*
X123107200Y-95090476D02*
X123154819Y-94995238D01*
X123154819Y-94995238D02*
X123154819Y-94757143D01*
X123154819Y-94757143D02*
X123107200Y-94661905D01*
X123107200Y-94661905D02*
X123059580Y-94614286D01*
X138759580Y-94657142D02*
X138807200Y-94609523D01*
X138807200Y-94609523D02*
X138854819Y-94466666D01*
X138854819Y-94466666D02*
X138854819Y-94371428D01*
X138854819Y-94371428D02*
X138807200Y-94228571D01*
X138807200Y-94228571D02*
X138711961Y-94133333D01*
X138711961Y-94133333D02*
X138616723Y-94085714D01*
X138616723Y-94085714D02*
X138426247Y-94038095D01*
X138426247Y-94038095D02*
X138283390Y-94038095D01*
X138283390Y-94038095D02*
X138092914Y-94085714D01*
X138092914Y-94085714D02*
X137997676Y-94133333D01*
X137997676Y-94133333D02*
X137902438Y-94228571D01*
X137902438Y-94228571D02*
X137854819Y-94371428D01*
X137854819Y-94371428D02*
X137854819Y-94466666D01*
X137854819Y-94466666D02*
X137902438Y-94609523D01*
X137902438Y-94609523D02*
X137950057Y-94657142D01*
X138854819Y-95609523D02*
X138854819Y-95038095D01*
X138854819Y-95323809D02*
X137854819Y-95323809D01*
X137854819Y-95323809D02*
X137997676Y-95228571D01*
X137997676Y-95228571D02*
X138092914Y-95133333D01*
X138092914Y-95133333D02*
X138140533Y-95038095D01*
X138283390Y-96180952D02*
X138235771Y-96085714D01*
X138235771Y-96085714D02*
X138188152Y-96038095D01*
X138188152Y-96038095D02*
X138092914Y-95990476D01*
X138092914Y-95990476D02*
X138045295Y-95990476D01*
X138045295Y-95990476D02*
X137950057Y-96038095D01*
X137950057Y-96038095D02*
X137902438Y-96085714D01*
X137902438Y-96085714D02*
X137854819Y-96180952D01*
X137854819Y-96180952D02*
X137854819Y-96371428D01*
X137854819Y-96371428D02*
X137902438Y-96466666D01*
X137902438Y-96466666D02*
X137950057Y-96514285D01*
X137950057Y-96514285D02*
X138045295Y-96561904D01*
X138045295Y-96561904D02*
X138092914Y-96561904D01*
X138092914Y-96561904D02*
X138188152Y-96514285D01*
X138188152Y-96514285D02*
X138235771Y-96466666D01*
X138235771Y-96466666D02*
X138283390Y-96371428D01*
X138283390Y-96371428D02*
X138283390Y-96180952D01*
X138283390Y-96180952D02*
X138331009Y-96085714D01*
X138331009Y-96085714D02*
X138378628Y-96038095D01*
X138378628Y-96038095D02*
X138473866Y-95990476D01*
X138473866Y-95990476D02*
X138664342Y-95990476D01*
X138664342Y-95990476D02*
X138759580Y-96038095D01*
X138759580Y-96038095D02*
X138807200Y-96085714D01*
X138807200Y-96085714D02*
X138854819Y-96180952D01*
X138854819Y-96180952D02*
X138854819Y-96371428D01*
X138854819Y-96371428D02*
X138807200Y-96466666D01*
X138807200Y-96466666D02*
X138759580Y-96514285D01*
X138759580Y-96514285D02*
X138664342Y-96561904D01*
X138664342Y-96561904D02*
X138473866Y-96561904D01*
X138473866Y-96561904D02*
X138378628Y-96514285D01*
X138378628Y-96514285D02*
X138331009Y-96466666D01*
X138331009Y-96466666D02*
X138283390Y-96371428D01*
X116333333Y-87031009D02*
X116666666Y-87031009D01*
X116666666Y-87554819D02*
X116666666Y-86554819D01*
X116666666Y-86554819D02*
X116190476Y-86554819D01*
X115476190Y-87031009D02*
X115333333Y-87078628D01*
X115333333Y-87078628D02*
X115285714Y-87126247D01*
X115285714Y-87126247D02*
X115238095Y-87221485D01*
X115238095Y-87221485D02*
X115238095Y-87364342D01*
X115238095Y-87364342D02*
X115285714Y-87459580D01*
X115285714Y-87459580D02*
X115333333Y-87507200D01*
X115333333Y-87507200D02*
X115428571Y-87554819D01*
X115428571Y-87554819D02*
X115809523Y-87554819D01*
X115809523Y-87554819D02*
X115809523Y-86554819D01*
X115809523Y-86554819D02*
X115476190Y-86554819D01*
X115476190Y-86554819D02*
X115380952Y-86602438D01*
X115380952Y-86602438D02*
X115333333Y-86650057D01*
X115333333Y-86650057D02*
X115285714Y-86745295D01*
X115285714Y-86745295D02*
X115285714Y-86840533D01*
X115285714Y-86840533D02*
X115333333Y-86935771D01*
X115333333Y-86935771D02*
X115380952Y-86983390D01*
X115380952Y-86983390D02*
X115476190Y-87031009D01*
X115476190Y-87031009D02*
X115809523Y-87031009D01*
X114857142Y-86650057D02*
X114809523Y-86602438D01*
X114809523Y-86602438D02*
X114714285Y-86554819D01*
X114714285Y-86554819D02*
X114476190Y-86554819D01*
X114476190Y-86554819D02*
X114380952Y-86602438D01*
X114380952Y-86602438D02*
X114333333Y-86650057D01*
X114333333Y-86650057D02*
X114285714Y-86745295D01*
X114285714Y-86745295D02*
X114285714Y-86840533D01*
X114285714Y-86840533D02*
X114333333Y-86983390D01*
X114333333Y-86983390D02*
X114904761Y-87554819D01*
X114904761Y-87554819D02*
X114285714Y-87554819D01*
X143676189Y-111254819D02*
X143676189Y-110254819D01*
X143676189Y-110254819D02*
X143438094Y-110254819D01*
X143438094Y-110254819D02*
X143295237Y-110302438D01*
X143295237Y-110302438D02*
X143199999Y-110397676D01*
X143199999Y-110397676D02*
X143152380Y-110492914D01*
X143152380Y-110492914D02*
X143104761Y-110683390D01*
X143104761Y-110683390D02*
X143104761Y-110826247D01*
X143104761Y-110826247D02*
X143152380Y-111016723D01*
X143152380Y-111016723D02*
X143199999Y-111111961D01*
X143199999Y-111111961D02*
X143295237Y-111207200D01*
X143295237Y-111207200D02*
X143438094Y-111254819D01*
X143438094Y-111254819D02*
X143676189Y-111254819D01*
X142676189Y-111254819D02*
X142676189Y-110254819D01*
X141771428Y-110588152D02*
X141771428Y-111254819D01*
X142009523Y-110207200D02*
X142247618Y-110921485D01*
X142247618Y-110921485D02*
X141628571Y-110921485D01*
X179942857Y-93054819D02*
X180276190Y-92578628D01*
X180514285Y-93054819D02*
X180514285Y-92054819D01*
X180514285Y-92054819D02*
X180133333Y-92054819D01*
X180133333Y-92054819D02*
X180038095Y-92102438D01*
X180038095Y-92102438D02*
X179990476Y-92150057D01*
X179990476Y-92150057D02*
X179942857Y-92245295D01*
X179942857Y-92245295D02*
X179942857Y-92388152D01*
X179942857Y-92388152D02*
X179990476Y-92483390D01*
X179990476Y-92483390D02*
X180038095Y-92531009D01*
X180038095Y-92531009D02*
X180133333Y-92578628D01*
X180133333Y-92578628D02*
X180514285Y-92578628D01*
X179561904Y-92150057D02*
X179514285Y-92102438D01*
X179514285Y-92102438D02*
X179419047Y-92054819D01*
X179419047Y-92054819D02*
X179180952Y-92054819D01*
X179180952Y-92054819D02*
X179085714Y-92102438D01*
X179085714Y-92102438D02*
X179038095Y-92150057D01*
X179038095Y-92150057D02*
X178990476Y-92245295D01*
X178990476Y-92245295D02*
X178990476Y-92340533D01*
X178990476Y-92340533D02*
X179038095Y-92483390D01*
X179038095Y-92483390D02*
X179609523Y-93054819D01*
X179609523Y-93054819D02*
X178990476Y-93054819D01*
X178133333Y-92388152D02*
X178133333Y-93054819D01*
X178371428Y-92007200D02*
X178609523Y-92721485D01*
X178609523Y-92721485D02*
X177990476Y-92721485D01*
X176742857Y-96954819D02*
X177076190Y-96478628D01*
X177314285Y-96954819D02*
X177314285Y-95954819D01*
X177314285Y-95954819D02*
X176933333Y-95954819D01*
X176933333Y-95954819D02*
X176838095Y-96002438D01*
X176838095Y-96002438D02*
X176790476Y-96050057D01*
X176790476Y-96050057D02*
X176742857Y-96145295D01*
X176742857Y-96145295D02*
X176742857Y-96288152D01*
X176742857Y-96288152D02*
X176790476Y-96383390D01*
X176790476Y-96383390D02*
X176838095Y-96431009D01*
X176838095Y-96431009D02*
X176933333Y-96478628D01*
X176933333Y-96478628D02*
X177314285Y-96478628D01*
X176361904Y-96050057D02*
X176314285Y-96002438D01*
X176314285Y-96002438D02*
X176219047Y-95954819D01*
X176219047Y-95954819D02*
X175980952Y-95954819D01*
X175980952Y-95954819D02*
X175885714Y-96002438D01*
X175885714Y-96002438D02*
X175838095Y-96050057D01*
X175838095Y-96050057D02*
X175790476Y-96145295D01*
X175790476Y-96145295D02*
X175790476Y-96240533D01*
X175790476Y-96240533D02*
X175838095Y-96383390D01*
X175838095Y-96383390D02*
X176409523Y-96954819D01*
X176409523Y-96954819D02*
X175790476Y-96954819D01*
X174933333Y-95954819D02*
X175123809Y-95954819D01*
X175123809Y-95954819D02*
X175219047Y-96002438D01*
X175219047Y-96002438D02*
X175266666Y-96050057D01*
X175266666Y-96050057D02*
X175361904Y-96192914D01*
X175361904Y-96192914D02*
X175409523Y-96383390D01*
X175409523Y-96383390D02*
X175409523Y-96764342D01*
X175409523Y-96764342D02*
X175361904Y-96859580D01*
X175361904Y-96859580D02*
X175314285Y-96907200D01*
X175314285Y-96907200D02*
X175219047Y-96954819D01*
X175219047Y-96954819D02*
X175028571Y-96954819D01*
X175028571Y-96954819D02*
X174933333Y-96907200D01*
X174933333Y-96907200D02*
X174885714Y-96859580D01*
X174885714Y-96859580D02*
X174838095Y-96764342D01*
X174838095Y-96764342D02*
X174838095Y-96526247D01*
X174838095Y-96526247D02*
X174885714Y-96431009D01*
X174885714Y-96431009D02*
X174933333Y-96383390D01*
X174933333Y-96383390D02*
X175028571Y-96335771D01*
X175028571Y-96335771D02*
X175219047Y-96335771D01*
X175219047Y-96335771D02*
X175314285Y-96383390D01*
X175314285Y-96383390D02*
X175361904Y-96431009D01*
X175361904Y-96431009D02*
X175409523Y-96526247D01*
X138938094Y-90654819D02*
X138938094Y-89654819D01*
X138938094Y-89654819D02*
X138699999Y-89654819D01*
X138699999Y-89654819D02*
X138557142Y-89702438D01*
X138557142Y-89702438D02*
X138461904Y-89797676D01*
X138461904Y-89797676D02*
X138414285Y-89892914D01*
X138414285Y-89892914D02*
X138366666Y-90083390D01*
X138366666Y-90083390D02*
X138366666Y-90226247D01*
X138366666Y-90226247D02*
X138414285Y-90416723D01*
X138414285Y-90416723D02*
X138461904Y-90511961D01*
X138461904Y-90511961D02*
X138557142Y-90607200D01*
X138557142Y-90607200D02*
X138699999Y-90654819D01*
X138699999Y-90654819D02*
X138938094Y-90654819D01*
X137414285Y-90654819D02*
X137985713Y-90654819D01*
X137699999Y-90654819D02*
X137699999Y-89654819D01*
X137699999Y-89654819D02*
X137795237Y-89797676D01*
X137795237Y-89797676D02*
X137890475Y-89892914D01*
X137890475Y-89892914D02*
X137985713Y-89940533D01*
X122955357Y-100409580D02*
X123002976Y-100457200D01*
X123002976Y-100457200D02*
X123145833Y-100504819D01*
X123145833Y-100504819D02*
X123241071Y-100504819D01*
X123241071Y-100504819D02*
X123383928Y-100457200D01*
X123383928Y-100457200D02*
X123479166Y-100361961D01*
X123479166Y-100361961D02*
X123526785Y-100266723D01*
X123526785Y-100266723D02*
X123574404Y-100076247D01*
X123574404Y-100076247D02*
X123574404Y-99933390D01*
X123574404Y-99933390D02*
X123526785Y-99742914D01*
X123526785Y-99742914D02*
X123479166Y-99647676D01*
X123479166Y-99647676D02*
X123383928Y-99552438D01*
X123383928Y-99552438D02*
X123241071Y-99504819D01*
X123241071Y-99504819D02*
X123145833Y-99504819D01*
X123145833Y-99504819D02*
X123002976Y-99552438D01*
X123002976Y-99552438D02*
X122955357Y-99600057D01*
X122002976Y-100504819D02*
X122574404Y-100504819D01*
X122288690Y-100504819D02*
X122288690Y-99504819D01*
X122288690Y-99504819D02*
X122383928Y-99647676D01*
X122383928Y-99647676D02*
X122479166Y-99742914D01*
X122479166Y-99742914D02*
X122574404Y-99790533D01*
X121050595Y-100504819D02*
X121622023Y-100504819D01*
X121336309Y-100504819D02*
X121336309Y-99504819D01*
X121336309Y-99504819D02*
X121431547Y-99647676D01*
X121431547Y-99647676D02*
X121526785Y-99742914D01*
X121526785Y-99742914D02*
X121622023Y-99790533D01*
X113038094Y-98454819D02*
X113038094Y-97454819D01*
X113038094Y-97454819D02*
X112799999Y-97454819D01*
X112799999Y-97454819D02*
X112657142Y-97502438D01*
X112657142Y-97502438D02*
X112561904Y-97597676D01*
X112561904Y-97597676D02*
X112514285Y-97692914D01*
X112514285Y-97692914D02*
X112466666Y-97883390D01*
X112466666Y-97883390D02*
X112466666Y-98026247D01*
X112466666Y-98026247D02*
X112514285Y-98216723D01*
X112514285Y-98216723D02*
X112561904Y-98311961D01*
X112561904Y-98311961D02*
X112657142Y-98407200D01*
X112657142Y-98407200D02*
X112799999Y-98454819D01*
X112799999Y-98454819D02*
X113038094Y-98454819D01*
X111609523Y-97788152D02*
X111609523Y-98454819D01*
X111847618Y-97407200D02*
X112085713Y-98121485D01*
X112085713Y-98121485D02*
X111466666Y-98121485D01*
X113054819Y-93733333D02*
X113054819Y-93257143D01*
X113054819Y-93257143D02*
X112054819Y-93257143D01*
X113054819Y-94590476D02*
X113054819Y-94019048D01*
X113054819Y-94304762D02*
X112054819Y-94304762D01*
X112054819Y-94304762D02*
X112197676Y-94209524D01*
X112197676Y-94209524D02*
X112292914Y-94114286D01*
X112292914Y-94114286D02*
X112340533Y-94019048D01*
X130740476Y-98579819D02*
X131216666Y-98579819D01*
X131216666Y-98579819D02*
X131216666Y-97579819D01*
X130407142Y-98579819D02*
X130407142Y-97579819D01*
X130407142Y-97579819D02*
X130169047Y-97579819D01*
X130169047Y-97579819D02*
X130026190Y-97627438D01*
X130026190Y-97627438D02*
X129930952Y-97722676D01*
X129930952Y-97722676D02*
X129883333Y-97817914D01*
X129883333Y-97817914D02*
X129835714Y-98008390D01*
X129835714Y-98008390D02*
X129835714Y-98151247D01*
X129835714Y-98151247D02*
X129883333Y-98341723D01*
X129883333Y-98341723D02*
X129930952Y-98436961D01*
X129930952Y-98436961D02*
X130026190Y-98532200D01*
X130026190Y-98532200D02*
X130169047Y-98579819D01*
X130169047Y-98579819D02*
X130407142Y-98579819D01*
X129216666Y-97579819D02*
X129026190Y-97579819D01*
X129026190Y-97579819D02*
X128930952Y-97627438D01*
X128930952Y-97627438D02*
X128835714Y-97722676D01*
X128835714Y-97722676D02*
X128788095Y-97913152D01*
X128788095Y-97913152D02*
X128788095Y-98246485D01*
X128788095Y-98246485D02*
X128835714Y-98436961D01*
X128835714Y-98436961D02*
X128930952Y-98532200D01*
X128930952Y-98532200D02*
X129026190Y-98579819D01*
X129026190Y-98579819D02*
X129216666Y-98579819D01*
X129216666Y-98579819D02*
X129311904Y-98532200D01*
X129311904Y-98532200D02*
X129407142Y-98436961D01*
X129407142Y-98436961D02*
X129454761Y-98246485D01*
X129454761Y-98246485D02*
X129454761Y-97913152D01*
X129454761Y-97913152D02*
X129407142Y-97722676D01*
X129407142Y-97722676D02*
X129311904Y-97627438D01*
X129311904Y-97627438D02*
X129216666Y-97579819D01*
X127835714Y-98579819D02*
X128407142Y-98579819D01*
X128121428Y-98579819D02*
X128121428Y-97579819D01*
X128121428Y-97579819D02*
X128216666Y-97722676D01*
X128216666Y-97722676D02*
X128311904Y-97817914D01*
X128311904Y-97817914D02*
X128407142Y-97865533D01*
X134759580Y-94657142D02*
X134807200Y-94609523D01*
X134807200Y-94609523D02*
X134854819Y-94466666D01*
X134854819Y-94466666D02*
X134854819Y-94371428D01*
X134854819Y-94371428D02*
X134807200Y-94228571D01*
X134807200Y-94228571D02*
X134711961Y-94133333D01*
X134711961Y-94133333D02*
X134616723Y-94085714D01*
X134616723Y-94085714D02*
X134426247Y-94038095D01*
X134426247Y-94038095D02*
X134283390Y-94038095D01*
X134283390Y-94038095D02*
X134092914Y-94085714D01*
X134092914Y-94085714D02*
X133997676Y-94133333D01*
X133997676Y-94133333D02*
X133902438Y-94228571D01*
X133902438Y-94228571D02*
X133854819Y-94371428D01*
X133854819Y-94371428D02*
X133854819Y-94466666D01*
X133854819Y-94466666D02*
X133902438Y-94609523D01*
X133902438Y-94609523D02*
X133950057Y-94657142D01*
X134854819Y-95609523D02*
X134854819Y-95038095D01*
X134854819Y-95323809D02*
X133854819Y-95323809D01*
X133854819Y-95323809D02*
X133997676Y-95228571D01*
X133997676Y-95228571D02*
X134092914Y-95133333D01*
X134092914Y-95133333D02*
X134140533Y-95038095D01*
X133854819Y-95942857D02*
X133854819Y-96609523D01*
X133854819Y-96609523D02*
X134854819Y-96180952D01*
X121354819Y-101838095D02*
X122164342Y-101838095D01*
X122164342Y-101838095D02*
X122259580Y-101885714D01*
X122259580Y-101885714D02*
X122307200Y-101933333D01*
X122307200Y-101933333D02*
X122354819Y-102028571D01*
X122354819Y-102028571D02*
X122354819Y-102219047D01*
X122354819Y-102219047D02*
X122307200Y-102314285D01*
X122307200Y-102314285D02*
X122259580Y-102361904D01*
X122259580Y-102361904D02*
X122164342Y-102409523D01*
X122164342Y-102409523D02*
X121354819Y-102409523D01*
X121688152Y-103314285D02*
X122354819Y-103314285D01*
X121307200Y-103076190D02*
X122021485Y-102838095D01*
X122021485Y-102838095D02*
X122021485Y-103457142D01*
X137666666Y-77654819D02*
X137999999Y-77178628D01*
X138238094Y-77654819D02*
X138238094Y-76654819D01*
X138238094Y-76654819D02*
X137857142Y-76654819D01*
X137857142Y-76654819D02*
X137761904Y-76702438D01*
X137761904Y-76702438D02*
X137714285Y-76750057D01*
X137714285Y-76750057D02*
X137666666Y-76845295D01*
X137666666Y-76845295D02*
X137666666Y-76988152D01*
X137666666Y-76988152D02*
X137714285Y-77083390D01*
X137714285Y-77083390D02*
X137761904Y-77131009D01*
X137761904Y-77131009D02*
X137857142Y-77178628D01*
X137857142Y-77178628D02*
X138238094Y-77178628D01*
X137285713Y-76750057D02*
X137238094Y-76702438D01*
X137238094Y-76702438D02*
X137142856Y-76654819D01*
X137142856Y-76654819D02*
X136904761Y-76654819D01*
X136904761Y-76654819D02*
X136809523Y-76702438D01*
X136809523Y-76702438D02*
X136761904Y-76750057D01*
X136761904Y-76750057D02*
X136714285Y-76845295D01*
X136714285Y-76845295D02*
X136714285Y-76940533D01*
X136714285Y-76940533D02*
X136761904Y-77083390D01*
X136761904Y-77083390D02*
X137333332Y-77654819D01*
X137333332Y-77654819D02*
X136714285Y-77654819D01*
D12*
X142585713Y-76854663D02*
X142252380Y-77854663D01*
X142252380Y-77854663D02*
X141919047Y-76854663D01*
X141633332Y-77807044D02*
X141490475Y-77854663D01*
X141490475Y-77854663D02*
X141252380Y-77854663D01*
X141252380Y-77854663D02*
X141157142Y-77807044D01*
X141157142Y-77807044D02*
X141109523Y-77759424D01*
X141109523Y-77759424D02*
X141061904Y-77664186D01*
X141061904Y-77664186D02*
X141061904Y-77568948D01*
X141061904Y-77568948D02*
X141109523Y-77473710D01*
X141109523Y-77473710D02*
X141157142Y-77426091D01*
X141157142Y-77426091D02*
X141252380Y-77378472D01*
X141252380Y-77378472D02*
X141442856Y-77330853D01*
X141442856Y-77330853D02*
X141538094Y-77283234D01*
X141538094Y-77283234D02*
X141585713Y-77235615D01*
X141585713Y-77235615D02*
X141633332Y-77140377D01*
X141633332Y-77140377D02*
X141633332Y-77045139D01*
X141633332Y-77045139D02*
X141585713Y-76949901D01*
X141585713Y-76949901D02*
X141538094Y-76902282D01*
X141538094Y-76902282D02*
X141442856Y-76854663D01*
X141442856Y-76854663D02*
X141204761Y-76854663D01*
X141204761Y-76854663D02*
X141061904Y-76902282D01*
X140109523Y-77854663D02*
X140680951Y-77854663D01*
X140395237Y-77854663D02*
X140395237Y-76854663D01*
X140395237Y-76854663D02*
X140490475Y-76997520D01*
X140490475Y-76997520D02*
X140585713Y-77092758D01*
X140585713Y-77092758D02*
X140680951Y-77140377D01*
D13*
X136572936Y-80565000D02*
X137027064Y-80565000D01*
X136572936Y-82035000D02*
X137027064Y-82035000D01*
X114765000Y-102888748D02*
X114765000Y-103411252D01*
X116235000Y-102888748D02*
X116235000Y-103411252D01*
X133961252Y-101065000D02*
X133438748Y-101065000D01*
X133961252Y-102535000D02*
X133438748Y-102535000D01*
X116927064Y-90590000D02*
X115472936Y-90590000D01*
X116927064Y-92410000D02*
X115472936Y-92410000D01*
X133840000Y-82800000D02*
X133840000Y-84800000D01*
X137850000Y-82800000D02*
X133840000Y-82800000D01*
X137850000Y-84800000D02*
X133840000Y-84800000D01*
X124865000Y-100861252D02*
X124865000Y-100338748D01*
X126335000Y-100861252D02*
X126335000Y-100338748D01*
X119690000Y-89372936D02*
X119690000Y-90827064D01*
X121510000Y-89372936D02*
X121510000Y-90827064D01*
D10*
X101550000Y-92600000D02*
X101550000Y-92600000D01*
X101550000Y-92600000D02*
X101550000Y-97600000D01*
X101550000Y-97600000D02*
X101550000Y-92600000D01*
X101550000Y-97600000D02*
X101550000Y-97600000D01*
X104250000Y-95350000D02*
X104250000Y-95350000D01*
X104250000Y-95350000D02*
X104250000Y-96350000D01*
X104250000Y-96350000D02*
X104250000Y-95350000D01*
X104250000Y-96350000D02*
X104250000Y-96350000D01*
D14*
X105900000Y-97400000D02*
X105900000Y-97400000D01*
X105900000Y-97400000D02*
X105900000Y-97400000D01*
X106000000Y-97400000D02*
X106000000Y-97400000D01*
X105900000Y-97400000D02*
G75*
G02*
X106000000Y-97400000I50000J0D01*
G01*
X105900000Y-97400000D02*
G75*
G02*
X106000000Y-97400000I50000J0D01*
G01*
X106000000Y-97400000D02*
G75*
G02*
X105900000Y-97400000I-50000J0D01*
G01*
D13*
X111488748Y-90765000D02*
X112011252Y-90765000D01*
X111488748Y-92235000D02*
X112011252Y-92235000D01*
X111488748Y-88165000D02*
X112011252Y-88165000D01*
X111488748Y-89635000D02*
X112011252Y-89635000D01*
X134565000Y-98538748D02*
X134565000Y-99061252D01*
X136035000Y-98538748D02*
X136035000Y-99061252D01*
X119700000Y-94150000D02*
X119700000Y-98160000D01*
X119700000Y-98160000D02*
X121700000Y-98160000D01*
X121700000Y-94150000D02*
X121700000Y-98160000D01*
X136865000Y-98538748D02*
X136865000Y-99061252D01*
X138335000Y-98538748D02*
X138335000Y-99061252D01*
X115861252Y-88165000D02*
X115338748Y-88165000D01*
X115861252Y-89635000D02*
X115338748Y-89635000D01*
X140590000Y-113050000D02*
X140590000Y-113700000D01*
X140590000Y-114350000D02*
X140590000Y-113700000D01*
X143710000Y-113050000D02*
X143710000Y-113700000D01*
X143710000Y-114350000D02*
X143710000Y-113700000D01*
X143990000Y-115102500D02*
X143660000Y-114862500D01*
X143990000Y-114622500D01*
X143990000Y-115102500D01*
G36*
X143990000Y-115102500D02*
G01*
X143660000Y-114862500D01*
X143990000Y-114622500D01*
X143990000Y-115102500D01*
G37*
X175572936Y-91765000D02*
X176027064Y-91765000D01*
X175572936Y-93235000D02*
X176027064Y-93235000D01*
X175572936Y-93965000D02*
X176027064Y-93965000D01*
X175572936Y-95435000D02*
X176027064Y-95435000D01*
X135840000Y-87200000D02*
X135840000Y-89200000D01*
X139850000Y-87200000D02*
X135840000Y-87200000D01*
X139850000Y-89200000D02*
X135840000Y-89200000D01*
D15*
G36*
X183296826Y-106105482D02*
G01*
X183296826Y-107710386D01*
X182945067Y-107710386D01*
X182593307Y-107710386D01*
X182593307Y-107220691D01*
X182593307Y-106730996D01*
X182157271Y-106724828D01*
X182118323Y-106724266D01*
X181998028Y-106722274D01*
X181901844Y-106720066D01*
X181825716Y-106717359D01*
X181765589Y-106713875D01*
X181717407Y-106709333D01*
X181677115Y-106703451D01*
X181640659Y-106695950D01*
X181603982Y-106686548D01*
X181533070Y-106665199D01*
X181362348Y-106595431D01*
X181212382Y-106505677D01*
X181083781Y-106396509D01*
X180977152Y-106268500D01*
X180893101Y-106122225D01*
X180832237Y-105958254D01*
X180814838Y-105875313D01*
X180802896Y-105768086D01*
X180797838Y-105650483D01*
X180798305Y-105621812D01*
X181487129Y-105621812D01*
X181488596Y-105695798D01*
X181493551Y-105752210D01*
X181503278Y-105796540D01*
X181519070Y-105837517D01*
X181539041Y-105875652D01*
X181603332Y-105962050D01*
X181685206Y-106037083D01*
X181776427Y-106092591D01*
X181867802Y-106134795D01*
X182230554Y-106139176D01*
X182593307Y-106143556D01*
X182593307Y-105621614D01*
X182593307Y-105099671D01*
X182223226Y-105104250D01*
X181853145Y-105108828D01*
X181774875Y-105150051D01*
X181673584Y-105216201D01*
X181588571Y-105299104D01*
X181527334Y-105392559D01*
X181513597Y-105421802D01*
X181499430Y-105460004D01*
X181491370Y-105499953D01*
X181487806Y-105550829D01*
X181487129Y-105621812D01*
X180798305Y-105621812D01*
X180799771Y-105531871D01*
X180808802Y-105421616D01*
X180825039Y-105329083D01*
X180829620Y-105311228D01*
X180886822Y-105151362D01*
X180968978Y-105002240D01*
X181073118Y-104867215D01*
X181196275Y-104749642D01*
X181335480Y-104652875D01*
X181487764Y-104580268D01*
X181530916Y-104564648D01*
X181576597Y-104550074D01*
X181623548Y-104537871D01*
X181674571Y-104527833D01*
X181732472Y-104519752D01*
X181800056Y-104513421D01*
X181880125Y-104508633D01*
X181975485Y-104505180D01*
X182088939Y-104502855D01*
X182223292Y-104501451D01*
X182381349Y-104500761D01*
X182565913Y-104500577D01*
X183296826Y-104500577D01*
X183296826Y-105621614D01*
X183296826Y-106105482D01*
G37*
G36*
X184659896Y-106442423D02*
G01*
X184659896Y-107078769D01*
X185183872Y-107083124D01*
X185230944Y-107083516D01*
X185359889Y-107084662D01*
X185463601Y-107085846D01*
X185545170Y-107087276D01*
X185607689Y-107089161D01*
X185654247Y-107091709D01*
X185687936Y-107095128D01*
X185711846Y-107099628D01*
X185729069Y-107105415D01*
X185742694Y-107112700D01*
X185755814Y-107121690D01*
X185777841Y-107140211D01*
X185820128Y-107192893D01*
X185850258Y-107253676D01*
X185861743Y-107310967D01*
X185852694Y-107359127D01*
X185827608Y-107417555D01*
X185792754Y-107472327D01*
X185754432Y-107511663D01*
X185743367Y-107519057D01*
X185729557Y-107525609D01*
X185710852Y-107530844D01*
X185684201Y-107534947D01*
X185646551Y-107538104D01*
X185594850Y-107540500D01*
X185526045Y-107542321D01*
X185437085Y-107543753D01*
X185324916Y-107544980D01*
X185186487Y-107546189D01*
X184659896Y-107550544D01*
X184659896Y-108179562D01*
X184659896Y-108808580D01*
X185185035Y-108812772D01*
X185710173Y-108816965D01*
X185762664Y-108857018D01*
X185785696Y-108876973D01*
X185830702Y-108938598D01*
X185852979Y-109008315D01*
X185853080Y-109080213D01*
X185831559Y-109148378D01*
X185788970Y-109206900D01*
X185725866Y-109249867D01*
X185721030Y-109252016D01*
X185702148Y-109259214D01*
X185680103Y-109264959D01*
X185651625Y-109269414D01*
X185613446Y-109272746D01*
X185562298Y-109275119D01*
X185494910Y-109276698D01*
X185408016Y-109277649D01*
X185298345Y-109278138D01*
X185162631Y-109278328D01*
X184661384Y-109278650D01*
X184656976Y-109890565D01*
X184652568Y-110502481D01*
X184613300Y-110609982D01*
X184585341Y-110680599D01*
X184528567Y-110792289D01*
X184457749Y-110893094D01*
X184366139Y-110993479D01*
X184275117Y-111076873D01*
X184182393Y-111144358D01*
X184080835Y-111199259D01*
X183960205Y-111247996D01*
X183831795Y-111293941D01*
X183197894Y-111298457D01*
X182563993Y-111302972D01*
X182563993Y-111820600D01*
X182563818Y-111923533D01*
X182563184Y-112039523D01*
X182562142Y-112144659D01*
X182560751Y-112235249D01*
X182559071Y-112307601D01*
X182557159Y-112358024D01*
X182555074Y-112382826D01*
X182551310Y-112397381D01*
X182520466Y-112455642D01*
X182470679Y-112506294D01*
X182410098Y-112540475D01*
X182381101Y-112549211D01*
X182300296Y-112555421D01*
X182224967Y-112536160D01*
X182160653Y-112493496D01*
X182112893Y-112429497D01*
X182109335Y-112422469D01*
X182101295Y-112405319D01*
X182094895Y-112387298D01*
X182089987Y-112365246D01*
X182086424Y-112336004D01*
X182084057Y-112296410D01*
X182082739Y-112243305D01*
X182082322Y-112173530D01*
X182082660Y-112083922D01*
X182083603Y-111971324D01*
X182085006Y-111832573D01*
X182090504Y-111301269D01*
X181462505Y-111301269D01*
X180834507Y-111301269D01*
X180834507Y-111844150D01*
X180834463Y-111951344D01*
X180834195Y-112073071D01*
X180833554Y-112170820D01*
X180832397Y-112247660D01*
X180830580Y-112306659D01*
X180827961Y-112350884D01*
X180824396Y-112383403D01*
X180819741Y-112407285D01*
X180813853Y-112425598D01*
X180806588Y-112441409D01*
X180799470Y-112454149D01*
X180751718Y-112508082D01*
X180690192Y-112541855D01*
X180620881Y-112555782D01*
X180549776Y-112550176D01*
X180482867Y-112525353D01*
X180426141Y-112481626D01*
X180385590Y-112419311D01*
X180381145Y-112405171D01*
X180376444Y-112377428D01*
X180372717Y-112336282D01*
X180369873Y-112279082D01*
X180367820Y-112203175D01*
X180366466Y-112105911D01*
X180365721Y-111984639D01*
X180365494Y-111836708D01*
X180365494Y-111301269D01*
X179743089Y-111301269D01*
X179120685Y-111301269D01*
X179116517Y-111857168D01*
X179116146Y-111906192D01*
X179115043Y-112039811D01*
X179113878Y-112148030D01*
X179112477Y-112233808D01*
X179110668Y-112300104D01*
X179108275Y-112349876D01*
X179105127Y-112386082D01*
X179101049Y-112411682D01*
X179095868Y-112429634D01*
X179089410Y-112442896D01*
X179081503Y-112454427D01*
X179038805Y-112498841D01*
X178967237Y-112538775D01*
X178885170Y-112552723D01*
X178823877Y-112545072D01*
X178748997Y-112511686D01*
X178688837Y-112454427D01*
X178686117Y-112450715D01*
X178678697Y-112438948D01*
X178672670Y-112424496D01*
X178667864Y-112404400D01*
X178664105Y-112375701D01*
X178661219Y-112335440D01*
X178659034Y-112280660D01*
X178657375Y-112208401D01*
X178656069Y-112115706D01*
X178654944Y-111999614D01*
X178653824Y-111857168D01*
X178649656Y-111301269D01*
X178063275Y-111301269D01*
X177997721Y-111301239D01*
X177852633Y-111300861D01*
X177732537Y-111299972D01*
X177634346Y-111298469D01*
X177554973Y-111296250D01*
X177491331Y-111293214D01*
X177440334Y-111289258D01*
X177398894Y-111284280D01*
X177363924Y-111278180D01*
X177290569Y-111260521D01*
X177127967Y-111200739D01*
X176979675Y-111116634D01*
X176847874Y-111010144D01*
X176734748Y-110883210D01*
X176642481Y-110737770D01*
X176573256Y-110575764D01*
X176533874Y-110458511D01*
X176528627Y-109868580D01*
X176523379Y-109278650D01*
X176025616Y-109278650D01*
X175943144Y-109278623D01*
X175814368Y-109278256D01*
X175710116Y-109277082D01*
X175627300Y-109274639D01*
X175562831Y-109270464D01*
X175513621Y-109264094D01*
X175476581Y-109255064D01*
X175448622Y-109242913D01*
X175426656Y-109227178D01*
X175407594Y-109207394D01*
X175388347Y-109183099D01*
X175373854Y-109161359D01*
X175354880Y-109109055D01*
X176995201Y-109109055D01*
X176995359Y-109308647D01*
X176995752Y-109487753D01*
X176996417Y-109647564D01*
X176997386Y-109789271D01*
X176998696Y-109914065D01*
X177000380Y-110023137D01*
X177002474Y-110117679D01*
X177005012Y-110198880D01*
X177008029Y-110267933D01*
X177011559Y-110326029D01*
X177015638Y-110374357D01*
X177020300Y-110414110D01*
X177025580Y-110446479D01*
X177031512Y-110472654D01*
X177038132Y-110493827D01*
X177045473Y-110511188D01*
X177053571Y-110525929D01*
X177062461Y-110539241D01*
X177072176Y-110552315D01*
X177082752Y-110566341D01*
X177094224Y-110582511D01*
X177106540Y-110600029D01*
X177188934Y-110692173D01*
X177286103Y-110765840D01*
X177391156Y-110815619D01*
X177483822Y-110846913D01*
X180606510Y-110846125D01*
X180885120Y-110846049D01*
X181220346Y-110845936D01*
X181528361Y-110845797D01*
X181810349Y-110845623D01*
X182067496Y-110845403D01*
X182300987Y-110845128D01*
X182512007Y-110844787D01*
X182701742Y-110844372D01*
X182871376Y-110843871D01*
X183022095Y-110843275D01*
X183155085Y-110842574D01*
X183271530Y-110841759D01*
X183372615Y-110840819D01*
X183459526Y-110839744D01*
X183533449Y-110838526D01*
X183595567Y-110837153D01*
X183647067Y-110835616D01*
X183689134Y-110833905D01*
X183722953Y-110832010D01*
X183749709Y-110829922D01*
X183770588Y-110827630D01*
X183786774Y-110825124D01*
X183799453Y-110822395D01*
X183809810Y-110819433D01*
X183906603Y-110779035D01*
X184012310Y-110707948D01*
X184098445Y-110616349D01*
X184162933Y-110506544D01*
X184203702Y-110380842D01*
X184204705Y-110375584D01*
X184209762Y-110331026D01*
X184214035Y-110262959D01*
X184217328Y-110176276D01*
X184219447Y-110075874D01*
X184220196Y-109966647D01*
X184220196Y-109630120D01*
X182838806Y-109631070D01*
X182595872Y-109631387D01*
X182363060Y-109632020D01*
X182152540Y-109632951D01*
X181965191Y-109634171D01*
X181801889Y-109635670D01*
X181663512Y-109637438D01*
X181550937Y-109639467D01*
X181465042Y-109641746D01*
X181406705Y-109644266D01*
X181376803Y-109647018D01*
X181352949Y-109651709D01*
X181302143Y-109664452D01*
X181255914Y-109681740D01*
X181210117Y-109706341D01*
X181160609Y-109741024D01*
X181103245Y-109788558D01*
X181033881Y-109851712D01*
X180948372Y-109933255D01*
X180862891Y-110014525D01*
X180784340Y-110085477D01*
X180717742Y-110140160D01*
X180659031Y-110181405D01*
X180604141Y-110212045D01*
X180549007Y-110234911D01*
X180489563Y-110252835D01*
X180454802Y-110258295D01*
X180392861Y-110263343D01*
X180308719Y-110267621D01*
X180206032Y-110271130D01*
X180088457Y-110273867D01*
X179959652Y-110275834D01*
X179823272Y-110277030D01*
X179682976Y-110277454D01*
X179542420Y-110277106D01*
X179405260Y-110275985D01*
X179275154Y-110274091D01*
X179155759Y-110271424D01*
X179050731Y-110267984D01*
X178963728Y-110263769D01*
X178898406Y-110258779D01*
X178858423Y-110253015D01*
X178812657Y-110241091D01*
X178723545Y-110209069D01*
X178640897Y-110164774D01*
X178557476Y-110103952D01*
X178466045Y-110022348D01*
X178331577Y-109893975D01*
X178238610Y-109917792D01*
X178134228Y-109933428D01*
X178019273Y-109925023D01*
X177911275Y-109890511D01*
X177813846Y-109831597D01*
X177730599Y-109749983D01*
X177665145Y-109647373D01*
X177652703Y-109621543D01*
X177633815Y-109576207D01*
X177623154Y-109534503D01*
X177618434Y-109485460D01*
X177617369Y-109418107D01*
X177617374Y-109417429D01*
X177976457Y-109417429D01*
X177982001Y-109458459D01*
X178008523Y-109513225D01*
X178051866Y-109550897D01*
X178107426Y-109569823D01*
X178161836Y-109563636D01*
X178212091Y-109528940D01*
X178239989Y-109492194D01*
X178257193Y-109433883D01*
X178247275Y-109374453D01*
X178210284Y-109319685D01*
X178179233Y-109292424D01*
X178149990Y-109281194D01*
X178111351Y-109283662D01*
X178068414Y-109298529D01*
X178022718Y-109331563D01*
X177989370Y-109373870D01*
X177976457Y-109417429D01*
X177617374Y-109417429D01*
X177617711Y-109371179D01*
X177620563Y-109319212D01*
X177628287Y-109279160D01*
X177643205Y-109240638D01*
X177667639Y-109193260D01*
X177675703Y-109178862D01*
X177748210Y-109079837D01*
X177835720Y-109003661D01*
X177934521Y-108950947D01*
X178040900Y-108922311D01*
X178151146Y-108918366D01*
X178261545Y-108939727D01*
X178368386Y-108987009D01*
X178467955Y-109060825D01*
X178529421Y-109129766D01*
X178585971Y-109229944D01*
X178618330Y-109340503D01*
X178623796Y-109433883D01*
X178625105Y-109456246D01*
X178604904Y-109571976D01*
X178588406Y-109627044D01*
X178700993Y-109734988D01*
X178732512Y-109765658D01*
X178766353Y-109798797D01*
X178796386Y-109826423D01*
X178825372Y-109849034D01*
X178856069Y-109867129D01*
X178891239Y-109881204D01*
X178933640Y-109891759D01*
X178986032Y-109899291D01*
X179051175Y-109904298D01*
X179131829Y-109907277D01*
X179230754Y-109908728D01*
X179350709Y-109909148D01*
X179494454Y-109909035D01*
X179664750Y-109908886D01*
X179777802Y-109908833D01*
X179931808Y-109908510D01*
X180060364Y-109907839D01*
X180165823Y-109906758D01*
X180250539Y-109905204D01*
X180316867Y-109903114D01*
X180367161Y-109900426D01*
X180403774Y-109897078D01*
X180429062Y-109893007D01*
X180445377Y-109888150D01*
X180447471Y-109887188D01*
X180475432Y-109868510D01*
X180519601Y-109833154D01*
X180575868Y-109784650D01*
X180640124Y-109726527D01*
X180708259Y-109662317D01*
X180740193Y-109631779D01*
X180833324Y-109545531D01*
X180913021Y-109477249D01*
X180983723Y-109423757D01*
X181049871Y-109381877D01*
X181115906Y-109348432D01*
X181186267Y-109320244D01*
X181281535Y-109285978D01*
X182750866Y-109281973D01*
X184220196Y-109277969D01*
X184220196Y-109065544D01*
X184220196Y-108853119D01*
X182553001Y-108857027D01*
X180885805Y-108860935D01*
X180807337Y-108902258D01*
X180791838Y-108911412D01*
X180744555Y-108945241D01*
X180684064Y-108994074D01*
X180615379Y-109053768D01*
X180543517Y-109120180D01*
X180531400Y-109131712D01*
X180449002Y-109209065D01*
X180382124Y-109269009D01*
X180326364Y-109314683D01*
X180277318Y-109349223D01*
X180230585Y-109375767D01*
X180181761Y-109397453D01*
X180126443Y-109417419D01*
X180056374Y-109435944D01*
X179948250Y-109451488D01*
X179834138Y-109456026D01*
X179724965Y-109449262D01*
X179631656Y-109430897D01*
X179622345Y-109428124D01*
X179580629Y-109415192D01*
X179542720Y-109401758D01*
X179506577Y-109386136D01*
X179470154Y-109366640D01*
X179431409Y-109341583D01*
X179388296Y-109309279D01*
X179338773Y-109268042D01*
X179280795Y-109216185D01*
X179212319Y-109152023D01*
X179131300Y-109073868D01*
X179035696Y-108980035D01*
X178923461Y-108868837D01*
X178792552Y-108738587D01*
X178723362Y-108669508D01*
X178616881Y-108562482D01*
X178517055Y-108461288D01*
X178425915Y-108368035D01*
X178345493Y-108284828D01*
X178277820Y-108213774D01*
X178224927Y-108156980D01*
X178188846Y-108116553D01*
X178171607Y-108094599D01*
X178143108Y-108039087D01*
X178109989Y-107951258D01*
X178087404Y-107861683D01*
X178079054Y-107782829D01*
X178079054Y-107711317D01*
X177906838Y-107707187D01*
X177734622Y-107703058D01*
X177734622Y-106105482D01*
X177734622Y-104507905D01*
X178082718Y-104503976D01*
X178430814Y-104500046D01*
X178430814Y-105152533D01*
X178430814Y-105805020D01*
X179046394Y-105805020D01*
X179661974Y-105805020D01*
X179661974Y-105152798D01*
X179661974Y-104500577D01*
X180021062Y-104500577D01*
X180380150Y-104500577D01*
X180380150Y-106105482D01*
X180380150Y-107710386D01*
X180021062Y-107710386D01*
X179661974Y-107710386D01*
X179661974Y-107058165D01*
X179661974Y-106405943D01*
X179046394Y-106405943D01*
X178430814Y-106405943D01*
X178431423Y-107083814D01*
X178431475Y-107133750D01*
X178431772Y-107286859D01*
X178432321Y-107414173D01*
X178433218Y-107518414D01*
X178434556Y-107602307D01*
X178436428Y-107668573D01*
X178438927Y-107719936D01*
X178442148Y-107759120D01*
X178446184Y-107788846D01*
X178451127Y-107811839D01*
X178457072Y-107830820D01*
X178461346Y-107841132D01*
X178472293Y-107860995D01*
X178489380Y-107885566D01*
X178514240Y-107916609D01*
X178548511Y-107955890D01*
X178593828Y-108005173D01*
X178651827Y-108066224D01*
X178724144Y-108140807D01*
X178812415Y-108230688D01*
X178918275Y-108337632D01*
X179043361Y-108463404D01*
X179105828Y-108526036D01*
X179233142Y-108653059D01*
X179341927Y-108760578D01*
X179433398Y-108849746D01*
X179508772Y-108921714D01*
X179569263Y-108977634D01*
X179616088Y-109018658D01*
X179650461Y-109045937D01*
X179673598Y-109060624D01*
X179685281Y-109065959D01*
X179766173Y-109088720D01*
X179858260Y-109096164D01*
X179949654Y-109088159D01*
X180028466Y-109064572D01*
X180042192Y-109057143D01*
X180086372Y-109026276D01*
X180145696Y-108978373D01*
X180216646Y-108916350D01*
X180295704Y-108843122D01*
X180299565Y-108839456D01*
X180382284Y-108762416D01*
X180450034Y-108702988D01*
X180507541Y-108657417D01*
X180559536Y-108621944D01*
X180610747Y-108592814D01*
X180633852Y-108580724D01*
X180661814Y-108566217D01*
X180688429Y-108553292D01*
X180715401Y-108541856D01*
X180744433Y-108531820D01*
X180777228Y-108523091D01*
X180815489Y-108515579D01*
X180860920Y-108509193D01*
X180915225Y-108503841D01*
X180980106Y-108499433D01*
X181057267Y-108495876D01*
X181148411Y-108493081D01*
X181255241Y-108490956D01*
X181379462Y-108489410D01*
X181522776Y-108488352D01*
X181686886Y-108487691D01*
X181873497Y-108487335D01*
X182084310Y-108487193D01*
X182321030Y-108487175D01*
X182585360Y-108487190D01*
X184220196Y-108487190D01*
X184220196Y-106385264D01*
X184220188Y-106130003D01*
X184220146Y-105864283D01*
X184220053Y-105625116D01*
X184219890Y-105411029D01*
X184219638Y-105220548D01*
X184219279Y-105052202D01*
X184218794Y-104904516D01*
X184218164Y-104776019D01*
X184217371Y-104665238D01*
X184216397Y-104570698D01*
X184215223Y-104490929D01*
X184213830Y-104424456D01*
X184212199Y-104369808D01*
X184210313Y-104325510D01*
X184208152Y-104290091D01*
X184205699Y-104262077D01*
X184202934Y-104239995D01*
X184199838Y-104222374D01*
X184196394Y-104207739D01*
X184192583Y-104194618D01*
X184152105Y-104090104D01*
X184094299Y-103995239D01*
X184015769Y-103909117D01*
X183948144Y-103854456D01*
X183832144Y-103790766D01*
X183704921Y-103752778D01*
X183694711Y-103751716D01*
X183653420Y-103749896D01*
X183583118Y-103748245D01*
X183484002Y-103746764D01*
X183356267Y-103745454D01*
X183200109Y-103744316D01*
X183015724Y-103743349D01*
X182803307Y-103742555D01*
X182563055Y-103741935D01*
X182295163Y-103741489D01*
X181999827Y-103741217D01*
X181677243Y-103741121D01*
X181327607Y-103741201D01*
X180951114Y-103741458D01*
X180547961Y-103741892D01*
X177470802Y-103745759D01*
X177371633Y-103792581D01*
X177294747Y-103835865D01*
X177195688Y-103913347D01*
X177111276Y-104005072D01*
X177048843Y-104103967D01*
X177001789Y-104200115D01*
X176997483Y-107263358D01*
X176997266Y-107414596D01*
X176996737Y-107762116D01*
X176996236Y-108082005D01*
X176995797Y-108375452D01*
X176995455Y-108643648D01*
X176995245Y-108887786D01*
X176995201Y-109109055D01*
X175354880Y-109109055D01*
X175348570Y-109091659D01*
X175347267Y-109017779D01*
X175368327Y-108946463D01*
X175410131Y-108884454D01*
X175471061Y-108838494D01*
X175477858Y-108835133D01*
X175495128Y-108827983D01*
X175515750Y-108822306D01*
X175542968Y-108817933D01*
X175580028Y-108814696D01*
X175630175Y-108812425D01*
X175696654Y-108810952D01*
X175782711Y-108810109D01*
X175891590Y-108809726D01*
X176026537Y-108809636D01*
X176525447Y-108809636D01*
X176525447Y-108180098D01*
X176525447Y-107550560D01*
X176006185Y-107546198D01*
X175886243Y-107545144D01*
X175771670Y-107543920D01*
X175680691Y-107542514D01*
X175610236Y-107540735D01*
X175557233Y-107538394D01*
X175518609Y-107535301D01*
X175491293Y-107531267D01*
X175472213Y-107526101D01*
X175458297Y-107519614D01*
X175446473Y-107511616D01*
X175433791Y-107501688D01*
X175376111Y-107438539D01*
X175345889Y-107367602D01*
X175343743Y-107291300D01*
X175370289Y-107212060D01*
X175373038Y-107206820D01*
X175413137Y-107151868D01*
X175469609Y-107113127D01*
X175485038Y-107105605D01*
X175503352Y-107098186D01*
X175524512Y-107092370D01*
X175551827Y-107087960D01*
X175588604Y-107084763D01*
X175638152Y-107082583D01*
X175703780Y-107081227D01*
X175788797Y-107080499D01*
X175896509Y-107080205D01*
X176030226Y-107080150D01*
X176525447Y-107080150D01*
X176525447Y-106442585D01*
X176525447Y-105805020D01*
X176030785Y-105804698D01*
X176024309Y-105804694D01*
X175890404Y-105804478D01*
X175782395Y-105803932D01*
X175697007Y-105802894D01*
X175630965Y-105801200D01*
X175580996Y-105798689D01*
X175543823Y-105795198D01*
X175516173Y-105790565D01*
X175494772Y-105784629D01*
X175476344Y-105777226D01*
X175415404Y-105739501D01*
X175368458Y-105681371D01*
X175344594Y-105605649D01*
X175343109Y-105556278D01*
X175362701Y-105482600D01*
X175405876Y-105418313D01*
X175469168Y-105369976D01*
X175486153Y-105361290D01*
X175503880Y-105353847D01*
X175524544Y-105348030D01*
X175551443Y-105343639D01*
X175587873Y-105340472D01*
X175637132Y-105338331D01*
X175702517Y-105337014D01*
X175787323Y-105336321D01*
X175894849Y-105336052D01*
X176028392Y-105336007D01*
X176523379Y-105336007D01*
X176528757Y-104746076D01*
X176529541Y-104661531D01*
X176530907Y-104528714D01*
X176532346Y-104420319D01*
X176534037Y-104333188D01*
X176536156Y-104264166D01*
X176538884Y-104210096D01*
X176542397Y-104167821D01*
X176546875Y-104134185D01*
X176552496Y-104106032D01*
X176559438Y-104080206D01*
X176567879Y-104053549D01*
X176605451Y-103954574D01*
X176689454Y-103795849D01*
X176796034Y-103654320D01*
X176923296Y-103531982D01*
X177069347Y-103430834D01*
X177232292Y-103352872D01*
X177353549Y-103306218D01*
X177998442Y-103298810D01*
X178643335Y-103291402D01*
X178650664Y-102739162D01*
X178651086Y-102707469D01*
X178652985Y-102571142D01*
X178654791Y-102460543D01*
X178656692Y-102372702D01*
X178658879Y-102304648D01*
X178661542Y-102253413D01*
X178664872Y-102216026D01*
X178669058Y-102189517D01*
X178674290Y-102170918D01*
X178680758Y-102157258D01*
X178688653Y-102145567D01*
X178695802Y-102136191D01*
X178754703Y-102078179D01*
X178820501Y-102047333D01*
X178896771Y-102041872D01*
X178963058Y-102054265D01*
X179026612Y-102087937D01*
X179082130Y-102146478D01*
X179084184Y-102149271D01*
X179091569Y-102160906D01*
X179097578Y-102175270D01*
X179102380Y-102195314D01*
X179106145Y-102223993D01*
X179109045Y-102264262D01*
X179111249Y-102319074D01*
X179112928Y-102391383D01*
X179114252Y-102484143D01*
X179115392Y-102600308D01*
X179116517Y-102742831D01*
X179120685Y-103298730D01*
X179743089Y-103298730D01*
X180365494Y-103298730D01*
X180365494Y-102766868D01*
X180365495Y-102730855D01*
X180365574Y-102598454D01*
X180365903Y-102491447D01*
X180366656Y-102406675D01*
X180368007Y-102340978D01*
X180370132Y-102291197D01*
X180373205Y-102254173D01*
X180377401Y-102226748D01*
X180382894Y-102205761D01*
X180389859Y-102188053D01*
X180398471Y-102170467D01*
X180410060Y-102149267D01*
X180455645Y-102091345D01*
X180513009Y-102057087D01*
X180588400Y-102042276D01*
X180666606Y-102047005D01*
X180739125Y-102076969D01*
X180797393Y-102132401D01*
X180798825Y-102134343D01*
X180806207Y-102145947D01*
X180812256Y-102160413D01*
X180817154Y-102180680D01*
X180821083Y-102209687D01*
X180824226Y-102250372D01*
X180826764Y-102305675D01*
X180828879Y-102378534D01*
X180830753Y-102471888D01*
X180832569Y-102588677D01*
X180834507Y-102731838D01*
X180841835Y-103291402D01*
X181461140Y-103291402D01*
X182080445Y-103291402D01*
X182084048Y-102739175D01*
X182084323Y-102697454D01*
X182085295Y-102563028D01*
X182086349Y-102454130D01*
X182087657Y-102367791D01*
X182089391Y-102301041D01*
X182091723Y-102250909D01*
X182094823Y-102214426D01*
X182098863Y-102188621D01*
X182104016Y-102170525D01*
X182110452Y-102157168D01*
X182118343Y-102145580D01*
X182119082Y-102144588D01*
X182180782Y-102085057D01*
X182256233Y-102050379D01*
X182341087Y-102042564D01*
X182409237Y-102054986D01*
X182471562Y-102088321D01*
X182526446Y-102146478D01*
X182528442Y-102149190D01*
X182535842Y-102160824D01*
X182541863Y-102175166D01*
X182546674Y-102195172D01*
X182550447Y-102223797D01*
X182553351Y-102263999D01*
X182555559Y-102318732D01*
X182557240Y-102390954D01*
X182558566Y-102483621D01*
X182559706Y-102599688D01*
X182560831Y-102742111D01*
X182564997Y-103297290D01*
X183198396Y-103302094D01*
X183831795Y-103306897D01*
X183937985Y-103345887D01*
X183966775Y-103356719D01*
X184095745Y-103413679D01*
X184205560Y-103478714D01*
X184304613Y-103556647D01*
X184361421Y-103610043D01*
X184467924Y-103731622D01*
X184552670Y-103864490D01*
X184620856Y-104016202D01*
X184625419Y-104028704D01*
X184632152Y-104050113D01*
X184637677Y-104074147D01*
X184642147Y-104103771D01*
X184645712Y-104141951D01*
X184648522Y-104191653D01*
X184650731Y-104255841D01*
X184652487Y-104337480D01*
X184653943Y-104439537D01*
X184655250Y-104564976D01*
X184656558Y-104716763D01*
X184661632Y-105336007D01*
X185162755Y-105336329D01*
X185200854Y-105336359D01*
X185329441Y-105336611D01*
X185432836Y-105337204D01*
X185514310Y-105338304D01*
X185577131Y-105340075D01*
X185624568Y-105342683D01*
X185659891Y-105346294D01*
X185686369Y-105351071D01*
X185707271Y-105357182D01*
X185725866Y-105364790D01*
X185752080Y-105378817D01*
X185807500Y-105428355D01*
X185842195Y-105491215D01*
X185855613Y-105561485D01*
X185847200Y-105633253D01*
X185816402Y-105700608D01*
X185762664Y-105757638D01*
X185710173Y-105797692D01*
X185185035Y-105801884D01*
X184659896Y-105806076D01*
X184659896Y-106385264D01*
X184659896Y-106442423D01*
G37*
D13*
X118601248Y-99315000D02*
X119123752Y-99315000D01*
X118601248Y-100785000D02*
X119123752Y-100785000D01*
X112800000Y-99050000D02*
X116460000Y-99050000D01*
X112800000Y-100950000D02*
X116460000Y-100950000D01*
X116460000Y-100950000D02*
X116460000Y-99050000D01*
X113540000Y-93040000D02*
X113540000Y-98560000D01*
X113940000Y-93040000D02*
X113540000Y-93040000D01*
X113940000Y-98560000D02*
X113540000Y-98560000D01*
X118660000Y-93040000D02*
X119060000Y-93040000D01*
X118660000Y-98560000D02*
X119060000Y-98560000D01*
X119060000Y-93040000D02*
X119060000Y-98560000D01*
X128050000Y-98965000D02*
X131050000Y-98965000D01*
X128050000Y-102185000D02*
X131050000Y-102185000D01*
X132050000Y-99285000D02*
X131570000Y-99285000D01*
X131570000Y-98805000D01*
X132050000Y-99285000D01*
G36*
X132050000Y-99285000D02*
G01*
X131570000Y-99285000D01*
X131570000Y-98805000D01*
X132050000Y-99285000D01*
G37*
X132265000Y-98538748D02*
X132265000Y-99061252D01*
X133735000Y-98538748D02*
X133735000Y-99061252D01*
X118062500Y-101590000D02*
X118862500Y-101590000D01*
X118062500Y-104710000D02*
X118862500Y-104710000D01*
X119662500Y-101590000D02*
X118862500Y-101590000D01*
X119662500Y-104710000D02*
X118862500Y-104710000D01*
X120162500Y-101640000D02*
X119922500Y-101310000D01*
X120402500Y-101310000D01*
X120162500Y-101640000D01*
G36*
X120162500Y-101640000D02*
G01*
X119922500Y-101310000D01*
X120402500Y-101310000D01*
X120162500Y-101640000D01*
G37*
X136585436Y-78265000D02*
X137039564Y-78265000D01*
X136585436Y-79735000D02*
X137039564Y-79735000D01*
D14*
X141800000Y-78610000D02*
X141900000Y-78610000D01*
X141800000Y-81530000D02*
X141800000Y-78610000D01*
X141900000Y-78610000D02*
X141900000Y-81530000D01*
X141900000Y-81530000D02*
X141800000Y-81530000D01*
X142250000Y-78490000D02*
X143550000Y-78490000D01*
%LPC*%
D16*
X190987500Y-87762500D03*
D17*
X194487500Y-87762500D03*
D18*
X165400000Y-77350000D03*
D19*
X162900000Y-77350000D03*
X160400000Y-77350000D03*
D16*
X190887500Y-96800000D03*
D17*
X194387500Y-96800000D03*
D18*
X153950000Y-77350000D03*
D19*
X151450000Y-77350000D03*
X148950000Y-77350000D03*
D20*
X129325000Y-87100000D03*
D21*
X131865000Y-87100000D03*
X129325000Y-89640000D03*
X131865000Y-89640000D03*
X129325000Y-92180000D03*
X131865000Y-92180000D03*
X129325000Y-94720000D03*
X131865000Y-94720000D03*
D18*
X107350000Y-81700000D03*
D19*
X107350000Y-84200000D03*
X107350000Y-86700000D03*
D22*
X196000000Y-74000000D03*
X104000000Y-74000000D03*
D18*
X176850000Y-77350000D03*
D19*
X174350000Y-77350000D03*
X171850000Y-77350000D03*
D20*
X125040000Y-112360000D03*
D21*
X125040000Y-114900000D03*
X122500000Y-112360000D03*
X122500000Y-114900000D03*
X119960000Y-112360000D03*
X119960000Y-114900000D03*
X117420000Y-112360000D03*
X117420000Y-114900000D03*
D18*
X188300000Y-77350000D03*
D19*
X185800000Y-77350000D03*
X183300000Y-77350000D03*
D22*
X104000000Y-116000000D03*
D16*
X143200000Y-95000000D03*
D17*
X146700000Y-95000000D03*
D22*
X196000000Y-116000000D03*
D23*
X118400000Y-81812500D03*
X118400000Y-75562500D03*
D24*
X113600000Y-78812500D03*
D23*
X130600000Y-81912500D03*
X130600000Y-75662500D03*
D24*
X125800000Y-78912500D03*
D25*
X106250000Y-102820000D03*
X106250000Y-108600000D03*
D26*
X106780000Y-101390000D03*
D27*
X102600000Y-101390000D03*
D26*
X106780000Y-110030000D03*
D27*
X102600000Y-110030000D03*
D20*
X135725000Y-112450000D03*
D21*
X135725000Y-114990000D03*
X133185000Y-112450000D03*
X133185000Y-114990000D03*
X130645000Y-112450000D03*
X130645000Y-114990000D03*
D28*
X137712500Y-81300000D03*
X135887500Y-81300000D03*
D29*
X115500000Y-104100000D03*
X115500000Y-102200000D03*
D30*
X132750000Y-101800000D03*
X134650000Y-101800000D03*
D31*
X114737500Y-91500000D03*
X117662500Y-91500000D03*
D32*
X134550000Y-83800000D03*
X137850000Y-83800000D03*
D33*
X125600000Y-99650000D03*
X125600000Y-101550000D03*
D34*
X120600000Y-91562500D03*
X120600000Y-88637500D03*
D35*
X102900000Y-93600000D03*
X102900000Y-96600000D03*
D36*
X104950000Y-97350000D03*
X104950000Y-94350000D03*
X104950000Y-92850000D03*
D37*
X104050000Y-98850000D03*
X104050000Y-91350000D03*
X101750000Y-91350000D03*
X101750000Y-98850000D03*
D38*
X112700000Y-91500000D03*
X110800000Y-91500000D03*
X112700000Y-88900000D03*
X110800000Y-88900000D03*
D29*
X135300000Y-99750000D03*
X135300000Y-97850000D03*
D39*
X120700000Y-97450000D03*
X120700000Y-94150000D03*
D29*
X137600000Y-99750000D03*
X137600000Y-97850000D03*
D30*
X114650000Y-88900000D03*
X116550000Y-88900000D03*
D40*
X143100000Y-114637500D03*
X141200000Y-114637500D03*
X142150000Y-112762500D03*
D28*
X176712500Y-92500000D03*
X174887500Y-92500000D03*
X176712500Y-94700000D03*
X174887500Y-94700000D03*
D32*
X136550000Y-88200000D03*
X139850000Y-88200000D03*
D38*
X119812500Y-100050000D03*
X117912500Y-100050000D03*
D41*
X115600000Y-100000000D03*
X112800000Y-100000000D03*
D42*
X116300000Y-97650000D03*
X116300000Y-93950000D03*
D43*
X131000000Y-99600000D03*
X131000000Y-100250000D03*
X131000000Y-100900000D03*
X131000000Y-101550000D03*
X128100000Y-101550000D03*
X128100000Y-100900000D03*
X128100000Y-100250000D03*
X128100000Y-99600000D03*
D44*
X129550000Y-100575000D03*
D29*
X133000000Y-99750000D03*
X133000000Y-97850000D03*
D45*
X120000000Y-102200000D03*
X120000000Y-103150000D03*
X120000000Y-104100000D03*
X117725000Y-104100000D03*
X117725000Y-103150000D03*
X117725000Y-102200000D03*
D28*
X137725000Y-79000000D03*
X135900000Y-79000000D03*
D46*
X142900000Y-79040000D03*
X142900000Y-81100000D03*
X140800000Y-80070000D03*
%LPD*%
D47*
X200000000Y-73200000D02*
X200000000Y-116800000D01*
X100000000Y-73200000D02*
X100000000Y-116800000D01*
X196800000Y-70000000D02*
X103200000Y-70000000D01*
X196800000Y-70000000D02*
G75*
G02*
X200000000Y-73200000I-100J-3200100D01*
G01*
X200000000Y-116800000D02*
G75*
G02*
X196800000Y-120000000I-3200000J0D01*
G01*
X100000000Y-73200000D02*
G75*
G02*
X103200000Y-70000000I3200000J0D01*
G01*
X103200000Y-120000000D02*
G75*
G02*
X100000000Y-116800000I0J3200000D01*
G01*
X103200000Y-120000000D02*
X196800000Y-120000000D01*
M02*
