%TF.GenerationSoftware,KiCad,Pcbnew,8.0.6*%
%TF.CreationDate,2026-01-03T17:25:48-08:00*%
%TF.ProjectId,USBPD_Board,55534250-445f-4426-9f61-72642e6b6963,A*%
%TF.SameCoordinates,PX5f5e100PY7270e00*%
%TF.FileFunction,Copper,L3,Inr*%
%TF.FilePolarity,Positive*%
%FSLAX46Y46*%
G04 Gerber Fmt 4.6, Leading zero omitted, Abs format (unit mm)*
G04 Created by KiCad (PCBNEW 8.0.6) date 2026-01-03 17:25:48*
%MOMM*%
%LPD*%
G01*
G04 APERTURE LIST*
%TA.AperFunction,ComponentPad*%
%ADD10R,1.200000X1.200000*%
%TD*%
%TA.AperFunction,ComponentPad*%
%ADD11C,1.200000*%
%TD*%
%TA.AperFunction,ComponentPad*%
%ADD12R,1.650000X1.650000*%
%TD*%
%TA.AperFunction,ComponentPad*%
%ADD13C,1.650000*%
%TD*%
%TA.AperFunction,ComponentPad*%
%ADD14R,1.700000X1.700000*%
%TD*%
%TA.AperFunction,ComponentPad*%
%ADD15O,1.700000X1.700000*%
%TD*%
%TA.AperFunction,ComponentPad*%
%ADD16C,6.400000*%
%TD*%
%TA.AperFunction,ComponentPad*%
%ADD17O,3.600000X1.400000*%
%TD*%
%TA.AperFunction,ComponentPad*%
%ADD18O,1.400000X3.600000*%
%TD*%
%TA.AperFunction,ComponentPad*%
%ADD19O,2.100000X1.000000*%
%TD*%
%TA.AperFunction,ComponentPad*%
%ADD20O,1.600000X1.000000*%
%TD*%
%TA.AperFunction,ViaPad*%
%ADD21C,0.700000*%
%TD*%
%TA.AperFunction,ViaPad*%
%ADD22C,0.800000*%
%TD*%
%TA.AperFunction,ViaPad*%
%ADD23C,0.900000*%
%TD*%
%TA.AperFunction,Conductor*%
%ADD24C,0.500000*%
%TD*%
%TA.AperFunction,Conductor*%
%ADD25C,0.150000*%
%TD*%
%TA.AperFunction,Profile*%
%ADD26C,0.050000*%
%TD*%
G04 APERTURE END LIST*
D10*
%TO.N,+VOUT_SMPS*%
%TO.C,C35*%
X90987500Y32237500D03*
D11*
%TO.N,GND*%
X94487500Y32237500D03*
%TD*%
D12*
%TO.N,+VOUT_SMPS*%
%TO.C,JST2*%
X65400000Y42650000D03*
D13*
%TO.N,GND*%
X62900000Y42650000D03*
%TO.N,/Interfaces/RST_BTN*%
X60400000Y42650000D03*
%TD*%
D10*
%TO.N,+VOUT_SMPS*%
%TO.C,C51*%
X90887500Y23200000D03*
D11*
%TO.N,GND*%
X94387500Y23200000D03*
%TD*%
D12*
%TO.N,+VOUT_SMPS*%
%TO.C,JST1*%
X53950000Y42650000D03*
D13*
%TO.N,GND*%
X51450000Y42650000D03*
%TO.N,/Interfaces/RST_BTN*%
X48950000Y42650000D03*
%TD*%
D14*
%TO.N,/Power_IO/CONN1+*%
%TO.C,J10*%
X29325000Y32900000D03*
D15*
%TO.N,/Power_IO/+VIN_S*%
X31865000Y32900000D03*
%TO.N,/Power_IO/CONN2+*%
X29325000Y30360000D03*
%TO.N,/Power_IO/+VIN_S*%
X31865000Y30360000D03*
%TO.N,/Power_IO/PWR+_PP*%
X29325000Y27820000D03*
%TO.N,/Power_IO/+VIN_S*%
X31865000Y27820000D03*
%TO.N,VBUS_PWR+*%
X29325000Y25280000D03*
%TO.N,/Power_IO/+VIN_S*%
X31865000Y25280000D03*
%TD*%
D12*
%TO.N,/Power_IO/PWR+*%
%TO.C,JST5*%
X7350000Y38300000D03*
D13*
%TO.N,GND*%
X7350000Y35800000D03*
X7350000Y33300000D03*
%TD*%
D16*
%TO.N,GND*%
%TO.C,H3*%
X96000000Y46000000D03*
%TD*%
%TO.N,GND*%
%TO.C,H1*%
X4000000Y46000000D03*
%TD*%
D12*
%TO.N,+VOUT_SMPS*%
%TO.C,JST3*%
X76850000Y42650000D03*
D13*
%TO.N,GND*%
X74350000Y42650000D03*
%TO.N,/Interfaces/RST_BTN*%
X71850000Y42650000D03*
%TD*%
D14*
%TO.N,+3.3V*%
%TO.C,J1*%
X25040000Y7640000D03*
D15*
%TO.N,/Interfaces/I{slash}O_HDR0*%
X25040000Y5100000D03*
%TO.N,GND*%
X22500000Y7640000D03*
%TO.N,/Interfaces/I{slash}O_HDR1*%
X22500000Y5100000D03*
%TO.N,GND*%
X19960000Y7640000D03*
%TO.N,/Interfaces/I{slash}O_HDR2*%
X19960000Y5100000D03*
%TO.N,GND*%
X17420000Y7640000D03*
%TO.N,/Interfaces/I{slash}O_HDR3*%
X17420000Y5100000D03*
%TD*%
D12*
%TO.N,+VOUT_SMPS*%
%TO.C,JST4*%
X88300000Y42650000D03*
D13*
%TO.N,GND*%
X85800000Y42650000D03*
%TO.N,/Interfaces/RST_BTN*%
X83300000Y42650000D03*
%TD*%
D16*
%TO.N,GND*%
%TO.C,H2*%
X4000000Y4000000D03*
%TD*%
D10*
%TO.N,+VIN_SMPS*%
%TO.C,C45*%
X43200000Y25000000D03*
D11*
%TO.N,GND*%
X46700000Y25000000D03*
%TD*%
D16*
%TO.N,GND*%
%TO.C,H4*%
X96000000Y4000000D03*
%TD*%
D17*
%TO.N,/Power_IO/CONN2+*%
%TO.C,CONN1*%
X18400000Y38187500D03*
%TO.N,GND*%
X18400000Y44437500D03*
D18*
X13600000Y41187500D03*
%TD*%
D17*
%TO.N,/Power_IO/CONN1+*%
%TO.C,CONN2*%
X30600000Y38087500D03*
%TO.N,GND*%
X30600000Y44337500D03*
D18*
X25800000Y41087500D03*
%TD*%
D19*
%TO.N,Net-(J3-SHIELD)*%
%TO.C,J3*%
X6780000Y18610000D03*
D20*
X2600000Y18610000D03*
D19*
X6780000Y9970000D03*
D20*
X2600000Y9970000D03*
%TD*%
D14*
%TO.N,/Interfaces/I2C1_SDA_HDR*%
%TO.C,J6*%
X35725000Y7550000D03*
D15*
%TO.N,GND*%
X35725000Y5010000D03*
X33185000Y7550000D03*
X33185000Y5010000D03*
%TO.N,/Interfaces/I2C1_SCL_HDR*%
X30645000Y7550000D03*
%TO.N,GND*%
X30645000Y5010000D03*
%TD*%
D21*
%TO.N,GND*%
X53400000Y20900000D03*
X5200000Y16400000D03*
X78300000Y31600000D03*
X61200000Y2200000D03*
X76600000Y11900000D03*
X82400000Y12600000D03*
D22*
X63800000Y18100000D03*
X98000000Y41000000D03*
D21*
X89300000Y4100000D03*
D22*
X86500000Y19500000D03*
D21*
X3900000Y12700000D03*
D22*
X86500000Y23500000D03*
D21*
X14400000Y33100000D03*
X49400000Y1900000D03*
X61400000Y19800000D03*
X16000000Y9700000D03*
D22*
X16800000Y33600000D03*
X44600000Y48300000D03*
D21*
X47200000Y1100000D03*
D22*
X98000000Y11000000D03*
D21*
X32300000Y11300000D03*
X78900000Y29300000D03*
X33700000Y16200000D03*
X1600000Y42000000D03*
D22*
X35800000Y24100000D03*
D21*
X72700000Y24300000D03*
D22*
X98000000Y36000000D03*
D21*
X86800000Y3500000D03*
X4400000Y11300000D03*
X10900000Y9300000D03*
D22*
X34400000Y26200000D03*
X96500000Y17000000D03*
D21*
X79400000Y24000000D03*
X35200000Y16400000D03*
D22*
X45000000Y42400000D03*
D21*
X65200000Y26400000D03*
X25700000Y10100000D03*
D22*
X39600000Y42600000D03*
D21*
X69200000Y23300000D03*
D22*
X98000000Y13500000D03*
D21*
X2900000Y22000000D03*
X82400000Y14000000D03*
X47400000Y34600000D03*
D22*
X51800000Y25700000D03*
D21*
X75900000Y29300000D03*
X56600000Y2200000D03*
X82400000Y15300000D03*
X83800000Y5200000D03*
D22*
X21700000Y17400000D03*
D21*
X39600000Y45700000D03*
D22*
X59400000Y19500000D03*
X74700000Y19200000D03*
D21*
X79400000Y2300000D03*
D22*
X86500000Y21500000D03*
D21*
X51100000Y2100000D03*
D22*
X96500000Y9500000D03*
D21*
X73900000Y32000000D03*
D22*
X6900000Y7900000D03*
D21*
X33800000Y9900000D03*
D22*
X14400000Y36500000D03*
X98000000Y21000000D03*
X86500000Y25500000D03*
D21*
X80900000Y11900000D03*
D22*
X54600000Y25700000D03*
D21*
X91200000Y2300000D03*
D22*
X86500000Y27500000D03*
D21*
X85200000Y2300000D03*
D22*
X96500000Y27000000D03*
D21*
X58900000Y2200000D03*
X77200000Y20500000D03*
D22*
X8000000Y6300000D03*
D21*
X38100000Y8600000D03*
X86400000Y5700000D03*
X54100000Y2200000D03*
D22*
X41900000Y48300000D03*
D21*
X65700000Y2200000D03*
X50900000Y37300000D03*
D22*
X8400000Y20300000D03*
D21*
X51800000Y22700000D03*
D22*
X98000000Y18500000D03*
X82000000Y30500000D03*
X98000000Y23500000D03*
X9700000Y9900000D03*
X67000000Y19800000D03*
D21*
X94000000Y7900000D03*
X74300000Y22300000D03*
X40000000Y1300000D03*
D22*
X9000000Y47500000D03*
D21*
X83500000Y13200000D03*
D22*
X96000000Y37500000D03*
D21*
X63500000Y2200000D03*
X78200000Y1600000D03*
X70400000Y2300000D03*
D22*
X59500000Y21100000D03*
D21*
X52700000Y3000000D03*
D22*
X31100000Y48800000D03*
X96000000Y40000000D03*
X37900000Y23900000D03*
D21*
X88400000Y2300000D03*
X60000000Y27100000D03*
X42100000Y1300000D03*
X74200000Y29300000D03*
D22*
X41300000Y44200000D03*
D21*
X77400000Y29300000D03*
D22*
X70700000Y19800000D03*
X37000000Y45500000D03*
D21*
X39500000Y5900000D03*
X13400000Y1100000D03*
D22*
X96500000Y12000000D03*
D21*
X83500000Y14500000D03*
X72900000Y2300000D03*
D22*
X34300000Y48700000D03*
X98000000Y28500000D03*
X14400000Y34800000D03*
D21*
X36500000Y10700000D03*
D22*
X34500000Y29700000D03*
D23*
X34500000Y28100000D03*
D21*
X45000000Y3000000D03*
X49100000Y17100000D03*
X40200000Y3600000D03*
X45500000Y37000000D03*
D22*
X21500000Y19200000D03*
D21*
X17500000Y10000000D03*
D22*
X96500000Y19500000D03*
D21*
X75400000Y32100000D03*
X77500000Y10900000D03*
X67350000Y28550000D03*
X49600000Y32400000D03*
X49300000Y18300000D03*
D22*
X39300000Y48300000D03*
X82800000Y32300000D03*
D21*
X71200000Y28000000D03*
X53500000Y10400000D03*
D22*
X98000000Y31000000D03*
D21*
X91500000Y5600000D03*
D22*
X96500000Y14500000D03*
D21*
X83500000Y11900000D03*
X78200000Y26400000D03*
D22*
X98000000Y38500000D03*
X47100000Y20300000D03*
D21*
X65150000Y28550000D03*
X2900000Y25000000D03*
X4000000Y17200000D03*
X11800000Y4300000D03*
X12100000Y23500000D03*
X46500000Y19100000D03*
X64400000Y20100000D03*
X80400000Y25300000D03*
D22*
X98000000Y16000000D03*
D21*
X49500000Y23200000D03*
X15200000Y1100000D03*
D22*
X98000000Y26000000D03*
D21*
X51200000Y35200000D03*
X30700000Y10700000D03*
X23000000Y15000000D03*
X82300000Y11200000D03*
X24500000Y17300000D03*
X68000000Y2200000D03*
D22*
X49400000Y21300000D03*
X98000000Y33500000D03*
X45000000Y44300000D03*
D21*
X54200000Y23000000D03*
D22*
X98000000Y8500000D03*
%TO.N,+5V*%
X18400000Y33400000D03*
D21*
X63200000Y19500000D03*
D22*
%TO.N,+VIN_SMPS*%
X41700000Y21200000D03*
X34700000Y15000000D03*
D21*
%TO.N,+3.3V*%
X72600000Y32500000D03*
D22*
X10200000Y8200000D03*
X30900000Y12300000D03*
X14400000Y2100000D03*
D21*
X78300000Y24800000D03*
%TO.N,/Interfaces/RST_BTN*%
X71700000Y25000000D03*
X15900000Y11000000D03*
D22*
%TO.N,+VOUT_SMPS*%
X88900000Y35700000D03*
X87300000Y34200000D03*
X90600000Y37200000D03*
X88900000Y37200000D03*
X87300000Y35700000D03*
X87300000Y37200000D03*
D21*
%TO.N,/Interfaces/I2C1_SDA_HDR*%
X37700000Y11400000D03*
D22*
X41200000Y2400000D03*
D21*
X23700000Y15900000D03*
X72200000Y29300000D03*
%TO.N,/Interfaces/I2C1_SCL_HDR*%
X47900000Y16200000D03*
X22600000Y13900000D03*
X35050000Y10450000D03*
X72300000Y27600000D03*
%TO.N,/USB/USB_D2+*%
X5300000Y14200000D03*
X5300000Y12500000D03*
D22*
%TO.N,VBUS_PWR+*%
X9600000Y11400000D03*
X10200000Y18900000D03*
D21*
%TO.N,/MCP19061/ISPIN*%
X50600000Y22300000D03*
X45900000Y1900000D03*
%TO.N,/MCP19061/ISNIN*%
X50000000Y3200000D03*
X53100000Y22200000D03*
%TO.N,/MCP19061/ISNOUT*%
X70300000Y23800000D03*
X91700000Y7000000D03*
%TO.N,/MCP19061/ISPOUT*%
X85200000Y4800000D03*
X72900000Y21800000D03*
%TO.N,/MCP19061/HG1*%
X52800000Y11700000D03*
X61700000Y27200000D03*
%TO.N,/MCP19061/HG2*%
X65500000Y23500000D03*
X78900000Y3600000D03*
%TO.N,/MCP19061/LG2*%
X76500000Y19500000D03*
X61700000Y23500000D03*
%TO.N,/Interfaces/I{slash}O_HDR0*%
X78200000Y30300000D03*
%TO.N,/Interfaces/I{slash}O_HDR1*%
X76900000Y31700000D03*
D22*
%TO.N,Net-(R2-Pad2)*%
X32900000Y47800000D03*
X38400000Y45000000D03*
%TO.N,/Power_IO/ONF_GATE*%
X38000000Y25300000D03*
%TO.N,/Power_IO/+VIN_S*%
X34500000Y31800000D03*
X34500000Y33200000D03*
%TD*%
D24*
%TO.N,+5V*%
X56200000Y28500000D02*
X56200000Y20100000D01*
X43800000Y35600000D02*
X49500000Y29900000D01*
X49500000Y29900000D02*
X54800000Y29900000D01*
X18400000Y33400000D02*
X20600000Y35600000D01*
X56200000Y20100000D02*
X58500000Y17800000D01*
X54800000Y29900000D02*
X56200000Y28500000D01*
X58500000Y17800000D02*
X61500000Y17800000D01*
X20600000Y35600000D02*
X43800000Y35600000D01*
X61500000Y17800000D02*
X63200000Y19500000D01*
%TO.N,+VIN_SMPS*%
X41700000Y18400000D02*
X41700000Y21200000D01*
X34700000Y15000000D02*
X38300000Y15000000D01*
X38300000Y15000000D02*
X41700000Y18400000D01*
D25*
%TO.N,/Interfaces/RST_BTN*%
X68300000Y31200000D02*
X70000000Y29500000D01*
X70000000Y26700000D02*
X71700000Y25000000D01*
X52300000Y31900000D02*
X56300000Y31900000D01*
X48950000Y42650000D02*
X48950000Y35250000D01*
X56300000Y31900000D02*
X57000000Y31200000D01*
X57000000Y31200000D02*
X68300000Y31200000D01*
X48950000Y35250000D02*
X52300000Y31900000D01*
X70000000Y29500000D02*
X70000000Y26700000D01*
%TO.N,/Interfaces/I2C1_SDA_HDR*%
X40800000Y14500000D02*
X37700000Y11400000D01*
X38200000Y3200000D02*
X38200000Y6700000D01*
X83600000Y26900000D02*
X83600000Y18500000D01*
X39000000Y2400000D02*
X38200000Y3200000D01*
X82100000Y28400000D02*
X83600000Y26900000D01*
X23700000Y15900000D02*
X31400000Y15900000D01*
X83600000Y18500000D02*
X79600000Y14500000D01*
X37350000Y7550000D02*
X35725000Y7550000D01*
X72200000Y29300000D02*
X73100000Y28400000D01*
X79600000Y14500000D02*
X40800000Y14500000D01*
X73100000Y28400000D02*
X82100000Y28400000D01*
X38200000Y6700000D02*
X37350000Y7550000D01*
X41200000Y2400000D02*
X39000000Y2400000D01*
X31400000Y15900000D02*
X35900000Y11400000D01*
X35900000Y11400000D02*
X37700000Y11400000D01*
%TO.N,/Interfaces/I2C1_SCL_HDR*%
X47900000Y16200000D02*
X48600000Y16200000D01*
X49300000Y15500000D02*
X79700000Y15500000D01*
X22600000Y13900000D02*
X23300000Y13900000D01*
X79700000Y15500000D02*
X82700000Y18500000D01*
X81500000Y27600000D02*
X72300000Y27600000D01*
X82700000Y18500000D02*
X82700000Y26400000D01*
X48600000Y16200000D02*
X49300000Y15500000D01*
X24500000Y15100000D02*
X30400000Y15100000D01*
X23300000Y13900000D02*
X24500000Y15100000D01*
X82700000Y26400000D02*
X81500000Y27600000D01*
X30400000Y15100000D02*
X35050000Y10450000D01*
%TO.N,/MCP19061/LG2*%
X75600000Y20400000D02*
X76500000Y19500000D01*
X61700000Y22400000D02*
X62400000Y21700000D01*
X71258058Y21700000D02*
X72558058Y20400000D01*
X72558058Y20400000D02*
X75600000Y20400000D01*
X62400000Y21700000D02*
X71258058Y21700000D01*
X61700000Y23500000D02*
X61700000Y22400000D01*
%TO.N,/Interfaces/I{slash}O_HDR0*%
X80600000Y44700000D02*
X78700000Y46600000D01*
X14000000Y23000000D02*
X16000000Y23000000D01*
X12400000Y47900000D02*
X10100000Y45600000D01*
X80600000Y31600000D02*
X80600000Y44700000D01*
X78700000Y46600000D02*
X29900000Y46600000D01*
X23700000Y6440000D02*
X25040000Y5100000D01*
X22700000Y11300000D02*
X23700000Y10300000D01*
X17000000Y14000000D02*
X19700000Y11300000D01*
X10100000Y45600000D02*
X10100000Y26900000D01*
X19700000Y11300000D02*
X22700000Y11300000D01*
X28600000Y47900000D02*
X12400000Y47900000D01*
X17000000Y22000000D02*
X17000000Y14000000D01*
X79300000Y30300000D02*
X80600000Y31600000D01*
X78200000Y30300000D02*
X79300000Y30300000D01*
X29900000Y46600000D02*
X28600000Y47900000D01*
X16000000Y23000000D02*
X17000000Y22000000D01*
X10100000Y26900000D02*
X14000000Y23000000D01*
X23700000Y10300000D02*
X23700000Y6440000D01*
%TO.N,/Interfaces/I{slash}O_HDR1*%
X79400000Y38300000D02*
X79400000Y43600000D01*
X27900000Y9700000D02*
X27900000Y3300000D01*
X24900000Y12700000D02*
X27900000Y9700000D01*
X22500000Y3400000D02*
X22500000Y5100000D01*
X11500000Y27800000D02*
X14900000Y24400000D01*
X40800000Y45500000D02*
X36300000Y41000000D01*
X18400000Y23100000D02*
X18400000Y14900000D01*
X18400000Y14900000D02*
X20600000Y12700000D01*
X17100000Y24400000D02*
X18400000Y23100000D01*
X20600000Y12700000D02*
X24900000Y12700000D01*
X30100000Y41000000D02*
X24500000Y46600000D01*
X77500000Y45500000D02*
X40800000Y45500000D01*
X76900000Y31700000D02*
X76900000Y35800000D01*
X36300000Y41000000D02*
X30100000Y41000000D01*
X24500000Y46600000D02*
X13700000Y46600000D01*
X14900000Y24400000D02*
X17100000Y24400000D01*
X27900000Y3300000D02*
X26700000Y2100000D01*
X76900000Y35800000D02*
X79400000Y38300000D01*
X26700000Y2100000D02*
X23800000Y2100000D01*
X11500000Y44400000D02*
X11500000Y27800000D01*
X23800000Y2100000D02*
X22500000Y3400000D01*
X13700000Y46600000D02*
X11500000Y44400000D01*
X79400000Y43600000D02*
X77500000Y45500000D01*
%TD*%
%TA.AperFunction,Conductor*%
%TO.N,GND*%
G36*
X32719075Y5202993D02*
G01*
X32685000Y5075826D01*
X32685000Y4944174D01*
X32719075Y4817007D01*
X32751988Y4760000D01*
X31078012Y4760000D01*
X31110925Y4817007D01*
X31145000Y4944174D01*
X31145000Y5075826D01*
X31110925Y5202993D01*
X31078012Y5260000D01*
X32751988Y5260000D01*
X32719075Y5202993D01*
G37*
%TD.AperFunction*%
%TA.AperFunction,Conductor*%
G36*
X35259075Y5202993D02*
G01*
X35225000Y5075826D01*
X35225000Y4944174D01*
X35259075Y4817007D01*
X35291988Y4760000D01*
X33618012Y4760000D01*
X33650925Y4817007D01*
X33685000Y4944174D01*
X33685000Y5075826D01*
X33650925Y5202993D01*
X33618012Y5260000D01*
X35291988Y5260000D01*
X35259075Y5202993D01*
G37*
%TD.AperFunction*%
%TA.AperFunction,Conductor*%
G36*
X33435000Y5443012D02*
G01*
X33377993Y5475925D01*
X33250826Y5510000D01*
X33119174Y5510000D01*
X32992007Y5475925D01*
X32935000Y5443012D01*
X32935000Y7116988D01*
X32992007Y7084075D01*
X33119174Y7050000D01*
X33250826Y7050000D01*
X33377993Y7084075D01*
X33435000Y7116988D01*
X33435000Y5443012D01*
G37*
%TD.AperFunction*%
%TA.AperFunction,Conductor*%
G36*
X19494075Y7832993D02*
G01*
X19460000Y7705826D01*
X19460000Y7574174D01*
X19494075Y7447007D01*
X19526988Y7390000D01*
X17853012Y7390000D01*
X17885925Y7447007D01*
X17920000Y7574174D01*
X17920000Y7705826D01*
X17885925Y7832993D01*
X17853012Y7890000D01*
X19526988Y7890000D01*
X19494075Y7832993D01*
G37*
%TD.AperFunction*%
%TA.AperFunction,Conductor*%
G36*
X22034075Y7832993D02*
G01*
X22000000Y7705826D01*
X22000000Y7574174D01*
X22034075Y7447007D01*
X22066988Y7390000D01*
X20393012Y7390000D01*
X20425925Y7447007D01*
X20460000Y7574174D01*
X20460000Y7705826D01*
X20425925Y7832993D01*
X20393012Y7890000D01*
X22066988Y7890000D01*
X22034075Y7832993D01*
G37*
%TD.AperFunction*%
%TA.AperFunction,Conductor*%
G36*
X94268745Y49479815D02*
G01*
X94314500Y49427011D01*
X94324444Y49357853D01*
X94295419Y49294297D01*
X94258001Y49265015D01*
X94147456Y49208690D01*
X93822206Y48997469D01*
X93564648Y48788905D01*
X93564648Y48788904D01*
X95059301Y47294252D01*
X94957670Y47220412D01*
X94779588Y47042330D01*
X94705748Y46940700D01*
X93211096Y48435352D01*
X93211095Y48435352D01*
X93002531Y48177794D01*
X92791310Y47852544D01*
X92615244Y47506995D01*
X92476262Y47144937D01*
X92375887Y46770331D01*
X92375886Y46770324D01*
X92315219Y46387288D01*
X92294922Y46000001D01*
X92294922Y46000000D01*
X92315219Y45612713D01*
X92375886Y45229677D01*
X92375887Y45229670D01*
X92476262Y44855064D01*
X92615244Y44493006D01*
X92791310Y44147457D01*
X93002531Y43822207D01*
X93211095Y43564650D01*
X93211096Y43564650D01*
X94705748Y45059302D01*
X94779588Y44957670D01*
X94957670Y44779588D01*
X95059300Y44705749D01*
X93564648Y43211097D01*
X93564649Y43211096D01*
X93822206Y43002532D01*
X94147456Y42791311D01*
X94493005Y42615245D01*
X94855063Y42476263D01*
X95229669Y42375888D01*
X95229676Y42375887D01*
X95612712Y42315220D01*
X95999999Y42294922D01*
X96000001Y42294922D01*
X96387287Y42315220D01*
X96770323Y42375887D01*
X96770330Y42375888D01*
X97144936Y42476263D01*
X97506994Y42615245D01*
X97852543Y42791311D01*
X98177783Y43002524D01*
X98177785Y43002525D01*
X98435349Y43211098D01*
X96940698Y44705749D01*
X97042330Y44779588D01*
X97220412Y44957670D01*
X97294251Y45059302D01*
X98788902Y43564651D01*
X98997475Y43822215D01*
X98997476Y43822217D01*
X99208691Y44147459D01*
X99208692Y44147462D01*
X99265015Y44258001D01*
X99312989Y44308798D01*
X99380810Y44325593D01*
X99446945Y44303056D01*
X99490397Y44248341D01*
X99499500Y44201707D01*
X99499500Y5798294D01*
X99479815Y5731255D01*
X99427011Y5685500D01*
X99357853Y5675556D01*
X99294297Y5704581D01*
X99265015Y5741999D01*
X99208689Y5852544D01*
X98997468Y6177794D01*
X98788904Y6435351D01*
X98788903Y6435352D01*
X97294251Y4940700D01*
X97220412Y5042330D01*
X97042330Y5220412D01*
X96940698Y5294252D01*
X98435350Y6788904D01*
X98435350Y6788905D01*
X98177793Y6997469D01*
X97852543Y7208690D01*
X97506994Y7384756D01*
X97144936Y7523738D01*
X96770330Y7624113D01*
X96770323Y7624114D01*
X96387287Y7684781D01*
X96000001Y7705078D01*
X95999999Y7705078D01*
X95612712Y7684781D01*
X95229676Y7624114D01*
X95229669Y7624113D01*
X94855063Y7523738D01*
X94493005Y7384756D01*
X94147456Y7208690D01*
X93822206Y6997469D01*
X93564648Y6788905D01*
X93564648Y6788904D01*
X95059301Y5294252D01*
X94957670Y5220412D01*
X94779588Y5042330D01*
X94705748Y4940700D01*
X93211096Y6435352D01*
X93211095Y6435352D01*
X93002531Y6177794D01*
X92791310Y5852544D01*
X92615244Y5506995D01*
X92476262Y5144937D01*
X92375887Y4770331D01*
X92375886Y4770324D01*
X92315219Y4387288D01*
X92294922Y4000001D01*
X92294922Y4000000D01*
X92315219Y3612713D01*
X92375886Y3229677D01*
X92375887Y3229670D01*
X92476262Y2855064D01*
X92615244Y2493006D01*
X92791310Y2147457D01*
X93002531Y1822207D01*
X93211095Y1564650D01*
X93211096Y1564650D01*
X94705748Y3059302D01*
X94779588Y2957670D01*
X94957670Y2779588D01*
X95059300Y2705749D01*
X93564648Y1211097D01*
X93564649Y1211096D01*
X93822206Y1002532D01*
X94147456Y791311D01*
X94258001Y734985D01*
X94308797Y687010D01*
X94325592Y619189D01*
X94303055Y553055D01*
X94248340Y509603D01*
X94201706Y500500D01*
X5798294Y500500D01*
X5731255Y520185D01*
X5685500Y572989D01*
X5675556Y642147D01*
X5704581Y705703D01*
X5741999Y734985D01*
X5852543Y791311D01*
X6177783Y1002524D01*
X6177785Y1002525D01*
X6435349Y1211098D01*
X4940698Y2705749D01*
X5042330Y2779588D01*
X5220412Y2957670D01*
X5294251Y3059302D01*
X6788902Y1564651D01*
X6997475Y1822215D01*
X6997476Y1822217D01*
X7177872Y2100003D01*
X13644751Y2100003D01*
X13644751Y2099998D01*
X13663685Y1931944D01*
X13719545Y1772306D01*
X13719547Y1772303D01*
X13809518Y1629116D01*
X13809523Y1629110D01*
X13929109Y1509524D01*
X13929115Y1509519D01*
X14072302Y1419548D01*
X14072305Y1419546D01*
X14072309Y1419545D01*
X14072310Y1419544D01*
X14144913Y1394140D01*
X14231943Y1363686D01*
X14399997Y1344751D01*
X14400000Y1344751D01*
X14400003Y1344751D01*
X14568056Y1363686D01*
X14568059Y1363687D01*
X14727690Y1419544D01*
X14727692Y1419546D01*
X14727694Y1419546D01*
X14727697Y1419548D01*
X14870884Y1509519D01*
X14870885Y1509520D01*
X14870890Y1509523D01*
X14990477Y1629110D01*
X15012203Y1663686D01*
X15080452Y1772303D01*
X15080454Y1772306D01*
X15080454Y1772308D01*
X15080456Y1772310D01*
X15136313Y1931941D01*
X15136313Y1931942D01*
X15136314Y1931944D01*
X15155249Y2099998D01*
X15155249Y2100003D01*
X15136314Y2268057D01*
X15105860Y2355087D01*
X15080456Y2427690D01*
X15080455Y2427691D01*
X15080454Y2427695D01*
X15080452Y2427698D01*
X14990481Y2570885D01*
X14990476Y2570891D01*
X14870890Y2690477D01*
X14870884Y2690482D01*
X14727697Y2780453D01*
X14727694Y2780455D01*
X14568056Y2836315D01*
X14400003Y2855249D01*
X14399997Y2855249D01*
X14231943Y2836315D01*
X14072305Y2780455D01*
X14072302Y2780453D01*
X13929115Y2690482D01*
X13929109Y2690477D01*
X13809523Y2570891D01*
X13809518Y2570885D01*
X13719547Y2427698D01*
X13719545Y2427695D01*
X13663685Y2268057D01*
X13644751Y2100003D01*
X7177872Y2100003D01*
X7208689Y2147457D01*
X7384755Y2493006D01*
X7523737Y2855064D01*
X7624112Y3229670D01*
X7624113Y3229677D01*
X7684780Y3612713D01*
X7705078Y4000000D01*
X7705078Y4000001D01*
X7684780Y4387288D01*
X7624113Y4770324D01*
X7624112Y4770331D01*
X7523737Y5144937D01*
X7384755Y5506995D01*
X7208689Y5852544D01*
X6997468Y6177794D01*
X6788904Y6435351D01*
X6788903Y6435352D01*
X5294251Y4940700D01*
X5220412Y5042330D01*
X5042330Y5220412D01*
X4940698Y5294252D01*
X6435350Y6788904D01*
X6435350Y6788905D01*
X6177793Y6997469D01*
X5852543Y7208690D01*
X5506994Y7384756D01*
X5144936Y7523738D01*
X4770330Y7624113D01*
X4770323Y7624114D01*
X4387287Y7684781D01*
X4000001Y7705078D01*
X3999999Y7705078D01*
X3612712Y7684781D01*
X3229676Y7624114D01*
X3229669Y7624113D01*
X2855063Y7523738D01*
X2493005Y7384756D01*
X2147456Y7208690D01*
X1822206Y6997469D01*
X1564648Y6788905D01*
X1564648Y6788904D01*
X3059301Y5294252D01*
X2957670Y5220412D01*
X2779588Y5042330D01*
X2705748Y4940699D01*
X1211096Y6435352D01*
X1211095Y6435352D01*
X1002531Y6177794D01*
X791310Y5852544D01*
X734985Y5741999D01*
X687010Y5691203D01*
X619189Y5674408D01*
X553055Y5696945D01*
X509603Y5751660D01*
X500500Y5798294D01*
X500500Y8200003D01*
X9444751Y8200003D01*
X9444751Y8199998D01*
X9463685Y8031944D01*
X9519545Y7872306D01*
X9519547Y7872303D01*
X9609518Y7729116D01*
X9609523Y7729110D01*
X9729109Y7609524D01*
X9729115Y7609519D01*
X9872302Y7519548D01*
X9872305Y7519546D01*
X9872309Y7519545D01*
X9872310Y7519544D01*
X9888154Y7514000D01*
X10031943Y7463686D01*
X10199997Y7444751D01*
X10200000Y7444751D01*
X10200003Y7444751D01*
X10368056Y7463686D01*
X10380182Y7467929D01*
X10527690Y7519544D01*
X10527692Y7519546D01*
X10527694Y7519546D01*
X10527697Y7519548D01*
X10670884Y7609519D01*
X10670885Y7609520D01*
X10670890Y7609523D01*
X10790477Y7729110D01*
X10790481Y7729116D01*
X10880452Y7872303D01*
X10880454Y7872306D01*
X10880454Y7872308D01*
X10880456Y7872310D01*
X10936313Y8031941D01*
X10936313Y8031942D01*
X10936314Y8031944D01*
X10955249Y8199998D01*
X10955249Y8200003D01*
X10936314Y8368057D01*
X10880454Y8527695D01*
X10880452Y8527698D01*
X10790481Y8670885D01*
X10790476Y8670891D01*
X10670890Y8790477D01*
X10670884Y8790482D01*
X10527697Y8880453D01*
X10527694Y8880455D01*
X10368056Y8936315D01*
X10200003Y8955249D01*
X10199997Y8955249D01*
X10031943Y8936315D01*
X9872305Y8880455D01*
X9872302Y8880453D01*
X9729115Y8790482D01*
X9729109Y8790477D01*
X9609523Y8670891D01*
X9609518Y8670885D01*
X9519547Y8527698D01*
X9519545Y8527695D01*
X9463685Y8368057D01*
X9444751Y8200003D01*
X500500Y8200003D01*
X500500Y10053772D01*
X1449500Y10053772D01*
X1449500Y9886229D01*
X1482182Y9721926D01*
X1482184Y9721918D01*
X1546295Y9567140D01*
X1639373Y9427838D01*
X1757837Y9309374D01*
X1850494Y9247463D01*
X1897137Y9216297D01*
X2051918Y9152184D01*
X2216228Y9119501D01*
X2216232Y9119500D01*
X2216233Y9119500D01*
X2983768Y9119500D01*
X2983769Y9119501D01*
X3148082Y9152184D01*
X3302863Y9216297D01*
X3442162Y9309374D01*
X3560626Y9427838D01*
X3653703Y9567137D01*
X3717816Y9721918D01*
X3750500Y9886233D01*
X3750500Y10053767D01*
X3717816Y10218082D01*
X3660681Y10356016D01*
X3653704Y10372861D01*
X3560626Y10512163D01*
X3442162Y10630627D01*
X3302860Y10723705D01*
X3148082Y10787816D01*
X3148074Y10787818D01*
X2983771Y10820500D01*
X2983767Y10820500D01*
X2216233Y10820500D01*
X2216228Y10820500D01*
X2051925Y10787818D01*
X2051917Y10787816D01*
X1897139Y10723705D01*
X1757837Y10630627D01*
X1639373Y10512163D01*
X1546295Y10372861D01*
X1482184Y10218083D01*
X1482182Y10218075D01*
X1449500Y10053772D01*
X500500Y10053772D01*
X500500Y12500000D01*
X4594355Y12500000D01*
X4614859Y12331131D01*
X4614860Y12331126D01*
X4675182Y12172069D01*
X4699862Y12136315D01*
X4771817Y12032071D01*
X4877505Y11938440D01*
X4899150Y11919264D01*
X5040296Y11845185D01*
X5049775Y11840210D01*
X5214944Y11799500D01*
X5385056Y11799500D01*
X5550225Y11840210D01*
X5586381Y11859187D01*
X5654887Y11872912D01*
X5719940Y11847421D01*
X5760885Y11790805D01*
X5764722Y11721041D01*
X5751393Y11687390D01*
X5713720Y11622139D01*
X5713720Y11622138D01*
X5713720Y11622137D01*
X5713719Y11622135D01*
X5674500Y11475766D01*
X5674500Y11324235D01*
X5713719Y11177864D01*
X5737847Y11136074D01*
X5789485Y11046635D01*
X5789487Y11046633D01*
X5897636Y10938484D01*
X5931121Y10877161D01*
X5926137Y10807469D01*
X5884265Y10751536D01*
X5857408Y10736242D01*
X5827139Y10723705D01*
X5687837Y10630627D01*
X5569373Y10512163D01*
X5476295Y10372861D01*
X5412184Y10218083D01*
X5412182Y10218075D01*
X5379500Y10053772D01*
X5379500Y9886229D01*
X5412182Y9721926D01*
X5412184Y9721918D01*
X5476295Y9567140D01*
X5569373Y9427838D01*
X5687837Y9309374D01*
X5780494Y9247463D01*
X5827137Y9216297D01*
X5981918Y9152184D01*
X6146228Y9119501D01*
X6146232Y9119500D01*
X6146233Y9119500D01*
X7413768Y9119500D01*
X7413769Y9119501D01*
X7578082Y9152184D01*
X7732863Y9216297D01*
X7872162Y9309374D01*
X7990626Y9427838D01*
X8083703Y9567137D01*
X8147816Y9721918D01*
X8180500Y9886233D01*
X8180500Y10053767D01*
X8147816Y10218082D01*
X8090681Y10356016D01*
X8083704Y10372861D01*
X7990626Y10512163D01*
X7872162Y10630627D01*
X7732860Y10723705D01*
X7578082Y10787816D01*
X7578074Y10787818D01*
X7413771Y10820500D01*
X7413767Y10820500D01*
X6783742Y10820500D01*
X6716703Y10840185D01*
X6670948Y10892989D01*
X6661004Y10962147D01*
X6690029Y11025703D01*
X6696061Y11032181D01*
X6702617Y11038737D01*
X6710515Y11046635D01*
X6786281Y11177865D01*
X6825500Y11324234D01*
X6825500Y11400003D01*
X8844751Y11400003D01*
X8844751Y11399998D01*
X8863685Y11231944D01*
X8919545Y11072306D01*
X8919547Y11072303D01*
X9009518Y10929116D01*
X9009523Y10929110D01*
X9129109Y10809524D01*
X9129115Y10809519D01*
X9272302Y10719548D01*
X9272305Y10719546D01*
X9272309Y10719545D01*
X9272310Y10719544D01*
X9329593Y10699500D01*
X9431943Y10663686D01*
X9599997Y10644751D01*
X9600000Y10644751D01*
X9600003Y10644751D01*
X9768056Y10663686D01*
X9768059Y10663687D01*
X9927690Y10719544D01*
X9927692Y10719546D01*
X9927694Y10719546D01*
X9927697Y10719548D01*
X10070884Y10809519D01*
X10070885Y10809520D01*
X10070890Y10809523D01*
X10190477Y10929110D01*
X10221647Y10978716D01*
X10235021Y11000000D01*
X15194355Y11000000D01*
X15214859Y10831131D01*
X15214860Y10831126D01*
X15275182Y10672069D01*
X15337475Y10581823D01*
X15371817Y10532071D01*
X15477505Y10438440D01*
X15499150Y10419264D01*
X15649773Y10340211D01*
X15649775Y10340210D01*
X15814944Y10299500D01*
X15985056Y10299500D01*
X16150225Y10340210D01*
X16229692Y10381919D01*
X16300849Y10419264D01*
X16300850Y10419266D01*
X16300852Y10419266D01*
X16428183Y10532071D01*
X16524818Y10672070D01*
X16585140Y10831128D01*
X16605645Y11000000D01*
X16585140Y11168872D01*
X16581729Y11177865D01*
X16532897Y11306626D01*
X16524818Y11327930D01*
X16428183Y11467929D01*
X16320094Y11563687D01*
X16300849Y11580737D01*
X16150226Y11659790D01*
X15985056Y11700500D01*
X15814944Y11700500D01*
X15649773Y11659790D01*
X15499150Y11580737D01*
X15371816Y11467928D01*
X15275182Y11327932D01*
X15214860Y11168875D01*
X15214859Y11168870D01*
X15194355Y11000000D01*
X10235021Y11000000D01*
X10280452Y11072303D01*
X10280454Y11072306D01*
X10280454Y11072308D01*
X10280456Y11072310D01*
X10336313Y11231941D01*
X10336313Y11231942D01*
X10336314Y11231944D01*
X10355249Y11399998D01*
X10355249Y11400003D01*
X10336314Y11568057D01*
X10299500Y11673266D01*
X10280456Y11727690D01*
X10280455Y11727691D01*
X10280454Y11727695D01*
X10280452Y11727698D01*
X10190481Y11870885D01*
X10190476Y11870891D01*
X10070890Y11990477D01*
X10070884Y11990482D01*
X9927697Y12080453D01*
X9927694Y12080455D01*
X9768056Y12136315D01*
X9600003Y12155249D01*
X9599997Y12155249D01*
X9431943Y12136315D01*
X9272305Y12080455D01*
X9272302Y12080453D01*
X9129115Y11990482D01*
X9129109Y11990477D01*
X9009523Y11870891D01*
X9009518Y11870885D01*
X8919547Y11727698D01*
X8919545Y11727695D01*
X8863685Y11568057D01*
X8844751Y11400003D01*
X6825500Y11400003D01*
X6825500Y11475766D01*
X6786281Y11622135D01*
X6710515Y11753365D01*
X6603365Y11860515D01*
X6537750Y11898398D01*
X6472136Y11936281D01*
X6398950Y11955891D01*
X6325766Y11975500D01*
X6174234Y11975500D01*
X6027420Y11936162D01*
X5957570Y11937825D01*
X5899708Y11976988D01*
X5872204Y12041217D01*
X5883791Y12110119D01*
X5893269Y12126365D01*
X5924818Y12172070D01*
X5985140Y12331128D01*
X6005645Y12500000D01*
X5985140Y12668872D01*
X5924818Y12827930D01*
X5828183Y12967929D01*
X5700852Y13080734D01*
X5700849Y13080737D01*
X5550226Y13159790D01*
X5385056Y13200500D01*
X5214944Y13200500D01*
X5049773Y13159790D01*
X4899150Y13080737D01*
X4771816Y12967928D01*
X4675182Y12827932D01*
X4614860Y12668875D01*
X4614859Y12668870D01*
X4594355Y12500000D01*
X500500Y12500000D01*
X500500Y14200000D01*
X4594355Y14200000D01*
X4614859Y14031131D01*
X4614860Y14031126D01*
X4675182Y13872069D01*
X4700242Y13835764D01*
X4771817Y13732071D01*
X4877505Y13638440D01*
X4899150Y13619264D01*
X5049773Y13540211D01*
X5049775Y13540210D01*
X5214944Y13499500D01*
X5385056Y13499500D01*
X5550225Y13540210D01*
X5629692Y13581919D01*
X5700849Y13619264D01*
X5700850Y13619266D01*
X5700852Y13619266D01*
X5828183Y13732071D01*
X5924818Y13872070D01*
X5985140Y14031128D01*
X6005645Y14200000D01*
X5985140Y14368872D01*
X5973524Y14399500D01*
X5942716Y14480737D01*
X5924818Y14527930D01*
X5924003Y14529110D01*
X5853475Y14631287D01*
X5828183Y14667929D01*
X5700852Y14780734D01*
X5700849Y14780737D01*
X5550226Y14859790D01*
X5385056Y14900500D01*
X5214944Y14900500D01*
X5049773Y14859790D01*
X4899150Y14780737D01*
X4771816Y14667928D01*
X4675182Y14527932D01*
X4614860Y14368875D01*
X4614859Y14368870D01*
X4594355Y14200000D01*
X500500Y14200000D01*
X500500Y18693772D01*
X1449500Y18693772D01*
X1449500Y18526229D01*
X1482182Y18361926D01*
X1482184Y18361918D01*
X1546295Y18207140D01*
X1639373Y18067838D01*
X1757837Y17949374D01*
X1850494Y17887463D01*
X1897137Y17856297D01*
X2051918Y17792184D01*
X2216228Y17759501D01*
X2216232Y17759500D01*
X2216233Y17759500D01*
X2983768Y17759500D01*
X2983769Y17759501D01*
X3148082Y17792184D01*
X3302863Y17856297D01*
X3442162Y17949374D01*
X3560626Y18067838D01*
X3653703Y18207137D01*
X3717816Y18361918D01*
X3750500Y18526233D01*
X3750500Y18693767D01*
X3750499Y18693772D01*
X5379500Y18693772D01*
X5379500Y18526229D01*
X5412182Y18361926D01*
X5412184Y18361918D01*
X5476295Y18207140D01*
X5569373Y18067838D01*
X5687837Y17949374D01*
X5780494Y17887463D01*
X5827137Y17856297D01*
X5857406Y17843759D01*
X5911810Y17799920D01*
X5933876Y17733626D01*
X5916598Y17665927D01*
X5897637Y17641517D01*
X5789485Y17533365D01*
X5713719Y17402137D01*
X5674500Y17255766D01*
X5674500Y17104235D01*
X5713719Y16957864D01*
X5746839Y16900500D01*
X5789485Y16826635D01*
X5896635Y16719485D01*
X6027865Y16643719D01*
X6174234Y16604500D01*
X6174236Y16604500D01*
X6325764Y16604500D01*
X6325766Y16604500D01*
X6472135Y16643719D01*
X6603365Y16719485D01*
X6710515Y16826635D01*
X6786281Y16957865D01*
X6825500Y17104234D01*
X6825500Y17255766D01*
X6786281Y17402135D01*
X6710515Y17533365D01*
X6696061Y17547819D01*
X6662576Y17609142D01*
X6667560Y17678834D01*
X6709432Y17734767D01*
X6774896Y17759184D01*
X6783742Y17759500D01*
X7413768Y17759500D01*
X7413769Y17759501D01*
X7578082Y17792184D01*
X7732863Y17856297D01*
X7872162Y17949374D01*
X7990626Y18067838D01*
X8083703Y18207137D01*
X8147816Y18361918D01*
X8180500Y18526233D01*
X8180500Y18693767D01*
X8147816Y18858082D01*
X8130452Y18900003D01*
X9444751Y18900003D01*
X9444751Y18899998D01*
X9463685Y18731944D01*
X9519545Y18572306D01*
X9519547Y18572303D01*
X9609518Y18429116D01*
X9609523Y18429110D01*
X9729109Y18309524D01*
X9729115Y18309519D01*
X9872302Y18219548D01*
X9872305Y18219546D01*
X9872309Y18219545D01*
X9872310Y18219544D01*
X9944913Y18194140D01*
X10031943Y18163686D01*
X10199997Y18144751D01*
X10200000Y18144751D01*
X10200003Y18144751D01*
X10368056Y18163686D01*
X10380991Y18168212D01*
X10527690Y18219544D01*
X10527692Y18219546D01*
X10527694Y18219546D01*
X10527697Y18219548D01*
X10670884Y18309519D01*
X10670885Y18309520D01*
X10670890Y18309523D01*
X10790477Y18429110D01*
X10821861Y18479057D01*
X10880452Y18572303D01*
X10880454Y18572306D01*
X10880454Y18572308D01*
X10880456Y18572310D01*
X10936313Y18731941D01*
X10936313Y18731942D01*
X10936314Y18731944D01*
X10955249Y18899998D01*
X10955249Y18900003D01*
X10936314Y19068057D01*
X10905860Y19155087D01*
X10880456Y19227690D01*
X10880455Y19227691D01*
X10880454Y19227695D01*
X10880452Y19227698D01*
X10790481Y19370885D01*
X10790476Y19370891D01*
X10670890Y19490477D01*
X10670884Y19490482D01*
X10527697Y19580453D01*
X10527694Y19580455D01*
X10368056Y19636315D01*
X10200003Y19655249D01*
X10199997Y19655249D01*
X10031943Y19636315D01*
X9872305Y19580455D01*
X9872302Y19580453D01*
X9729115Y19490482D01*
X9729109Y19490477D01*
X9609523Y19370891D01*
X9609518Y19370885D01*
X9519547Y19227698D01*
X9519545Y19227695D01*
X9463685Y19068057D01*
X9444751Y18900003D01*
X8130452Y18900003D01*
X8083703Y19012863D01*
X8046822Y19068059D01*
X7990626Y19152163D01*
X7872162Y19270627D01*
X7732860Y19363705D01*
X7578082Y19427816D01*
X7578074Y19427818D01*
X7413771Y19460500D01*
X7413767Y19460500D01*
X6146233Y19460500D01*
X6146228Y19460500D01*
X5981925Y19427818D01*
X5981917Y19427816D01*
X5827139Y19363705D01*
X5687837Y19270627D01*
X5569373Y19152163D01*
X5476295Y19012861D01*
X5412184Y18858083D01*
X5412182Y18858075D01*
X5379500Y18693772D01*
X3750499Y18693772D01*
X3717816Y18858082D01*
X3653703Y19012863D01*
X3616822Y19068059D01*
X3560626Y19152163D01*
X3442162Y19270627D01*
X3302860Y19363705D01*
X3148082Y19427816D01*
X3148074Y19427818D01*
X2983771Y19460500D01*
X2983767Y19460500D01*
X2216233Y19460500D01*
X2216228Y19460500D01*
X2051925Y19427818D01*
X2051917Y19427816D01*
X1897139Y19363705D01*
X1757837Y19270627D01*
X1639373Y19152163D01*
X1546295Y19012861D01*
X1482184Y18858083D01*
X1482182Y18858075D01*
X1449500Y18693772D01*
X500500Y18693772D01*
X500500Y23331005D01*
X2199499Y23331005D01*
X2226418Y23195678D01*
X2226421Y23195668D01*
X2279221Y23068196D01*
X2279228Y23068183D01*
X2355885Y22953459D01*
X2355888Y22953455D01*
X2453454Y22855889D01*
X2453458Y22855886D01*
X2568182Y22779229D01*
X2568195Y22779222D01*
X2695667Y22726422D01*
X2695672Y22726420D01*
X2695676Y22726420D01*
X2695677Y22726419D01*
X2831004Y22699500D01*
X2831007Y22699500D01*
X2968995Y22699500D01*
X3060041Y22717611D01*
X3104328Y22726420D01*
X3231811Y22779225D01*
X3346542Y22855886D01*
X3444114Y22953458D01*
X3520775Y23068189D01*
X3573580Y23195672D01*
X3600500Y23331007D01*
X3600500Y23468993D01*
X3600500Y23468996D01*
X3573581Y23604323D01*
X3573580Y23604324D01*
X3573580Y23604328D01*
X3573578Y23604333D01*
X3520778Y23731805D01*
X3520771Y23731818D01*
X3444114Y23846542D01*
X3444111Y23846546D01*
X3346545Y23944112D01*
X3346541Y23944115D01*
X3231817Y24020772D01*
X3231804Y24020779D01*
X3104332Y24073579D01*
X3104322Y24073582D01*
X2968995Y24100500D01*
X2968993Y24100500D01*
X2831007Y24100500D01*
X2831005Y24100500D01*
X2695677Y24073582D01*
X2695667Y24073579D01*
X2568195Y24020779D01*
X2568182Y24020772D01*
X2453458Y23944115D01*
X2453454Y23944112D01*
X2355888Y23846546D01*
X2355885Y23846542D01*
X2279228Y23731818D01*
X2279221Y23731805D01*
X2226421Y23604333D01*
X2226418Y23604323D01*
X2199500Y23468996D01*
X2199500Y23468993D01*
X2199500Y23331007D01*
X2199500Y23331005D01*
X2199499Y23331005D01*
X500500Y23331005D01*
X500500Y26331005D01*
X2199499Y26331005D01*
X2226418Y26195678D01*
X2226421Y26195668D01*
X2279221Y26068196D01*
X2279228Y26068183D01*
X2355885Y25953459D01*
X2355888Y25953455D01*
X2453454Y25855889D01*
X2453458Y25855886D01*
X2568182Y25779229D01*
X2568195Y25779222D01*
X2695667Y25726422D01*
X2695672Y25726420D01*
X2695676Y25726420D01*
X2695677Y25726419D01*
X2831004Y25699500D01*
X2831007Y25699500D01*
X2968995Y25699500D01*
X3060041Y25717611D01*
X3104328Y25726420D01*
X3211676Y25770885D01*
X3231804Y25779222D01*
X3231804Y25779223D01*
X3231811Y25779225D01*
X3346542Y25855886D01*
X3444114Y25953458D01*
X3520775Y26068189D01*
X3573580Y26195672D01*
X3600500Y26331007D01*
X3600500Y26468993D01*
X3600500Y26468996D01*
X3573581Y26604323D01*
X3573580Y26604324D01*
X3573580Y26604328D01*
X3567393Y26619264D01*
X3520778Y26731805D01*
X3520771Y26731818D01*
X3444114Y26846542D01*
X3444111Y26846546D01*
X3346545Y26944112D01*
X3346541Y26944115D01*
X3231817Y27020772D01*
X3231804Y27020779D01*
X3104332Y27073579D01*
X3104322Y27073582D01*
X2968995Y27100500D01*
X2968993Y27100500D01*
X2831007Y27100500D01*
X2831005Y27100500D01*
X2695677Y27073582D01*
X2695667Y27073579D01*
X2568195Y27020779D01*
X2568182Y27020772D01*
X2453458Y26944115D01*
X2453454Y26944112D01*
X2355888Y26846546D01*
X2355885Y26846542D01*
X2279228Y26731818D01*
X2279221Y26731805D01*
X2226421Y26604333D01*
X2226418Y26604323D01*
X2199500Y26468996D01*
X2199500Y26468993D01*
X2199500Y26331007D01*
X2199500Y26331005D01*
X2199499Y26331005D01*
X500500Y26331005D01*
X500500Y35800001D01*
X6019939Y35800001D01*
X6019939Y35800000D01*
X6040145Y35569042D01*
X6040147Y35569032D01*
X6100148Y35345100D01*
X6100152Y35345091D01*
X6198133Y35134970D01*
X6253023Y35056578D01*
X6826212Y35629767D01*
X6837482Y35587708D01*
X6909890Y35462292D01*
X7012292Y35359890D01*
X7137708Y35287482D01*
X7179765Y35276213D01*
X6606576Y34703025D01*
X6680054Y34651575D01*
X6723679Y34596998D01*
X6730871Y34527499D01*
X6699349Y34465145D01*
X6680052Y34448424D01*
X6606576Y34396978D01*
X7179766Y33823788D01*
X7137708Y33812518D01*
X7012292Y33740110D01*
X6909890Y33637708D01*
X6837482Y33512292D01*
X6826212Y33470234D01*
X6253022Y34043424D01*
X6198134Y33965033D01*
X6100152Y33754910D01*
X6100148Y33754901D01*
X6040147Y33530969D01*
X6040145Y33530959D01*
X6019939Y33300001D01*
X6019939Y33300000D01*
X6040145Y33069042D01*
X6040147Y33069032D01*
X6100148Y32845100D01*
X6100152Y32845091D01*
X6198133Y32634970D01*
X6253023Y32556578D01*
X6826212Y33129767D01*
X6837482Y33087708D01*
X6909890Y32962292D01*
X7012292Y32859890D01*
X7137708Y32787482D01*
X7179765Y32776213D01*
X6606576Y32203025D01*
X6684969Y32148133D01*
X6895090Y32050153D01*
X6895099Y32050149D01*
X7119031Y31990148D01*
X7119041Y31990146D01*
X7349999Y31969939D01*
X7350001Y31969939D01*
X7580958Y31990146D01*
X7580968Y31990148D01*
X7804900Y32050149D01*
X7804909Y32050153D01*
X8015030Y32148133D01*
X8015034Y32148135D01*
X8093422Y32203024D01*
X8093422Y32203025D01*
X7520235Y32776213D01*
X7562292Y32787482D01*
X7687708Y32859890D01*
X7790110Y32962292D01*
X7862518Y33087708D01*
X7873787Y33129766D01*
X8446975Y32556578D01*
X8446976Y32556578D01*
X8501865Y32634966D01*
X8501867Y32634970D01*
X8599847Y32845091D01*
X8599851Y32845100D01*
X8659852Y33069032D01*
X8659854Y33069042D01*
X8680061Y33300000D01*
X8680061Y33300001D01*
X8659854Y33530959D01*
X8659852Y33530969D01*
X8599851Y33754901D01*
X8599847Y33754910D01*
X8501867Y33965029D01*
X8501866Y33965031D01*
X8446975Y34043423D01*
X8446975Y34043424D01*
X7873787Y33470236D01*
X7862518Y33512292D01*
X7790110Y33637708D01*
X7687708Y33740110D01*
X7562292Y33812518D01*
X7520234Y33823788D01*
X8093422Y34396977D01*
X8093422Y34396978D01*
X8019946Y34448427D01*
X7976321Y34503004D01*
X7969129Y34572502D01*
X8000652Y34634857D01*
X8019946Y34651576D01*
X8093422Y34703025D01*
X7520235Y35276213D01*
X7562292Y35287482D01*
X7687708Y35359890D01*
X7790110Y35462292D01*
X7862518Y35587708D01*
X7873787Y35629766D01*
X8446975Y35056578D01*
X8446976Y35056578D01*
X8501865Y35134966D01*
X8501867Y35134970D01*
X8599847Y35345091D01*
X8599851Y35345100D01*
X8659852Y35569032D01*
X8659854Y35569042D01*
X8680061Y35800000D01*
X8680061Y35800001D01*
X8659854Y36030959D01*
X8659852Y36030969D01*
X8599851Y36254901D01*
X8599847Y36254910D01*
X8501867Y36465029D01*
X8501866Y36465031D01*
X8446975Y36543423D01*
X8446975Y36543424D01*
X7873787Y35970236D01*
X7862518Y36012292D01*
X7790110Y36137708D01*
X7687708Y36240110D01*
X7562292Y36312518D01*
X7520234Y36323788D01*
X8093422Y36896977D01*
X8090640Y36898925D01*
X8047015Y36953502D01*
X8039822Y37023000D01*
X8071344Y37085355D01*
X8131574Y37120769D01*
X8161763Y37124500D01*
X8208261Y37124500D01*
X8230971Y37127809D01*
X8276393Y37134427D01*
X8381483Y37185802D01*
X8464198Y37268517D01*
X8515573Y37373607D01*
X8525500Y37441740D01*
X8525500Y39158260D01*
X8515573Y39226393D01*
X8464198Y39331483D01*
X8464196Y39331485D01*
X8464196Y39331486D01*
X8381485Y39414197D01*
X8276391Y39465574D01*
X8208261Y39475500D01*
X8208260Y39475500D01*
X6491740Y39475500D01*
X6491739Y39475500D01*
X6423608Y39465574D01*
X6318514Y39414197D01*
X6235803Y39331486D01*
X6184426Y39226392D01*
X6174500Y39158261D01*
X6174500Y37441740D01*
X6184426Y37373609D01*
X6184427Y37373607D01*
X6234331Y37271525D01*
X6235803Y37268515D01*
X6318514Y37185804D01*
X6318515Y37185804D01*
X6318517Y37185802D01*
X6423607Y37134427D01*
X6457673Y37129464D01*
X6491739Y37124500D01*
X6538235Y37124500D01*
X6605274Y37104815D01*
X6651029Y37052011D01*
X6660973Y36982853D01*
X6631948Y36919297D01*
X6609358Y36898925D01*
X6606577Y36896978D01*
X6606576Y36896978D01*
X7179766Y36323788D01*
X7137708Y36312518D01*
X7012292Y36240110D01*
X6909890Y36137708D01*
X6837482Y36012292D01*
X6826212Y35970234D01*
X6253022Y36543424D01*
X6198134Y36465033D01*
X6100152Y36254910D01*
X6100148Y36254901D01*
X6040147Y36030969D01*
X6040145Y36030959D01*
X6019939Y35800001D01*
X500500Y35800001D01*
X500500Y44201707D01*
X520185Y44268746D01*
X572989Y44314501D01*
X642147Y44324445D01*
X705703Y44295420D01*
X734985Y44258001D01*
X791307Y44147462D01*
X791308Y44147459D01*
X1002531Y43822207D01*
X1211095Y43564650D01*
X1211096Y43564650D01*
X2705747Y45059302D01*
X2779588Y44957670D01*
X2957670Y44779588D01*
X3059300Y44705749D01*
X1564648Y43211097D01*
X1564649Y43211096D01*
X1822206Y43002532D01*
X2147456Y42791311D01*
X2493005Y42615245D01*
X2855063Y42476263D01*
X3229669Y42375888D01*
X3229676Y42375887D01*
X3612712Y42315220D01*
X3999999Y42294922D01*
X4000001Y42294922D01*
X4387287Y42315220D01*
X4770323Y42375887D01*
X4770330Y42375888D01*
X5144936Y42476263D01*
X5506994Y42615245D01*
X5852543Y42791311D01*
X6177783Y43002524D01*
X6177785Y43002525D01*
X6435349Y43211098D01*
X4940698Y44705749D01*
X5042330Y44779588D01*
X5220412Y44957670D01*
X5294251Y45059302D01*
X6788902Y43564651D01*
X6997475Y43822215D01*
X6997476Y43822217D01*
X7208689Y44147457D01*
X7384755Y44493006D01*
X7523737Y44855064D01*
X7624112Y45229670D01*
X7624113Y45229677D01*
X7684780Y45612713D01*
X7687050Y45656018D01*
X9674500Y45656018D01*
X9674500Y26956019D01*
X9674500Y26956018D01*
X9674500Y26843982D01*
X9702161Y26740751D01*
X9703497Y26735764D01*
X9703498Y26735761D01*
X9705775Y26731818D01*
X9759515Y26638737D01*
X13738737Y22659515D01*
X13835763Y22603497D01*
X13943982Y22574500D01*
X14056018Y22574500D01*
X15772390Y22574500D01*
X15839429Y22554815D01*
X15860071Y22538181D01*
X16538181Y21860071D01*
X16571666Y21798748D01*
X16574500Y21772390D01*
X16574500Y14056018D01*
X16574500Y13943982D01*
X16603497Y13835763D01*
X16659515Y13738737D01*
X19359515Y11038737D01*
X19438737Y10959515D01*
X19535763Y10903497D01*
X19643982Y10874500D01*
X22472390Y10874500D01*
X22539429Y10854815D01*
X22560071Y10838181D01*
X23238181Y10160071D01*
X23271666Y10098748D01*
X23274500Y10072390D01*
X23274500Y8963046D01*
X23254815Y8896007D01*
X23202011Y8850252D01*
X23132853Y8840308D01*
X23098095Y8850664D01*
X22963492Y8913430D01*
X22963486Y8913433D01*
X22750000Y8970636D01*
X22750000Y8073012D01*
X22692993Y8105925D01*
X22565826Y8140000D01*
X22434174Y8140000D01*
X22307007Y8105925D01*
X22250000Y8073012D01*
X22250000Y8970636D01*
X22249999Y8970636D01*
X22036513Y8913433D01*
X22036507Y8913430D01*
X21822422Y8813601D01*
X21822420Y8813600D01*
X21628926Y8678114D01*
X21628920Y8678109D01*
X21461891Y8511080D01*
X21461890Y8511078D01*
X21331575Y8324969D01*
X21276998Y8281345D01*
X21207499Y8274152D01*
X21145145Y8305674D01*
X21128425Y8324969D01*
X20998109Y8511078D01*
X20998108Y8511080D01*
X20831082Y8678106D01*
X20637578Y8813601D01*
X20423492Y8913430D01*
X20423486Y8913433D01*
X20210000Y8970636D01*
X20210000Y8073012D01*
X20152993Y8105925D01*
X20025826Y8140000D01*
X19894174Y8140000D01*
X19767007Y8105925D01*
X19710000Y8073012D01*
X19710000Y8970636D01*
X19709999Y8970636D01*
X19496513Y8913433D01*
X19496507Y8913430D01*
X19282422Y8813601D01*
X19282420Y8813600D01*
X19088926Y8678114D01*
X19088920Y8678109D01*
X18921891Y8511080D01*
X18921890Y8511078D01*
X18791575Y8324969D01*
X18736998Y8281345D01*
X18667499Y8274152D01*
X18605145Y8305674D01*
X18588425Y8324969D01*
X18458109Y8511078D01*
X18458108Y8511080D01*
X18291082Y8678106D01*
X18097578Y8813601D01*
X17883492Y8913430D01*
X17883486Y8913433D01*
X17670000Y8970636D01*
X17670000Y8073012D01*
X17612993Y8105925D01*
X17485826Y8140000D01*
X17354174Y8140000D01*
X17227007Y8105925D01*
X17170000Y8073012D01*
X17170000Y8970636D01*
X17169999Y8970636D01*
X16956513Y8913433D01*
X16956507Y8913430D01*
X16742422Y8813601D01*
X16742420Y8813600D01*
X16548926Y8678114D01*
X16548920Y8678109D01*
X16381891Y8511080D01*
X16381886Y8511074D01*
X16246400Y8317580D01*
X16246399Y8317578D01*
X16146570Y8103493D01*
X16146567Y8103487D01*
X16089364Y7890001D01*
X16089364Y7890000D01*
X16986988Y7890000D01*
X16954075Y7832993D01*
X16920000Y7705826D01*
X16920000Y7574174D01*
X16954075Y7447007D01*
X16986988Y7390000D01*
X16089364Y7390000D01*
X16146567Y7176514D01*
X16146570Y7176508D01*
X16246399Y6962422D01*
X16381894Y6768918D01*
X16548917Y6601895D01*
X16742421Y6466400D01*
X16879464Y6402496D01*
X16931903Y6356324D01*
X16951055Y6289130D01*
X16930839Y6222249D01*
X16886906Y6183180D01*
X16887473Y6182265D01*
X16693439Y6062126D01*
X16693437Y6062124D01*
X16529020Y5912239D01*
X16394943Y5734692D01*
X16394938Y5734684D01*
X16295775Y5535539D01*
X16295769Y5535524D01*
X16234885Y5321538D01*
X16234884Y5321536D01*
X16214357Y5100001D01*
X16214357Y5100000D01*
X16234884Y4878465D01*
X16234885Y4878463D01*
X16295769Y4664477D01*
X16295775Y4664462D01*
X16394938Y4465317D01*
X16394943Y4465309D01*
X16529020Y4287762D01*
X16693437Y4137877D01*
X16693439Y4137875D01*
X16882595Y4020755D01*
X16882596Y4020755D01*
X16882599Y4020753D01*
X17090060Y3940382D01*
X17308757Y3899500D01*
X17308759Y3899500D01*
X17531241Y3899500D01*
X17531243Y3899500D01*
X17749940Y3940382D01*
X17957401Y4020753D01*
X18146562Y4137876D01*
X18310981Y4287764D01*
X18445058Y4465311D01*
X18544229Y4664472D01*
X18570734Y4757629D01*
X18608013Y4816722D01*
X18671323Y4846279D01*
X18740562Y4836917D01*
X18793749Y4791607D01*
X18809266Y4757628D01*
X18835769Y4664477D01*
X18835775Y4664462D01*
X18934938Y4465317D01*
X18934943Y4465309D01*
X19069020Y4287762D01*
X19233437Y4137877D01*
X19233439Y4137875D01*
X19422595Y4020755D01*
X19422596Y4020755D01*
X19422599Y4020753D01*
X19630060Y3940382D01*
X19848757Y3899500D01*
X19848759Y3899500D01*
X20071241Y3899500D01*
X20071243Y3899500D01*
X20289940Y3940382D01*
X20497401Y4020753D01*
X20686562Y4137876D01*
X20850981Y4287764D01*
X20985058Y4465311D01*
X21084229Y4664472D01*
X21110735Y4757633D01*
X21148011Y4816721D01*
X21211320Y4846279D01*
X21280560Y4836918D01*
X21333747Y4791608D01*
X21349265Y4757629D01*
X21375770Y4664474D01*
X21375772Y4664469D01*
X21394955Y4625944D01*
X21401981Y4608694D01*
X21404703Y4600243D01*
X21404704Y4600240D01*
X22090658Y3272637D01*
X22100269Y3247811D01*
X22103497Y3235761D01*
X22103498Y3235760D01*
X22159512Y3138741D01*
X22159514Y3138739D01*
X22159515Y3138737D01*
X23538737Y1759515D01*
X23635763Y1703497D01*
X23743982Y1674500D01*
X23743984Y1674500D01*
X26756016Y1674500D01*
X26756018Y1674500D01*
X26864237Y1703497D01*
X26961263Y1759515D01*
X28151053Y2949308D01*
X28151058Y2949311D01*
X28161261Y2959515D01*
X28161263Y2959515D01*
X28240485Y3038737D01*
X28296503Y3135763D01*
X28325500Y3243982D01*
X28325500Y5260001D01*
X29314364Y5260001D01*
X29314364Y5260000D01*
X30211988Y5260000D01*
X30179075Y5202993D01*
X30145000Y5075826D01*
X30145000Y4944174D01*
X30179075Y4817007D01*
X30211988Y4760000D01*
X29314364Y4760000D01*
X29371567Y4546514D01*
X29371570Y4546508D01*
X29471399Y4332422D01*
X29606894Y4138918D01*
X29773917Y3971895D01*
X29967421Y3836400D01*
X30181507Y3736571D01*
X30181516Y3736567D01*
X30395000Y3679366D01*
X30395000Y4576988D01*
X30452007Y4544075D01*
X30579174Y4510000D01*
X30710826Y4510000D01*
X30837993Y4544075D01*
X30895000Y4576988D01*
X30895000Y3679367D01*
X31108483Y3736567D01*
X31108492Y3736571D01*
X31322578Y3836400D01*
X31516082Y3971895D01*
X31683105Y4138918D01*
X31813425Y4325032D01*
X31868002Y4368656D01*
X31937501Y4375849D01*
X31999855Y4344327D01*
X32016575Y4325032D01*
X32146894Y4138918D01*
X32313917Y3971895D01*
X32507421Y3836400D01*
X32721507Y3736571D01*
X32721516Y3736567D01*
X32935000Y3679366D01*
X32935000Y4576988D01*
X32992007Y4544075D01*
X33119174Y4510000D01*
X33250826Y4510000D01*
X33377993Y4544075D01*
X33435000Y4576988D01*
X33435000Y3679367D01*
X33648483Y3736567D01*
X33648492Y3736571D01*
X33862578Y3836400D01*
X34056082Y3971895D01*
X34223105Y4138918D01*
X34353425Y4325032D01*
X34408002Y4368656D01*
X34477501Y4375849D01*
X34539855Y4344327D01*
X34556575Y4325032D01*
X34686894Y4138918D01*
X34853917Y3971895D01*
X35047421Y3836400D01*
X35261507Y3736571D01*
X35261516Y3736567D01*
X35475000Y3679366D01*
X35475000Y4576988D01*
X35532007Y4544075D01*
X35659174Y4510000D01*
X35790826Y4510000D01*
X35917993Y4544075D01*
X35975000Y4576988D01*
X35975000Y3679367D01*
X36188483Y3736567D01*
X36188492Y3736571D01*
X36402578Y3836400D01*
X36596082Y3971895D01*
X36763105Y4138918D01*
X36898600Y4332422D01*
X36998429Y4546508D01*
X36998432Y4546514D01*
X37055636Y4760000D01*
X36158012Y4760000D01*
X36190925Y4817007D01*
X36225000Y4944174D01*
X36225000Y5075826D01*
X36190925Y5202993D01*
X36158012Y5260000D01*
X37055636Y5260000D01*
X37055635Y5260001D01*
X36998432Y5473487D01*
X36998429Y5473493D01*
X36898600Y5687578D01*
X36898599Y5687580D01*
X36763113Y5881074D01*
X36763108Y5881080D01*
X36596082Y6048106D01*
X36487802Y6123925D01*
X36444177Y6178502D01*
X36436985Y6248001D01*
X36468507Y6310355D01*
X36528737Y6345769D01*
X36558926Y6349500D01*
X36581892Y6349500D01*
X36585130Y6349299D01*
X36587409Y6349393D01*
X36592562Y6349500D01*
X36608255Y6349500D01*
X36608260Y6349500D01*
X36676393Y6359427D01*
X36704670Y6373252D01*
X36710834Y6375949D01*
X36710799Y6376031D01*
X36712576Y6376789D01*
X36732840Y6385434D01*
X36733568Y6385933D01*
X36749073Y6394959D01*
X36781483Y6410802D01*
X36798226Y6427547D01*
X36815924Y6442228D01*
X36829453Y6451474D01*
X37260875Y6865605D01*
X37322868Y6897827D01*
X37392443Y6891419D01*
X37434424Y6863828D01*
X37738181Y6560071D01*
X37771666Y6498748D01*
X37774500Y6472390D01*
X37774500Y3256018D01*
X37774500Y3143982D01*
X37791523Y3080453D01*
X37803497Y3035764D01*
X37803498Y3035761D01*
X37822169Y3003421D01*
X37859515Y2938737D01*
X38659515Y2138737D01*
X38738737Y2059515D01*
X38835763Y2003497D01*
X38943982Y1974500D01*
X40284997Y1974500D01*
X40336380Y1963353D01*
X40888675Y1711887D01*
X40893712Y1709642D01*
X40894069Y1709486D01*
X40901198Y1706703D01*
X40920056Y1699339D01*
X40929072Y1697813D01*
X40949329Y1692595D01*
X41031941Y1663687D01*
X41031944Y1663686D01*
X41199997Y1644751D01*
X41200000Y1644751D01*
X41200003Y1644751D01*
X41368056Y1663686D01*
X41368059Y1663687D01*
X41527690Y1719544D01*
X41527692Y1719546D01*
X41527694Y1719546D01*
X41527697Y1719548D01*
X41670884Y1809519D01*
X41670885Y1809520D01*
X41670890Y1809523D01*
X41761367Y1900000D01*
X45194355Y1900000D01*
X45214859Y1731131D01*
X45214860Y1731126D01*
X45275182Y1572069D01*
X45318355Y1509523D01*
X45371817Y1432071D01*
X45449007Y1363687D01*
X45499150Y1319264D01*
X45649773Y1240211D01*
X45649775Y1240210D01*
X45814944Y1199500D01*
X45985056Y1199500D01*
X46150225Y1240210D01*
X46255128Y1295268D01*
X46300849Y1319264D01*
X46300850Y1319266D01*
X46300852Y1319266D01*
X46428183Y1432071D01*
X46524818Y1572070D01*
X46585140Y1731128D01*
X46605645Y1900000D01*
X46585140Y2068872D01*
X46524818Y2227930D01*
X46522049Y2231941D01*
X46469265Y2308412D01*
X46428183Y2367929D01*
X46300852Y2480734D01*
X46300849Y2480737D01*
X46150226Y2559790D01*
X45985056Y2600500D01*
X45814944Y2600500D01*
X45649773Y2559790D01*
X45499150Y2480737D01*
X45371816Y2367928D01*
X45275182Y2227932D01*
X45214860Y2068875D01*
X45214859Y2068870D01*
X45194355Y1900000D01*
X41761367Y1900000D01*
X41790477Y1929110D01*
X41804757Y1951836D01*
X41880452Y2072303D01*
X41880454Y2072306D01*
X41880454Y2072308D01*
X41880456Y2072310D01*
X41936313Y2231941D01*
X41936313Y2231942D01*
X41936314Y2231944D01*
X41955249Y2399998D01*
X41955249Y2400003D01*
X41936314Y2568057D01*
X41893477Y2690477D01*
X41880456Y2727690D01*
X41880455Y2727691D01*
X41880454Y2727695D01*
X41880452Y2727698D01*
X41790481Y2870885D01*
X41790476Y2870891D01*
X41670890Y2990477D01*
X41670884Y2990482D01*
X41527697Y3080453D01*
X41527694Y3080455D01*
X41368056Y3136315D01*
X41200003Y3155249D01*
X41199997Y3155249D01*
X41031941Y3136314D01*
X40916510Y3095924D01*
X40907668Y3093196D01*
X40888622Y3088090D01*
X40888619Y3088089D01*
X40336377Y2836647D01*
X40284994Y2825500D01*
X39227610Y2825500D01*
X39160571Y2845185D01*
X39139929Y2861819D01*
X38801748Y3200000D01*
X49294355Y3200000D01*
X49314859Y3031131D01*
X49314860Y3031126D01*
X49375182Y2872069D01*
X49399862Y2836315D01*
X49471817Y2732071D01*
X49557267Y2656369D01*
X49599150Y2619264D01*
X49740296Y2545185D01*
X49749775Y2540210D01*
X49914944Y2499500D01*
X50085056Y2499500D01*
X50250225Y2540210D01*
X50365097Y2600500D01*
X50400849Y2619264D01*
X50400850Y2619266D01*
X50400852Y2619266D01*
X50528183Y2732071D01*
X50624818Y2872070D01*
X50685140Y3031128D01*
X50705645Y3200000D01*
X50685140Y3368872D01*
X50624818Y3527930D01*
X50575071Y3600000D01*
X78194355Y3600000D01*
X78214859Y3431131D01*
X78214860Y3431126D01*
X78275182Y3272069D01*
X78324929Y3200000D01*
X78371817Y3132071D01*
X78421463Y3088089D01*
X78499150Y3019264D01*
X78632450Y2949303D01*
X78649775Y2940210D01*
X78814944Y2899500D01*
X78985056Y2899500D01*
X79150225Y2940210D01*
X79246009Y2990482D01*
X79300849Y3019264D01*
X79300850Y3019266D01*
X79300852Y3019266D01*
X79428183Y3132071D01*
X79524818Y3272070D01*
X79585140Y3431128D01*
X79605645Y3600000D01*
X79585140Y3768872D01*
X79580641Y3780734D01*
X79524817Y3927932D01*
X79475071Y4000000D01*
X79428183Y4067929D01*
X79300852Y4180734D01*
X79300849Y4180737D01*
X79150226Y4259790D01*
X78985056Y4300500D01*
X78814944Y4300500D01*
X78649773Y4259790D01*
X78499150Y4180737D01*
X78371816Y4067928D01*
X78275182Y3927932D01*
X78214860Y3768875D01*
X78214859Y3768870D01*
X78194355Y3600000D01*
X50575071Y3600000D01*
X50528183Y3667929D01*
X50414244Y3768870D01*
X50400849Y3780737D01*
X50250226Y3859790D01*
X50085056Y3900500D01*
X49914944Y3900500D01*
X49749773Y3859790D01*
X49599150Y3780737D01*
X49471816Y3667928D01*
X49375182Y3527932D01*
X49314860Y3368875D01*
X49314859Y3368870D01*
X49294355Y3200000D01*
X38801748Y3200000D01*
X38661819Y3339929D01*
X38628334Y3401252D01*
X38625500Y3427610D01*
X38625500Y4800000D01*
X84494355Y4800000D01*
X84514859Y4631131D01*
X84514860Y4631126D01*
X84575182Y4472069D01*
X84633703Y4387288D01*
X84671817Y4332071D01*
X84721832Y4287762D01*
X84799150Y4219264D01*
X84949773Y4140211D01*
X84949775Y4140210D01*
X85114944Y4099500D01*
X85285056Y4099500D01*
X85450225Y4140210D01*
X85529692Y4181919D01*
X85600849Y4219264D01*
X85600850Y4219266D01*
X85600852Y4219266D01*
X85728183Y4332071D01*
X85824818Y4472070D01*
X85885140Y4631128D01*
X85905645Y4800000D01*
X85885140Y4968872D01*
X85824818Y5127930D01*
X85728183Y5267929D01*
X85600852Y5380734D01*
X85600849Y5380737D01*
X85450226Y5459790D01*
X85285056Y5500500D01*
X85114944Y5500500D01*
X84949773Y5459790D01*
X84799150Y5380737D01*
X84671816Y5267928D01*
X84575182Y5127932D01*
X84514860Y4968875D01*
X84514859Y4968870D01*
X84494355Y4800000D01*
X38625500Y4800000D01*
X38625500Y6756016D01*
X38625500Y6756018D01*
X38596503Y6864237D01*
X38540485Y6961263D01*
X38501748Y7000000D01*
X90994355Y7000000D01*
X91014859Y6831131D01*
X91014860Y6831126D01*
X91075182Y6672069D01*
X91125889Y6598609D01*
X91171817Y6532071D01*
X91241031Y6470753D01*
X91299150Y6419264D01*
X91439183Y6345769D01*
X91449775Y6340210D01*
X91614944Y6299500D01*
X91785056Y6299500D01*
X91950225Y6340210D01*
X92068900Y6402496D01*
X92100849Y6419264D01*
X92100850Y6419266D01*
X92100852Y6419266D01*
X92228183Y6532071D01*
X92324818Y6672070D01*
X92385140Y6831128D01*
X92405645Y7000000D01*
X92385140Y7168872D01*
X92324818Y7327930D01*
X92324449Y7328464D01*
X92274239Y7401206D01*
X92228183Y7467929D01*
X92100852Y7580734D01*
X92100849Y7580737D01*
X91950226Y7659790D01*
X91785056Y7700500D01*
X91614944Y7700500D01*
X91449773Y7659790D01*
X91299150Y7580737D01*
X91171816Y7467928D01*
X91075182Y7327932D01*
X91014860Y7168875D01*
X91014859Y7168870D01*
X90994355Y7000000D01*
X38501748Y7000000D01*
X38461263Y7040485D01*
X37716155Y7785593D01*
X37705390Y7797879D01*
X37690041Y7817921D01*
X37673923Y7832993D01*
X36895547Y8560876D01*
X36868841Y8596985D01*
X36864198Y8606483D01*
X36864195Y8606486D01*
X36864195Y8606487D01*
X36781485Y8689197D01*
X36676391Y8740574D01*
X36608261Y8750500D01*
X36608260Y8750500D01*
X34841740Y8750500D01*
X34841739Y8750500D01*
X34773608Y8740574D01*
X34668514Y8689197D01*
X34585803Y8606486D01*
X34534426Y8501392D01*
X34524500Y8433261D01*
X34524500Y8383927D01*
X34504815Y8316888D01*
X34452011Y8271133D01*
X34382853Y8261189D01*
X34319297Y8290214D01*
X34298925Y8312803D01*
X34223109Y8421078D01*
X34223108Y8421080D01*
X34056082Y8588106D01*
X33862578Y8723601D01*
X33648492Y8823430D01*
X33648486Y8823433D01*
X33435000Y8880636D01*
X33435000Y7983012D01*
X33377993Y8015925D01*
X33250826Y8050000D01*
X33119174Y8050000D01*
X32992007Y8015925D01*
X32935000Y7983012D01*
X32935000Y8880636D01*
X32934999Y8880636D01*
X32721513Y8823433D01*
X32721507Y8823430D01*
X32507422Y8723601D01*
X32507420Y8723600D01*
X32313926Y8588114D01*
X32313920Y8588109D01*
X32146891Y8421080D01*
X32146886Y8421074D01*
X32011400Y8227580D01*
X32011399Y8227578D01*
X31944717Y8084579D01*
X31898544Y8032140D01*
X31831350Y8012988D01*
X31764469Y8033204D01*
X31721335Y8081712D01*
X31670061Y8184684D01*
X31670056Y8184692D01*
X31535979Y8362239D01*
X31371562Y8512124D01*
X31371560Y8512126D01*
X31182404Y8629246D01*
X31182398Y8629248D01*
X30974940Y8709618D01*
X30756243Y8750500D01*
X30533757Y8750500D01*
X30315060Y8709618D01*
X30215092Y8670890D01*
X30107601Y8629248D01*
X30107595Y8629246D01*
X29918439Y8512126D01*
X29918437Y8512124D01*
X29754020Y8362239D01*
X29619943Y8184692D01*
X29619938Y8184684D01*
X29520775Y7985539D01*
X29520769Y7985524D01*
X29459885Y7771538D01*
X29459884Y7771536D01*
X29439357Y7550001D01*
X29439357Y7550000D01*
X29459884Y7328465D01*
X29459885Y7328463D01*
X29520769Y7114477D01*
X29520775Y7114462D01*
X29619938Y6915317D01*
X29619943Y6915309D01*
X29754020Y6737762D01*
X29918437Y6587877D01*
X29918439Y6587875D01*
X30112473Y6467735D01*
X30111836Y6466708D01*
X30158563Y6423393D01*
X30175989Y6355731D01*
X30154069Y6289389D01*
X30104464Y6247505D01*
X29967422Y6183601D01*
X29967420Y6183600D01*
X29773926Y6048114D01*
X29773920Y6048109D01*
X29606891Y5881080D01*
X29606886Y5881074D01*
X29471400Y5687580D01*
X29471399Y5687578D01*
X29371570Y5473493D01*
X29371567Y5473487D01*
X29314364Y5260001D01*
X28325500Y5260001D01*
X28325500Y9756018D01*
X28296503Y9864237D01*
X28240485Y9961263D01*
X28161263Y10040485D01*
X25901745Y12300003D01*
X30144751Y12300003D01*
X30144751Y12299998D01*
X30163685Y12131944D01*
X30219545Y11972306D01*
X30219547Y11972303D01*
X30309518Y11829116D01*
X30309523Y11829110D01*
X30429109Y11709524D01*
X30429115Y11709519D01*
X30572302Y11619548D01*
X30572305Y11619546D01*
X30572309Y11619545D01*
X30572310Y11619544D01*
X30644913Y11594140D01*
X30731943Y11563686D01*
X30899997Y11544751D01*
X30900000Y11544751D01*
X30900003Y11544751D01*
X31068056Y11563686D01*
X31080548Y11568057D01*
X31227690Y11619544D01*
X31227692Y11619546D01*
X31227694Y11619546D01*
X31227697Y11619548D01*
X31370884Y11709519D01*
X31370885Y11709520D01*
X31370890Y11709523D01*
X31490477Y11829110D01*
X31497452Y11840210D01*
X31580452Y11972303D01*
X31580454Y11972306D01*
X31580454Y11972308D01*
X31580456Y11972310D01*
X31636313Y12131941D01*
X31636313Y12131942D01*
X31636314Y12131944D01*
X31655249Y12299998D01*
X31655249Y12300003D01*
X31636314Y12468057D01*
X31580454Y12627695D01*
X31580452Y12627698D01*
X31490481Y12770885D01*
X31490476Y12770891D01*
X31370890Y12890477D01*
X31370884Y12890482D01*
X31227697Y12980453D01*
X31227694Y12980455D01*
X31068056Y13036315D01*
X30900003Y13055249D01*
X30899997Y13055249D01*
X30731943Y13036315D01*
X30572305Y12980455D01*
X30572302Y12980453D01*
X30429115Y12890482D01*
X30429109Y12890477D01*
X30309523Y12770891D01*
X30309518Y12770885D01*
X30219547Y12627698D01*
X30219545Y12627695D01*
X30163685Y12468057D01*
X30144751Y12300003D01*
X25901745Y12300003D01*
X25161263Y13040485D01*
X25064237Y13096503D01*
X24956018Y13125500D01*
X24956017Y13125500D01*
X23181756Y13125500D01*
X23114717Y13145185D01*
X23068962Y13197989D01*
X23059018Y13267147D01*
X23088043Y13330703D01*
X23131935Y13363051D01*
X23424294Y13491324D01*
X23442010Y13497542D01*
X23454965Y13501013D01*
X23464234Y13503496D01*
X23464234Y13503497D01*
X23464237Y13503497D01*
X23561263Y13559515D01*
X24639928Y14638182D01*
X24701251Y14671666D01*
X24727609Y14674500D01*
X30172390Y14674500D01*
X30239429Y14654815D01*
X30260071Y14638181D01*
X34174984Y10723268D01*
X34202823Y10680655D01*
X34217788Y10642293D01*
X34217789Y10642292D01*
X34222339Y10630627D01*
X34222463Y10630311D01*
X34222463Y10630310D01*
X34391105Y10198002D01*
X34392364Y10194815D01*
X34392419Y10194679D01*
X34392427Y10194661D01*
X34392433Y10194646D01*
X34402595Y10171688D01*
X34402597Y10171686D01*
X34402598Y10171683D01*
X34405674Y10166273D01*
X34405316Y10166070D01*
X34416319Y10145439D01*
X34425182Y10122070D01*
X34521817Y9982071D01*
X34623072Y9892367D01*
X34649150Y9869264D01*
X34799773Y9790211D01*
X34799775Y9790210D01*
X34964944Y9749500D01*
X35135056Y9749500D01*
X35300225Y9790210D01*
X35379692Y9831919D01*
X35450849Y9869264D01*
X35450850Y9869266D01*
X35450852Y9869266D01*
X35578183Y9982071D01*
X35674818Y10122070D01*
X35735140Y10281128D01*
X35755645Y10450000D01*
X35735140Y10618872D01*
X35674818Y10777930D01*
X35661488Y10797242D01*
X35639605Y10863593D01*
X35657069Y10931245D01*
X35708336Y10978716D01*
X35777129Y10990934D01*
X35795622Y10987458D01*
X35843982Y10974500D01*
X36888043Y10974500D01*
X36937863Y10964052D01*
X37412318Y10755885D01*
X37414506Y10754934D01*
X37414701Y10754850D01*
X37435651Y10746725D01*
X37448434Y10740914D01*
X37449775Y10740210D01*
X37449776Y10740210D01*
X37449778Y10740209D01*
X37614944Y10699500D01*
X37785056Y10699500D01*
X37950225Y10740210D01*
X38040930Y10787816D01*
X38100849Y10819264D01*
X38100850Y10819266D01*
X38100852Y10819266D01*
X38228183Y10932071D01*
X38324818Y11072070D01*
X38340504Y11113435D01*
X38349914Y11132918D01*
X38358879Y11147964D01*
X38547173Y11630652D01*
X38575010Y11673264D01*
X38601746Y11700000D01*
X52094355Y11700000D01*
X52114859Y11531131D01*
X52114860Y11531126D01*
X52175182Y11372069D01*
X52208200Y11324235D01*
X52271817Y11232071D01*
X52357425Y11156229D01*
X52399150Y11119264D01*
X52537531Y11046636D01*
X52549775Y11040210D01*
X52714944Y10999500D01*
X52885056Y10999500D01*
X53050225Y11040210D01*
X53180408Y11108536D01*
X53200849Y11119264D01*
X53200850Y11119266D01*
X53200852Y11119266D01*
X53328183Y11232071D01*
X53424818Y11372070D01*
X53485140Y11531128D01*
X53505645Y11700000D01*
X53485140Y11868872D01*
X53424818Y12027930D01*
X53421958Y12032073D01*
X53388562Y12080456D01*
X53328183Y12167929D01*
X53207888Y12274501D01*
X53200849Y12280737D01*
X53050226Y12359790D01*
X52885056Y12400500D01*
X52714944Y12400500D01*
X52549773Y12359790D01*
X52399150Y12280737D01*
X52271816Y12167928D01*
X52175182Y12027932D01*
X52114860Y11868875D01*
X52114859Y11868870D01*
X52094355Y11700000D01*
X38601746Y11700000D01*
X40939929Y14038181D01*
X41001252Y14071666D01*
X41027610Y14074500D01*
X79656016Y14074500D01*
X79656018Y14074500D01*
X79764237Y14103497D01*
X79861263Y14159515D01*
X83851053Y18149308D01*
X83851058Y18149311D01*
X83861261Y18159515D01*
X83861263Y18159515D01*
X83940485Y18238737D01*
X83996503Y18335763D01*
X84013849Y18400500D01*
X84025500Y18443981D01*
X84025500Y18556018D01*
X84025500Y18556019D01*
X84025500Y23833261D01*
X89937000Y23833261D01*
X89937000Y22566740D01*
X89946926Y22498609D01*
X89998303Y22393515D01*
X90081014Y22310804D01*
X90081015Y22310804D01*
X90081017Y22310802D01*
X90186107Y22259427D01*
X90220173Y22254464D01*
X90254239Y22249500D01*
X90254240Y22249500D01*
X91520761Y22249500D01*
X91543471Y22252809D01*
X91588893Y22259427D01*
X91693983Y22310802D01*
X91776698Y22393517D01*
X91828073Y22498607D01*
X91838000Y22566740D01*
X91838000Y23200001D01*
X93282787Y23200001D01*
X93282787Y23200000D01*
X93301596Y22997011D01*
X93301597Y22997008D01*
X93357383Y22800937D01*
X93357386Y22800931D01*
X93448251Y22618449D01*
X93450033Y22616089D01*
X93965774Y23131829D01*
X93991463Y23035956D01*
X94047416Y22939044D01*
X94126544Y22859916D01*
X94223456Y22803963D01*
X94319327Y22778275D01*
X93806811Y22265760D01*
X93895085Y22211103D01*
X94085178Y22137461D01*
X94285572Y22100000D01*
X94489428Y22100000D01*
X94689822Y22137461D01*
X94879912Y22211101D01*
X94879916Y22211103D01*
X94968186Y22265759D01*
X94968186Y22265760D01*
X94455673Y22778275D01*
X94551544Y22803963D01*
X94648456Y22859916D01*
X94727584Y22939044D01*
X94783537Y23035956D01*
X94809225Y23131828D01*
X95324965Y22616088D01*
X95326747Y22618447D01*
X95326748Y22618449D01*
X95417613Y22800931D01*
X95417616Y22800937D01*
X95473402Y22997008D01*
X95473403Y22997011D01*
X95492213Y23200000D01*
X95492213Y23200001D01*
X95473403Y23402990D01*
X95473402Y23402993D01*
X95417616Y23599064D01*
X95417613Y23599070D01*
X95326749Y23781551D01*
X95326747Y23781553D01*
X95324965Y23783913D01*
X94809225Y23268173D01*
X94783537Y23364044D01*
X94727584Y23460956D01*
X94648456Y23540084D01*
X94551544Y23596037D01*
X94455672Y23621726D01*
X94968187Y24134242D01*
X94879913Y24188899D01*
X94879911Y24188900D01*
X94689821Y24262540D01*
X94489428Y24300000D01*
X94285572Y24300000D01*
X94085178Y24262540D01*
X93895088Y24188900D01*
X93895081Y24188896D01*
X93806812Y24134243D01*
X93806811Y24134242D01*
X94319328Y23621726D01*
X94223456Y23596037D01*
X94126544Y23540084D01*
X94047416Y23460956D01*
X93991463Y23364044D01*
X93965774Y23268172D01*
X93450033Y23783913D01*
X93448255Y23781558D01*
X93448254Y23781557D01*
X93357386Y23599070D01*
X93357383Y23599064D01*
X93301597Y23402993D01*
X93301596Y23402990D01*
X93282787Y23200001D01*
X91838000Y23200001D01*
X91838000Y23833260D01*
X91828073Y23901393D01*
X91776698Y24006483D01*
X91776696Y24006485D01*
X91776696Y24006486D01*
X91693985Y24089197D01*
X91588891Y24140574D01*
X91520761Y24150500D01*
X91520760Y24150500D01*
X90254240Y24150500D01*
X90254239Y24150500D01*
X90186108Y24140574D01*
X90081014Y24089197D01*
X89998303Y24006486D01*
X89946926Y23901392D01*
X89937000Y23833261D01*
X84025500Y23833261D01*
X84025500Y26956018D01*
X84005374Y27031128D01*
X83996503Y27064237D01*
X83976144Y27099500D01*
X83940485Y27161263D01*
X83861263Y27240485D01*
X83861262Y27240486D01*
X83856932Y27244816D01*
X83856921Y27244826D01*
X82361265Y28740483D01*
X82361264Y28740484D01*
X82361263Y28740485D01*
X82264237Y28796503D01*
X82156018Y28825500D01*
X82156017Y28825500D01*
X73327609Y28825500D01*
X73260570Y28845185D01*
X73239928Y28861819D01*
X73075014Y29026733D01*
X73047174Y29069349D01*
X73041961Y29082712D01*
X72858879Y29552037D01*
X72857645Y29555158D01*
X72857634Y29555187D01*
X72857575Y29555332D01*
X72857566Y29555355D01*
X72847404Y29578313D01*
X72847401Y29578318D01*
X72844329Y29583720D01*
X72844687Y29583924D01*
X72833678Y29604567D01*
X72824818Y29627930D01*
X72728183Y29767929D01*
X72600852Y29880734D01*
X72600849Y29880737D01*
X72450226Y29959790D01*
X72285056Y30000500D01*
X72114944Y30000500D01*
X71949773Y29959790D01*
X71799150Y29880737D01*
X71671816Y29767928D01*
X71575182Y29627932D01*
X71514860Y29468875D01*
X71514859Y29468870D01*
X71494355Y29300000D01*
X71514859Y29131131D01*
X71514860Y29131126D01*
X71575182Y28972069D01*
X71625446Y28899250D01*
X71671817Y28832071D01*
X71799148Y28719266D01*
X71944427Y28643018D01*
X71946780Y28641699D01*
X71947342Y28641425D01*
X71949632Y28640265D01*
X71949769Y28640213D01*
X71949775Y28640210D01*
X71949780Y28640209D01*
X71956806Y28637543D01*
X71956801Y28637531D01*
X71958741Y28636917D01*
X72221773Y28534309D01*
X72277075Y28491607D01*
X72300511Y28425785D01*
X72284641Y28357742D01*
X72234503Y28309080D01*
X72206384Y28298391D01*
X72049773Y28259790D01*
X71899150Y28180737D01*
X71771816Y28067928D01*
X71675182Y27927932D01*
X71614860Y27768875D01*
X71614859Y27768870D01*
X71594355Y27600000D01*
X71614859Y27431131D01*
X71614860Y27431126D01*
X71675182Y27272069D01*
X71724929Y27200000D01*
X71771817Y27132071D01*
X71848386Y27064237D01*
X71899150Y27019264D01*
X72042340Y26944112D01*
X72049775Y26940210D01*
X72214944Y26899500D01*
X72385056Y26899500D01*
X72550225Y26940210D01*
X72560031Y26945358D01*
X72582870Y26954103D01*
X72582830Y26954219D01*
X72586172Y26955367D01*
X72587223Y26955770D01*
X72587681Y26955885D01*
X73041086Y27154815D01*
X73062137Y27164051D01*
X73111957Y27174500D01*
X81272390Y27174500D01*
X81339429Y27154815D01*
X81360071Y27138181D01*
X82238181Y26260072D01*
X82271666Y26198749D01*
X82274500Y26172391D01*
X82274500Y18727610D01*
X82254815Y18660571D01*
X82238181Y18639929D01*
X79560071Y15961819D01*
X79498748Y15928334D01*
X79472390Y15925500D01*
X49527610Y15925500D01*
X49460571Y15945185D01*
X49439929Y15961819D01*
X48861265Y16540483D01*
X48861259Y16540488D01*
X48764240Y16596502D01*
X48764235Y16596504D01*
X48742011Y16602459D01*
X48724288Y16608681D01*
X48589250Y16667929D01*
X48187775Y16844076D01*
X48185668Y16844991D01*
X48185648Y16845000D01*
X48185493Y16845067D01*
X48185298Y16845151D01*
X48185289Y16845155D01*
X48185274Y16845161D01*
X48164346Y16853278D01*
X48151563Y16859088D01*
X48150226Y16859790D01*
X47985056Y16900500D01*
X47814944Y16900500D01*
X47649773Y16859790D01*
X47499150Y16780737D01*
X47371816Y16667928D01*
X47275182Y16527932D01*
X47214860Y16368875D01*
X47214859Y16368870D01*
X47194355Y16200000D01*
X47214859Y16031131D01*
X47214860Y16031126D01*
X47275182Y15872069D01*
X47337475Y15781823D01*
X47371817Y15732071D01*
X47476378Y15639438D01*
X47499150Y15619264D01*
X47589071Y15572070D01*
X47649775Y15540210D01*
X47814944Y15499500D01*
X47985056Y15499500D01*
X48150225Y15540210D01*
X48160031Y15545358D01*
X48182870Y15554103D01*
X48182830Y15554219D01*
X48186172Y15555367D01*
X48187223Y15555770D01*
X48187681Y15555885D01*
X48426121Y15660501D01*
X48495420Y15669410D01*
X48558535Y15639438D01*
X48563622Y15634630D01*
X49038737Y15159515D01*
X49043289Y15156887D01*
X49091504Y15106319D01*
X49104726Y15037712D01*
X49078758Y14972848D01*
X49021844Y14932320D01*
X48981288Y14925500D01*
X40743982Y14925500D01*
X40635763Y14896503D01*
X40635760Y14896502D01*
X40538740Y14840487D01*
X40538734Y14840483D01*
X37973265Y12275015D01*
X37930648Y12247175D01*
X37458687Y12063065D01*
X37456754Y12062452D01*
X37456759Y12062440D01*
X37446712Y12058628D01*
X37445465Y12058051D01*
X37445493Y12057989D01*
X37425944Y12049298D01*
X37415851Y12045330D01*
X37412317Y12044117D01*
X36998010Y11862340D01*
X36947573Y11840210D01*
X36937861Y11835949D01*
X36888040Y11825500D01*
X36127610Y11825500D01*
X36060571Y11845185D01*
X36039929Y11861819D01*
X32901745Y15000003D01*
X33944751Y15000003D01*
X33944751Y14999998D01*
X33963685Y14831944D01*
X34019545Y14672306D01*
X34019547Y14672303D01*
X34109518Y14529116D01*
X34109523Y14529110D01*
X34229109Y14409524D01*
X34229115Y14409519D01*
X34372302Y14319548D01*
X34372305Y14319546D01*
X34372309Y14319545D01*
X34372310Y14319544D01*
X34531938Y14263688D01*
X34531944Y14263686D01*
X34699997Y14244751D01*
X34700000Y14244751D01*
X34768150Y14252431D01*
X34779050Y14253152D01*
X34779327Y14253181D01*
X34779334Y14253181D01*
X34781679Y14253622D01*
X34790636Y14254965D01*
X34868059Y14263687D01*
X34896941Y14273794D01*
X34915030Y14278625D01*
X35548376Y14397377D01*
X35571226Y14399500D01*
X38213331Y14399500D01*
X38213347Y14399499D01*
X38220943Y14399499D01*
X38379054Y14399499D01*
X38379057Y14399499D01*
X38531785Y14440423D01*
X38531787Y14440425D01*
X38531789Y14440425D01*
X38531790Y14440426D01*
X38584308Y14470747D01*
X38584309Y14470748D01*
X38668716Y14519480D01*
X38780520Y14631284D01*
X38780520Y14631286D01*
X38790724Y14641489D01*
X38790728Y14641494D01*
X42058506Y17909272D01*
X42058511Y17909276D01*
X42068714Y17919480D01*
X42068716Y17919480D01*
X42180520Y18031284D01*
X42254554Y18159515D01*
X42259577Y18168215D01*
X42300500Y18320943D01*
X42300500Y18479057D01*
X42300500Y20328770D01*
X42302624Y20351617D01*
X42375535Y20740485D01*
X42421375Y20984970D01*
X42426209Y21003068D01*
X42436313Y21031941D01*
X42445036Y21109372D01*
X42446381Y21118334D01*
X42446819Y21120668D01*
X42449564Y21140210D01*
X42451347Y21152899D01*
X42451547Y21155026D01*
X42451690Y21163420D01*
X42452452Y21175183D01*
X42455249Y21200001D01*
X42455249Y21200003D01*
X42436314Y21368056D01*
X42411582Y21438737D01*
X42380456Y21527690D01*
X42380455Y21527691D01*
X42380454Y21527695D01*
X42380452Y21527698D01*
X42290481Y21670885D01*
X42290476Y21670891D01*
X42170890Y21790477D01*
X42170884Y21790482D01*
X42027697Y21880453D01*
X42027694Y21880455D01*
X41868056Y21936315D01*
X41700003Y21955249D01*
X41699997Y21955249D01*
X41531943Y21936315D01*
X41372305Y21880455D01*
X41372302Y21880453D01*
X41229115Y21790482D01*
X41229109Y21790477D01*
X41109523Y21670891D01*
X41109518Y21670885D01*
X41019547Y21527698D01*
X41019545Y21527695D01*
X40963685Y21368057D01*
X40944751Y21200004D01*
X40944751Y21200000D01*
X40949818Y21155026D01*
X40952429Y21131851D01*
X40953153Y21120917D01*
X40953179Y21120663D01*
X40953625Y21118285D01*
X40954964Y21109347D01*
X40963687Y21031940D01*
X40973789Y21003069D01*
X40978622Y20984969D01*
X41024464Y20740483D01*
X41097376Y20351617D01*
X41099500Y20328770D01*
X41099500Y18700097D01*
X41079815Y18633058D01*
X41063181Y18612416D01*
X38087584Y15636819D01*
X38026261Y15603334D01*
X37999903Y15600500D01*
X35571237Y15600500D01*
X35548385Y15602624D01*
X34915028Y15721378D01*
X34896927Y15726212D01*
X34868059Y15736313D01*
X34790656Y15745035D01*
X34781710Y15746376D01*
X34780440Y15746614D01*
X34779334Y15746821D01*
X34779321Y15746823D01*
X34752985Y15750518D01*
X34746979Y15751360D01*
X34746976Y15751361D01*
X34746964Y15751362D01*
X34744849Y15751560D01*
X34744854Y15751560D01*
X34736507Y15751701D01*
X34724730Y15752463D01*
X34700003Y15755249D01*
X34699997Y15755249D01*
X34531943Y15736315D01*
X34372305Y15680455D01*
X34372302Y15680453D01*
X34229115Y15590482D01*
X34229109Y15590477D01*
X34109523Y15470891D01*
X34109518Y15470885D01*
X34019547Y15327698D01*
X34019545Y15327695D01*
X33963685Y15168057D01*
X33944751Y15000003D01*
X32901745Y15000003D01*
X31661265Y16240483D01*
X31661263Y16240485D01*
X31564237Y16296503D01*
X31456018Y16325500D01*
X31456017Y16325500D01*
X24511959Y16325500D01*
X24462139Y16335949D01*
X23987775Y16544076D01*
X23985668Y16544991D01*
X23985648Y16545000D01*
X23985493Y16545067D01*
X23985298Y16545151D01*
X23985289Y16545155D01*
X23985274Y16545161D01*
X23964346Y16553278D01*
X23951563Y16559088D01*
X23950226Y16559790D01*
X23785056Y16600500D01*
X23614944Y16600500D01*
X23449773Y16559790D01*
X23299150Y16480737D01*
X23182638Y16377516D01*
X23172882Y16368872D01*
X23171816Y16367928D01*
X23075182Y16227932D01*
X23014860Y16068875D01*
X23014859Y16068870D01*
X22994355Y15900000D01*
X23014859Y15731131D01*
X23014860Y15731126D01*
X23075182Y15572069D01*
X23125274Y15499500D01*
X23171817Y15432071D01*
X23277505Y15338440D01*
X23299150Y15319264D01*
X23419909Y15255885D01*
X23449775Y15240210D01*
X23614944Y15199500D01*
X23698390Y15199500D01*
X23765429Y15179815D01*
X23811184Y15127011D01*
X23821128Y15057853D01*
X23792103Y14994297D01*
X23786071Y14987819D01*
X23263622Y14465371D01*
X23202299Y14431886D01*
X23132607Y14436870D01*
X23126143Y14439492D01*
X22943827Y14519482D01*
X22887668Y14544122D01*
X22885668Y14544991D01*
X22885648Y14545000D01*
X22885493Y14545067D01*
X22885298Y14545151D01*
X22885289Y14545155D01*
X22885274Y14545161D01*
X22864346Y14553278D01*
X22851563Y14559088D01*
X22850226Y14559790D01*
X22685056Y14600500D01*
X22514944Y14600500D01*
X22349773Y14559790D01*
X22199150Y14480737D01*
X22107453Y14399500D01*
X22072882Y14368872D01*
X22071816Y14367928D01*
X21975182Y14227932D01*
X21914860Y14068875D01*
X21914859Y14068870D01*
X21894355Y13900000D01*
X21914859Y13731131D01*
X21914860Y13731126D01*
X21975182Y13572069D01*
X22071818Y13432070D01*
X22173130Y13342315D01*
X22210257Y13283126D01*
X22209489Y13213260D01*
X22171071Y13154901D01*
X22107201Y13126576D01*
X22090903Y13125500D01*
X20827610Y13125500D01*
X20760571Y13145185D01*
X20739929Y13161819D01*
X18861819Y15039929D01*
X18828334Y15101252D01*
X18825500Y15127610D01*
X18825500Y22300000D01*
X49894355Y22300000D01*
X49914859Y22131131D01*
X49914860Y22131126D01*
X49975182Y21972069D01*
X49999862Y21936315D01*
X50071817Y21832071D01*
X50177505Y21738440D01*
X50199150Y21719264D01*
X50349773Y21640211D01*
X50349775Y21640210D01*
X50514944Y21599500D01*
X50685056Y21599500D01*
X50850225Y21640210D01*
X50929692Y21681919D01*
X51000849Y21719264D01*
X51000850Y21719266D01*
X51000852Y21719266D01*
X51128183Y21832071D01*
X51224818Y21972070D01*
X51285140Y22131128D01*
X51293503Y22200000D01*
X52394355Y22200000D01*
X52414859Y22031131D01*
X52414860Y22031126D01*
X52475182Y21872069D01*
X52531502Y21790477D01*
X52571817Y21732071D01*
X52640882Y21670885D01*
X52699150Y21619264D01*
X52813048Y21559486D01*
X52849775Y21540210D01*
X53014944Y21499500D01*
X53185056Y21499500D01*
X53350225Y21540210D01*
X53451169Y21593190D01*
X53500849Y21619264D01*
X53500850Y21619266D01*
X53500852Y21619266D01*
X53628183Y21732071D01*
X53724818Y21872070D01*
X53785140Y22031128D01*
X53805645Y22200000D01*
X53785140Y22368872D01*
X53780641Y22380734D01*
X53747214Y22468875D01*
X53724818Y22527930D01*
X53706260Y22554815D01*
X53674207Y22601252D01*
X53628183Y22667929D01*
X53515306Y22767929D01*
X53500849Y22780737D01*
X53350226Y22859790D01*
X53185056Y22900500D01*
X53014944Y22900500D01*
X52849773Y22859790D01*
X52699150Y22780737D01*
X52571816Y22667928D01*
X52475182Y22527932D01*
X52414860Y22368875D01*
X52414859Y22368870D01*
X52394355Y22200000D01*
X51293503Y22200000D01*
X51305645Y22300000D01*
X51285140Y22468872D01*
X51224818Y22627930D01*
X51197208Y22667929D01*
X51156835Y22726419D01*
X51128183Y22767929D01*
X51024351Y22859916D01*
X51000849Y22880737D01*
X50850226Y22959790D01*
X50685056Y23000500D01*
X50514944Y23000500D01*
X50349773Y22959790D01*
X50199150Y22880737D01*
X50071816Y22767928D01*
X49975182Y22627932D01*
X49914860Y22468875D01*
X49914859Y22468870D01*
X49894355Y22300000D01*
X18825500Y22300000D01*
X18825500Y23156016D01*
X18825500Y23156018D01*
X18796503Y23264237D01*
X18740485Y23361263D01*
X18661263Y23440485D01*
X17361263Y24740485D01*
X17264237Y24796503D01*
X17156018Y24825500D01*
X17156017Y24825500D01*
X15127610Y24825500D01*
X15060571Y24845185D01*
X15039929Y24861819D01*
X11961819Y27939929D01*
X11928334Y28001252D01*
X11925500Y28027610D01*
X11925500Y30360001D01*
X28119357Y30360001D01*
X28119357Y30360000D01*
X28139884Y30138465D01*
X28139885Y30138463D01*
X28200769Y29924477D01*
X28200775Y29924462D01*
X28299938Y29725317D01*
X28299943Y29725309D01*
X28434020Y29547762D01*
X28598437Y29397877D01*
X28598439Y29397875D01*
X28787595Y29280755D01*
X28787596Y29280755D01*
X28787599Y29280753D01*
X28981524Y29205626D01*
X29036924Y29163054D01*
X29060515Y29097287D01*
X29044804Y29029207D01*
X28994780Y28980428D01*
X28981533Y28974378D01*
X28833488Y28917025D01*
X28787601Y28899248D01*
X28787595Y28899246D01*
X28598439Y28782126D01*
X28598437Y28782124D01*
X28434020Y28632239D01*
X28299943Y28454692D01*
X28299938Y28454684D01*
X28200775Y28255539D01*
X28200769Y28255524D01*
X28139885Y28041538D01*
X28139884Y28041536D01*
X28119357Y27820001D01*
X28119357Y27820000D01*
X28139884Y27598465D01*
X28139885Y27598463D01*
X28200769Y27384477D01*
X28200775Y27384462D01*
X28299938Y27185317D01*
X28299943Y27185309D01*
X28434020Y27007762D01*
X28598437Y26857877D01*
X28598439Y26857875D01*
X28787595Y26740755D01*
X28787596Y26740755D01*
X28787599Y26740753D01*
X28981524Y26665626D01*
X29036924Y26623054D01*
X29060515Y26557287D01*
X29044804Y26489207D01*
X28994780Y26440428D01*
X28981533Y26434378D01*
X28833488Y26377025D01*
X28787601Y26359248D01*
X28787595Y26359246D01*
X28598439Y26242126D01*
X28598437Y26242124D01*
X28434020Y26092239D01*
X28299943Y25914692D01*
X28299938Y25914684D01*
X28200775Y25715539D01*
X28200769Y25715524D01*
X28139885Y25501538D01*
X28139884Y25501536D01*
X28119357Y25280001D01*
X28119357Y25280000D01*
X28139884Y25058465D01*
X28139885Y25058463D01*
X28200769Y24844477D01*
X28200775Y24844462D01*
X28299938Y24645317D01*
X28299943Y24645309D01*
X28434020Y24467762D01*
X28598437Y24317877D01*
X28598439Y24317875D01*
X28787595Y24200755D01*
X28787596Y24200755D01*
X28787599Y24200753D01*
X28995060Y24120382D01*
X29213757Y24079500D01*
X29213759Y24079500D01*
X29436241Y24079500D01*
X29436243Y24079500D01*
X29654940Y24120382D01*
X29862401Y24200753D01*
X30051562Y24317876D01*
X30215981Y24467764D01*
X30350058Y24645311D01*
X30449229Y24844472D01*
X30475734Y24937629D01*
X30513013Y24996722D01*
X30576323Y25026279D01*
X30645562Y25016917D01*
X30698749Y24971607D01*
X30714266Y24937628D01*
X30740769Y24844477D01*
X30740775Y24844462D01*
X30839938Y24645317D01*
X30839943Y24645309D01*
X30974020Y24467762D01*
X31138437Y24317877D01*
X31138439Y24317875D01*
X31327595Y24200755D01*
X31327596Y24200755D01*
X31327599Y24200753D01*
X31535060Y24120382D01*
X31753757Y24079500D01*
X31753759Y24079500D01*
X31976241Y24079500D01*
X31976243Y24079500D01*
X32194940Y24120382D01*
X32402401Y24200753D01*
X32591562Y24317876D01*
X32755981Y24467764D01*
X32890058Y24645311D01*
X32989229Y24844472D01*
X33050115Y25058464D01*
X33070643Y25280000D01*
X33068789Y25300003D01*
X37244751Y25300003D01*
X37244751Y25299998D01*
X37263685Y25131944D01*
X37319545Y24972306D01*
X37319547Y24972303D01*
X37409518Y24829116D01*
X37409523Y24829110D01*
X37529109Y24709524D01*
X37529115Y24709519D01*
X37672302Y24619548D01*
X37672305Y24619546D01*
X37672309Y24619545D01*
X37672310Y24619544D01*
X37716838Y24603963D01*
X37831943Y24563686D01*
X37999997Y24544751D01*
X38000000Y24544751D01*
X38000003Y24544751D01*
X38168056Y24563686D01*
X38168059Y24563687D01*
X38327690Y24619544D01*
X38327692Y24619546D01*
X38327694Y24619546D01*
X38327697Y24619548D01*
X38470884Y24709519D01*
X38470885Y24709520D01*
X38470890Y24709523D01*
X38590477Y24829110D01*
X38594779Y24835956D01*
X38680452Y24972303D01*
X38680454Y24972306D01*
X38680454Y24972308D01*
X38680456Y24972310D01*
X38736313Y25131941D01*
X38736313Y25131942D01*
X38736314Y25131944D01*
X38755249Y25299998D01*
X38755249Y25300003D01*
X38736314Y25468057D01*
X38702994Y25563279D01*
X38680456Y25627690D01*
X38680455Y25627691D01*
X38680454Y25627695D01*
X38680452Y25627698D01*
X38676957Y25633261D01*
X42249500Y25633261D01*
X42249500Y24366740D01*
X42259426Y24298609D01*
X42310803Y24193515D01*
X42393514Y24110804D01*
X42393515Y24110804D01*
X42393517Y24110802D01*
X42498607Y24059427D01*
X42532673Y24054464D01*
X42566739Y24049500D01*
X42566740Y24049500D01*
X43833261Y24049500D01*
X43855971Y24052809D01*
X43901393Y24059427D01*
X44006483Y24110802D01*
X44089198Y24193517D01*
X44140573Y24298607D01*
X44150500Y24366740D01*
X44150500Y25000001D01*
X45595287Y25000001D01*
X45595287Y25000000D01*
X45614096Y24797011D01*
X45614097Y24797008D01*
X45669883Y24600937D01*
X45669886Y24600931D01*
X45760751Y24418449D01*
X45762533Y24416089D01*
X46278274Y24931829D01*
X46303963Y24835956D01*
X46359916Y24739044D01*
X46439044Y24659916D01*
X46535956Y24603963D01*
X46631827Y24578275D01*
X46119311Y24065760D01*
X46207585Y24011103D01*
X46397678Y23937461D01*
X46598072Y23900000D01*
X46801928Y23900000D01*
X47002322Y23937461D01*
X47192412Y24011101D01*
X47192416Y24011103D01*
X47280686Y24065759D01*
X47280686Y24065760D01*
X46768173Y24578275D01*
X46864044Y24603963D01*
X46960956Y24659916D01*
X47040084Y24739044D01*
X47096037Y24835956D01*
X47121725Y24931828D01*
X47637465Y24416088D01*
X47639247Y24418447D01*
X47639248Y24418449D01*
X47730113Y24600931D01*
X47730116Y24600937D01*
X47785902Y24797008D01*
X47785903Y24797011D01*
X47804713Y25000000D01*
X47804713Y25000001D01*
X47785903Y25202990D01*
X47785902Y25202993D01*
X47730116Y25399064D01*
X47730113Y25399070D01*
X47639249Y25581551D01*
X47639247Y25581553D01*
X47637465Y25583913D01*
X47121725Y25068173D01*
X47096037Y25164044D01*
X47040084Y25260956D01*
X46960956Y25340084D01*
X46864044Y25396037D01*
X46768172Y25421726D01*
X47280687Y25934242D01*
X47192413Y25988899D01*
X47192411Y25988900D01*
X47002321Y26062540D01*
X46801928Y26100000D01*
X46598072Y26100000D01*
X46397678Y26062540D01*
X46207588Y25988900D01*
X46207581Y25988896D01*
X46119312Y25934243D01*
X46119311Y25934242D01*
X46631828Y25421726D01*
X46535956Y25396037D01*
X46439044Y25340084D01*
X46359916Y25260956D01*
X46303963Y25164044D01*
X46278274Y25068172D01*
X45762533Y25583913D01*
X45760755Y25581558D01*
X45760754Y25581557D01*
X45669886Y25399070D01*
X45669883Y25399064D01*
X45614097Y25202993D01*
X45614096Y25202990D01*
X45595287Y25000001D01*
X44150500Y25000001D01*
X44150500Y25633260D01*
X44140573Y25701393D01*
X44089198Y25806483D01*
X44089196Y25806485D01*
X44089196Y25806486D01*
X44006485Y25889197D01*
X44003856Y25890482D01*
X43901393Y25940573D01*
X43901391Y25940574D01*
X43833261Y25950500D01*
X43833260Y25950500D01*
X42566740Y25950500D01*
X42566739Y25950500D01*
X42498608Y25940574D01*
X42393514Y25889197D01*
X42310803Y25806486D01*
X42259426Y25701392D01*
X42249500Y25633261D01*
X38676957Y25633261D01*
X38590481Y25770885D01*
X38590476Y25770891D01*
X38470890Y25890477D01*
X38470884Y25890482D01*
X38327697Y25980453D01*
X38327694Y25980455D01*
X38168056Y26036315D01*
X38000003Y26055249D01*
X37999997Y26055249D01*
X37831943Y26036315D01*
X37672305Y25980455D01*
X37672302Y25980453D01*
X37529115Y25890482D01*
X37529109Y25890477D01*
X37409523Y25770891D01*
X37409518Y25770885D01*
X37319547Y25627698D01*
X37319545Y25627695D01*
X37263685Y25468057D01*
X37244751Y25300003D01*
X33068789Y25300003D01*
X33050115Y25501536D01*
X33050114Y25501538D01*
X33038293Y25543084D01*
X32989229Y25715528D01*
X32983806Y25726419D01*
X32890061Y25914684D01*
X32890056Y25914692D01*
X32755979Y26092239D01*
X32591562Y26242124D01*
X32591560Y26242126D01*
X32402404Y26359246D01*
X32402395Y26359250D01*
X32308956Y26395448D01*
X32208475Y26434375D01*
X32153075Y26476946D01*
X32129484Y26542712D01*
X32145195Y26610793D01*
X32195219Y26659572D01*
X32208466Y26665623D01*
X32402401Y26740753D01*
X32591562Y26857876D01*
X32755981Y27007764D01*
X32890058Y27185311D01*
X32989229Y27384472D01*
X33050115Y27598464D01*
X33070643Y27820000D01*
X33067305Y27856018D01*
X33050115Y28041536D01*
X33050114Y28041538D01*
X33042605Y28067928D01*
X32989229Y28255528D01*
X32967886Y28298391D01*
X32890061Y28454684D01*
X32890056Y28454692D01*
X32755979Y28632239D01*
X32591562Y28782124D01*
X32591560Y28782126D01*
X32402404Y28899246D01*
X32402395Y28899250D01*
X32308956Y28935448D01*
X32208475Y28974375D01*
X32153075Y29016946D01*
X32129484Y29082712D01*
X32145195Y29150793D01*
X32195219Y29199572D01*
X32208466Y29205623D01*
X32402401Y29280753D01*
X32591562Y29397876D01*
X32755981Y29547764D01*
X32890058Y29725311D01*
X32989229Y29924472D01*
X33050115Y30138464D01*
X33070643Y30360000D01*
X33068741Y30380521D01*
X33050115Y30581536D01*
X33050114Y30581538D01*
X33038293Y30623084D01*
X32989229Y30795528D01*
X32957368Y30859514D01*
X32890061Y30994684D01*
X32890056Y30994692D01*
X32755979Y31172239D01*
X32591562Y31322124D01*
X32591560Y31322126D01*
X32402404Y31439246D01*
X32402395Y31439250D01*
X32308956Y31475448D01*
X32208475Y31514375D01*
X32153075Y31556946D01*
X32129484Y31622712D01*
X32145195Y31690793D01*
X32195219Y31739572D01*
X32208466Y31745623D01*
X32402401Y31820753D01*
X32591562Y31937876D01*
X32755981Y32087764D01*
X32890058Y32265311D01*
X32989229Y32464472D01*
X33050115Y32678464D01*
X33070643Y32900000D01*
X33050115Y33121536D01*
X33027789Y33200003D01*
X33744751Y33200003D01*
X33744751Y33199998D01*
X33763685Y33031944D01*
X33819545Y32872306D01*
X33819547Y32872303D01*
X33909518Y32729116D01*
X33909523Y32729110D01*
X34029109Y32609524D01*
X34029112Y32609522D01*
X34036319Y32604993D01*
X34082610Y32552658D01*
X34093257Y32483604D01*
X34064881Y32419756D01*
X34036319Y32395007D01*
X34029112Y32390479D01*
X34029109Y32390477D01*
X33909523Y32270891D01*
X33909518Y32270885D01*
X33819547Y32127698D01*
X33819545Y32127695D01*
X33763685Y31968057D01*
X33744751Y31800003D01*
X33744751Y31799998D01*
X33763685Y31631944D01*
X33819545Y31472306D01*
X33819547Y31472303D01*
X33909518Y31329116D01*
X33909523Y31329110D01*
X34029109Y31209524D01*
X34029115Y31209519D01*
X34172302Y31119548D01*
X34172305Y31119546D01*
X34172309Y31119545D01*
X34172310Y31119544D01*
X34244913Y31094140D01*
X34331943Y31063686D01*
X34499997Y31044751D01*
X34500000Y31044751D01*
X34500003Y31044751D01*
X34668056Y31063686D01*
X34668059Y31063687D01*
X34827690Y31119544D01*
X34827692Y31119546D01*
X34827694Y31119546D01*
X34827697Y31119548D01*
X34970884Y31209519D01*
X34970885Y31209520D01*
X34970890Y31209523D01*
X35090477Y31329110D01*
X35102536Y31348302D01*
X35180452Y31472303D01*
X35180454Y31472306D01*
X35180454Y31472308D01*
X35180456Y31472310D01*
X35236313Y31631941D01*
X35236313Y31631942D01*
X35236314Y31631944D01*
X35255249Y31799998D01*
X35255249Y31800003D01*
X35236314Y31968057D01*
X35180454Y32127695D01*
X35180452Y32127698D01*
X35090481Y32270885D01*
X35090476Y32270891D01*
X34970890Y32390477D01*
X34970887Y32390479D01*
X34963682Y32395007D01*
X34917391Y32447338D01*
X34906741Y32516391D01*
X34935115Y32580240D01*
X34963680Y32604994D01*
X34970890Y32609523D01*
X35090477Y32729110D01*
X35146991Y32819051D01*
X35180452Y32872303D01*
X35180454Y32872306D01*
X35180454Y32872308D01*
X35180456Y32872310D01*
X35236313Y33031941D01*
X35236313Y33031942D01*
X35236314Y33031944D01*
X35255249Y33199998D01*
X35255249Y33200003D01*
X35236314Y33368057D01*
X35183306Y33519544D01*
X35180456Y33527690D01*
X35180455Y33527691D01*
X35180454Y33527695D01*
X35180452Y33527698D01*
X35090481Y33670885D01*
X35090476Y33670891D01*
X34970890Y33790477D01*
X34970884Y33790482D01*
X34827697Y33880453D01*
X34827694Y33880455D01*
X34668056Y33936315D01*
X34500003Y33955249D01*
X34499997Y33955249D01*
X34331943Y33936315D01*
X34172305Y33880455D01*
X34172302Y33880453D01*
X34029115Y33790482D01*
X34029109Y33790477D01*
X33909523Y33670891D01*
X33909518Y33670885D01*
X33819547Y33527698D01*
X33819545Y33527695D01*
X33763685Y33368057D01*
X33744751Y33200003D01*
X33027789Y33200003D01*
X32989229Y33335528D01*
X32989224Y33335539D01*
X32890061Y33534684D01*
X32890056Y33534692D01*
X32755979Y33712239D01*
X32591562Y33862124D01*
X32591560Y33862126D01*
X32402404Y33979246D01*
X32402398Y33979248D01*
X32194940Y34059618D01*
X31976243Y34100500D01*
X31753757Y34100500D01*
X31535060Y34059618D01*
X31463618Y34031941D01*
X31327601Y33979248D01*
X31327595Y33979246D01*
X31138439Y33862126D01*
X31138437Y33862124D01*
X30974020Y33712239D01*
X30839943Y33534692D01*
X30839938Y33534684D01*
X30760500Y33375150D01*
X30712997Y33323913D01*
X30645334Y33306492D01*
X30578994Y33328418D01*
X30535039Y33382729D01*
X30525500Y33430422D01*
X30525500Y33783261D01*
X30515573Y33851392D01*
X30515573Y33851393D01*
X30464198Y33956483D01*
X30464196Y33956485D01*
X30464196Y33956486D01*
X30381485Y34039197D01*
X30372838Y34043424D01*
X30276393Y34090573D01*
X30276391Y34090574D01*
X30208261Y34100500D01*
X30208260Y34100500D01*
X28441740Y34100500D01*
X28441739Y34100500D01*
X28373608Y34090574D01*
X28268514Y34039197D01*
X28185803Y33956486D01*
X28134426Y33851392D01*
X28124500Y33783261D01*
X28124500Y32016740D01*
X28134426Y31948609D01*
X28185803Y31843515D01*
X28268514Y31760804D01*
X28268515Y31760804D01*
X28268517Y31760802D01*
X28373607Y31709427D01*
X28407673Y31704464D01*
X28441739Y31699500D01*
X28796047Y31699500D01*
X28863086Y31679815D01*
X28908841Y31627011D01*
X28918785Y31557853D01*
X28889760Y31494297D01*
X28840841Y31459873D01*
X28787601Y31439249D01*
X28787595Y31439246D01*
X28598439Y31322126D01*
X28598437Y31322124D01*
X28434020Y31172239D01*
X28299943Y30994692D01*
X28299938Y30994684D01*
X28200775Y30795539D01*
X28200769Y30795524D01*
X28139885Y30581538D01*
X28139884Y30581536D01*
X28119357Y30360001D01*
X11925500Y30360001D01*
X11925500Y33400003D01*
X17644751Y33400003D01*
X17644751Y33399998D01*
X17663685Y33231944D01*
X17719545Y33072306D01*
X17719547Y33072303D01*
X17809518Y32929116D01*
X17809523Y32929110D01*
X17929109Y32809524D01*
X17929115Y32809519D01*
X18072302Y32719548D01*
X18072305Y32719546D01*
X18072309Y32719545D01*
X18072310Y32719544D01*
X18144913Y32694140D01*
X18231943Y32663686D01*
X18399997Y32644751D01*
X18400000Y32644751D01*
X18400003Y32644751D01*
X18568056Y32663686D01*
X18582877Y32668872D01*
X18727690Y32719544D01*
X18727692Y32719546D01*
X18727694Y32719546D01*
X18727697Y32719548D01*
X18870884Y32809519D01*
X18870885Y32809520D01*
X18870890Y32809523D01*
X18990477Y32929110D01*
X19051635Y33026444D01*
X19054240Y33030416D01*
X19426018Y33573784D01*
X19440664Y33591431D01*
X20812416Y34963181D01*
X20873739Y34996666D01*
X20900097Y34999500D01*
X43499903Y34999500D01*
X43566942Y34979815D01*
X43587584Y34963181D01*
X49015139Y29535626D01*
X49015149Y29535615D01*
X49019479Y29531285D01*
X49019480Y29531284D01*
X49131284Y29419480D01*
X49218095Y29369361D01*
X49218097Y29369359D01*
X49268213Y29340424D01*
X49268215Y29340423D01*
X49420942Y29299500D01*
X49420943Y29299500D01*
X54499903Y29299500D01*
X54566942Y29279815D01*
X54587584Y29263181D01*
X55563181Y28287584D01*
X55596666Y28226261D01*
X55599500Y28199903D01*
X55599500Y20186670D01*
X55599499Y20186652D01*
X55599499Y20020946D01*
X55599498Y20020946D01*
X55640423Y19868214D01*
X55640424Y19868213D01*
X55663137Y19828873D01*
X55719480Y19731284D01*
X55719482Y19731282D01*
X55838349Y19612415D01*
X55838355Y19612410D01*
X58015139Y17435626D01*
X58015149Y17435615D01*
X58019479Y17431285D01*
X58019480Y17431284D01*
X58131284Y17319480D01*
X58218095Y17269361D01*
X58218097Y17269359D01*
X58268213Y17240424D01*
X58268215Y17240423D01*
X58420942Y17199500D01*
X58420943Y17199500D01*
X61413331Y17199500D01*
X61413347Y17199499D01*
X61420943Y17199499D01*
X61579054Y17199499D01*
X61579057Y17199499D01*
X61731785Y17240423D01*
X61781904Y17269361D01*
X61868716Y17319480D01*
X61980520Y17431284D01*
X61980520Y17431286D01*
X61990728Y17441493D01*
X61990730Y17441496D01*
X63082450Y18533217D01*
X63099283Y18546635D01*
X63099115Y18546859D01*
X63214046Y18633058D01*
X63575590Y18904218D01*
X63592356Y18914808D01*
X63600852Y18919266D01*
X63625744Y18941320D01*
X63633541Y18947681D01*
X63650026Y18960043D01*
X63669287Y18975565D01*
X63670516Y18976628D01*
X63703746Y19009422D01*
X63703746Y19009423D01*
X63708854Y19014463D01*
X63709061Y19014253D01*
X63714402Y19019863D01*
X63728183Y19032071D01*
X63824818Y19172070D01*
X63885140Y19331128D01*
X63905645Y19500000D01*
X63885140Y19668872D01*
X63824818Y19827930D01*
X63797012Y19868213D01*
X63790476Y19877682D01*
X63728183Y19967929D01*
X63600852Y20080734D01*
X63600849Y20080737D01*
X63450226Y20159790D01*
X63285056Y20200500D01*
X63114944Y20200500D01*
X62949773Y20159790D01*
X62799150Y20080737D01*
X62671817Y19967930D01*
X62671816Y19967928D01*
X62654121Y19942294D01*
X62651274Y19938339D01*
X62327269Y19506331D01*
X62268385Y19427818D01*
X62246943Y19399229D01*
X62246744Y19399378D01*
X62233219Y19382456D01*
X61287584Y18436819D01*
X61226261Y18403334D01*
X61199903Y18400500D01*
X58800097Y18400500D01*
X58733058Y18420185D01*
X58712416Y18436819D01*
X56836819Y20312416D01*
X56803334Y20373739D01*
X56800500Y20400097D01*
X56800500Y23500000D01*
X60994355Y23500000D01*
X61014859Y23331131D01*
X61014859Y23331130D01*
X61026631Y23300088D01*
X61041870Y23259905D01*
X61045251Y23250992D01*
X61049510Y23237476D01*
X61055882Y23212323D01*
X61055885Y23212316D01*
X61105383Y23099500D01*
X61264051Y22737861D01*
X61274500Y22688042D01*
X61274500Y22456018D01*
X61274500Y22343982D01*
X61303497Y22235763D01*
X61359515Y22138737D01*
X62059515Y21438737D01*
X62138737Y21359515D01*
X62186715Y21331815D01*
X62235763Y21303497D01*
X62343981Y21274500D01*
X62343982Y21274500D01*
X71030448Y21274500D01*
X71097487Y21254815D01*
X71118129Y21238181D01*
X72217573Y20138737D01*
X72296795Y20059515D01*
X72393821Y20003497D01*
X72502040Y19974500D01*
X75372390Y19974500D01*
X75439429Y19954815D01*
X75460071Y19938181D01*
X75624984Y19773268D01*
X75652823Y19730654D01*
X75667788Y19692293D01*
X75667789Y19692292D01*
X75841105Y19248002D01*
X75842364Y19244815D01*
X75842419Y19244679D01*
X75842427Y19244661D01*
X75842433Y19244646D01*
X75852595Y19221688D01*
X75852597Y19221686D01*
X75852598Y19221683D01*
X75855674Y19216273D01*
X75855316Y19216070D01*
X75866319Y19195439D01*
X75875182Y19172070D01*
X75971817Y19032071D01*
X76073072Y18942367D01*
X76099150Y18919264D01*
X76215721Y18858083D01*
X76249775Y18840210D01*
X76414944Y18799500D01*
X76585056Y18799500D01*
X76750225Y18840210D01*
X76829692Y18881919D01*
X76900849Y18919264D01*
X76900850Y18919266D01*
X76900852Y18919266D01*
X77028183Y19032071D01*
X77124818Y19172070D01*
X77185140Y19331128D01*
X77205645Y19500000D01*
X77185140Y19668872D01*
X77124818Y19827930D01*
X77097012Y19868213D01*
X77090476Y19877682D01*
X77028183Y19967929D01*
X76900852Y20080734D01*
X76900850Y20080735D01*
X76900849Y20080736D01*
X76900845Y20080739D01*
X76755560Y20156991D01*
X76753179Y20158323D01*
X76752521Y20158644D01*
X76750349Y20159744D01*
X76743215Y20162450D01*
X76743219Y20162462D01*
X76741281Y20163077D01*
X76666773Y20192142D01*
X76666760Y20192146D01*
X76269347Y20347177D01*
X76226731Y20375017D01*
X75861265Y20740483D01*
X75861263Y20740485D01*
X75764237Y20796503D01*
X75656018Y20825500D01*
X75656017Y20825500D01*
X72785668Y20825500D01*
X72718629Y20845185D01*
X72697987Y20861819D01*
X72658831Y20900975D01*
X72625346Y20962298D01*
X72630330Y21031990D01*
X72672202Y21087923D01*
X72737666Y21112340D01*
X72776184Y21109054D01*
X72814944Y21099500D01*
X72814946Y21099500D01*
X72985056Y21099500D01*
X73150225Y21140210D01*
X73264152Y21200004D01*
X73300849Y21219264D01*
X73300850Y21219266D01*
X73300852Y21219266D01*
X73428183Y21332071D01*
X73524818Y21472070D01*
X73585140Y21631128D01*
X73605645Y21800000D01*
X73585140Y21968872D01*
X73524818Y22127930D01*
X73522608Y22131131D01*
X73450387Y22235761D01*
X73428183Y22267929D01*
X73314244Y22368870D01*
X73300849Y22380737D01*
X73150226Y22459790D01*
X72985056Y22500500D01*
X72814944Y22500500D01*
X72649773Y22459790D01*
X72499150Y22380737D01*
X72371816Y22267928D01*
X72275182Y22127932D01*
X72214860Y21968875D01*
X72214859Y21968870D01*
X72194355Y21800000D01*
X72211097Y21662113D01*
X72199636Y21593190D01*
X72152732Y21541404D01*
X72085277Y21523197D01*
X72018686Y21544350D01*
X72000320Y21559486D01*
X71519323Y22040483D01*
X71519321Y22040485D01*
X71422295Y22096503D01*
X71314076Y22125500D01*
X71314075Y22125500D01*
X62627610Y22125500D01*
X62560571Y22145185D01*
X62539929Y22161819D01*
X62161819Y22539929D01*
X62128334Y22601252D01*
X62125500Y22627610D01*
X62125500Y22688041D01*
X62135948Y22737861D01*
X62154095Y22779222D01*
X62344115Y23212320D01*
X62345066Y23214507D01*
X62345150Y23214702D01*
X62346920Y23219264D01*
X62348562Y23223501D01*
X62354594Y23239052D01*
X62356105Y23247971D01*
X62362421Y23271222D01*
X62385139Y23331123D01*
X62385139Y23331125D01*
X62385139Y23331126D01*
X62385140Y23331128D01*
X62405645Y23500000D01*
X64794355Y23500000D01*
X64814859Y23331131D01*
X64814860Y23331126D01*
X64875182Y23172069D01*
X64925274Y23099500D01*
X64971817Y23032071D01*
X65076823Y22939044D01*
X65099150Y22919264D01*
X65249773Y22840211D01*
X65249775Y22840210D01*
X65414944Y22799500D01*
X65585056Y22799500D01*
X65750225Y22840210D01*
X65865097Y22900500D01*
X65900849Y22919264D01*
X65900850Y22919266D01*
X65900852Y22919266D01*
X66028183Y23032071D01*
X66124818Y23172070D01*
X66185140Y23331128D01*
X66205645Y23500000D01*
X66185140Y23668872D01*
X66135410Y23800000D01*
X69594355Y23800000D01*
X69614859Y23631131D01*
X69614860Y23631126D01*
X69675182Y23472069D01*
X69707327Y23425500D01*
X69771817Y23332071D01*
X69840502Y23271222D01*
X69899150Y23219264D01*
X70042462Y23144048D01*
X70049775Y23140210D01*
X70214944Y23099500D01*
X70385056Y23099500D01*
X70550225Y23140210D01*
X70629692Y23181919D01*
X70700849Y23219264D01*
X70700850Y23219266D01*
X70700852Y23219266D01*
X70828183Y23332071D01*
X70924818Y23472070D01*
X70985140Y23631128D01*
X71005645Y23800000D01*
X70985140Y23968872D01*
X70924818Y24127930D01*
X70920460Y24134243D01*
X70874726Y24200500D01*
X70828183Y24267929D01*
X70700852Y24380734D01*
X70700849Y24380737D01*
X70550226Y24459790D01*
X70385056Y24500500D01*
X70214944Y24500500D01*
X70049773Y24459790D01*
X69899150Y24380737D01*
X69771816Y24267928D01*
X69675182Y24127932D01*
X69614860Y23968875D01*
X69614859Y23968870D01*
X69594355Y23800000D01*
X66135410Y23800000D01*
X66124818Y23827930D01*
X66121138Y23833261D01*
X66074110Y23901393D01*
X66028183Y23967929D01*
X65924800Y24059518D01*
X65900849Y24080737D01*
X65750226Y24159790D01*
X65585056Y24200500D01*
X65414944Y24200500D01*
X65249773Y24159790D01*
X65099150Y24080737D01*
X65011967Y24003499D01*
X64972882Y23968872D01*
X64971816Y23967928D01*
X64875182Y23827932D01*
X64814860Y23668875D01*
X64814859Y23668870D01*
X64794355Y23500000D01*
X62405645Y23500000D01*
X62385140Y23668872D01*
X62324818Y23827930D01*
X62321138Y23833261D01*
X62274110Y23901393D01*
X62228183Y23967929D01*
X62124800Y24059518D01*
X62100849Y24080737D01*
X61950226Y24159790D01*
X61785056Y24200500D01*
X61614944Y24200500D01*
X61449773Y24159790D01*
X61299150Y24080737D01*
X61211967Y24003499D01*
X61172882Y23968872D01*
X61171816Y23967928D01*
X61075182Y23827932D01*
X61014860Y23668875D01*
X61014859Y23668870D01*
X60994355Y23500000D01*
X56800500Y23500000D01*
X56800500Y27200000D01*
X60994355Y27200000D01*
X61010839Y27064237D01*
X61014860Y27031128D01*
X61043345Y26956019D01*
X61075182Y26872069D01*
X61097367Y26839929D01*
X61171817Y26732071D01*
X61253652Y26659572D01*
X61299150Y26619264D01*
X61445008Y26542712D01*
X61449775Y26540210D01*
X61614944Y26499500D01*
X61785056Y26499500D01*
X61950225Y26540210D01*
X62072381Y26604323D01*
X62100849Y26619264D01*
X62100850Y26619266D01*
X62100852Y26619266D01*
X62228183Y26732071D01*
X62324818Y26872070D01*
X62385140Y27031128D01*
X62405645Y27200000D01*
X62385140Y27368872D01*
X62324818Y27527930D01*
X62318749Y27536722D01*
X62276132Y27598463D01*
X62228183Y27667929D01*
X62114244Y27768870D01*
X62100849Y27780737D01*
X61950226Y27859790D01*
X61785056Y27900500D01*
X61614944Y27900500D01*
X61449773Y27859790D01*
X61299150Y27780737D01*
X61171816Y27667928D01*
X61075182Y27527932D01*
X61014860Y27368875D01*
X61014859Y27368870D01*
X60994355Y27200000D01*
X56800500Y27200000D01*
X56800500Y28410941D01*
X56800501Y28410954D01*
X56800501Y28579055D01*
X56800501Y28579057D01*
X56759577Y28731785D01*
X56722212Y28796503D01*
X56722212Y28796504D01*
X56680524Y28868710D01*
X56680521Y28868714D01*
X56680520Y28868716D01*
X56568716Y28980520D01*
X56568715Y28980521D01*
X56564385Y28984851D01*
X56564374Y28984861D01*
X55287590Y30261645D01*
X55287588Y30261648D01*
X55168717Y30380519D01*
X55168716Y30380520D01*
X55070066Y30437475D01*
X55070065Y30437476D01*
X55031783Y30459578D01*
X54975881Y30474557D01*
X54879057Y30500501D01*
X54720943Y30500501D01*
X54713347Y30500501D01*
X54713331Y30500500D01*
X49800097Y30500500D01*
X49733058Y30520185D01*
X49712416Y30536819D01*
X44287590Y35961645D01*
X44287588Y35961648D01*
X44168717Y36080519D01*
X44168709Y36080525D01*
X44064854Y36140485D01*
X44064851Y36140486D01*
X44031787Y36159576D01*
X44031786Y36159577D01*
X44031785Y36159577D01*
X43879057Y36200501D01*
X43720943Y36200501D01*
X43713347Y36200501D01*
X43713331Y36200500D01*
X20686669Y36200500D01*
X20686653Y36200501D01*
X20679057Y36200501D01*
X20520943Y36200501D01*
X20368215Y36159577D01*
X20368214Y36159577D01*
X20368212Y36159576D01*
X20335149Y36140486D01*
X20335146Y36140485D01*
X20231290Y36080525D01*
X20231282Y36080519D01*
X20119478Y35968714D01*
X18591438Y34440675D01*
X18573778Y34426018D01*
X18030416Y34054246D01*
X18026368Y34051591D01*
X17929114Y33990481D01*
X17929108Y33990476D01*
X17912849Y33974218D01*
X17903009Y33965457D01*
X17903033Y33965428D01*
X17902241Y33964773D01*
X17902139Y33964681D01*
X17901966Y33964545D01*
X17900311Y33963173D01*
X17900298Y33963163D01*
X17861241Y33925412D01*
X17856519Y33919589D01*
X17856126Y33919908D01*
X17846623Y33907992D01*
X17809525Y33870893D01*
X17809518Y33870884D01*
X17719547Y33727698D01*
X17719545Y33727695D01*
X17663685Y33568057D01*
X17644751Y33400003D01*
X11925500Y33400003D01*
X11925500Y38290970D01*
X16249500Y38290970D01*
X16249500Y38084031D01*
X16289868Y37881088D01*
X16289870Y37881080D01*
X16369059Y37689902D01*
X16381766Y37670885D01*
X16484024Y37517843D01*
X16630342Y37371525D01*
X16630345Y37371523D01*
X16802402Y37256559D01*
X16993580Y37177370D01*
X17196530Y37137001D01*
X17196534Y37137000D01*
X17196535Y37137000D01*
X19603466Y37137000D01*
X19603467Y37137001D01*
X19806420Y37177370D01*
X19997598Y37256559D01*
X20169655Y37371523D01*
X20315977Y37517845D01*
X20430941Y37689902D01*
X20510130Y37881080D01*
X20550500Y38084035D01*
X20550500Y38190970D01*
X28449500Y38190970D01*
X28449500Y37984031D01*
X28489868Y37781088D01*
X28489870Y37781080D01*
X28535514Y37670885D01*
X28569059Y37589902D01*
X28615406Y37520539D01*
X28684024Y37417843D01*
X28830342Y37271525D01*
X28830345Y37271523D01*
X29002402Y37156559D01*
X29193580Y37077370D01*
X29366205Y37043033D01*
X29396530Y37037001D01*
X29396534Y37037000D01*
X29396535Y37037000D01*
X31803466Y37037000D01*
X31803467Y37037001D01*
X32006420Y37077370D01*
X32197598Y37156559D01*
X32369655Y37271523D01*
X32515977Y37417845D01*
X32630941Y37589902D01*
X32710130Y37781080D01*
X32750500Y37984035D01*
X32750500Y38190965D01*
X32710130Y38393920D01*
X32630941Y38585098D01*
X32515977Y38757155D01*
X32515975Y38757158D01*
X32369657Y38903476D01*
X32261991Y38975415D01*
X32197598Y39018441D01*
X32006420Y39097630D01*
X32006412Y39097632D01*
X31803469Y39138000D01*
X31803465Y39138000D01*
X29396535Y39138000D01*
X29396530Y39138000D01*
X29193587Y39097632D01*
X29193579Y39097630D01*
X29002403Y39018442D01*
X28830342Y38903476D01*
X28684024Y38757158D01*
X28569058Y38585097D01*
X28489870Y38393921D01*
X28489868Y38393913D01*
X28449500Y38190970D01*
X20550500Y38190970D01*
X20550500Y38290965D01*
X20510130Y38493920D01*
X20430941Y38685098D01*
X20315977Y38857155D01*
X20315975Y38857158D01*
X20169657Y39003476D01*
X20028741Y39097632D01*
X19997598Y39118441D01*
X19806420Y39197630D01*
X19806412Y39197632D01*
X19603469Y39238000D01*
X19603465Y39238000D01*
X17196535Y39238000D01*
X17196530Y39238000D01*
X16993587Y39197632D01*
X16993579Y39197630D01*
X16802403Y39118442D01*
X16630342Y39003476D01*
X16484024Y38857158D01*
X16369058Y38685097D01*
X16289870Y38493921D01*
X16289868Y38493913D01*
X16249500Y38290970D01*
X11925500Y38290970D01*
X11925500Y42381948D01*
X12400000Y42381948D01*
X12400000Y41437500D01*
X13200000Y41437500D01*
X13200000Y40937500D01*
X12400000Y40937500D01*
X12400000Y39993053D01*
X12429548Y39806498D01*
X12487914Y39626863D01*
X12573670Y39458560D01*
X12684685Y39305759D01*
X12684689Y39305754D01*
X12818253Y39172190D01*
X12818258Y39172186D01*
X12971059Y39061171D01*
X13139362Y38975415D01*
X13318997Y38917049D01*
X13350000Y38912138D01*
X13350000Y39771814D01*
X13354394Y39767420D01*
X13445606Y39714759D01*
X13547339Y39687500D01*
X13652661Y39687500D01*
X13754394Y39714759D01*
X13845606Y39767420D01*
X13850000Y39771814D01*
X13850000Y38912139D01*
X13881002Y38917049D01*
X14060637Y38975415D01*
X14228940Y39061171D01*
X14381741Y39172186D01*
X14381746Y39172190D01*
X14515310Y39305754D01*
X14515314Y39305759D01*
X14626329Y39458560D01*
X14712085Y39626863D01*
X14770451Y39806498D01*
X14800000Y39993053D01*
X14800000Y40937500D01*
X14000000Y40937500D01*
X14000000Y41437500D01*
X14800000Y41437500D01*
X14800000Y42281948D01*
X24600000Y42281948D01*
X24600000Y41337500D01*
X25400000Y41337500D01*
X25400000Y40837500D01*
X24600000Y40837500D01*
X24600000Y39893053D01*
X24629548Y39706498D01*
X24687914Y39526863D01*
X24773670Y39358560D01*
X24884685Y39205759D01*
X24884689Y39205754D01*
X25018253Y39072190D01*
X25018258Y39072186D01*
X25171059Y38961171D01*
X25339362Y38875415D01*
X25518997Y38817049D01*
X25550000Y38812138D01*
X25550000Y39671814D01*
X25554394Y39667420D01*
X25645606Y39614759D01*
X25747339Y39587500D01*
X25852661Y39587500D01*
X25954394Y39614759D01*
X26045606Y39667420D01*
X26050000Y39671814D01*
X26050000Y38812139D01*
X26081002Y38817049D01*
X26260637Y38875415D01*
X26428940Y38961171D01*
X26581741Y39072186D01*
X26581746Y39072190D01*
X26715310Y39205754D01*
X26715314Y39205759D01*
X26826329Y39358560D01*
X26912085Y39526863D01*
X26970451Y39706498D01*
X27000000Y39893053D01*
X27000000Y40837500D01*
X26200000Y40837500D01*
X26200000Y41337500D01*
X27000000Y41337500D01*
X27000000Y42281948D01*
X26970451Y42468503D01*
X26912085Y42648138D01*
X26826329Y42816441D01*
X26715314Y42969242D01*
X26715310Y42969247D01*
X26581746Y43102811D01*
X26581741Y43102815D01*
X26428940Y43213830D01*
X26260635Y43299587D01*
X26081004Y43357951D01*
X26080995Y43357953D01*
X26050000Y43362863D01*
X26050000Y42503186D01*
X26045606Y42507580D01*
X25954394Y42560241D01*
X25852661Y42587500D01*
X25747339Y42587500D01*
X25645606Y42560241D01*
X25554394Y42507580D01*
X25550000Y42503186D01*
X25550000Y43362863D01*
X25549999Y43362863D01*
X25519004Y43357953D01*
X25518995Y43357951D01*
X25339364Y43299587D01*
X25171059Y43213830D01*
X25018258Y43102815D01*
X25018253Y43102811D01*
X24884689Y42969247D01*
X24884685Y42969242D01*
X24773670Y42816441D01*
X24687914Y42648138D01*
X24629548Y42468503D01*
X24600000Y42281948D01*
X14800000Y42281948D01*
X14800000Y42381948D01*
X14770451Y42568503D01*
X14712085Y42748138D01*
X14626329Y42916441D01*
X14515314Y43069242D01*
X14515310Y43069247D01*
X14381746Y43202811D01*
X14381741Y43202815D01*
X14228940Y43313830D01*
X14060635Y43399587D01*
X13881004Y43457951D01*
X13880995Y43457953D01*
X13850000Y43462863D01*
X13850000Y42603186D01*
X13845606Y42607580D01*
X13754394Y42660241D01*
X13652661Y42687500D01*
X13547339Y42687500D01*
X13445606Y42660241D01*
X13354394Y42607580D01*
X13350000Y42603186D01*
X13350000Y43462863D01*
X13349999Y43462863D01*
X13319004Y43457953D01*
X13318995Y43457951D01*
X13139364Y43399587D01*
X12971059Y43313830D01*
X12818258Y43202815D01*
X12818253Y43202811D01*
X12684689Y43069247D01*
X12684685Y43069242D01*
X12573670Y42916441D01*
X12487914Y42748138D01*
X12429548Y42568503D01*
X12400000Y42381948D01*
X11925500Y42381948D01*
X11925500Y44172390D01*
X11945185Y44239429D01*
X11961819Y44260071D01*
X12389248Y44687500D01*
X16124638Y44687500D01*
X16984314Y44687500D01*
X16979920Y44683106D01*
X16927259Y44591894D01*
X16900000Y44490161D01*
X16900000Y44384839D01*
X16927259Y44283106D01*
X16979920Y44191894D01*
X16984314Y44187500D01*
X16124638Y44187500D01*
X16129548Y44156498D01*
X16187914Y43976863D01*
X16273670Y43808560D01*
X16384685Y43655759D01*
X16384689Y43655754D01*
X16518253Y43522190D01*
X16518258Y43522186D01*
X16671059Y43411171D01*
X16839362Y43325415D01*
X17018997Y43267049D01*
X17205553Y43237500D01*
X18150000Y43237500D01*
X18150000Y44037500D01*
X18650000Y44037500D01*
X18650000Y43237500D01*
X19594447Y43237500D01*
X19781002Y43267049D01*
X19960637Y43325415D01*
X20128940Y43411171D01*
X20281741Y43522186D01*
X20281746Y43522190D01*
X20415310Y43655754D01*
X20415314Y43655759D01*
X20526329Y43808560D01*
X20612085Y43976863D01*
X20670451Y44156498D01*
X20675362Y44187500D01*
X19815686Y44187500D01*
X19820080Y44191894D01*
X19872741Y44283106D01*
X19900000Y44384839D01*
X19900000Y44490161D01*
X19872741Y44591894D01*
X19820080Y44683106D01*
X19815686Y44687500D01*
X20675362Y44687500D01*
X20670451Y44718503D01*
X20612085Y44898138D01*
X20526329Y45066441D01*
X20415314Y45219242D01*
X20415310Y45219247D01*
X20281746Y45352811D01*
X20281741Y45352815D01*
X20128940Y45463830D01*
X19960637Y45549586D01*
X19781002Y45607952D01*
X19594447Y45637500D01*
X18650000Y45637500D01*
X18650000Y44837500D01*
X18150000Y44837500D01*
X18150000Y45637500D01*
X17205553Y45637500D01*
X17018997Y45607952D01*
X16839362Y45549586D01*
X16671059Y45463830D01*
X16518258Y45352815D01*
X16518253Y45352811D01*
X16384689Y45219247D01*
X16384685Y45219242D01*
X16273670Y45066441D01*
X16187914Y44898138D01*
X16129548Y44718503D01*
X16124638Y44687500D01*
X12389248Y44687500D01*
X13839929Y46138181D01*
X13901252Y46171666D01*
X13927610Y46174500D01*
X24272390Y46174500D01*
X24339429Y46154815D01*
X24360071Y46138181D01*
X29759515Y40738737D01*
X29838737Y40659515D01*
X29935763Y40603497D01*
X30043982Y40574500D01*
X30043984Y40574500D01*
X36356016Y40574500D01*
X36356018Y40574500D01*
X36464237Y40603497D01*
X36561263Y40659515D01*
X38551749Y42650001D01*
X47769464Y42650001D01*
X47769464Y42650000D01*
X47789564Y42433082D01*
X47789564Y42433080D01*
X47789565Y42433077D01*
X47805837Y42375888D01*
X47828439Y42296447D01*
X47849183Y42223541D01*
X47867680Y42186393D01*
X47874756Y42168987D01*
X47877565Y42160224D01*
X48510738Y40930844D01*
X48524500Y40874068D01*
X48524500Y35306018D01*
X48524500Y35193982D01*
X48553497Y35085763D01*
X48609515Y34988737D01*
X51959515Y31638737D01*
X52038737Y31559515D01*
X52107841Y31519618D01*
X52135763Y31503497D01*
X52243981Y31474500D01*
X52243982Y31474500D01*
X56072390Y31474500D01*
X56139429Y31454815D01*
X56160071Y31438181D01*
X56659515Y30938737D01*
X56738737Y30859515D01*
X56835763Y30803497D01*
X56943981Y30774500D01*
X56943982Y30774500D01*
X68072390Y30774500D01*
X68139429Y30754815D01*
X68160071Y30738181D01*
X69538181Y29360071D01*
X69571666Y29298748D01*
X69574500Y29272390D01*
X69574500Y26756018D01*
X69574500Y26643982D01*
X69603497Y26535763D01*
X69659515Y26438737D01*
X69659517Y26438735D01*
X70824984Y25273268D01*
X70852823Y25230654D01*
X70867788Y25192293D01*
X70867789Y25192292D01*
X71041105Y24748002D01*
X71042364Y24744815D01*
X71042419Y24744679D01*
X71042427Y24744661D01*
X71042433Y24744646D01*
X71052595Y24721688D01*
X71052597Y24721686D01*
X71052598Y24721683D01*
X71055674Y24716273D01*
X71055316Y24716070D01*
X71066319Y24695439D01*
X71075182Y24672070D01*
X71171817Y24532071D01*
X71239546Y24472069D01*
X71299150Y24419264D01*
X71449773Y24340211D01*
X71449775Y24340210D01*
X71614944Y24299500D01*
X71785056Y24299500D01*
X71950225Y24340210D01*
X72029692Y24381919D01*
X72100849Y24419264D01*
X72100850Y24419266D01*
X72100852Y24419266D01*
X72228183Y24532071D01*
X72324818Y24672070D01*
X72373335Y24800000D01*
X77594355Y24800000D01*
X77614859Y24631131D01*
X77614860Y24631126D01*
X77675182Y24472069D01*
X77713823Y24416089D01*
X77771817Y24332071D01*
X77844219Y24267929D01*
X77899150Y24219264D01*
X78030169Y24150500D01*
X78049775Y24140210D01*
X78214944Y24099500D01*
X78385056Y24099500D01*
X78550225Y24140210D01*
X78629692Y24181919D01*
X78700849Y24219264D01*
X78700850Y24219266D01*
X78700852Y24219266D01*
X78828183Y24332071D01*
X78924818Y24472070D01*
X78985140Y24631128D01*
X79005645Y24800000D01*
X78985140Y24968872D01*
X78973334Y25000001D01*
X78924817Y25127932D01*
X78853912Y25230654D01*
X78828183Y25267929D01*
X78700852Y25380734D01*
X78700849Y25380737D01*
X78550226Y25459790D01*
X78385056Y25500500D01*
X78214944Y25500500D01*
X78049773Y25459790D01*
X77899150Y25380737D01*
X77771816Y25267928D01*
X77675182Y25127932D01*
X77614860Y24968875D01*
X77614859Y24968870D01*
X77594355Y24800000D01*
X72373335Y24800000D01*
X72385140Y24831128D01*
X72405645Y25000000D01*
X72385140Y25168872D01*
X72324818Y25327930D01*
X72228183Y25467929D01*
X72100852Y25580734D01*
X72100850Y25580735D01*
X72100849Y25580736D01*
X72100845Y25580739D01*
X71955560Y25656991D01*
X71953179Y25658323D01*
X71952521Y25658644D01*
X71950349Y25659744D01*
X71943215Y25662450D01*
X71943219Y25662462D01*
X71941281Y25663077D01*
X71866773Y25692142D01*
X71866760Y25692146D01*
X71847908Y25699500D01*
X71664916Y25770885D01*
X71469348Y25847176D01*
X71426732Y25875016D01*
X70461819Y26839929D01*
X70428334Y26901252D01*
X70425500Y26927610D01*
X70425500Y29556016D01*
X70425500Y29556018D01*
X70396503Y29664237D01*
X70340485Y29761263D01*
X70261263Y29840485D01*
X68561263Y31540485D01*
X68464237Y31596503D01*
X68356018Y31625500D01*
X68356017Y31625500D01*
X57227610Y31625500D01*
X57160571Y31645185D01*
X57139929Y31661819D01*
X56561265Y32240483D01*
X56561263Y32240485D01*
X56496579Y32277831D01*
X56464239Y32296502D01*
X56464238Y32296503D01*
X56464237Y32296503D01*
X56356018Y32325500D01*
X56356017Y32325500D01*
X52527610Y32325500D01*
X52460571Y32345185D01*
X52439929Y32361819D01*
X52301748Y32500000D01*
X71894355Y32500000D01*
X71914859Y32331131D01*
X71914860Y32331126D01*
X71975182Y32172069D01*
X72033375Y32087764D01*
X72071817Y32032071D01*
X72166029Y31948607D01*
X72199150Y31919264D01*
X72343474Y31843517D01*
X72349775Y31840210D01*
X72514944Y31799500D01*
X72685056Y31799500D01*
X72850225Y31840210D01*
X72959221Y31897416D01*
X73000849Y31919264D01*
X73000850Y31919266D01*
X73000852Y31919266D01*
X73128183Y32032071D01*
X73224818Y32172070D01*
X73285140Y32331128D01*
X73305645Y32500000D01*
X73285140Y32668872D01*
X73224818Y32827930D01*
X73212966Y32845100D01*
X73175071Y32900000D01*
X73128183Y32967929D01*
X73010369Y33072303D01*
X73000849Y33080737D01*
X72850226Y33159790D01*
X72685056Y33200500D01*
X72514944Y33200500D01*
X72349773Y33159790D01*
X72199150Y33080737D01*
X72071816Y32967928D01*
X71975182Y32827932D01*
X71914860Y32668875D01*
X71914859Y32668870D01*
X71894355Y32500000D01*
X52301748Y32500000D01*
X49411819Y35389929D01*
X49378334Y35451252D01*
X49375500Y35477610D01*
X49375500Y40874068D01*
X49389262Y40930844D01*
X49600067Y41340148D01*
X50008471Y42133116D01*
X50056665Y42183700D01*
X50124559Y42200200D01*
X50190595Y42177374D01*
X50231090Y42128743D01*
X50298132Y41984970D01*
X50353023Y41906578D01*
X50926212Y42479767D01*
X50937482Y42437708D01*
X51009890Y42312292D01*
X51112292Y42209890D01*
X51237708Y42137482D01*
X51279765Y42126213D01*
X50706576Y41553025D01*
X50784969Y41498133D01*
X50995090Y41400153D01*
X50995099Y41400149D01*
X51219031Y41340148D01*
X51219041Y41340146D01*
X51449999Y41319939D01*
X51450001Y41319939D01*
X51680958Y41340146D01*
X51680968Y41340148D01*
X51904900Y41400149D01*
X51904909Y41400153D01*
X52115030Y41498133D01*
X52115034Y41498135D01*
X52193422Y41553024D01*
X52193422Y41553025D01*
X51620235Y42126213D01*
X51662292Y42137482D01*
X51787708Y42209890D01*
X51890110Y42312292D01*
X51962518Y42437708D01*
X51973787Y42479766D01*
X52546975Y41906579D01*
X52548925Y41909362D01*
X52603502Y41952987D01*
X52673001Y41960179D01*
X52735356Y41928657D01*
X52770769Y41868427D01*
X52774500Y41838238D01*
X52774500Y41791740D01*
X52784426Y41723609D01*
X52835803Y41618515D01*
X52918514Y41535804D01*
X52918515Y41535804D01*
X52918517Y41535802D01*
X53023607Y41484427D01*
X53057673Y41479464D01*
X53091739Y41474500D01*
X53091740Y41474500D01*
X54808261Y41474500D01*
X54830971Y41477809D01*
X54876393Y41484427D01*
X54981483Y41535802D01*
X55064198Y41618517D01*
X55115573Y41723607D01*
X55125500Y41791740D01*
X55125500Y42650001D01*
X59219464Y42650001D01*
X59219464Y42650000D01*
X59239564Y42433082D01*
X59239564Y42433080D01*
X59239565Y42433077D01*
X59299183Y42223542D01*
X59299184Y42223538D01*
X59330710Y42160226D01*
X59396288Y42028528D01*
X59527573Y41854678D01*
X59688568Y41707912D01*
X59688575Y41707908D01*
X59688576Y41707907D01*
X59873786Y41593230D01*
X59873792Y41593227D01*
X59896664Y41584367D01*
X60076931Y41514530D01*
X60291074Y41474500D01*
X60291076Y41474500D01*
X60508924Y41474500D01*
X60508926Y41474500D01*
X60723069Y41514530D01*
X60926210Y41593228D01*
X61111432Y41707912D01*
X61272427Y41854678D01*
X61403712Y42028528D01*
X61456418Y42134377D01*
X61503920Y42185613D01*
X61571583Y42203035D01*
X61637924Y42181110D01*
X61679800Y42131510D01*
X61748133Y41984970D01*
X61803023Y41906578D01*
X62376212Y42479767D01*
X62387482Y42437708D01*
X62459890Y42312292D01*
X62562292Y42209890D01*
X62687708Y42137482D01*
X62729765Y42126213D01*
X62156576Y41553025D01*
X62234969Y41498133D01*
X62445090Y41400153D01*
X62445099Y41400149D01*
X62669031Y41340148D01*
X62669041Y41340146D01*
X62899999Y41319939D01*
X62900001Y41319939D01*
X63130958Y41340146D01*
X63130968Y41340148D01*
X63354900Y41400149D01*
X63354909Y41400153D01*
X63565030Y41498133D01*
X63565034Y41498135D01*
X63643422Y41553024D01*
X63643422Y41553025D01*
X63070235Y42126213D01*
X63112292Y42137482D01*
X63237708Y42209890D01*
X63340110Y42312292D01*
X63412518Y42437708D01*
X63423787Y42479766D01*
X63996975Y41906579D01*
X63998925Y41909362D01*
X64053502Y41952987D01*
X64123001Y41960179D01*
X64185356Y41928657D01*
X64220769Y41868427D01*
X64224500Y41838238D01*
X64224500Y41791740D01*
X64234426Y41723609D01*
X64285803Y41618515D01*
X64368514Y41535804D01*
X64368515Y41535804D01*
X64368517Y41535802D01*
X64473607Y41484427D01*
X64507673Y41479464D01*
X64541739Y41474500D01*
X64541740Y41474500D01*
X66258261Y41474500D01*
X66280971Y41477809D01*
X66326393Y41484427D01*
X66431483Y41535802D01*
X66514198Y41618517D01*
X66565573Y41723607D01*
X66575500Y41791740D01*
X66575500Y42650001D01*
X70669464Y42650001D01*
X70669464Y42650000D01*
X70689564Y42433082D01*
X70689564Y42433080D01*
X70689565Y42433077D01*
X70749183Y42223542D01*
X70749184Y42223538D01*
X70780710Y42160226D01*
X70846288Y42028528D01*
X70977573Y41854678D01*
X71138568Y41707912D01*
X71138575Y41707908D01*
X71138576Y41707907D01*
X71323786Y41593230D01*
X71323792Y41593227D01*
X71346664Y41584367D01*
X71526931Y41514530D01*
X71741074Y41474500D01*
X71741076Y41474500D01*
X71958924Y41474500D01*
X71958926Y41474500D01*
X72173069Y41514530D01*
X72376210Y41593228D01*
X72561432Y41707912D01*
X72722427Y41854678D01*
X72853712Y42028528D01*
X72906418Y42134377D01*
X72953920Y42185613D01*
X73021583Y42203035D01*
X73087924Y42181110D01*
X73129800Y42131510D01*
X73198133Y41984970D01*
X73253023Y41906578D01*
X73826212Y42479767D01*
X73837482Y42437708D01*
X73909890Y42312292D01*
X74012292Y42209890D01*
X74137708Y42137482D01*
X74179765Y42126213D01*
X73606576Y41553025D01*
X73684969Y41498133D01*
X73895090Y41400153D01*
X73895099Y41400149D01*
X74119031Y41340148D01*
X74119041Y41340146D01*
X74349999Y41319939D01*
X74350001Y41319939D01*
X74580958Y41340146D01*
X74580968Y41340148D01*
X74804900Y41400149D01*
X74804909Y41400153D01*
X75015030Y41498133D01*
X75015034Y41498135D01*
X75093422Y41553024D01*
X75093422Y41553025D01*
X74520235Y42126213D01*
X74562292Y42137482D01*
X74687708Y42209890D01*
X74790110Y42312292D01*
X74862518Y42437708D01*
X74873787Y42479766D01*
X75446975Y41906579D01*
X75448925Y41909362D01*
X75503502Y41952987D01*
X75573001Y41960179D01*
X75635356Y41928657D01*
X75670769Y41868427D01*
X75674500Y41838238D01*
X75674500Y41791740D01*
X75684426Y41723609D01*
X75735803Y41618515D01*
X75818514Y41535804D01*
X75818515Y41535804D01*
X75818517Y41535802D01*
X75923607Y41484427D01*
X75957673Y41479464D01*
X75991739Y41474500D01*
X75991740Y41474500D01*
X77708261Y41474500D01*
X77730971Y41477809D01*
X77776393Y41484427D01*
X77881483Y41535802D01*
X77964198Y41618517D01*
X78015573Y41723607D01*
X78025500Y41791740D01*
X78025500Y43508260D01*
X78015573Y43576393D01*
X77964198Y43681483D01*
X77964196Y43681485D01*
X77964196Y43681486D01*
X77881485Y43764197D01*
X77776391Y43815574D01*
X77708261Y43825500D01*
X77708260Y43825500D01*
X75991740Y43825500D01*
X75991739Y43825500D01*
X75923608Y43815574D01*
X75818514Y43764197D01*
X75735803Y43681486D01*
X75684426Y43576392D01*
X75674500Y43508261D01*
X75674500Y43461763D01*
X75654815Y43394724D01*
X75602011Y43348969D01*
X75532853Y43339025D01*
X75469297Y43368050D01*
X75448925Y43390640D01*
X75446976Y43393423D01*
X75446975Y43393424D01*
X74873787Y42820236D01*
X74862518Y42862292D01*
X74790110Y42987708D01*
X74687708Y43090110D01*
X74562292Y43162518D01*
X74520234Y43173788D01*
X75093422Y43746977D01*
X75015030Y43801867D01*
X74804909Y43899848D01*
X74804900Y43899852D01*
X74580968Y43959853D01*
X74580958Y43959855D01*
X74350001Y43980061D01*
X74349999Y43980061D01*
X74119041Y43959855D01*
X74119031Y43959853D01*
X73895099Y43899852D01*
X73895090Y43899848D01*
X73684967Y43801866D01*
X73606576Y43746978D01*
X74179766Y43173788D01*
X74137708Y43162518D01*
X74012292Y43090110D01*
X73909890Y42987708D01*
X73837482Y42862292D01*
X73826212Y42820235D01*
X73253023Y43393424D01*
X73253022Y43393424D01*
X73198134Y43315033D01*
X73129800Y43168491D01*
X73083627Y43116052D01*
X73016434Y43096900D01*
X72949553Y43117116D01*
X72906418Y43165624D01*
X72853712Y43271472D01*
X72722427Y43445322D01*
X72708571Y43457953D01*
X72561433Y43592087D01*
X72561423Y43592094D01*
X72376213Y43706771D01*
X72376207Y43706774D01*
X72291113Y43739740D01*
X72173069Y43785470D01*
X71958926Y43825500D01*
X71741074Y43825500D01*
X71526931Y43785470D01*
X71478130Y43766565D01*
X71323792Y43706774D01*
X71323786Y43706771D01*
X71138576Y43592094D01*
X71138566Y43592087D01*
X70977574Y43445324D01*
X70846288Y43271473D01*
X70749184Y43076463D01*
X70689564Y42866919D01*
X70669464Y42650001D01*
X66575500Y42650001D01*
X66575500Y43508260D01*
X66565573Y43576393D01*
X66514198Y43681483D01*
X66514196Y43681485D01*
X66514196Y43681486D01*
X66431485Y43764197D01*
X66326391Y43815574D01*
X66258261Y43825500D01*
X66258260Y43825500D01*
X64541740Y43825500D01*
X64541739Y43825500D01*
X64473608Y43815574D01*
X64368514Y43764197D01*
X64285803Y43681486D01*
X64234426Y43576392D01*
X64224500Y43508261D01*
X64224500Y43461763D01*
X64204815Y43394724D01*
X64152011Y43348969D01*
X64082853Y43339025D01*
X64019297Y43368050D01*
X63998925Y43390640D01*
X63996976Y43393423D01*
X63996975Y43393424D01*
X63423787Y42820236D01*
X63412518Y42862292D01*
X63340110Y42987708D01*
X63237708Y43090110D01*
X63112292Y43162518D01*
X63070234Y43173788D01*
X63643422Y43746977D01*
X63565030Y43801867D01*
X63354909Y43899848D01*
X63354900Y43899852D01*
X63130968Y43959853D01*
X63130958Y43959855D01*
X62900001Y43980061D01*
X62899999Y43980061D01*
X62669041Y43959855D01*
X62669031Y43959853D01*
X62445099Y43899852D01*
X62445090Y43899848D01*
X62234967Y43801866D01*
X62156576Y43746978D01*
X62729766Y43173788D01*
X62687708Y43162518D01*
X62562292Y43090110D01*
X62459890Y42987708D01*
X62387482Y42862292D01*
X62376212Y42820234D01*
X61803022Y43393424D01*
X61748134Y43315033D01*
X61679800Y43168491D01*
X61633627Y43116052D01*
X61566434Y43096900D01*
X61499553Y43117116D01*
X61456418Y43165624D01*
X61403712Y43271472D01*
X61272427Y43445322D01*
X61258571Y43457953D01*
X61111433Y43592087D01*
X61111423Y43592094D01*
X60926213Y43706771D01*
X60926207Y43706774D01*
X60841113Y43739740D01*
X60723069Y43785470D01*
X60508926Y43825500D01*
X60291074Y43825500D01*
X60076931Y43785470D01*
X60028130Y43766565D01*
X59873792Y43706774D01*
X59873786Y43706771D01*
X59688576Y43592094D01*
X59688566Y43592087D01*
X59527574Y43445324D01*
X59396288Y43271473D01*
X59299184Y43076463D01*
X59239564Y42866919D01*
X59219464Y42650001D01*
X55125500Y42650001D01*
X55125500Y43508260D01*
X55115573Y43576393D01*
X55064198Y43681483D01*
X55064196Y43681485D01*
X55064196Y43681486D01*
X54981485Y43764197D01*
X54876391Y43815574D01*
X54808261Y43825500D01*
X54808260Y43825500D01*
X53091740Y43825500D01*
X53091739Y43825500D01*
X53023608Y43815574D01*
X52918514Y43764197D01*
X52835803Y43681486D01*
X52784426Y43576392D01*
X52774500Y43508261D01*
X52774500Y43461763D01*
X52754815Y43394724D01*
X52702011Y43348969D01*
X52632853Y43339025D01*
X52569297Y43368050D01*
X52548925Y43390640D01*
X52546976Y43393423D01*
X52546975Y43393424D01*
X51973787Y42820236D01*
X51962518Y42862292D01*
X51890110Y42987708D01*
X51787708Y43090110D01*
X51662292Y43162518D01*
X51620234Y43173788D01*
X52193422Y43746977D01*
X52115030Y43801867D01*
X51904909Y43899848D01*
X51904900Y43899852D01*
X51680968Y43959853D01*
X51680958Y43959855D01*
X51450001Y43980061D01*
X51449999Y43980061D01*
X51219041Y43959855D01*
X51219031Y43959853D01*
X50995099Y43899852D01*
X50995090Y43899848D01*
X50784967Y43801866D01*
X50706576Y43746978D01*
X51279766Y43173788D01*
X51237708Y43162518D01*
X51112292Y43090110D01*
X51009890Y42987708D01*
X50937482Y42862292D01*
X50926212Y42820234D01*
X50353022Y43393424D01*
X50298134Y43315033D01*
X50229800Y43168491D01*
X50183627Y43116052D01*
X50116434Y43096900D01*
X50049553Y43117116D01*
X50006418Y43165624D01*
X49953712Y43271472D01*
X49822427Y43445322D01*
X49808571Y43457953D01*
X49661433Y43592087D01*
X49661423Y43592094D01*
X49476213Y43706771D01*
X49476207Y43706774D01*
X49391113Y43739740D01*
X49273069Y43785470D01*
X49058926Y43825500D01*
X48841074Y43825500D01*
X48626931Y43785470D01*
X48578130Y43766565D01*
X48423792Y43706774D01*
X48423786Y43706771D01*
X48238576Y43592094D01*
X48238566Y43592087D01*
X48077574Y43445324D01*
X47946288Y43271473D01*
X47849184Y43076463D01*
X47789564Y42866919D01*
X47769464Y42650001D01*
X38551749Y42650001D01*
X40939929Y45038181D01*
X41001252Y45071666D01*
X41027610Y45074500D01*
X77272390Y45074500D01*
X77339429Y45054815D01*
X77360071Y45038181D01*
X78938181Y43460071D01*
X78971666Y43398748D01*
X78974500Y43372390D01*
X78974500Y38527610D01*
X78954815Y38460571D01*
X78938181Y38439929D01*
X76559517Y36061266D01*
X76559513Y36061260D01*
X76503498Y35964240D01*
X76503497Y35964237D01*
X76474500Y35856018D01*
X76474500Y32511960D01*
X76464051Y32462140D01*
X76255970Y31987880D01*
X76255009Y31985669D01*
X76254844Y31985288D01*
X76245404Y31960947D01*
X76245403Y31960943D01*
X76243890Y31952016D01*
X76237577Y31928774D01*
X76214861Y31868878D01*
X76214859Y31868870D01*
X76194355Y31700000D01*
X76214859Y31531131D01*
X76214860Y31531126D01*
X76275182Y31372069D01*
X76304831Y31329116D01*
X76371817Y31232071D01*
X76439354Y31172239D01*
X76499150Y31119264D01*
X76641123Y31044751D01*
X76649775Y31040210D01*
X76814944Y30999500D01*
X76985056Y30999500D01*
X77150225Y31040210D01*
X77229692Y31081919D01*
X77300849Y31119264D01*
X77300850Y31119266D01*
X77300852Y31119266D01*
X77428183Y31232071D01*
X77524818Y31372070D01*
X77585140Y31531128D01*
X77605645Y31700000D01*
X77585140Y31868872D01*
X77554743Y31949023D01*
X77550487Y31962528D01*
X77544115Y31987681D01*
X77367389Y32390479D01*
X77335948Y32462141D01*
X77325500Y32511961D01*
X77325500Y35572390D01*
X77345185Y35639429D01*
X77361819Y35660071D01*
X78430864Y36729116D01*
X79740485Y38038737D01*
X79796503Y38135763D01*
X79825500Y38243982D01*
X79825500Y38356018D01*
X79825500Y43656018D01*
X79796503Y43764237D01*
X79740485Y43861263D01*
X79661263Y43940485D01*
X77761263Y45840485D01*
X77664237Y45896503D01*
X77556018Y45925500D01*
X40856018Y45925500D01*
X40743982Y45925500D01*
X40635763Y45896503D01*
X40635760Y45896502D01*
X40538740Y45840487D01*
X40538734Y45840483D01*
X39308459Y44610208D01*
X39247136Y44576723D01*
X39177444Y44581707D01*
X39121511Y44623579D01*
X39097094Y44689043D01*
X39103737Y44738845D01*
X39109746Y44756016D01*
X39136313Y44831941D01*
X39143772Y44898138D01*
X39155249Y44999998D01*
X39155249Y45000003D01*
X39136314Y45168057D01*
X39080454Y45327695D01*
X39080452Y45327698D01*
X38990481Y45470885D01*
X38990476Y45470891D01*
X38870890Y45590477D01*
X38870884Y45590482D01*
X38727697Y45680453D01*
X38727694Y45680455D01*
X38568056Y45736315D01*
X38400003Y45755249D01*
X38399997Y45755249D01*
X38231943Y45736315D01*
X38072305Y45680455D01*
X38072302Y45680453D01*
X37929115Y45590482D01*
X37929109Y45590477D01*
X37809523Y45470891D01*
X37809518Y45470885D01*
X37719547Y45327698D01*
X37719545Y45327695D01*
X37663685Y45168057D01*
X37644751Y45000003D01*
X37644751Y44999998D01*
X37663685Y44831944D01*
X37719545Y44672306D01*
X37719547Y44672303D01*
X37809518Y44529116D01*
X37809523Y44529110D01*
X37929109Y44409524D01*
X37929115Y44409519D01*
X38072302Y44319548D01*
X38072305Y44319546D01*
X38072309Y44319545D01*
X38072310Y44319544D01*
X38128661Y44299826D01*
X38231943Y44263686D01*
X38399997Y44244751D01*
X38400000Y44244751D01*
X38400003Y44244751D01*
X38526044Y44258953D01*
X38568059Y44263687D01*
X38661156Y44296264D01*
X38730934Y44299826D01*
X38791562Y44265097D01*
X38823789Y44203104D01*
X38817385Y44133529D01*
X38789792Y44091541D01*
X36160071Y41461819D01*
X36098748Y41428334D01*
X36072390Y41425500D01*
X30327610Y41425500D01*
X30260571Y41445185D01*
X30239929Y41461819D01*
X27114248Y44587500D01*
X28324638Y44587500D01*
X29184314Y44587500D01*
X29179920Y44583106D01*
X29127259Y44491894D01*
X29100000Y44390161D01*
X29100000Y44284839D01*
X29127259Y44183106D01*
X29179920Y44091894D01*
X29184314Y44087500D01*
X28324638Y44087500D01*
X28329548Y44056498D01*
X28387914Y43876863D01*
X28473670Y43708560D01*
X28584685Y43555759D01*
X28584689Y43555754D01*
X28718253Y43422190D01*
X28718258Y43422186D01*
X28871059Y43311171D01*
X29039362Y43225415D01*
X29218997Y43167049D01*
X29405553Y43137500D01*
X30350000Y43137500D01*
X30350000Y43937500D01*
X30850000Y43937500D01*
X30850000Y43137500D01*
X31794447Y43137500D01*
X31981002Y43167049D01*
X32160637Y43225415D01*
X32328940Y43311171D01*
X32481741Y43422186D01*
X32481746Y43422190D01*
X32615310Y43555754D01*
X32615314Y43555759D01*
X32726329Y43708560D01*
X32812085Y43876863D01*
X32870451Y44056498D01*
X32875362Y44087500D01*
X32015686Y44087500D01*
X32020080Y44091894D01*
X32072741Y44183106D01*
X32100000Y44284839D01*
X32100000Y44390161D01*
X32072741Y44491894D01*
X32020080Y44583106D01*
X32015686Y44587500D01*
X32875362Y44587500D01*
X32870451Y44618503D01*
X32812085Y44798138D01*
X32726329Y44966441D01*
X32615314Y45119242D01*
X32615310Y45119247D01*
X32481746Y45252811D01*
X32481741Y45252815D01*
X32328940Y45363830D01*
X32160637Y45449586D01*
X31981002Y45507952D01*
X31794447Y45537500D01*
X30850000Y45537500D01*
X30850000Y44737500D01*
X30350000Y44737500D01*
X30350000Y45537500D01*
X29405553Y45537500D01*
X29218997Y45507952D01*
X29039362Y45449586D01*
X28871059Y45363830D01*
X28718258Y45252815D01*
X28718253Y45252811D01*
X28584689Y45119247D01*
X28584685Y45119242D01*
X28473670Y44966441D01*
X28387914Y44798138D01*
X28329548Y44618503D01*
X28324638Y44587500D01*
X27114248Y44587500D01*
X24761265Y46940483D01*
X24761263Y46940485D01*
X24664237Y46996503D01*
X24556018Y47025500D01*
X13756019Y47025500D01*
X13643982Y47025500D01*
X13535763Y46996503D01*
X13535760Y46996502D01*
X13438740Y46940487D01*
X13438734Y46940483D01*
X11159517Y44661266D01*
X11159513Y44661260D01*
X11103498Y44564240D01*
X11103497Y44564237D01*
X11074500Y44456018D01*
X11074500Y27856018D01*
X11074500Y27743982D01*
X11103497Y27635763D01*
X11159515Y27538737D01*
X14559515Y24138737D01*
X14638737Y24059515D01*
X14735763Y24003497D01*
X14843982Y23974500D01*
X16872390Y23974500D01*
X16939429Y23954815D01*
X16960071Y23938181D01*
X17938181Y22960071D01*
X17971666Y22898748D01*
X17974500Y22872390D01*
X17974500Y14956018D01*
X17974500Y14843982D01*
X18003497Y14735763D01*
X18059515Y14638737D01*
X20259515Y12438737D01*
X20338737Y12359515D01*
X20435763Y12303497D01*
X20543982Y12274500D01*
X24672390Y12274500D01*
X24739429Y12254815D01*
X24760071Y12238181D01*
X27438181Y9560071D01*
X27471666Y9498748D01*
X27474500Y9472390D01*
X27474500Y3527610D01*
X27454815Y3460571D01*
X27438181Y3439929D01*
X26560071Y2561819D01*
X26498748Y2528334D01*
X26472390Y2525500D01*
X24027610Y2525500D01*
X23960571Y2545185D01*
X23939929Y2561819D01*
X23082361Y3419387D01*
X23048876Y3480710D01*
X23053860Y3550402D01*
X23059872Y3563975D01*
X23595294Y4600237D01*
X23601833Y4613568D01*
X23602243Y4614450D01*
X23612885Y4640835D01*
X23616888Y4649732D01*
X23624229Y4664472D01*
X23649651Y4753824D01*
X23686929Y4812915D01*
X23750239Y4842473D01*
X23819478Y4833111D01*
X23872665Y4787802D01*
X23887063Y4757537D01*
X23907270Y4694125D01*
X23908389Y4690417D01*
X23915771Y4664472D01*
X23922724Y4650509D01*
X23925830Y4643770D01*
X23931623Y4630142D01*
X23934914Y4624266D01*
X23934909Y4624264D01*
X23940094Y4615624D01*
X24014938Y4465317D01*
X24014943Y4465309D01*
X24149020Y4287762D01*
X24313437Y4137877D01*
X24313439Y4137875D01*
X24502595Y4020755D01*
X24502596Y4020755D01*
X24502599Y4020753D01*
X24710060Y3940382D01*
X24928757Y3899500D01*
X24928759Y3899500D01*
X25151241Y3899500D01*
X25151243Y3899500D01*
X25369940Y3940382D01*
X25577401Y4020753D01*
X25766562Y4137876D01*
X25930981Y4287764D01*
X26065058Y4465311D01*
X26164229Y4664472D01*
X26225115Y4878464D01*
X26245643Y5100000D01*
X26225115Y5321536D01*
X26164229Y5535528D01*
X26164224Y5535539D01*
X26065061Y5734684D01*
X26065056Y5734692D01*
X25930979Y5912239D01*
X25766562Y6062124D01*
X25766560Y6062126D01*
X25607213Y6160788D01*
X25577401Y6179247D01*
X25524156Y6199875D01*
X25468756Y6242447D01*
X25445166Y6308214D01*
X25460878Y6376294D01*
X25510902Y6425073D01*
X25568952Y6439500D01*
X25923261Y6439500D01*
X25945971Y6442809D01*
X25991393Y6449427D01*
X26096483Y6500802D01*
X26179198Y6583517D01*
X26230573Y6688607D01*
X26240500Y6756740D01*
X26240500Y8523260D01*
X26239853Y8527698D01*
X26230573Y8591392D01*
X26230573Y8591393D01*
X26179198Y8696483D01*
X26179196Y8696485D01*
X26179196Y8696486D01*
X26096485Y8779197D01*
X25991391Y8830574D01*
X25923261Y8840500D01*
X25923260Y8840500D01*
X24249500Y8840500D01*
X24182461Y8860185D01*
X24136706Y8912989D01*
X24125500Y8964500D01*
X24125500Y10356016D01*
X24125500Y10356018D01*
X24096503Y10464237D01*
X24040485Y10561263D01*
X23961263Y10640485D01*
X22961263Y11640485D01*
X22864237Y11696503D01*
X22756018Y11725500D01*
X22756017Y11725500D01*
X19927610Y11725500D01*
X19860571Y11745185D01*
X19839929Y11761819D01*
X17461819Y14139929D01*
X17428334Y14201252D01*
X17425500Y14227610D01*
X17425500Y22056016D01*
X17425500Y22056018D01*
X17396503Y22164237D01*
X17340485Y22261263D01*
X17261263Y22340485D01*
X16261263Y23340485D01*
X16164237Y23396503D01*
X16056018Y23425500D01*
X16056017Y23425500D01*
X14227610Y23425500D01*
X14160571Y23445185D01*
X14139929Y23461819D01*
X10561819Y27039929D01*
X10528334Y27101252D01*
X10525500Y27127610D01*
X10525500Y45372390D01*
X10545185Y45439429D01*
X10561819Y45460071D01*
X12539929Y47438181D01*
X12601252Y47471666D01*
X12627610Y47474500D01*
X28372390Y47474500D01*
X28439429Y47454815D01*
X28460071Y47438181D01*
X29638737Y46259515D01*
X29735763Y46203497D01*
X29843982Y46174500D01*
X29956019Y46174500D01*
X78472390Y46174500D01*
X78539429Y46154815D01*
X78560071Y46138181D01*
X80138181Y44560071D01*
X80171666Y44498748D01*
X80174500Y44472390D01*
X80174500Y31827610D01*
X80154815Y31760571D01*
X80138181Y31739929D01*
X79160071Y30761819D01*
X79098748Y30728334D01*
X79072390Y30725500D01*
X79011959Y30725500D01*
X78962139Y30735949D01*
X78487775Y30944076D01*
X78485668Y30944991D01*
X78485648Y30945000D01*
X78485493Y30945067D01*
X78485298Y30945151D01*
X78485289Y30945155D01*
X78485274Y30945161D01*
X78464346Y30953278D01*
X78451563Y30959088D01*
X78450226Y30959790D01*
X78285056Y31000500D01*
X78114944Y31000500D01*
X77949773Y30959790D01*
X77799150Y30880737D01*
X77671816Y30767928D01*
X77575182Y30627932D01*
X77514860Y30468875D01*
X77514859Y30468870D01*
X77494355Y30300000D01*
X77514859Y30131131D01*
X77514860Y30131126D01*
X77575182Y29972069D01*
X77622513Y29903499D01*
X77671817Y29832071D01*
X77777505Y29738440D01*
X77799150Y29719264D01*
X77919901Y29655889D01*
X77949775Y29640210D01*
X78114944Y29599500D01*
X78285056Y29599500D01*
X78450225Y29640210D01*
X78460031Y29645358D01*
X78482870Y29654103D01*
X78482830Y29654219D01*
X78486172Y29655367D01*
X78487223Y29655770D01*
X78487681Y29655885D01*
X78889252Y29832073D01*
X78962137Y29864051D01*
X79011957Y29874500D01*
X79356016Y29874500D01*
X79356018Y29874500D01*
X79464237Y29903497D01*
X79561263Y29959515D01*
X80940485Y31338737D01*
X80996503Y31435763D01*
X81025500Y31543982D01*
X81025500Y31656019D01*
X81025500Y32870761D01*
X90037000Y32870761D01*
X90037000Y31604240D01*
X90046926Y31536109D01*
X90098303Y31431015D01*
X90181014Y31348304D01*
X90181015Y31348304D01*
X90181017Y31348302D01*
X90286107Y31296927D01*
X90320173Y31291964D01*
X90354239Y31287000D01*
X90354240Y31287000D01*
X91620761Y31287000D01*
X91643471Y31290309D01*
X91688893Y31296927D01*
X91793983Y31348302D01*
X91876698Y31431017D01*
X91928073Y31536107D01*
X91938000Y31604240D01*
X91938000Y32237501D01*
X93382787Y32237501D01*
X93382787Y32237500D01*
X93401596Y32034511D01*
X93401597Y32034508D01*
X93457383Y31838437D01*
X93457386Y31838431D01*
X93548251Y31655949D01*
X93550033Y31653589D01*
X94065774Y32169329D01*
X94091463Y32073456D01*
X94147416Y31976544D01*
X94226544Y31897416D01*
X94323456Y31841463D01*
X94419327Y31815775D01*
X93906811Y31303260D01*
X93995085Y31248603D01*
X94185178Y31174961D01*
X94385572Y31137500D01*
X94589428Y31137500D01*
X94789822Y31174961D01*
X94979912Y31248601D01*
X94979916Y31248603D01*
X95068186Y31303259D01*
X95068186Y31303260D01*
X94555673Y31815775D01*
X94651544Y31841463D01*
X94748456Y31897416D01*
X94827584Y31976544D01*
X94883537Y32073456D01*
X94909225Y32169328D01*
X95424965Y31653588D01*
X95426747Y31655947D01*
X95426748Y31655949D01*
X95517613Y31838431D01*
X95517616Y31838437D01*
X95573402Y32034508D01*
X95573403Y32034511D01*
X95592213Y32237500D01*
X95592213Y32237501D01*
X95573403Y32440490D01*
X95573402Y32440493D01*
X95517616Y32636564D01*
X95517613Y32636570D01*
X95426749Y32819051D01*
X95426747Y32819053D01*
X95424965Y32821413D01*
X94909225Y32305673D01*
X94883537Y32401544D01*
X94827584Y32498456D01*
X94748456Y32577584D01*
X94651544Y32633537D01*
X94555672Y32659226D01*
X95068187Y33171742D01*
X94979913Y33226399D01*
X94979911Y33226400D01*
X94789821Y33300040D01*
X94589428Y33337500D01*
X94385572Y33337500D01*
X94185178Y33300040D01*
X93995088Y33226400D01*
X93995081Y33226396D01*
X93906812Y33171743D01*
X93906811Y33171742D01*
X94419328Y32659226D01*
X94323456Y32633537D01*
X94226544Y32577584D01*
X94147416Y32498456D01*
X94091463Y32401544D01*
X94065774Y32305672D01*
X93550033Y32821413D01*
X93548255Y32819058D01*
X93548254Y32819057D01*
X93457386Y32636570D01*
X93457383Y32636564D01*
X93401597Y32440493D01*
X93401596Y32440490D01*
X93382787Y32237501D01*
X91938000Y32237501D01*
X91938000Y32870760D01*
X91928073Y32938893D01*
X91876698Y33043983D01*
X91876696Y33043985D01*
X91876696Y33043986D01*
X91793985Y33126697D01*
X91688891Y33178074D01*
X91620761Y33188000D01*
X91620760Y33188000D01*
X90354240Y33188000D01*
X90354239Y33188000D01*
X90286108Y33178074D01*
X90181014Y33126697D01*
X90098303Y33043986D01*
X90046926Y32938892D01*
X90037000Y32870761D01*
X81025500Y32870761D01*
X81025500Y37200003D01*
X86544751Y37200003D01*
X86544751Y37199998D01*
X86563685Y37031944D01*
X86619545Y36872306D01*
X86619547Y36872303D01*
X86709518Y36729116D01*
X86709523Y36729110D01*
X86829110Y36609523D01*
X86847321Y36598081D01*
X86915892Y36554993D01*
X86962183Y36502658D01*
X86972830Y36433605D01*
X86944455Y36369756D01*
X86915892Y36345007D01*
X86829112Y36290479D01*
X86829109Y36290477D01*
X86709523Y36170891D01*
X86709518Y36170885D01*
X86619547Y36027698D01*
X86619545Y36027695D01*
X86563685Y35868057D01*
X86544751Y35700003D01*
X86544751Y35699998D01*
X86563685Y35531944D01*
X86619545Y35372306D01*
X86619547Y35372303D01*
X86709518Y35229116D01*
X86709523Y35229110D01*
X86829110Y35109523D01*
X86847321Y35098081D01*
X86915892Y35054993D01*
X86962183Y35002658D01*
X86972830Y34933605D01*
X86944455Y34869756D01*
X86915892Y34845007D01*
X86829112Y34790479D01*
X86829109Y34790477D01*
X86709523Y34670891D01*
X86709518Y34670885D01*
X86619547Y34527698D01*
X86619545Y34527695D01*
X86563685Y34368057D01*
X86544751Y34200003D01*
X86544751Y34199998D01*
X86563685Y34031944D01*
X86619545Y33872306D01*
X86619547Y33872303D01*
X86709518Y33729116D01*
X86709523Y33729110D01*
X86829109Y33609524D01*
X86829115Y33609519D01*
X86972302Y33519548D01*
X86972305Y33519546D01*
X86972309Y33519545D01*
X86972310Y33519544D01*
X87044913Y33494140D01*
X87131943Y33463686D01*
X87299997Y33444751D01*
X87300000Y33444751D01*
X87300003Y33444751D01*
X87468056Y33463686D01*
X87468059Y33463687D01*
X87627690Y33519544D01*
X87627692Y33519546D01*
X87627694Y33519546D01*
X87627697Y33519548D01*
X87770884Y33609519D01*
X87770885Y33609520D01*
X87770890Y33609523D01*
X87890477Y33729110D01*
X87906683Y33754901D01*
X87980452Y33872303D01*
X87980454Y33872306D01*
X87980454Y33872308D01*
X87980456Y33872310D01*
X88036313Y34031941D01*
X88036313Y34031942D01*
X88036314Y34031944D01*
X88055249Y34199998D01*
X88055249Y34200003D01*
X88036314Y34368057D01*
X87980454Y34527695D01*
X87980452Y34527698D01*
X87890481Y34670885D01*
X87890476Y34670891D01*
X87770890Y34790477D01*
X87684108Y34845006D01*
X87637817Y34897341D01*
X87627169Y34966395D01*
X87655544Y35030243D01*
X87684108Y35054994D01*
X87686629Y35056578D01*
X87770890Y35109523D01*
X87890477Y35229110D01*
X87980454Y35372306D01*
X87980456Y35372311D01*
X87982958Y35379460D01*
X88023679Y35436236D01*
X88088631Y35461985D01*
X88157193Y35448530D01*
X88207596Y35400143D01*
X88217042Y35379460D01*
X88219543Y35372311D01*
X88219547Y35372303D01*
X88309518Y35229116D01*
X88309523Y35229110D01*
X88429109Y35109524D01*
X88429115Y35109519D01*
X88572302Y35019548D01*
X88572305Y35019546D01*
X88572309Y35019545D01*
X88572310Y35019544D01*
X88620568Y35002658D01*
X88731943Y34963686D01*
X88899997Y34944751D01*
X88900000Y34944751D01*
X88900003Y34944751D01*
X89068056Y34963686D01*
X89139642Y34988735D01*
X89227690Y35019544D01*
X89227692Y35019546D01*
X89227694Y35019546D01*
X89227697Y35019548D01*
X89370884Y35109519D01*
X89370888Y35109522D01*
X89370890Y35109523D01*
X89490477Y35229110D01*
X89580452Y35372303D01*
X89580454Y35372306D01*
X89580454Y35372308D01*
X89580456Y35372310D01*
X89636313Y35531941D01*
X89636313Y35531942D01*
X89636314Y35531944D01*
X89655249Y35699998D01*
X89655249Y35700003D01*
X89636314Y35868057D01*
X89580454Y36027695D01*
X89580452Y36027698D01*
X89490481Y36170885D01*
X89490476Y36170891D01*
X89370890Y36290477D01*
X89284108Y36345006D01*
X89237817Y36397341D01*
X89227169Y36466395D01*
X89255544Y36530243D01*
X89284108Y36554994D01*
X89370890Y36609523D01*
X89490477Y36729110D01*
X89580452Y36872303D01*
X89580454Y36872306D01*
X89580454Y36872308D01*
X89580456Y36872310D01*
X89632958Y37022354D01*
X89673680Y37079129D01*
X89738633Y37104876D01*
X89807195Y37091420D01*
X89857597Y37043033D01*
X89867042Y37022353D01*
X89919545Y36872306D01*
X89919547Y36872303D01*
X90009518Y36729116D01*
X90009523Y36729110D01*
X90129109Y36609524D01*
X90129115Y36609519D01*
X90272302Y36519548D01*
X90272305Y36519546D01*
X90272309Y36519545D01*
X90272310Y36519544D01*
X90320568Y36502658D01*
X90431943Y36463686D01*
X90599997Y36444751D01*
X90600000Y36444751D01*
X90600003Y36444751D01*
X90768056Y36463686D01*
X90771900Y36465031D01*
X90927690Y36519544D01*
X90927692Y36519546D01*
X90927694Y36519546D01*
X90927697Y36519548D01*
X91070884Y36609519D01*
X91070888Y36609522D01*
X91070890Y36609523D01*
X91190477Y36729110D01*
X91280452Y36872303D01*
X91280454Y36872306D01*
X91280454Y36872308D01*
X91280456Y36872310D01*
X91336313Y37031941D01*
X91336313Y37031942D01*
X91336314Y37031944D01*
X91355249Y37199998D01*
X91355249Y37200003D01*
X91336314Y37368057D01*
X91290194Y37499860D01*
X91280456Y37527690D01*
X91280455Y37527691D01*
X91280454Y37527695D01*
X91280452Y37527698D01*
X91190481Y37670885D01*
X91190476Y37670891D01*
X91070890Y37790477D01*
X91070884Y37790482D01*
X90927697Y37880453D01*
X90927694Y37880455D01*
X90768056Y37936315D01*
X90600003Y37955249D01*
X90599997Y37955249D01*
X90431943Y37936315D01*
X90272305Y37880455D01*
X90272302Y37880453D01*
X90129115Y37790482D01*
X90129109Y37790477D01*
X90009523Y37670891D01*
X90009518Y37670885D01*
X89919547Y37527698D01*
X89919542Y37527687D01*
X89867041Y37377648D01*
X89826320Y37320872D01*
X89761367Y37295125D01*
X89692805Y37308581D01*
X89642403Y37356969D01*
X89632959Y37377648D01*
X89580457Y37527687D01*
X89580452Y37527698D01*
X89490481Y37670885D01*
X89490476Y37670891D01*
X89370890Y37790477D01*
X89370884Y37790482D01*
X89227697Y37880453D01*
X89227694Y37880455D01*
X89068056Y37936315D01*
X88900003Y37955249D01*
X88899997Y37955249D01*
X88731943Y37936315D01*
X88572305Y37880455D01*
X88572302Y37880453D01*
X88429115Y37790482D01*
X88429109Y37790477D01*
X88309523Y37670891D01*
X88309518Y37670885D01*
X88219547Y37527698D01*
X88219542Y37527687D01*
X88217041Y37520539D01*
X88176319Y37463763D01*
X88111366Y37438016D01*
X88042805Y37451473D01*
X87992402Y37499860D01*
X87982959Y37520539D01*
X87980457Y37527687D01*
X87980452Y37527698D01*
X87890481Y37670885D01*
X87890476Y37670891D01*
X87770890Y37790477D01*
X87770884Y37790482D01*
X87627697Y37880453D01*
X87627694Y37880455D01*
X87468056Y37936315D01*
X87300003Y37955249D01*
X87299997Y37955249D01*
X87131943Y37936315D01*
X86972305Y37880455D01*
X86972302Y37880453D01*
X86829115Y37790482D01*
X86829109Y37790477D01*
X86709523Y37670891D01*
X86709518Y37670885D01*
X86619547Y37527698D01*
X86619545Y37527695D01*
X86563685Y37368057D01*
X86544751Y37200003D01*
X81025500Y37200003D01*
X81025500Y42650001D01*
X82119464Y42650001D01*
X82119464Y42650000D01*
X82139564Y42433082D01*
X82139564Y42433080D01*
X82139565Y42433077D01*
X82199183Y42223542D01*
X82199184Y42223538D01*
X82230710Y42160226D01*
X82296288Y42028528D01*
X82427573Y41854678D01*
X82588568Y41707912D01*
X82588575Y41707908D01*
X82588576Y41707907D01*
X82773786Y41593230D01*
X82773792Y41593227D01*
X82796664Y41584367D01*
X82976931Y41514530D01*
X83191074Y41474500D01*
X83191076Y41474500D01*
X83408924Y41474500D01*
X83408926Y41474500D01*
X83623069Y41514530D01*
X83826210Y41593228D01*
X84011432Y41707912D01*
X84172427Y41854678D01*
X84303712Y42028528D01*
X84356418Y42134377D01*
X84403920Y42185613D01*
X84471583Y42203035D01*
X84537924Y42181110D01*
X84579800Y42131510D01*
X84648133Y41984970D01*
X84703023Y41906578D01*
X85276212Y42479767D01*
X85287482Y42437708D01*
X85359890Y42312292D01*
X85462292Y42209890D01*
X85587708Y42137482D01*
X85629765Y42126213D01*
X85056576Y41553025D01*
X85134969Y41498133D01*
X85345090Y41400153D01*
X85345099Y41400149D01*
X85569031Y41340148D01*
X85569041Y41340146D01*
X85799999Y41319939D01*
X85800001Y41319939D01*
X86030958Y41340146D01*
X86030968Y41340148D01*
X86254900Y41400149D01*
X86254909Y41400153D01*
X86465030Y41498133D01*
X86465034Y41498135D01*
X86543422Y41553024D01*
X86543422Y41553025D01*
X85970235Y42126213D01*
X86012292Y42137482D01*
X86137708Y42209890D01*
X86240110Y42312292D01*
X86312518Y42437708D01*
X86323787Y42479766D01*
X86896975Y41906579D01*
X86898925Y41909362D01*
X86953502Y41952987D01*
X87023001Y41960179D01*
X87085356Y41928657D01*
X87120769Y41868427D01*
X87124500Y41838238D01*
X87124500Y41791740D01*
X87134426Y41723609D01*
X87185803Y41618515D01*
X87268514Y41535804D01*
X87268515Y41535804D01*
X87268517Y41535802D01*
X87373607Y41484427D01*
X87407673Y41479464D01*
X87441739Y41474500D01*
X87441740Y41474500D01*
X89158261Y41474500D01*
X89180971Y41477809D01*
X89226393Y41484427D01*
X89331483Y41535802D01*
X89414198Y41618517D01*
X89465573Y41723607D01*
X89475500Y41791740D01*
X89475500Y43508260D01*
X89465573Y43576393D01*
X89414198Y43681483D01*
X89414196Y43681485D01*
X89414196Y43681486D01*
X89331485Y43764197D01*
X89226391Y43815574D01*
X89158261Y43825500D01*
X89158260Y43825500D01*
X87441740Y43825500D01*
X87441739Y43825500D01*
X87373608Y43815574D01*
X87268514Y43764197D01*
X87185803Y43681486D01*
X87134426Y43576392D01*
X87124500Y43508261D01*
X87124500Y43461763D01*
X87104815Y43394724D01*
X87052011Y43348969D01*
X86982853Y43339025D01*
X86919297Y43368050D01*
X86898925Y43390640D01*
X86896976Y43393423D01*
X86896975Y43393424D01*
X86323787Y42820236D01*
X86312518Y42862292D01*
X86240110Y42987708D01*
X86137708Y43090110D01*
X86012292Y43162518D01*
X85970234Y43173788D01*
X86543422Y43746977D01*
X86465030Y43801867D01*
X86254909Y43899848D01*
X86254900Y43899852D01*
X86030968Y43959853D01*
X86030958Y43959855D01*
X85800001Y43980061D01*
X85799999Y43980061D01*
X85569041Y43959855D01*
X85569031Y43959853D01*
X85345099Y43899852D01*
X85345090Y43899848D01*
X85134967Y43801866D01*
X85056576Y43746978D01*
X85629766Y43173788D01*
X85587708Y43162518D01*
X85462292Y43090110D01*
X85359890Y42987708D01*
X85287482Y42862292D01*
X85276212Y42820235D01*
X84703023Y43393424D01*
X84703022Y43393424D01*
X84648134Y43315033D01*
X84579800Y43168491D01*
X84533627Y43116052D01*
X84466434Y43096900D01*
X84399553Y43117116D01*
X84356418Y43165624D01*
X84303712Y43271472D01*
X84172427Y43445322D01*
X84158571Y43457953D01*
X84011433Y43592087D01*
X84011423Y43592094D01*
X83826213Y43706771D01*
X83826207Y43706774D01*
X83741113Y43739740D01*
X83623069Y43785470D01*
X83408926Y43825500D01*
X83191074Y43825500D01*
X82976931Y43785470D01*
X82928130Y43766565D01*
X82773792Y43706774D01*
X82773786Y43706771D01*
X82588576Y43592094D01*
X82588566Y43592087D01*
X82427574Y43445324D01*
X82296288Y43271473D01*
X82199184Y43076463D01*
X82139564Y42866919D01*
X82119464Y42650001D01*
X81025500Y42650001D01*
X81025500Y44756018D01*
X80996503Y44864237D01*
X80940485Y44961263D01*
X80861263Y45040485D01*
X78961263Y46940485D01*
X78864237Y46996503D01*
X78756018Y47025500D01*
X78756017Y47025500D01*
X33486229Y47025500D01*
X33419190Y47045185D01*
X33373435Y47097989D01*
X33363491Y47167147D01*
X33392516Y47230703D01*
X33398548Y47237181D01*
X33490477Y47329110D01*
X33535457Y47400695D01*
X33580452Y47472303D01*
X33580454Y47472306D01*
X33580454Y47472308D01*
X33580456Y47472310D01*
X33636313Y47631941D01*
X33636313Y47631942D01*
X33636314Y47631944D01*
X33655249Y47799998D01*
X33655249Y47800003D01*
X33636314Y47968057D01*
X33580454Y48127695D01*
X33580452Y48127698D01*
X33490481Y48270885D01*
X33490476Y48270891D01*
X33370890Y48390477D01*
X33370884Y48390482D01*
X33227697Y48480453D01*
X33227694Y48480455D01*
X33068056Y48536315D01*
X32900003Y48555249D01*
X32899997Y48555249D01*
X32731943Y48536315D01*
X32572305Y48480455D01*
X32572302Y48480453D01*
X32429115Y48390482D01*
X32429109Y48390477D01*
X32309523Y48270891D01*
X32309518Y48270885D01*
X32219547Y48127698D01*
X32219545Y48127695D01*
X32163685Y47968057D01*
X32144751Y47800003D01*
X32144751Y47799998D01*
X32163685Y47631944D01*
X32219545Y47472306D01*
X32219547Y47472303D01*
X32309518Y47329116D01*
X32309523Y47329110D01*
X32401452Y47237181D01*
X32434937Y47175858D01*
X32429953Y47106166D01*
X32388081Y47050233D01*
X32322617Y47025816D01*
X32313771Y47025500D01*
X30127610Y47025500D01*
X30060571Y47045185D01*
X30039929Y47061819D01*
X28861265Y48240483D01*
X28861263Y48240485D01*
X28764237Y48296503D01*
X28656018Y48325500D01*
X12456018Y48325500D01*
X12343981Y48325500D01*
X12235763Y48296503D01*
X12235761Y48296502D01*
X12235760Y48296502D01*
X12138740Y48240487D01*
X12138734Y48240483D01*
X9759517Y45861266D01*
X9759513Y45861260D01*
X9703498Y45764240D01*
X9703497Y45764237D01*
X9674500Y45656018D01*
X7687050Y45656018D01*
X7705078Y46000000D01*
X7705078Y46000001D01*
X7684780Y46387288D01*
X7624113Y46770324D01*
X7624112Y46770331D01*
X7523737Y47144937D01*
X7384755Y47506995D01*
X7208689Y47852544D01*
X6997468Y48177794D01*
X6788904Y48435351D01*
X6788903Y48435352D01*
X5294251Y46940700D01*
X5220412Y47042330D01*
X5042330Y47220412D01*
X4940698Y47294253D01*
X6435350Y48788904D01*
X6435350Y48788905D01*
X6177793Y48997469D01*
X5852543Y49208690D01*
X5741999Y49265015D01*
X5691203Y49312990D01*
X5674408Y49380811D01*
X5696945Y49446945D01*
X5751660Y49490397D01*
X5798294Y49499500D01*
X94201706Y49499500D01*
X94268745Y49479815D01*
G37*
%TD.AperFunction*%
%TD*%
%TA.AperFunction,Conductor*%
%TO.N,/MCP19061/LG2*%
G36*
X61704478Y23499132D02*
G01*
X62012362Y23370650D01*
X62018677Y23364301D01*
X62018654Y23355346D01*
X62018570Y23355151D01*
X61778071Y22806999D01*
X61771609Y22800800D01*
X61767357Y22800000D01*
X61632643Y22800000D01*
X61624370Y22803427D01*
X61621929Y22806999D01*
X61381429Y23355151D01*
X61381243Y23364104D01*
X61387442Y23370566D01*
X61387582Y23370627D01*
X61695494Y23499121D01*
X61704449Y23499143D01*
X61704478Y23499132D01*
G37*
%TD.AperFunction*%
%TD*%
%TA.AperFunction,Conductor*%
%TO.N,+5V*%
G36*
X18795775Y34135596D02*
G01*
X19135595Y33795776D01*
X19139022Y33787503D01*
X19136978Y33780896D01*
X18690783Y33128763D01*
X18683283Y33123870D01*
X18674520Y33125714D01*
X18672875Y33127076D01*
X18399293Y33399293D01*
X18399251Y33399335D01*
X18127075Y33672876D01*
X18123669Y33681157D01*
X18127117Y33689422D01*
X18128756Y33690780D01*
X18780895Y34136980D01*
X18789658Y34138823D01*
X18795775Y34135596D01*
G37*
%TD.AperFunction*%
%TD*%
%TA.AperFunction,Conductor*%
%TO.N,/Interfaces/I{slash}O_HDR0*%
G36*
X78344654Y30618655D02*
G01*
X78344849Y30618571D01*
X78893001Y30378071D01*
X78899200Y30371609D01*
X78900000Y30367357D01*
X78900000Y30232644D01*
X78896573Y30224371D01*
X78893001Y30221930D01*
X78344849Y29981430D01*
X78335896Y29981244D01*
X78329434Y29987443D01*
X78329350Y29987638D01*
X78200880Y30295494D01*
X78200857Y30304449D01*
X78200880Y30304506D01*
X78227108Y30367357D01*
X78329351Y30612365D01*
X78335699Y30618678D01*
X78344654Y30618655D01*
G37*
%TD.AperFunction*%
%TD*%
%TA.AperFunction,Conductor*%
%TO.N,+VIN_SMPS*%
G36*
X34713817Y15397410D02*
G01*
X35490457Y15251790D01*
X35497956Y15246897D01*
X35500000Y15240290D01*
X35500000Y14759711D01*
X35496573Y14751438D01*
X35490456Y14748211D01*
X34713820Y14602592D01*
X34705057Y14604436D01*
X34700164Y14611936D01*
X34699964Y14614054D01*
X34699000Y15000000D01*
X34699964Y15385941D01*
X34703412Y15394203D01*
X34711693Y15397609D01*
X34713817Y15397410D01*
G37*
%TD.AperFunction*%
%TD*%
%TA.AperFunction,Conductor*%
%TO.N,/Interfaces/I2C1_SCL_HDR*%
G36*
X22744654Y14218655D02*
G01*
X22744849Y14218571D01*
X23293001Y13978071D01*
X23299200Y13971609D01*
X23300000Y13967357D01*
X23300000Y13832644D01*
X23296573Y13824371D01*
X23293001Y13821930D01*
X22744849Y13581430D01*
X22735896Y13581244D01*
X22729434Y13587443D01*
X22729350Y13587638D01*
X22600880Y13895494D01*
X22600857Y13904449D01*
X22600880Y13904506D01*
X22627108Y13967357D01*
X22729351Y14212365D01*
X22735699Y14218678D01*
X22744654Y14218655D01*
G37*
%TD.AperFunction*%
%TD*%
%TA.AperFunction,Conductor*%
%TO.N,/Interfaces/RST_BTN*%
G36*
X49700474Y42339159D02*
G01*
X49706799Y42332820D01*
X49706789Y42323866D01*
X49706387Y42322998D01*
X49028267Y41006343D01*
X49021432Y41000557D01*
X49017865Y41000000D01*
X48882135Y41000000D01*
X48873862Y41003427D01*
X48871733Y41006343D01*
X48193611Y42323000D01*
X48192871Y42331922D01*
X48198657Y42338757D01*
X48199513Y42339154D01*
X48945511Y42649136D01*
X48954464Y42649145D01*
X49700474Y42339159D01*
G37*
%TD.AperFunction*%
%TD*%
%TA.AperFunction,Conductor*%
%TO.N,+5V*%
G36*
X62960822Y19739067D02*
G01*
X62962045Y19738009D01*
X63200707Y19500707D01*
X63438003Y19262051D01*
X63441406Y19253770D01*
X63437955Y19245506D01*
X63436726Y19244443D01*
X62889920Y18834338D01*
X62881245Y18832116D01*
X62874627Y18835425D01*
X62535424Y19174628D01*
X62531997Y19182901D01*
X62534336Y19189920D01*
X62944443Y19736729D01*
X62952147Y19741289D01*
X62960822Y19739067D01*
G37*
%TD.AperFunction*%
%TD*%
%TA.AperFunction,Conductor*%
%TO.N,/Interfaces/I{slash}O_HDR1*%
G36*
X76975630Y32396573D02*
G01*
X76978071Y32393001D01*
X77218570Y31844850D01*
X77218756Y31835897D01*
X77212557Y31829435D01*
X77212362Y31829351D01*
X76904506Y31700881D01*
X76895551Y31700858D01*
X76895494Y31700881D01*
X76587637Y31829351D01*
X76581322Y31835700D01*
X76581345Y31844655D01*
X76581429Y31844850D01*
X76821929Y32393001D01*
X76828391Y32399200D01*
X76832643Y32400000D01*
X76967357Y32400000D01*
X76975630Y32396573D01*
G37*
%TD.AperFunction*%
%TD*%
%TA.AperFunction,Conductor*%
%TO.N,/Interfaces/I2C1_SCL_HDR*%
G36*
X72444654Y27918655D02*
G01*
X72444849Y27918571D01*
X72993001Y27678071D01*
X72999200Y27671609D01*
X73000000Y27667357D01*
X73000000Y27532644D01*
X72996573Y27524371D01*
X72993001Y27521930D01*
X72444849Y27281430D01*
X72435896Y27281244D01*
X72429434Y27287443D01*
X72429350Y27287638D01*
X72300880Y27595494D01*
X72300857Y27604449D01*
X72300880Y27604506D01*
X72327108Y27667357D01*
X72429351Y27912365D01*
X72435699Y27918678D01*
X72444654Y27918655D01*
G37*
%TD.AperFunction*%
%TD*%
%TA.AperFunction,Conductor*%
%TO.N,/Interfaces/I2C1_SDA_HDR*%
G36*
X41051425Y2758745D02*
G01*
X41051576Y2758399D01*
X41199123Y2404502D01*
X41199144Y2395548D01*
X41199123Y2395498D01*
X41051576Y2041602D01*
X41045229Y2035284D01*
X41036275Y2035305D01*
X41035929Y2035456D01*
X40406852Y2321881D01*
X40400742Y2328428D01*
X40400000Y2332529D01*
X40400000Y2467472D01*
X40403427Y2475745D01*
X40406852Y2478120D01*
X41035930Y2764546D01*
X41044878Y2764855D01*
X41051425Y2758745D01*
G37*
%TD.AperFunction*%
%TD*%
%TA.AperFunction,Conductor*%
%TO.N,/Interfaces/I{slash}O_HDR0*%
G36*
X23897734Y6352953D02*
G01*
X25353165Y5889159D01*
X25360008Y5883382D01*
X25360761Y5874459D01*
X25360427Y5873545D01*
X25042562Y5103786D01*
X25036237Y5097447D01*
X25036214Y5097438D01*
X24266455Y4779573D01*
X24257500Y4779582D01*
X24251175Y4785921D01*
X24250841Y4786835D01*
X23904254Y5874459D01*
X23787048Y6242263D01*
X23787801Y6251184D01*
X23789920Y6254083D01*
X23885915Y6350078D01*
X23894187Y6353504D01*
X23897734Y6352953D01*
G37*
%TD.AperFunction*%
%TD*%
%TA.AperFunction,Conductor*%
%TO.N,/Interfaces/I2C1_SDA_HDR*%
G36*
X72521293Y29429386D02*
G01*
X72527608Y29423037D01*
X72527687Y29422840D01*
X72745229Y28865180D01*
X72745043Y28856227D01*
X72742602Y28852655D01*
X72647345Y28757398D01*
X72639072Y28753971D01*
X72634820Y28754771D01*
X72077160Y28972313D01*
X72070698Y28978512D01*
X72070512Y28987465D01*
X72070566Y28987601D01*
X72197437Y29296194D01*
X72203748Y29302539D01*
X72512339Y29429409D01*
X72521293Y29429386D01*
G37*
%TD.AperFunction*%
%TD*%
%TA.AperFunction,Conductor*%
%TO.N,+VIN_SMPS*%
G36*
X42085939Y21200036D02*
G01*
X42094202Y21196588D01*
X42097608Y21188307D01*
X42097408Y21186180D01*
X41951790Y20409544D01*
X41946897Y20402044D01*
X41940290Y20400000D01*
X41459710Y20400000D01*
X41451437Y20403427D01*
X41448210Y20409544D01*
X41302591Y21186180D01*
X41304435Y21194943D01*
X41311935Y21199836D01*
X41314052Y21200036D01*
X41700000Y21201000D01*
X42085939Y21200036D01*
G37*
%TD.AperFunction*%
%TD*%
%TA.AperFunction,Conductor*%
%TO.N,/Interfaces/I2C1_SCL_HDR*%
G36*
X48044654Y16518655D02*
G01*
X48044849Y16518571D01*
X48593001Y16278071D01*
X48599200Y16271609D01*
X48600000Y16267357D01*
X48600000Y16132644D01*
X48596573Y16124371D01*
X48593001Y16121930D01*
X48044849Y15881430D01*
X48035896Y15881244D01*
X48029434Y15887443D01*
X48029350Y15887638D01*
X47900880Y16195494D01*
X47900857Y16204449D01*
X47900880Y16204506D01*
X47927108Y16267357D01*
X48029351Y16512365D01*
X48035699Y16518678D01*
X48044654Y16518655D01*
G37*
%TD.AperFunction*%
%TD*%
%TA.AperFunction,Conductor*%
%TO.N,/Interfaces/I2C1_SDA_HDR*%
G36*
X37570565Y11712558D02*
G01*
X37570649Y11712363D01*
X37699119Y11404506D01*
X37699142Y11395551D01*
X37699119Y11395494D01*
X37570649Y11087638D01*
X37564300Y11081323D01*
X37555345Y11081346D01*
X37555150Y11081430D01*
X37006999Y11321930D01*
X37000800Y11328392D01*
X37000000Y11332644D01*
X37000000Y11467357D01*
X37003427Y11475630D01*
X37006999Y11478071D01*
X37555150Y11718571D01*
X37564103Y11718757D01*
X37570565Y11712558D01*
G37*
%TD.AperFunction*%
%TD*%
%TA.AperFunction,Conductor*%
%TO.N,/Interfaces/I2C1_SDA_HDR*%
G36*
X36583128Y8366309D02*
G01*
X37447228Y7558264D01*
X37450930Y7550110D01*
X37447783Y7541727D01*
X37447510Y7541445D01*
X37350096Y7444031D01*
X37349925Y7443863D01*
X36583269Y6707938D01*
X36574928Y6704681D01*
X36566894Y6708106D01*
X35732703Y7542297D01*
X35729276Y7550570D01*
X35732703Y7558843D01*
X35732840Y7558978D01*
X36567003Y8366172D01*
X36575329Y8369461D01*
X36583128Y8366309D01*
G37*
%TD.AperFunction*%
%TD*%
%TA.AperFunction,Conductor*%
%TO.N,/Interfaces/I2C1_SCL_HDR*%
G36*
X34615176Y10995231D02*
G01*
X35098340Y10806750D01*
X35172839Y10777688D01*
X35179301Y10771489D01*
X35179487Y10762536D01*
X35179408Y10762339D01*
X35052563Y10453809D01*
X35046248Y10447460D01*
X35046191Y10447437D01*
X34737661Y10320592D01*
X34728706Y10320615D01*
X34722391Y10326964D01*
X34722312Y10327161D01*
X34548981Y10771489D01*
X34504770Y10884823D01*
X34504956Y10893774D01*
X34507394Y10897343D01*
X34602655Y10992604D01*
X34610927Y10996030D01*
X34615176Y10995231D01*
G37*
%TD.AperFunction*%
%TD*%
%TA.AperFunction,Conductor*%
%TO.N,/Interfaces/I2C1_SDA_HDR*%
G36*
X38143773Y11945044D02*
G01*
X38147345Y11942603D01*
X38242602Y11847346D01*
X38246029Y11839073D01*
X38245229Y11834821D01*
X38027687Y11277161D01*
X38021488Y11270699D01*
X38012535Y11270513D01*
X38012338Y11270592D01*
X37703808Y11397437D01*
X37697460Y11403751D01*
X37570591Y11712340D01*
X37570614Y11721294D01*
X37576963Y11727609D01*
X37577131Y11727677D01*
X38134822Y11945230D01*
X38143773Y11945044D01*
G37*
%TD.AperFunction*%
%TD*%
%TA.AperFunction,Conductor*%
%TO.N,/MCP19061/LG2*%
G36*
X76065176Y20045231D02*
G01*
X76548340Y19856750D01*
X76622839Y19827688D01*
X76629301Y19821489D01*
X76629487Y19812536D01*
X76629408Y19812339D01*
X76502563Y19503809D01*
X76496248Y19497460D01*
X76496191Y19497437D01*
X76187661Y19370592D01*
X76178706Y19370615D01*
X76172391Y19376964D01*
X76172312Y19377161D01*
X75998981Y19821489D01*
X75954770Y19934823D01*
X75954956Y19943774D01*
X75957394Y19947343D01*
X76052655Y20042604D01*
X76060927Y20046030D01*
X76065176Y20045231D01*
G37*
%TD.AperFunction*%
%TD*%
%TA.AperFunction,Conductor*%
%TO.N,/Interfaces/I{slash}O_HDR1*%
G36*
X22504484Y5099137D02*
G01*
X23273556Y4779598D01*
X23279880Y4773260D01*
X23279871Y4764305D01*
X23279461Y4763423D01*
X22578270Y3406329D01*
X22571427Y3400552D01*
X22567875Y3400000D01*
X22432125Y3400000D01*
X22423852Y3403427D01*
X22421731Y3406329D01*
X21720539Y4763423D01*
X21719785Y4772346D01*
X21725562Y4779188D01*
X21726417Y4779587D01*
X22495511Y5099136D01*
X22504466Y5099144D01*
X22504484Y5099137D01*
G37*
%TD.AperFunction*%
%TD*%
%TA.AperFunction,Conductor*%
%TO.N,/Interfaces/RST_BTN*%
G36*
X71265176Y25545231D02*
G01*
X71748340Y25356750D01*
X71822839Y25327688D01*
X71829301Y25321489D01*
X71829487Y25312536D01*
X71829408Y25312339D01*
X71702563Y25003809D01*
X71696248Y24997460D01*
X71696191Y24997437D01*
X71387661Y24870592D01*
X71378706Y24870615D01*
X71372391Y24876964D01*
X71372312Y24877161D01*
X71198981Y25321489D01*
X71154770Y25434823D01*
X71154956Y25443774D01*
X71157394Y25447343D01*
X71252655Y25542604D01*
X71260927Y25546030D01*
X71265176Y25545231D01*
G37*
%TD.AperFunction*%
%TD*%
%TA.AperFunction,Conductor*%
%TO.N,/Interfaces/I2C1_SDA_HDR*%
G36*
X23844654Y16218655D02*
G01*
X23844849Y16218571D01*
X24393001Y15978071D01*
X24399200Y15971609D01*
X24400000Y15967357D01*
X24400000Y15832644D01*
X24396573Y15824371D01*
X24393001Y15821930D01*
X23844849Y15581430D01*
X23835896Y15581244D01*
X23829434Y15587443D01*
X23829350Y15587638D01*
X23700880Y15895494D01*
X23700857Y15904449D01*
X23700880Y15904506D01*
X23727108Y15967357D01*
X23829351Y16212365D01*
X23835699Y16218678D01*
X23844654Y16218655D01*
G37*
%TD.AperFunction*%
%TD*%
D26*
X100000000Y46800000D02*
X100000000Y3200000D01*
X0Y46800000D02*
X0Y3200000D01*
X96800000Y50000000D02*
X3200000Y50000000D01*
X96800000Y50000000D02*
G75*
G02*
X100000000Y46800000I-100J-3200100D01*
G01*
X100000000Y3200000D02*
G75*
G02*
X96800000Y0I-3200000J0D01*
G01*
X0Y46800000D02*
G75*
G02*
X3200000Y50000000I3200000J0D01*
G01*
X3200000Y0D02*
G75*
G02*
X0Y3200000I0J3200000D01*
G01*
X3200000Y0D02*
X96800000Y0D01*
M02*
