%TF.GenerationSoftware,KiCad,Pcbnew,8.0.6*%
%TF.CreationDate,2026-01-03T17:25:48-08:00*%
%TF.ProjectId,USBPD_Board,55534250-445f-4426-9f61-72642e6b6963,A*%
%TF.SameCoordinates,PX5f5e100PY7270e00*%
%TF.FileFunction,Legend,Bot*%
%TF.FilePolarity,Positive*%
%FSLAX46Y46*%
G04 Gerber Fmt 4.6, Leading zero omitted, Abs format (unit mm)*
G04 Created by KiCad (PCBNEW 8.0.6) date 2026-01-03 17:25:48*
%MOMM*%
%LPD*%
G01*
G04 APERTURE LIST*
%ADD10C,0.100000*%
%ADD11C,0.150000*%
%ADD12C,0.153000*%
%ADD13C,0.120000*%
%ADD14C,0.200000*%
%ADD15C,0.000000*%
%TA.AperFunction,Profile*%
%ADD16C,0.050000*%
%TD*%
G04 APERTURE END LIST*
D10*
X26250000Y16000000D02*
X26250000Y15400000D01*
X16100000Y13500000D02*
X21000000Y13500000D01*
X23700000Y9100000D02*
X16100000Y9100000D01*
X16100000Y9100000D02*
X16100000Y6300000D01*
X23700000Y6300000D02*
X23700000Y9100000D01*
X21350000Y16000000D02*
X26250000Y16000000D01*
X21000000Y13500000D02*
X21000000Y12900000D01*
X21350000Y16000000D02*
X21350000Y15300000D01*
X16100000Y6300000D02*
X23700000Y6300000D01*
X16100000Y13500000D02*
X16100000Y12800000D01*
D11*
X34114285Y14645181D02*
X34114285Y15645181D01*
X34114285Y15645181D02*
X33780952Y14930896D01*
X33780952Y14930896D02*
X33447619Y15645181D01*
X33447619Y15645181D02*
X33447619Y14645181D01*
X32400000Y14740420D02*
X32447619Y14692800D01*
X32447619Y14692800D02*
X32590476Y14645181D01*
X32590476Y14645181D02*
X32685714Y14645181D01*
X32685714Y14645181D02*
X32828571Y14692800D01*
X32828571Y14692800D02*
X32923809Y14788039D01*
X32923809Y14788039D02*
X32971428Y14883277D01*
X32971428Y14883277D02*
X33019047Y15073753D01*
X33019047Y15073753D02*
X33019047Y15216610D01*
X33019047Y15216610D02*
X32971428Y15407086D01*
X32971428Y15407086D02*
X32923809Y15502324D01*
X32923809Y15502324D02*
X32828571Y15597562D01*
X32828571Y15597562D02*
X32685714Y15645181D01*
X32685714Y15645181D02*
X32590476Y15645181D01*
X32590476Y15645181D02*
X32447619Y15597562D01*
X32447619Y15597562D02*
X32400000Y15549943D01*
X31971428Y14645181D02*
X31971428Y15645181D01*
X31971428Y15645181D02*
X31590476Y15645181D01*
X31590476Y15645181D02*
X31495238Y15597562D01*
X31495238Y15597562D02*
X31447619Y15549943D01*
X31447619Y15549943D02*
X31400000Y15454705D01*
X31400000Y15454705D02*
X31400000Y15311848D01*
X31400000Y15311848D02*
X31447619Y15216610D01*
X31447619Y15216610D02*
X31495238Y15168991D01*
X31495238Y15168991D02*
X31590476Y15121372D01*
X31590476Y15121372D02*
X31971428Y15121372D01*
X30447619Y14645181D02*
X31019047Y14645181D01*
X30733333Y14645181D02*
X30733333Y15645181D01*
X30733333Y15645181D02*
X30828571Y15502324D01*
X30828571Y15502324D02*
X30923809Y15407086D01*
X30923809Y15407086D02*
X31019047Y15359467D01*
X29971428Y14645181D02*
X29780952Y14645181D01*
X29780952Y14645181D02*
X29685714Y14692800D01*
X29685714Y14692800D02*
X29638095Y14740420D01*
X29638095Y14740420D02*
X29542857Y14883277D01*
X29542857Y14883277D02*
X29495238Y15073753D01*
X29495238Y15073753D02*
X29495238Y15454705D01*
X29495238Y15454705D02*
X29542857Y15549943D01*
X29542857Y15549943D02*
X29590476Y15597562D01*
X29590476Y15597562D02*
X29685714Y15645181D01*
X29685714Y15645181D02*
X29876190Y15645181D01*
X29876190Y15645181D02*
X29971428Y15597562D01*
X29971428Y15597562D02*
X30019047Y15549943D01*
X30019047Y15549943D02*
X30066666Y15454705D01*
X30066666Y15454705D02*
X30066666Y15216610D01*
X30066666Y15216610D02*
X30019047Y15121372D01*
X30019047Y15121372D02*
X29971428Y15073753D01*
X29971428Y15073753D02*
X29876190Y15026134D01*
X29876190Y15026134D02*
X29685714Y15026134D01*
X29685714Y15026134D02*
X29590476Y15073753D01*
X29590476Y15073753D02*
X29542857Y15121372D01*
X29542857Y15121372D02*
X29495238Y15216610D01*
X28876190Y15645181D02*
X28780952Y15645181D01*
X28780952Y15645181D02*
X28685714Y15597562D01*
X28685714Y15597562D02*
X28638095Y15549943D01*
X28638095Y15549943D02*
X28590476Y15454705D01*
X28590476Y15454705D02*
X28542857Y15264229D01*
X28542857Y15264229D02*
X28542857Y15026134D01*
X28542857Y15026134D02*
X28590476Y14835658D01*
X28590476Y14835658D02*
X28638095Y14740420D01*
X28638095Y14740420D02*
X28685714Y14692800D01*
X28685714Y14692800D02*
X28780952Y14645181D01*
X28780952Y14645181D02*
X28876190Y14645181D01*
X28876190Y14645181D02*
X28971428Y14692800D01*
X28971428Y14692800D02*
X29019047Y14740420D01*
X29019047Y14740420D02*
X29066666Y14835658D01*
X29066666Y14835658D02*
X29114285Y15026134D01*
X29114285Y15026134D02*
X29114285Y15264229D01*
X29114285Y15264229D02*
X29066666Y15454705D01*
X29066666Y15454705D02*
X29019047Y15549943D01*
X29019047Y15549943D02*
X28971428Y15597562D01*
X28971428Y15597562D02*
X28876190Y15645181D01*
X27685714Y15645181D02*
X27876190Y15645181D01*
X27876190Y15645181D02*
X27971428Y15597562D01*
X27971428Y15597562D02*
X28019047Y15549943D01*
X28019047Y15549943D02*
X28114285Y15407086D01*
X28114285Y15407086D02*
X28161904Y15216610D01*
X28161904Y15216610D02*
X28161904Y14835658D01*
X28161904Y14835658D02*
X28114285Y14740420D01*
X28114285Y14740420D02*
X28066666Y14692800D01*
X28066666Y14692800D02*
X27971428Y14645181D01*
X27971428Y14645181D02*
X27780952Y14645181D01*
X27780952Y14645181D02*
X27685714Y14692800D01*
X27685714Y14692800D02*
X27638095Y14740420D01*
X27638095Y14740420D02*
X27590476Y14835658D01*
X27590476Y14835658D02*
X27590476Y15073753D01*
X27590476Y15073753D02*
X27638095Y15168991D01*
X27638095Y15168991D02*
X27685714Y15216610D01*
X27685714Y15216610D02*
X27780952Y15264229D01*
X27780952Y15264229D02*
X27971428Y15264229D01*
X27971428Y15264229D02*
X28066666Y15216610D01*
X28066666Y15216610D02*
X28114285Y15168991D01*
X28114285Y15168991D02*
X28161904Y15073753D01*
X26638095Y14645181D02*
X27209523Y14645181D01*
X26923809Y14645181D02*
X26923809Y15645181D01*
X26923809Y15645181D02*
X27019047Y15502324D01*
X27019047Y15502324D02*
X27114285Y15407086D01*
X27114285Y15407086D02*
X27209523Y15359467D01*
X17797561Y10885715D02*
X17845180Y10790477D01*
X17845180Y10790477D02*
X17845180Y10647620D01*
X17845180Y10647620D02*
X17797561Y10504763D01*
X17797561Y10504763D02*
X17702323Y10409525D01*
X17702323Y10409525D02*
X17607085Y10361906D01*
X17607085Y10361906D02*
X17416609Y10314287D01*
X17416609Y10314287D02*
X17273752Y10314287D01*
X17273752Y10314287D02*
X17083276Y10361906D01*
X17083276Y10361906D02*
X16988038Y10409525D01*
X16988038Y10409525D02*
X16892800Y10504763D01*
X16892800Y10504763D02*
X16845180Y10647620D01*
X16845180Y10647620D02*
X16845180Y10742858D01*
X16845180Y10742858D02*
X16892800Y10885715D01*
X16892800Y10885715D02*
X16940419Y10933334D01*
X16940419Y10933334D02*
X17273752Y10933334D01*
X17273752Y10933334D02*
X17273752Y10742858D01*
X16845180Y11361906D02*
X17845180Y11361906D01*
X17845180Y11361906D02*
X17845180Y11742858D01*
X17845180Y11742858D02*
X17797561Y11838096D01*
X17797561Y11838096D02*
X17749942Y11885715D01*
X17749942Y11885715D02*
X17654704Y11933334D01*
X17654704Y11933334D02*
X17511847Y11933334D01*
X17511847Y11933334D02*
X17416609Y11885715D01*
X17416609Y11885715D02*
X17368990Y11838096D01*
X17368990Y11838096D02*
X17321371Y11742858D01*
X17321371Y11742858D02*
X17321371Y11361906D01*
X16845180Y12885715D02*
X16845180Y12314287D01*
X16845180Y12600001D02*
X17845180Y12600001D01*
X17845180Y12600001D02*
X17702323Y12504763D01*
X17702323Y12504763D02*
X17607085Y12409525D01*
X17607085Y12409525D02*
X17559466Y12314287D01*
D12*
X48445336Y45952381D02*
X48921527Y45619048D01*
X48445336Y45380953D02*
X49445336Y45380953D01*
X49445336Y45380953D02*
X49445336Y45761905D01*
X49445336Y45761905D02*
X49397717Y45857143D01*
X49397717Y45857143D02*
X49350098Y45904762D01*
X49350098Y45904762D02*
X49254860Y45952381D01*
X49254860Y45952381D02*
X49112003Y45952381D01*
X49112003Y45952381D02*
X49016765Y45904762D01*
X49016765Y45904762D02*
X48969146Y45857143D01*
X48969146Y45857143D02*
X48921527Y45761905D01*
X48921527Y45761905D02*
X48921527Y45380953D01*
X48492956Y46333334D02*
X48445336Y46476191D01*
X48445336Y46476191D02*
X48445336Y46714286D01*
X48445336Y46714286D02*
X48492956Y46809524D01*
X48492956Y46809524D02*
X48540575Y46857143D01*
X48540575Y46857143D02*
X48635813Y46904762D01*
X48635813Y46904762D02*
X48731051Y46904762D01*
X48731051Y46904762D02*
X48826289Y46857143D01*
X48826289Y46857143D02*
X48873908Y46809524D01*
X48873908Y46809524D02*
X48921527Y46714286D01*
X48921527Y46714286D02*
X48969146Y46523810D01*
X48969146Y46523810D02*
X49016765Y46428572D01*
X49016765Y46428572D02*
X49064384Y46380953D01*
X49064384Y46380953D02*
X49159622Y46333334D01*
X49159622Y46333334D02*
X49254860Y46333334D01*
X49254860Y46333334D02*
X49350098Y46380953D01*
X49350098Y46380953D02*
X49397717Y46428572D01*
X49397717Y46428572D02*
X49445336Y46523810D01*
X49445336Y46523810D02*
X49445336Y46761905D01*
X49445336Y46761905D02*
X49397717Y46904762D01*
X49445336Y47190477D02*
X49445336Y47761905D01*
X48445336Y47476191D02*
X49445336Y47476191D01*
X51997717Y45838096D02*
X52045336Y45742858D01*
X52045336Y45742858D02*
X52045336Y45600001D01*
X52045336Y45600001D02*
X51997717Y45457144D01*
X51997717Y45457144D02*
X51902479Y45361906D01*
X51902479Y45361906D02*
X51807241Y45314287D01*
X51807241Y45314287D02*
X51616765Y45266668D01*
X51616765Y45266668D02*
X51473908Y45266668D01*
X51473908Y45266668D02*
X51283432Y45314287D01*
X51283432Y45314287D02*
X51188194Y45361906D01*
X51188194Y45361906D02*
X51092956Y45457144D01*
X51092956Y45457144D02*
X51045336Y45600001D01*
X51045336Y45600001D02*
X51045336Y45695239D01*
X51045336Y45695239D02*
X51092956Y45838096D01*
X51092956Y45838096D02*
X51140575Y45885715D01*
X51140575Y45885715D02*
X51473908Y45885715D01*
X51473908Y45885715D02*
X51473908Y45695239D01*
X51045336Y46314287D02*
X52045336Y46314287D01*
X52045336Y46314287D02*
X51045336Y46885715D01*
X51045336Y46885715D02*
X52045336Y46885715D01*
X51045336Y47361906D02*
X52045336Y47361906D01*
X52045336Y47361906D02*
X52045336Y47600001D01*
X52045336Y47600001D02*
X51997717Y47742858D01*
X51997717Y47742858D02*
X51902479Y47838096D01*
X51902479Y47838096D02*
X51807241Y47885715D01*
X51807241Y47885715D02*
X51616765Y47933334D01*
X51616765Y47933334D02*
X51473908Y47933334D01*
X51473908Y47933334D02*
X51283432Y47885715D01*
X51283432Y47885715D02*
X51188194Y47838096D01*
X51188194Y47838096D02*
X51092956Y47742858D01*
X51092956Y47742858D02*
X51045336Y47600001D01*
X51045336Y47600001D02*
X51045336Y47361906D01*
X60045336Y45852381D02*
X60521527Y45519048D01*
X60045336Y45280953D02*
X61045336Y45280953D01*
X61045336Y45280953D02*
X61045336Y45661905D01*
X61045336Y45661905D02*
X60997717Y45757143D01*
X60997717Y45757143D02*
X60950098Y45804762D01*
X60950098Y45804762D02*
X60854860Y45852381D01*
X60854860Y45852381D02*
X60712003Y45852381D01*
X60712003Y45852381D02*
X60616765Y45804762D01*
X60616765Y45804762D02*
X60569146Y45757143D01*
X60569146Y45757143D02*
X60521527Y45661905D01*
X60521527Y45661905D02*
X60521527Y45280953D01*
X60092956Y46233334D02*
X60045336Y46376191D01*
X60045336Y46376191D02*
X60045336Y46614286D01*
X60045336Y46614286D02*
X60092956Y46709524D01*
X60092956Y46709524D02*
X60140575Y46757143D01*
X60140575Y46757143D02*
X60235813Y46804762D01*
X60235813Y46804762D02*
X60331051Y46804762D01*
X60331051Y46804762D02*
X60426289Y46757143D01*
X60426289Y46757143D02*
X60473908Y46709524D01*
X60473908Y46709524D02*
X60521527Y46614286D01*
X60521527Y46614286D02*
X60569146Y46423810D01*
X60569146Y46423810D02*
X60616765Y46328572D01*
X60616765Y46328572D02*
X60664384Y46280953D01*
X60664384Y46280953D02*
X60759622Y46233334D01*
X60759622Y46233334D02*
X60854860Y46233334D01*
X60854860Y46233334D02*
X60950098Y46280953D01*
X60950098Y46280953D02*
X60997717Y46328572D01*
X60997717Y46328572D02*
X61045336Y46423810D01*
X61045336Y46423810D02*
X61045336Y46661905D01*
X61045336Y46661905D02*
X60997717Y46804762D01*
X61045336Y47090477D02*
X61045336Y47661905D01*
X60045336Y47376191D02*
X61045336Y47376191D01*
D11*
X15366666Y12345181D02*
X15366666Y13345181D01*
X15366666Y13345181D02*
X15033333Y12630896D01*
X15033333Y12630896D02*
X14700000Y13345181D01*
X14700000Y13345181D02*
X14700000Y12345181D01*
X13652381Y12440420D02*
X13700000Y12392800D01*
X13700000Y12392800D02*
X13842857Y12345181D01*
X13842857Y12345181D02*
X13938095Y12345181D01*
X13938095Y12345181D02*
X14080952Y12392800D01*
X14080952Y12392800D02*
X14176190Y12488039D01*
X14176190Y12488039D02*
X14223809Y12583277D01*
X14223809Y12583277D02*
X14271428Y12773753D01*
X14271428Y12773753D02*
X14271428Y12916610D01*
X14271428Y12916610D02*
X14223809Y13107086D01*
X14223809Y13107086D02*
X14176190Y13202324D01*
X14176190Y13202324D02*
X14080952Y13297562D01*
X14080952Y13297562D02*
X13938095Y13345181D01*
X13938095Y13345181D02*
X13842857Y13345181D01*
X13842857Y13345181D02*
X13700000Y13297562D01*
X13700000Y13297562D02*
X13652381Y13249943D01*
X13223809Y12345181D02*
X13223809Y13345181D01*
X13223809Y13345181D02*
X12842857Y13345181D01*
X12842857Y13345181D02*
X12747619Y13297562D01*
X12747619Y13297562D02*
X12700000Y13249943D01*
X12700000Y13249943D02*
X12652381Y13154705D01*
X12652381Y13154705D02*
X12652381Y13011848D01*
X12652381Y13011848D02*
X12700000Y12916610D01*
X12700000Y12916610D02*
X12747619Y12868991D01*
X12747619Y12868991D02*
X12842857Y12821372D01*
X12842857Y12821372D02*
X13223809Y12821372D01*
X12271428Y13249943D02*
X12223809Y13297562D01*
X12223809Y13297562D02*
X12128571Y13345181D01*
X12128571Y13345181D02*
X11890476Y13345181D01*
X11890476Y13345181D02*
X11795238Y13297562D01*
X11795238Y13297562D02*
X11747619Y13249943D01*
X11747619Y13249943D02*
X11700000Y13154705D01*
X11700000Y13154705D02*
X11700000Y13059467D01*
X11700000Y13059467D02*
X11747619Y12916610D01*
X11747619Y12916610D02*
X12319047Y12345181D01*
X12319047Y12345181D02*
X11700000Y12345181D01*
X11319047Y13249943D02*
X11271428Y13297562D01*
X11271428Y13297562D02*
X11176190Y13345181D01*
X11176190Y13345181D02*
X10938095Y13345181D01*
X10938095Y13345181D02*
X10842857Y13297562D01*
X10842857Y13297562D02*
X10795238Y13249943D01*
X10795238Y13249943D02*
X10747619Y13154705D01*
X10747619Y13154705D02*
X10747619Y13059467D01*
X10747619Y13059467D02*
X10795238Y12916610D01*
X10795238Y12916610D02*
X11366666Y12345181D01*
X11366666Y12345181D02*
X10747619Y12345181D01*
X10366666Y13249943D02*
X10319047Y13297562D01*
X10319047Y13297562D02*
X10223809Y13345181D01*
X10223809Y13345181D02*
X9985714Y13345181D01*
X9985714Y13345181D02*
X9890476Y13297562D01*
X9890476Y13297562D02*
X9842857Y13249943D01*
X9842857Y13249943D02*
X9795238Y13154705D01*
X9795238Y13154705D02*
X9795238Y13059467D01*
X9795238Y13059467D02*
X9842857Y12916610D01*
X9842857Y12916610D02*
X10414285Y12345181D01*
X10414285Y12345181D02*
X9795238Y12345181D01*
X8842857Y12345181D02*
X9414285Y12345181D01*
X9128571Y12345181D02*
X9128571Y13345181D01*
X9128571Y13345181D02*
X9223809Y13202324D01*
X9223809Y13202324D02*
X9319047Y13107086D01*
X9319047Y13107086D02*
X9414285Y13059467D01*
X8461904Y12630896D02*
X7985714Y12630896D01*
X8557142Y12345181D02*
X8223809Y13345181D01*
X8223809Y13345181D02*
X7890476Y12345181D01*
D12*
X74797717Y45538096D02*
X74845336Y45442858D01*
X74845336Y45442858D02*
X74845336Y45300001D01*
X74845336Y45300001D02*
X74797717Y45157144D01*
X74797717Y45157144D02*
X74702479Y45061906D01*
X74702479Y45061906D02*
X74607241Y45014287D01*
X74607241Y45014287D02*
X74416765Y44966668D01*
X74416765Y44966668D02*
X74273908Y44966668D01*
X74273908Y44966668D02*
X74083432Y45014287D01*
X74083432Y45014287D02*
X73988194Y45061906D01*
X73988194Y45061906D02*
X73892956Y45157144D01*
X73892956Y45157144D02*
X73845336Y45300001D01*
X73845336Y45300001D02*
X73845336Y45395239D01*
X73845336Y45395239D02*
X73892956Y45538096D01*
X73892956Y45538096D02*
X73940575Y45585715D01*
X73940575Y45585715D02*
X74273908Y45585715D01*
X74273908Y45585715D02*
X74273908Y45395239D01*
X73845336Y46014287D02*
X74845336Y46014287D01*
X74845336Y46014287D02*
X73845336Y46585715D01*
X73845336Y46585715D02*
X74845336Y46585715D01*
X73845336Y47061906D02*
X74845336Y47061906D01*
X74845336Y47061906D02*
X74845336Y47300001D01*
X74845336Y47300001D02*
X74797717Y47442858D01*
X74797717Y47442858D02*
X74702479Y47538096D01*
X74702479Y47538096D02*
X74607241Y47585715D01*
X74607241Y47585715D02*
X74416765Y47633334D01*
X74416765Y47633334D02*
X74273908Y47633334D01*
X74273908Y47633334D02*
X74083432Y47585715D01*
X74083432Y47585715D02*
X73988194Y47538096D01*
X73988194Y47538096D02*
X73892956Y47442858D01*
X73892956Y47442858D02*
X73845336Y47300001D01*
X73845336Y47300001D02*
X73845336Y47061906D01*
X63597717Y45738096D02*
X63645336Y45642858D01*
X63645336Y45642858D02*
X63645336Y45500001D01*
X63645336Y45500001D02*
X63597717Y45357144D01*
X63597717Y45357144D02*
X63502479Y45261906D01*
X63502479Y45261906D02*
X63407241Y45214287D01*
X63407241Y45214287D02*
X63216765Y45166668D01*
X63216765Y45166668D02*
X63073908Y45166668D01*
X63073908Y45166668D02*
X62883432Y45214287D01*
X62883432Y45214287D02*
X62788194Y45261906D01*
X62788194Y45261906D02*
X62692956Y45357144D01*
X62692956Y45357144D02*
X62645336Y45500001D01*
X62645336Y45500001D02*
X62645336Y45595239D01*
X62645336Y45595239D02*
X62692956Y45738096D01*
X62692956Y45738096D02*
X62740575Y45785715D01*
X62740575Y45785715D02*
X63073908Y45785715D01*
X63073908Y45785715D02*
X63073908Y45595239D01*
X62645336Y46214287D02*
X63645336Y46214287D01*
X63645336Y46214287D02*
X62645336Y46785715D01*
X62645336Y46785715D02*
X63645336Y46785715D01*
X62645336Y47261906D02*
X63645336Y47261906D01*
X63645336Y47261906D02*
X63645336Y47500001D01*
X63645336Y47500001D02*
X63597717Y47642858D01*
X63597717Y47642858D02*
X63502479Y47738096D01*
X63502479Y47738096D02*
X63407241Y47785715D01*
X63407241Y47785715D02*
X63216765Y47833334D01*
X63216765Y47833334D02*
X63073908Y47833334D01*
X63073908Y47833334D02*
X62883432Y47785715D01*
X62883432Y47785715D02*
X62788194Y47738096D01*
X62788194Y47738096D02*
X62692956Y47642858D01*
X62692956Y47642858D02*
X62645336Y47500001D01*
X62645336Y47500001D02*
X62645336Y47261906D01*
X54545336Y45238096D02*
X53545336Y45571429D01*
X53545336Y45571429D02*
X54545336Y45904762D01*
X54545336Y46428572D02*
X54545336Y46619048D01*
X54545336Y46619048D02*
X54497717Y46714286D01*
X54497717Y46714286D02*
X54402479Y46809524D01*
X54402479Y46809524D02*
X54212003Y46857143D01*
X54212003Y46857143D02*
X53878670Y46857143D01*
X53878670Y46857143D02*
X53688194Y46809524D01*
X53688194Y46809524D02*
X53592956Y46714286D01*
X53592956Y46714286D02*
X53545336Y46619048D01*
X53545336Y46619048D02*
X53545336Y46428572D01*
X53545336Y46428572D02*
X53592956Y46333334D01*
X53592956Y46333334D02*
X53688194Y46238096D01*
X53688194Y46238096D02*
X53878670Y46190477D01*
X53878670Y46190477D02*
X54212003Y46190477D01*
X54212003Y46190477D02*
X54402479Y46238096D01*
X54402479Y46238096D02*
X54497717Y46333334D01*
X54497717Y46333334D02*
X54545336Y46428572D01*
X54545336Y47285715D02*
X53735813Y47285715D01*
X53735813Y47285715D02*
X53640575Y47333334D01*
X53640575Y47333334D02*
X53592956Y47380953D01*
X53592956Y47380953D02*
X53545336Y47476191D01*
X53545336Y47476191D02*
X53545336Y47666667D01*
X53545336Y47666667D02*
X53592956Y47761905D01*
X53592956Y47761905D02*
X53640575Y47809524D01*
X53640575Y47809524D02*
X53735813Y47857143D01*
X53735813Y47857143D02*
X54545336Y47857143D01*
X54545336Y48190477D02*
X54545336Y48761905D01*
X53545336Y48476191D02*
X54545336Y48476191D01*
X88845336Y44838096D02*
X87845336Y45171429D01*
X87845336Y45171429D02*
X88845336Y45504762D01*
X88845336Y46028572D02*
X88845336Y46219048D01*
X88845336Y46219048D02*
X88797717Y46314286D01*
X88797717Y46314286D02*
X88702479Y46409524D01*
X88702479Y46409524D02*
X88512003Y46457143D01*
X88512003Y46457143D02*
X88178670Y46457143D01*
X88178670Y46457143D02*
X87988194Y46409524D01*
X87988194Y46409524D02*
X87892956Y46314286D01*
X87892956Y46314286D02*
X87845336Y46219048D01*
X87845336Y46219048D02*
X87845336Y46028572D01*
X87845336Y46028572D02*
X87892956Y45933334D01*
X87892956Y45933334D02*
X87988194Y45838096D01*
X87988194Y45838096D02*
X88178670Y45790477D01*
X88178670Y45790477D02*
X88512003Y45790477D01*
X88512003Y45790477D02*
X88702479Y45838096D01*
X88702479Y45838096D02*
X88797717Y45933334D01*
X88797717Y45933334D02*
X88845336Y46028572D01*
X88845336Y46885715D02*
X88035813Y46885715D01*
X88035813Y46885715D02*
X87940575Y46933334D01*
X87940575Y46933334D02*
X87892956Y46980953D01*
X87892956Y46980953D02*
X87845336Y47076191D01*
X87845336Y47076191D02*
X87845336Y47266667D01*
X87845336Y47266667D02*
X87892956Y47361905D01*
X87892956Y47361905D02*
X87940575Y47409524D01*
X87940575Y47409524D02*
X88035813Y47457143D01*
X88035813Y47457143D02*
X88845336Y47457143D01*
X88845336Y47790477D02*
X88845336Y48361905D01*
X87845336Y48076191D02*
X88845336Y48076191D01*
X73161247Y16970197D02*
X73161247Y16160674D01*
X73161247Y16160674D02*
X73113628Y16065436D01*
X73113628Y16065436D02*
X73066009Y16017816D01*
X73066009Y16017816D02*
X72970771Y15970197D01*
X72970771Y15970197D02*
X72780295Y15970197D01*
X72780295Y15970197D02*
X72685057Y16017816D01*
X72685057Y16017816D02*
X72637438Y16065436D01*
X72637438Y16065436D02*
X72589819Y16160674D01*
X72589819Y16160674D02*
X72589819Y16970197D01*
X72161247Y16017816D02*
X72018390Y15970197D01*
X72018390Y15970197D02*
X71780295Y15970197D01*
X71780295Y15970197D02*
X71685057Y16017816D01*
X71685057Y16017816D02*
X71637438Y16065436D01*
X71637438Y16065436D02*
X71589819Y16160674D01*
X71589819Y16160674D02*
X71589819Y16255912D01*
X71589819Y16255912D02*
X71637438Y16351150D01*
X71637438Y16351150D02*
X71685057Y16398769D01*
X71685057Y16398769D02*
X71780295Y16446388D01*
X71780295Y16446388D02*
X71970771Y16494007D01*
X71970771Y16494007D02*
X72066009Y16541626D01*
X72066009Y16541626D02*
X72113628Y16589245D01*
X72113628Y16589245D02*
X72161247Y16684483D01*
X72161247Y16684483D02*
X72161247Y16779721D01*
X72161247Y16779721D02*
X72113628Y16874959D01*
X72113628Y16874959D02*
X72066009Y16922578D01*
X72066009Y16922578D02*
X71970771Y16970197D01*
X71970771Y16970197D02*
X71732676Y16970197D01*
X71732676Y16970197D02*
X71589819Y16922578D01*
X70827914Y16494007D02*
X70685057Y16446388D01*
X70685057Y16446388D02*
X70637438Y16398769D01*
X70637438Y16398769D02*
X70589819Y16303531D01*
X70589819Y16303531D02*
X70589819Y16160674D01*
X70589819Y16160674D02*
X70637438Y16065436D01*
X70637438Y16065436D02*
X70685057Y16017816D01*
X70685057Y16017816D02*
X70780295Y15970197D01*
X70780295Y15970197D02*
X71161247Y15970197D01*
X71161247Y15970197D02*
X71161247Y16970197D01*
X71161247Y16970197D02*
X70827914Y16970197D01*
X70827914Y16970197D02*
X70732676Y16922578D01*
X70732676Y16922578D02*
X70685057Y16874959D01*
X70685057Y16874959D02*
X70637438Y16779721D01*
X70637438Y16779721D02*
X70637438Y16684483D01*
X70637438Y16684483D02*
X70685057Y16589245D01*
X70685057Y16589245D02*
X70732676Y16541626D01*
X70732676Y16541626D02*
X70827914Y16494007D01*
X70827914Y16494007D02*
X71161247Y16494007D01*
X70161247Y16351150D02*
X69399343Y16351150D01*
X68923152Y15970197D02*
X68923152Y16970197D01*
X68923152Y16970197D02*
X68542200Y16970197D01*
X68542200Y16970197D02*
X68446962Y16922578D01*
X68446962Y16922578D02*
X68399343Y16874959D01*
X68399343Y16874959D02*
X68351724Y16779721D01*
X68351724Y16779721D02*
X68351724Y16636864D01*
X68351724Y16636864D02*
X68399343Y16541626D01*
X68399343Y16541626D02*
X68446962Y16494007D01*
X68446962Y16494007D02*
X68542200Y16446388D01*
X68542200Y16446388D02*
X68923152Y16446388D01*
X67923152Y15970197D02*
X67923152Y16970197D01*
X67923152Y16970197D02*
X67685057Y16970197D01*
X67685057Y16970197D02*
X67542200Y16922578D01*
X67542200Y16922578D02*
X67446962Y16827340D01*
X67446962Y16827340D02*
X67399343Y16732102D01*
X67399343Y16732102D02*
X67351724Y16541626D01*
X67351724Y16541626D02*
X67351724Y16398769D01*
X67351724Y16398769D02*
X67399343Y16208293D01*
X67399343Y16208293D02*
X67446962Y16113055D01*
X67446962Y16113055D02*
X67542200Y16017816D01*
X67542200Y16017816D02*
X67685057Y15970197D01*
X67685057Y15970197D02*
X67923152Y15970197D01*
X65827914Y16494007D02*
X65685057Y16446388D01*
X65685057Y16446388D02*
X65637438Y16398769D01*
X65637438Y16398769D02*
X65589819Y16303531D01*
X65589819Y16303531D02*
X65589819Y16160674D01*
X65589819Y16160674D02*
X65637438Y16065436D01*
X65637438Y16065436D02*
X65685057Y16017816D01*
X65685057Y16017816D02*
X65780295Y15970197D01*
X65780295Y15970197D02*
X66161247Y15970197D01*
X66161247Y15970197D02*
X66161247Y16970197D01*
X66161247Y16970197D02*
X65827914Y16970197D01*
X65827914Y16970197D02*
X65732676Y16922578D01*
X65732676Y16922578D02*
X65685057Y16874959D01*
X65685057Y16874959D02*
X65637438Y16779721D01*
X65637438Y16779721D02*
X65637438Y16684483D01*
X65637438Y16684483D02*
X65685057Y16589245D01*
X65685057Y16589245D02*
X65732676Y16541626D01*
X65732676Y16541626D02*
X65827914Y16494007D01*
X65827914Y16494007D02*
X66161247Y16494007D01*
X65018390Y15970197D02*
X65113628Y16017816D01*
X65113628Y16017816D02*
X65161247Y16065436D01*
X65161247Y16065436D02*
X65208866Y16160674D01*
X65208866Y16160674D02*
X65208866Y16446388D01*
X65208866Y16446388D02*
X65161247Y16541626D01*
X65161247Y16541626D02*
X65113628Y16589245D01*
X65113628Y16589245D02*
X65018390Y16636864D01*
X65018390Y16636864D02*
X64875533Y16636864D01*
X64875533Y16636864D02*
X64780295Y16589245D01*
X64780295Y16589245D02*
X64732676Y16541626D01*
X64732676Y16541626D02*
X64685057Y16446388D01*
X64685057Y16446388D02*
X64685057Y16160674D01*
X64685057Y16160674D02*
X64732676Y16065436D01*
X64732676Y16065436D02*
X64780295Y16017816D01*
X64780295Y16017816D02*
X64875533Y15970197D01*
X64875533Y15970197D02*
X65018390Y15970197D01*
X63827914Y15970197D02*
X63827914Y16494007D01*
X63827914Y16494007D02*
X63875533Y16589245D01*
X63875533Y16589245D02*
X63970771Y16636864D01*
X63970771Y16636864D02*
X64161247Y16636864D01*
X64161247Y16636864D02*
X64256485Y16589245D01*
X63827914Y16017816D02*
X63923152Y15970197D01*
X63923152Y15970197D02*
X64161247Y15970197D01*
X64161247Y15970197D02*
X64256485Y16017816D01*
X64256485Y16017816D02*
X64304104Y16113055D01*
X64304104Y16113055D02*
X64304104Y16208293D01*
X64304104Y16208293D02*
X64256485Y16303531D01*
X64256485Y16303531D02*
X64161247Y16351150D01*
X64161247Y16351150D02*
X63923152Y16351150D01*
X63923152Y16351150D02*
X63827914Y16398769D01*
X63351723Y15970197D02*
X63351723Y16636864D01*
X63351723Y16446388D02*
X63304104Y16541626D01*
X63304104Y16541626D02*
X63256485Y16589245D01*
X63256485Y16589245D02*
X63161247Y16636864D01*
X63161247Y16636864D02*
X63066009Y16636864D01*
X62304104Y15970197D02*
X62304104Y16970197D01*
X62304104Y16017816D02*
X62399342Y15970197D01*
X62399342Y15970197D02*
X62589818Y15970197D01*
X62589818Y15970197D02*
X62685056Y16017816D01*
X62685056Y16017816D02*
X62732675Y16065436D01*
X62732675Y16065436D02*
X62780294Y16160674D01*
X62780294Y16160674D02*
X62780294Y16446388D01*
X62780294Y16446388D02*
X62732675Y16541626D01*
X62732675Y16541626D02*
X62685056Y16589245D01*
X62685056Y16589245D02*
X62589818Y16636864D01*
X62589818Y16636864D02*
X62399342Y16636864D01*
X62399342Y16636864D02*
X62304104Y16589245D01*
X72589819Y14360253D02*
X72923152Y14836444D01*
X73161247Y14360253D02*
X73161247Y15360253D01*
X73161247Y15360253D02*
X72780295Y15360253D01*
X72780295Y15360253D02*
X72685057Y15312634D01*
X72685057Y15312634D02*
X72637438Y15265015D01*
X72637438Y15265015D02*
X72589819Y15169777D01*
X72589819Y15169777D02*
X72589819Y15026920D01*
X72589819Y15026920D02*
X72637438Y14931682D01*
X72637438Y14931682D02*
X72685057Y14884063D01*
X72685057Y14884063D02*
X72780295Y14836444D01*
X72780295Y14836444D02*
X73161247Y14836444D01*
X71780295Y14407872D02*
X71875533Y14360253D01*
X71875533Y14360253D02*
X72066009Y14360253D01*
X72066009Y14360253D02*
X72161247Y14407872D01*
X72161247Y14407872D02*
X72208866Y14503111D01*
X72208866Y14503111D02*
X72208866Y14884063D01*
X72208866Y14884063D02*
X72161247Y14979301D01*
X72161247Y14979301D02*
X72066009Y15026920D01*
X72066009Y15026920D02*
X71875533Y15026920D01*
X71875533Y15026920D02*
X71780295Y14979301D01*
X71780295Y14979301D02*
X71732676Y14884063D01*
X71732676Y14884063D02*
X71732676Y14788825D01*
X71732676Y14788825D02*
X72208866Y14693587D01*
X71399342Y15026920D02*
X71161247Y14360253D01*
X71161247Y14360253D02*
X70923152Y15026920D01*
X70542199Y14360253D02*
X70542199Y15026920D01*
X70542199Y15360253D02*
X70589818Y15312634D01*
X70589818Y15312634D02*
X70542199Y15265015D01*
X70542199Y15265015D02*
X70494580Y15312634D01*
X70494580Y15312634D02*
X70542199Y15360253D01*
X70542199Y15360253D02*
X70542199Y15265015D01*
X70113628Y14407872D02*
X70018390Y14360253D01*
X70018390Y14360253D02*
X69827914Y14360253D01*
X69827914Y14360253D02*
X69732676Y14407872D01*
X69732676Y14407872D02*
X69685057Y14503111D01*
X69685057Y14503111D02*
X69685057Y14550730D01*
X69685057Y14550730D02*
X69732676Y14645968D01*
X69732676Y14645968D02*
X69827914Y14693587D01*
X69827914Y14693587D02*
X69970771Y14693587D01*
X69970771Y14693587D02*
X70066009Y14741206D01*
X70066009Y14741206D02*
X70113628Y14836444D01*
X70113628Y14836444D02*
X70113628Y14884063D01*
X70113628Y14884063D02*
X70066009Y14979301D01*
X70066009Y14979301D02*
X69970771Y15026920D01*
X69970771Y15026920D02*
X69827914Y15026920D01*
X69827914Y15026920D02*
X69732676Y14979301D01*
X69256485Y14360253D02*
X69256485Y15026920D01*
X69256485Y15360253D02*
X69304104Y15312634D01*
X69304104Y15312634D02*
X69256485Y15265015D01*
X69256485Y15265015D02*
X69208866Y15312634D01*
X69208866Y15312634D02*
X69256485Y15360253D01*
X69256485Y15360253D02*
X69256485Y15265015D01*
X68637438Y14360253D02*
X68732676Y14407872D01*
X68732676Y14407872D02*
X68780295Y14455492D01*
X68780295Y14455492D02*
X68827914Y14550730D01*
X68827914Y14550730D02*
X68827914Y14836444D01*
X68827914Y14836444D02*
X68780295Y14931682D01*
X68780295Y14931682D02*
X68732676Y14979301D01*
X68732676Y14979301D02*
X68637438Y15026920D01*
X68637438Y15026920D02*
X68494581Y15026920D01*
X68494581Y15026920D02*
X68399343Y14979301D01*
X68399343Y14979301D02*
X68351724Y14931682D01*
X68351724Y14931682D02*
X68304105Y14836444D01*
X68304105Y14836444D02*
X68304105Y14550730D01*
X68304105Y14550730D02*
X68351724Y14455492D01*
X68351724Y14455492D02*
X68399343Y14407872D01*
X68399343Y14407872D02*
X68494581Y14360253D01*
X68494581Y14360253D02*
X68637438Y14360253D01*
X67875533Y15026920D02*
X67875533Y14360253D01*
X67875533Y14931682D02*
X67827914Y14979301D01*
X67827914Y14979301D02*
X67732676Y15026920D01*
X67732676Y15026920D02*
X67589819Y15026920D01*
X67589819Y15026920D02*
X67494581Y14979301D01*
X67494581Y14979301D02*
X67446962Y14884063D01*
X67446962Y14884063D02*
X67446962Y14360253D01*
X66970771Y14455492D02*
X66923152Y14407872D01*
X66923152Y14407872D02*
X66970771Y14360253D01*
X66970771Y14360253D02*
X67018390Y14407872D01*
X67018390Y14407872D02*
X66970771Y14455492D01*
X66970771Y14455492D02*
X66970771Y14360253D01*
X66970771Y14979301D02*
X66923152Y14931682D01*
X66923152Y14931682D02*
X66970771Y14884063D01*
X66970771Y14884063D02*
X67018390Y14931682D01*
X67018390Y14931682D02*
X66970771Y14979301D01*
X66970771Y14979301D02*
X66970771Y14884063D01*
X65161248Y14360253D02*
X65494581Y14836444D01*
X65732676Y14360253D02*
X65732676Y15360253D01*
X65732676Y15360253D02*
X65351724Y15360253D01*
X65351724Y15360253D02*
X65256486Y15312634D01*
X65256486Y15312634D02*
X65208867Y15265015D01*
X65208867Y15265015D02*
X65161248Y15169777D01*
X65161248Y15169777D02*
X65161248Y15026920D01*
X65161248Y15026920D02*
X65208867Y14931682D01*
X65208867Y14931682D02*
X65256486Y14884063D01*
X65256486Y14884063D02*
X65351724Y14836444D01*
X65351724Y14836444D02*
X65732676Y14836444D01*
X64732676Y14884063D02*
X64399343Y14884063D01*
X64256486Y14360253D02*
X64732676Y14360253D01*
X64732676Y14360253D02*
X64732676Y15360253D01*
X64732676Y15360253D02*
X64256486Y15360253D01*
X63970771Y15360253D02*
X63637438Y14360253D01*
X63637438Y14360253D02*
X63304105Y15360253D01*
X61875533Y14884063D02*
X61732676Y14836444D01*
X61732676Y14836444D02*
X61685057Y14788825D01*
X61685057Y14788825D02*
X61637438Y14693587D01*
X61637438Y14693587D02*
X61637438Y14550730D01*
X61637438Y14550730D02*
X61685057Y14455492D01*
X61685057Y14455492D02*
X61732676Y14407872D01*
X61732676Y14407872D02*
X61827914Y14360253D01*
X61827914Y14360253D02*
X62208866Y14360253D01*
X62208866Y14360253D02*
X62208866Y15360253D01*
X62208866Y15360253D02*
X61875533Y15360253D01*
X61875533Y15360253D02*
X61780295Y15312634D01*
X61780295Y15312634D02*
X61732676Y15265015D01*
X61732676Y15265015D02*
X61685057Y15169777D01*
X61685057Y15169777D02*
X61685057Y15074539D01*
X61685057Y15074539D02*
X61732676Y14979301D01*
X61732676Y14979301D02*
X61780295Y14931682D01*
X61780295Y14931682D02*
X61875533Y14884063D01*
X61875533Y14884063D02*
X62208866Y14884063D01*
X73161247Y12750309D02*
X73161247Y13750309D01*
X73161247Y13750309D02*
X72923152Y13750309D01*
X72923152Y13750309D02*
X72780295Y13702690D01*
X72780295Y13702690D02*
X72685057Y13607452D01*
X72685057Y13607452D02*
X72637438Y13512214D01*
X72637438Y13512214D02*
X72589819Y13321738D01*
X72589819Y13321738D02*
X72589819Y13178881D01*
X72589819Y13178881D02*
X72637438Y12988405D01*
X72637438Y12988405D02*
X72685057Y12893167D01*
X72685057Y12893167D02*
X72780295Y12797928D01*
X72780295Y12797928D02*
X72923152Y12750309D01*
X72923152Y12750309D02*
X73161247Y12750309D01*
X71780295Y12797928D02*
X71875533Y12750309D01*
X71875533Y12750309D02*
X72066009Y12750309D01*
X72066009Y12750309D02*
X72161247Y12797928D01*
X72161247Y12797928D02*
X72208866Y12893167D01*
X72208866Y12893167D02*
X72208866Y13274119D01*
X72208866Y13274119D02*
X72161247Y13369357D01*
X72161247Y13369357D02*
X72066009Y13416976D01*
X72066009Y13416976D02*
X71875533Y13416976D01*
X71875533Y13416976D02*
X71780295Y13369357D01*
X71780295Y13369357D02*
X71732676Y13274119D01*
X71732676Y13274119D02*
X71732676Y13178881D01*
X71732676Y13178881D02*
X72208866Y13083643D01*
X71351723Y12797928D02*
X71256485Y12750309D01*
X71256485Y12750309D02*
X71066009Y12750309D01*
X71066009Y12750309D02*
X70970771Y12797928D01*
X70970771Y12797928D02*
X70923152Y12893167D01*
X70923152Y12893167D02*
X70923152Y12940786D01*
X70923152Y12940786D02*
X70970771Y13036024D01*
X70970771Y13036024D02*
X71066009Y13083643D01*
X71066009Y13083643D02*
X71208866Y13083643D01*
X71208866Y13083643D02*
X71304104Y13131262D01*
X71304104Y13131262D02*
X71351723Y13226500D01*
X71351723Y13226500D02*
X71351723Y13274119D01*
X71351723Y13274119D02*
X71304104Y13369357D01*
X71304104Y13369357D02*
X71208866Y13416976D01*
X71208866Y13416976D02*
X71066009Y13416976D01*
X71066009Y13416976D02*
X70970771Y13369357D01*
X70494580Y12750309D02*
X70494580Y13416976D01*
X70494580Y13750309D02*
X70542199Y13702690D01*
X70542199Y13702690D02*
X70494580Y13655071D01*
X70494580Y13655071D02*
X70446961Y13702690D01*
X70446961Y13702690D02*
X70494580Y13750309D01*
X70494580Y13750309D02*
X70494580Y13655071D01*
X69589819Y13416976D02*
X69589819Y12607452D01*
X69589819Y12607452D02*
X69637438Y12512214D01*
X69637438Y12512214D02*
X69685057Y12464595D01*
X69685057Y12464595D02*
X69780295Y12416976D01*
X69780295Y12416976D02*
X69923152Y12416976D01*
X69923152Y12416976D02*
X70018390Y12464595D01*
X69589819Y12797928D02*
X69685057Y12750309D01*
X69685057Y12750309D02*
X69875533Y12750309D01*
X69875533Y12750309D02*
X69970771Y12797928D01*
X69970771Y12797928D02*
X70018390Y12845548D01*
X70018390Y12845548D02*
X70066009Y12940786D01*
X70066009Y12940786D02*
X70066009Y13226500D01*
X70066009Y13226500D02*
X70018390Y13321738D01*
X70018390Y13321738D02*
X69970771Y13369357D01*
X69970771Y13369357D02*
X69875533Y13416976D01*
X69875533Y13416976D02*
X69685057Y13416976D01*
X69685057Y13416976D02*
X69589819Y13369357D01*
X69113628Y13416976D02*
X69113628Y12750309D01*
X69113628Y13321738D02*
X69066009Y13369357D01*
X69066009Y13369357D02*
X68970771Y13416976D01*
X68970771Y13416976D02*
X68827914Y13416976D01*
X68827914Y13416976D02*
X68732676Y13369357D01*
X68732676Y13369357D02*
X68685057Y13274119D01*
X68685057Y13274119D02*
X68685057Y12750309D01*
X67827914Y12797928D02*
X67923152Y12750309D01*
X67923152Y12750309D02*
X68113628Y12750309D01*
X68113628Y12750309D02*
X68208866Y12797928D01*
X68208866Y12797928D02*
X68256485Y12893167D01*
X68256485Y12893167D02*
X68256485Y13274119D01*
X68256485Y13274119D02*
X68208866Y13369357D01*
X68208866Y13369357D02*
X68113628Y13416976D01*
X68113628Y13416976D02*
X67923152Y13416976D01*
X67923152Y13416976D02*
X67827914Y13369357D01*
X67827914Y13369357D02*
X67780295Y13274119D01*
X67780295Y13274119D02*
X67780295Y13178881D01*
X67780295Y13178881D02*
X68256485Y13083643D01*
X67351723Y12750309D02*
X67351723Y13416976D01*
X67351723Y13226500D02*
X67304104Y13321738D01*
X67304104Y13321738D02*
X67256485Y13369357D01*
X67256485Y13369357D02*
X67161247Y13416976D01*
X67161247Y13416976D02*
X67066009Y13416976D01*
X66732675Y12845548D02*
X66685056Y12797928D01*
X66685056Y12797928D02*
X66732675Y12750309D01*
X66732675Y12750309D02*
X66780294Y12797928D01*
X66780294Y12797928D02*
X66732675Y12845548D01*
X66732675Y12845548D02*
X66732675Y12750309D01*
X66732675Y13369357D02*
X66685056Y13321738D01*
X66685056Y13321738D02*
X66732675Y13274119D01*
X66732675Y13274119D02*
X66780294Y13321738D01*
X66780294Y13321738D02*
X66732675Y13369357D01*
X66732675Y13369357D02*
X66732675Y13274119D01*
X65494580Y12750309D02*
X65494580Y13750309D01*
X65494580Y13750309D02*
X65113628Y13750309D01*
X65113628Y13750309D02*
X65018390Y13702690D01*
X65018390Y13702690D02*
X64970771Y13655071D01*
X64970771Y13655071D02*
X64923152Y13559833D01*
X64923152Y13559833D02*
X64923152Y13416976D01*
X64923152Y13416976D02*
X64970771Y13321738D01*
X64970771Y13321738D02*
X65018390Y13274119D01*
X65018390Y13274119D02*
X65113628Y13226500D01*
X65113628Y13226500D02*
X65494580Y13226500D01*
X64113628Y12797928D02*
X64208866Y12750309D01*
X64208866Y12750309D02*
X64399342Y12750309D01*
X64399342Y12750309D02*
X64494580Y12797928D01*
X64494580Y12797928D02*
X64542199Y12893167D01*
X64542199Y12893167D02*
X64542199Y13274119D01*
X64542199Y13274119D02*
X64494580Y13369357D01*
X64494580Y13369357D02*
X64399342Y13416976D01*
X64399342Y13416976D02*
X64208866Y13416976D01*
X64208866Y13416976D02*
X64113628Y13369357D01*
X64113628Y13369357D02*
X64066009Y13274119D01*
X64066009Y13274119D02*
X64066009Y13178881D01*
X64066009Y13178881D02*
X64542199Y13083643D01*
X63780294Y13416976D02*
X63399342Y13416976D01*
X63637437Y13750309D02*
X63637437Y12893167D01*
X63637437Y12893167D02*
X63589818Y12797928D01*
X63589818Y12797928D02*
X63494580Y12750309D01*
X63494580Y12750309D02*
X63399342Y12750309D01*
X62685056Y12797928D02*
X62780294Y12750309D01*
X62780294Y12750309D02*
X62970770Y12750309D01*
X62970770Y12750309D02*
X63066008Y12797928D01*
X63066008Y12797928D02*
X63113627Y12893167D01*
X63113627Y12893167D02*
X63113627Y13274119D01*
X63113627Y13274119D02*
X63066008Y13369357D01*
X63066008Y13369357D02*
X62970770Y13416976D01*
X62970770Y13416976D02*
X62780294Y13416976D01*
X62780294Y13416976D02*
X62685056Y13369357D01*
X62685056Y13369357D02*
X62637437Y13274119D01*
X62637437Y13274119D02*
X62637437Y13178881D01*
X62637437Y13178881D02*
X63113627Y13083643D01*
X62208865Y12750309D02*
X62208865Y13416976D01*
X62208865Y13226500D02*
X62161246Y13321738D01*
X62161246Y13321738D02*
X62113627Y13369357D01*
X62113627Y13369357D02*
X62018389Y13416976D01*
X62018389Y13416976D02*
X61923151Y13416976D01*
X60827912Y12750309D02*
X60827912Y13750309D01*
X60827912Y13274119D02*
X60256484Y13274119D01*
X60256484Y12750309D02*
X60256484Y13750309D01*
X59351722Y12750309D02*
X59351722Y13274119D01*
X59351722Y13274119D02*
X59399341Y13369357D01*
X59399341Y13369357D02*
X59494579Y13416976D01*
X59494579Y13416976D02*
X59685055Y13416976D01*
X59685055Y13416976D02*
X59780293Y13369357D01*
X59351722Y12797928D02*
X59446960Y12750309D01*
X59446960Y12750309D02*
X59685055Y12750309D01*
X59685055Y12750309D02*
X59780293Y12797928D01*
X59780293Y12797928D02*
X59827912Y12893167D01*
X59827912Y12893167D02*
X59827912Y12988405D01*
X59827912Y12988405D02*
X59780293Y13083643D01*
X59780293Y13083643D02*
X59685055Y13131262D01*
X59685055Y13131262D02*
X59446960Y13131262D01*
X59446960Y13131262D02*
X59351722Y13178881D01*
X58875531Y13416976D02*
X58875531Y12750309D01*
X58875531Y13321738D02*
X58827912Y13369357D01*
X58827912Y13369357D02*
X58732674Y13416976D01*
X58732674Y13416976D02*
X58589817Y13416976D01*
X58589817Y13416976D02*
X58494579Y13369357D01*
X58494579Y13369357D02*
X58446960Y13274119D01*
X58446960Y13274119D02*
X58446960Y12750309D01*
X57542198Y12797928D02*
X57637436Y12750309D01*
X57637436Y12750309D02*
X57827912Y12750309D01*
X57827912Y12750309D02*
X57923150Y12797928D01*
X57923150Y12797928D02*
X57970769Y12845548D01*
X57970769Y12845548D02*
X58018388Y12940786D01*
X58018388Y12940786D02*
X58018388Y13226500D01*
X58018388Y13226500D02*
X57970769Y13321738D01*
X57970769Y13321738D02*
X57923150Y13369357D01*
X57923150Y13369357D02*
X57827912Y13416976D01*
X57827912Y13416976D02*
X57637436Y13416976D01*
X57637436Y13416976D02*
X57542198Y13369357D01*
X56685055Y12750309D02*
X56685055Y13274119D01*
X56685055Y13274119D02*
X56732674Y13369357D01*
X56732674Y13369357D02*
X56827912Y13416976D01*
X56827912Y13416976D02*
X57018388Y13416976D01*
X57018388Y13416976D02*
X57113626Y13369357D01*
X56685055Y12797928D02*
X56780293Y12750309D01*
X56780293Y12750309D02*
X57018388Y12750309D01*
X57018388Y12750309D02*
X57113626Y12797928D01*
X57113626Y12797928D02*
X57161245Y12893167D01*
X57161245Y12893167D02*
X57161245Y12988405D01*
X57161245Y12988405D02*
X57113626Y13083643D01*
X57113626Y13083643D02*
X57018388Y13131262D01*
X57018388Y13131262D02*
X56780293Y13131262D01*
X56780293Y13131262D02*
X56685055Y13178881D01*
X56208864Y12750309D02*
X56208864Y13750309D01*
X56113626Y13131262D02*
X55827912Y12750309D01*
X55827912Y13416976D02*
X56208864Y13036024D01*
X73208866Y11187984D02*
X73066009Y11140365D01*
X73066009Y11140365D02*
X72827914Y11140365D01*
X72827914Y11140365D02*
X72732676Y11187984D01*
X72732676Y11187984D02*
X72685057Y11235604D01*
X72685057Y11235604D02*
X72637438Y11330842D01*
X72637438Y11330842D02*
X72637438Y11426080D01*
X72637438Y11426080D02*
X72685057Y11521318D01*
X72685057Y11521318D02*
X72732676Y11568937D01*
X72732676Y11568937D02*
X72827914Y11616556D01*
X72827914Y11616556D02*
X73018390Y11664175D01*
X73018390Y11664175D02*
X73113628Y11711794D01*
X73113628Y11711794D02*
X73161247Y11759413D01*
X73161247Y11759413D02*
X73208866Y11854651D01*
X73208866Y11854651D02*
X73208866Y11949889D01*
X73208866Y11949889D02*
X73161247Y12045127D01*
X73161247Y12045127D02*
X73113628Y12092746D01*
X73113628Y12092746D02*
X73018390Y12140365D01*
X73018390Y12140365D02*
X72780295Y12140365D01*
X72780295Y12140365D02*
X72637438Y12092746D01*
X72208866Y11140365D02*
X72208866Y12140365D01*
X72208866Y12140365D02*
X71875533Y11426080D01*
X71875533Y11426080D02*
X71542200Y12140365D01*
X71542200Y12140365D02*
X71542200Y11140365D01*
X71066009Y11140365D02*
X71066009Y12140365D01*
X71066009Y12140365D02*
X70685057Y12140365D01*
X70685057Y12140365D02*
X70589819Y12092746D01*
X70589819Y12092746D02*
X70542200Y12045127D01*
X70542200Y12045127D02*
X70494581Y11949889D01*
X70494581Y11949889D02*
X70494581Y11807032D01*
X70494581Y11807032D02*
X70542200Y11711794D01*
X70542200Y11711794D02*
X70589819Y11664175D01*
X70589819Y11664175D02*
X70685057Y11616556D01*
X70685057Y11616556D02*
X71066009Y11616556D01*
X70113628Y11187984D02*
X69970771Y11140365D01*
X69970771Y11140365D02*
X69732676Y11140365D01*
X69732676Y11140365D02*
X69637438Y11187984D01*
X69637438Y11187984D02*
X69589819Y11235604D01*
X69589819Y11235604D02*
X69542200Y11330842D01*
X69542200Y11330842D02*
X69542200Y11426080D01*
X69542200Y11426080D02*
X69589819Y11521318D01*
X69589819Y11521318D02*
X69637438Y11568937D01*
X69637438Y11568937D02*
X69732676Y11616556D01*
X69732676Y11616556D02*
X69923152Y11664175D01*
X69923152Y11664175D02*
X70018390Y11711794D01*
X70018390Y11711794D02*
X70066009Y11759413D01*
X70066009Y11759413D02*
X70113628Y11854651D01*
X70113628Y11854651D02*
X70113628Y11949889D01*
X70113628Y11949889D02*
X70066009Y12045127D01*
X70066009Y12045127D02*
X70018390Y12092746D01*
X70018390Y12092746D02*
X69923152Y12140365D01*
X69923152Y12140365D02*
X69685057Y12140365D01*
X69685057Y12140365D02*
X69542200Y12092746D01*
X69113628Y11235604D02*
X69066009Y11187984D01*
X69066009Y11187984D02*
X69113628Y11140365D01*
X69113628Y11140365D02*
X69161247Y11187984D01*
X69161247Y11187984D02*
X69113628Y11235604D01*
X69113628Y11235604D02*
X69113628Y11140365D01*
X69113628Y11759413D02*
X69066009Y11711794D01*
X69066009Y11711794D02*
X69113628Y11664175D01*
X69113628Y11664175D02*
X69161247Y11711794D01*
X69161247Y11711794D02*
X69113628Y11759413D01*
X69113628Y11759413D02*
X69113628Y11664175D01*
X67875533Y11140365D02*
X67875533Y12140365D01*
X67875533Y12140365D02*
X67542200Y11426080D01*
X67542200Y11426080D02*
X67208867Y12140365D01*
X67208867Y12140365D02*
X67208867Y11140365D01*
X66161248Y11235604D02*
X66208867Y11187984D01*
X66208867Y11187984D02*
X66351724Y11140365D01*
X66351724Y11140365D02*
X66446962Y11140365D01*
X66446962Y11140365D02*
X66589819Y11187984D01*
X66589819Y11187984D02*
X66685057Y11283223D01*
X66685057Y11283223D02*
X66732676Y11378461D01*
X66732676Y11378461D02*
X66780295Y11568937D01*
X66780295Y11568937D02*
X66780295Y11711794D01*
X66780295Y11711794D02*
X66732676Y11902270D01*
X66732676Y11902270D02*
X66685057Y11997508D01*
X66685057Y11997508D02*
X66589819Y12092746D01*
X66589819Y12092746D02*
X66446962Y12140365D01*
X66446962Y12140365D02*
X66351724Y12140365D01*
X66351724Y12140365D02*
X66208867Y12092746D01*
X66208867Y12092746D02*
X66161248Y12045127D01*
X65732676Y11140365D02*
X65732676Y12140365D01*
X65732676Y12140365D02*
X65351724Y12140365D01*
X65351724Y12140365D02*
X65256486Y12092746D01*
X65256486Y12092746D02*
X65208867Y12045127D01*
X65208867Y12045127D02*
X65161248Y11949889D01*
X65161248Y11949889D02*
X65161248Y11807032D01*
X65161248Y11807032D02*
X65208867Y11711794D01*
X65208867Y11711794D02*
X65256486Y11664175D01*
X65256486Y11664175D02*
X65351724Y11616556D01*
X65351724Y11616556D02*
X65732676Y11616556D01*
X64208867Y11140365D02*
X64780295Y11140365D01*
X64494581Y11140365D02*
X64494581Y12140365D01*
X64494581Y12140365D02*
X64589819Y11997508D01*
X64589819Y11997508D02*
X64685057Y11902270D01*
X64685057Y11902270D02*
X64780295Y11854651D01*
X63732676Y11140365D02*
X63542200Y11140365D01*
X63542200Y11140365D02*
X63446962Y11187984D01*
X63446962Y11187984D02*
X63399343Y11235604D01*
X63399343Y11235604D02*
X63304105Y11378461D01*
X63304105Y11378461D02*
X63256486Y11568937D01*
X63256486Y11568937D02*
X63256486Y11949889D01*
X63256486Y11949889D02*
X63304105Y12045127D01*
X63304105Y12045127D02*
X63351724Y12092746D01*
X63351724Y12092746D02*
X63446962Y12140365D01*
X63446962Y12140365D02*
X63637438Y12140365D01*
X63637438Y12140365D02*
X63732676Y12092746D01*
X63732676Y12092746D02*
X63780295Y12045127D01*
X63780295Y12045127D02*
X63827914Y11949889D01*
X63827914Y11949889D02*
X63827914Y11711794D01*
X63827914Y11711794D02*
X63780295Y11616556D01*
X63780295Y11616556D02*
X63732676Y11568937D01*
X63732676Y11568937D02*
X63637438Y11521318D01*
X63637438Y11521318D02*
X63446962Y11521318D01*
X63446962Y11521318D02*
X63351724Y11568937D01*
X63351724Y11568937D02*
X63304105Y11616556D01*
X63304105Y11616556D02*
X63256486Y11711794D01*
X62637438Y12140365D02*
X62542200Y12140365D01*
X62542200Y12140365D02*
X62446962Y12092746D01*
X62446962Y12092746D02*
X62399343Y12045127D01*
X62399343Y12045127D02*
X62351724Y11949889D01*
X62351724Y11949889D02*
X62304105Y11759413D01*
X62304105Y11759413D02*
X62304105Y11521318D01*
X62304105Y11521318D02*
X62351724Y11330842D01*
X62351724Y11330842D02*
X62399343Y11235604D01*
X62399343Y11235604D02*
X62446962Y11187984D01*
X62446962Y11187984D02*
X62542200Y11140365D01*
X62542200Y11140365D02*
X62637438Y11140365D01*
X62637438Y11140365D02*
X62732676Y11187984D01*
X62732676Y11187984D02*
X62780295Y11235604D01*
X62780295Y11235604D02*
X62827914Y11330842D01*
X62827914Y11330842D02*
X62875533Y11521318D01*
X62875533Y11521318D02*
X62875533Y11759413D01*
X62875533Y11759413D02*
X62827914Y11949889D01*
X62827914Y11949889D02*
X62780295Y12045127D01*
X62780295Y12045127D02*
X62732676Y12092746D01*
X62732676Y12092746D02*
X62637438Y12140365D01*
X61446962Y12140365D02*
X61637438Y12140365D01*
X61637438Y12140365D02*
X61732676Y12092746D01*
X61732676Y12092746D02*
X61780295Y12045127D01*
X61780295Y12045127D02*
X61875533Y11902270D01*
X61875533Y11902270D02*
X61923152Y11711794D01*
X61923152Y11711794D02*
X61923152Y11330842D01*
X61923152Y11330842D02*
X61875533Y11235604D01*
X61875533Y11235604D02*
X61827914Y11187984D01*
X61827914Y11187984D02*
X61732676Y11140365D01*
X61732676Y11140365D02*
X61542200Y11140365D01*
X61542200Y11140365D02*
X61446962Y11187984D01*
X61446962Y11187984D02*
X61399343Y11235604D01*
X61399343Y11235604D02*
X61351724Y11330842D01*
X61351724Y11330842D02*
X61351724Y11568937D01*
X61351724Y11568937D02*
X61399343Y11664175D01*
X61399343Y11664175D02*
X61446962Y11711794D01*
X61446962Y11711794D02*
X61542200Y11759413D01*
X61542200Y11759413D02*
X61732676Y11759413D01*
X61732676Y11759413D02*
X61827914Y11711794D01*
X61827914Y11711794D02*
X61875533Y11664175D01*
X61875533Y11664175D02*
X61923152Y11568937D01*
X60399343Y11140365D02*
X60970771Y11140365D01*
X60685057Y11140365D02*
X60685057Y12140365D01*
X60685057Y12140365D02*
X60780295Y11997508D01*
X60780295Y11997508D02*
X60875533Y11902270D01*
X60875533Y11902270D02*
X60970771Y11854651D01*
X59970771Y11521318D02*
X59208867Y11521318D01*
X58732676Y11664175D02*
X58399343Y11664175D01*
X58256486Y11140365D02*
X58732676Y11140365D01*
X58732676Y11140365D02*
X58732676Y12140365D01*
X58732676Y12140365D02*
X58256486Y12140365D01*
X58066010Y11045127D02*
X57304105Y11045127D01*
X56494581Y11140365D02*
X56827914Y11616556D01*
X57066009Y11140365D02*
X57066009Y12140365D01*
X57066009Y12140365D02*
X56685057Y12140365D01*
X56685057Y12140365D02*
X56589819Y12092746D01*
X56589819Y12092746D02*
X56542200Y12045127D01*
X56542200Y12045127D02*
X56494581Y11949889D01*
X56494581Y11949889D02*
X56494581Y11807032D01*
X56494581Y11807032D02*
X56542200Y11711794D01*
X56542200Y11711794D02*
X56589819Y11664175D01*
X56589819Y11664175D02*
X56685057Y11616556D01*
X56685057Y11616556D02*
X57066009Y11616556D01*
X56208866Y12140365D02*
X55637438Y12140365D01*
X55923152Y11140365D02*
X55923152Y12140365D01*
X54970771Y11664175D02*
X54827914Y11616556D01*
X54827914Y11616556D02*
X54780295Y11568937D01*
X54780295Y11568937D02*
X54732676Y11473699D01*
X54732676Y11473699D02*
X54732676Y11330842D01*
X54732676Y11330842D02*
X54780295Y11235604D01*
X54780295Y11235604D02*
X54827914Y11187984D01*
X54827914Y11187984D02*
X54923152Y11140365D01*
X54923152Y11140365D02*
X55304104Y11140365D01*
X55304104Y11140365D02*
X55304104Y12140365D01*
X55304104Y12140365D02*
X54970771Y12140365D01*
X54970771Y12140365D02*
X54875533Y12092746D01*
X54875533Y12092746D02*
X54827914Y12045127D01*
X54827914Y12045127D02*
X54780295Y11949889D01*
X54780295Y11949889D02*
X54780295Y11854651D01*
X54780295Y11854651D02*
X54827914Y11759413D01*
X54827914Y11759413D02*
X54875533Y11711794D01*
X54875533Y11711794D02*
X54970771Y11664175D01*
X54970771Y11664175D02*
X55304104Y11664175D01*
X53542199Y11140365D02*
X53542199Y12140365D01*
X53113628Y12045127D02*
X53066009Y12092746D01*
X53066009Y12092746D02*
X52970771Y12140365D01*
X52970771Y12140365D02*
X52732676Y12140365D01*
X52732676Y12140365D02*
X52637438Y12092746D01*
X52637438Y12092746D02*
X52589819Y12045127D01*
X52589819Y12045127D02*
X52542200Y11949889D01*
X52542200Y11949889D02*
X52542200Y11854651D01*
X52542200Y11854651D02*
X52589819Y11711794D01*
X52589819Y11711794D02*
X53161247Y11140365D01*
X53161247Y11140365D02*
X52542200Y11140365D01*
X51542200Y11235604D02*
X51589819Y11187984D01*
X51589819Y11187984D02*
X51732676Y11140365D01*
X51732676Y11140365D02*
X51827914Y11140365D01*
X51827914Y11140365D02*
X51970771Y11187984D01*
X51970771Y11187984D02*
X52066009Y11283223D01*
X52066009Y11283223D02*
X52113628Y11378461D01*
X52113628Y11378461D02*
X52161247Y11568937D01*
X52161247Y11568937D02*
X52161247Y11711794D01*
X52161247Y11711794D02*
X52113628Y11902270D01*
X52113628Y11902270D02*
X52066009Y11997508D01*
X52066009Y11997508D02*
X51970771Y12092746D01*
X51970771Y12092746D02*
X51827914Y12140365D01*
X51827914Y12140365D02*
X51732676Y12140365D01*
X51732676Y12140365D02*
X51589819Y12092746D01*
X51589819Y12092746D02*
X51542200Y12045127D01*
X51113628Y11235604D02*
X51066009Y11187984D01*
X51066009Y11187984D02*
X51113628Y11140365D01*
X51113628Y11140365D02*
X51161247Y11187984D01*
X51161247Y11187984D02*
X51113628Y11235604D01*
X51113628Y11235604D02*
X51113628Y11140365D01*
X51113628Y11759413D02*
X51066009Y11711794D01*
X51066009Y11711794D02*
X51113628Y11664175D01*
X51113628Y11664175D02*
X51161247Y11711794D01*
X51161247Y11711794D02*
X51113628Y11759413D01*
X51113628Y11759413D02*
X51113628Y11664175D01*
X49685057Y12140365D02*
X49589819Y12140365D01*
X49589819Y12140365D02*
X49494581Y12092746D01*
X49494581Y12092746D02*
X49446962Y12045127D01*
X49446962Y12045127D02*
X49399343Y11949889D01*
X49399343Y11949889D02*
X49351724Y11759413D01*
X49351724Y11759413D02*
X49351724Y11521318D01*
X49351724Y11521318D02*
X49399343Y11330842D01*
X49399343Y11330842D02*
X49446962Y11235604D01*
X49446962Y11235604D02*
X49494581Y11187984D01*
X49494581Y11187984D02*
X49589819Y11140365D01*
X49589819Y11140365D02*
X49685057Y11140365D01*
X49685057Y11140365D02*
X49780295Y11187984D01*
X49780295Y11187984D02*
X49827914Y11235604D01*
X49827914Y11235604D02*
X49875533Y11330842D01*
X49875533Y11330842D02*
X49923152Y11521318D01*
X49923152Y11521318D02*
X49923152Y11759413D01*
X49923152Y11759413D02*
X49875533Y11949889D01*
X49875533Y11949889D02*
X49827914Y12045127D01*
X49827914Y12045127D02*
X49780295Y12092746D01*
X49780295Y12092746D02*
X49685057Y12140365D01*
X49018390Y11140365D02*
X48494581Y11807032D01*
X49018390Y11807032D02*
X48494581Y11140365D01*
X47637438Y12140365D02*
X48113628Y12140365D01*
X48113628Y12140365D02*
X48161247Y11664175D01*
X48161247Y11664175D02*
X48113628Y11711794D01*
X48113628Y11711794D02*
X48018390Y11759413D01*
X48018390Y11759413D02*
X47780295Y11759413D01*
X47780295Y11759413D02*
X47685057Y11711794D01*
X47685057Y11711794D02*
X47637438Y11664175D01*
X47637438Y11664175D02*
X47589819Y11568937D01*
X47589819Y11568937D02*
X47589819Y11330842D01*
X47589819Y11330842D02*
X47637438Y11235604D01*
X47637438Y11235604D02*
X47685057Y11187984D01*
X47685057Y11187984D02*
X47780295Y11140365D01*
X47780295Y11140365D02*
X48018390Y11140365D01*
X48018390Y11140365D02*
X48113628Y11187984D01*
X48113628Y11187984D02*
X48161247Y11235604D01*
X47256485Y12140365D02*
X46637438Y12140365D01*
X46637438Y12140365D02*
X46970771Y11759413D01*
X46970771Y11759413D02*
X46827914Y11759413D01*
X46827914Y11759413D02*
X46732676Y11711794D01*
X46732676Y11711794D02*
X46685057Y11664175D01*
X46685057Y11664175D02*
X46637438Y11568937D01*
X46637438Y11568937D02*
X46637438Y11330842D01*
X46637438Y11330842D02*
X46685057Y11235604D01*
X46685057Y11235604D02*
X46732676Y11187984D01*
X46732676Y11187984D02*
X46827914Y11140365D01*
X46827914Y11140365D02*
X47113628Y11140365D01*
X47113628Y11140365D02*
X47208866Y11187984D01*
X47208866Y11187984D02*
X47256485Y11235604D01*
X45161247Y10759413D02*
X45208866Y10807032D01*
X45208866Y10807032D02*
X45304104Y10949889D01*
X45304104Y10949889D02*
X45351723Y11045127D01*
X45351723Y11045127D02*
X45399342Y11187984D01*
X45399342Y11187984D02*
X45446961Y11426080D01*
X45446961Y11426080D02*
X45446961Y11616556D01*
X45446961Y11616556D02*
X45399342Y11854651D01*
X45399342Y11854651D02*
X45351723Y11997508D01*
X45351723Y11997508D02*
X45304104Y12092746D01*
X45304104Y12092746D02*
X45208866Y12235604D01*
X45208866Y12235604D02*
X45161247Y12283223D01*
X44256485Y11140365D02*
X44827913Y11140365D01*
X44542199Y11140365D02*
X44542199Y12140365D01*
X44542199Y12140365D02*
X44637437Y11997508D01*
X44637437Y11997508D02*
X44732675Y11902270D01*
X44732675Y11902270D02*
X44827913Y11854651D01*
X43637437Y12140365D02*
X43542199Y12140365D01*
X43542199Y12140365D02*
X43446961Y12092746D01*
X43446961Y12092746D02*
X43399342Y12045127D01*
X43399342Y12045127D02*
X43351723Y11949889D01*
X43351723Y11949889D02*
X43304104Y11759413D01*
X43304104Y11759413D02*
X43304104Y11521318D01*
X43304104Y11521318D02*
X43351723Y11330842D01*
X43351723Y11330842D02*
X43399342Y11235604D01*
X43399342Y11235604D02*
X43446961Y11187984D01*
X43446961Y11187984D02*
X43542199Y11140365D01*
X43542199Y11140365D02*
X43637437Y11140365D01*
X43637437Y11140365D02*
X43732675Y11187984D01*
X43732675Y11187984D02*
X43780294Y11235604D01*
X43780294Y11235604D02*
X43827913Y11330842D01*
X43827913Y11330842D02*
X43875532Y11521318D01*
X43875532Y11521318D02*
X43875532Y11759413D01*
X43875532Y11759413D02*
X43827913Y11949889D01*
X43827913Y11949889D02*
X43780294Y12045127D01*
X43780294Y12045127D02*
X43732675Y12092746D01*
X43732675Y12092746D02*
X43637437Y12140365D01*
X42875532Y11140365D02*
X42875532Y12140365D01*
X42780294Y11521318D02*
X42494580Y11140365D01*
X42494580Y11807032D02*
X42875532Y11426080D01*
X41161246Y11140365D02*
X41256484Y11187984D01*
X41256484Y11187984D02*
X41304103Y11235604D01*
X41304103Y11235604D02*
X41351722Y11330842D01*
X41351722Y11330842D02*
X41351722Y11616556D01*
X41351722Y11616556D02*
X41304103Y11711794D01*
X41304103Y11711794D02*
X41256484Y11759413D01*
X41256484Y11759413D02*
X41161246Y11807032D01*
X41161246Y11807032D02*
X41018389Y11807032D01*
X41018389Y11807032D02*
X40923151Y11759413D01*
X40923151Y11759413D02*
X40875532Y11711794D01*
X40875532Y11711794D02*
X40827913Y11616556D01*
X40827913Y11616556D02*
X40827913Y11330842D01*
X40827913Y11330842D02*
X40875532Y11235604D01*
X40875532Y11235604D02*
X40923151Y11187984D01*
X40923151Y11187984D02*
X41018389Y11140365D01*
X41018389Y11140365D02*
X41161246Y11140365D01*
X40399341Y11807032D02*
X40399341Y11140365D01*
X40399341Y11711794D02*
X40351722Y11759413D01*
X40351722Y11759413D02*
X40256484Y11807032D01*
X40256484Y11807032D02*
X40113627Y11807032D01*
X40113627Y11807032D02*
X40018389Y11759413D01*
X40018389Y11759413D02*
X39970770Y11664175D01*
X39970770Y11664175D02*
X39970770Y11140365D01*
X38780293Y11426080D02*
X38304103Y11426080D01*
X38875531Y11140365D02*
X38542198Y12140365D01*
X38542198Y12140365D02*
X38208865Y11140365D01*
X37875531Y11140365D02*
X37875531Y12140365D01*
X37875531Y12140365D02*
X37637436Y12140365D01*
X37637436Y12140365D02*
X37494579Y12092746D01*
X37494579Y12092746D02*
X37399341Y11997508D01*
X37399341Y11997508D02*
X37351722Y11902270D01*
X37351722Y11902270D02*
X37304103Y11711794D01*
X37304103Y11711794D02*
X37304103Y11568937D01*
X37304103Y11568937D02*
X37351722Y11378461D01*
X37351722Y11378461D02*
X37399341Y11283223D01*
X37399341Y11283223D02*
X37494579Y11187984D01*
X37494579Y11187984D02*
X37637436Y11140365D01*
X37637436Y11140365D02*
X37875531Y11140365D01*
X36304103Y11140365D02*
X36637436Y11616556D01*
X36875531Y11140365D02*
X36875531Y12140365D01*
X36875531Y12140365D02*
X36494579Y12140365D01*
X36494579Y12140365D02*
X36399341Y12092746D01*
X36399341Y12092746D02*
X36351722Y12045127D01*
X36351722Y12045127D02*
X36304103Y11949889D01*
X36304103Y11949889D02*
X36304103Y11807032D01*
X36304103Y11807032D02*
X36351722Y11711794D01*
X36351722Y11711794D02*
X36399341Y11664175D01*
X36399341Y11664175D02*
X36494579Y11616556D01*
X36494579Y11616556D02*
X36875531Y11616556D01*
X35685055Y12140365D02*
X35589817Y12140365D01*
X35589817Y12140365D02*
X35494579Y12092746D01*
X35494579Y12092746D02*
X35446960Y12045127D01*
X35446960Y12045127D02*
X35399341Y11949889D01*
X35399341Y11949889D02*
X35351722Y11759413D01*
X35351722Y11759413D02*
X35351722Y11521318D01*
X35351722Y11521318D02*
X35399341Y11330842D01*
X35399341Y11330842D02*
X35446960Y11235604D01*
X35446960Y11235604D02*
X35494579Y11187984D01*
X35494579Y11187984D02*
X35589817Y11140365D01*
X35589817Y11140365D02*
X35685055Y11140365D01*
X35685055Y11140365D02*
X35780293Y11187984D01*
X35780293Y11187984D02*
X35827912Y11235604D01*
X35827912Y11235604D02*
X35875531Y11330842D01*
X35875531Y11330842D02*
X35923150Y11521318D01*
X35923150Y11521318D02*
X35923150Y11759413D01*
X35923150Y11759413D02*
X35875531Y11949889D01*
X35875531Y11949889D02*
X35827912Y12045127D01*
X35827912Y12045127D02*
X35780293Y12092746D01*
X35780293Y12092746D02*
X35685055Y12140365D01*
X35018388Y10759413D02*
X34970769Y10807032D01*
X34970769Y10807032D02*
X34875531Y10949889D01*
X34875531Y10949889D02*
X34827912Y11045127D01*
X34827912Y11045127D02*
X34780293Y11187984D01*
X34780293Y11187984D02*
X34732674Y11426080D01*
X34732674Y11426080D02*
X34732674Y11616556D01*
X34732674Y11616556D02*
X34780293Y11854651D01*
X34780293Y11854651D02*
X34827912Y11997508D01*
X34827912Y11997508D02*
X34875531Y12092746D01*
X34875531Y12092746D02*
X34970769Y12235604D01*
X34970769Y12235604D02*
X35018388Y12283223D01*
X73161247Y10530421D02*
X73161247Y9720898D01*
X73161247Y9720898D02*
X73113628Y9625660D01*
X73113628Y9625660D02*
X73066009Y9578040D01*
X73066009Y9578040D02*
X72970771Y9530421D01*
X72970771Y9530421D02*
X72780295Y9530421D01*
X72780295Y9530421D02*
X72685057Y9578040D01*
X72685057Y9578040D02*
X72637438Y9625660D01*
X72637438Y9625660D02*
X72589819Y9720898D01*
X72589819Y9720898D02*
X72589819Y10530421D01*
X72161247Y9578040D02*
X72018390Y9530421D01*
X72018390Y9530421D02*
X71780295Y9530421D01*
X71780295Y9530421D02*
X71685057Y9578040D01*
X71685057Y9578040D02*
X71637438Y9625660D01*
X71637438Y9625660D02*
X71589819Y9720898D01*
X71589819Y9720898D02*
X71589819Y9816136D01*
X71589819Y9816136D02*
X71637438Y9911374D01*
X71637438Y9911374D02*
X71685057Y9958993D01*
X71685057Y9958993D02*
X71780295Y10006612D01*
X71780295Y10006612D02*
X71970771Y10054231D01*
X71970771Y10054231D02*
X72066009Y10101850D01*
X72066009Y10101850D02*
X72113628Y10149469D01*
X72113628Y10149469D02*
X72161247Y10244707D01*
X72161247Y10244707D02*
X72161247Y10339945D01*
X72161247Y10339945D02*
X72113628Y10435183D01*
X72113628Y10435183D02*
X72066009Y10482802D01*
X72066009Y10482802D02*
X71970771Y10530421D01*
X71970771Y10530421D02*
X71732676Y10530421D01*
X71732676Y10530421D02*
X71589819Y10482802D01*
X70827914Y10054231D02*
X70685057Y10006612D01*
X70685057Y10006612D02*
X70637438Y9958993D01*
X70637438Y9958993D02*
X70589819Y9863755D01*
X70589819Y9863755D02*
X70589819Y9720898D01*
X70589819Y9720898D02*
X70637438Y9625660D01*
X70637438Y9625660D02*
X70685057Y9578040D01*
X70685057Y9578040D02*
X70780295Y9530421D01*
X70780295Y9530421D02*
X71161247Y9530421D01*
X71161247Y9530421D02*
X71161247Y10530421D01*
X71161247Y10530421D02*
X70827914Y10530421D01*
X70827914Y10530421D02*
X70732676Y10482802D01*
X70732676Y10482802D02*
X70685057Y10435183D01*
X70685057Y10435183D02*
X70637438Y10339945D01*
X70637438Y10339945D02*
X70637438Y10244707D01*
X70637438Y10244707D02*
X70685057Y10149469D01*
X70685057Y10149469D02*
X70732676Y10101850D01*
X70732676Y10101850D02*
X70827914Y10054231D01*
X70827914Y10054231D02*
X71161247Y10054231D01*
X69542199Y10530421D02*
X68970771Y10530421D01*
X69256485Y9530421D02*
X69256485Y10530421D01*
X68446961Y10530421D02*
X68256485Y10530421D01*
X68256485Y10530421D02*
X68161247Y10482802D01*
X68161247Y10482802D02*
X68066009Y10387564D01*
X68066009Y10387564D02*
X68018390Y10197088D01*
X68018390Y10197088D02*
X68018390Y9863755D01*
X68018390Y9863755D02*
X68066009Y9673279D01*
X68066009Y9673279D02*
X68161247Y9578040D01*
X68161247Y9578040D02*
X68256485Y9530421D01*
X68256485Y9530421D02*
X68446961Y9530421D01*
X68446961Y9530421D02*
X68542199Y9578040D01*
X68542199Y9578040D02*
X68637437Y9673279D01*
X68637437Y9673279D02*
X68685056Y9863755D01*
X68685056Y9863755D02*
X68685056Y10197088D01*
X68685056Y10197088D02*
X68637437Y10387564D01*
X68637437Y10387564D02*
X68542199Y10482802D01*
X68542199Y10482802D02*
X68446961Y10530421D01*
X66827913Y9530421D02*
X66827913Y10530421D01*
X66399342Y10435183D02*
X66351723Y10482802D01*
X66351723Y10482802D02*
X66256485Y10530421D01*
X66256485Y10530421D02*
X66018390Y10530421D01*
X66018390Y10530421D02*
X65923152Y10482802D01*
X65923152Y10482802D02*
X65875533Y10435183D01*
X65875533Y10435183D02*
X65827914Y10339945D01*
X65827914Y10339945D02*
X65827914Y10244707D01*
X65827914Y10244707D02*
X65875533Y10101850D01*
X65875533Y10101850D02*
X66446961Y9530421D01*
X66446961Y9530421D02*
X65827914Y9530421D01*
X64827914Y9625660D02*
X64875533Y9578040D01*
X64875533Y9578040D02*
X65018390Y9530421D01*
X65018390Y9530421D02*
X65113628Y9530421D01*
X65113628Y9530421D02*
X65256485Y9578040D01*
X65256485Y9578040D02*
X65351723Y9673279D01*
X65351723Y9673279D02*
X65399342Y9768517D01*
X65399342Y9768517D02*
X65446961Y9958993D01*
X65446961Y9958993D02*
X65446961Y10101850D01*
X65446961Y10101850D02*
X65399342Y10292326D01*
X65399342Y10292326D02*
X65351723Y10387564D01*
X65351723Y10387564D02*
X65256485Y10482802D01*
X65256485Y10482802D02*
X65113628Y10530421D01*
X65113628Y10530421D02*
X65018390Y10530421D01*
X65018390Y10530421D02*
X64875533Y10482802D01*
X64875533Y10482802D02*
X64827914Y10435183D01*
X64399342Y9625660D02*
X64351723Y9578040D01*
X64351723Y9578040D02*
X64399342Y9530421D01*
X64399342Y9530421D02*
X64446961Y9578040D01*
X64446961Y9578040D02*
X64399342Y9625660D01*
X64399342Y9625660D02*
X64399342Y9530421D01*
X64399342Y10149469D02*
X64351723Y10101850D01*
X64351723Y10101850D02*
X64399342Y10054231D01*
X64399342Y10054231D02*
X64446961Y10101850D01*
X64446961Y10101850D02*
X64399342Y10149469D01*
X64399342Y10149469D02*
X64399342Y10054231D01*
X63161247Y9530421D02*
X63161247Y10530421D01*
X63161247Y10530421D02*
X62827914Y9816136D01*
X62827914Y9816136D02*
X62494581Y10530421D01*
X62494581Y10530421D02*
X62494581Y9530421D01*
X61446962Y9625660D02*
X61494581Y9578040D01*
X61494581Y9578040D02*
X61637438Y9530421D01*
X61637438Y9530421D02*
X61732676Y9530421D01*
X61732676Y9530421D02*
X61875533Y9578040D01*
X61875533Y9578040D02*
X61970771Y9673279D01*
X61970771Y9673279D02*
X62018390Y9768517D01*
X62018390Y9768517D02*
X62066009Y9958993D01*
X62066009Y9958993D02*
X62066009Y10101850D01*
X62066009Y10101850D02*
X62018390Y10292326D01*
X62018390Y10292326D02*
X61970771Y10387564D01*
X61970771Y10387564D02*
X61875533Y10482802D01*
X61875533Y10482802D02*
X61732676Y10530421D01*
X61732676Y10530421D02*
X61637438Y10530421D01*
X61637438Y10530421D02*
X61494581Y10482802D01*
X61494581Y10482802D02*
X61446962Y10435183D01*
X61018390Y9530421D02*
X61018390Y10530421D01*
X61018390Y10530421D02*
X60637438Y10530421D01*
X60637438Y10530421D02*
X60542200Y10482802D01*
X60542200Y10482802D02*
X60494581Y10435183D01*
X60494581Y10435183D02*
X60446962Y10339945D01*
X60446962Y10339945D02*
X60446962Y10197088D01*
X60446962Y10197088D02*
X60494581Y10101850D01*
X60494581Y10101850D02*
X60542200Y10054231D01*
X60542200Y10054231D02*
X60637438Y10006612D01*
X60637438Y10006612D02*
X61018390Y10006612D01*
X60066009Y10435183D02*
X60018390Y10482802D01*
X60018390Y10482802D02*
X59923152Y10530421D01*
X59923152Y10530421D02*
X59685057Y10530421D01*
X59685057Y10530421D02*
X59589819Y10482802D01*
X59589819Y10482802D02*
X59542200Y10435183D01*
X59542200Y10435183D02*
X59494581Y10339945D01*
X59494581Y10339945D02*
X59494581Y10244707D01*
X59494581Y10244707D02*
X59542200Y10101850D01*
X59542200Y10101850D02*
X60113628Y9530421D01*
X60113628Y9530421D02*
X59494581Y9530421D01*
X59113628Y10435183D02*
X59066009Y10482802D01*
X59066009Y10482802D02*
X58970771Y10530421D01*
X58970771Y10530421D02*
X58732676Y10530421D01*
X58732676Y10530421D02*
X58637438Y10482802D01*
X58637438Y10482802D02*
X58589819Y10435183D01*
X58589819Y10435183D02*
X58542200Y10339945D01*
X58542200Y10339945D02*
X58542200Y10244707D01*
X58542200Y10244707D02*
X58589819Y10101850D01*
X58589819Y10101850D02*
X59161247Y9530421D01*
X59161247Y9530421D02*
X58542200Y9530421D01*
X58161247Y10435183D02*
X58113628Y10482802D01*
X58113628Y10482802D02*
X58018390Y10530421D01*
X58018390Y10530421D02*
X57780295Y10530421D01*
X57780295Y10530421D02*
X57685057Y10482802D01*
X57685057Y10482802D02*
X57637438Y10435183D01*
X57637438Y10435183D02*
X57589819Y10339945D01*
X57589819Y10339945D02*
X57589819Y10244707D01*
X57589819Y10244707D02*
X57637438Y10101850D01*
X57637438Y10101850D02*
X58208866Y9530421D01*
X58208866Y9530421D02*
X57589819Y9530421D01*
X56637438Y9530421D02*
X57208866Y9530421D01*
X56923152Y9530421D02*
X56923152Y10530421D01*
X56923152Y10530421D02*
X57018390Y10387564D01*
X57018390Y10387564D02*
X57113628Y10292326D01*
X57113628Y10292326D02*
X57208866Y10244707D01*
X56256485Y9816136D02*
X55780295Y9816136D01*
X56351723Y9530421D02*
X56018390Y10530421D01*
X56018390Y10530421D02*
X55685057Y9530421D01*
X73304104Y8920477D02*
X72970771Y7920477D01*
X72970771Y7920477D02*
X72637438Y8920477D01*
X72304104Y7920477D02*
X72304104Y8920477D01*
X71827914Y7920477D02*
X71827914Y8920477D01*
X71827914Y8920477D02*
X71256486Y7920477D01*
X71256486Y7920477D02*
X71256486Y8920477D01*
X70780295Y8015716D02*
X70732676Y7968096D01*
X70732676Y7968096D02*
X70780295Y7920477D01*
X70780295Y7920477D02*
X70827914Y7968096D01*
X70827914Y7968096D02*
X70780295Y8015716D01*
X70780295Y8015716D02*
X70780295Y7920477D01*
X70780295Y8539525D02*
X70732676Y8491906D01*
X70732676Y8491906D02*
X70780295Y8444287D01*
X70780295Y8444287D02*
X70827914Y8491906D01*
X70827914Y8491906D02*
X70780295Y8539525D01*
X70780295Y8539525D02*
X70780295Y8444287D01*
X69637438Y8920477D02*
X69018391Y8920477D01*
X69018391Y8920477D02*
X69351724Y8539525D01*
X69351724Y8539525D02*
X69208867Y8539525D01*
X69208867Y8539525D02*
X69113629Y8491906D01*
X69113629Y8491906D02*
X69066010Y8444287D01*
X69066010Y8444287D02*
X69018391Y8349049D01*
X69018391Y8349049D02*
X69018391Y8110954D01*
X69018391Y8110954D02*
X69066010Y8015716D01*
X69066010Y8015716D02*
X69113629Y7968096D01*
X69113629Y7968096D02*
X69208867Y7920477D01*
X69208867Y7920477D02*
X69494581Y7920477D01*
X69494581Y7920477D02*
X69589819Y7968096D01*
X69589819Y7968096D02*
X69637438Y8015716D01*
X68113629Y8920477D02*
X68589819Y8920477D01*
X68589819Y8920477D02*
X68637438Y8444287D01*
X68637438Y8444287D02*
X68589819Y8491906D01*
X68589819Y8491906D02*
X68494581Y8539525D01*
X68494581Y8539525D02*
X68256486Y8539525D01*
X68256486Y8539525D02*
X68161248Y8491906D01*
X68161248Y8491906D02*
X68113629Y8444287D01*
X68113629Y8444287D02*
X68066010Y8349049D01*
X68066010Y8349049D02*
X68066010Y8110954D01*
X68066010Y8110954D02*
X68113629Y8015716D01*
X68113629Y8015716D02*
X68161248Y7968096D01*
X68161248Y7968096D02*
X68256486Y7920477D01*
X68256486Y7920477D02*
X68494581Y7920477D01*
X68494581Y7920477D02*
X68589819Y7968096D01*
X68589819Y7968096D02*
X68637438Y8015716D01*
X67780295Y8920477D02*
X67446962Y7920477D01*
X67446962Y7920477D02*
X67113629Y8920477D01*
X65732676Y7539525D02*
X65780295Y7587144D01*
X65780295Y7587144D02*
X65875533Y7730001D01*
X65875533Y7730001D02*
X65923152Y7825239D01*
X65923152Y7825239D02*
X65970771Y7968096D01*
X65970771Y7968096D02*
X66018390Y8206192D01*
X66018390Y8206192D02*
X66018390Y8396668D01*
X66018390Y8396668D02*
X65970771Y8634763D01*
X65970771Y8634763D02*
X65923152Y8777620D01*
X65923152Y8777620D02*
X65875533Y8872858D01*
X65875533Y8872858D02*
X65780295Y9015716D01*
X65780295Y9015716D02*
X65732676Y9063335D01*
X65351723Y7920477D02*
X65351723Y8920477D01*
X65351723Y8920477D02*
X65018390Y8206192D01*
X65018390Y8206192D02*
X64685057Y8920477D01*
X64685057Y8920477D02*
X64685057Y7920477D01*
X64256485Y8206192D02*
X63780295Y8206192D01*
X64351723Y7920477D02*
X64018390Y8920477D01*
X64018390Y8920477D02*
X63685057Y7920477D01*
X63446961Y8920477D02*
X62780295Y7920477D01*
X62780295Y8920477D02*
X63446961Y7920477D01*
X62494580Y7539525D02*
X62446961Y7587144D01*
X62446961Y7587144D02*
X62351723Y7730001D01*
X62351723Y7730001D02*
X62304104Y7825239D01*
X62304104Y7825239D02*
X62256485Y7968096D01*
X62256485Y7968096D02*
X62208866Y8206192D01*
X62208866Y8206192D02*
X62208866Y8396668D01*
X62208866Y8396668D02*
X62256485Y8634763D01*
X62256485Y8634763D02*
X62304104Y8777620D01*
X62304104Y8777620D02*
X62351723Y8872858D01*
X62351723Y8872858D02*
X62446961Y9015716D01*
X62446961Y9015716D02*
X62494580Y9063335D01*
X27254663Y8838095D02*
X27254663Y8219048D01*
X27254663Y8219048D02*
X27635615Y8552381D01*
X27635615Y8552381D02*
X27635615Y8409524D01*
X27635615Y8409524D02*
X27683234Y8314286D01*
X27683234Y8314286D02*
X27730853Y8266667D01*
X27730853Y8266667D02*
X27826091Y8219048D01*
X27826091Y8219048D02*
X28064186Y8219048D01*
X28064186Y8219048D02*
X28159424Y8266667D01*
X28159424Y8266667D02*
X28207044Y8314286D01*
X28207044Y8314286D02*
X28254663Y8409524D01*
X28254663Y8409524D02*
X28254663Y8695238D01*
X28254663Y8695238D02*
X28207044Y8790476D01*
X28207044Y8790476D02*
X28159424Y8838095D01*
X27254663Y7933333D02*
X28254663Y7600000D01*
X28254663Y7600000D02*
X27254663Y7266667D01*
X27254663Y7028571D02*
X27254663Y6409524D01*
X27254663Y6409524D02*
X27635615Y6742857D01*
X27635615Y6742857D02*
X27635615Y6600000D01*
X27635615Y6600000D02*
X27683234Y6504762D01*
X27683234Y6504762D02*
X27730853Y6457143D01*
X27730853Y6457143D02*
X27826091Y6409524D01*
X27826091Y6409524D02*
X28064186Y6409524D01*
X28064186Y6409524D02*
X28159424Y6457143D01*
X28159424Y6457143D02*
X28207044Y6504762D01*
X28207044Y6504762D02*
X28254663Y6600000D01*
X28254663Y6600000D02*
X28254663Y6885714D01*
X28254663Y6885714D02*
X28207044Y6980952D01*
X28207044Y6980952D02*
X28159424Y7028571D01*
X14861904Y8097718D02*
X14957142Y8145337D01*
X14957142Y8145337D02*
X15099999Y8145337D01*
X15099999Y8145337D02*
X15242856Y8097718D01*
X15242856Y8097718D02*
X15338094Y8002480D01*
X15338094Y8002480D02*
X15385713Y7907242D01*
X15385713Y7907242D02*
X15433332Y7716766D01*
X15433332Y7716766D02*
X15433332Y7573909D01*
X15433332Y7573909D02*
X15385713Y7383433D01*
X15385713Y7383433D02*
X15338094Y7288195D01*
X15338094Y7288195D02*
X15242856Y7192956D01*
X15242856Y7192956D02*
X15099999Y7145337D01*
X15099999Y7145337D02*
X15004761Y7145337D01*
X15004761Y7145337D02*
X14861904Y7192956D01*
X14861904Y7192956D02*
X14814285Y7240576D01*
X14814285Y7240576D02*
X14814285Y7573909D01*
X14814285Y7573909D02*
X15004761Y7573909D01*
X14385713Y7145337D02*
X14385713Y8145337D01*
X14385713Y8145337D02*
X13814285Y7145337D01*
X13814285Y7145337D02*
X13814285Y8145337D01*
X13338094Y7145337D02*
X13338094Y8145337D01*
X13338094Y8145337D02*
X13099999Y8145337D01*
X13099999Y8145337D02*
X12957142Y8097718D01*
X12957142Y8097718D02*
X12861904Y8002480D01*
X12861904Y8002480D02*
X12814285Y7907242D01*
X12814285Y7907242D02*
X12766666Y7716766D01*
X12766666Y7716766D02*
X12766666Y7573909D01*
X12766666Y7573909D02*
X12814285Y7383433D01*
X12814285Y7383433D02*
X12861904Y7288195D01*
X12861904Y7288195D02*
X12957142Y7192956D01*
X12957142Y7192956D02*
X13099999Y7145337D01*
X13099999Y7145337D02*
X13338094Y7145337D01*
X82745336Y45552381D02*
X83221527Y45219048D01*
X82745336Y44980953D02*
X83745336Y44980953D01*
X83745336Y44980953D02*
X83745336Y45361905D01*
X83745336Y45361905D02*
X83697717Y45457143D01*
X83697717Y45457143D02*
X83650098Y45504762D01*
X83650098Y45504762D02*
X83554860Y45552381D01*
X83554860Y45552381D02*
X83412003Y45552381D01*
X83412003Y45552381D02*
X83316765Y45504762D01*
X83316765Y45504762D02*
X83269146Y45457143D01*
X83269146Y45457143D02*
X83221527Y45361905D01*
X83221527Y45361905D02*
X83221527Y44980953D01*
X82792956Y45933334D02*
X82745336Y46076191D01*
X82745336Y46076191D02*
X82745336Y46314286D01*
X82745336Y46314286D02*
X82792956Y46409524D01*
X82792956Y46409524D02*
X82840575Y46457143D01*
X82840575Y46457143D02*
X82935813Y46504762D01*
X82935813Y46504762D02*
X83031051Y46504762D01*
X83031051Y46504762D02*
X83126289Y46457143D01*
X83126289Y46457143D02*
X83173908Y46409524D01*
X83173908Y46409524D02*
X83221527Y46314286D01*
X83221527Y46314286D02*
X83269146Y46123810D01*
X83269146Y46123810D02*
X83316765Y46028572D01*
X83316765Y46028572D02*
X83364384Y45980953D01*
X83364384Y45980953D02*
X83459622Y45933334D01*
X83459622Y45933334D02*
X83554860Y45933334D01*
X83554860Y45933334D02*
X83650098Y45980953D01*
X83650098Y45980953D02*
X83697717Y46028572D01*
X83697717Y46028572D02*
X83745336Y46123810D01*
X83745336Y46123810D02*
X83745336Y46361905D01*
X83745336Y46361905D02*
X83697717Y46504762D01*
X83745336Y46790477D02*
X83745336Y47361905D01*
X82745336Y47076191D02*
X83745336Y47076191D01*
D11*
X24745180Y10447620D02*
X25745180Y10447620D01*
X25745180Y10447620D02*
X24745180Y11019048D01*
X24745180Y11019048D02*
X25745180Y11019048D01*
X25030895Y11447620D02*
X25030895Y11923810D01*
X24745180Y11352382D02*
X25745180Y11685715D01*
X25745180Y11685715D02*
X24745180Y12019048D01*
X24745180Y12828572D02*
X24745180Y12352382D01*
X24745180Y12352382D02*
X25745180Y12352382D01*
X25268990Y13161906D02*
X25268990Y13495239D01*
X24745180Y13638096D02*
X24745180Y13161906D01*
X24745180Y13161906D02*
X25745180Y13161906D01*
X25745180Y13161906D02*
X25745180Y13638096D01*
X24745180Y14638096D02*
X25221371Y14304763D01*
X24745180Y14066668D02*
X25745180Y14066668D01*
X25745180Y14066668D02*
X25745180Y14447620D01*
X25745180Y14447620D02*
X25697561Y14542858D01*
X25697561Y14542858D02*
X25649942Y14590477D01*
X25649942Y14590477D02*
X25554704Y14638096D01*
X25554704Y14638096D02*
X25411847Y14638096D01*
X25411847Y14638096D02*
X25316609Y14590477D01*
X25316609Y14590477D02*
X25268990Y14542858D01*
X25268990Y14542858D02*
X25221371Y14447620D01*
X25221371Y14447620D02*
X25221371Y14066668D01*
X25745180Y14923811D02*
X25745180Y15495239D01*
X24745180Y15209525D02*
X25745180Y15209525D01*
X20497561Y10785715D02*
X20545180Y10690477D01*
X20545180Y10690477D02*
X20545180Y10547620D01*
X20545180Y10547620D02*
X20497561Y10404763D01*
X20497561Y10404763D02*
X20402323Y10309525D01*
X20402323Y10309525D02*
X20307085Y10261906D01*
X20307085Y10261906D02*
X20116609Y10214287D01*
X20116609Y10214287D02*
X19973752Y10214287D01*
X19973752Y10214287D02*
X19783276Y10261906D01*
X19783276Y10261906D02*
X19688038Y10309525D01*
X19688038Y10309525D02*
X19592800Y10404763D01*
X19592800Y10404763D02*
X19545180Y10547620D01*
X19545180Y10547620D02*
X19545180Y10642858D01*
X19545180Y10642858D02*
X19592800Y10785715D01*
X19592800Y10785715D02*
X19640419Y10833334D01*
X19640419Y10833334D02*
X19973752Y10833334D01*
X19973752Y10833334D02*
X19973752Y10642858D01*
X19545180Y11261906D02*
X20545180Y11261906D01*
X20545180Y11261906D02*
X20545180Y11642858D01*
X20545180Y11642858D02*
X20497561Y11738096D01*
X20497561Y11738096D02*
X20449942Y11785715D01*
X20449942Y11785715D02*
X20354704Y11833334D01*
X20354704Y11833334D02*
X20211847Y11833334D01*
X20211847Y11833334D02*
X20116609Y11785715D01*
X20116609Y11785715D02*
X20068990Y11738096D01*
X20068990Y11738096D02*
X20021371Y11642858D01*
X20021371Y11642858D02*
X20021371Y11261906D01*
X20545180Y12452382D02*
X20545180Y12547620D01*
X20545180Y12547620D02*
X20497561Y12642858D01*
X20497561Y12642858D02*
X20449942Y12690477D01*
X20449942Y12690477D02*
X20354704Y12738096D01*
X20354704Y12738096D02*
X20164228Y12785715D01*
X20164228Y12785715D02*
X19926133Y12785715D01*
X19926133Y12785715D02*
X19735657Y12738096D01*
X19735657Y12738096D02*
X19640419Y12690477D01*
X19640419Y12690477D02*
X19592800Y12642858D01*
X19592800Y12642858D02*
X19545180Y12547620D01*
X19545180Y12547620D02*
X19545180Y12452382D01*
X19545180Y12452382D02*
X19592800Y12357144D01*
X19592800Y12357144D02*
X19640419Y12309525D01*
X19640419Y12309525D02*
X19735657Y12261906D01*
X19735657Y12261906D02*
X19926133Y12214287D01*
X19926133Y12214287D02*
X20164228Y12214287D01*
X20164228Y12214287D02*
X20354704Y12261906D01*
X20354704Y12261906D02*
X20449942Y12309525D01*
X20449942Y12309525D02*
X20497561Y12357144D01*
X20497561Y12357144D02*
X20545180Y12452382D01*
D12*
X71245336Y45652381D02*
X71721527Y45319048D01*
X71245336Y45080953D02*
X72245336Y45080953D01*
X72245336Y45080953D02*
X72245336Y45461905D01*
X72245336Y45461905D02*
X72197717Y45557143D01*
X72197717Y45557143D02*
X72150098Y45604762D01*
X72150098Y45604762D02*
X72054860Y45652381D01*
X72054860Y45652381D02*
X71912003Y45652381D01*
X71912003Y45652381D02*
X71816765Y45604762D01*
X71816765Y45604762D02*
X71769146Y45557143D01*
X71769146Y45557143D02*
X71721527Y45461905D01*
X71721527Y45461905D02*
X71721527Y45080953D01*
X71292956Y46033334D02*
X71245336Y46176191D01*
X71245336Y46176191D02*
X71245336Y46414286D01*
X71245336Y46414286D02*
X71292956Y46509524D01*
X71292956Y46509524D02*
X71340575Y46557143D01*
X71340575Y46557143D02*
X71435813Y46604762D01*
X71435813Y46604762D02*
X71531051Y46604762D01*
X71531051Y46604762D02*
X71626289Y46557143D01*
X71626289Y46557143D02*
X71673908Y46509524D01*
X71673908Y46509524D02*
X71721527Y46414286D01*
X71721527Y46414286D02*
X71769146Y46223810D01*
X71769146Y46223810D02*
X71816765Y46128572D01*
X71816765Y46128572D02*
X71864384Y46080953D01*
X71864384Y46080953D02*
X71959622Y46033334D01*
X71959622Y46033334D02*
X72054860Y46033334D01*
X72054860Y46033334D02*
X72150098Y46080953D01*
X72150098Y46080953D02*
X72197717Y46128572D01*
X72197717Y46128572D02*
X72245336Y46223810D01*
X72245336Y46223810D02*
X72245336Y46461905D01*
X72245336Y46461905D02*
X72197717Y46604762D01*
X72245336Y46890477D02*
X72245336Y47461905D01*
X71245336Y47176191D02*
X72245336Y47176191D01*
X66145336Y45138096D02*
X65145336Y45471429D01*
X65145336Y45471429D02*
X66145336Y45804762D01*
X66145336Y46328572D02*
X66145336Y46519048D01*
X66145336Y46519048D02*
X66097717Y46614286D01*
X66097717Y46614286D02*
X66002479Y46709524D01*
X66002479Y46709524D02*
X65812003Y46757143D01*
X65812003Y46757143D02*
X65478670Y46757143D01*
X65478670Y46757143D02*
X65288194Y46709524D01*
X65288194Y46709524D02*
X65192956Y46614286D01*
X65192956Y46614286D02*
X65145336Y46519048D01*
X65145336Y46519048D02*
X65145336Y46328572D01*
X65145336Y46328572D02*
X65192956Y46233334D01*
X65192956Y46233334D02*
X65288194Y46138096D01*
X65288194Y46138096D02*
X65478670Y46090477D01*
X65478670Y46090477D02*
X65812003Y46090477D01*
X65812003Y46090477D02*
X66002479Y46138096D01*
X66002479Y46138096D02*
X66097717Y46233334D01*
X66097717Y46233334D02*
X66145336Y46328572D01*
X66145336Y47185715D02*
X65335813Y47185715D01*
X65335813Y47185715D02*
X65240575Y47233334D01*
X65240575Y47233334D02*
X65192956Y47280953D01*
X65192956Y47280953D02*
X65145336Y47376191D01*
X65145336Y47376191D02*
X65145336Y47566667D01*
X65145336Y47566667D02*
X65192956Y47661905D01*
X65192956Y47661905D02*
X65240575Y47709524D01*
X65240575Y47709524D02*
X65335813Y47757143D01*
X65335813Y47757143D02*
X66145336Y47757143D01*
X66145336Y48090477D02*
X66145336Y48661905D01*
X65145336Y48376191D02*
X66145336Y48376191D01*
D11*
X22192800Y10361906D02*
X22145180Y10504763D01*
X22145180Y10504763D02*
X22145180Y10742858D01*
X22145180Y10742858D02*
X22192800Y10838096D01*
X22192800Y10838096D02*
X22240419Y10885715D01*
X22240419Y10885715D02*
X22335657Y10933334D01*
X22335657Y10933334D02*
X22430895Y10933334D01*
X22430895Y10933334D02*
X22526133Y10885715D01*
X22526133Y10885715D02*
X22573752Y10838096D01*
X22573752Y10838096D02*
X22621371Y10742858D01*
X22621371Y10742858D02*
X22668990Y10552382D01*
X22668990Y10552382D02*
X22716609Y10457144D01*
X22716609Y10457144D02*
X22764228Y10409525D01*
X22764228Y10409525D02*
X22859466Y10361906D01*
X22859466Y10361906D02*
X22954704Y10361906D01*
X22954704Y10361906D02*
X23049942Y10409525D01*
X23049942Y10409525D02*
X23097561Y10457144D01*
X23097561Y10457144D02*
X23145180Y10552382D01*
X23145180Y10552382D02*
X23145180Y10790477D01*
X23145180Y10790477D02*
X23097561Y10933334D01*
X22621371Y11552382D02*
X22145180Y11552382D01*
X23145180Y11219049D02*
X22621371Y11552382D01*
X22621371Y11552382D02*
X23145180Y11885715D01*
X22145180Y12219049D02*
X23145180Y12219049D01*
X23145180Y12219049D02*
X22145180Y12790477D01*
X22145180Y12790477D02*
X23145180Y12790477D01*
X22240419Y13838096D02*
X22192800Y13790477D01*
X22192800Y13790477D02*
X22145180Y13647620D01*
X22145180Y13647620D02*
X22145180Y13552382D01*
X22145180Y13552382D02*
X22192800Y13409525D01*
X22192800Y13409525D02*
X22288038Y13314287D01*
X22288038Y13314287D02*
X22383276Y13266668D01*
X22383276Y13266668D02*
X22573752Y13219049D01*
X22573752Y13219049D02*
X22716609Y13219049D01*
X22716609Y13219049D02*
X22907085Y13266668D01*
X22907085Y13266668D02*
X23002323Y13314287D01*
X23002323Y13314287D02*
X23097561Y13409525D01*
X23097561Y13409525D02*
X23145180Y13552382D01*
X23145180Y13552382D02*
X23145180Y13647620D01*
X23145180Y13647620D02*
X23097561Y13790477D01*
X23097561Y13790477D02*
X23049942Y13838096D01*
D12*
X86297717Y45438096D02*
X86345336Y45342858D01*
X86345336Y45342858D02*
X86345336Y45200001D01*
X86345336Y45200001D02*
X86297717Y45057144D01*
X86297717Y45057144D02*
X86202479Y44961906D01*
X86202479Y44961906D02*
X86107241Y44914287D01*
X86107241Y44914287D02*
X85916765Y44866668D01*
X85916765Y44866668D02*
X85773908Y44866668D01*
X85773908Y44866668D02*
X85583432Y44914287D01*
X85583432Y44914287D02*
X85488194Y44961906D01*
X85488194Y44961906D02*
X85392956Y45057144D01*
X85392956Y45057144D02*
X85345336Y45200001D01*
X85345336Y45200001D02*
X85345336Y45295239D01*
X85345336Y45295239D02*
X85392956Y45438096D01*
X85392956Y45438096D02*
X85440575Y45485715D01*
X85440575Y45485715D02*
X85773908Y45485715D01*
X85773908Y45485715D02*
X85773908Y45295239D01*
X85345336Y45914287D02*
X86345336Y45914287D01*
X86345336Y45914287D02*
X85345336Y46485715D01*
X85345336Y46485715D02*
X86345336Y46485715D01*
X85345336Y46961906D02*
X86345336Y46961906D01*
X86345336Y46961906D02*
X86345336Y47200001D01*
X86345336Y47200001D02*
X86297717Y47342858D01*
X86297717Y47342858D02*
X86202479Y47438096D01*
X86202479Y47438096D02*
X86107241Y47485715D01*
X86107241Y47485715D02*
X85916765Y47533334D01*
X85916765Y47533334D02*
X85773908Y47533334D01*
X85773908Y47533334D02*
X85583432Y47485715D01*
X85583432Y47485715D02*
X85488194Y47438096D01*
X85488194Y47438096D02*
X85392956Y47342858D01*
X85392956Y47342858D02*
X85345336Y47200001D01*
X85345336Y47200001D02*
X85345336Y46961906D01*
X77345336Y44938096D02*
X76345336Y45271429D01*
X76345336Y45271429D02*
X77345336Y45604762D01*
X77345336Y46128572D02*
X77345336Y46319048D01*
X77345336Y46319048D02*
X77297717Y46414286D01*
X77297717Y46414286D02*
X77202479Y46509524D01*
X77202479Y46509524D02*
X77012003Y46557143D01*
X77012003Y46557143D02*
X76678670Y46557143D01*
X76678670Y46557143D02*
X76488194Y46509524D01*
X76488194Y46509524D02*
X76392956Y46414286D01*
X76392956Y46414286D02*
X76345336Y46319048D01*
X76345336Y46319048D02*
X76345336Y46128572D01*
X76345336Y46128572D02*
X76392956Y46033334D01*
X76392956Y46033334D02*
X76488194Y45938096D01*
X76488194Y45938096D02*
X76678670Y45890477D01*
X76678670Y45890477D02*
X77012003Y45890477D01*
X77012003Y45890477D02*
X77202479Y45938096D01*
X77202479Y45938096D02*
X77297717Y46033334D01*
X77297717Y46033334D02*
X77345336Y46128572D01*
X77345336Y46985715D02*
X76535813Y46985715D01*
X76535813Y46985715D02*
X76440575Y47033334D01*
X76440575Y47033334D02*
X76392956Y47080953D01*
X76392956Y47080953D02*
X76345336Y47176191D01*
X76345336Y47176191D02*
X76345336Y47366667D01*
X76345336Y47366667D02*
X76392956Y47461905D01*
X76392956Y47461905D02*
X76440575Y47509524D01*
X76440575Y47509524D02*
X76535813Y47557143D01*
X76535813Y47557143D02*
X77345336Y47557143D01*
X77345336Y47890477D02*
X77345336Y48461905D01*
X76345336Y48176191D02*
X77345336Y48176191D01*
D13*
%TO.C,R1*%
X36572936Y39435000D02*
X37027064Y39435000D01*
X36572936Y37965000D02*
X37027064Y37965000D01*
%TO.C,C10*%
X14765000Y17111252D02*
X14765000Y16588748D01*
X16235000Y17111252D02*
X16235000Y16588748D01*
%TO.C,C15*%
X33961252Y18935000D02*
X33438748Y18935000D01*
X33961252Y17465000D02*
X33438748Y17465000D01*
%TO.C,R20*%
X16927064Y29410000D02*
X15472936Y29410000D01*
X16927064Y27590000D02*
X15472936Y27590000D01*
%TO.C,D6*%
X33840000Y37200000D02*
X33840000Y35200000D01*
X37850000Y37200000D02*
X33840000Y37200000D01*
X37850000Y35200000D02*
X33840000Y35200000D01*
%TO.C,C14*%
X24865000Y19138748D02*
X24865000Y19661252D01*
X26335000Y19138748D02*
X26335000Y19661252D01*
%TO.C,R21*%
X19690000Y30627064D02*
X19690000Y29172936D01*
X21510000Y30627064D02*
X21510000Y29172936D01*
D10*
%TO.C,S2*%
X1550000Y27400000D02*
X1550000Y27400000D01*
X1550000Y27400000D02*
X1550000Y22400000D01*
X1550000Y22400000D02*
X1550000Y27400000D01*
X1550000Y22400000D02*
X1550000Y22400000D01*
X4250000Y24650000D02*
X4250000Y24650000D01*
X4250000Y24650000D02*
X4250000Y23650000D01*
X4250000Y23650000D02*
X4250000Y24650000D01*
X4250000Y23650000D02*
X4250000Y23650000D01*
D14*
X5900000Y22600000D02*
X5900000Y22600000D01*
X5900000Y22600000D02*
X5900000Y22600000D01*
X6000000Y22600000D02*
X6000000Y22600000D01*
X5900000Y22600000D02*
G75*
G02*
X6000000Y22600000I50000J0D01*
G01*
X5900000Y22600000D02*
G75*
G02*
X6000000Y22600000I50000J0D01*
G01*
X6000000Y22600000D02*
G75*
G02*
X5900000Y22600000I-50000J0D01*
G01*
D13*
%TO.C,C12*%
X11488748Y29235000D02*
X12011252Y29235000D01*
X11488748Y27765000D02*
X12011252Y27765000D01*
%TO.C,C13*%
X11488748Y31835000D02*
X12011252Y31835000D01*
X11488748Y30365000D02*
X12011252Y30365000D01*
%TO.C,C16*%
X34565000Y21461252D02*
X34565000Y20938748D01*
X36035000Y21461252D02*
X36035000Y20938748D01*
%TO.C,D5*%
X19700000Y25850000D02*
X19700000Y21840000D01*
X19700000Y21840000D02*
X21700000Y21840000D01*
X21700000Y25850000D02*
X21700000Y21840000D01*
%TO.C,C18*%
X36865000Y21461252D02*
X36865000Y20938748D01*
X38335000Y21461252D02*
X38335000Y20938748D01*
%TO.C,FB2*%
X15861252Y31835000D02*
X15338748Y31835000D01*
X15861252Y30365000D02*
X15338748Y30365000D01*
%TO.C,DI4*%
X40590000Y6950000D02*
X40590000Y6300000D01*
X40590000Y5650000D02*
X40590000Y6300000D01*
X43710000Y6950000D02*
X43710000Y6300000D01*
X43710000Y5650000D02*
X43710000Y6300000D01*
X43990000Y4897500D02*
X43660000Y5137500D01*
X43990000Y5377500D01*
X43990000Y4897500D01*
G36*
X43990000Y4897500D02*
G01*
X43660000Y5137500D01*
X43990000Y5377500D01*
X43990000Y4897500D01*
G37*
%TO.C,R24*%
X75572936Y28235000D02*
X76027064Y28235000D01*
X75572936Y26765000D02*
X76027064Y26765000D01*
%TO.C,R26*%
X75572936Y26035000D02*
X76027064Y26035000D01*
X75572936Y24565000D02*
X76027064Y24565000D01*
%TO.C,D1*%
X35840000Y32800000D02*
X35840000Y30800000D01*
X39850000Y32800000D02*
X35840000Y32800000D01*
X39850000Y30800000D02*
X35840000Y30800000D01*
D15*
%TO.C,G\u002A\u002A\u002A*%
G36*
X83296826Y13894518D02*
G01*
X83296826Y12289614D01*
X82945067Y12289614D01*
X82593307Y12289614D01*
X82593307Y12779309D01*
X82593307Y13269004D01*
X82157271Y13275172D01*
X82118323Y13275734D01*
X81998028Y13277726D01*
X81901844Y13279934D01*
X81825716Y13282641D01*
X81765589Y13286125D01*
X81717407Y13290667D01*
X81677115Y13296549D01*
X81640659Y13304050D01*
X81603982Y13313452D01*
X81533070Y13334801D01*
X81362348Y13404569D01*
X81212382Y13494323D01*
X81083781Y13603491D01*
X80977152Y13731500D01*
X80893101Y13877775D01*
X80832237Y14041746D01*
X80814838Y14124687D01*
X80802896Y14231914D01*
X80797838Y14349517D01*
X80798305Y14378188D01*
X81487129Y14378188D01*
X81488596Y14304202D01*
X81493551Y14247790D01*
X81503278Y14203460D01*
X81519070Y14162483D01*
X81539041Y14124348D01*
X81603332Y14037950D01*
X81685206Y13962917D01*
X81776427Y13907409D01*
X81867802Y13865205D01*
X82230554Y13860824D01*
X82593307Y13856444D01*
X82593307Y14378386D01*
X82593307Y14900329D01*
X82223226Y14895750D01*
X81853145Y14891172D01*
X81774875Y14849949D01*
X81673584Y14783799D01*
X81588571Y14700896D01*
X81527334Y14607441D01*
X81513597Y14578198D01*
X81499430Y14539996D01*
X81491370Y14500047D01*
X81487806Y14449171D01*
X81487129Y14378188D01*
X80798305Y14378188D01*
X80799771Y14468129D01*
X80808802Y14578384D01*
X80825039Y14670917D01*
X80829620Y14688772D01*
X80886822Y14848638D01*
X80968978Y14997760D01*
X81073118Y15132785D01*
X81196275Y15250358D01*
X81335480Y15347125D01*
X81487764Y15419732D01*
X81530916Y15435352D01*
X81576597Y15449926D01*
X81623548Y15462129D01*
X81674571Y15472167D01*
X81732472Y15480248D01*
X81800056Y15486579D01*
X81880125Y15491367D01*
X81975485Y15494820D01*
X82088939Y15497145D01*
X82223292Y15498549D01*
X82381349Y15499239D01*
X82565913Y15499423D01*
X83296826Y15499423D01*
X83296826Y14378386D01*
X83296826Y13894518D01*
G37*
G36*
X84659896Y13557577D02*
G01*
X84659896Y12921231D01*
X85183872Y12916876D01*
X85230944Y12916484D01*
X85359889Y12915338D01*
X85463601Y12914154D01*
X85545170Y12912724D01*
X85607689Y12910839D01*
X85654247Y12908291D01*
X85687936Y12904872D01*
X85711846Y12900372D01*
X85729069Y12894585D01*
X85742694Y12887300D01*
X85755814Y12878310D01*
X85777841Y12859789D01*
X85820128Y12807107D01*
X85850258Y12746324D01*
X85861743Y12689033D01*
X85852694Y12640873D01*
X85827608Y12582445D01*
X85792754Y12527673D01*
X85754432Y12488337D01*
X85743367Y12480943D01*
X85729557Y12474391D01*
X85710852Y12469156D01*
X85684201Y12465053D01*
X85646551Y12461896D01*
X85594850Y12459500D01*
X85526045Y12457679D01*
X85437085Y12456247D01*
X85324916Y12455020D01*
X85186487Y12453811D01*
X84659896Y12449456D01*
X84659896Y11820438D01*
X84659896Y11191420D01*
X85185035Y11187228D01*
X85710173Y11183035D01*
X85762664Y11142982D01*
X85785696Y11123027D01*
X85830702Y11061402D01*
X85852979Y10991685D01*
X85853080Y10919787D01*
X85831559Y10851622D01*
X85788970Y10793100D01*
X85725866Y10750133D01*
X85721030Y10747984D01*
X85702148Y10740786D01*
X85680103Y10735041D01*
X85651625Y10730586D01*
X85613446Y10727254D01*
X85562298Y10724881D01*
X85494910Y10723302D01*
X85408016Y10722351D01*
X85298345Y10721862D01*
X85162631Y10721672D01*
X84661384Y10721350D01*
X84656976Y10109435D01*
X84652568Y9497519D01*
X84613300Y9390018D01*
X84585341Y9319401D01*
X84528567Y9207711D01*
X84457749Y9106906D01*
X84366139Y9006521D01*
X84275117Y8923127D01*
X84182393Y8855642D01*
X84080835Y8800741D01*
X83960205Y8752004D01*
X83831795Y8706059D01*
X83197894Y8701543D01*
X82563993Y8697028D01*
X82563993Y8179400D01*
X82563818Y8076467D01*
X82563184Y7960477D01*
X82562142Y7855341D01*
X82560751Y7764751D01*
X82559071Y7692399D01*
X82557159Y7641976D01*
X82555074Y7617174D01*
X82551310Y7602619D01*
X82520466Y7544358D01*
X82470679Y7493706D01*
X82410098Y7459525D01*
X82381101Y7450789D01*
X82300296Y7444579D01*
X82224967Y7463840D01*
X82160653Y7506504D01*
X82112893Y7570503D01*
X82109335Y7577531D01*
X82101295Y7594681D01*
X82094895Y7612702D01*
X82089987Y7634754D01*
X82086424Y7663996D01*
X82084057Y7703590D01*
X82082739Y7756695D01*
X82082322Y7826470D01*
X82082660Y7916078D01*
X82083603Y8028676D01*
X82085006Y8167427D01*
X82090504Y8698731D01*
X81462505Y8698731D01*
X80834507Y8698731D01*
X80834507Y8155850D01*
X80834463Y8048656D01*
X80834195Y7926929D01*
X80833554Y7829180D01*
X80832397Y7752340D01*
X80830580Y7693341D01*
X80827961Y7649116D01*
X80824396Y7616597D01*
X80819741Y7592715D01*
X80813853Y7574402D01*
X80806588Y7558591D01*
X80799470Y7545851D01*
X80751718Y7491918D01*
X80690192Y7458145D01*
X80620881Y7444218D01*
X80549776Y7449824D01*
X80482867Y7474647D01*
X80426141Y7518374D01*
X80385590Y7580689D01*
X80381145Y7594829D01*
X80376444Y7622572D01*
X80372717Y7663718D01*
X80369873Y7720918D01*
X80367820Y7796825D01*
X80366466Y7894089D01*
X80365721Y8015361D01*
X80365494Y8163292D01*
X80365494Y8698731D01*
X79743089Y8698731D01*
X79120685Y8698731D01*
X79116517Y8142832D01*
X79116146Y8093808D01*
X79115043Y7960189D01*
X79113878Y7851970D01*
X79112477Y7766192D01*
X79110668Y7699896D01*
X79108275Y7650124D01*
X79105127Y7613918D01*
X79101049Y7588318D01*
X79095868Y7570366D01*
X79089410Y7557104D01*
X79081503Y7545573D01*
X79038805Y7501159D01*
X78967237Y7461225D01*
X78885170Y7447277D01*
X78823877Y7454928D01*
X78748997Y7488314D01*
X78688837Y7545573D01*
X78686117Y7549285D01*
X78678697Y7561052D01*
X78672670Y7575504D01*
X78667864Y7595600D01*
X78664105Y7624299D01*
X78661219Y7664560D01*
X78659034Y7719340D01*
X78657375Y7791599D01*
X78656069Y7884294D01*
X78654944Y8000386D01*
X78653824Y8142832D01*
X78649656Y8698731D01*
X78063275Y8698731D01*
X77997721Y8698761D01*
X77852633Y8699139D01*
X77732537Y8700028D01*
X77634346Y8701531D01*
X77554973Y8703750D01*
X77491331Y8706786D01*
X77440334Y8710742D01*
X77398894Y8715720D01*
X77363924Y8721820D01*
X77290569Y8739479D01*
X77127967Y8799261D01*
X76979675Y8883366D01*
X76847874Y8989856D01*
X76734748Y9116790D01*
X76642481Y9262230D01*
X76573256Y9424236D01*
X76533874Y9541489D01*
X76528627Y10131420D01*
X76523379Y10721350D01*
X76025616Y10721350D01*
X75943144Y10721377D01*
X75814368Y10721744D01*
X75710116Y10722918D01*
X75627300Y10725361D01*
X75562831Y10729536D01*
X75513621Y10735906D01*
X75476581Y10744936D01*
X75448622Y10757087D01*
X75426656Y10772822D01*
X75407594Y10792606D01*
X75388347Y10816901D01*
X75373854Y10838641D01*
X75354880Y10890945D01*
X76995201Y10890945D01*
X76995359Y10691353D01*
X76995752Y10512247D01*
X76996417Y10352436D01*
X76997386Y10210729D01*
X76998696Y10085935D01*
X77000380Y9976863D01*
X77002474Y9882321D01*
X77005012Y9801120D01*
X77008029Y9732067D01*
X77011559Y9673971D01*
X77015638Y9625643D01*
X77020300Y9585890D01*
X77025580Y9553521D01*
X77031512Y9527346D01*
X77038132Y9506173D01*
X77045473Y9488812D01*
X77053571Y9474071D01*
X77062461Y9460759D01*
X77072176Y9447685D01*
X77082752Y9433659D01*
X77094224Y9417489D01*
X77106540Y9399971D01*
X77188934Y9307827D01*
X77286103Y9234160D01*
X77391156Y9184381D01*
X77483822Y9153087D01*
X80606510Y9153875D01*
X80885120Y9153951D01*
X81220346Y9154064D01*
X81528361Y9154203D01*
X81810349Y9154377D01*
X82067496Y9154597D01*
X82300987Y9154872D01*
X82512007Y9155213D01*
X82701742Y9155628D01*
X82871376Y9156129D01*
X83022095Y9156725D01*
X83155085Y9157426D01*
X83271530Y9158241D01*
X83372615Y9159181D01*
X83459526Y9160256D01*
X83533449Y9161474D01*
X83595567Y9162847D01*
X83647067Y9164384D01*
X83689134Y9166095D01*
X83722953Y9167990D01*
X83749709Y9170078D01*
X83770588Y9172370D01*
X83786774Y9174876D01*
X83799453Y9177605D01*
X83809810Y9180567D01*
X83906603Y9220965D01*
X84012310Y9292052D01*
X84098445Y9383651D01*
X84162933Y9493456D01*
X84203702Y9619158D01*
X84204705Y9624416D01*
X84209762Y9668974D01*
X84214035Y9737041D01*
X84217328Y9823724D01*
X84219447Y9924126D01*
X84220196Y10033353D01*
X84220196Y10369880D01*
X82838806Y10368930D01*
X82595872Y10368613D01*
X82363060Y10367980D01*
X82152540Y10367049D01*
X81965191Y10365829D01*
X81801889Y10364330D01*
X81663512Y10362562D01*
X81550937Y10360533D01*
X81465042Y10358254D01*
X81406705Y10355734D01*
X81376803Y10352982D01*
X81352949Y10348291D01*
X81302143Y10335548D01*
X81255914Y10318260D01*
X81210117Y10293659D01*
X81160609Y10258976D01*
X81103245Y10211442D01*
X81033881Y10148288D01*
X80948372Y10066745D01*
X80862891Y9985475D01*
X80784340Y9914523D01*
X80717742Y9859840D01*
X80659031Y9818595D01*
X80604141Y9787955D01*
X80549007Y9765089D01*
X80489563Y9747165D01*
X80454802Y9741705D01*
X80392861Y9736657D01*
X80308719Y9732379D01*
X80206032Y9728870D01*
X80088457Y9726133D01*
X79959652Y9724166D01*
X79823272Y9722970D01*
X79682976Y9722546D01*
X79542420Y9722894D01*
X79405260Y9724015D01*
X79275154Y9725909D01*
X79155759Y9728576D01*
X79050731Y9732016D01*
X78963728Y9736231D01*
X78898406Y9741221D01*
X78858423Y9746985D01*
X78812657Y9758909D01*
X78723545Y9790931D01*
X78640897Y9835226D01*
X78557476Y9896048D01*
X78466045Y9977652D01*
X78331577Y10106025D01*
X78238610Y10082208D01*
X78134228Y10066572D01*
X78019273Y10074977D01*
X77911275Y10109489D01*
X77813846Y10168403D01*
X77730599Y10250017D01*
X77665145Y10352627D01*
X77652703Y10378457D01*
X77633815Y10423793D01*
X77623154Y10465497D01*
X77618434Y10514540D01*
X77617369Y10581893D01*
X77617374Y10582571D01*
X77976457Y10582571D01*
X77982001Y10541541D01*
X78008523Y10486775D01*
X78051866Y10449103D01*
X78107426Y10430177D01*
X78161836Y10436364D01*
X78212091Y10471060D01*
X78239989Y10507806D01*
X78257193Y10566117D01*
X78247275Y10625547D01*
X78210284Y10680315D01*
X78179233Y10707576D01*
X78149990Y10718806D01*
X78111351Y10716338D01*
X78068414Y10701471D01*
X78022718Y10668437D01*
X77989370Y10626130D01*
X77976457Y10582571D01*
X77617374Y10582571D01*
X77617711Y10628821D01*
X77620563Y10680788D01*
X77628287Y10720840D01*
X77643205Y10759362D01*
X77667639Y10806740D01*
X77675703Y10821138D01*
X77748210Y10920163D01*
X77835720Y10996339D01*
X77934521Y11049053D01*
X78040900Y11077689D01*
X78151146Y11081634D01*
X78261545Y11060273D01*
X78368386Y11012991D01*
X78467955Y10939175D01*
X78529421Y10870234D01*
X78585971Y10770056D01*
X78618330Y10659497D01*
X78623796Y10566117D01*
X78625105Y10543754D01*
X78604904Y10428024D01*
X78588406Y10372956D01*
X78700993Y10265012D01*
X78732512Y10234342D01*
X78766353Y10201203D01*
X78796386Y10173577D01*
X78825372Y10150966D01*
X78856069Y10132871D01*
X78891239Y10118796D01*
X78933640Y10108241D01*
X78986032Y10100709D01*
X79051175Y10095702D01*
X79131829Y10092723D01*
X79230754Y10091272D01*
X79350709Y10090852D01*
X79494454Y10090965D01*
X79664750Y10091114D01*
X79777802Y10091167D01*
X79931808Y10091490D01*
X80060364Y10092161D01*
X80165823Y10093242D01*
X80250539Y10094796D01*
X80316867Y10096886D01*
X80367161Y10099574D01*
X80403774Y10102922D01*
X80429062Y10106993D01*
X80445377Y10111850D01*
X80447471Y10112812D01*
X80475432Y10131490D01*
X80519601Y10166846D01*
X80575868Y10215350D01*
X80640124Y10273473D01*
X80708259Y10337683D01*
X80740193Y10368221D01*
X80833324Y10454469D01*
X80913021Y10522751D01*
X80983723Y10576243D01*
X81049871Y10618123D01*
X81115906Y10651568D01*
X81186267Y10679756D01*
X81281535Y10714022D01*
X82750866Y10718027D01*
X84220196Y10722031D01*
X84220196Y10934456D01*
X84220196Y11146881D01*
X82553001Y11142973D01*
X80885805Y11139065D01*
X80807337Y11097742D01*
X80791838Y11088588D01*
X80744555Y11054759D01*
X80684064Y11005926D01*
X80615379Y10946232D01*
X80543517Y10879820D01*
X80531400Y10868288D01*
X80449002Y10790935D01*
X80382124Y10730991D01*
X80326364Y10685317D01*
X80277318Y10650777D01*
X80230585Y10624233D01*
X80181761Y10602547D01*
X80126443Y10582581D01*
X80056374Y10564056D01*
X79948250Y10548512D01*
X79834138Y10543974D01*
X79724965Y10550738D01*
X79631656Y10569103D01*
X79622345Y10571876D01*
X79580629Y10584808D01*
X79542720Y10598242D01*
X79506577Y10613864D01*
X79470154Y10633360D01*
X79431409Y10658417D01*
X79388296Y10690721D01*
X79338773Y10731958D01*
X79280795Y10783815D01*
X79212319Y10847977D01*
X79131300Y10926132D01*
X79035696Y11019965D01*
X78923461Y11131163D01*
X78792552Y11261413D01*
X78723362Y11330492D01*
X78616881Y11437518D01*
X78517055Y11538712D01*
X78425915Y11631965D01*
X78345493Y11715172D01*
X78277820Y11786226D01*
X78224927Y11843020D01*
X78188846Y11883447D01*
X78171607Y11905401D01*
X78143108Y11960913D01*
X78109989Y12048742D01*
X78087404Y12138317D01*
X78079054Y12217171D01*
X78079054Y12288683D01*
X77906838Y12292813D01*
X77734622Y12296942D01*
X77734622Y13894518D01*
X77734622Y15492095D01*
X78082718Y15496024D01*
X78430814Y15499954D01*
X78430814Y14847467D01*
X78430814Y14194980D01*
X79046394Y14194980D01*
X79661974Y14194980D01*
X79661974Y14847202D01*
X79661974Y15499423D01*
X80021062Y15499423D01*
X80380150Y15499423D01*
X80380150Y13894518D01*
X80380150Y12289614D01*
X80021062Y12289614D01*
X79661974Y12289614D01*
X79661974Y12941835D01*
X79661974Y13594057D01*
X79046394Y13594057D01*
X78430814Y13594057D01*
X78431423Y12916186D01*
X78431475Y12866250D01*
X78431772Y12713141D01*
X78432321Y12585827D01*
X78433218Y12481586D01*
X78434556Y12397693D01*
X78436428Y12331427D01*
X78438927Y12280064D01*
X78442148Y12240880D01*
X78446184Y12211154D01*
X78451127Y12188161D01*
X78457072Y12169180D01*
X78461346Y12158868D01*
X78472293Y12139005D01*
X78489380Y12114434D01*
X78514240Y12083391D01*
X78548511Y12044110D01*
X78593828Y11994827D01*
X78651827Y11933776D01*
X78724144Y11859193D01*
X78812415Y11769312D01*
X78918275Y11662368D01*
X79043361Y11536596D01*
X79105828Y11473964D01*
X79233142Y11346941D01*
X79341927Y11239422D01*
X79433398Y11150254D01*
X79508772Y11078286D01*
X79569263Y11022366D01*
X79616088Y10981342D01*
X79650461Y10954063D01*
X79673598Y10939376D01*
X79685281Y10934041D01*
X79766173Y10911280D01*
X79858260Y10903836D01*
X79949654Y10911841D01*
X80028466Y10935428D01*
X80042192Y10942857D01*
X80086372Y10973724D01*
X80145696Y11021627D01*
X80216646Y11083650D01*
X80295704Y11156878D01*
X80299565Y11160544D01*
X80382284Y11237584D01*
X80450034Y11297012D01*
X80507541Y11342583D01*
X80559536Y11378056D01*
X80610747Y11407186D01*
X80633852Y11419276D01*
X80661814Y11433783D01*
X80688429Y11446708D01*
X80715401Y11458144D01*
X80744433Y11468180D01*
X80777228Y11476909D01*
X80815489Y11484421D01*
X80860920Y11490807D01*
X80915225Y11496159D01*
X80980106Y11500567D01*
X81057267Y11504124D01*
X81148411Y11506919D01*
X81255241Y11509044D01*
X81379462Y11510590D01*
X81522776Y11511648D01*
X81686886Y11512309D01*
X81873497Y11512665D01*
X82084310Y11512807D01*
X82321030Y11512825D01*
X82585360Y11512810D01*
X84220196Y11512810D01*
X84220196Y13614736D01*
X84220188Y13869997D01*
X84220146Y14135717D01*
X84220053Y14374884D01*
X84219890Y14588971D01*
X84219638Y14779452D01*
X84219279Y14947798D01*
X84218794Y15095484D01*
X84218164Y15223981D01*
X84217371Y15334762D01*
X84216397Y15429302D01*
X84215223Y15509071D01*
X84213830Y15575544D01*
X84212199Y15630192D01*
X84210313Y15674490D01*
X84208152Y15709909D01*
X84205699Y15737923D01*
X84202934Y15760005D01*
X84199838Y15777626D01*
X84196394Y15792261D01*
X84192583Y15805382D01*
X84152105Y15909896D01*
X84094299Y16004761D01*
X84015769Y16090883D01*
X83948144Y16145544D01*
X83832144Y16209234D01*
X83704921Y16247222D01*
X83694711Y16248284D01*
X83653420Y16250104D01*
X83583118Y16251755D01*
X83484002Y16253236D01*
X83356267Y16254546D01*
X83200109Y16255684D01*
X83015724Y16256651D01*
X82803307Y16257445D01*
X82563055Y16258065D01*
X82295163Y16258511D01*
X81999827Y16258783D01*
X81677243Y16258879D01*
X81327607Y16258799D01*
X80951114Y16258542D01*
X80547961Y16258108D01*
X77470802Y16254241D01*
X77371633Y16207419D01*
X77294747Y16164135D01*
X77195688Y16086653D01*
X77111276Y15994928D01*
X77048843Y15896033D01*
X77001789Y15799885D01*
X76997483Y12736642D01*
X76997266Y12585404D01*
X76996737Y12237884D01*
X76996236Y11917995D01*
X76995797Y11624548D01*
X76995455Y11356352D01*
X76995245Y11112214D01*
X76995201Y10890945D01*
X75354880Y10890945D01*
X75348570Y10908341D01*
X75347267Y10982221D01*
X75368327Y11053537D01*
X75410131Y11115546D01*
X75471061Y11161506D01*
X75477858Y11164867D01*
X75495128Y11172017D01*
X75515750Y11177694D01*
X75542968Y11182067D01*
X75580028Y11185304D01*
X75630175Y11187575D01*
X75696654Y11189048D01*
X75782711Y11189891D01*
X75891590Y11190274D01*
X76026537Y11190364D01*
X76525447Y11190364D01*
X76525447Y11819902D01*
X76525447Y12449440D01*
X76006185Y12453802D01*
X75886243Y12454856D01*
X75771670Y12456080D01*
X75680691Y12457486D01*
X75610236Y12459265D01*
X75557233Y12461606D01*
X75518609Y12464699D01*
X75491293Y12468733D01*
X75472213Y12473899D01*
X75458297Y12480386D01*
X75446473Y12488384D01*
X75433791Y12498312D01*
X75376111Y12561461D01*
X75345889Y12632398D01*
X75343743Y12708700D01*
X75370289Y12787940D01*
X75373038Y12793180D01*
X75413137Y12848132D01*
X75469609Y12886873D01*
X75485038Y12894395D01*
X75503352Y12901814D01*
X75524512Y12907630D01*
X75551827Y12912040D01*
X75588604Y12915237D01*
X75638152Y12917417D01*
X75703780Y12918773D01*
X75788797Y12919501D01*
X75896509Y12919795D01*
X76030226Y12919850D01*
X76525447Y12919850D01*
X76525447Y13557415D01*
X76525447Y14194980D01*
X76030785Y14195302D01*
X76024309Y14195306D01*
X75890404Y14195522D01*
X75782395Y14196068D01*
X75697007Y14197106D01*
X75630965Y14198800D01*
X75580996Y14201311D01*
X75543823Y14204802D01*
X75516173Y14209435D01*
X75494772Y14215371D01*
X75476344Y14222774D01*
X75415404Y14260499D01*
X75368458Y14318629D01*
X75344594Y14394351D01*
X75343109Y14443722D01*
X75362701Y14517400D01*
X75405876Y14581687D01*
X75469168Y14630024D01*
X75486153Y14638710D01*
X75503880Y14646153D01*
X75524544Y14651970D01*
X75551443Y14656361D01*
X75587873Y14659528D01*
X75637132Y14661669D01*
X75702517Y14662986D01*
X75787323Y14663679D01*
X75894849Y14663948D01*
X76028392Y14663993D01*
X76523379Y14663993D01*
X76528757Y15253924D01*
X76529541Y15338469D01*
X76530907Y15471286D01*
X76532346Y15579681D01*
X76534037Y15666812D01*
X76536156Y15735834D01*
X76538884Y15789904D01*
X76542397Y15832179D01*
X76546875Y15865815D01*
X76552496Y15893968D01*
X76559438Y15919794D01*
X76567879Y15946451D01*
X76605451Y16045426D01*
X76689454Y16204151D01*
X76796034Y16345680D01*
X76923296Y16468018D01*
X77069347Y16569166D01*
X77232292Y16647128D01*
X77353549Y16693782D01*
X77998442Y16701190D01*
X78643335Y16708598D01*
X78650664Y17260838D01*
X78651086Y17292531D01*
X78652985Y17428858D01*
X78654791Y17539457D01*
X78656692Y17627298D01*
X78658879Y17695352D01*
X78661542Y17746587D01*
X78664872Y17783974D01*
X78669058Y17810483D01*
X78674290Y17829082D01*
X78680758Y17842742D01*
X78688653Y17854433D01*
X78695802Y17863809D01*
X78754703Y17921821D01*
X78820501Y17952667D01*
X78896771Y17958128D01*
X78963058Y17945735D01*
X79026612Y17912063D01*
X79082130Y17853522D01*
X79084184Y17850729D01*
X79091569Y17839094D01*
X79097578Y17824730D01*
X79102380Y17804686D01*
X79106145Y17776007D01*
X79109045Y17735738D01*
X79111249Y17680926D01*
X79112928Y17608617D01*
X79114252Y17515857D01*
X79115392Y17399692D01*
X79116517Y17257169D01*
X79120685Y16701270D01*
X79743089Y16701270D01*
X80365494Y16701270D01*
X80365494Y17233132D01*
X80365495Y17269145D01*
X80365574Y17401546D01*
X80365903Y17508553D01*
X80366656Y17593325D01*
X80368007Y17659022D01*
X80370132Y17708803D01*
X80373205Y17745827D01*
X80377401Y17773252D01*
X80382894Y17794239D01*
X80389859Y17811947D01*
X80398471Y17829533D01*
X80410060Y17850733D01*
X80455645Y17908655D01*
X80513009Y17942913D01*
X80588400Y17957724D01*
X80666606Y17952995D01*
X80739125Y17923031D01*
X80797393Y17867599D01*
X80798825Y17865657D01*
X80806207Y17854053D01*
X80812256Y17839587D01*
X80817154Y17819320D01*
X80821083Y17790313D01*
X80824226Y17749628D01*
X80826764Y17694325D01*
X80828879Y17621466D01*
X80830753Y17528112D01*
X80832569Y17411323D01*
X80834507Y17268162D01*
X80841835Y16708598D01*
X81461140Y16708598D01*
X82080445Y16708598D01*
X82084048Y17260825D01*
X82084323Y17302546D01*
X82085295Y17436972D01*
X82086349Y17545870D01*
X82087657Y17632209D01*
X82089391Y17698959D01*
X82091723Y17749091D01*
X82094823Y17785574D01*
X82098863Y17811379D01*
X82104016Y17829475D01*
X82110452Y17842832D01*
X82118343Y17854420D01*
X82119082Y17855412D01*
X82180782Y17914943D01*
X82256233Y17949621D01*
X82341087Y17957436D01*
X82409237Y17945014D01*
X82471562Y17911679D01*
X82526446Y17853522D01*
X82528442Y17850810D01*
X82535842Y17839176D01*
X82541863Y17824834D01*
X82546674Y17804828D01*
X82550447Y17776203D01*
X82553351Y17736001D01*
X82555559Y17681268D01*
X82557240Y17609046D01*
X82558566Y17516379D01*
X82559706Y17400312D01*
X82560831Y17257889D01*
X82564997Y16702710D01*
X83198396Y16697906D01*
X83831795Y16693103D01*
X83937985Y16654113D01*
X83966775Y16643281D01*
X84095745Y16586321D01*
X84205560Y16521286D01*
X84304613Y16443353D01*
X84361421Y16389957D01*
X84467924Y16268378D01*
X84552670Y16135510D01*
X84620856Y15983798D01*
X84625419Y15971296D01*
X84632152Y15949887D01*
X84637677Y15925853D01*
X84642147Y15896229D01*
X84645712Y15858049D01*
X84648522Y15808347D01*
X84650731Y15744159D01*
X84652487Y15662520D01*
X84653943Y15560463D01*
X84655250Y15435024D01*
X84656558Y15283237D01*
X84661632Y14663993D01*
X85162755Y14663671D01*
X85200854Y14663641D01*
X85329441Y14663389D01*
X85432836Y14662796D01*
X85514310Y14661696D01*
X85577131Y14659925D01*
X85624568Y14657317D01*
X85659891Y14653706D01*
X85686369Y14648929D01*
X85707271Y14642818D01*
X85725866Y14635210D01*
X85752080Y14621183D01*
X85807500Y14571645D01*
X85842195Y14508785D01*
X85855613Y14438515D01*
X85847200Y14366747D01*
X85816402Y14299392D01*
X85762664Y14242362D01*
X85710173Y14202308D01*
X85185035Y14198116D01*
X84659896Y14193924D01*
X84659896Y13614736D01*
X84659896Y13557577D01*
G37*
D13*
%TO.C,C11*%
X18601248Y20685000D02*
X19123752Y20685000D01*
X18601248Y19215000D02*
X19123752Y19215000D01*
%TO.C,D4*%
X12800000Y20950000D02*
X16460000Y20950000D01*
X12800000Y19050000D02*
X16460000Y19050000D01*
X16460000Y19050000D02*
X16460000Y20950000D01*
%TO.C,L1*%
X13540000Y26960000D02*
X13540000Y21440000D01*
X13940000Y26960000D02*
X13540000Y26960000D01*
X13940000Y21440000D02*
X13540000Y21440000D01*
X18660000Y26960000D02*
X19060000Y26960000D01*
X18660000Y21440000D02*
X19060000Y21440000D01*
X19060000Y26960000D02*
X19060000Y21440000D01*
%TO.C,LDO1*%
X28050000Y21035000D02*
X31050000Y21035000D01*
X28050000Y17815000D02*
X31050000Y17815000D01*
X32050000Y20715000D02*
X31570000Y20715000D01*
X31570000Y21195000D01*
X32050000Y20715000D01*
G36*
X32050000Y20715000D02*
G01*
X31570000Y20715000D01*
X31570000Y21195000D01*
X32050000Y20715000D01*
G37*
%TO.C,C17*%
X32265000Y21461252D02*
X32265000Y20938748D01*
X33735000Y21461252D02*
X33735000Y20938748D01*
%TO.C,U4*%
X18062500Y18410000D02*
X18862500Y18410000D01*
X18062500Y15290000D02*
X18862500Y15290000D01*
X19662500Y18410000D02*
X18862500Y18410000D01*
X19662500Y15290000D02*
X18862500Y15290000D01*
X20162500Y18360000D02*
X19922500Y18690000D01*
X20402500Y18690000D01*
X20162500Y18360000D01*
G36*
X20162500Y18360000D02*
G01*
X19922500Y18690000D01*
X20402500Y18690000D01*
X20162500Y18360000D01*
G37*
%TO.C,R2*%
X36585436Y41735000D02*
X37039564Y41735000D01*
X36585436Y40265000D02*
X37039564Y40265000D01*
D14*
%TO.C,VS1*%
X41800000Y41390000D02*
X41900000Y41390000D01*
X41800000Y38470000D02*
X41800000Y41390000D01*
X41900000Y41390000D02*
X41900000Y38470000D01*
X41900000Y38470000D02*
X41800000Y38470000D01*
X42250000Y41510000D02*
X43550000Y41510000D01*
%TD*%
D16*
X100000000Y46800000D02*
X100000000Y3200000D01*
X0Y46800000D02*
X0Y3200000D01*
X96800000Y50000000D02*
X3200000Y50000000D01*
X96800000Y50000000D02*
G75*
G02*
X100000000Y46800000I-100J-3200100D01*
G01*
X100000000Y3200000D02*
G75*
G02*
X96800000Y0I-3200000J0D01*
G01*
X0Y46800000D02*
G75*
G02*
X3200000Y50000000I3200000J0D01*
G01*
X3200000Y0D02*
G75*
G02*
X0Y3200000I0J3200000D01*
G01*
X3200000Y0D02*
X96800000Y0D01*
M02*
