G04 #@! TF.GenerationSoftware,KiCad,Pcbnew,8.0.6*
G04 #@! TF.CreationDate,2026-01-05T17:20:55-08:00*
G04 #@! TF.ProjectId,USBPD_Board,55534250-445f-4426-9f61-72642e6b6963,A*
G04 #@! TF.SameCoordinates,Original*
G04 #@! TF.FileFunction,Paste,Top*
G04 #@! TF.FilePolarity,Positive*
%FSLAX46Y46*%
G04 Gerber Fmt 4.6, Leading zero omitted, Abs format (unit mm)*
G04 Created by KiCad (PCBNEW 8.0.6) date 2026-01-05 17:20:55*
%MOMM*%
%LPD*%
G01*
G04 APERTURE LIST*
G04 Aperture macros list*
%AMRoundRect*
0 Rectangle with rounded corners*
0 $1 Rounding radius*
0 $2 $3 $4 $5 $6 $7 $8 $9 X,Y pos of 4 corners*
0 Add a 4 corners polygon primitive as box body*
4,1,4,$2,$3,$4,$5,$6,$7,$8,$9,$2,$3,0*
0 Add four circle primitives for the rounded corners*
1,1,$1+$1,$2,$3*
1,1,$1+$1,$4,$5*
1,1,$1+$1,$6,$7*
1,1,$1+$1,$8,$9*
0 Add four rect primitives between the rounded corners*
20,1,$1+$1,$2,$3,$4,$5,0*
20,1,$1+$1,$4,$5,$6,$7,0*
20,1,$1+$1,$6,$7,$8,$9,0*
20,1,$1+$1,$8,$9,$2,$3,0*%
G04 Aperture macros list end*
%ADD10R,0.850000X0.300000*%
%ADD11R,0.300000X0.850000*%
%ADD12R,3.700000X3.700000*%
%ADD13RoundRect,0.250000X0.475000X-0.250000X0.475000X0.250000X-0.475000X0.250000X-0.475000X-0.250000X0*%
%ADD14RoundRect,0.250000X0.325000X0.650000X-0.325000X0.650000X-0.325000X-0.650000X0.325000X-0.650000X0*%
%ADD15RoundRect,0.250000X0.262500X0.450000X-0.262500X0.450000X-0.262500X-0.450000X0.262500X-0.450000X0*%
%ADD16RoundRect,0.250000X-0.325000X-0.650000X0.325000X-0.650000X0.325000X0.650000X-0.325000X0.650000X0*%
%ADD17R,1.270000X0.610000*%
%ADD18R,3.810000X3.910000*%
%ADD19R,0.310000X0.255000*%
%ADD20R,0.710000X0.610000*%
%ADD21RoundRect,0.250000X-0.262500X-0.450000X0.262500X-0.450000X0.262500X0.450000X-0.262500X0.450000X0*%
%ADD22RoundRect,0.225000X0.375000X-0.225000X0.375000X0.225000X-0.375000X0.225000X-0.375000X-0.225000X0*%
%ADD23R,1.475000X0.450000*%
%ADD24R,4.100000X3.000000*%
%ADD25RoundRect,0.250000X0.250000X0.475000X-0.250000X0.475000X-0.250000X-0.475000X0.250000X-0.475000X0*%
%ADD26R,0.900000X0.900000*%
%ADD27RoundRect,0.162500X0.437500X0.162500X-0.437500X0.162500X-0.437500X-0.162500X0.437500X-0.162500X0*%
%ADD28RoundRect,0.175000X0.325000X0.175000X-0.325000X0.175000X-0.325000X-0.175000X0.325000X-0.175000X0*%
%ADD29RoundRect,0.150000X0.512500X0.150000X-0.512500X0.150000X-0.512500X-0.150000X0.512500X-0.150000X0*%
%ADD30RoundRect,0.225000X0.275000X-0.225000X0.275000X0.225000X-0.275000X0.225000X-0.275000X-0.225000X0*%
%ADD31RoundRect,0.137500X0.137500X-0.712500X0.137500X0.712500X-0.137500X0.712500X-0.137500X-0.712500X0*%
%ADD32RoundRect,0.250000X-0.362500X-1.425000X0.362500X-1.425000X0.362500X1.425000X-0.362500X1.425000X0*%
%ADD33RoundRect,0.250000X-0.450000X0.262500X-0.450000X-0.262500X0.450000X-0.262500X0.450000X0.262500X0*%
%ADD34RoundRect,0.250000X-0.250000X-0.475000X0.250000X-0.475000X0.250000X0.475000X-0.250000X0.475000X0*%
%ADD35RoundRect,0.162500X-0.437500X-0.162500X0.437500X-0.162500X0.437500X0.162500X-0.437500X0.162500X0*%
%ADD36RoundRect,0.175000X-0.325000X-0.175000X0.325000X-0.175000X0.325000X0.175000X-0.325000X0.175000X0*%
%ADD37R,1.450000X0.600000*%
%ADD38R,1.450000X0.300000*%
%ADD39RoundRect,0.250000X-0.475000X0.250000X-0.475000X-0.250000X0.475000X-0.250000X0.475000X0.250000X0*%
G04 #@! TA.AperFunction,Profile*
%ADD40C,0.050000*%
G04 #@! TD*
G04 APERTURE END LIST*
D10*
X168700000Y-94300000D03*
X168700000Y-93800000D03*
X168700000Y-93300000D03*
X168700000Y-92800000D03*
X168700000Y-92300000D03*
X168700000Y-91800000D03*
X168700000Y-91300000D03*
X168700000Y-90800000D03*
D11*
X168000000Y-90100000D03*
X167500000Y-90100000D03*
X167000000Y-90100000D03*
X166500000Y-90100000D03*
X166000000Y-90100000D03*
X165500000Y-90100000D03*
X165000000Y-90100000D03*
X164500000Y-90100000D03*
D10*
X163800000Y-90800000D03*
X163800000Y-91300000D03*
X163800000Y-91800000D03*
X163800000Y-92300000D03*
X163800000Y-92800000D03*
X163800000Y-93300000D03*
X163800000Y-93800000D03*
X163800000Y-94300000D03*
D11*
X164500000Y-95000000D03*
X165000000Y-95000000D03*
X165500000Y-95000000D03*
X166000000Y-95000000D03*
X166500000Y-95000000D03*
X167000000Y-95000000D03*
X167500000Y-95000000D03*
X168000000Y-95000000D03*
D12*
X166250000Y-92550000D03*
D13*
X161200000Y-87500000D03*
X161200000Y-85600000D03*
X168100000Y-87500000D03*
X168100000Y-85600000D03*
D14*
X188875000Y-103000000D03*
X185925000Y-103000000D03*
D15*
X147612500Y-112900000D03*
X145787500Y-112900000D03*
D13*
X163500000Y-87500000D03*
X163500000Y-85600000D03*
D16*
X141825000Y-100800000D03*
X144775000Y-100800000D03*
D17*
X117270000Y-94805000D03*
X117270000Y-93535000D03*
X117270000Y-92265000D03*
X117270000Y-90995000D03*
D18*
X113910000Y-92900000D03*
D19*
X112160000Y-94983000D03*
X112160000Y-90817000D03*
D20*
X111650000Y-94805000D03*
X111650000Y-93535000D03*
X111650000Y-92265000D03*
X111650000Y-90995000D03*
D21*
X180987500Y-116600000D03*
X182812500Y-116600000D03*
D22*
X119800000Y-92350000D03*
X119800000Y-89050000D03*
D15*
X148962500Y-106300000D03*
X147137500Y-106300000D03*
D16*
X190800000Y-103000000D03*
X193750000Y-103000000D03*
D13*
X165800000Y-87500000D03*
X165800000Y-85600000D03*
D15*
X156700000Y-108720000D03*
X154875000Y-108720000D03*
D16*
X190800000Y-108400000D03*
X193750000Y-108400000D03*
D23*
X126438000Y-107950000D03*
X126438000Y-107300000D03*
X126438000Y-106650000D03*
X126438000Y-106000000D03*
X126438000Y-105350000D03*
X126438000Y-104700000D03*
X126438000Y-104050000D03*
X120562000Y-104050000D03*
X120562000Y-104700000D03*
X120562000Y-105350000D03*
X120562000Y-106000000D03*
X120562000Y-106650000D03*
X120562000Y-107300000D03*
X120562000Y-107950000D03*
D21*
X174587500Y-93000000D03*
X176412500Y-93000000D03*
D13*
X128700000Y-107650000D03*
X128700000Y-105750000D03*
D21*
X111587500Y-108700000D03*
X113412500Y-108700000D03*
D24*
X161050000Y-108600000D03*
X170550000Y-108600000D03*
D14*
X188875000Y-108400000D03*
X185925000Y-108400000D03*
D21*
X184487500Y-89400000D03*
X186312500Y-89400000D03*
D15*
X114112500Y-111800000D03*
X112287500Y-111800000D03*
D16*
X190800000Y-105700000D03*
X193750000Y-105700000D03*
D17*
X136400000Y-86260000D03*
X136400000Y-87530000D03*
X136400000Y-88800000D03*
X136400000Y-90070000D03*
D18*
X139760000Y-88165000D03*
D19*
X141510000Y-86082000D03*
X141510000Y-90248000D03*
D20*
X142020000Y-86260000D03*
X142020000Y-87530000D03*
X142020000Y-88800000D03*
X142020000Y-90070000D03*
D15*
X106812500Y-98900000D03*
X104987500Y-98900000D03*
D25*
X139950000Y-92300000D03*
X138050000Y-92300000D03*
D26*
X154625000Y-114620000D03*
X154625000Y-113470000D03*
X154625000Y-112320000D03*
X154625000Y-111170000D03*
X153400000Y-114620000D03*
X153400000Y-113470000D03*
X153400000Y-112320000D03*
X153400000Y-111170000D03*
X152200000Y-114620000D03*
X152200000Y-113470000D03*
X152200000Y-112320000D03*
X152200000Y-111170000D03*
D27*
X156650000Y-114800000D03*
X156650000Y-113530000D03*
X156650000Y-112260000D03*
X156650000Y-110990000D03*
D28*
X150900000Y-114890000D03*
X150900000Y-113560000D03*
X150900000Y-112230000D03*
X150900000Y-110900000D03*
D29*
X114037500Y-106650000D03*
X114037500Y-105700000D03*
X114037500Y-104750000D03*
X111762500Y-104750000D03*
X111762500Y-105700000D03*
X111762500Y-106650000D03*
D13*
X114000000Y-115750000D03*
X114000000Y-113850000D03*
D14*
X139800000Y-106200000D03*
X136850000Y-106200000D03*
D16*
X141850000Y-106200000D03*
X144800000Y-106200000D03*
D30*
X110300000Y-114100000D03*
X111900000Y-114100000D03*
X111900000Y-118200000D03*
X110300000Y-118200000D03*
D31*
X109650000Y-116150000D03*
D14*
X139800000Y-103500000D03*
X136850000Y-103500000D03*
D25*
X106850000Y-96600000D03*
X104950000Y-96600000D03*
D32*
X182900000Y-111800000D03*
X188825000Y-111800000D03*
D26*
X178625000Y-106350000D03*
X178625000Y-105200000D03*
X178625000Y-104050000D03*
X178625000Y-102900000D03*
X177400000Y-106350000D03*
X177400000Y-105200000D03*
X177400000Y-104050000D03*
X177400000Y-102900000D03*
X176200000Y-106350000D03*
X176200000Y-105200000D03*
X176200000Y-104050000D03*
X176200000Y-102900000D03*
D27*
X180650000Y-106530000D03*
X180650000Y-105260000D03*
X180650000Y-103990000D03*
X180650000Y-102720000D03*
D28*
X174900000Y-106620000D03*
X174900000Y-105290000D03*
X174900000Y-103960000D03*
X174900000Y-102630000D03*
D25*
X166900000Y-98400000D03*
X165000000Y-98400000D03*
D16*
X141850000Y-103500000D03*
X144800000Y-103500000D03*
D21*
X115587500Y-88700000D03*
X117412500Y-88700000D03*
D33*
X141900000Y-112487500D03*
X141900000Y-114312500D03*
D21*
X111587500Y-102700000D03*
X113412500Y-102700000D03*
D34*
X168750000Y-98400000D03*
X170650000Y-98400000D03*
D15*
X180712500Y-100500000D03*
X178887500Y-100500000D03*
D13*
X170400000Y-87450000D03*
X170400000Y-85550000D03*
D14*
X188875000Y-105700000D03*
X185925000Y-105700000D03*
D32*
X141837500Y-109600000D03*
X147762500Y-109600000D03*
D25*
X163150000Y-98400000D03*
X161250000Y-98400000D03*
D14*
X139800000Y-100800000D03*
X136850000Y-100800000D03*
D26*
X177225000Y-110910000D03*
X177225000Y-112060000D03*
X177225000Y-113210000D03*
X177225000Y-114360000D03*
X178450000Y-110910000D03*
X178450000Y-112060000D03*
X178450000Y-113210000D03*
X178450000Y-114360000D03*
X179650000Y-110910000D03*
X179650000Y-112060000D03*
X179650000Y-113210000D03*
X179650000Y-114360000D03*
D35*
X175200000Y-110730000D03*
X175200000Y-112000000D03*
X175200000Y-113270000D03*
X175200000Y-114540000D03*
D36*
X180950000Y-110640000D03*
X180950000Y-111970000D03*
X180950000Y-113300000D03*
X180950000Y-114630000D03*
D37*
X107695000Y-102460000D03*
X107695000Y-103260000D03*
D38*
X107695000Y-104460000D03*
X107695000Y-105460000D03*
X107695000Y-105960000D03*
X107695000Y-106960000D03*
D37*
X107695000Y-108160000D03*
X107695000Y-108960000D03*
X107695000Y-108960000D03*
X107695000Y-108160000D03*
D38*
X107695000Y-107460000D03*
X107695000Y-106460000D03*
X107695000Y-104960000D03*
X107695000Y-103960000D03*
D37*
X107695000Y-103260000D03*
X107695000Y-102460000D03*
D26*
X153025000Y-102790000D03*
X153025000Y-103940000D03*
X153025000Y-105090000D03*
X153025000Y-106240000D03*
X154250000Y-102790000D03*
X154250000Y-103940000D03*
X154250000Y-105090000D03*
X154250000Y-106240000D03*
X155450000Y-102790000D03*
X155450000Y-103940000D03*
X155450000Y-105090000D03*
X155450000Y-106240000D03*
D35*
X151000000Y-102610000D03*
X151000000Y-103880000D03*
X151000000Y-105150000D03*
X151000000Y-106420000D03*
D36*
X156750000Y-102520000D03*
X156750000Y-103850000D03*
X156750000Y-105180000D03*
X156750000Y-106510000D03*
D15*
X176412500Y-95200000D03*
X174587500Y-95200000D03*
D21*
X175162500Y-116800000D03*
X176987500Y-116800000D03*
X190762500Y-110800000D03*
X192587500Y-110800000D03*
D39*
X158200000Y-92550000D03*
X158200000Y-94450000D03*
D40*
X200000000Y-73200000D02*
X200000000Y-116800000D01*
X100000000Y-73200000D02*
X100000000Y-116800000D01*
X196800000Y-70000000D02*
X103200000Y-70000000D01*
X196800000Y-70000000D02*
G75*
G02*
X200000000Y-73200000I-100J-3200100D01*
G01*
X200000000Y-116800000D02*
G75*
G02*
X196800000Y-120000000I-3200000J0D01*
G01*
X100000000Y-73200000D02*
G75*
G02*
X103200000Y-70000000I3200000J0D01*
G01*
X103200000Y-120000000D02*
G75*
G02*
X100000000Y-116800000I0J3200000D01*
G01*
X103200000Y-120000000D02*
X196800000Y-120000000D01*
M02*
